M48
; DRILL file {KiCad (6.0.8)} date Sat 29 Oct 2022 12:54:51 AM EDT
; FORMAT={-:-/ absolute / inch / decimal}
; #@! TF.CreationDate,2022-10-29T00:54:51-04:00
; #@! TF.GenerationSoftware,Kicad,Pcbnew,(6.0.8)
; #@! TF.FileFunction,Plated,1,2,PTH
FMAT,2
INCH
; #@! TA.AperFunction,Plated,PTH,ViaDrill
T1C0.0157
; #@! TA.AperFunction,Plated,PTH,ComponentDrill
T2C0.0157
; #@! TA.AperFunction,Plated,PTH,ComponentDrill
T3C0.0236
; #@! TA.AperFunction,Plated,PTH,ComponentDrill
T4C0.0354
%
G90
G05
T1
X4.7362Y-2.5394
X4.7638Y-2.9724
X4.8031Y-3.1969
X4.8976Y-4.2913
X4.9016Y-4.0748
X4.9213Y-3.3622
X4.9685Y-3.622
X5.126Y-3.3071
X5.1339Y-2.626
X5.1339Y-2.9409
X5.1378Y-2.7047
X5.1732Y-2.9409
X5.2165Y-2.626
X5.2165Y-2.7047
X5.2402Y-3.315
X5.248Y-2.9409
X5.315Y-3.3307
X5.3346Y-2.8031
X5.3465Y-3.5472
X5.4055Y-3.1496
X5.4134Y-2.9094
X5.4488Y-3.878
X5.4567Y-4.2874
X5.4764Y-3.1535
X5.4921Y-2.5669
X5.5039Y-2.4921
X5.5118Y-3.6299
X5.5748Y-3.3724
X5.6024Y-3.0551
X5.6496Y-3.6929
T2
X5.4483Y-3.2687
X5.4483Y-3.3022
X5.4483Y-3.3356
X5.4483Y-3.3691
X5.4483Y-3.4026
X5.4483Y-3.436
X5.4483Y-3.4695
X5.4483Y-3.503
X5.5015Y-3.2687
X5.5015Y-3.3022
X5.5015Y-3.3356
X5.5015Y-3.3691
X5.5015Y-3.4026
X5.5015Y-3.436
X5.5015Y-3.4695
X5.5015Y-3.503
T4
X5.1022Y-4.0472
X5.1522Y-3.9472
X5.2022Y-4.0472
X5.2522Y-3.9472
T3
G00X5.4574Y-3.2156
M15
G01X5.5165Y-3.2156
M16
G05
G00X5.4574Y-3.5561
M15
G01X5.5165Y-3.5561
M16
G05
G00X5.6042Y-3.2156
M15
G01X5.6357Y-3.2156
M16
G05
G00X5.6042Y-3.5561
M15
G01X5.6357Y-3.5561
M16
G05
T0
M30
