%TF.GenerationSoftware,KiCad,Pcbnew,7.0.9*%
%TF.CreationDate,2024-01-01T22:47:04-05:00*%
%TF.ProjectId,Vex_Debug,5665785f-4465-4627-9567-2e6b69636164,rev?*%
%TF.SameCoordinates,Original*%
%TF.FileFunction,Copper,L1,Top*%
%TF.FilePolarity,Positive*%
%FSLAX46Y46*%
G04 Gerber Fmt 4.6, Leading zero omitted, Abs format (unit mm)*
G04 Created by KiCad (PCBNEW 7.0.9) date 2024-01-01 22:47:04*
%MOMM*%
%LPD*%
G01*
G04 APERTURE LIST*
G04 Aperture macros list*
%AMRoundRect*
0 Rectangle with rounded corners*
0 $1 Rounding radius*
0 $2 $3 $4 $5 $6 $7 $8 $9 X,Y pos of 4 corners*
0 Add a 4 corners polygon primitive as box body*
4,1,4,$2,$3,$4,$5,$6,$7,$8,$9,$2,$3,0*
0 Add four circle primitives for the rounded corners*
1,1,$1+$1,$2,$3*
1,1,$1+$1,$4,$5*
1,1,$1+$1,$6,$7*
1,1,$1+$1,$8,$9*
0 Add four rect primitives between the rounded corners*
20,1,$1+$1,$2,$3,$4,$5,0*
20,1,$1+$1,$4,$5,$6,$7,0*
20,1,$1+$1,$6,$7,$8,$9,0*
20,1,$1+$1,$8,$9,$2,$3,0*%
G04 Aperture macros list end*
%TA.AperFunction,SMDPad,CuDef*%
%ADD10RoundRect,0.062500X0.062500X-0.350000X0.062500X0.350000X-0.062500X0.350000X-0.062500X-0.350000X0*%
%TD*%
%TA.AperFunction,SMDPad,CuDef*%
%ADD11RoundRect,0.062500X0.350000X-0.062500X0.350000X0.062500X-0.350000X0.062500X-0.350000X-0.062500X0*%
%TD*%
%TA.AperFunction,SMDPad,CuDef*%
%ADD12R,2.500000X2.500000*%
%TD*%
%TA.AperFunction,SMDPad,CuDef*%
%ADD13RoundRect,0.250000X-0.250000X-0.250000X0.250000X-0.250000X0.250000X0.250000X-0.250000X0.250000X0*%
%TD*%
%TA.AperFunction,SMDPad,CuDef*%
%ADD14R,2.000000X1.500000*%
%TD*%
%TA.AperFunction,SMDPad,CuDef*%
%ADD15R,2.000000X3.800000*%
%TD*%
%TA.AperFunction,SMDPad,CuDef*%
%ADD16R,1.498600X0.889000*%
%TD*%
%TA.AperFunction,SMDPad,CuDef*%
%ADD17R,0.711200X0.711200*%
%TD*%
%TA.AperFunction,SMDPad,CuDef*%
%ADD18RoundRect,0.042000X-0.258000X0.943000X-0.258000X-0.943000X0.258000X-0.943000X0.258000X0.943000X0*%
%TD*%
%TA.AperFunction,SMDPad,CuDef*%
%ADD19RoundRect,0.250000X-0.337500X-0.475000X0.337500X-0.475000X0.337500X0.475000X-0.337500X0.475000X0*%
%TD*%
%TA.AperFunction,SMDPad,CuDef*%
%ADD20RoundRect,0.250000X0.350000X0.450000X-0.350000X0.450000X-0.350000X-0.450000X0.350000X-0.450000X0*%
%TD*%
%TA.AperFunction,SMDPad,CuDef*%
%ADD21RoundRect,0.250000X-0.350000X-0.450000X0.350000X-0.450000X0.350000X0.450000X-0.350000X0.450000X0*%
%TD*%
%TA.AperFunction,SMDPad,CuDef*%
%ADD22RoundRect,0.250000X0.450000X-0.350000X0.450000X0.350000X-0.450000X0.350000X-0.450000X-0.350000X0*%
%TD*%
%TA.AperFunction,SMDPad,CuDef*%
%ADD23RoundRect,0.250000X0.325000X0.450000X-0.325000X0.450000X-0.325000X-0.450000X0.325000X-0.450000X0*%
%TD*%
%TA.AperFunction,ComponentPad*%
%ADD24C,0.700000*%
%TD*%
%TA.AperFunction,ComponentPad*%
%ADD25O,2.400000X0.900000*%
%TD*%
%TA.AperFunction,ComponentPad*%
%ADD26O,1.700000X0.900000*%
%TD*%
%TA.AperFunction,SMDPad,CuDef*%
%ADD27C,1.500000*%
%TD*%
%TA.AperFunction,SMDPad,CuDef*%
%ADD28RoundRect,0.250000X-0.450000X0.350000X-0.450000X-0.350000X0.450000X-0.350000X0.450000X0.350000X0*%
%TD*%
%TA.AperFunction,SMDPad,CuDef*%
%ADD29RoundRect,0.250000X-0.325000X-0.450000X0.325000X-0.450000X0.325000X0.450000X-0.325000X0.450000X0*%
%TD*%
%TA.AperFunction,SMDPad,CuDef*%
%ADD30RoundRect,0.150000X-0.150000X0.587500X-0.150000X-0.587500X0.150000X-0.587500X0.150000X0.587500X0*%
%TD*%
%TA.AperFunction,SMDPad,CuDef*%
%ADD31RoundRect,0.250000X0.337500X0.475000X-0.337500X0.475000X-0.337500X-0.475000X0.337500X-0.475000X0*%
%TD*%
%TA.AperFunction,SMDPad,CuDef*%
%ADD32RoundRect,0.250000X-0.650000X1.500000X-0.650000X-1.500000X0.650000X-1.500000X0.650000X1.500000X0*%
%TD*%
%TA.AperFunction,SMDPad,CuDef*%
%ADD33RoundRect,0.250000X-0.475000X0.337500X-0.475000X-0.337500X0.475000X-0.337500X0.475000X0.337500X0*%
%TD*%
%TA.AperFunction,ComponentPad*%
%ADD34R,1.700000X1.700000*%
%TD*%
%TA.AperFunction,ComponentPad*%
%ADD35O,1.700000X1.700000*%
%TD*%
%TA.AperFunction,SMDPad,CuDef*%
%ADD36RoundRect,0.150000X0.150000X-0.587500X0.150000X0.587500X-0.150000X0.587500X-0.150000X-0.587500X0*%
%TD*%
%TA.AperFunction,SMDPad,CuDef*%
%ADD37RoundRect,0.250000X0.650000X-1.500000X0.650000X1.500000X-0.650000X1.500000X-0.650000X-1.500000X0*%
%TD*%
%TA.AperFunction,ComponentPad*%
%ADD38C,1.300000*%
%TD*%
%TA.AperFunction,ViaPad*%
%ADD39C,0.800000*%
%TD*%
%TA.AperFunction,Conductor*%
%ADD40C,0.250000*%
%TD*%
%TA.AperFunction,Conductor*%
%ADD41C,0.200000*%
%TD*%
G04 APERTURE END LIST*
D10*
%TO.P,U4,1,RXD*%
%TO.N,/FTDI_RX*%
X110500000Y-74000000D03*
%TO.P,U4,2,~{RI}*%
%TO.N,unconnected-(U4-~{RI}-Pad2)*%
X111000000Y-74000000D03*
%TO.P,U4,3,GND*%
%TO.N,GND*%
X111500000Y-74000000D03*
%TO.P,U4,4,~{DSR}*%
%TO.N,unconnected-(U4-~{DSR}-Pad4)*%
X112000000Y-74000000D03*
%TO.P,U4,5,~{DCD}*%
%TO.N,unconnected-(U4-~{DCD}-Pad5)*%
X112500000Y-74000000D03*
D11*
%TO.P,U4,6,~{CTS}*%
%TO.N,unconnected-(U4-~{CTS}-Pad6)*%
X113437500Y-73062500D03*
%TO.P,U4,7,CBUS2*%
%TO.N,unconnected-(U4-CBUS2-Pad7)*%
X113437500Y-72562500D03*
%TO.P,U4,8,USBDP*%
%TO.N,/USB_D+*%
X113437500Y-72062500D03*
%TO.P,U4,9,USBDM*%
%TO.N,/USB_D-*%
X113437500Y-71562500D03*
%TO.P,U4,10,3V3OUT*%
%TO.N,+3.3V*%
X113437500Y-71062500D03*
D10*
%TO.P,U4,11,~{RESET}*%
%TO.N,Net-(U4-~{RESET})*%
X112500000Y-70125000D03*
%TO.P,U4,12,VCC*%
%TO.N,+3.3V*%
X112000000Y-70125000D03*
%TO.P,U4,13,GND*%
%TO.N,GND*%
X111500000Y-70125000D03*
%TO.P,U4,14,CBUS1*%
%TO.N,unconnected-(U4-CBUS1-Pad14)*%
X111000000Y-70125000D03*
%TO.P,U4,15,CBUS0*%
%TO.N,unconnected-(U4-CBUS0-Pad15)*%
X110500000Y-70125000D03*
D11*
%TO.P,U4,16,CBUS3*%
%TO.N,unconnected-(U4-CBUS3-Pad16)*%
X109562500Y-71062500D03*
%TO.P,U4,17,TXD*%
%TO.N,/FTDI_TX*%
X109562500Y-71562500D03*
%TO.P,U4,18,~{DTR}*%
%TO.N,Net-(Q2-E)*%
X109562500Y-72062500D03*
%TO.P,U4,19,~{RTS}*%
%TO.N,Net-(Q1-E)*%
X109562500Y-72562500D03*
%TO.P,U4,20,VCCIO*%
%TO.N,+3.3V*%
X109562500Y-73062500D03*
D12*
%TO.P,U4,21,GND*%
%TO.N,GND*%
X111500000Y-72062500D03*
%TD*%
D13*
%TO.P,D6,1,K*%
%TO.N,Net-(D5-K)*%
X118750000Y-81000000D03*
%TO.P,D6,2,A*%
%TO.N,Net-(D6-A)*%
X121250000Y-81000000D03*
%TD*%
D14*
%TO.P,U2,1,GND*%
%TO.N,GND*%
X112150000Y-91300000D03*
%TO.P,U2,2,VO*%
%TO.N,+3.3V*%
X112150000Y-89000000D03*
D15*
X105850000Y-89000000D03*
D14*
%TO.P,U2,3,VI*%
%TO.N,Net-(D5-K)*%
X112150000Y-86700000D03*
%TD*%
D16*
%TO.P,U1,1,3V3*%
%TO.N,+3.3V*%
X108500000Y-55000000D03*
%TO.P,U1,2,EN*%
%TO.N,/EN_PU*%
X108500000Y-56500000D03*
%TO.P,U1,3,IO4*%
%TO.N,/STAT_LED*%
X108500000Y-58000002D03*
%TO.P,U1,4,IO5*%
%TO.N,unconnected-(U1-IO5-Pad4)*%
X108500000Y-59500001D03*
%TO.P,U1,5,IO6*%
%TO.N,/RS485_TX*%
X108500000Y-61000001D03*
%TO.P,U1,6,IO7*%
%TO.N,/RS485_RX*%
X108500000Y-62500000D03*
%TO.P,U1,7,IO8*%
%TO.N,/IO8_PULLUP*%
X108500000Y-64000000D03*
%TO.P,U1,8,IO9*%
%TO.N,/IO9_BOOT*%
X108500000Y-65500002D03*
%TO.P,U1,9,GND*%
%TO.N,GND*%
X108500000Y-67000002D03*
%TO.P,U1,10,IO10*%
%TO.N,/RS485_MODE*%
X126000000Y-67000002D03*
%TO.P,U1,11,RXD*%
%TO.N,/FTDI_TX*%
X126000000Y-65500002D03*
%TO.P,U1,12,TXD*%
%TO.N,/FTDI_RX*%
X126000000Y-64000000D03*
%TO.P,U1,13,IO18*%
%TO.N,/DBG_LED*%
X126000000Y-62500000D03*
%TO.P,U1,14,IO19*%
%TO.N,/SD_SCL*%
X126000000Y-61000001D03*
%TO.P,U1,15,IO3*%
%TO.N,/SD_CS*%
X126000000Y-59500001D03*
%TO.P,U1,16,IO2*%
%TO.N,/IO8_PULLUP*%
X126000000Y-58000002D03*
%TO.P,U1,17,IO1*%
%TO.N,/SD_MOSI*%
X126000000Y-56500000D03*
%TO.P,U1,18,IO0*%
%TO.N,/SD_MISO*%
X126000000Y-55000000D03*
D17*
%TO.P,U1,19,GND*%
%TO.N,GND*%
X117105802Y-60099977D03*
%TO.P,U1,20,GND*%
X118205802Y-60099977D03*
%TO.P,U1,21,GND*%
X119305802Y-60099977D03*
%TO.P,U1,22,GND*%
X117105700Y-61199975D03*
%TO.P,U1,23,GND*%
X118205700Y-61199975D03*
%TO.P,U1,24,GND*%
X119305701Y-61199975D03*
%TO.P,U1,25,GND*%
X117105802Y-62299973D03*
%TO.P,U1,26,GND*%
X118205802Y-62299973D03*
%TO.P,U1,27,GND*%
X119305802Y-62299973D03*
%TD*%
D18*
%TO.P,U3,1,RO*%
%TO.N,/RS485_RX*%
X120905000Y-86525000D03*
%TO.P,U3,2,RE\u002A*%
%TO.N,/RS485_MODE*%
X119635000Y-86525000D03*
%TO.P,U3,3,DE*%
X118365000Y-86525000D03*
%TO.P,U3,4,DI*%
%TO.N,/RS485_TX*%
X117095000Y-86525000D03*
%TO.P,U3,5,GND*%
%TO.N,GND*%
X117095000Y-91475000D03*
%TO.P,U3,6,A*%
%TO.N,/RJ9_DA*%
X118365000Y-91475000D03*
%TO.P,U3,7,B*%
%TO.N,/RJ9_DB*%
X119635000Y-91475000D03*
%TO.P,U3,8,VCC*%
%TO.N,+3.3V*%
X120905000Y-91475000D03*
%TD*%
D19*
%TO.P,C1,1*%
%TO.N,+3.3V*%
X104000000Y-55000000D03*
%TO.P,C1,2*%
%TO.N,GND*%
X106075000Y-55000000D03*
%TD*%
D20*
%TO.P,R2,1*%
%TO.N,Net-(J1-SHIELD)*%
X121000000Y-73000000D03*
%TO.P,R2,2*%
%TO.N,GND*%
X119000000Y-73000000D03*
%TD*%
D21*
%TO.P,R8,1*%
%TO.N,/IO8_PULLUP*%
X128290571Y-58000000D03*
%TO.P,R8,2*%
%TO.N,+3.3V*%
X130290571Y-58000000D03*
%TD*%
D22*
%TO.P,R12,1*%
%TO.N,Net-(Q1-E)*%
X105950000Y-81000000D03*
%TO.P,R12,2*%
%TO.N,Net-(Q2-B)*%
X105950000Y-79000000D03*
%TD*%
D23*
%TO.P,D7,1,K*%
%TO.N,Net-(D7-K)*%
X130315571Y-60000000D03*
%TO.P,D7,2,A*%
%TO.N,/DBG_LED*%
X128265571Y-60000000D03*
%TD*%
D20*
%TO.P,R1,1*%
%TO.N,/RJ9_DB*%
X115000000Y-97000000D03*
%TO.P,R1,2*%
%TO.N,/RJ9_DA*%
X113000000Y-97000000D03*
%TD*%
D24*
%TO.P,J1,A1,GND*%
%TO.N,GND*%
X123975000Y-77975000D03*
%TO.P,J1,A4,VBUS*%
%TO.N,Net-(D6-A)*%
X123975000Y-77125000D03*
%TO.P,J1,A5,CC1*%
%TO.N,Net-(J1-CC1)*%
X123975000Y-76275000D03*
%TO.P,J1,A6,D+*%
%TO.N,/USB_D+*%
X123975000Y-75425000D03*
%TO.P,J1,A7,D-*%
%TO.N,/USB_D-*%
X123975000Y-74575000D03*
%TO.P,J1,A8,SBU1*%
%TO.N,unconnected-(J1-SBU1-PadA8)*%
X123975000Y-73725000D03*
%TO.P,J1,A9,VBUS*%
%TO.N,Net-(D6-A)*%
X123975000Y-72875000D03*
%TO.P,J1,A12,GND*%
%TO.N,GND*%
X123975000Y-72025000D03*
%TO.P,J1,B1,GND*%
X125325000Y-72025000D03*
%TO.P,J1,B4,VBUS*%
%TO.N,Net-(D6-A)*%
X125325000Y-72875000D03*
%TO.P,J1,B5,CC2*%
%TO.N,Net-(J1-CC2)*%
X125325000Y-73725000D03*
%TO.P,J1,B6,D+*%
%TO.N,/USB_D+*%
X125325000Y-74575000D03*
%TO.P,J1,B7,D-*%
%TO.N,/USB_D-*%
X125325000Y-75425000D03*
%TO.P,J1,B8,SBU2*%
%TO.N,unconnected-(J1-SBU2-PadB8)*%
X125325000Y-76275000D03*
%TO.P,J1,B9,VBUS*%
%TO.N,Net-(D6-A)*%
X125325000Y-77125000D03*
%TO.P,J1,B12,GND*%
%TO.N,GND*%
X125325000Y-77975000D03*
D25*
%TO.P,J1,S1,SHIELD*%
%TO.N,Net-(J1-SHIELD)*%
X124955000Y-79325000D03*
D26*
X128335000Y-79325000D03*
D25*
X124955000Y-70675000D03*
D26*
X128335000Y-70675000D03*
%TD*%
D27*
%TO.P,GND,1,1*%
%TO.N,GND*%
X129000000Y-87000000D03*
%TD*%
D28*
%TO.P,R11,1*%
%TO.N,Net-(Q2-E)*%
X111950000Y-79000000D03*
%TO.P,R11,2*%
%TO.N,Net-(Q1-B)*%
X111950000Y-81000000D03*
%TD*%
D27*
%TO.P,VIN,1,1*%
%TO.N,Net-(D5-K)*%
X129000000Y-83000000D03*
%TD*%
D29*
%TO.P,D4,1,K*%
%TO.N,Net-(D4-K)*%
X126950000Y-108000000D03*
%TO.P,D4,2,A*%
%TO.N,/STAT_LED*%
X129000000Y-108000000D03*
%TD*%
D30*
%TO.P,Q1,1,B*%
%TO.N,Net-(Q1-B)*%
X109850000Y-81000000D03*
%TO.P,Q1,2,E*%
%TO.N,Net-(Q1-E)*%
X107950000Y-81000000D03*
%TO.P,Q1,3,C*%
%TO.N,/EN_PU*%
X108900000Y-82875000D03*
%TD*%
D29*
%TO.P,D3,1,K*%
%TO.N,Net-(D3-K)*%
X105975000Y-108000000D03*
%TO.P,D3,2,A*%
%TO.N,+3.3V*%
X108025000Y-108000000D03*
%TD*%
D27*
%TO.P,3V3,1,1*%
%TO.N,+3.3V*%
X129000000Y-91000000D03*
%TD*%
D31*
%TO.P,C5,1*%
%TO.N,Net-(D6-A)*%
X121075000Y-79000000D03*
%TO.P,C5,2*%
%TO.N,GND*%
X119000000Y-79000000D03*
%TD*%
D32*
%TO.P,D1,1,A1*%
%TO.N,/RJ9_DB*%
X107000000Y-97500000D03*
%TO.P,D1,2,A2*%
%TO.N,GND*%
X107000000Y-102500000D03*
%TD*%
D21*
%TO.P,R10,1*%
%TO.N,Net-(U4-~{RESET})*%
X119000000Y-71000000D03*
%TO.P,R10,2*%
%TO.N,+3.3V*%
X121000000Y-71000000D03*
%TD*%
D20*
%TO.P,R3,1*%
%TO.N,Net-(J1-CC1)*%
X121000000Y-77000000D03*
%TO.P,R3,2*%
%TO.N,GND*%
X119000000Y-77000000D03*
%TD*%
D33*
%TO.P,C3,1*%
%TO.N,+3.3V*%
X123000000Y-87962500D03*
%TO.P,C3,2*%
%TO.N,GND*%
X123000000Y-90037500D03*
%TD*%
D34*
%TO.P,J3,1,Pin_1*%
%TO.N,/EN_PU*%
X105000000Y-71275000D03*
D35*
%TO.P,J3,2,Pin_2*%
%TO.N,/IO9_BOOT*%
X105000000Y-68735000D03*
%TD*%
D13*
%TO.P,D5,1,K*%
%TO.N,Net-(D5-K)*%
X118607121Y-94848743D03*
%TO.P,D5,2,A*%
%TO.N,Net-(CONN1-+12V)*%
X121107121Y-94848743D03*
%TD*%
D31*
%TO.P,C4,1*%
%TO.N,Net-(CONN1-+12V)*%
X121037500Y-97000000D03*
%TO.P,C4,2*%
%TO.N,GND*%
X118962500Y-97000000D03*
%TD*%
%TO.P,C6,1*%
%TO.N,/EN_PU*%
X106037500Y-61000000D03*
%TO.P,C6,2*%
%TO.N,GND*%
X103962500Y-61000000D03*
%TD*%
D22*
%TO.P,R7,1*%
%TO.N,/EN_PU*%
X105950000Y-77000000D03*
%TO.P,R7,2*%
%TO.N,+3.3V*%
X105950000Y-75000000D03*
%TD*%
D20*
%TO.P,R4,1*%
%TO.N,Net-(J1-CC2)*%
X121000000Y-75000000D03*
%TO.P,R4,2*%
%TO.N,GND*%
X119000000Y-75000000D03*
%TD*%
D21*
%TO.P,R9,1*%
%TO.N,Net-(D7-K)*%
X128290571Y-62000000D03*
%TO.P,R9,2*%
%TO.N,GND*%
X130290571Y-62000000D03*
%TD*%
%TO.P,R13,1*%
%TO.N,Net-(J2-SHIELD)*%
X128290571Y-64000000D03*
%TO.P,R13,2*%
%TO.N,GND*%
X130290571Y-64000000D03*
%TD*%
D19*
%TO.P,C2,1*%
%TO.N,+3.3V*%
X103962500Y-57000000D03*
%TO.P,C2,2*%
%TO.N,GND*%
X106037500Y-57000000D03*
%TD*%
D36*
%TO.P,Q2,1,B*%
%TO.N,Net-(Q2-B)*%
X108000000Y-78500000D03*
%TO.P,Q2,2,E*%
%TO.N,Net-(Q2-E)*%
X109900000Y-78500000D03*
%TO.P,Q2,3,C*%
%TO.N,/IO9_BOOT*%
X108950000Y-76625000D03*
%TD*%
D19*
%TO.P,C7,1*%
%TO.N,+3.3V*%
X103962500Y-63000000D03*
%TO.P,C7,2*%
%TO.N,GND*%
X106037500Y-63000000D03*
%TD*%
D21*
%TO.P,R6,1*%
%TO.N,Net-(D4-K)*%
X126975000Y-106000000D03*
%TO.P,R6,2*%
%TO.N,GND*%
X128975000Y-106000000D03*
%TD*%
D37*
%TO.P,D2,1,A1*%
%TO.N,/RJ9_DA*%
X128000000Y-102500000D03*
%TO.P,D2,2,A2*%
%TO.N,GND*%
X128000000Y-97500000D03*
%TD*%
D38*
%TO.P,CONN1,1,DA*%
%TO.N,/RJ9_DA*%
X115285000Y-102800000D03*
%TO.P,CONN1,2,DB*%
%TO.N,/RJ9_DB*%
X116555000Y-100260000D03*
%TO.P,CONN1,3,GND*%
%TO.N,GND*%
X117825000Y-102800000D03*
%TO.P,CONN1,4,+12V*%
%TO.N,Net-(CONN1-+12V)*%
X119095000Y-100260000D03*
%TD*%
D21*
%TO.P,R5,1*%
%TO.N,Net-(D3-K)*%
X106000000Y-106000000D03*
%TO.P,R5,2*%
%TO.N,GND*%
X108000000Y-106000000D03*
%TD*%
D39*
%TO.N,+3.3V*%
X120999525Y-69558581D03*
X117401503Y-56443716D03*
X109759787Y-74240213D03*
X116250000Y-69582896D03*
X106750000Y-73250000D03*
X115600000Y-61800000D03*
X114750000Y-70750000D03*
%TO.N,GND*%
X124500000Y-90000000D03*
X117750000Y-79000000D03*
X129800000Y-65400000D03*
X117106012Y-63363047D03*
X109815374Y-70388000D03*
X106000000Y-64500000D03*
X129750000Y-104500000D03*
X128000000Y-94500000D03*
X117500000Y-97000000D03*
X104902284Y-58622970D03*
X109250000Y-106000000D03*
X114000000Y-91250000D03*
X107500000Y-68000000D03*
X120363445Y-60083382D03*
X119343299Y-63363047D03*
X117750000Y-73000000D03*
X127000000Y-87000000D03*
X118000000Y-93250000D03*
X116029581Y-60099977D03*
X109250000Y-103250000D03*
%TO.N,/EN_PU*%
X105000000Y-59750000D03*
%TO.N,/RJ9_DB*%
X112250000Y-98500000D03*
X114500000Y-98500000D03*
%TO.N,Net-(D5-K)*%
X114000000Y-86500000D03*
X117500000Y-81000000D03*
%TO.N,/STAT_LED*%
X130500000Y-108000000D03*
X116250000Y-64000000D03*
%TO.N,/USB_D+*%
X115500000Y-72449503D03*
%TO.N,/USB_D-*%
X115500000Y-71500000D03*
%TO.N,/SD_CS*%
X124250000Y-59500000D03*
%TO.N,/SD_MOSI*%
X123500000Y-57500000D03*
%TO.N,/SD_SCL*%
X124250000Y-61000000D03*
%TO.N,/SD_MISO*%
X124750000Y-53500000D03*
%TO.N,Net-(J2-SHIELD)*%
X127227332Y-63215494D03*
%TO.N,Net-(Q1-E)*%
X107250000Y-80000000D03*
X110750000Y-77250000D03*
%TO.N,Net-(U4-~{RESET})*%
X117626083Y-71123917D03*
X116247807Y-70548304D03*
%TD*%
D40*
%TO.N,+3.3V*%
X120999525Y-70999525D02*
X121000000Y-71000000D01*
X106750000Y-73250000D02*
X106750000Y-74200000D01*
X114437500Y-71062500D02*
X113437500Y-71062500D01*
X109562500Y-74042926D02*
X109759787Y-74240213D01*
X120999525Y-69558581D02*
X120999525Y-70999525D01*
X114750000Y-70750000D02*
X114437500Y-71062500D01*
X106750000Y-74200000D02*
X105950000Y-75000000D01*
X112000000Y-70125000D02*
X112000000Y-68750000D01*
X109562500Y-73062500D02*
X109562500Y-74042926D01*
%TO.N,GND*%
X117105802Y-60099977D02*
X117105802Y-62299973D01*
X119305701Y-61199975D02*
X117105700Y-61199975D01*
X130290571Y-64000000D02*
X130290571Y-64909429D01*
X106037500Y-57462500D02*
X104000000Y-59500000D01*
X112150000Y-91300000D02*
X113950000Y-91300000D01*
X119305802Y-60099977D02*
X117105802Y-60099977D01*
X118962500Y-97000000D02*
X117500000Y-97000000D01*
X119000000Y-73000000D02*
X119000000Y-79000000D01*
X117105802Y-62299973D02*
X117105802Y-63362837D01*
X106037500Y-63000000D02*
X106037500Y-64462500D01*
X117095000Y-91475000D02*
X117095000Y-92345000D01*
X108500000Y-67000002D02*
X108499998Y-67000002D01*
X107000000Y-102500000D02*
X108500000Y-102500000D01*
X117105802Y-62299973D02*
X119305802Y-62299973D01*
X111500000Y-72062500D02*
X111489874Y-72062500D01*
X111489874Y-72062500D02*
X109815374Y-70388000D01*
X117105802Y-63362837D02*
X117106012Y-63363047D01*
X119305802Y-62299973D02*
X119305802Y-60099977D01*
X128975000Y-105275000D02*
X129750000Y-104500000D01*
X103962500Y-59537500D02*
X104000000Y-59500000D01*
X108499998Y-67000002D02*
X107500000Y-68000000D01*
X106037500Y-57000000D02*
X106037500Y-57462500D01*
X128975000Y-106000000D02*
X128975000Y-105275000D01*
X106075000Y-55000000D02*
X106075000Y-56962500D01*
X130290571Y-62000000D02*
X130290571Y-64000000D01*
X116029581Y-60099977D02*
X117105802Y-60099977D01*
X113950000Y-91300000D02*
X114000000Y-91250000D01*
X117750000Y-73000000D02*
X119000000Y-73000000D01*
X106037500Y-64462500D02*
X106000000Y-64500000D01*
X123000000Y-90037500D02*
X124462500Y-90037500D01*
X130290571Y-64909429D02*
X129800000Y-65400000D01*
X119305802Y-62299973D02*
X119305802Y-63325550D01*
X119305802Y-63325550D02*
X119343299Y-63363047D01*
X120346850Y-60099977D02*
X120363445Y-60083382D01*
X117750000Y-79000000D02*
X119000000Y-79000000D01*
X119305802Y-60099977D02*
X120346850Y-60099977D01*
X129000000Y-87000000D02*
X127000000Y-87000000D01*
X108500000Y-102500000D02*
X109250000Y-103250000D01*
X106075000Y-56962500D02*
X106037500Y-57000000D01*
X103962500Y-61000000D02*
X103962500Y-59537500D01*
X118205802Y-60099977D02*
X118205802Y-62299973D01*
X117095000Y-92345000D02*
X118000000Y-93250000D01*
X124462500Y-90037500D02*
X124500000Y-90000000D01*
X108000000Y-106000000D02*
X109250000Y-106000000D01*
X111500000Y-72062500D02*
X111500000Y-74000000D01*
X128000000Y-97500000D02*
X128000000Y-94500000D01*
X111500000Y-72062500D02*
X111500000Y-70125000D01*
%TO.N,Net-(CONN1-+12V)*%
X119095000Y-100260000D02*
X119095000Y-100155000D01*
X121107121Y-96930379D02*
X121037500Y-97000000D01*
X119095000Y-100155000D02*
X121037500Y-98212500D01*
X121107121Y-94848743D02*
X121107121Y-96930379D01*
X121037500Y-98212500D02*
X121037500Y-97000000D01*
%TO.N,Net-(D6-A)*%
X121250000Y-79175000D02*
X121075000Y-79000000D01*
X123975000Y-77125000D02*
X125325000Y-77125000D01*
X123975000Y-72875000D02*
X125325000Y-72875000D01*
X121250000Y-81000000D02*
X121250000Y-79175000D01*
X122950000Y-77125000D02*
X123975000Y-77125000D01*
X121075000Y-79000000D02*
X122950000Y-77125000D01*
%TO.N,/EN_PU*%
X108256202Y-56500000D02*
X108500000Y-56500000D01*
X105000000Y-59962500D02*
X106037500Y-61000000D01*
X105000000Y-71275000D02*
X104975000Y-71300000D01*
X105000000Y-59750000D02*
X105000000Y-59962500D01*
X108900000Y-77917696D02*
X107982304Y-77000000D01*
X107982304Y-77000000D02*
X105950000Y-77000000D01*
X106037500Y-58718702D02*
X108256202Y-56500000D01*
X108900000Y-82875000D02*
X108900000Y-77917696D01*
X104975000Y-76025000D02*
X105950000Y-77000000D01*
X104975000Y-71300000D02*
X104975000Y-76025000D01*
X106037500Y-61000000D02*
X106037500Y-58718702D01*
%TO.N,/RJ9_DB*%
X116000000Y-98000000D02*
X115000000Y-97000000D01*
X119935000Y-97589390D02*
X119524390Y-98000000D01*
X116555000Y-100260000D02*
X118815000Y-98000000D01*
X116555000Y-100260000D02*
X114795000Y-98500000D01*
X112250000Y-98500000D02*
X111250000Y-97500000D01*
X111250000Y-97500000D02*
X107000000Y-97500000D01*
X114795000Y-98500000D02*
X114500000Y-98500000D01*
X119524390Y-98000000D02*
X116000000Y-98000000D01*
X118815000Y-98000000D02*
X119524390Y-98000000D01*
X119935000Y-91775000D02*
X119935000Y-97589390D01*
X119635000Y-91475000D02*
X119935000Y-91775000D01*
%TO.N,Net-(D3-K)*%
X105975000Y-106025000D02*
X106000000Y-106000000D01*
X105975000Y-108000000D02*
X105975000Y-106025000D01*
%TO.N,/RJ9_DA*%
X115850000Y-101600000D02*
X117000000Y-101600000D01*
X113000000Y-97000000D02*
X113000000Y-98750000D01*
X118365000Y-91475000D02*
X118365000Y-92660405D01*
X113000000Y-98750000D02*
X115850000Y-101600000D01*
X119382121Y-95323133D02*
X118955254Y-95750000D01*
X119382121Y-93677526D02*
X119382121Y-95323133D01*
X115900000Y-101600000D02*
X115285000Y-102215000D01*
X115285000Y-102215000D02*
X115285000Y-102800000D01*
X117000000Y-101600000D02*
X115900000Y-101600000D01*
X118365000Y-92660405D02*
X119382121Y-93677526D01*
X118955254Y-95750000D02*
X114250000Y-95750000D01*
X128000000Y-102500000D02*
X127100000Y-101600000D01*
X127100000Y-101600000D02*
X117000000Y-101600000D01*
X114250000Y-95750000D02*
X113000000Y-97000000D01*
%TO.N,/IO8_PULLUP*%
X109743798Y-65000000D02*
X120333452Y-65000000D01*
X124249998Y-58000002D02*
X126000000Y-58000002D01*
X108500000Y-64000000D02*
X108743798Y-64000000D01*
X122750000Y-62583452D02*
X122750000Y-59500000D01*
X126000002Y-58000000D02*
X126000000Y-58000002D01*
X128290571Y-58000000D02*
X126000002Y-58000000D01*
X108743798Y-64000000D02*
X109743798Y-65000000D01*
X120333452Y-65000000D02*
X122750000Y-62583452D01*
X122750000Y-59500000D02*
X124249998Y-58000002D01*
%TO.N,Net-(D4-K)*%
X126975000Y-106000000D02*
X126975000Y-107975000D01*
X126975000Y-107975000D02*
X126950000Y-108000000D01*
%TO.N,Net-(D5-K)*%
X114000000Y-86500000D02*
X115625000Y-88125000D01*
X118607121Y-94848743D02*
X118348743Y-94848743D01*
X115625000Y-92125000D02*
X115625000Y-88125000D01*
X129000000Y-83750000D02*
X129000000Y-83000000D01*
X116500000Y-89000000D02*
X123750000Y-89000000D01*
X123750000Y-89000000D02*
X129000000Y-83750000D01*
X115625000Y-88125000D02*
X116500000Y-89000000D01*
X118348743Y-94848743D02*
X115625000Y-92125000D01*
X112350000Y-86500000D02*
X112150000Y-86700000D01*
X114000000Y-86500000D02*
X112350000Y-86500000D01*
X118750000Y-81000000D02*
X117500000Y-81000000D01*
%TO.N,Net-(J1-SHIELD)*%
X123325000Y-70675000D02*
X124955000Y-70675000D01*
X121000000Y-73000000D02*
X123325000Y-70675000D01*
%TO.N,Net-(J1-CC2)*%
X123600000Y-71400000D02*
X121875000Y-73125000D01*
X125950000Y-71766116D02*
X125583884Y-71400000D01*
X121875000Y-73125000D02*
X121875000Y-74125000D01*
X125583884Y-71400000D02*
X123600000Y-71400000D01*
X125950000Y-73594974D02*
X125950000Y-71766116D01*
X121875000Y-74125000D02*
X121000000Y-75000000D01*
X125819974Y-73725000D02*
X125950000Y-73594974D01*
X125325000Y-73725000D02*
X125819974Y-73725000D01*
%TO.N,/STAT_LED*%
X110250002Y-58000002D02*
X108500000Y-58000002D01*
X129000000Y-108000000D02*
X130500000Y-108000000D01*
X116250000Y-64000000D02*
X110250002Y-58000002D01*
%TO.N,Net-(J1-CC1)*%
X121000000Y-77000000D02*
X121725000Y-76275000D01*
X121725000Y-76275000D02*
X123975000Y-76275000D01*
D41*
%TO.N,/USB_D+*%
X115500000Y-72449503D02*
X115112997Y-72062500D01*
X115112997Y-72062500D02*
X113437500Y-72062500D01*
%TO.N,/USB_D-*%
X123975000Y-74575000D02*
X124475000Y-74575000D01*
X124475000Y-74575000D02*
X125325000Y-75425000D01*
X115437500Y-71562500D02*
X113437500Y-71562500D01*
X115500000Y-71500000D02*
X115437500Y-71562500D01*
D40*
%TO.N,/SD_CS*%
X124250000Y-59500000D02*
X126000000Y-59500001D01*
%TO.N,/SD_MOSI*%
X124500000Y-56500000D02*
X126000000Y-56500000D01*
X123500000Y-57500000D02*
X124500000Y-56500000D01*
%TO.N,/SD_SCL*%
X124250000Y-61000000D02*
X126000000Y-61000001D01*
%TO.N,/RS485_MODE*%
X119635000Y-86905470D02*
X120514530Y-87785000D01*
X120514530Y-87785000D02*
X121340000Y-87785000D01*
X121340000Y-87785000D02*
X126750000Y-82375000D01*
X119635000Y-86525000D02*
X118365000Y-86525000D01*
X119635000Y-86525000D02*
X119635000Y-86905470D01*
X126750000Y-82375000D02*
X126750000Y-67750002D01*
X126750000Y-67750002D02*
X126000000Y-67000002D01*
%TO.N,/RS485_TX*%
X106900000Y-64554595D02*
X106900000Y-62295201D01*
X102750000Y-80250000D02*
X102750000Y-67000000D01*
X115070000Y-84500000D02*
X107000000Y-84500000D01*
X104575000Y-65175000D02*
X106279595Y-65175000D01*
X106900000Y-62295201D02*
X108195200Y-61000001D01*
X106279595Y-65175000D02*
X106900000Y-64554595D01*
X108195200Y-61000001D02*
X108500000Y-61000001D01*
X107000000Y-84500000D02*
X102750000Y-80250000D01*
X117095000Y-86525000D02*
X115070000Y-84500000D01*
X102750000Y-67000000D02*
X104575000Y-65175000D01*
%TO.N,/RS485_RX*%
X103150000Y-67165686D02*
X104740686Y-65575000D01*
X106445281Y-65575000D02*
X107300000Y-64720280D01*
X103150000Y-80084314D02*
X103150000Y-67165686D01*
X107300000Y-63456200D02*
X108256200Y-62500000D01*
X120905000Y-86525000D02*
X120905000Y-85540001D01*
X107300000Y-64720280D02*
X107300000Y-63456200D01*
X120905000Y-85540001D02*
X119464999Y-84100000D01*
X108256200Y-62500000D02*
X108500000Y-62500000D01*
X104740686Y-65575000D02*
X106445281Y-65575000D01*
X107165686Y-84100000D02*
X103150000Y-80084314D01*
X119464999Y-84100000D02*
X107165686Y-84100000D01*
%TO.N,/SD_MISO*%
X124750000Y-53500000D02*
X124750000Y-53750000D01*
X124750000Y-53750000D02*
X126000000Y-55000000D01*
%TO.N,Net-(J2-SHIELD)*%
X128011838Y-64000000D02*
X127227332Y-63215494D01*
X128290571Y-64000000D02*
X128011838Y-64000000D01*
%TO.N,/FTDI_RX*%
X121530498Y-66219502D02*
X116500000Y-71250000D01*
X127400000Y-65850000D02*
X127030498Y-66219502D01*
X116500000Y-71250000D02*
X116500000Y-73250000D01*
X111087501Y-75000000D02*
X110500000Y-74412499D01*
X127030498Y-66219502D02*
X121530498Y-66219502D01*
X126000000Y-64000000D02*
X126304800Y-64000000D01*
X127400000Y-65095200D02*
X127400000Y-65850000D01*
X126304800Y-64000000D02*
X127400000Y-65095200D01*
X110500000Y-74412499D02*
X110500000Y-74000000D01*
X114750000Y-75000000D02*
X111087501Y-75000000D01*
X116500000Y-73250000D02*
X114750000Y-75000000D01*
%TO.N,/FTDI_TX*%
X113299998Y-65500002D02*
X108875000Y-69925000D01*
X108875000Y-69925000D02*
X108875000Y-71287499D01*
X108875000Y-71287499D02*
X109150001Y-71562500D01*
X126000000Y-65500002D02*
X113299998Y-65500002D01*
X109150001Y-71562500D02*
X109562500Y-71562500D01*
%TO.N,/IO9_BOOT*%
X108950000Y-76625000D02*
X108950000Y-75887501D01*
X107850000Y-71585000D02*
X105000000Y-68735000D01*
X107850000Y-74787501D02*
X107850000Y-71585000D01*
X108950000Y-75887501D02*
X107850000Y-74787501D01*
X105000000Y-68735000D02*
X108234998Y-65500002D01*
X108234998Y-65500002D02*
X108500000Y-65500002D01*
%TO.N,Net-(Q1-B)*%
X109850000Y-81000000D02*
X111950000Y-81000000D01*
%TO.N,Net-(Q1-E)*%
X107250000Y-80300000D02*
X107950000Y-81000000D01*
X108750000Y-72962501D02*
X108750000Y-74184314D01*
X109150001Y-72562500D02*
X108750000Y-72962501D01*
X110750000Y-76184314D02*
X110750000Y-77250000D01*
X105950000Y-81000000D02*
X107950000Y-81000000D01*
X108750000Y-74184314D02*
X110750000Y-76184314D01*
X107250000Y-80000000D02*
X107250000Y-80300000D01*
X109562500Y-72562500D02*
X109150001Y-72562500D01*
%TO.N,Net-(Q2-B)*%
X105950000Y-79000000D02*
X107500000Y-79000000D01*
X107500000Y-79000000D02*
X108000000Y-78500000D01*
%TO.N,Net-(Q2-E)*%
X109900000Y-78500000D02*
X110150000Y-78750000D01*
X111700000Y-78750000D02*
X111950000Y-79000000D01*
X108250000Y-74250000D02*
X108250000Y-72731250D01*
X108250000Y-72731250D02*
X108918750Y-72062500D01*
X108918750Y-72062500D02*
X109562500Y-72062500D01*
X110150000Y-78750000D02*
X111700000Y-78750000D01*
X109900000Y-78500000D02*
X109900000Y-75900000D01*
X109900000Y-75900000D02*
X108250000Y-74250000D01*
%TO.N,Net-(U4-~{RESET})*%
X112625000Y-70000000D02*
X112500000Y-70125000D01*
X117626083Y-71123917D02*
X118876083Y-71123917D01*
X114966868Y-70000000D02*
X112625000Y-70000000D01*
X118876083Y-71123917D02*
X119000000Y-71000000D01*
X115515172Y-70548304D02*
X114966868Y-70000000D01*
X116247807Y-70548304D02*
X115515172Y-70548304D01*
%TO.N,Net-(D7-K)*%
X128290571Y-62000000D02*
X128315571Y-62000000D01*
X128315571Y-62000000D02*
X130315571Y-60000000D01*
%TO.N,/DBG_LED*%
X127200000Y-61604800D02*
X126304800Y-62500000D01*
X127200000Y-61000000D02*
X127200000Y-61604800D01*
X126304800Y-62500000D02*
X126000000Y-62500000D01*
X128265571Y-60000000D02*
X128200000Y-60000000D01*
X128200000Y-60000000D02*
X127200000Y-61000000D01*
%TD*%
%TA.AperFunction,Conductor*%
%TO.N,+3.3V*%
G36*
X117025757Y-71218023D02*
G01*
X117082593Y-71260569D01*
X117098134Y-71287861D01*
X117145221Y-71401542D01*
X117233461Y-71516538D01*
X117348458Y-71604779D01*
X117432904Y-71639756D01*
X117482374Y-71660247D01*
X117626083Y-71679167D01*
X117769792Y-71660247D01*
X117855993Y-71624542D01*
X117903707Y-71604779D01*
X117973936Y-71550890D01*
X118018704Y-71516538D01*
X118036077Y-71493896D01*
X118093409Y-71452031D01*
X118164280Y-71447807D01*
X118226184Y-71482569D01*
X118259468Y-71545281D01*
X118260487Y-71550890D01*
X118264353Y-71575303D01*
X118321949Y-71688342D01*
X118411657Y-71778050D01*
X118450299Y-71797738D01*
X118524696Y-71835646D01*
X118618481Y-71850500D01*
X119381518Y-71850499D01*
X119475304Y-71835646D01*
X119588342Y-71778050D01*
X119678050Y-71688342D01*
X119694014Y-71657010D01*
X119742760Y-71605395D01*
X119811674Y-71588327D01*
X119878877Y-71611227D01*
X119923030Y-71666824D01*
X119925885Y-71674578D01*
X119958341Y-71772522D01*
X120051365Y-71923339D01*
X120051370Y-71923345D01*
X120176654Y-72048629D01*
X120176663Y-72048636D01*
X120293574Y-72120747D01*
X120341053Y-72173532D01*
X120352456Y-72243607D01*
X120326710Y-72302862D01*
X120327777Y-72303638D01*
X120324285Y-72308443D01*
X120324164Y-72308723D01*
X120323765Y-72309159D01*
X120321949Y-72311657D01*
X120268331Y-72416891D01*
X120264354Y-72424696D01*
X120249500Y-72518481D01*
X120249500Y-72518484D01*
X120249500Y-73481516D01*
X120264353Y-73575302D01*
X120321949Y-73688342D01*
X120411657Y-73778050D01*
X120450299Y-73797738D01*
X120524696Y-73835646D01*
X120618481Y-73850500D01*
X121381518Y-73850499D01*
X121448076Y-73839958D01*
X121518487Y-73849058D01*
X121572800Y-73894781D01*
X121593772Y-73962610D01*
X121574744Y-74031009D01*
X121556880Y-74053503D01*
X121495427Y-74114955D01*
X121433114Y-74148980D01*
X121386628Y-74150309D01*
X121384085Y-74149906D01*
X121381519Y-74149500D01*
X121381518Y-74149500D01*
X120618483Y-74149500D01*
X120524697Y-74164353D01*
X120411657Y-74221949D01*
X120321949Y-74311657D01*
X120265826Y-74421807D01*
X120264354Y-74424696D01*
X120250033Y-74515116D01*
X120249500Y-74518484D01*
X120249500Y-75481516D01*
X120264353Y-75575302D01*
X120321949Y-75688342D01*
X120411657Y-75778050D01*
X120427486Y-75786115D01*
X120524696Y-75835646D01*
X120618481Y-75850500D01*
X121381518Y-75850499D01*
X121447249Y-75840089D01*
X121517660Y-75849189D01*
X121543329Y-75870799D01*
X121556517Y-75815011D01*
X121582384Y-75786115D01*
X121581331Y-75785062D01*
X121678048Y-75688344D01*
X121678050Y-75688342D01*
X121686109Y-75672525D01*
X121735646Y-75575304D01*
X121750500Y-75481519D01*
X121750499Y-74691304D01*
X121770501Y-74623184D01*
X121787399Y-74602215D01*
X122041850Y-74347764D01*
X122060938Y-74332100D01*
X122073624Y-74323624D01*
X122081620Y-74311657D01*
X122094883Y-74291810D01*
X122106470Y-74274466D01*
X122106471Y-74274465D01*
X122134515Y-74232495D01*
X122150500Y-74152133D01*
X122150500Y-74152132D01*
X122155897Y-74125000D01*
X122152921Y-74110037D01*
X122150500Y-74085457D01*
X122150500Y-73291305D01*
X122170502Y-73223184D01*
X122187400Y-73202215D01*
X123278917Y-72110697D01*
X123341227Y-72076674D01*
X123412042Y-72081738D01*
X123468878Y-72124285D01*
X123488904Y-72164288D01*
X123489833Y-72167452D01*
X123489834Y-72167456D01*
X123489835Y-72167457D01*
X123517724Y-72228525D01*
X123549623Y-72298373D01*
X123609511Y-72367488D01*
X123639004Y-72432069D01*
X123628899Y-72502343D01*
X123609511Y-72532512D01*
X123549623Y-72601626D01*
X123491670Y-72728525D01*
X123489835Y-72732543D01*
X123469353Y-72875000D01*
X123488008Y-73004753D01*
X123489835Y-73017456D01*
X123549623Y-73148373D01*
X123609511Y-73217488D01*
X123639004Y-73282069D01*
X123628899Y-73352343D01*
X123609511Y-73382512D01*
X123549623Y-73451626D01*
X123492396Y-73576936D01*
X123489835Y-73582543D01*
X123469353Y-73725000D01*
X123489835Y-73867457D01*
X123537975Y-73972867D01*
X123549623Y-73998373D01*
X123609511Y-74067488D01*
X123639004Y-74132069D01*
X123628899Y-74202343D01*
X123609511Y-74232512D01*
X123549623Y-74301626D01*
X123498989Y-74412498D01*
X123489835Y-74432543D01*
X123469353Y-74575000D01*
X123489835Y-74717457D01*
X123534214Y-74814633D01*
X123549623Y-74848373D01*
X123609511Y-74917488D01*
X123639004Y-74982069D01*
X123628899Y-75052343D01*
X123609511Y-75082512D01*
X123549623Y-75151626D01*
X123513159Y-75231471D01*
X123489835Y-75282543D01*
X123469353Y-75425000D01*
X123489835Y-75567457D01*
X123538267Y-75673508D01*
X123549623Y-75698373D01*
X123609511Y-75767488D01*
X123639004Y-75832069D01*
X123628899Y-75902343D01*
X123609510Y-75932513D01*
X123589147Y-75956013D01*
X123529421Y-75994396D01*
X123493923Y-75999500D01*
X121764543Y-75999500D01*
X121739962Y-75997079D01*
X121725000Y-75994103D01*
X121724997Y-75994103D01*
X121705448Y-75997990D01*
X121705435Y-75997994D01*
X121690579Y-76000948D01*
X121619865Y-75994616D01*
X121590437Y-75971753D01*
X121573917Y-76031140D01*
X121536965Y-76069300D01*
X121526375Y-76076376D01*
X121517896Y-76089065D01*
X121502230Y-76108152D01*
X121495428Y-76114954D01*
X121433116Y-76148980D01*
X121386631Y-76150309D01*
X121381520Y-76149500D01*
X120618483Y-76149500D01*
X120524697Y-76164353D01*
X120411657Y-76221949D01*
X120321949Y-76311657D01*
X120270998Y-76411657D01*
X120264354Y-76424696D01*
X120249500Y-76518481D01*
X120249500Y-76518484D01*
X120249500Y-77481516D01*
X120264353Y-77575302D01*
X120321949Y-77688342D01*
X120411657Y-77778050D01*
X120427906Y-77786329D01*
X120524696Y-77835646D01*
X120618481Y-77850500D01*
X121381518Y-77850499D01*
X121475304Y-77835646D01*
X121529890Y-77807832D01*
X121599666Y-77794728D01*
X121665451Y-77821427D01*
X121706357Y-77879454D01*
X121709399Y-77950386D01*
X121676188Y-78009194D01*
X121590301Y-78095081D01*
X121527989Y-78129107D01*
X121481498Y-78130435D01*
X121444019Y-78124500D01*
X120705983Y-78124500D01*
X120612197Y-78139353D01*
X120499157Y-78196949D01*
X120409449Y-78286657D01*
X120373535Y-78357144D01*
X120351854Y-78399696D01*
X120339848Y-78475500D01*
X120337000Y-78493484D01*
X120337000Y-79506516D01*
X120351853Y-79600302D01*
X120409449Y-79713342D01*
X120499157Y-79803050D01*
X120537799Y-79822738D01*
X120612196Y-79860646D01*
X120705981Y-79875500D01*
X120848500Y-79875499D01*
X120916620Y-79895501D01*
X120963113Y-79949156D01*
X120974500Y-80001499D01*
X120974500Y-80240932D01*
X120954498Y-80309053D01*
X120900842Y-80355546D01*
X120883919Y-80360646D01*
X120884128Y-80361289D01*
X120874698Y-80364352D01*
X120761657Y-80421949D01*
X120671949Y-80511657D01*
X120623178Y-80607378D01*
X120614354Y-80624696D01*
X120601715Y-80704498D01*
X120599500Y-80718484D01*
X120599500Y-81281516D01*
X120614353Y-81375302D01*
X120671949Y-81488342D01*
X120761657Y-81578050D01*
X120781857Y-81588342D01*
X120874696Y-81635646D01*
X120968481Y-81650500D01*
X121531518Y-81650499D01*
X121625304Y-81635646D01*
X121738342Y-81578050D01*
X121828050Y-81488342D01*
X121885646Y-81375304D01*
X121900500Y-81281519D01*
X121900499Y-80718482D01*
X121885646Y-80624696D01*
X121834694Y-80524697D01*
X121828050Y-80511657D01*
X121738342Y-80421949D01*
X121625301Y-80364352D01*
X121615877Y-80361291D01*
X121616847Y-80358302D01*
X121567611Y-80334946D01*
X121530100Y-80274668D01*
X121525500Y-80240932D01*
X121525500Y-79944128D01*
X121545502Y-79876007D01*
X121594298Y-79831861D01*
X121613026Y-79822318D01*
X121650842Y-79803050D01*
X121740550Y-79713342D01*
X121798146Y-79600304D01*
X121813000Y-79506519D01*
X121812999Y-78703804D01*
X121833001Y-78635684D01*
X121849895Y-78614719D01*
X123027213Y-77437402D01*
X123089523Y-77403379D01*
X123116306Y-77400500D01*
X123493923Y-77400500D01*
X123562044Y-77420502D01*
X123589145Y-77443985D01*
X123601300Y-77458012D01*
X123607100Y-77464706D01*
X123609508Y-77467484D01*
X123639003Y-77532064D01*
X123628901Y-77602339D01*
X123609511Y-77632511D01*
X123549623Y-77701626D01*
X123502299Y-77805250D01*
X123489835Y-77832543D01*
X123469353Y-77975000D01*
X123489835Y-78117457D01*
X123549623Y-78248373D01*
X123613376Y-78321949D01*
X123643873Y-78357144D01*
X123704409Y-78396048D01*
X123764947Y-78434953D01*
X123903039Y-78475500D01*
X124046961Y-78475500D01*
X124185053Y-78434953D01*
X124306128Y-78357143D01*
X124400377Y-78248373D01*
X124460165Y-78117457D01*
X124480647Y-77975000D01*
X124460165Y-77832543D01*
X124400377Y-77701627D01*
X124340487Y-77632510D01*
X124310995Y-77567930D01*
X124321099Y-77497656D01*
X124340492Y-77467484D01*
X124351823Y-77454407D01*
X124360857Y-77443983D01*
X124420585Y-77405602D01*
X124456077Y-77400500D01*
X124843923Y-77400500D01*
X124912044Y-77420502D01*
X124939145Y-77443985D01*
X124951300Y-77458012D01*
X124957100Y-77464706D01*
X124959508Y-77467484D01*
X124989003Y-77532064D01*
X124978901Y-77602339D01*
X124959511Y-77632511D01*
X124899623Y-77701626D01*
X124852299Y-77805250D01*
X124839835Y-77832543D01*
X124819353Y-77975000D01*
X124839835Y-78117457D01*
X124899623Y-78248373D01*
X124963376Y-78321949D01*
X124993873Y-78357144D01*
X125054409Y-78396048D01*
X125114947Y-78434953D01*
X125253039Y-78475500D01*
X125260205Y-78477604D01*
X125319931Y-78515987D01*
X125325000Y-78527086D01*
X125330069Y-78515988D01*
X125389795Y-78477604D01*
X125396960Y-78475500D01*
X125396961Y-78475500D01*
X125535053Y-78434953D01*
X125656128Y-78357143D01*
X125750377Y-78248373D01*
X125810165Y-78117457D01*
X125830647Y-77975000D01*
X125810165Y-77832543D01*
X125750377Y-77701627D01*
X125690488Y-77632510D01*
X125660996Y-77567932D01*
X125671099Y-77497658D01*
X125690486Y-77467490D01*
X125750377Y-77398373D01*
X125810165Y-77267457D01*
X125830647Y-77125000D01*
X125810165Y-76982543D01*
X125750377Y-76851627D01*
X125690488Y-76782510D01*
X125660996Y-76717932D01*
X125671099Y-76647658D01*
X125690486Y-76617490D01*
X125750377Y-76548373D01*
X125810165Y-76417457D01*
X125830647Y-76275000D01*
X125810165Y-76132543D01*
X125750377Y-76001627D01*
X125690488Y-75932510D01*
X125660996Y-75867932D01*
X125671099Y-75797658D01*
X125690486Y-75767490D01*
X125750377Y-75698373D01*
X125810165Y-75567457D01*
X125830647Y-75425000D01*
X125810165Y-75282543D01*
X125750377Y-75151627D01*
X125690488Y-75082510D01*
X125660996Y-75017932D01*
X125671099Y-74947658D01*
X125690486Y-74917490D01*
X125750377Y-74848373D01*
X125810165Y-74717457D01*
X125830647Y-74575000D01*
X125810165Y-74432543D01*
X125750377Y-74301627D01*
X125690487Y-74232510D01*
X125660995Y-74167930D01*
X125671099Y-74097656D01*
X125690484Y-74067493D01*
X125707086Y-74048333D01*
X125766812Y-74009954D01*
X125807564Y-74008135D01*
X125807564Y-74005897D01*
X125819971Y-74005897D01*
X125819972Y-74005896D01*
X125819974Y-74005897D01*
X125847106Y-74000500D01*
X125847107Y-74000500D01*
X125927469Y-73984515D01*
X125971915Y-73954817D01*
X125995596Y-73938994D01*
X125995596Y-73938993D01*
X126009242Y-73929876D01*
X126009244Y-73929873D01*
X126018598Y-73923624D01*
X126027074Y-73910938D01*
X126042739Y-73891849D01*
X126116850Y-73817738D01*
X126135938Y-73802074D01*
X126148624Y-73793598D01*
X126154386Y-73784974D01*
X126171511Y-73759348D01*
X126207914Y-73704865D01*
X126209516Y-73702468D01*
X126224921Y-73625019D01*
X126257828Y-73562109D01*
X126319523Y-73526976D01*
X126390417Y-73530776D01*
X126448004Y-73572301D01*
X126473998Y-73638367D01*
X126474500Y-73649599D01*
X126474500Y-78980110D01*
X126454498Y-79048231D01*
X126400842Y-79094724D01*
X126330568Y-79104828D01*
X126265988Y-79075334D01*
X126232092Y-79028330D01*
X126229537Y-79022162D01*
X126229536Y-79022160D01*
X126229536Y-79022159D01*
X126133282Y-78896718D01*
X126007841Y-78800464D01*
X125861762Y-78739956D01*
X125861760Y-78739955D01*
X125744363Y-78724500D01*
X125744361Y-78724500D01*
X125425293Y-78724500D01*
X125357172Y-78704498D01*
X125325000Y-78667369D01*
X125292828Y-78704498D01*
X125224707Y-78724500D01*
X124165636Y-78724500D01*
X124048239Y-78739955D01*
X123902160Y-78800463D01*
X123902157Y-78800465D01*
X123776718Y-78896718D01*
X123680465Y-79022157D01*
X123680463Y-79022160D01*
X123619955Y-79168239D01*
X123599318Y-79324999D01*
X123599318Y-79325000D01*
X123619955Y-79481760D01*
X123655011Y-79566391D01*
X123680464Y-79627841D01*
X123776718Y-79753282D01*
X123902159Y-79849536D01*
X124048238Y-79910044D01*
X124165639Y-79925500D01*
X124165646Y-79925500D01*
X125744354Y-79925500D01*
X125744361Y-79925500D01*
X125861762Y-79910044D01*
X126007841Y-79849536D01*
X126133282Y-79753282D01*
X126229536Y-79627841D01*
X126232091Y-79621671D01*
X126276638Y-79566391D01*
X126344002Y-79543969D01*
X126412793Y-79561527D01*
X126461172Y-79613488D01*
X126474500Y-79669889D01*
X126474500Y-82208694D01*
X126454498Y-82276815D01*
X126437595Y-82297789D01*
X121570595Y-87164789D01*
X121508283Y-87198815D01*
X121437468Y-87193750D01*
X121380632Y-87151203D01*
X121355821Y-87084683D01*
X121355500Y-87075694D01*
X121355500Y-85563043D01*
X121355499Y-85563039D01*
X121354712Y-85559080D01*
X121344331Y-85506890D01*
X121344330Y-85506888D01*
X121344330Y-85506887D01*
X121301785Y-85443214D01*
X121238112Y-85400669D01*
X121179885Y-85389087D01*
X121116976Y-85356179D01*
X121109604Y-85347358D01*
X121103626Y-85341380D01*
X121103624Y-85341377D01*
X121103537Y-85341319D01*
X121090934Y-85332897D01*
X121071844Y-85317229D01*
X119687768Y-83933153D01*
X119672097Y-83914058D01*
X119663623Y-83901376D01*
X119640621Y-83886006D01*
X119597950Y-83857494D01*
X119572494Y-83840485D01*
X119485996Y-83823279D01*
X119485992Y-83823278D01*
X119465001Y-83819103D01*
X119464999Y-83819103D01*
X119450037Y-83822079D01*
X119425456Y-83824500D01*
X109411617Y-83824500D01*
X109343496Y-83804498D01*
X109297003Y-83750842D01*
X109286899Y-83680568D01*
X109299968Y-83647040D01*
X109297490Y-83645946D01*
X109307203Y-83623947D01*
X109347585Y-83532491D01*
X109350500Y-83507365D01*
X109350499Y-82242636D01*
X109347585Y-82217509D01*
X109331872Y-82181922D01*
X109302206Y-82114734D01*
X109214510Y-82027038D01*
X109217171Y-82024376D01*
X109185397Y-81985450D01*
X109175500Y-81936501D01*
X109175500Y-81740883D01*
X109195502Y-81672762D01*
X109249158Y-81626269D01*
X109319432Y-81616165D01*
X109384012Y-81645659D01*
X109416764Y-81689989D01*
X109447793Y-81760265D01*
X109527232Y-81839704D01*
X109527234Y-81839705D01*
X109527235Y-81839706D01*
X109630009Y-81885085D01*
X109630008Y-81885085D01*
X109634478Y-81885603D01*
X109655135Y-81888000D01*
X110044864Y-81887999D01*
X110069991Y-81885085D01*
X110172765Y-81839706D01*
X110252206Y-81760265D01*
X110297585Y-81657491D01*
X110300500Y-81632365D01*
X110300500Y-81401500D01*
X110320502Y-81333379D01*
X110374158Y-81286886D01*
X110426500Y-81275500D01*
X110975095Y-81275500D01*
X111043216Y-81295502D01*
X111089709Y-81349158D01*
X111099544Y-81381791D01*
X111114353Y-81475302D01*
X111171949Y-81588342D01*
X111261657Y-81678050D01*
X111300299Y-81697738D01*
X111374696Y-81735646D01*
X111468481Y-81750500D01*
X112431518Y-81750499D01*
X112525304Y-81735646D01*
X112638342Y-81678050D01*
X112728050Y-81588342D01*
X112785646Y-81475304D01*
X112800500Y-81381519D01*
X112800499Y-81000000D01*
X116944750Y-81000000D01*
X116963670Y-81143709D01*
X117019137Y-81277624D01*
X117107378Y-81392621D01*
X117222375Y-81480862D01*
X117306821Y-81515839D01*
X117356291Y-81536330D01*
X117500000Y-81555250D01*
X117643709Y-81536330D01*
X117728155Y-81501351D01*
X117777624Y-81480862D01*
X117812492Y-81454106D01*
X117892621Y-81392621D01*
X117909606Y-81370485D01*
X117966941Y-81328619D01*
X118037812Y-81324395D01*
X118099715Y-81359158D01*
X118121834Y-81389985D01*
X118123178Y-81392622D01*
X118171949Y-81488342D01*
X118261657Y-81578050D01*
X118281857Y-81588342D01*
X118374696Y-81635646D01*
X118468481Y-81650500D01*
X119031518Y-81650499D01*
X119125304Y-81635646D01*
X119238342Y-81578050D01*
X119328050Y-81488342D01*
X119385646Y-81375304D01*
X119400500Y-81281519D01*
X119400499Y-80718482D01*
X119385646Y-80624696D01*
X119334694Y-80524697D01*
X119328050Y-80511657D01*
X119238342Y-80421949D01*
X119143705Y-80373730D01*
X119125304Y-80364354D01*
X119031519Y-80349500D01*
X119031515Y-80349500D01*
X118468483Y-80349500D01*
X118374697Y-80364353D01*
X118261657Y-80421949D01*
X118171951Y-80511655D01*
X118171949Y-80511658D01*
X118121835Y-80610013D01*
X118073086Y-80661628D01*
X118004171Y-80678694D01*
X117936970Y-80655793D01*
X117909605Y-80629513D01*
X117892620Y-80607378D01*
X117777624Y-80519137D01*
X117643709Y-80463670D01*
X117500000Y-80444750D01*
X117356290Y-80463670D01*
X117222375Y-80519137D01*
X117107378Y-80607378D01*
X117019137Y-80722375D01*
X116963670Y-80856290D01*
X116944750Y-80999999D01*
X116944750Y-81000000D01*
X112800499Y-81000000D01*
X112800499Y-80618482D01*
X112785646Y-80524696D01*
X112746884Y-80448622D01*
X112728050Y-80411657D01*
X112638342Y-80321949D01*
X112557789Y-80280906D01*
X112525304Y-80264354D01*
X112431519Y-80249500D01*
X112431515Y-80249500D01*
X111468483Y-80249500D01*
X111374697Y-80264353D01*
X111261657Y-80321949D01*
X111171949Y-80411657D01*
X111114354Y-80524694D01*
X111114354Y-80524696D01*
X111101259Y-80607379D01*
X111099543Y-80618211D01*
X111069130Y-80682364D01*
X111008862Y-80719891D01*
X110975094Y-80724500D01*
X110426499Y-80724500D01*
X110358378Y-80704498D01*
X110311885Y-80650842D01*
X110300499Y-80598500D01*
X110300499Y-80367640D01*
X110300499Y-80367636D01*
X110297585Y-80342509D01*
X110268719Y-80277133D01*
X110252206Y-80239734D01*
X110172767Y-80160295D01*
X110172765Y-80160294D01*
X110069989Y-80114914D01*
X110069991Y-80114914D01*
X110044868Y-80112000D01*
X109655139Y-80112000D01*
X109655133Y-80112001D01*
X109630010Y-80114914D01*
X109630005Y-80114916D01*
X109527234Y-80160293D01*
X109447793Y-80239734D01*
X109416764Y-80310011D01*
X109370951Y-80364248D01*
X109303088Y-80385107D01*
X109234720Y-80365965D01*
X109187555Y-80312899D01*
X109175500Y-80259117D01*
X109175500Y-77957238D01*
X109177921Y-77932656D01*
X109180897Y-77917696D01*
X109171951Y-77872722D01*
X109159515Y-77810201D01*
X109156139Y-77805149D01*
X109119623Y-77750499D01*
X109098624Y-77719072D01*
X109098623Y-77719071D01*
X109091730Y-77708755D01*
X109094112Y-77707163D01*
X109068985Y-77661147D01*
X109074050Y-77590332D01*
X109116597Y-77533496D01*
X109161659Y-77515556D01*
X109160848Y-77512572D01*
X109169983Y-77510085D01*
X109169991Y-77510085D01*
X109272765Y-77464706D01*
X109352206Y-77385265D01*
X109383236Y-77314987D01*
X109429049Y-77260751D01*
X109496912Y-77239892D01*
X109565279Y-77259034D01*
X109612445Y-77312099D01*
X109624500Y-77365882D01*
X109624500Y-77561501D01*
X109604498Y-77629622D01*
X109584090Y-77650638D01*
X109585490Y-77652038D01*
X109497795Y-77739732D01*
X109497794Y-77739734D01*
X109452414Y-77842509D01*
X109449500Y-77867629D01*
X109449500Y-79132359D01*
X109449501Y-79132366D01*
X109452414Y-79157490D01*
X109452416Y-79157494D01*
X109497793Y-79260265D01*
X109577232Y-79339704D01*
X109577234Y-79339705D01*
X109577235Y-79339706D01*
X109680009Y-79385085D01*
X109680008Y-79385085D01*
X109684478Y-79385603D01*
X109705135Y-79388000D01*
X110094864Y-79387999D01*
X110119991Y-79385085D01*
X110222765Y-79339706D01*
X110302206Y-79260265D01*
X110347585Y-79157491D01*
X110349965Y-79136979D01*
X110377684Y-79071617D01*
X110436340Y-79031618D01*
X110475125Y-79025500D01*
X110973501Y-79025500D01*
X111041622Y-79045502D01*
X111088115Y-79099158D01*
X111099501Y-79151500D01*
X111099501Y-79381518D01*
X111104205Y-79411222D01*
X111114353Y-79475302D01*
X111171949Y-79588342D01*
X111261657Y-79678050D01*
X111300299Y-79697738D01*
X111374696Y-79735646D01*
X111468481Y-79750500D01*
X112431518Y-79750499D01*
X112525304Y-79735646D01*
X112638342Y-79678050D01*
X112728050Y-79588342D01*
X112785646Y-79475304D01*
X112800500Y-79381519D01*
X112800499Y-79000000D01*
X117194750Y-79000000D01*
X117213670Y-79143709D01*
X117269137Y-79277624D01*
X117357378Y-79392621D01*
X117472375Y-79480862D01*
X117556821Y-79515839D01*
X117606291Y-79536330D01*
X117750000Y-79555250D01*
X117893709Y-79536330D01*
X118004412Y-79490476D01*
X118027621Y-79480863D01*
X118027621Y-79480862D01*
X118027625Y-79480861D01*
X118064959Y-79452213D01*
X118131174Y-79426613D01*
X118200724Y-79440876D01*
X118251521Y-79490476D01*
X118266110Y-79532466D01*
X118276853Y-79600303D01*
X118334449Y-79713342D01*
X118424157Y-79803050D01*
X118462799Y-79822738D01*
X118537196Y-79860646D01*
X118630981Y-79875500D01*
X119369018Y-79875499D01*
X119462804Y-79860646D01*
X119575842Y-79803050D01*
X119665550Y-79713342D01*
X119723146Y-79600304D01*
X119738000Y-79506519D01*
X119737999Y-78493482D01*
X119723146Y-78399696D01*
X119683532Y-78321949D01*
X119665550Y-78286657D01*
X119575842Y-78196949D01*
X119500002Y-78158307D01*
X119462804Y-78139354D01*
X119381787Y-78126522D01*
X119317636Y-78096110D01*
X119280109Y-78035842D01*
X119275500Y-78002074D01*
X119275500Y-77974904D01*
X119295502Y-77906783D01*
X119349158Y-77860290D01*
X119381787Y-77850456D01*
X119475304Y-77835646D01*
X119588342Y-77778050D01*
X119678050Y-77688342D01*
X119735646Y-77575304D01*
X119750500Y-77481519D01*
X119750499Y-76518482D01*
X119735646Y-76424696D01*
X119683294Y-76321949D01*
X119678050Y-76311657D01*
X119588342Y-76221949D01*
X119475305Y-76164354D01*
X119437791Y-76158412D01*
X119381788Y-76149542D01*
X119317636Y-76119130D01*
X119280109Y-76058862D01*
X119275500Y-76025094D01*
X119275500Y-75974904D01*
X119295502Y-75906783D01*
X119349158Y-75860290D01*
X119381787Y-75850456D01*
X119475304Y-75835646D01*
X119588342Y-75778050D01*
X119678050Y-75688342D01*
X119735646Y-75575304D01*
X119750500Y-75481519D01*
X119750499Y-74518482D01*
X119735646Y-74424696D01*
X119696450Y-74347769D01*
X119678050Y-74311657D01*
X119588342Y-74221949D01*
X119475305Y-74164354D01*
X119437791Y-74158412D01*
X119381788Y-74149542D01*
X119317636Y-74119130D01*
X119280109Y-74058862D01*
X119275500Y-74025094D01*
X119275500Y-73974904D01*
X119295502Y-73906783D01*
X119349158Y-73860290D01*
X119381787Y-73850456D01*
X119475304Y-73835646D01*
X119588342Y-73778050D01*
X119678050Y-73688342D01*
X119735646Y-73575304D01*
X119750500Y-73481519D01*
X119750499Y-72518482D01*
X119735646Y-72424696D01*
X119690861Y-72336801D01*
X119678050Y-72311657D01*
X119588342Y-72221949D01*
X119502515Y-72178219D01*
X119475304Y-72164354D01*
X119381519Y-72149500D01*
X119381515Y-72149500D01*
X118618483Y-72149500D01*
X118524697Y-72164353D01*
X118411657Y-72221949D01*
X118321949Y-72311657D01*
X118268331Y-72416891D01*
X118264354Y-72424696D01*
X118258495Y-72461691D01*
X118228082Y-72525844D01*
X118167813Y-72563370D01*
X118096824Y-72562355D01*
X118057342Y-72541942D01*
X118027621Y-72519136D01*
X117893709Y-72463670D01*
X117750000Y-72444750D01*
X117606290Y-72463670D01*
X117472375Y-72519137D01*
X117357378Y-72607378D01*
X117269137Y-72722375D01*
X117213670Y-72856290D01*
X117194750Y-72999999D01*
X117194750Y-73000000D01*
X117213670Y-73143709D01*
X117269137Y-73277624D01*
X117357378Y-73392621D01*
X117472375Y-73480862D01*
X117556821Y-73515839D01*
X117606291Y-73536330D01*
X117750000Y-73555250D01*
X117893709Y-73536330D01*
X117978155Y-73501351D01*
X118027624Y-73480862D01*
X118057341Y-73458059D01*
X118123561Y-73432457D01*
X118193110Y-73446721D01*
X118243906Y-73496321D01*
X118258495Y-73538311D01*
X118264353Y-73575302D01*
X118321949Y-73688342D01*
X118411657Y-73778050D01*
X118524692Y-73835644D01*
X118524696Y-73835646D01*
X118618213Y-73850457D01*
X118682363Y-73880868D01*
X118719891Y-73941136D01*
X118724500Y-73974905D01*
X118724500Y-74025095D01*
X118704498Y-74093216D01*
X118650842Y-74139709D01*
X118618209Y-74149544D01*
X118524697Y-74164353D01*
X118411657Y-74221949D01*
X118321949Y-74311657D01*
X118265826Y-74421807D01*
X118264354Y-74424696D01*
X118250033Y-74515116D01*
X118249500Y-74518484D01*
X118249500Y-75481516D01*
X118264353Y-75575302D01*
X118321949Y-75688342D01*
X118411657Y-75778050D01*
X118500542Y-75823339D01*
X118524696Y-75835646D01*
X118618213Y-75850457D01*
X118682363Y-75880868D01*
X118719891Y-75941136D01*
X118724500Y-75974905D01*
X118724500Y-76025095D01*
X118704498Y-76093216D01*
X118650842Y-76139709D01*
X118618209Y-76149544D01*
X118524697Y-76164353D01*
X118411657Y-76221949D01*
X118321949Y-76311657D01*
X118270998Y-76411657D01*
X118264354Y-76424696D01*
X118249500Y-76518481D01*
X118249500Y-76518484D01*
X118249500Y-77481516D01*
X118264353Y-77575302D01*
X118321949Y-77688342D01*
X118411657Y-77778050D01*
X118518606Y-77832543D01*
X118524696Y-77835646D01*
X118618213Y-77850457D01*
X118682363Y-77880868D01*
X118719891Y-77941136D01*
X118724500Y-77974905D01*
X118724500Y-78002075D01*
X118704498Y-78070196D01*
X118650842Y-78116689D01*
X118618209Y-78126523D01*
X118607743Y-78128181D01*
X118537197Y-78139353D01*
X118424157Y-78196949D01*
X118334449Y-78286657D01*
X118276854Y-78399694D01*
X118273688Y-78419683D01*
X118267728Y-78457319D01*
X118266110Y-78467533D01*
X118235697Y-78531686D01*
X118175429Y-78569213D01*
X118104439Y-78568199D01*
X118064958Y-78547785D01*
X118027623Y-78519137D01*
X117893709Y-78463670D01*
X117750000Y-78444750D01*
X117606290Y-78463670D01*
X117472375Y-78519137D01*
X117357378Y-78607378D01*
X117269137Y-78722375D01*
X117213670Y-78856290D01*
X117194750Y-78999999D01*
X117194750Y-79000000D01*
X112800499Y-79000000D01*
X112800499Y-78618482D01*
X112785646Y-78524696D01*
X112749878Y-78454498D01*
X112728050Y-78411657D01*
X112638342Y-78321949D01*
X112562502Y-78283307D01*
X112525304Y-78264354D01*
X112431519Y-78249500D01*
X112431515Y-78249500D01*
X111468483Y-78249500D01*
X111374697Y-78264353D01*
X111261657Y-78321949D01*
X111171951Y-78411655D01*
X111166119Y-78419683D01*
X111163546Y-78417813D01*
X111126234Y-78457319D01*
X111062717Y-78474500D01*
X110476499Y-78474500D01*
X110408378Y-78454498D01*
X110361885Y-78400842D01*
X110350499Y-78348500D01*
X110350499Y-77868950D01*
X110370501Y-77800829D01*
X110424157Y-77754336D01*
X110494431Y-77744232D01*
X110524713Y-77752540D01*
X110606291Y-77786330D01*
X110750000Y-77805250D01*
X110893709Y-77786330D01*
X110980214Y-77750499D01*
X111027624Y-77730862D01*
X111142621Y-77642621D01*
X111230862Y-77527624D01*
X111252534Y-77475302D01*
X111286330Y-77393709D01*
X111305250Y-77250000D01*
X111286330Y-77106291D01*
X111265839Y-77056821D01*
X111230862Y-76972375D01*
X111142621Y-76857378D01*
X111074796Y-76805334D01*
X111032929Y-76747996D01*
X111025500Y-76705372D01*
X111025500Y-76223856D01*
X111027921Y-76199274D01*
X111030897Y-76184314D01*
X111020589Y-76132494D01*
X111009515Y-76076819D01*
X111009514Y-76076817D01*
X111009514Y-76076816D01*
X110948624Y-75985690D01*
X110948621Y-75985688D01*
X110935934Y-75977210D01*
X110916844Y-75961542D01*
X109062405Y-74107103D01*
X109028379Y-74044791D01*
X109025500Y-74018008D01*
X109025500Y-73819479D01*
X109045502Y-73751358D01*
X109099158Y-73704865D01*
X109167947Y-73694557D01*
X109175106Y-73695499D01*
X109175113Y-73695500D01*
X109949887Y-73695500D01*
X109949896Y-73695499D01*
X110061424Y-73680816D01*
X110065882Y-73679622D01*
X110136858Y-73681308D01*
X110195656Y-73721098D01*
X110223608Y-73786361D01*
X110224500Y-73801327D01*
X110224500Y-74372956D01*
X110222079Y-74397536D01*
X110219103Y-74412498D01*
X110219103Y-74412501D01*
X110223278Y-74433492D01*
X110223279Y-74433496D01*
X110240485Y-74519994D01*
X110260964Y-74550642D01*
X110276241Y-74573507D01*
X110301376Y-74611123D01*
X110314058Y-74619597D01*
X110333153Y-74635268D01*
X110864729Y-75166844D01*
X110880397Y-75185934D01*
X110888876Y-75198623D01*
X110888877Y-75198624D01*
X110908971Y-75212050D01*
X110908987Y-75212062D01*
X110938034Y-75231470D01*
X110938035Y-75231471D01*
X110980006Y-75259515D01*
X111049282Y-75273294D01*
X111066435Y-75276707D01*
X111066438Y-75276707D01*
X111087501Y-75280897D01*
X111099627Y-75278484D01*
X111102463Y-75277921D01*
X111127044Y-75275500D01*
X114710457Y-75275500D01*
X114735038Y-75277921D01*
X114738587Y-75278626D01*
X114750000Y-75280897D01*
X114777132Y-75275500D01*
X114777133Y-75275500D01*
X114857495Y-75259515D01*
X114899465Y-75231471D01*
X114925622Y-75213994D01*
X114925622Y-75213993D01*
X114939266Y-75204877D01*
X114939268Y-75204874D01*
X114948624Y-75198624D01*
X114957103Y-75185934D01*
X114972765Y-75166849D01*
X116666850Y-73472764D01*
X116685938Y-73457100D01*
X116698624Y-73448624D01*
X116717080Y-73421004D01*
X116739089Y-73388064D01*
X116759515Y-73357495D01*
X116775500Y-73277133D01*
X116775500Y-73277132D01*
X116780897Y-73250000D01*
X116778732Y-73239116D01*
X116777921Y-73235037D01*
X116775500Y-73210457D01*
X116775500Y-71416305D01*
X116795502Y-71348184D01*
X116812399Y-71327215D01*
X116892633Y-71246981D01*
X116954941Y-71212959D01*
X117025757Y-71218023D01*
G37*
%TD.AperFunction*%
%TA.AperFunction,Conductor*%
G36*
X106209012Y-70334082D02*
G01*
X106215595Y-70340211D01*
X107537595Y-71662211D01*
X107571621Y-71724523D01*
X107574500Y-71751306D01*
X107574500Y-74747958D01*
X107572079Y-74772538D01*
X107569103Y-74787500D01*
X107569103Y-74787503D01*
X107573278Y-74808494D01*
X107573279Y-74808498D01*
X107590485Y-74894996D01*
X107601804Y-74911936D01*
X107632010Y-74957143D01*
X107651376Y-74986125D01*
X107664058Y-74994599D01*
X107683153Y-75010270D01*
X108483645Y-75810762D01*
X108517671Y-75873074D01*
X108512606Y-75943889D01*
X108509815Y-75950749D01*
X108502414Y-75967509D01*
X108499500Y-75992629D01*
X108499500Y-76823390D01*
X108479498Y-76891511D01*
X108425842Y-76938004D01*
X108355568Y-76948108D01*
X108290988Y-76918614D01*
X108284405Y-76912485D01*
X108205073Y-76833153D01*
X108189402Y-76814058D01*
X108180928Y-76801375D01*
X108163076Y-76789447D01*
X108163075Y-76789446D01*
X108131770Y-76768529D01*
X108131364Y-76768258D01*
X108093349Y-76742857D01*
X108089798Y-76740484D01*
X108003301Y-76723279D01*
X108003297Y-76723278D01*
X107982306Y-76719103D01*
X107982304Y-76719103D01*
X107967342Y-76722079D01*
X107942761Y-76724500D01*
X106924905Y-76724500D01*
X106856784Y-76704498D01*
X106810291Y-76650842D01*
X106800456Y-76618209D01*
X106785646Y-76524697D01*
X106785646Y-76524696D01*
X106734694Y-76424697D01*
X106728050Y-76411657D01*
X106638342Y-76321949D01*
X106607009Y-76305985D01*
X106555394Y-76257237D01*
X106538328Y-76188322D01*
X106561229Y-76121120D01*
X106616826Y-76076968D01*
X106624579Y-76074113D01*
X106722525Y-76041657D01*
X106873339Y-75948634D01*
X106873345Y-75948629D01*
X106998629Y-75823345D01*
X106998634Y-75823339D01*
X107091657Y-75672525D01*
X107147393Y-75504321D01*
X107147394Y-75504318D01*
X107157999Y-75400516D01*
X107158000Y-75400516D01*
X107158000Y-75254000D01*
X105822000Y-75254000D01*
X105753879Y-75233998D01*
X105707386Y-75180342D01*
X105696000Y-75128000D01*
X105696000Y-73892000D01*
X106204000Y-73892000D01*
X106204000Y-74746000D01*
X107158000Y-74746000D01*
X107158000Y-74599483D01*
X107147394Y-74495681D01*
X107147393Y-74495678D01*
X107091657Y-74327474D01*
X106998634Y-74176660D01*
X106998629Y-74176654D01*
X106873345Y-74051370D01*
X106873339Y-74051365D01*
X106722525Y-73958342D01*
X106554321Y-73902606D01*
X106554318Y-73902605D01*
X106450516Y-73892000D01*
X106204000Y-73892000D01*
X105696000Y-73892000D01*
X105449492Y-73892000D01*
X105389306Y-73898149D01*
X105319505Y-73885174D01*
X105267800Y-73836521D01*
X105250500Y-73772801D01*
X105250500Y-72401500D01*
X105270502Y-72333379D01*
X105324158Y-72286886D01*
X105376500Y-72275500D01*
X105864815Y-72275500D01*
X105864820Y-72275500D01*
X105908722Y-72266767D01*
X105958504Y-72233504D01*
X105991767Y-72183722D01*
X106000500Y-72139820D01*
X106000500Y-70429306D01*
X106020502Y-70361185D01*
X106074158Y-70314692D01*
X106144432Y-70304588D01*
X106209012Y-70334082D01*
G37*
%TD.AperFunction*%
%TA.AperFunction,Conductor*%
G36*
X125042321Y-66515004D02*
G01*
X125088814Y-66568660D01*
X125100200Y-66621002D01*
X125100200Y-67459322D01*
X125108932Y-67503223D01*
X125108934Y-67503227D01*
X125142195Y-67553006D01*
X125191974Y-67586267D01*
X125191978Y-67586269D01*
X125235880Y-67595002D01*
X126153194Y-67595002D01*
X126221315Y-67615004D01*
X126242289Y-67631907D01*
X126437595Y-67827213D01*
X126471621Y-67889525D01*
X126474500Y-67916308D01*
X126474500Y-70330110D01*
X126454498Y-70398231D01*
X126400842Y-70444724D01*
X126330568Y-70454828D01*
X126265988Y-70425334D01*
X126232092Y-70378330D01*
X126229536Y-70372159D01*
X126133282Y-70246718D01*
X126007841Y-70150464D01*
X126005517Y-70149501D01*
X125861760Y-70089955D01*
X125744363Y-70074500D01*
X125744361Y-70074500D01*
X124165639Y-70074500D01*
X124165636Y-70074500D01*
X124048239Y-70089955D01*
X123902160Y-70150463D01*
X123902157Y-70150465D01*
X123808996Y-70221950D01*
X123776718Y-70246718D01*
X123704979Y-70340211D01*
X123697311Y-70350204D01*
X123639973Y-70392071D01*
X123597348Y-70399500D01*
X123364542Y-70399500D01*
X123339963Y-70397079D01*
X123325000Y-70394103D01*
X123324999Y-70394103D01*
X123217506Y-70415483D01*
X123154300Y-70457716D01*
X123154295Y-70457720D01*
X123126376Y-70476375D01*
X123117898Y-70489063D01*
X123102231Y-70508152D01*
X122321286Y-71289096D01*
X122258974Y-71323121D01*
X122188158Y-71318056D01*
X122143096Y-71289095D01*
X122108001Y-71254000D01*
X120872000Y-71254000D01*
X120803879Y-71233998D01*
X120757386Y-71180342D01*
X120746000Y-71128000D01*
X120746000Y-69792000D01*
X121254000Y-69792000D01*
X121254000Y-70746000D01*
X122108000Y-70746000D01*
X122108000Y-70499483D01*
X122097394Y-70395681D01*
X122097393Y-70395678D01*
X122041657Y-70227474D01*
X121948634Y-70076660D01*
X121948629Y-70076654D01*
X121823345Y-69951370D01*
X121823339Y-69951365D01*
X121672525Y-69858342D01*
X121504321Y-69802606D01*
X121504318Y-69802605D01*
X121400516Y-69792000D01*
X121254000Y-69792000D01*
X120746000Y-69792000D01*
X120599483Y-69792000D01*
X120495681Y-69802605D01*
X120495678Y-69802606D01*
X120327474Y-69858342D01*
X120176660Y-69951365D01*
X120176654Y-69951370D01*
X120051370Y-70076654D01*
X120051365Y-70076660D01*
X119958341Y-70227477D01*
X119925885Y-70325421D01*
X119885471Y-70383792D01*
X119819914Y-70411047D01*
X119750029Y-70398533D01*
X119698004Y-70350223D01*
X119694019Y-70342999D01*
X119678050Y-70311658D01*
X119678049Y-70311657D01*
X119678048Y-70311655D01*
X119588342Y-70221949D01*
X119512502Y-70183307D01*
X119475304Y-70164354D01*
X119381519Y-70149500D01*
X119381515Y-70149500D01*
X118618483Y-70149500D01*
X118524697Y-70164353D01*
X118411657Y-70221949D01*
X118321949Y-70311657D01*
X118269159Y-70415265D01*
X118264354Y-70424696D01*
X118249500Y-70518481D01*
X118249500Y-70518484D01*
X118249500Y-70660891D01*
X118229498Y-70729012D01*
X118175842Y-70775505D01*
X118105568Y-70785609D01*
X118040988Y-70756115D01*
X118023538Y-70737595D01*
X118018704Y-70731295D01*
X117903708Y-70643055D01*
X117790027Y-70595968D01*
X117734746Y-70551420D01*
X117712325Y-70484057D01*
X117729883Y-70415265D01*
X117749146Y-70390468D01*
X121607708Y-66531907D01*
X121670020Y-66497881D01*
X121696803Y-66495002D01*
X124974200Y-66495002D01*
X125042321Y-66515004D01*
G37*
%TD.AperFunction*%
%TA.AperFunction,Conductor*%
G36*
X114868683Y-70295502D02*
G01*
X114889657Y-70312405D01*
X115292400Y-70715148D01*
X115308068Y-70734238D01*
X115315928Y-70746000D01*
X115316548Y-70746928D01*
X115337539Y-70760954D01*
X115343534Y-70765500D01*
X115346402Y-70767959D01*
X115344531Y-70770141D01*
X115381516Y-70814380D01*
X115390376Y-70884822D01*
X115359746Y-70948871D01*
X115314213Y-70981098D01*
X115222374Y-71019138D01*
X115107378Y-71107378D01*
X115019139Y-71222373D01*
X115019139Y-71222374D01*
X115014235Y-71234215D01*
X114969688Y-71289497D01*
X114902325Y-71311920D01*
X114897825Y-71312000D01*
X114481979Y-71312000D01*
X114413858Y-71291998D01*
X114367365Y-71238342D01*
X114357057Y-71169553D01*
X114357999Y-71162393D01*
X114358000Y-71162387D01*
X114358000Y-70962613D01*
X114357999Y-70962603D01*
X114343315Y-70851069D01*
X114285833Y-70712291D01*
X114194385Y-70593114D01*
X114074943Y-70501463D01*
X114033076Y-70444125D01*
X114028854Y-70373254D01*
X114063618Y-70311351D01*
X114126331Y-70278070D01*
X114151647Y-70275500D01*
X114800562Y-70275500D01*
X114868683Y-70295502D01*
G37*
%TD.AperFunction*%
%TA.AperFunction,Conductor*%
G36*
X121351859Y-65795504D02*
G01*
X121398352Y-65849160D01*
X121408456Y-65919434D01*
X121378962Y-65984014D01*
X121353741Y-66006267D01*
X121331874Y-66020878D01*
X121323392Y-66033570D01*
X121307726Y-66052657D01*
X116967753Y-70392629D01*
X116905441Y-70426655D01*
X116834625Y-70421590D01*
X116777790Y-70379043D01*
X116762249Y-70351751D01*
X116728669Y-70270679D01*
X116640428Y-70155682D01*
X116525431Y-70067441D01*
X116391516Y-70011974D01*
X116247807Y-69993054D01*
X116104097Y-70011974D01*
X115970182Y-70067441D01*
X115855188Y-70155680D01*
X115855186Y-70155683D01*
X115803140Y-70223510D01*
X115745805Y-70265375D01*
X115703180Y-70272804D01*
X115681478Y-70272804D01*
X115613357Y-70252802D01*
X115592383Y-70235899D01*
X115189637Y-69833153D01*
X115173966Y-69814058D01*
X115165492Y-69801376D01*
X115142490Y-69786006D01*
X115087672Y-69749378D01*
X115074364Y-69740486D01*
X115074365Y-69740486D01*
X115074363Y-69740485D01*
X115074361Y-69740484D01*
X115074360Y-69740484D01*
X114987865Y-69723279D01*
X114987861Y-69723278D01*
X114966870Y-69719103D01*
X114966868Y-69719103D01*
X114951906Y-69722079D01*
X114927325Y-69724500D01*
X112852279Y-69724500D01*
X112784158Y-69704498D01*
X112747513Y-69668501D01*
X112744381Y-69663814D01*
X112716065Y-69621435D01*
X112711747Y-69618550D01*
X112645609Y-69574358D01*
X112635025Y-69569974D01*
X112579744Y-69525426D01*
X112566832Y-69501778D01*
X112560831Y-69487288D01*
X112469385Y-69368114D01*
X112350208Y-69276666D01*
X112211430Y-69219184D01*
X112099896Y-69204500D01*
X111900103Y-69204500D01*
X111788569Y-69219184D01*
X111649791Y-69276666D01*
X111530614Y-69368114D01*
X111439170Y-69487286D01*
X111439166Y-69487293D01*
X111433163Y-69501786D01*
X111388613Y-69557066D01*
X111364981Y-69569970D01*
X111354391Y-69574356D01*
X111320000Y-69597336D01*
X111252247Y-69618550D01*
X111183781Y-69599766D01*
X111180000Y-69597336D01*
X111145610Y-69574358D01*
X111083482Y-69562000D01*
X111083480Y-69562000D01*
X110916520Y-69562000D01*
X110916517Y-69562000D01*
X110854389Y-69574358D01*
X110820000Y-69597336D01*
X110752247Y-69618550D01*
X110683781Y-69599766D01*
X110680000Y-69597336D01*
X110645610Y-69574358D01*
X110583482Y-69562000D01*
X110583480Y-69562000D01*
X110416520Y-69562000D01*
X110416517Y-69562000D01*
X110354390Y-69574358D01*
X110283934Y-69621434D01*
X110236858Y-69691890D01*
X110224500Y-69754017D01*
X110224500Y-69773036D01*
X110204498Y-69841157D01*
X110150842Y-69887650D01*
X110080568Y-69897754D01*
X110050283Y-69889445D01*
X109959083Y-69851670D01*
X109815374Y-69832750D01*
X109671656Y-69851671D01*
X109670000Y-69852115D01*
X109668549Y-69852080D01*
X109663478Y-69852748D01*
X109663373Y-69851956D01*
X109599023Y-69850420D01*
X109540231Y-69810621D01*
X109512289Y-69745354D01*
X109524068Y-69675341D01*
X109548301Y-69641314D01*
X113377209Y-65812407D01*
X113439521Y-65778381D01*
X113466304Y-65775502D01*
X121283738Y-65775502D01*
X121351859Y-65795504D01*
G37*
%TD.AperFunction*%
%TA.AperFunction,Conductor*%
G36*
X131741621Y-52220502D02*
G01*
X131788114Y-52274158D01*
X131799500Y-52326500D01*
X131799500Y-111673500D01*
X131779498Y-111741621D01*
X131725842Y-111788114D01*
X131673500Y-111799500D01*
X102326500Y-111799500D01*
X102258379Y-111779498D01*
X102211886Y-111725842D01*
X102200500Y-111673500D01*
X102200500Y-109217911D01*
X111521780Y-109217911D01*
X111551468Y-109487742D01*
X111620132Y-109750386D01*
X111726304Y-110000227D01*
X111867716Y-110231940D01*
X111867721Y-110231946D01*
X112041366Y-110440602D01*
X112041370Y-110440606D01*
X112243535Y-110621748D01*
X112243539Y-110621750D01*
X112243546Y-110621757D01*
X112469947Y-110771542D01*
X112469949Y-110771543D01*
X112715740Y-110886766D01*
X112715742Y-110886766D01*
X112715743Y-110886767D01*
X112975697Y-110964975D01*
X112975700Y-110964975D01*
X112975702Y-110964976D01*
X113244264Y-111004500D01*
X113244268Y-111004500D01*
X113447783Y-111004500D01*
X113528964Y-110998558D01*
X113650740Y-110989645D01*
X113915709Y-110930621D01*
X114169261Y-110833646D01*
X114405991Y-110700786D01*
X114620853Y-110534875D01*
X114809269Y-110339447D01*
X114967223Y-110118668D01*
X115091348Y-109877244D01*
X115178998Y-109620320D01*
X115228306Y-109353371D01*
X115233256Y-109217911D01*
X119141780Y-109217911D01*
X119171468Y-109487742D01*
X119240132Y-109750386D01*
X119346304Y-110000227D01*
X119487716Y-110231940D01*
X119487721Y-110231946D01*
X119661366Y-110440602D01*
X119661370Y-110440606D01*
X119863535Y-110621748D01*
X119863539Y-110621750D01*
X119863546Y-110621757D01*
X120089947Y-110771542D01*
X120089949Y-110771543D01*
X120335740Y-110886766D01*
X120335742Y-110886766D01*
X120335743Y-110886767D01*
X120595697Y-110964975D01*
X120595700Y-110964975D01*
X120595702Y-110964976D01*
X120864264Y-111004500D01*
X120864268Y-111004500D01*
X121067783Y-111004500D01*
X121148964Y-110998558D01*
X121270740Y-110989645D01*
X121535709Y-110930621D01*
X121789261Y-110833646D01*
X122025991Y-110700786D01*
X122240853Y-110534875D01*
X122429269Y-110339447D01*
X122587223Y-110118668D01*
X122711348Y-109877244D01*
X122798998Y-109620320D01*
X122848306Y-109353371D01*
X122858220Y-109082089D01*
X122843315Y-108946629D01*
X122828531Y-108812257D01*
X122818144Y-108772525D01*
X122759868Y-108549616D01*
X122730928Y-108481516D01*
X126224500Y-108481516D01*
X126239353Y-108575302D01*
X126296949Y-108688342D01*
X126386657Y-108778050D01*
X126425299Y-108797738D01*
X126499696Y-108835646D01*
X126593481Y-108850500D01*
X127306518Y-108850499D01*
X127400304Y-108835646D01*
X127513342Y-108778050D01*
X127603050Y-108688342D01*
X127660646Y-108575304D01*
X127675500Y-108481519D01*
X127675500Y-108481516D01*
X128274500Y-108481516D01*
X128289353Y-108575302D01*
X128346949Y-108688342D01*
X128436657Y-108778050D01*
X128475299Y-108797738D01*
X128549696Y-108835646D01*
X128643481Y-108850500D01*
X129356518Y-108850499D01*
X129450304Y-108835646D01*
X129563342Y-108778050D01*
X129653050Y-108688342D01*
X129710646Y-108575304D01*
X129725500Y-108481519D01*
X129725500Y-108401500D01*
X129745502Y-108333379D01*
X129799158Y-108286886D01*
X129851500Y-108275500D01*
X129955373Y-108275500D01*
X130023494Y-108295502D01*
X130055331Y-108324792D01*
X130107379Y-108392621D01*
X130107381Y-108392623D01*
X130222375Y-108480862D01*
X130306821Y-108515839D01*
X130356291Y-108536330D01*
X130500000Y-108555250D01*
X130643709Y-108536330D01*
X130730173Y-108500516D01*
X130777624Y-108480862D01*
X130892621Y-108392621D01*
X130980862Y-108277624D01*
X131001351Y-108228155D01*
X131036330Y-108143709D01*
X131055250Y-108000000D01*
X131036330Y-107856291D01*
X131014621Y-107803879D01*
X130980862Y-107722375D01*
X130892621Y-107607378D01*
X130777624Y-107519137D01*
X130643709Y-107463670D01*
X130500000Y-107444750D01*
X130356290Y-107463670D01*
X130222375Y-107519137D01*
X130107381Y-107607376D01*
X130107379Y-107607379D01*
X130055333Y-107675206D01*
X129997998Y-107717071D01*
X129955373Y-107724500D01*
X129851499Y-107724500D01*
X129783378Y-107704498D01*
X129736885Y-107650842D01*
X129725499Y-107598500D01*
X129725499Y-107518483D01*
X129710646Y-107424697D01*
X129710646Y-107424696D01*
X129664955Y-107335023D01*
X129653050Y-107311657D01*
X129563342Y-107221949D01*
X129487502Y-107183307D01*
X129450304Y-107164354D01*
X129356519Y-107149500D01*
X129356515Y-107149500D01*
X128643483Y-107149500D01*
X128549697Y-107164353D01*
X128436657Y-107221949D01*
X128346949Y-107311657D01*
X128304139Y-107395678D01*
X128289354Y-107424696D01*
X128277509Y-107499483D01*
X128274500Y-107518484D01*
X128274500Y-108481516D01*
X127675500Y-108481516D01*
X127675499Y-107518482D01*
X127660646Y-107424696D01*
X127614955Y-107335023D01*
X127603050Y-107311657D01*
X127513342Y-107221949D01*
X127400303Y-107164353D01*
X127356788Y-107157461D01*
X127292635Y-107127048D01*
X127255109Y-107066780D01*
X127250500Y-107033013D01*
X127250500Y-106974904D01*
X127270502Y-106906783D01*
X127324158Y-106860290D01*
X127356787Y-106850456D01*
X127450304Y-106835646D01*
X127563342Y-106778050D01*
X127653050Y-106688342D01*
X127710646Y-106575304D01*
X127725500Y-106481519D01*
X127725500Y-106481516D01*
X128224500Y-106481516D01*
X128239353Y-106575302D01*
X128296949Y-106688342D01*
X128386657Y-106778050D01*
X128425299Y-106797738D01*
X128499696Y-106835646D01*
X128593481Y-106850500D01*
X129356518Y-106850499D01*
X129450304Y-106835646D01*
X129563342Y-106778050D01*
X129653050Y-106688342D01*
X129710646Y-106575304D01*
X129725500Y-106481519D01*
X129725499Y-105518482D01*
X129710646Y-105424696D01*
X129681848Y-105368177D01*
X129653050Y-105311657D01*
X129605535Y-105264142D01*
X129571509Y-105201830D01*
X129576574Y-105131015D01*
X129619121Y-105074179D01*
X129685641Y-105049368D01*
X129711070Y-105050124D01*
X129750000Y-105055250D01*
X129893709Y-105036330D01*
X129978155Y-105001351D01*
X130027624Y-104980862D01*
X130142621Y-104892621D01*
X130230862Y-104777624D01*
X130267031Y-104690301D01*
X130286330Y-104643709D01*
X130305250Y-104500000D01*
X130286330Y-104356291D01*
X130237475Y-104238342D01*
X130230862Y-104222375D01*
X130142621Y-104107378D01*
X130027624Y-104019137D01*
X129893709Y-103963670D01*
X129750000Y-103944750D01*
X129606290Y-103963670D01*
X129472375Y-104019137D01*
X129357378Y-104107378D01*
X129269137Y-104222375D01*
X129213670Y-104356290D01*
X129194750Y-104499999D01*
X129194750Y-104500002D01*
X129205908Y-104584761D01*
X129194968Y-104654909D01*
X129170081Y-104690301D01*
X128808152Y-105052230D01*
X128789065Y-105067896D01*
X128776378Y-105076373D01*
X128776377Y-105076374D01*
X128764930Y-105093506D01*
X128710451Y-105139032D01*
X128660169Y-105149500D01*
X128593484Y-105149500D01*
X128499697Y-105164353D01*
X128386657Y-105221949D01*
X128296949Y-105311657D01*
X128239355Y-105424694D01*
X128239354Y-105424696D01*
X128224500Y-105518481D01*
X128224500Y-105518484D01*
X128224500Y-106481516D01*
X127725500Y-106481516D01*
X127725499Y-105518482D01*
X127710646Y-105424696D01*
X127681848Y-105368177D01*
X127653050Y-105311657D01*
X127563342Y-105221949D01*
X127487502Y-105183307D01*
X127450304Y-105164354D01*
X127356519Y-105149500D01*
X127356515Y-105149500D01*
X126593483Y-105149500D01*
X126499697Y-105164353D01*
X126386657Y-105221949D01*
X126296949Y-105311657D01*
X126239355Y-105424694D01*
X126239354Y-105424696D01*
X126224500Y-105518481D01*
X126224500Y-105518484D01*
X126224500Y-106481516D01*
X126239353Y-106575302D01*
X126296949Y-106688342D01*
X126386657Y-106778050D01*
X126481679Y-106826466D01*
X126499696Y-106835646D01*
X126593213Y-106850457D01*
X126657363Y-106880868D01*
X126694891Y-106941136D01*
X126699500Y-106974905D01*
X126699500Y-107025095D01*
X126679498Y-107093216D01*
X126625842Y-107139709D01*
X126593209Y-107149544D01*
X126499697Y-107164353D01*
X126386657Y-107221949D01*
X126296949Y-107311657D01*
X126254139Y-107395678D01*
X126239354Y-107424696D01*
X126227509Y-107499483D01*
X126224500Y-107518484D01*
X126224500Y-108481516D01*
X122730928Y-108481516D01*
X122653695Y-108299772D01*
X122512283Y-108068059D01*
X122512281Y-108068056D01*
X122338632Y-107859396D01*
X122276672Y-107803879D01*
X122136464Y-107678251D01*
X122136459Y-107678247D01*
X122136454Y-107678243D01*
X121910053Y-107528458D01*
X121910050Y-107528456D01*
X121664259Y-107413233D01*
X121404297Y-107335023D01*
X121135735Y-107295500D01*
X121135732Y-107295500D01*
X120932219Y-107295500D01*
X120932217Y-107295500D01*
X120729262Y-107310354D01*
X120464287Y-107369380D01*
X120464285Y-107369381D01*
X120210738Y-107466354D01*
X119974008Y-107599214D01*
X119759145Y-107765126D01*
X119759144Y-107765127D01*
X119570732Y-107960551D01*
X119570727Y-107960557D01*
X119412779Y-108181328D01*
X119412775Y-108181333D01*
X119288652Y-108422753D01*
X119201000Y-108679686D01*
X119151693Y-108946632D01*
X119141780Y-109217911D01*
X115233256Y-109217911D01*
X115238220Y-109082089D01*
X115223315Y-108946629D01*
X115208531Y-108812257D01*
X115198144Y-108772525D01*
X115139868Y-108549616D01*
X115110928Y-108481516D01*
X115033695Y-108299772D01*
X114892283Y-108068059D01*
X114892281Y-108068056D01*
X114718632Y-107859396D01*
X114656672Y-107803879D01*
X114516464Y-107678251D01*
X114516459Y-107678247D01*
X114516454Y-107678243D01*
X114290053Y-107528458D01*
X114290050Y-107528456D01*
X114044259Y-107413233D01*
X113784297Y-107335023D01*
X113515735Y-107295500D01*
X113515732Y-107295500D01*
X113312219Y-107295500D01*
X113312217Y-107295500D01*
X113109262Y-107310354D01*
X112844287Y-107369380D01*
X112844285Y-107369381D01*
X112590738Y-107466354D01*
X112354008Y-107599214D01*
X112139145Y-107765126D01*
X112139144Y-107765127D01*
X111950732Y-107960551D01*
X111950727Y-107960557D01*
X111792779Y-108181328D01*
X111792775Y-108181333D01*
X111668652Y-108422753D01*
X111581000Y-108679686D01*
X111531693Y-108946632D01*
X111521780Y-109217911D01*
X102200500Y-109217911D01*
X102200500Y-108481516D01*
X105249500Y-108481516D01*
X105264353Y-108575302D01*
X105321949Y-108688342D01*
X105411657Y-108778050D01*
X105450299Y-108797738D01*
X105524696Y-108835646D01*
X105618481Y-108850500D01*
X106331518Y-108850499D01*
X106425304Y-108835646D01*
X106538342Y-108778050D01*
X106628050Y-108688342D01*
X106685646Y-108575304D01*
X106694706Y-108518096D01*
X106725117Y-108453946D01*
X106785384Y-108416419D01*
X106856374Y-108417432D01*
X106915546Y-108456664D01*
X106944115Y-108521659D01*
X106944501Y-108525001D01*
X106952605Y-108604318D01*
X106952606Y-108604321D01*
X107008342Y-108772525D01*
X107101365Y-108923339D01*
X107101370Y-108923345D01*
X107226654Y-109048629D01*
X107226660Y-109048634D01*
X107377474Y-109141657D01*
X107545678Y-109197393D01*
X107545681Y-109197394D01*
X107649483Y-109207999D01*
X107649483Y-109208000D01*
X107771000Y-109208000D01*
X107771000Y-108254000D01*
X108279000Y-108254000D01*
X108279000Y-109208000D01*
X108400517Y-109208000D01*
X108400516Y-109207999D01*
X108504318Y-109197394D01*
X108504321Y-109197393D01*
X108672525Y-109141657D01*
X108823339Y-109048634D01*
X108823345Y-109048629D01*
X108948629Y-108923345D01*
X108948634Y-108923339D01*
X109041657Y-108772525D01*
X109097393Y-108604321D01*
X109097394Y-108604318D01*
X109107999Y-108500516D01*
X109108000Y-108500516D01*
X109108000Y-108254000D01*
X108279000Y-108254000D01*
X107771000Y-108254000D01*
X107771000Y-107872000D01*
X107791002Y-107803879D01*
X107844658Y-107757386D01*
X107897000Y-107746000D01*
X109108000Y-107746000D01*
X109108000Y-107499483D01*
X109097394Y-107395681D01*
X109097393Y-107395678D01*
X109041657Y-107227474D01*
X108948634Y-107076660D01*
X108948629Y-107076654D01*
X108823345Y-106951370D01*
X108823339Y-106951365D01*
X108706424Y-106879252D01*
X108658946Y-106826466D01*
X108647543Y-106756392D01*
X108673288Y-106697136D01*
X108672223Y-106696362D01*
X108675710Y-106691561D01*
X108675835Y-106691276D01*
X108676241Y-106690831D01*
X108678050Y-106688342D01*
X108735645Y-106575305D01*
X108735646Y-106575304D01*
X108741505Y-106538307D01*
X108771915Y-106474157D01*
X108832183Y-106436630D01*
X108903172Y-106437643D01*
X108942657Y-106458058D01*
X108972375Y-106480862D01*
X109056821Y-106515839D01*
X109106291Y-106536330D01*
X109250000Y-106555250D01*
X109393709Y-106536330D01*
X109478155Y-106501351D01*
X109527624Y-106480862D01*
X109642621Y-106392621D01*
X109730862Y-106277624D01*
X109751351Y-106228155D01*
X109786330Y-106143709D01*
X109805250Y-106000000D01*
X109786330Y-105856291D01*
X109765839Y-105806821D01*
X109730862Y-105722375D01*
X109642621Y-105607378D01*
X109527624Y-105519137D01*
X109393709Y-105463670D01*
X109250000Y-105444750D01*
X109106290Y-105463670D01*
X108972376Y-105519137D01*
X108942655Y-105541943D01*
X108876435Y-105567542D01*
X108806886Y-105553276D01*
X108756091Y-105503674D01*
X108741504Y-105461686D01*
X108735646Y-105424697D01*
X108735646Y-105424696D01*
X108706848Y-105368177D01*
X108678050Y-105311657D01*
X108588342Y-105221949D01*
X108512502Y-105183307D01*
X108475304Y-105164354D01*
X108381519Y-105149500D01*
X108381515Y-105149500D01*
X107618483Y-105149500D01*
X107524697Y-105164353D01*
X107411657Y-105221949D01*
X107321949Y-105311657D01*
X107264355Y-105424694D01*
X107264354Y-105424696D01*
X107249500Y-105518481D01*
X107249500Y-105518484D01*
X107249500Y-106481516D01*
X107264353Y-106575302D01*
X107321949Y-106688342D01*
X107335597Y-106701990D01*
X107369623Y-106764302D01*
X107364558Y-106835117D01*
X107322011Y-106891953D01*
X107312650Y-106898325D01*
X107226663Y-106951363D01*
X107226654Y-106951370D01*
X107101370Y-107076654D01*
X107101365Y-107076660D01*
X107008342Y-107227474D01*
X106952606Y-107395678D01*
X106952605Y-107395680D01*
X106944501Y-107475000D01*
X106917679Y-107540734D01*
X106859575Y-107581532D01*
X106788638Y-107584441D01*
X106727390Y-107548536D01*
X106695276Y-107485218D01*
X106694705Y-107481900D01*
X106693612Y-107475000D01*
X106685646Y-107424696D01*
X106639955Y-107335023D01*
X106628050Y-107311657D01*
X106538342Y-107221949D01*
X106425302Y-107164353D01*
X106356788Y-107153501D01*
X106292635Y-107123088D01*
X106255109Y-107062820D01*
X106250500Y-107029053D01*
X106250500Y-106976499D01*
X106270502Y-106908378D01*
X106324158Y-106861885D01*
X106376500Y-106850499D01*
X106381516Y-106850499D01*
X106381518Y-106850499D01*
X106475304Y-106835646D01*
X106588342Y-106778050D01*
X106678050Y-106688342D01*
X106735646Y-106575304D01*
X106750500Y-106481519D01*
X106750499Y-105518482D01*
X106735646Y-105424696D01*
X106706848Y-105368177D01*
X106678050Y-105311657D01*
X106588342Y-105221949D01*
X106512502Y-105183307D01*
X106475304Y-105164354D01*
X106381519Y-105149500D01*
X106381515Y-105149500D01*
X105618483Y-105149500D01*
X105524697Y-105164353D01*
X105411657Y-105221949D01*
X105321949Y-105311657D01*
X105264355Y-105424694D01*
X105264354Y-105424696D01*
X105249500Y-105518481D01*
X105249500Y-105518484D01*
X105249500Y-106481516D01*
X105264353Y-106575302D01*
X105321949Y-106688342D01*
X105411657Y-106778050D01*
X105450299Y-106797738D01*
X105524696Y-106835646D01*
X105593213Y-106846497D01*
X105657364Y-106876910D01*
X105694891Y-106937178D01*
X105699500Y-106970946D01*
X105699500Y-107029054D01*
X105679498Y-107097175D01*
X105625842Y-107143668D01*
X105593210Y-107153503D01*
X105524696Y-107164353D01*
X105411657Y-107221949D01*
X105321949Y-107311657D01*
X105279139Y-107395678D01*
X105264354Y-107424696D01*
X105252509Y-107499483D01*
X105249500Y-107518484D01*
X105249500Y-108481516D01*
X102200500Y-108481516D01*
X102200500Y-104031516D01*
X105949500Y-104031516D01*
X105964353Y-104125302D01*
X106021949Y-104238342D01*
X106111657Y-104328050D01*
X106150299Y-104347738D01*
X106224696Y-104385646D01*
X106318481Y-104400500D01*
X107681518Y-104400499D01*
X107775304Y-104385646D01*
X107888342Y-104328050D01*
X107978050Y-104238342D01*
X108035646Y-104125304D01*
X108050500Y-104031519D01*
X108050500Y-102901500D01*
X108070502Y-102833379D01*
X108124158Y-102786886D01*
X108176500Y-102775500D01*
X108333694Y-102775500D01*
X108401815Y-102795502D01*
X108422789Y-102812405D01*
X108670082Y-103059698D01*
X108704108Y-103122010D01*
X108705909Y-103165240D01*
X108694750Y-103249999D01*
X108694750Y-103250000D01*
X108713670Y-103393709D01*
X108769137Y-103527624D01*
X108857378Y-103642621D01*
X108972375Y-103730862D01*
X109056821Y-103765839D01*
X109106291Y-103786330D01*
X109250000Y-103805250D01*
X109393709Y-103786330D01*
X109478155Y-103751351D01*
X109527624Y-103730862D01*
X109642621Y-103642621D01*
X109730862Y-103527624D01*
X109751351Y-103478155D01*
X109786330Y-103393709D01*
X109805250Y-103250000D01*
X109786330Y-103106291D01*
X109733712Y-102979257D01*
X109730862Y-102972375D01*
X109642621Y-102857378D01*
X109527624Y-102769137D01*
X109393709Y-102713670D01*
X109250000Y-102694750D01*
X109165240Y-102705909D01*
X109095091Y-102694970D01*
X109059698Y-102670082D01*
X108722769Y-102333153D01*
X108707098Y-102314058D01*
X108698624Y-102301375D01*
X108680772Y-102289447D01*
X108680771Y-102289446D01*
X108649466Y-102268529D01*
X108607494Y-102240484D01*
X108520997Y-102223279D01*
X108520993Y-102223278D01*
X108500002Y-102219103D01*
X108500000Y-102219103D01*
X108485038Y-102222079D01*
X108460457Y-102224500D01*
X108176499Y-102224500D01*
X108108378Y-102204498D01*
X108061885Y-102150842D01*
X108050499Y-102098500D01*
X108050499Y-100968483D01*
X108038041Y-100889816D01*
X108035646Y-100874696D01*
X107978357Y-100762260D01*
X107978050Y-100761657D01*
X107888342Y-100671949D01*
X107812502Y-100633307D01*
X107775304Y-100614354D01*
X107681519Y-100599500D01*
X107681515Y-100599500D01*
X106318483Y-100599500D01*
X106224697Y-100614353D01*
X106111657Y-100671949D01*
X106021949Y-100761657D01*
X105964355Y-100874694D01*
X105964354Y-100874696D01*
X105949500Y-100968481D01*
X105949500Y-100968484D01*
X105949500Y-104031516D01*
X102200500Y-104031516D01*
X102200500Y-99031516D01*
X105949500Y-99031516D01*
X105964353Y-99125302D01*
X106021949Y-99238342D01*
X106111657Y-99328050D01*
X106150299Y-99347738D01*
X106224696Y-99385646D01*
X106318481Y-99400500D01*
X107681518Y-99400499D01*
X107775304Y-99385646D01*
X107888342Y-99328050D01*
X107978050Y-99238342D01*
X108035646Y-99125304D01*
X108050500Y-99031519D01*
X108050500Y-97901500D01*
X108070502Y-97833379D01*
X108124158Y-97786886D01*
X108176500Y-97775500D01*
X111083694Y-97775500D01*
X111151815Y-97795502D01*
X111172789Y-97812405D01*
X111670082Y-98309698D01*
X111704108Y-98372010D01*
X111705909Y-98415240D01*
X111694750Y-98499999D01*
X111694750Y-98500000D01*
X111713670Y-98643709D01*
X111769137Y-98777624D01*
X111857378Y-98892621D01*
X111972375Y-98980862D01*
X112056821Y-99015839D01*
X112106291Y-99036330D01*
X112250000Y-99055250D01*
X112393709Y-99036330D01*
X112478155Y-99001351D01*
X112527624Y-98980862D01*
X112616102Y-98912970D01*
X112682322Y-98887369D01*
X112751871Y-98901633D01*
X112797570Y-98942928D01*
X112801376Y-98948624D01*
X112814058Y-98957098D01*
X112833153Y-98972769D01*
X115396288Y-101535904D01*
X115430314Y-101598216D01*
X115425249Y-101669031D01*
X115396288Y-101714095D01*
X115118148Y-101992234D01*
X115099058Y-102007901D01*
X115083861Y-102018056D01*
X115055472Y-102032222D01*
X114935475Y-102074212D01*
X114935474Y-102074212D01*
X114782739Y-102170182D01*
X114782737Y-102170183D01*
X114655183Y-102297737D01*
X114655182Y-102297739D01*
X114559212Y-102450474D01*
X114559211Y-102450477D01*
X114559211Y-102450478D01*
X114499632Y-102620745D01*
X114479435Y-102800000D01*
X114499632Y-102979255D01*
X114544084Y-103106291D01*
X114559211Y-103149522D01*
X114559212Y-103149525D01*
X114655182Y-103302260D01*
X114655183Y-103302262D01*
X114782737Y-103429816D01*
X114782739Y-103429817D01*
X114935474Y-103525787D01*
X114935475Y-103525787D01*
X114935478Y-103525789D01*
X115105745Y-103585368D01*
X115285000Y-103605565D01*
X115464255Y-103585368D01*
X115634522Y-103525789D01*
X115787262Y-103429816D01*
X115914816Y-103302262D01*
X116010789Y-103149522D01*
X116070368Y-102979255D01*
X116090565Y-102800000D01*
X116070368Y-102620745D01*
X116010789Y-102450478D01*
X116010787Y-102450475D01*
X116010787Y-102450474D01*
X115914817Y-102297739D01*
X115914816Y-102297737D01*
X115842442Y-102225363D01*
X115808416Y-102163051D01*
X115813481Y-102092236D01*
X115842439Y-102047175D01*
X115977212Y-101912404D01*
X116039525Y-101878379D01*
X116066307Y-101875500D01*
X116972867Y-101875500D01*
X117354368Y-101875500D01*
X117422489Y-101895502D01*
X117468982Y-101949158D01*
X117479086Y-102019432D01*
X117449592Y-102084012D01*
X117421404Y-102108187D01*
X117322739Y-102170182D01*
X117322737Y-102170183D01*
X117195183Y-102297737D01*
X117195182Y-102297739D01*
X117099212Y-102450474D01*
X117099211Y-102450477D01*
X117099211Y-102450478D01*
X117039632Y-102620745D01*
X117019435Y-102800000D01*
X117039632Y-102979255D01*
X117084084Y-103106291D01*
X117099211Y-103149522D01*
X117099212Y-103149525D01*
X117195182Y-103302260D01*
X117195183Y-103302262D01*
X117322737Y-103429816D01*
X117322739Y-103429817D01*
X117475474Y-103525787D01*
X117475475Y-103525787D01*
X117475478Y-103525789D01*
X117645745Y-103585368D01*
X117825000Y-103605565D01*
X118004255Y-103585368D01*
X118174522Y-103525789D01*
X118327262Y-103429816D01*
X118454816Y-103302262D01*
X118550789Y-103149522D01*
X118610368Y-102979255D01*
X118630565Y-102800000D01*
X118610368Y-102620745D01*
X118550789Y-102450478D01*
X118550787Y-102450475D01*
X118550787Y-102450474D01*
X118454817Y-102297739D01*
X118454816Y-102297737D01*
X118327262Y-102170183D01*
X118327260Y-102170182D01*
X118228596Y-102108187D01*
X118181558Y-102055009D01*
X118170738Y-101984841D01*
X118199571Y-101919963D01*
X118258902Y-101880972D01*
X118295632Y-101875500D01*
X126823500Y-101875500D01*
X126891621Y-101895502D01*
X126938114Y-101949158D01*
X126949500Y-102001500D01*
X126949500Y-104031516D01*
X126964353Y-104125302D01*
X127021949Y-104238342D01*
X127111657Y-104328050D01*
X127150299Y-104347738D01*
X127224696Y-104385646D01*
X127318481Y-104400500D01*
X128681518Y-104400499D01*
X128775304Y-104385646D01*
X128888342Y-104328050D01*
X128978050Y-104238342D01*
X129035646Y-104125304D01*
X129050500Y-104031519D01*
X129050499Y-100968482D01*
X129035646Y-100874696D01*
X128978357Y-100762260D01*
X128978050Y-100761657D01*
X128888342Y-100671949D01*
X128812502Y-100633307D01*
X128775304Y-100614354D01*
X128681519Y-100599500D01*
X128681515Y-100599500D01*
X127318483Y-100599500D01*
X127224697Y-100614353D01*
X127111657Y-100671949D01*
X127021949Y-100761657D01*
X126964355Y-100874694D01*
X126964354Y-100874696D01*
X126949500Y-100968481D01*
X126949500Y-100968484D01*
X126949500Y-101198500D01*
X126929498Y-101266621D01*
X126875842Y-101313114D01*
X126823500Y-101324500D01*
X116016306Y-101324500D01*
X115948185Y-101304498D01*
X115927211Y-101287595D01*
X113312405Y-98672789D01*
X113278379Y-98610477D01*
X113275500Y-98583694D01*
X113275500Y-97974904D01*
X113295502Y-97906783D01*
X113349158Y-97860290D01*
X113381787Y-97850456D01*
X113475304Y-97835646D01*
X113588342Y-97778050D01*
X113678050Y-97688342D01*
X113735646Y-97575304D01*
X113750500Y-97481519D01*
X113750499Y-96691305D01*
X113770501Y-96623185D01*
X113787399Y-96602215D01*
X114046499Y-96343116D01*
X114108810Y-96309092D01*
X114179626Y-96314157D01*
X114236461Y-96356704D01*
X114261272Y-96423225D01*
X114260042Y-96451919D01*
X114253460Y-96493484D01*
X114249500Y-96518484D01*
X114249500Y-97481516D01*
X114264353Y-97575302D01*
X114321949Y-97688342D01*
X114393353Y-97759746D01*
X114427379Y-97822058D01*
X114422314Y-97892873D01*
X114379767Y-97949709D01*
X114352475Y-97965250D01*
X114222376Y-98019137D01*
X114107378Y-98107378D01*
X114019137Y-98222375D01*
X113963670Y-98356290D01*
X113944750Y-98499999D01*
X113944750Y-98500000D01*
X113963670Y-98643709D01*
X114019137Y-98777624D01*
X114107378Y-98892621D01*
X114222375Y-98980862D01*
X114306821Y-99015839D01*
X114356291Y-99036330D01*
X114500000Y-99055250D01*
X114643709Y-99036330D01*
X114776653Y-98981263D01*
X114847239Y-98973675D01*
X114910726Y-99005454D01*
X114913962Y-99008578D01*
X115769767Y-99864383D01*
X115803793Y-99926695D01*
X115799602Y-99995092D01*
X115769631Y-100080744D01*
X115749435Y-100259999D01*
X115749435Y-100260000D01*
X115769632Y-100439255D01*
X115769633Y-100439257D01*
X115829211Y-100609522D01*
X115829212Y-100609525D01*
X115925182Y-100762260D01*
X115925183Y-100762262D01*
X116052737Y-100889816D01*
X116052739Y-100889817D01*
X116205474Y-100985787D01*
X116205475Y-100985787D01*
X116205478Y-100985789D01*
X116375745Y-101045368D01*
X116555000Y-101065565D01*
X116734255Y-101045368D01*
X116904522Y-100985789D01*
X117057262Y-100889816D01*
X117184816Y-100762262D01*
X117280789Y-100609522D01*
X117340368Y-100439255D01*
X117360565Y-100260000D01*
X117340368Y-100080745D01*
X117310396Y-99995092D01*
X117306777Y-99924189D01*
X117340228Y-99864386D01*
X118892213Y-98312402D01*
X118954523Y-98278379D01*
X118981306Y-98275500D01*
X119484847Y-98275500D01*
X119509428Y-98277921D01*
X119511731Y-98278379D01*
X119524390Y-98280897D01*
X119551522Y-98275500D01*
X119551523Y-98275500D01*
X119631885Y-98259515D01*
X119684288Y-98224500D01*
X119687469Y-98222375D01*
X119713658Y-98204876D01*
X119713658Y-98204877D01*
X119713663Y-98204871D01*
X119723014Y-98198624D01*
X119731495Y-98185931D01*
X119747153Y-98166852D01*
X120101851Y-97812153D01*
X120120941Y-97796487D01*
X120133624Y-97788014D01*
X120173696Y-97728041D01*
X120228173Y-97682514D01*
X120298616Y-97673666D01*
X120362660Y-97704308D01*
X120367556Y-97708949D01*
X120461657Y-97803050D01*
X120525631Y-97835646D01*
X120574696Y-97860646D01*
X120655714Y-97873477D01*
X120719863Y-97903888D01*
X120757390Y-97964156D01*
X120762000Y-97997925D01*
X120762000Y-98046193D01*
X120741998Y-98114314D01*
X120725095Y-98135288D01*
X119412832Y-99447550D01*
X119350520Y-99481576D01*
X119282128Y-99477387D01*
X119274255Y-99474632D01*
X119274253Y-99474631D01*
X119274251Y-99474631D01*
X119095000Y-99454435D01*
X118915745Y-99474632D01*
X118915742Y-99474632D01*
X118915742Y-99474633D01*
X118745477Y-99534211D01*
X118745474Y-99534212D01*
X118592739Y-99630182D01*
X118592737Y-99630183D01*
X118465183Y-99757737D01*
X118465182Y-99757739D01*
X118369212Y-99910474D01*
X118369211Y-99910477D01*
X118369211Y-99910478D01*
X118309632Y-100080745D01*
X118289435Y-100260000D01*
X118309632Y-100439255D01*
X118309633Y-100439257D01*
X118369211Y-100609522D01*
X118369212Y-100609525D01*
X118465182Y-100762260D01*
X118465183Y-100762262D01*
X118592737Y-100889816D01*
X118592739Y-100889817D01*
X118745474Y-100985787D01*
X118745475Y-100985787D01*
X118745478Y-100985789D01*
X118915745Y-101045368D01*
X119095000Y-101065565D01*
X119274255Y-101045368D01*
X119444522Y-100985789D01*
X119597262Y-100889816D01*
X119724816Y-100762262D01*
X119820789Y-100609522D01*
X119880368Y-100439255D01*
X119900565Y-100260000D01*
X119880368Y-100080745D01*
X119823180Y-99917310D01*
X119819561Y-99846406D01*
X119853012Y-99786602D01*
X120608098Y-99031516D01*
X126949500Y-99031516D01*
X126964353Y-99125302D01*
X127021949Y-99238342D01*
X127111657Y-99328050D01*
X127150299Y-99347738D01*
X127224696Y-99385646D01*
X127318481Y-99400500D01*
X128681518Y-99400499D01*
X128775304Y-99385646D01*
X128888342Y-99328050D01*
X128978050Y-99238342D01*
X129035646Y-99125304D01*
X129050500Y-99031519D01*
X129050499Y-95968482D01*
X129035646Y-95874696D01*
X129006848Y-95818177D01*
X128978050Y-95761657D01*
X128888342Y-95671949D01*
X128812502Y-95633307D01*
X128775304Y-95614354D01*
X128681519Y-95599500D01*
X128681516Y-95599500D01*
X128401500Y-95599500D01*
X128333379Y-95579498D01*
X128286886Y-95525842D01*
X128275500Y-95473500D01*
X128275500Y-95044627D01*
X128295502Y-94976506D01*
X128324792Y-94944668D01*
X128392621Y-94892621D01*
X128480861Y-94777625D01*
X128480860Y-94777625D01*
X128480862Y-94777624D01*
X128501351Y-94728155D01*
X128536330Y-94643709D01*
X128555250Y-94500000D01*
X128536330Y-94356291D01*
X128515839Y-94306821D01*
X128480862Y-94222375D01*
X128392621Y-94107378D01*
X128277624Y-94019137D01*
X128143709Y-93963670D01*
X128000000Y-93944750D01*
X127856290Y-93963670D01*
X127722375Y-94019137D01*
X127607378Y-94107378D01*
X127519137Y-94222375D01*
X127463670Y-94356290D01*
X127444750Y-94499999D01*
X127444750Y-94500000D01*
X127463670Y-94643709D01*
X127519137Y-94777624D01*
X127607376Y-94892618D01*
X127607377Y-94892619D01*
X127607379Y-94892621D01*
X127675206Y-94944666D01*
X127717071Y-95002002D01*
X127724500Y-95044627D01*
X127724500Y-95473500D01*
X127704498Y-95541621D01*
X127650842Y-95588114D01*
X127598500Y-95599500D01*
X127318483Y-95599500D01*
X127224697Y-95614353D01*
X127111657Y-95671949D01*
X127021949Y-95761657D01*
X126964355Y-95874694D01*
X126964354Y-95874696D01*
X126950211Y-95963992D01*
X126949500Y-95968484D01*
X126949500Y-99031516D01*
X120608098Y-99031516D01*
X121204350Y-98435264D01*
X121223438Y-98419600D01*
X121236124Y-98411124D01*
X121263178Y-98370636D01*
X121268971Y-98361965D01*
X121297015Y-98319995D01*
X121313000Y-98239633D01*
X121313000Y-98239632D01*
X121318397Y-98212500D01*
X121315421Y-98197537D01*
X121313000Y-98172957D01*
X121313000Y-97997924D01*
X121333002Y-97929803D01*
X121386658Y-97883310D01*
X121419287Y-97873476D01*
X121500304Y-97860646D01*
X121613342Y-97803050D01*
X121703050Y-97713342D01*
X121760646Y-97600304D01*
X121775500Y-97506519D01*
X121775499Y-96493482D01*
X121760646Y-96399696D01*
X121714481Y-96309092D01*
X121703050Y-96286657D01*
X121613342Y-96196949D01*
X121500306Y-96139355D01*
X121500305Y-96139354D01*
X121500304Y-96139354D01*
X121488906Y-96137548D01*
X121424757Y-96107137D01*
X121387230Y-96046869D01*
X121382621Y-96013101D01*
X121382621Y-95607810D01*
X121402623Y-95539689D01*
X121456279Y-95493196D01*
X121473202Y-95488098D01*
X121472993Y-95487454D01*
X121482422Y-95484390D01*
X121482423Y-95484389D01*
X121482425Y-95484389D01*
X121595463Y-95426793D01*
X121685171Y-95337085D01*
X121742767Y-95224047D01*
X121757621Y-95130262D01*
X121757620Y-94567225D01*
X121742767Y-94473439D01*
X121713969Y-94416920D01*
X121685171Y-94360400D01*
X121595463Y-94270692D01*
X121488436Y-94216160D01*
X121482425Y-94213097D01*
X121388640Y-94198243D01*
X121388636Y-94198243D01*
X120825604Y-94198243D01*
X120731818Y-94213096D01*
X120618778Y-94270692D01*
X120529070Y-94360400D01*
X120471476Y-94473437D01*
X120471475Y-94473439D01*
X120461513Y-94536339D01*
X120460949Y-94539901D01*
X120430536Y-94604054D01*
X120370268Y-94641581D01*
X120299279Y-94640567D01*
X120240107Y-94601334D01*
X120211539Y-94536339D01*
X120210500Y-94520190D01*
X120210500Y-93022218D01*
X120230502Y-92954097D01*
X120284158Y-92907604D01*
X120354432Y-92897500D01*
X120382725Y-92905003D01*
X120515557Y-92957386D01*
X120603937Y-92967999D01*
X120603943Y-92968000D01*
X120651000Y-92968000D01*
X120651000Y-91729000D01*
X121159000Y-91729000D01*
X121159000Y-92968000D01*
X121206057Y-92968000D01*
X121206062Y-92967999D01*
X121294441Y-92957386D01*
X121294447Y-92957385D01*
X121435097Y-92901919D01*
X121555565Y-92810565D01*
X121646919Y-92690097D01*
X121702385Y-92549447D01*
X121702386Y-92549441D01*
X121712999Y-92461062D01*
X121713000Y-92461057D01*
X121713000Y-92051197D01*
X128308012Y-92051197D01*
X128368600Y-92093622D01*
X128568092Y-92186647D01*
X128568096Y-92186649D01*
X128780712Y-92243619D01*
X129000000Y-92262804D01*
X129219287Y-92243619D01*
X129431903Y-92186649D01*
X129431912Y-92186645D01*
X129631405Y-92093619D01*
X129631412Y-92093615D01*
X129691986Y-92051198D01*
X129691986Y-92051197D01*
X129000000Y-91359210D01*
X128999999Y-91359210D01*
X128308012Y-92051196D01*
X128308012Y-92051197D01*
X121713000Y-92051197D01*
X121713000Y-91729000D01*
X121159000Y-91729000D01*
X120651000Y-91729000D01*
X120651000Y-89982000D01*
X121159000Y-89982000D01*
X121159000Y-91221000D01*
X121713000Y-91221000D01*
X121713000Y-91000000D01*
X127737195Y-91000000D01*
X127756380Y-91219287D01*
X127813350Y-91431903D01*
X127813352Y-91431907D01*
X127906378Y-91631402D01*
X127948801Y-91691986D01*
X128640789Y-90999999D01*
X129359210Y-90999999D01*
X130051197Y-91691986D01*
X130051198Y-91691986D01*
X130093615Y-91631412D01*
X130093619Y-91631405D01*
X130186645Y-91431912D01*
X130186649Y-91431903D01*
X130243619Y-91219287D01*
X130262804Y-91000000D01*
X130243619Y-90780712D01*
X130186649Y-90568096D01*
X130186647Y-90568092D01*
X130093621Y-90368598D01*
X130051198Y-90308012D01*
X130051196Y-90308012D01*
X129359210Y-90999999D01*
X128640789Y-90999999D01*
X127948801Y-90308011D01*
X127906378Y-90368598D01*
X127813352Y-90568092D01*
X127813350Y-90568096D01*
X127756380Y-90780712D01*
X127737195Y-91000000D01*
X121713000Y-91000000D01*
X121713000Y-90488943D01*
X121712999Y-90488937D01*
X121702386Y-90400558D01*
X121702385Y-90400552D01*
X121646919Y-90259902D01*
X121555565Y-90139434D01*
X121435097Y-90048080D01*
X121294447Y-89992614D01*
X121294441Y-89992613D01*
X121206062Y-89982000D01*
X121159000Y-89982000D01*
X120651000Y-89982000D01*
X120603937Y-89982000D01*
X120515558Y-89992613D01*
X120515552Y-89992614D01*
X120374902Y-90048080D01*
X120254434Y-90139434D01*
X120163079Y-90259903D01*
X120151404Y-90289509D01*
X120107805Y-90345542D01*
X120040834Y-90369108D01*
X119979891Y-90354655D01*
X119979576Y-90355418D01*
X119974844Y-90353458D01*
X119971753Y-90352725D01*
X119969069Y-90351066D01*
X119968111Y-90350669D01*
X119911960Y-90339500D01*
X119911958Y-90339500D01*
X119358042Y-90339500D01*
X119358039Y-90339500D01*
X119301888Y-90350669D01*
X119301887Y-90350669D01*
X119238214Y-90393214D01*
X119195669Y-90456887D01*
X119195669Y-90456888D01*
X119184500Y-90513039D01*
X119184500Y-92436960D01*
X119195669Y-92493111D01*
X119195669Y-92493112D01*
X119238214Y-92556785D01*
X119301887Y-92599330D01*
X119301889Y-92599330D01*
X119301890Y-92599331D01*
X119358042Y-92610500D01*
X119533500Y-92610500D01*
X119601621Y-92630502D01*
X119648114Y-92684158D01*
X119659500Y-92736500D01*
X119659500Y-93261099D01*
X119639498Y-93329220D01*
X119585842Y-93375713D01*
X119515568Y-93385817D01*
X119450988Y-93356323D01*
X119444405Y-93350194D01*
X118790528Y-92696317D01*
X118756502Y-92634005D01*
X118761567Y-92563190D01*
X118774858Y-92537221D01*
X118804330Y-92493112D01*
X118804330Y-92493111D01*
X118804329Y-92493111D01*
X118804331Y-92493110D01*
X118815500Y-92436958D01*
X118815500Y-90513042D01*
X118804331Y-90456890D01*
X118804330Y-90456888D01*
X118804330Y-90456887D01*
X118761785Y-90393214D01*
X118698112Y-90350669D01*
X118641960Y-90339500D01*
X118641958Y-90339500D01*
X118088042Y-90339500D01*
X118088039Y-90339500D01*
X118031888Y-90350669D01*
X118031887Y-90350669D01*
X117968214Y-90393214D01*
X117925669Y-90456887D01*
X117925669Y-90456888D01*
X117914500Y-90513039D01*
X117914500Y-92436963D01*
X117917374Y-92451411D01*
X117911043Y-92522124D01*
X117867487Y-92578190D01*
X117800534Y-92601808D01*
X117731441Y-92585478D01*
X117704699Y-92565083D01*
X117582405Y-92442789D01*
X117548379Y-92380477D01*
X117545500Y-92353694D01*
X117545500Y-90513043D01*
X117545499Y-90513039D01*
X117534331Y-90456890D01*
X117534330Y-90456888D01*
X117534330Y-90456887D01*
X117491785Y-90393214D01*
X117428112Y-90350669D01*
X117371960Y-90339500D01*
X117371958Y-90339500D01*
X116818042Y-90339500D01*
X116818039Y-90339500D01*
X116761888Y-90350669D01*
X116761887Y-90350669D01*
X116698214Y-90393214D01*
X116655669Y-90456887D01*
X116655669Y-90456888D01*
X116644500Y-90513039D01*
X116644500Y-92436958D01*
X116644718Y-92439173D01*
X116644500Y-92440322D01*
X116644500Y-92443148D01*
X116643964Y-92443148D01*
X116631486Y-92508926D01*
X116582644Y-92560452D01*
X116513698Y-92577392D01*
X116446538Y-92554368D01*
X116430229Y-92540613D01*
X115937405Y-92047789D01*
X115903379Y-91985477D01*
X115900500Y-91958694D01*
X115900500Y-89094306D01*
X115920502Y-89026185D01*
X115974158Y-88979692D01*
X116044432Y-88969588D01*
X116109012Y-88999082D01*
X116115595Y-89005211D01*
X116277228Y-89166844D01*
X116292896Y-89185934D01*
X116301375Y-89198623D01*
X116301376Y-89198624D01*
X116321470Y-89212050D01*
X116321486Y-89212062D01*
X116350533Y-89231470D01*
X116350534Y-89231471D01*
X116392505Y-89259515D01*
X116461781Y-89273294D01*
X116478934Y-89276707D01*
X116478937Y-89276707D01*
X116500000Y-89280897D01*
X116514338Y-89278045D01*
X116514962Y-89277921D01*
X116539543Y-89275500D01*
X122086188Y-89275500D01*
X122154309Y-89295502D01*
X122200802Y-89349158D01*
X122210906Y-89419432D01*
X122198455Y-89458702D01*
X122139355Y-89574692D01*
X122139354Y-89574694D01*
X122139354Y-89574696D01*
X122127907Y-89646975D01*
X122124500Y-89668484D01*
X122124500Y-90406516D01*
X122139353Y-90500302D01*
X122196949Y-90613342D01*
X122286657Y-90703050D01*
X122325299Y-90722738D01*
X122399696Y-90760646D01*
X122493481Y-90775500D01*
X123506518Y-90775499D01*
X123600304Y-90760646D01*
X123713342Y-90703050D01*
X123803050Y-90613342D01*
X123860646Y-90500304D01*
X123871120Y-90434171D01*
X123901531Y-90370021D01*
X123961799Y-90332493D01*
X124032788Y-90333507D01*
X124091961Y-90372739D01*
X124095530Y-90377180D01*
X124107378Y-90392621D01*
X124222375Y-90480862D01*
X124300061Y-90513039D01*
X124356291Y-90536330D01*
X124500000Y-90555250D01*
X124643709Y-90536330D01*
X124752476Y-90491278D01*
X124777624Y-90480862D01*
X124892621Y-90392621D01*
X124980862Y-90277624D01*
X125012830Y-90200443D01*
X125036330Y-90143709D01*
X125055250Y-90000000D01*
X125054277Y-89992613D01*
X125048509Y-89948801D01*
X128308011Y-89948801D01*
X128999999Y-90640789D01*
X129000000Y-90640789D01*
X129691986Y-89948801D01*
X129691986Y-89948800D01*
X129631401Y-89906378D01*
X129631402Y-89906378D01*
X129431907Y-89813352D01*
X129431903Y-89813350D01*
X129219287Y-89756380D01*
X129000000Y-89737195D01*
X128780712Y-89756380D01*
X128568096Y-89813350D01*
X128568092Y-89813352D01*
X128368598Y-89906378D01*
X128308011Y-89948801D01*
X125048509Y-89948801D01*
X125042924Y-89906378D01*
X125036330Y-89856291D01*
X124997274Y-89762000D01*
X124980862Y-89722375D01*
X124892621Y-89607378D01*
X124777624Y-89519137D01*
X124643709Y-89463670D01*
X124500000Y-89444750D01*
X124356290Y-89463670D01*
X124222375Y-89519137D01*
X124107380Y-89607377D01*
X124085684Y-89635652D01*
X124028345Y-89677519D01*
X123957474Y-89681740D01*
X123895572Y-89646975D01*
X123862291Y-89584262D01*
X123861277Y-89578681D01*
X123860646Y-89574696D01*
X123832337Y-89519137D01*
X123803050Y-89461657D01*
X123797223Y-89453638D01*
X123800323Y-89451384D01*
X123775375Y-89405696D01*
X123780440Y-89334881D01*
X123822987Y-89278045D01*
X123850277Y-89262505D01*
X123857491Y-89259515D01*
X123857495Y-89259515D01*
X123899465Y-89231471D01*
X123925622Y-89213994D01*
X123925622Y-89213993D01*
X123939266Y-89204877D01*
X123939268Y-89204874D01*
X123948624Y-89198624D01*
X123957103Y-89185934D01*
X123972765Y-89166849D01*
X126229655Y-86909960D01*
X126291967Y-86875934D01*
X126362783Y-86880999D01*
X126419618Y-86923546D01*
X126444429Y-86990066D01*
X126444750Y-86999055D01*
X126444750Y-87000000D01*
X126463670Y-87143709D01*
X126519137Y-87277624D01*
X126607378Y-87392621D01*
X126722375Y-87480862D01*
X126806821Y-87515839D01*
X126856291Y-87536330D01*
X127000000Y-87555250D01*
X127143709Y-87536330D01*
X127228155Y-87501351D01*
X127277624Y-87480862D01*
X127392618Y-87392623D01*
X127392617Y-87392623D01*
X127392621Y-87392621D01*
X127444666Y-87324793D01*
X127502002Y-87282929D01*
X127544627Y-87275500D01*
X128051129Y-87275500D01*
X128119250Y-87295502D01*
X128165743Y-87349158D01*
X128170960Y-87362558D01*
X128172818Y-87368277D01*
X128172820Y-87368281D01*
X128172821Y-87368284D01*
X128172822Y-87368286D01*
X128172824Y-87368289D01*
X128267465Y-87532214D01*
X128267466Y-87532216D01*
X128394126Y-87672886D01*
X128547267Y-87784149D01*
X128547267Y-87784150D01*
X128594612Y-87805229D01*
X128720197Y-87861144D01*
X128905354Y-87900500D01*
X129094646Y-87900500D01*
X129279803Y-87861144D01*
X129452730Y-87784151D01*
X129452730Y-87784150D01*
X129452732Y-87784150D01*
X129452732Y-87784149D01*
X129605871Y-87672888D01*
X129732533Y-87532216D01*
X129827179Y-87368284D01*
X129885674Y-87188256D01*
X129905460Y-87000000D01*
X129886626Y-86820805D01*
X129885674Y-86811743D01*
X129827181Y-86631721D01*
X129827177Y-86631713D01*
X129827175Y-86631710D01*
X129751133Y-86500000D01*
X129732534Y-86467785D01*
X129732533Y-86467783D01*
X129605873Y-86327113D01*
X129452732Y-86215850D01*
X129452732Y-86215849D01*
X129327145Y-86159934D01*
X129279803Y-86138856D01*
X129279801Y-86138855D01*
X129279800Y-86138855D01*
X129094646Y-86099500D01*
X128905354Y-86099500D01*
X128720199Y-86138855D01*
X128547267Y-86215849D01*
X128547267Y-86215850D01*
X128394126Y-86327113D01*
X128267466Y-86467783D01*
X128267465Y-86467785D01*
X128172824Y-86631710D01*
X128172818Y-86631722D01*
X128170960Y-86637442D01*
X128130884Y-86696046D01*
X128065486Y-86723679D01*
X128051129Y-86724500D01*
X127544627Y-86724500D01*
X127476506Y-86704498D01*
X127444668Y-86675207D01*
X127392621Y-86607379D01*
X127392619Y-86607377D01*
X127392618Y-86607376D01*
X127277624Y-86519137D01*
X127143709Y-86463670D01*
X127000000Y-86444750D01*
X126999055Y-86444750D01*
X126998286Y-86444524D01*
X126991812Y-86443672D01*
X126991944Y-86442662D01*
X126930934Y-86424748D01*
X126884441Y-86371092D01*
X126874337Y-86300818D01*
X126903831Y-86236238D01*
X126909960Y-86229655D01*
X127822386Y-85317229D01*
X129166850Y-83972764D01*
X129185938Y-83957100D01*
X129198624Y-83948624D01*
X129227217Y-83905831D01*
X129280728Y-83860731D01*
X129452730Y-83784151D01*
X129452730Y-83784150D01*
X129452732Y-83784150D01*
X129452732Y-83784149D01*
X129605871Y-83672888D01*
X129732533Y-83532216D01*
X129827179Y-83368284D01*
X129885674Y-83188256D01*
X129905460Y-83000000D01*
X129885674Y-82811744D01*
X129827179Y-82631716D01*
X129790455Y-82568109D01*
X129732534Y-82467785D01*
X129732533Y-82467783D01*
X129605873Y-82327113D01*
X129452732Y-82215850D01*
X129452732Y-82215849D01*
X129327145Y-82159934D01*
X129279803Y-82138856D01*
X129279801Y-82138855D01*
X129279800Y-82138855D01*
X129094646Y-82099500D01*
X128905354Y-82099500D01*
X128720199Y-82138855D01*
X128547267Y-82215849D01*
X128547267Y-82215850D01*
X128394126Y-82327113D01*
X128267466Y-82467783D01*
X128267465Y-82467785D01*
X128172822Y-82631713D01*
X128172818Y-82631721D01*
X128114325Y-82811743D01*
X128094540Y-83000000D01*
X128114325Y-83188256D01*
X128172818Y-83368278D01*
X128172822Y-83368286D01*
X128267465Y-83532214D01*
X128267466Y-83532216D01*
X128394125Y-83672884D01*
X128394129Y-83672888D01*
X128444693Y-83709625D01*
X128488046Y-83765845D01*
X128494123Y-83836581D01*
X128460992Y-83899373D01*
X128459727Y-83900655D01*
X124448095Y-87912288D01*
X124385783Y-87946314D01*
X124314968Y-87941249D01*
X124258132Y-87898702D01*
X124233321Y-87832182D01*
X124233000Y-87823193D01*
X124233000Y-87574483D01*
X124222394Y-87470681D01*
X124222393Y-87470678D01*
X124166657Y-87302474D01*
X124073634Y-87151660D01*
X124073629Y-87151654D01*
X123948345Y-87026370D01*
X123948339Y-87026365D01*
X123797525Y-86933342D01*
X123629321Y-86877606D01*
X123629318Y-86877605D01*
X123525516Y-86867000D01*
X123254000Y-86867000D01*
X123254000Y-88090500D01*
X123233998Y-88158621D01*
X123180342Y-88205114D01*
X123128000Y-88216500D01*
X121767000Y-88216500D01*
X121767000Y-88350516D01*
X121777605Y-88454318D01*
X121777607Y-88454330D01*
X121812248Y-88558867D01*
X121814689Y-88629822D01*
X121778381Y-88690832D01*
X121714852Y-88722527D01*
X121692644Y-88724500D01*
X116666306Y-88724500D01*
X116598185Y-88704498D01*
X116577211Y-88687595D01*
X115847769Y-87958153D01*
X115832098Y-87939058D01*
X115823624Y-87926375D01*
X115810934Y-87917896D01*
X115791844Y-87902228D01*
X114579917Y-86690301D01*
X114545891Y-86627989D01*
X114544090Y-86584764D01*
X114555250Y-86500000D01*
X114536330Y-86356291D01*
X114513353Y-86300818D01*
X114480862Y-86222375D01*
X114392621Y-86107378D01*
X114277624Y-86019137D01*
X114143709Y-85963670D01*
X114000000Y-85944750D01*
X113856290Y-85963670D01*
X113722375Y-86019137D01*
X113607381Y-86107376D01*
X113607379Y-86107379D01*
X113555333Y-86175206D01*
X113497998Y-86217071D01*
X113455373Y-86224500D01*
X113426500Y-86224500D01*
X113358379Y-86204498D01*
X113311886Y-86150842D01*
X113300500Y-86098500D01*
X113300500Y-85935184D01*
X113300500Y-85935180D01*
X113291767Y-85891278D01*
X113291765Y-85891274D01*
X113258504Y-85841495D01*
X113208725Y-85808234D01*
X113208721Y-85808232D01*
X113164820Y-85799500D01*
X111135180Y-85799500D01*
X111135179Y-85799500D01*
X111091278Y-85808232D01*
X111091274Y-85808234D01*
X111041495Y-85841495D01*
X111008234Y-85891274D01*
X111008232Y-85891278D01*
X110999500Y-85935179D01*
X110999500Y-87464820D01*
X111008232Y-87508721D01*
X111008234Y-87508725D01*
X111048390Y-87568823D01*
X111047330Y-87569531D01*
X111075111Y-87620406D01*
X111070046Y-87691221D01*
X111027499Y-87748057D01*
X110996024Y-87765244D01*
X110904037Y-87799554D01*
X110904034Y-87799555D01*
X110787095Y-87887095D01*
X110699555Y-88004034D01*
X110699555Y-88004035D01*
X110648505Y-88140906D01*
X110642000Y-88201402D01*
X110642000Y-88746000D01*
X113658000Y-88746000D01*
X113658000Y-88201414D01*
X113657999Y-88201402D01*
X113651494Y-88140906D01*
X113600444Y-88004035D01*
X113600444Y-88004034D01*
X113512904Y-87887095D01*
X113395965Y-87799555D01*
X113395960Y-87799553D01*
X113303976Y-87765244D01*
X113247140Y-87722697D01*
X113222330Y-87656177D01*
X113237422Y-87586803D01*
X113257651Y-87559780D01*
X113268789Y-87543112D01*
X113291767Y-87508722D01*
X113300500Y-87464820D01*
X113300500Y-86901500D01*
X113320502Y-86833379D01*
X113374158Y-86786886D01*
X113426500Y-86775500D01*
X113455373Y-86775500D01*
X113523494Y-86795502D01*
X113555331Y-86824792D01*
X113607379Y-86892621D01*
X113607381Y-86892623D01*
X113722375Y-86980862D01*
X113806821Y-87015839D01*
X113856291Y-87036330D01*
X114000000Y-87055250D01*
X114084762Y-87044090D01*
X114154907Y-87055029D01*
X114190301Y-87079917D01*
X115312595Y-88202211D01*
X115346621Y-88264523D01*
X115349500Y-88291306D01*
X115349500Y-92085457D01*
X115347079Y-92110037D01*
X115344103Y-92124999D01*
X115344103Y-92125002D01*
X115348278Y-92145993D01*
X115348279Y-92145997D01*
X115365484Y-92232494D01*
X115426377Y-92323625D01*
X115439058Y-92332098D01*
X115458153Y-92347769D01*
X117919716Y-94809332D01*
X117953742Y-94871644D01*
X117956621Y-94898426D01*
X117956621Y-95130259D01*
X117971474Y-95224045D01*
X118005741Y-95291297D01*
X118018845Y-95361074D01*
X117992145Y-95426858D01*
X117934118Y-95467765D01*
X117893474Y-95474500D01*
X114289543Y-95474500D01*
X114264962Y-95472079D01*
X114250000Y-95469103D01*
X114249997Y-95469103D01*
X114230462Y-95472988D01*
X114230441Y-95472993D01*
X114142504Y-95490485D01*
X114100534Y-95518528D01*
X114077611Y-95533845D01*
X114077606Y-95533849D01*
X114051375Y-95551376D01*
X114042896Y-95564065D01*
X114027230Y-95583152D01*
X113495428Y-96114954D01*
X113433116Y-96148980D01*
X113386631Y-96150309D01*
X113381520Y-96149500D01*
X112618483Y-96149500D01*
X112524697Y-96164353D01*
X112411657Y-96221949D01*
X112321949Y-96311657D01*
X112264355Y-96424694D01*
X112264354Y-96424696D01*
X112249500Y-96518481D01*
X112249500Y-96518484D01*
X112249500Y-97481516D01*
X112264353Y-97575302D01*
X112321949Y-97688342D01*
X112365673Y-97732066D01*
X112399699Y-97794378D01*
X112394634Y-97865193D01*
X112352087Y-97922029D01*
X112285567Y-97946840D01*
X112260137Y-97946084D01*
X112250001Y-97944750D01*
X112250000Y-97944750D01*
X112165240Y-97955909D01*
X112095091Y-97944970D01*
X112059698Y-97920082D01*
X111472769Y-97333153D01*
X111457098Y-97314058D01*
X111448624Y-97301376D01*
X111425622Y-97286006D01*
X111385975Y-97259515D01*
X111357496Y-97240485D01*
X111357492Y-97240484D01*
X111270997Y-97223279D01*
X111270993Y-97223278D01*
X111250002Y-97219103D01*
X111250000Y-97219103D01*
X111235038Y-97222079D01*
X111210457Y-97224500D01*
X108176499Y-97224500D01*
X108108378Y-97204498D01*
X108061885Y-97150842D01*
X108050499Y-97098500D01*
X108050499Y-95968483D01*
X108035646Y-95874697D01*
X108035646Y-95874696D01*
X108006848Y-95818177D01*
X107978050Y-95761657D01*
X107888342Y-95671949D01*
X107812502Y-95633307D01*
X107775304Y-95614354D01*
X107681519Y-95599500D01*
X107681515Y-95599500D01*
X106318483Y-95599500D01*
X106224697Y-95614353D01*
X106111657Y-95671949D01*
X106021949Y-95761657D01*
X105964355Y-95874694D01*
X105964354Y-95874696D01*
X105950211Y-95963992D01*
X105949500Y-95968484D01*
X105949500Y-99031516D01*
X102200500Y-99031516D01*
X102200500Y-89254000D01*
X104342000Y-89254000D01*
X104342000Y-90948597D01*
X104348505Y-91009093D01*
X104399555Y-91145964D01*
X104399555Y-91145965D01*
X104487095Y-91262904D01*
X104604034Y-91350444D01*
X104740906Y-91401494D01*
X104801402Y-91407999D01*
X104801415Y-91408000D01*
X105596000Y-91408000D01*
X105596000Y-89254000D01*
X106104000Y-89254000D01*
X106104000Y-91408000D01*
X106898585Y-91408000D01*
X106898597Y-91407999D01*
X106959093Y-91401494D01*
X107095964Y-91350444D01*
X107095965Y-91350444D01*
X107212904Y-91262904D01*
X107300444Y-91145965D01*
X107300444Y-91145964D01*
X107351494Y-91009093D01*
X107357999Y-90948597D01*
X107358000Y-90948585D01*
X107358000Y-89254000D01*
X110642000Y-89254000D01*
X110642000Y-89798597D01*
X110648505Y-89859093D01*
X110699555Y-89995964D01*
X110699555Y-89995965D01*
X110787095Y-90112904D01*
X110904033Y-90200443D01*
X110996023Y-90234754D01*
X111052858Y-90277301D01*
X111077669Y-90343822D01*
X111062577Y-90413196D01*
X111042340Y-90440230D01*
X111008234Y-90491274D01*
X111008232Y-90491278D01*
X110999500Y-90535179D01*
X110999500Y-92064820D01*
X111008232Y-92108721D01*
X111008234Y-92108725D01*
X111041495Y-92158504D01*
X111091274Y-92191765D01*
X111091278Y-92191767D01*
X111135180Y-92200500D01*
X111135185Y-92200500D01*
X113164815Y-92200500D01*
X113164820Y-92200500D01*
X113208722Y-92191767D01*
X113258504Y-92158504D01*
X113291767Y-92108722D01*
X113300500Y-92064820D01*
X113300500Y-91701500D01*
X113320502Y-91633379D01*
X113374158Y-91586886D01*
X113426500Y-91575500D01*
X113493739Y-91575500D01*
X113561860Y-91595502D01*
X113593699Y-91624793D01*
X113607379Y-91642621D01*
X113607381Y-91642623D01*
X113722375Y-91730862D01*
X113806821Y-91765839D01*
X113856291Y-91786330D01*
X114000000Y-91805250D01*
X114143709Y-91786330D01*
X114228155Y-91751351D01*
X114277624Y-91730862D01*
X114392621Y-91642621D01*
X114480862Y-91527624D01*
X114501351Y-91478155D01*
X114536330Y-91393709D01*
X114555250Y-91250000D01*
X114536330Y-91106291D01*
X114495998Y-91008919D01*
X114480862Y-90972375D01*
X114392621Y-90857378D01*
X114277624Y-90769137D01*
X114143709Y-90713670D01*
X114000000Y-90694750D01*
X113856290Y-90713670D01*
X113722375Y-90769137D01*
X113607380Y-90857377D01*
X113526462Y-90962831D01*
X113469124Y-91004698D01*
X113398253Y-91008919D01*
X113336350Y-90974154D01*
X113303069Y-90911441D01*
X113300500Y-90886126D01*
X113300500Y-90535184D01*
X113300500Y-90535180D01*
X113291767Y-90491278D01*
X113291765Y-90491274D01*
X113251610Y-90431177D01*
X113252669Y-90430469D01*
X113224888Y-90379593D01*
X113229953Y-90308778D01*
X113272500Y-90251942D01*
X113303977Y-90234754D01*
X113395964Y-90200444D01*
X113395965Y-90200444D01*
X113512904Y-90112904D01*
X113600444Y-89995965D01*
X113600444Y-89995964D01*
X113651494Y-89859093D01*
X113657999Y-89798597D01*
X113658000Y-89798585D01*
X113658000Y-89254000D01*
X110642000Y-89254000D01*
X107358000Y-89254000D01*
X106104000Y-89254000D01*
X105596000Y-89254000D01*
X104342000Y-89254000D01*
X102200500Y-89254000D01*
X102200500Y-88746000D01*
X104342000Y-88746000D01*
X105596000Y-88746000D01*
X105596000Y-86592000D01*
X106104000Y-86592000D01*
X106104000Y-88746000D01*
X107358000Y-88746000D01*
X107358000Y-87051414D01*
X107357999Y-87051402D01*
X107351494Y-86990906D01*
X107300444Y-86854035D01*
X107300444Y-86854034D01*
X107212904Y-86737095D01*
X107095965Y-86649555D01*
X106959093Y-86598505D01*
X106898597Y-86592000D01*
X106104000Y-86592000D01*
X105596000Y-86592000D01*
X104801402Y-86592000D01*
X104740906Y-86598505D01*
X104604035Y-86649555D01*
X104604034Y-86649555D01*
X104487095Y-86737095D01*
X104399555Y-86854034D01*
X104399555Y-86854035D01*
X104348505Y-86990906D01*
X104342000Y-87051402D01*
X104342000Y-88746000D01*
X102200500Y-88746000D01*
X102200500Y-80250002D01*
X102469103Y-80250002D01*
X102473278Y-80270993D01*
X102473279Y-80270997D01*
X102489857Y-80354340D01*
X102490485Y-80357495D01*
X102513956Y-80392621D01*
X102533552Y-80421950D01*
X102551376Y-80448624D01*
X102564061Y-80457100D01*
X102583152Y-80472768D01*
X106777228Y-84666844D01*
X106792896Y-84685933D01*
X106801376Y-84698624D01*
X106821470Y-84712050D01*
X106821486Y-84712062D01*
X106892506Y-84759516D01*
X106999999Y-84780897D01*
X106999999Y-84780896D01*
X107000000Y-84780897D01*
X107014963Y-84777920D01*
X107039542Y-84775500D01*
X114903694Y-84775500D01*
X114971815Y-84795502D01*
X114992789Y-84812405D01*
X116607595Y-86427211D01*
X116641621Y-86489523D01*
X116644500Y-86516306D01*
X116644500Y-87486960D01*
X116655669Y-87543111D01*
X116655669Y-87543112D01*
X116698214Y-87606785D01*
X116761887Y-87649330D01*
X116761889Y-87649330D01*
X116761890Y-87649331D01*
X116818042Y-87660500D01*
X116818043Y-87660500D01*
X117371957Y-87660500D01*
X117371958Y-87660500D01*
X117428110Y-87649331D01*
X117428111Y-87649330D01*
X117428112Y-87649330D01*
X117491785Y-87606785D01*
X117534330Y-87543112D01*
X117534330Y-87543111D01*
X117534329Y-87543111D01*
X117534331Y-87543110D01*
X117545500Y-87486958D01*
X117545500Y-85563042D01*
X117534331Y-85506890D01*
X117534330Y-85506888D01*
X117534330Y-85506887D01*
X117491785Y-85443214D01*
X117428112Y-85400669D01*
X117371960Y-85389500D01*
X117371958Y-85389500D01*
X116818042Y-85389500D01*
X116818039Y-85389500D01*
X116761888Y-85400669D01*
X116761887Y-85400669D01*
X116698214Y-85443214D01*
X116665196Y-85492629D01*
X116610719Y-85538156D01*
X116540276Y-85547003D01*
X116476232Y-85516362D01*
X116471337Y-85511721D01*
X115550211Y-84590595D01*
X115516185Y-84528283D01*
X115521250Y-84457468D01*
X115563797Y-84400632D01*
X115630317Y-84375821D01*
X115639306Y-84375500D01*
X119298693Y-84375500D01*
X119366814Y-84395502D01*
X119387788Y-84412405D01*
X120420800Y-85445417D01*
X120454826Y-85507729D01*
X120455287Y-85559080D01*
X120454500Y-85563034D01*
X120454500Y-87031164D01*
X120434498Y-87099285D01*
X120380842Y-87145778D01*
X120310568Y-87155882D01*
X120245988Y-87126388D01*
X120239405Y-87120259D01*
X120122405Y-87003259D01*
X120088379Y-86940947D01*
X120085500Y-86914164D01*
X120085500Y-85563043D01*
X120085499Y-85563039D01*
X120084712Y-85559080D01*
X120074331Y-85506890D01*
X120074330Y-85506888D01*
X120074330Y-85506887D01*
X120031785Y-85443214D01*
X119968112Y-85400669D01*
X119911960Y-85389500D01*
X119911958Y-85389500D01*
X119358042Y-85389500D01*
X119358039Y-85389500D01*
X119301888Y-85400669D01*
X119301887Y-85400669D01*
X119238214Y-85443214D01*
X119195669Y-85506887D01*
X119195669Y-85506888D01*
X119184500Y-85563039D01*
X119184500Y-86123500D01*
X119164498Y-86191621D01*
X119110842Y-86238114D01*
X119058500Y-86249500D01*
X118941500Y-86249500D01*
X118873379Y-86229498D01*
X118826886Y-86175842D01*
X118815500Y-86123500D01*
X118815500Y-85563043D01*
X118815499Y-85563039D01*
X118814712Y-85559080D01*
X118804331Y-85506890D01*
X118804330Y-85506888D01*
X118804330Y-85506887D01*
X118761785Y-85443214D01*
X118698112Y-85400669D01*
X118641960Y-85389500D01*
X118641958Y-85389500D01*
X118088042Y-85389500D01*
X118088039Y-85389500D01*
X118031888Y-85400669D01*
X118031887Y-85400669D01*
X117968214Y-85443214D01*
X117925669Y-85506887D01*
X117925669Y-85506888D01*
X117914500Y-85563039D01*
X117914500Y-87486960D01*
X117925669Y-87543111D01*
X117925669Y-87543112D01*
X117968214Y-87606785D01*
X118031887Y-87649330D01*
X118031889Y-87649330D01*
X118031890Y-87649331D01*
X118088042Y-87660500D01*
X118088043Y-87660500D01*
X118641957Y-87660500D01*
X118641958Y-87660500D01*
X118698110Y-87649331D01*
X118698111Y-87649330D01*
X118698112Y-87649330D01*
X118761785Y-87606785D01*
X118804330Y-87543112D01*
X118804330Y-87543111D01*
X118804329Y-87543111D01*
X118804331Y-87543110D01*
X118815500Y-87486958D01*
X118815500Y-86926500D01*
X118835502Y-86858379D01*
X118889158Y-86811886D01*
X118941500Y-86800500D01*
X119058500Y-86800500D01*
X119126621Y-86820502D01*
X119173114Y-86874158D01*
X119184500Y-86926500D01*
X119184500Y-87486960D01*
X119195669Y-87543111D01*
X119195669Y-87543112D01*
X119238214Y-87606785D01*
X119301887Y-87649330D01*
X119301889Y-87649330D01*
X119301890Y-87649331D01*
X119358042Y-87660500D01*
X119358043Y-87660500D01*
X119911957Y-87660500D01*
X119911958Y-87660500D01*
X119912225Y-87660446D01*
X119919681Y-87658964D01*
X119990395Y-87665290D01*
X120033361Y-87693447D01*
X120291758Y-87951844D01*
X120307426Y-87970934D01*
X120315905Y-87983623D01*
X120315906Y-87983624D01*
X120336000Y-87997050D01*
X120336016Y-87997062D01*
X120407034Y-88044514D01*
X120407035Y-88044515D01*
X120514530Y-88065897D01*
X120529492Y-88062921D01*
X120554073Y-88060500D01*
X121300457Y-88060500D01*
X121325038Y-88062921D01*
X121328587Y-88063626D01*
X121340000Y-88065897D01*
X121367132Y-88060500D01*
X121367133Y-88060500D01*
X121447495Y-88044515D01*
X121489465Y-88016471D01*
X121515622Y-87998994D01*
X121515622Y-87998993D01*
X121529266Y-87989877D01*
X121529268Y-87989874D01*
X121538624Y-87983624D01*
X121547103Y-87970934D01*
X121562760Y-87951854D01*
X121769212Y-87745402D01*
X121831522Y-87711379D01*
X121858305Y-87708500D01*
X122746000Y-87708500D01*
X122746000Y-86820805D01*
X122766002Y-86752684D01*
X122782905Y-86731710D01*
X124847771Y-84666844D01*
X126916849Y-82597765D01*
X126935938Y-82582100D01*
X126948624Y-82573624D01*
X127009515Y-82482495D01*
X127025500Y-82402133D01*
X127025500Y-82402131D01*
X127025906Y-82400090D01*
X127025907Y-82400077D01*
X127030896Y-82375000D01*
X127027921Y-82360042D01*
X127025500Y-82335462D01*
X127025500Y-79325000D01*
X127329318Y-79325000D01*
X127349955Y-79481760D01*
X127385011Y-79566391D01*
X127410464Y-79627841D01*
X127506718Y-79753282D01*
X127632159Y-79849536D01*
X127778238Y-79910044D01*
X127895639Y-79925500D01*
X127895646Y-79925500D01*
X128774354Y-79925500D01*
X128774361Y-79925500D01*
X128891762Y-79910044D01*
X129037841Y-79849536D01*
X129163282Y-79753282D01*
X129259536Y-79627841D01*
X129320044Y-79481762D01*
X129340682Y-79325000D01*
X129320044Y-79168238D01*
X129259536Y-79022159D01*
X129163282Y-78896718D01*
X129037841Y-78800464D01*
X128891762Y-78739956D01*
X128891760Y-78739955D01*
X128774363Y-78724500D01*
X128774361Y-78724500D01*
X127895639Y-78724500D01*
X127895636Y-78724500D01*
X127778239Y-78739955D01*
X127632160Y-78800463D01*
X127632157Y-78800465D01*
X127506718Y-78896718D01*
X127410465Y-79022157D01*
X127410463Y-79022160D01*
X127349955Y-79168239D01*
X127329318Y-79324999D01*
X127329318Y-79325000D01*
X127025500Y-79325000D01*
X127025500Y-70675000D01*
X127329318Y-70675000D01*
X127349955Y-70831760D01*
X127385011Y-70916391D01*
X127410464Y-70977841D01*
X127506718Y-71103282D01*
X127632159Y-71199536D01*
X127778238Y-71260044D01*
X127895639Y-71275500D01*
X127895646Y-71275500D01*
X128774354Y-71275500D01*
X128774361Y-71275500D01*
X128891762Y-71260044D01*
X129037841Y-71199536D01*
X129163282Y-71103282D01*
X129259536Y-70977841D01*
X129320044Y-70831762D01*
X129340682Y-70675000D01*
X129320044Y-70518238D01*
X129259536Y-70372159D01*
X129163282Y-70246718D01*
X129037841Y-70150464D01*
X129035517Y-70149501D01*
X128891760Y-70089955D01*
X128774363Y-70074500D01*
X128774361Y-70074500D01*
X127895639Y-70074500D01*
X127895636Y-70074500D01*
X127778239Y-70089955D01*
X127632160Y-70150463D01*
X127632157Y-70150465D01*
X127506718Y-70246718D01*
X127410465Y-70372157D01*
X127410463Y-70372160D01*
X127349955Y-70518239D01*
X127329318Y-70674999D01*
X127329318Y-70675000D01*
X127025500Y-70675000D01*
X127025500Y-67789544D01*
X127027921Y-67764962D01*
X127030897Y-67750002D01*
X127011936Y-67654678D01*
X127011325Y-67648474D01*
X127009514Y-67642504D01*
X126948624Y-67551378D01*
X126939847Y-67542601D01*
X126942357Y-67540090D01*
X126910264Y-67501680D01*
X126899800Y-67451406D01*
X126899800Y-66626399D01*
X126919802Y-66558278D01*
X126973458Y-66511785D01*
X127025800Y-66500399D01*
X127030495Y-66500399D01*
X127030496Y-66500398D01*
X127030498Y-66500399D01*
X127057630Y-66495002D01*
X127057631Y-66495002D01*
X127137993Y-66479017D01*
X127179963Y-66450973D01*
X127206120Y-66433496D01*
X127206119Y-66433496D01*
X127219767Y-66424378D01*
X127219771Y-66424373D01*
X127229122Y-66418126D01*
X127237603Y-66405433D01*
X127253261Y-66386354D01*
X127566852Y-66072762D01*
X127585941Y-66057097D01*
X127598624Y-66048624D01*
X127617164Y-66020878D01*
X127631471Y-65999465D01*
X127659515Y-65957495D01*
X127675500Y-65877133D01*
X127675500Y-65877132D01*
X127680897Y-65850000D01*
X127677921Y-65835038D01*
X127675500Y-65810457D01*
X127675500Y-65134742D01*
X127677921Y-65110160D01*
X127678968Y-65104897D01*
X127680897Y-65095200D01*
X127675388Y-65067505D01*
X127659515Y-64987705D01*
X127659514Y-64987703D01*
X127658356Y-64981881D01*
X127664684Y-64911167D01*
X127708238Y-64855099D01*
X127775191Y-64831480D01*
X127805262Y-64835422D01*
X127805473Y-64834094D01*
X127815264Y-64835644D01*
X127815267Y-64835646D01*
X127909052Y-64850500D01*
X128672089Y-64850499D01*
X128765875Y-64835646D01*
X128878913Y-64778050D01*
X128968621Y-64688342D01*
X129026217Y-64575304D01*
X129041071Y-64481519D01*
X129041070Y-63518482D01*
X129026217Y-63424696D01*
X128994805Y-63363046D01*
X128968621Y-63311657D01*
X128878913Y-63221949D01*
X128802813Y-63183175D01*
X128765875Y-63164354D01*
X128672090Y-63149500D01*
X128672086Y-63149500D01*
X127909052Y-63149500D01*
X127900925Y-63150788D01*
X127830514Y-63141687D01*
X127776202Y-63095963D01*
X127764808Y-63074554D01*
X127763662Y-63071788D01*
X127763662Y-63071785D01*
X127741458Y-63018178D01*
X127733871Y-62947588D01*
X127765652Y-62884102D01*
X127826711Y-62847876D01*
X127877578Y-62845515D01*
X127909052Y-62850500D01*
X128672089Y-62850499D01*
X128765875Y-62835646D01*
X128878913Y-62778050D01*
X128968621Y-62688342D01*
X129026217Y-62575304D01*
X129041071Y-62481519D01*
X129041070Y-61716304D01*
X129061072Y-61648184D01*
X129077970Y-61627215D01*
X129332366Y-61372819D01*
X129394676Y-61338795D01*
X129465491Y-61343860D01*
X129522327Y-61386407D01*
X129547138Y-61452927D01*
X129545908Y-61481625D01*
X129540071Y-61518481D01*
X129540071Y-62481516D01*
X129554924Y-62575302D01*
X129612520Y-62688342D01*
X129702228Y-62778050D01*
X129815265Y-62835645D01*
X129815267Y-62835646D01*
X129908784Y-62850457D01*
X129972934Y-62880868D01*
X130010462Y-62941136D01*
X130015071Y-62974905D01*
X130015071Y-63025095D01*
X129995069Y-63093216D01*
X129941413Y-63139709D01*
X129908780Y-63149544D01*
X129815268Y-63164353D01*
X129702228Y-63221949D01*
X129612520Y-63311657D01*
X129560511Y-63413732D01*
X129554925Y-63424696D01*
X129540071Y-63518481D01*
X129540071Y-63518484D01*
X129540071Y-64481516D01*
X129554924Y-64575302D01*
X129612520Y-64688342D01*
X129615974Y-64691796D01*
X129650000Y-64754108D01*
X129644935Y-64824923D01*
X129602388Y-64881759D01*
X129575098Y-64897300D01*
X129522373Y-64919139D01*
X129407378Y-65007378D01*
X129319137Y-65122375D01*
X129263670Y-65256290D01*
X129244750Y-65399999D01*
X129244750Y-65400000D01*
X129263670Y-65543709D01*
X129319137Y-65677624D01*
X129407378Y-65792621D01*
X129522375Y-65880862D01*
X129606821Y-65915839D01*
X129656291Y-65936330D01*
X129800000Y-65955250D01*
X129943709Y-65936330D01*
X130028155Y-65901351D01*
X130077624Y-65880862D01*
X130192621Y-65792621D01*
X130280862Y-65677624D01*
X130301351Y-65628155D01*
X130336330Y-65543709D01*
X130355250Y-65400000D01*
X130344090Y-65315236D01*
X130355029Y-65245091D01*
X130379914Y-65209700D01*
X130457420Y-65132194D01*
X130476509Y-65116529D01*
X130489195Y-65108053D01*
X130550086Y-65016924D01*
X130563168Y-64951152D01*
X130596075Y-64888244D01*
X130657769Y-64853111D01*
X130667259Y-64851647D01*
X130667200Y-64851273D01*
X130672087Y-64850499D01*
X130672089Y-64850499D01*
X130765875Y-64835646D01*
X130878913Y-64778050D01*
X130968621Y-64688342D01*
X131026217Y-64575304D01*
X131041071Y-64481519D01*
X131041070Y-63518482D01*
X131026217Y-63424696D01*
X130994805Y-63363046D01*
X130968621Y-63311657D01*
X130878913Y-63221949D01*
X130765876Y-63164354D01*
X130728362Y-63158412D01*
X130672359Y-63149542D01*
X130608207Y-63119130D01*
X130570680Y-63058862D01*
X130566071Y-63025094D01*
X130566071Y-62974904D01*
X130586073Y-62906783D01*
X130639729Y-62860290D01*
X130672358Y-62850456D01*
X130765875Y-62835646D01*
X130878913Y-62778050D01*
X130968621Y-62688342D01*
X131026217Y-62575304D01*
X131041071Y-62481519D01*
X131041070Y-61518482D01*
X131026217Y-61424696D01*
X130982448Y-61338795D01*
X130968621Y-61311657D01*
X130878913Y-61221949D01*
X130803073Y-61183307D01*
X130765875Y-61164354D01*
X130672090Y-61149500D01*
X130672086Y-61149500D01*
X129909053Y-61149500D01*
X129872194Y-61155338D01*
X129801783Y-61146237D01*
X129747470Y-61100514D01*
X129726499Y-61032685D01*
X129745528Y-60964286D01*
X129763387Y-60941798D01*
X129823561Y-60881624D01*
X129885871Y-60847600D01*
X129932364Y-60846273D01*
X129959052Y-60850500D01*
X130672089Y-60850499D01*
X130765875Y-60835646D01*
X130878913Y-60778050D01*
X130968621Y-60688342D01*
X131026217Y-60575304D01*
X131041071Y-60481519D01*
X131041070Y-59518482D01*
X131026217Y-59424696D01*
X130991362Y-59356290D01*
X130968621Y-59311657D01*
X130962794Y-59303638D01*
X130965594Y-59301603D01*
X130940022Y-59254772D01*
X130945087Y-59183957D01*
X130987634Y-59127121D01*
X130996996Y-59120748D01*
X131113910Y-59048634D01*
X131113916Y-59048629D01*
X131239200Y-58923345D01*
X131239205Y-58923339D01*
X131332228Y-58772525D01*
X131387964Y-58604321D01*
X131387965Y-58604318D01*
X131398570Y-58500516D01*
X131398571Y-58500516D01*
X131398571Y-58254000D01*
X130162571Y-58254000D01*
X130094450Y-58233998D01*
X130047957Y-58180342D01*
X130036571Y-58128000D01*
X130036571Y-56792000D01*
X130544571Y-56792000D01*
X130544571Y-57746000D01*
X131398571Y-57746000D01*
X131398571Y-57499483D01*
X131387965Y-57395681D01*
X131387964Y-57395678D01*
X131332228Y-57227474D01*
X131239205Y-57076660D01*
X131239200Y-57076654D01*
X131113916Y-56951370D01*
X131113910Y-56951365D01*
X130963096Y-56858342D01*
X130794892Y-56802606D01*
X130794889Y-56802605D01*
X130691087Y-56792000D01*
X130544571Y-56792000D01*
X130036571Y-56792000D01*
X129890054Y-56792000D01*
X129786252Y-56802605D01*
X129786249Y-56802606D01*
X129618045Y-56858342D01*
X129467231Y-56951365D01*
X129467225Y-56951370D01*
X129341941Y-57076654D01*
X129341936Y-57076660D01*
X129248912Y-57227477D01*
X129216456Y-57325421D01*
X129176042Y-57383792D01*
X129110485Y-57411047D01*
X129040600Y-57398533D01*
X128988575Y-57350223D01*
X128984590Y-57342999D01*
X128968621Y-57311658D01*
X128968620Y-57311657D01*
X128968619Y-57311655D01*
X128878913Y-57221949D01*
X128803073Y-57183307D01*
X128765875Y-57164354D01*
X128672090Y-57149500D01*
X128672086Y-57149500D01*
X127909054Y-57149500D01*
X127815268Y-57164353D01*
X127702228Y-57221949D01*
X127612520Y-57311657D01*
X127560510Y-57413734D01*
X127554925Y-57424696D01*
X127541966Y-57506518D01*
X127540071Y-57518484D01*
X127540071Y-57598500D01*
X127520069Y-57666621D01*
X127466413Y-57713114D01*
X127414071Y-57724500D01*
X127025800Y-57724500D01*
X126957679Y-57704498D01*
X126911186Y-57650842D01*
X126899800Y-57598500D01*
X126899800Y-57540686D01*
X126899800Y-57540682D01*
X126891067Y-57496780D01*
X126891065Y-57496776D01*
X126857804Y-57446997D01*
X126808025Y-57413736D01*
X126808021Y-57413734D01*
X126764120Y-57405002D01*
X125235880Y-57405002D01*
X125235879Y-57405002D01*
X125191978Y-57413734D01*
X125191974Y-57413736D01*
X125142195Y-57446997D01*
X125108934Y-57496776D01*
X125108932Y-57496780D01*
X125100200Y-57540681D01*
X125100200Y-57598502D01*
X125080198Y-57666623D01*
X125026542Y-57713116D01*
X124974200Y-57724502D01*
X124289540Y-57724502D01*
X124264961Y-57722081D01*
X124249998Y-57719105D01*
X124249997Y-57719105D01*
X124192844Y-57730473D01*
X124122130Y-57724145D01*
X124066063Y-57680590D01*
X124042445Y-57613637D01*
X124043342Y-57590447D01*
X124055250Y-57499999D01*
X124044091Y-57415240D01*
X124055030Y-57345091D01*
X124079918Y-57309697D01*
X124577212Y-56812404D01*
X124639524Y-56778379D01*
X124666307Y-56775500D01*
X124974200Y-56775500D01*
X125042321Y-56795502D01*
X125088814Y-56849158D01*
X125100200Y-56901500D01*
X125100200Y-56959320D01*
X125108932Y-57003221D01*
X125108934Y-57003225D01*
X125142195Y-57053004D01*
X125191974Y-57086265D01*
X125191978Y-57086267D01*
X125235880Y-57095000D01*
X125235885Y-57095000D01*
X126764115Y-57095000D01*
X126764120Y-57095000D01*
X126808022Y-57086267D01*
X126857804Y-57053004D01*
X126891067Y-57003222D01*
X126899800Y-56959320D01*
X126899800Y-56040680D01*
X126891067Y-55996778D01*
X126891065Y-55996774D01*
X126857804Y-55946995D01*
X126808025Y-55913734D01*
X126808021Y-55913732D01*
X126764120Y-55905000D01*
X125235880Y-55905000D01*
X125235879Y-55905000D01*
X125191978Y-55913732D01*
X125191974Y-55913734D01*
X125142195Y-55946995D01*
X125108934Y-55996774D01*
X125108932Y-55996778D01*
X125100200Y-56040679D01*
X125100200Y-56098500D01*
X125080198Y-56166621D01*
X125026542Y-56213114D01*
X124974200Y-56224500D01*
X124539542Y-56224500D01*
X124514963Y-56222079D01*
X124500000Y-56219103D01*
X124499999Y-56219103D01*
X124392506Y-56240483D01*
X124329300Y-56282716D01*
X124329295Y-56282720D01*
X124301375Y-56301376D01*
X124292896Y-56314065D01*
X124277230Y-56333152D01*
X123690301Y-56920081D01*
X123627989Y-56954107D01*
X123584761Y-56955908D01*
X123500003Y-56944750D01*
X123500000Y-56944750D01*
X123356290Y-56963670D01*
X123222375Y-57019137D01*
X123107378Y-57107378D01*
X123019137Y-57222375D01*
X122963670Y-57356290D01*
X122944750Y-57499999D01*
X122944750Y-57500000D01*
X122963670Y-57643709D01*
X123019137Y-57777624D01*
X123107378Y-57892621D01*
X123222375Y-57980862D01*
X123306821Y-58015839D01*
X123356291Y-58036330D01*
X123500000Y-58055250D01*
X123500943Y-58055250D01*
X123501709Y-58055475D01*
X123508188Y-58056328D01*
X123508054Y-58057338D01*
X123569064Y-58075252D01*
X123615557Y-58128908D01*
X123625661Y-58199182D01*
X123596167Y-58263762D01*
X123590038Y-58270345D01*
X122583152Y-59277230D01*
X122564065Y-59292896D01*
X122551375Y-59301375D01*
X122490485Y-59392503D01*
X122488674Y-59398472D01*
X122488064Y-59404676D01*
X122469103Y-59499999D01*
X122472079Y-59514960D01*
X122474500Y-59539542D01*
X122474500Y-62417146D01*
X122454498Y-62485267D01*
X122437595Y-62506241D01*
X120256241Y-64687595D01*
X120193929Y-64721621D01*
X120167146Y-64724500D01*
X116572874Y-64724500D01*
X116504753Y-64704498D01*
X116458260Y-64650842D01*
X116448156Y-64580568D01*
X116477650Y-64515988D01*
X116520517Y-64485075D01*
X116520470Y-64484993D01*
X116521284Y-64484522D01*
X116524658Y-64482090D01*
X116526036Y-64481519D01*
X116527625Y-64480861D01*
X116642621Y-64392621D01*
X116730861Y-64277625D01*
X116730860Y-64277625D01*
X116730862Y-64277624D01*
X116753738Y-64222394D01*
X116786330Y-64143709D01*
X116804644Y-64004601D01*
X116833367Y-63939675D01*
X116892632Y-63900584D01*
X116953958Y-63899491D01*
X116954116Y-63898299D01*
X116962076Y-63899347D01*
X116962189Y-63899345D01*
X116962293Y-63899372D01*
X116962303Y-63899377D01*
X117106012Y-63918297D01*
X117249721Y-63899377D01*
X117336653Y-63863369D01*
X117383636Y-63843909D01*
X117498633Y-63755668D01*
X117586874Y-63640671D01*
X117616015Y-63570316D01*
X117642342Y-63506756D01*
X117661262Y-63363047D01*
X117642342Y-63219338D01*
X117613433Y-63149544D01*
X117586874Y-63085422D01*
X117500015Y-62972226D01*
X117474414Y-62906006D01*
X117488679Y-62836457D01*
X117529975Y-62790757D01*
X117553679Y-62774918D01*
X117580226Y-62757182D01*
X117581554Y-62759169D01*
X117629019Y-62733251D01*
X117699834Y-62738316D01*
X117730721Y-62758166D01*
X117731379Y-62757183D01*
X117791476Y-62797338D01*
X117791480Y-62797340D01*
X117835382Y-62806073D01*
X117835387Y-62806073D01*
X118576217Y-62806073D01*
X118576222Y-62806073D01*
X118620124Y-62797340D01*
X118620127Y-62797338D01*
X118680225Y-62757183D01*
X118681552Y-62759170D01*
X118729019Y-62733251D01*
X118799834Y-62738316D01*
X118830721Y-62758166D01*
X118831379Y-62757183D01*
X118901798Y-62804235D01*
X118900159Y-62806687D01*
X118940753Y-62839397D01*
X118963176Y-62906760D01*
X118945620Y-62975552D01*
X118937219Y-62987964D01*
X118862436Y-63085423D01*
X118806969Y-63219337D01*
X118788049Y-63363046D01*
X118788049Y-63363047D01*
X118806969Y-63506756D01*
X118862436Y-63640671D01*
X118950677Y-63755668D01*
X119065674Y-63843909D01*
X119141945Y-63875500D01*
X119199590Y-63899377D01*
X119343299Y-63918297D01*
X119487008Y-63899377D01*
X119573940Y-63863369D01*
X119620923Y-63843909D01*
X119735920Y-63755668D01*
X119824161Y-63640671D01*
X119853302Y-63570316D01*
X119879629Y-63506756D01*
X119898549Y-63363047D01*
X119879629Y-63219338D01*
X119850720Y-63149544D01*
X119824161Y-63085422D01*
X119735919Y-62970424D01*
X119734399Y-62968904D01*
X119733526Y-62967305D01*
X119730893Y-62963874D01*
X119731428Y-62963463D01*
X119700373Y-62906592D01*
X119705438Y-62835777D01*
X119747985Y-62778941D01*
X119753467Y-62775060D01*
X119769906Y-62764077D01*
X119803169Y-62714295D01*
X119811902Y-62670393D01*
X119811902Y-61929553D01*
X119803169Y-61885651D01*
X119803167Y-61885647D01*
X119763012Y-61825550D01*
X119764982Y-61824233D01*
X119739030Y-61776706D01*
X119744095Y-61705891D01*
X119763908Y-61675064D01*
X119762911Y-61674398D01*
X119803066Y-61614300D01*
X119803068Y-61614296D01*
X119804957Y-61604800D01*
X119811801Y-61570395D01*
X119811801Y-60829555D01*
X119803068Y-60785653D01*
X119803066Y-60785649D01*
X119762911Y-60725552D01*
X119764915Y-60724212D01*
X119739030Y-60676809D01*
X119744095Y-60605994D01*
X119763983Y-60575050D01*
X119763011Y-60574401D01*
X119802167Y-60515798D01*
X119856643Y-60470269D01*
X119927086Y-60461420D01*
X119983637Y-60485835D01*
X120085823Y-60564245D01*
X120161332Y-60595520D01*
X120219736Y-60619712D01*
X120363445Y-60638632D01*
X120507154Y-60619712D01*
X120601006Y-60580838D01*
X120641069Y-60564244D01*
X120756066Y-60476003D01*
X120844307Y-60361006D01*
X120875102Y-60286657D01*
X120899775Y-60227091D01*
X120918695Y-60083382D01*
X120899775Y-59939673D01*
X120879284Y-59890203D01*
X120844307Y-59805757D01*
X120756066Y-59690760D01*
X120641069Y-59602519D01*
X120507154Y-59547052D01*
X120363445Y-59528132D01*
X120219735Y-59547052D01*
X120085823Y-59602518D01*
X119968977Y-59692178D01*
X119902756Y-59717778D01*
X119833208Y-59703513D01*
X119787507Y-59662215D01*
X119769905Y-59635871D01*
X119720127Y-59602611D01*
X119720123Y-59602609D01*
X119676222Y-59593877D01*
X118935382Y-59593877D01*
X118935381Y-59593877D01*
X118891480Y-59602609D01*
X118891476Y-59602611D01*
X118831379Y-59642767D01*
X118830051Y-59640779D01*
X118782585Y-59666699D01*
X118711770Y-59661634D01*
X118680882Y-59641783D01*
X118680225Y-59642767D01*
X118620127Y-59602611D01*
X118620123Y-59602609D01*
X118576222Y-59593877D01*
X117835382Y-59593877D01*
X117835381Y-59593877D01*
X117791480Y-59602609D01*
X117791476Y-59602611D01*
X117731379Y-59642767D01*
X117730051Y-59640779D01*
X117682585Y-59666699D01*
X117611770Y-59661634D01*
X117580882Y-59641783D01*
X117580225Y-59642767D01*
X117520127Y-59602611D01*
X117520123Y-59602609D01*
X117476222Y-59593877D01*
X116735382Y-59593877D01*
X116735381Y-59593877D01*
X116691480Y-59602609D01*
X116691476Y-59602611D01*
X116641699Y-59635871D01*
X116610445Y-59682646D01*
X116555967Y-59728173D01*
X116485524Y-59737020D01*
X116430170Y-59710536D01*
X116428754Y-59712383D01*
X116307205Y-59619114D01*
X116173290Y-59563647D01*
X116029581Y-59544727D01*
X115885871Y-59563647D01*
X115751956Y-59619114D01*
X115636959Y-59707355D01*
X115548718Y-59822352D01*
X115493251Y-59956267D01*
X115474331Y-60099976D01*
X115474331Y-60099977D01*
X115493251Y-60243686D01*
X115548718Y-60377601D01*
X115636959Y-60492598D01*
X115751956Y-60580839D01*
X115833734Y-60614711D01*
X115885872Y-60636307D01*
X116029581Y-60655227D01*
X116173290Y-60636307D01*
X116264566Y-60598500D01*
X116307205Y-60580839D01*
X116428754Y-60487571D01*
X116430942Y-60490423D01*
X116478620Y-60464250D01*
X116549447Y-60469156D01*
X116606378Y-60511575D01*
X116610445Y-60517308D01*
X116648592Y-60574399D01*
X116646587Y-60575738D01*
X116672472Y-60623142D01*
X116667407Y-60693957D01*
X116647518Y-60724902D01*
X116648490Y-60725552D01*
X116608334Y-60785649D01*
X116608332Y-60785653D01*
X116599600Y-60829554D01*
X116599600Y-61570395D01*
X116608332Y-61614296D01*
X116608334Y-61614300D01*
X116648490Y-61674398D01*
X116646519Y-61675714D01*
X116672472Y-61723242D01*
X116667407Y-61794057D01*
X116647595Y-61824883D01*
X116648592Y-61825550D01*
X116608436Y-61885647D01*
X116608434Y-61885651D01*
X116599702Y-61929552D01*
X116599702Y-62670393D01*
X116608434Y-62714294D01*
X116608436Y-62714298D01*
X116641696Y-62764075D01*
X116641697Y-62764075D01*
X116641698Y-62764077D01*
X116681905Y-62790942D01*
X116727433Y-62845419D01*
X116736282Y-62915862D01*
X116711867Y-62972412D01*
X116625148Y-63085425D01*
X116569682Y-63219337D01*
X116551367Y-63358445D01*
X116522644Y-63423371D01*
X116463378Y-63462463D01*
X116402052Y-63463556D01*
X116401896Y-63464748D01*
X116393943Y-63463701D01*
X116393833Y-63463703D01*
X116393711Y-63463670D01*
X116250000Y-63444750D01*
X116165240Y-63455909D01*
X116095091Y-63444970D01*
X116059698Y-63420082D01*
X110472771Y-57833155D01*
X110457100Y-57814060D01*
X110448626Y-57801378D01*
X110425624Y-57786008D01*
X110385974Y-57759515D01*
X110357498Y-57740487D01*
X110357494Y-57740486D01*
X110270999Y-57723281D01*
X110270995Y-57723280D01*
X110250004Y-57719105D01*
X110250002Y-57719105D01*
X110235040Y-57722081D01*
X110210459Y-57724502D01*
X109525800Y-57724502D01*
X109457679Y-57704500D01*
X109411186Y-57650844D01*
X109399800Y-57598502D01*
X109399800Y-57540686D01*
X109399800Y-57540682D01*
X109391067Y-57496780D01*
X109391065Y-57496776D01*
X109357804Y-57446997D01*
X109308025Y-57413736D01*
X109308021Y-57413734D01*
X109264120Y-57405002D01*
X108045006Y-57405002D01*
X107976885Y-57385000D01*
X107930392Y-57331344D01*
X107920288Y-57261070D01*
X107949782Y-57196490D01*
X107955911Y-57189907D01*
X108013913Y-57131905D01*
X108076225Y-57097879D01*
X108103008Y-57095000D01*
X109264115Y-57095000D01*
X109264120Y-57095000D01*
X109308022Y-57086267D01*
X109357804Y-57053004D01*
X109391067Y-57003222D01*
X109399800Y-56959320D01*
X109399800Y-56040680D01*
X109399799Y-56040676D01*
X109399193Y-56034524D01*
X109401130Y-56034333D01*
X109406651Y-55972613D01*
X109450204Y-55916544D01*
X109479874Y-55900684D01*
X109495266Y-55894943D01*
X109612204Y-55807404D01*
X109699744Y-55690465D01*
X109699744Y-55690464D01*
X109750794Y-55553593D01*
X109757299Y-55493097D01*
X109757300Y-55493085D01*
X109757300Y-55254000D01*
X107242700Y-55254000D01*
X107242700Y-55493097D01*
X107249205Y-55553593D01*
X107300255Y-55690464D01*
X107300255Y-55690465D01*
X107387795Y-55807404D01*
X107504734Y-55894944D01*
X107504736Y-55894945D01*
X107520126Y-55900685D01*
X107576963Y-55943231D01*
X107601774Y-56009751D01*
X107600230Y-56034467D01*
X107600807Y-56034524D01*
X107600200Y-56040684D01*
X107600200Y-56714194D01*
X107580198Y-56782315D01*
X107563295Y-56803290D01*
X106990594Y-57375990D01*
X106928282Y-57410015D01*
X106857466Y-57404950D01*
X106800631Y-57362403D01*
X106775820Y-57295883D01*
X106775499Y-57286915D01*
X106775499Y-56493482D01*
X106760646Y-56399696D01*
X106726740Y-56333152D01*
X106703050Y-56286657D01*
X106613342Y-56196949D01*
X106500303Y-56139353D01*
X106456788Y-56132461D01*
X106392635Y-56102048D01*
X106355109Y-56041780D01*
X106350500Y-56008013D01*
X106350500Y-55997924D01*
X106370502Y-55929803D01*
X106424158Y-55883310D01*
X106456787Y-55873476D01*
X106537804Y-55860646D01*
X106650842Y-55803050D01*
X106740550Y-55713342D01*
X106798146Y-55600304D01*
X106813000Y-55506519D01*
X106812999Y-54746000D01*
X107242700Y-54746000D01*
X108246000Y-54746000D01*
X108246000Y-54047500D01*
X108754000Y-54047500D01*
X108754000Y-54746000D01*
X109757300Y-54746000D01*
X109757300Y-54506914D01*
X109757299Y-54506902D01*
X109750794Y-54446406D01*
X109699744Y-54309535D01*
X109699744Y-54309534D01*
X109612204Y-54192595D01*
X109495265Y-54105055D01*
X109358393Y-54054005D01*
X109297897Y-54047500D01*
X108754000Y-54047500D01*
X108246000Y-54047500D01*
X107702102Y-54047500D01*
X107641606Y-54054005D01*
X107504735Y-54105055D01*
X107504734Y-54105055D01*
X107387795Y-54192595D01*
X107300255Y-54309534D01*
X107300255Y-54309535D01*
X107249205Y-54446406D01*
X107242700Y-54506902D01*
X107242700Y-54746000D01*
X106812999Y-54746000D01*
X106812999Y-54493482D01*
X106798146Y-54399696D01*
X106769348Y-54343177D01*
X106740550Y-54286657D01*
X106650842Y-54196949D01*
X106575002Y-54158307D01*
X106537804Y-54139354D01*
X106444019Y-54124500D01*
X106444015Y-54124500D01*
X105705983Y-54124500D01*
X105612197Y-54139353D01*
X105499157Y-54196949D01*
X105409449Y-54286657D01*
X105351854Y-54399694D01*
X105347418Y-54427702D01*
X105343888Y-54449996D01*
X105342794Y-54456901D01*
X105312381Y-54521054D01*
X105252113Y-54558581D01*
X105181123Y-54557567D01*
X105121952Y-54518334D01*
X105093384Y-54453338D01*
X105092997Y-54449996D01*
X105084893Y-54370675D01*
X105029157Y-54202474D01*
X104936134Y-54051660D01*
X104936129Y-54051654D01*
X104810845Y-53926370D01*
X104810839Y-53926365D01*
X104660025Y-53833342D01*
X104491821Y-53777606D01*
X104491818Y-53777605D01*
X104388016Y-53767000D01*
X104254000Y-53767000D01*
X104254000Y-56183309D01*
X104233998Y-56251430D01*
X104217095Y-56272404D01*
X104216500Y-56272999D01*
X104216500Y-58233000D01*
X104279386Y-58233000D01*
X104347507Y-58253002D01*
X104394000Y-58306658D01*
X104404104Y-58376932D01*
X104395795Y-58407217D01*
X104365954Y-58479260D01*
X104347034Y-58622969D01*
X104347034Y-58622971D01*
X104355254Y-58685414D01*
X104344314Y-58755563D01*
X104319428Y-58790954D01*
X103824377Y-59286007D01*
X103795646Y-59314736D01*
X103776562Y-59330398D01*
X103763875Y-59338875D01*
X103702985Y-59430003D01*
X103701174Y-59435972D01*
X103700564Y-59442176D01*
X103681603Y-59537499D01*
X103684579Y-59552460D01*
X103687000Y-59577042D01*
X103687000Y-60002075D01*
X103666998Y-60070196D01*
X103613342Y-60116689D01*
X103580709Y-60126523D01*
X103570243Y-60128181D01*
X103499697Y-60139353D01*
X103386657Y-60196949D01*
X103296949Y-60286657D01*
X103239355Y-60399694D01*
X103239354Y-60399696D01*
X103224640Y-60492598D01*
X103224500Y-60493484D01*
X103224500Y-61506516D01*
X103239353Y-61600302D01*
X103292069Y-61703763D01*
X103305173Y-61773540D01*
X103278473Y-61839325D01*
X103245950Y-61868206D01*
X103151662Y-61926363D01*
X103151654Y-61926370D01*
X103026370Y-62051654D01*
X103026365Y-62051660D01*
X102933342Y-62202474D01*
X102877606Y-62370678D01*
X102877605Y-62370681D01*
X102867000Y-62474483D01*
X102867000Y-62746000D01*
X104090500Y-62746000D01*
X104158621Y-62766002D01*
X104205114Y-62819658D01*
X104216500Y-62872000D01*
X104216500Y-64233000D01*
X104350517Y-64233000D01*
X104350516Y-64232999D01*
X104454318Y-64222394D01*
X104454321Y-64222393D01*
X104622525Y-64166657D01*
X104773339Y-64073634D01*
X104773345Y-64073629D01*
X104898629Y-63948345D01*
X104898634Y-63948339D01*
X104991657Y-63797525D01*
X105047393Y-63629324D01*
X105055497Y-63550001D01*
X105082319Y-63484266D01*
X105140422Y-63443467D01*
X105211359Y-63440558D01*
X105272608Y-63476462D01*
X105304723Y-63539780D01*
X105305294Y-63543098D01*
X105314353Y-63600302D01*
X105371949Y-63713342D01*
X105461657Y-63803050D01*
X105474705Y-63809698D01*
X105574696Y-63860646D01*
X105578655Y-63861273D01*
X105583078Y-63863369D01*
X105584123Y-63863709D01*
X105584079Y-63863843D01*
X105642806Y-63891680D01*
X105680336Y-63951946D01*
X105679326Y-64022936D01*
X105640096Y-64082110D01*
X105635654Y-64085681D01*
X105607378Y-64107378D01*
X105519137Y-64222375D01*
X105463670Y-64356290D01*
X105444750Y-64499999D01*
X105444750Y-64500000D01*
X105463670Y-64643709D01*
X105497458Y-64725283D01*
X105505047Y-64795873D01*
X105473267Y-64859360D01*
X105412208Y-64895586D01*
X105381049Y-64899500D01*
X104614542Y-64899500D01*
X104589962Y-64897079D01*
X104575000Y-64894103D01*
X104574999Y-64894103D01*
X104574997Y-64894103D01*
X104555462Y-64897988D01*
X104555441Y-64897993D01*
X104467504Y-64915485D01*
X104425534Y-64943528D01*
X104402611Y-64958845D01*
X104402606Y-64958849D01*
X104376375Y-64976376D01*
X104367896Y-64989065D01*
X104352230Y-65008152D01*
X102583152Y-66777230D01*
X102564065Y-66792896D01*
X102551375Y-66801375D01*
X102490484Y-66892505D01*
X102487767Y-66906170D01*
X102469103Y-66999999D01*
X102472079Y-67014960D01*
X102474500Y-67039542D01*
X102474500Y-80210457D01*
X102472079Y-80235037D01*
X102469103Y-80249999D01*
X102469103Y-80250002D01*
X102200500Y-80250002D01*
X102200500Y-63254000D01*
X102867000Y-63254000D01*
X102867000Y-63525516D01*
X102877605Y-63629318D01*
X102877606Y-63629321D01*
X102933342Y-63797525D01*
X103026365Y-63948339D01*
X103026370Y-63948345D01*
X103151654Y-64073629D01*
X103151660Y-64073634D01*
X103302474Y-64166657D01*
X103470678Y-64222393D01*
X103470681Y-64222394D01*
X103574483Y-64232999D01*
X103574483Y-64233000D01*
X103708500Y-64233000D01*
X103708500Y-63254000D01*
X102867000Y-63254000D01*
X102200500Y-63254000D01*
X102200500Y-57254000D01*
X102867000Y-57254000D01*
X102867000Y-57525516D01*
X102877605Y-57629318D01*
X102877606Y-57629321D01*
X102933342Y-57797525D01*
X103026365Y-57948339D01*
X103026370Y-57948345D01*
X103151654Y-58073629D01*
X103151660Y-58073634D01*
X103302474Y-58166657D01*
X103470678Y-58222393D01*
X103470681Y-58222394D01*
X103574483Y-58232999D01*
X103574483Y-58233000D01*
X103708500Y-58233000D01*
X103708500Y-57254000D01*
X102867000Y-57254000D01*
X102200500Y-57254000D01*
X102200500Y-56746000D01*
X102867000Y-56746000D01*
X103708500Y-56746000D01*
X103708500Y-55816691D01*
X103728502Y-55748570D01*
X103745405Y-55727596D01*
X103746000Y-55727001D01*
X103746000Y-55254000D01*
X102904500Y-55254000D01*
X102904500Y-55525516D01*
X102915105Y-55629318D01*
X102915106Y-55629321D01*
X102970843Y-55797527D01*
X103036916Y-55904649D01*
X103055653Y-55973128D01*
X103034393Y-56040867D01*
X103028520Y-56048933D01*
X103026372Y-56051649D01*
X102933342Y-56202474D01*
X102877606Y-56370678D01*
X102877605Y-56370681D01*
X102867000Y-56474483D01*
X102867000Y-56746000D01*
X102200500Y-56746000D01*
X102200500Y-54746000D01*
X102904500Y-54746000D01*
X103746000Y-54746000D01*
X103746000Y-53767000D01*
X103611983Y-53767000D01*
X103508181Y-53777605D01*
X103508178Y-53777606D01*
X103339974Y-53833342D01*
X103189160Y-53926365D01*
X103189154Y-53926370D01*
X103063870Y-54051654D01*
X103063865Y-54051660D01*
X102970842Y-54202474D01*
X102915106Y-54370678D01*
X102915105Y-54370681D01*
X102904500Y-54474483D01*
X102904500Y-54746000D01*
X102200500Y-54746000D01*
X102200500Y-53500000D01*
X124194750Y-53500000D01*
X124213670Y-53643709D01*
X124269137Y-53777624D01*
X124357378Y-53892621D01*
X124472375Y-53980862D01*
X124534041Y-54006403D01*
X124606291Y-54036330D01*
X124610434Y-54036875D01*
X124613673Y-54038308D01*
X124614270Y-54038468D01*
X124614245Y-54038561D01*
X124675359Y-54065593D01*
X124683086Y-54072702D01*
X125063295Y-54452911D01*
X125097321Y-54515223D01*
X125100200Y-54542006D01*
X125100200Y-55459320D01*
X125108932Y-55503221D01*
X125108934Y-55503225D01*
X125142195Y-55553004D01*
X125191974Y-55586265D01*
X125191978Y-55586267D01*
X125235880Y-55595000D01*
X125235885Y-55595000D01*
X126764115Y-55595000D01*
X126764120Y-55595000D01*
X126808022Y-55586267D01*
X126857804Y-55553004D01*
X126891067Y-55503222D01*
X126899800Y-55459320D01*
X126899800Y-54540680D01*
X126891067Y-54496778D01*
X126891065Y-54496774D01*
X126857804Y-54446995D01*
X126808025Y-54413734D01*
X126808021Y-54413732D01*
X126764120Y-54405000D01*
X125846806Y-54405000D01*
X125778685Y-54384998D01*
X125757711Y-54368095D01*
X125271758Y-53882142D01*
X125237732Y-53819830D01*
X125242797Y-53749015D01*
X125244418Y-53744893D01*
X125286330Y-53643709D01*
X125305250Y-53500000D01*
X125286330Y-53356291D01*
X125265839Y-53306821D01*
X125230862Y-53222375D01*
X125142621Y-53107378D01*
X125027624Y-53019137D01*
X124893709Y-52963670D01*
X124750000Y-52944750D01*
X124606290Y-52963670D01*
X124472375Y-53019137D01*
X124357378Y-53107378D01*
X124269137Y-53222375D01*
X124213670Y-53356290D01*
X124194750Y-53499999D01*
X124194750Y-53500000D01*
X102200500Y-53500000D01*
X102200500Y-52326500D01*
X102220502Y-52258379D01*
X102274158Y-52211886D01*
X102326500Y-52200500D01*
X131673500Y-52200500D01*
X131741621Y-52220502D01*
G37*
%TD.AperFunction*%
%TD*%
M02*
