%TF.GenerationSoftware,KiCad,Pcbnew,7.0.9*%
%TF.CreationDate,2024-01-01T22:47:05-05:00*%
%TF.ProjectId,Vex_Debug,5665785f-4465-4627-9567-2e6b69636164,rev?*%
%TF.SameCoordinates,Original*%
%TF.FileFunction,Copper,L2,Bot*%
%TF.FilePolarity,Positive*%
%FSLAX46Y46*%
G04 Gerber Fmt 4.6, Leading zero omitted, Abs format (unit mm)*
G04 Created by KiCad (PCBNEW 7.0.9) date 2024-01-01 22:47:05*
%MOMM*%
%LPD*%
G01*
G04 APERTURE LIST*
G04 Aperture macros list*
%AMRoundRect*
0 Rectangle with rounded corners*
0 $1 Rounding radius*
0 $2 $3 $4 $5 $6 $7 $8 $9 X,Y pos of 4 corners*
0 Add a 4 corners polygon primitive as box body*
4,1,4,$2,$3,$4,$5,$6,$7,$8,$9,$2,$3,0*
0 Add four circle primitives for the rounded corners*
1,1,$1+$1,$2,$3*
1,1,$1+$1,$4,$5*
1,1,$1+$1,$6,$7*
1,1,$1+$1,$8,$9*
0 Add four rect primitives between the rounded corners*
20,1,$1+$1,$2,$3,$4,$5,0*
20,1,$1+$1,$4,$5,$6,$7,0*
20,1,$1+$1,$6,$7,$8,$9,0*
20,1,$1+$1,$8,$9,$2,$3,0*%
G04 Aperture macros list end*
%TA.AperFunction,ComponentPad*%
%ADD10C,0.700000*%
%TD*%
%TA.AperFunction,ComponentPad*%
%ADD11O,2.400000X0.900000*%
%TD*%
%TA.AperFunction,ComponentPad*%
%ADD12O,1.700000X0.900000*%
%TD*%
%TA.AperFunction,ComponentPad*%
%ADD13R,1.700000X1.700000*%
%TD*%
%TA.AperFunction,ComponentPad*%
%ADD14O,1.700000X1.700000*%
%TD*%
%TA.AperFunction,ComponentPad*%
%ADD15C,1.300000*%
%TD*%
%TA.AperFunction,SMDPad,CuDef*%
%ADD16R,0.800000X1.500000*%
%TD*%
%TA.AperFunction,SMDPad,CuDef*%
%ADD17RoundRect,0.362500X0.362500X0.637500X-0.362500X0.637500X-0.362500X-0.637500X0.362500X-0.637500X0*%
%TD*%
%TA.AperFunction,ViaPad*%
%ADD18C,0.800000*%
%TD*%
%TA.AperFunction,Conductor*%
%ADD19C,0.250000*%
%TD*%
%TA.AperFunction,Conductor*%
%ADD20C,0.200000*%
%TD*%
G04 APERTURE END LIST*
D10*
%TO.P,J1,A1,GND*%
%TO.N,GND*%
X123975000Y-77975000D03*
%TO.P,J1,A4,VBUS*%
%TO.N,Net-(D6-A)*%
X123975000Y-77125000D03*
%TO.P,J1,A5,CC1*%
%TO.N,Net-(J1-CC1)*%
X123975000Y-76275000D03*
%TO.P,J1,A6,D+*%
%TO.N,/USB_D+*%
X123975000Y-75425000D03*
%TO.P,J1,A7,D-*%
%TO.N,/USB_D-*%
X123975000Y-74575000D03*
%TO.P,J1,A8,SBU1*%
%TO.N,unconnected-(J1-SBU1-PadA8)*%
X123975000Y-73725000D03*
%TO.P,J1,A9,VBUS*%
%TO.N,Net-(D6-A)*%
X123975000Y-72875000D03*
%TO.P,J1,A12,GND*%
%TO.N,GND*%
X123975000Y-72025000D03*
%TO.P,J1,B1,GND*%
X125325000Y-72025000D03*
%TO.P,J1,B4,VBUS*%
%TO.N,Net-(D6-A)*%
X125325000Y-72875000D03*
%TO.P,J1,B5,CC2*%
%TO.N,Net-(J1-CC2)*%
X125325000Y-73725000D03*
%TO.P,J1,B6,D+*%
%TO.N,/USB_D+*%
X125325000Y-74575000D03*
%TO.P,J1,B7,D-*%
%TO.N,/USB_D-*%
X125325000Y-75425000D03*
%TO.P,J1,B8,SBU2*%
%TO.N,unconnected-(J1-SBU2-PadB8)*%
X125325000Y-76275000D03*
%TO.P,J1,B9,VBUS*%
%TO.N,Net-(D6-A)*%
X125325000Y-77125000D03*
%TO.P,J1,B12,GND*%
%TO.N,GND*%
X125325000Y-77975000D03*
D11*
%TO.P,J1,S1,SHIELD*%
%TO.N,Net-(J1-SHIELD)*%
X124955000Y-79325000D03*
D12*
X128335000Y-79325000D03*
D11*
X124955000Y-70675000D03*
D12*
X128335000Y-70675000D03*
%TD*%
D13*
%TO.P,J3,1,Pin_1*%
%TO.N,/EN_PU*%
X105000000Y-71275000D03*
D14*
%TO.P,J3,2,Pin_2*%
%TO.N,/IO9_BOOT*%
X105000000Y-68735000D03*
%TD*%
D15*
%TO.P,CONN1,1,DA*%
%TO.N,/RJ9_DA*%
X115285000Y-102800000D03*
%TO.P,CONN1,2,DB*%
%TO.N,/RJ9_DB*%
X116555000Y-100260000D03*
%TO.P,CONN1,3,GND*%
%TO.N,GND*%
X117825000Y-102800000D03*
%TO.P,CONN1,4,+12V*%
%TO.N,Net-(CONN1-+12V)*%
X119095000Y-100260000D03*
%TD*%
D16*
%TO.P,J2,1,DAT2*%
%TO.N,unconnected-(J2-DAT2-Pad1)*%
X120700000Y-58000000D03*
%TO.P,J2,2,DAT3/CD*%
%TO.N,/SD_CS*%
X119600000Y-58000000D03*
%TO.P,J2,3,CMD*%
%TO.N,/SD_MOSI*%
X118500000Y-58000000D03*
%TO.P,J2,4,VDD*%
%TO.N,+3.3V*%
X117400000Y-58000000D03*
%TO.P,J2,5,CLK*%
%TO.N,/SD_SCL*%
X116300000Y-58000000D03*
%TO.P,J2,6,VSS*%
%TO.N,GND*%
X115200000Y-58000000D03*
%TO.P,J2,7,DAT0*%
%TO.N,/SD_MISO*%
X114100000Y-58000000D03*
%TO.P,J2,8,DAT1*%
%TO.N,unconnected-(J2-DAT1-Pad8)*%
X113000000Y-58000000D03*
D17*
%TO.P,J2,9,SHIELD*%
%TO.N,Net-(J2-SHIELD)*%
X124370000Y-63700000D03*
X124370000Y-55400000D03*
X110620000Y-63700000D03*
X110620000Y-55400000D03*
%TD*%
D18*
%TO.N,+3.3V*%
X120999525Y-69558581D03*
X117401503Y-56443716D03*
X109759787Y-74240213D03*
X116250000Y-69582896D03*
X106750000Y-73250000D03*
X115600000Y-61800000D03*
X114750000Y-70750000D03*
%TO.N,GND*%
X124500000Y-90000000D03*
X117750000Y-79000000D03*
X129800000Y-65400000D03*
X117106012Y-63363047D03*
X109815374Y-70388000D03*
X106000000Y-64500000D03*
X129750000Y-104500000D03*
X128000000Y-94500000D03*
X117500000Y-97000000D03*
X104902284Y-58622970D03*
X109250000Y-106000000D03*
X114000000Y-91250000D03*
X107500000Y-68000000D03*
X120363445Y-60083382D03*
X119343299Y-63363047D03*
X117750000Y-73000000D03*
X127000000Y-87000000D03*
X118000000Y-93250000D03*
X116029581Y-60099977D03*
X109250000Y-103250000D03*
%TO.N,/EN_PU*%
X105000000Y-59750000D03*
%TO.N,/RJ9_DB*%
X112250000Y-98500000D03*
X114500000Y-98500000D03*
%TO.N,Net-(D5-K)*%
X114000000Y-86500000D03*
X117500000Y-81000000D03*
%TO.N,/STAT_LED*%
X130500000Y-108000000D03*
X116250000Y-64000000D03*
%TO.N,/USB_D+*%
X115500000Y-72449503D03*
%TO.N,/USB_D-*%
X115500000Y-71500000D03*
%TO.N,/SD_CS*%
X124250000Y-59500000D03*
%TO.N,/SD_MOSI*%
X123500000Y-57500000D03*
%TO.N,/SD_SCL*%
X124250000Y-61000000D03*
%TO.N,/SD_MISO*%
X124750000Y-53500000D03*
%TO.N,Net-(J2-SHIELD)*%
X127227332Y-63215494D03*
%TO.N,Net-(Q1-E)*%
X107250000Y-80000000D03*
X110750000Y-77250000D03*
%TO.N,Net-(U4-~{RESET})*%
X117626083Y-71123917D03*
X116247807Y-70548304D03*
%TD*%
D19*
%TO.N,+3.3V*%
X116250000Y-69582896D02*
X115575000Y-68907896D01*
X117400000Y-58000000D02*
X117400000Y-56600000D01*
X114917104Y-69582896D02*
X114000000Y-70500000D01*
X109759787Y-74240213D02*
X107740213Y-74240213D01*
X116250000Y-69582896D02*
X114917104Y-69582896D01*
X114000000Y-70500000D02*
X110259787Y-74240213D01*
X115575000Y-68907896D02*
X115575000Y-61825000D01*
X117400000Y-56600000D02*
X117500000Y-56500000D01*
X107740213Y-74240213D02*
X106750000Y-73250000D01*
X120667104Y-69582896D02*
X121000000Y-69250000D01*
X110259787Y-74240213D02*
X109759787Y-74240213D01*
X114000000Y-70500000D02*
X114250000Y-70750000D01*
X115575000Y-61825000D02*
X115600000Y-61800000D01*
X116250000Y-69582896D02*
X120667104Y-69582896D01*
X114250000Y-70750000D02*
X114750000Y-70750000D01*
%TO.N,GND*%
X125325000Y-72025000D02*
X123975000Y-72025000D01*
%TO.N,Net-(D6-A)*%
X126000000Y-73055026D02*
X126000000Y-76944974D01*
X125819974Y-77125000D02*
X125325000Y-77125000D01*
X125325000Y-72875000D02*
X125819974Y-72875000D01*
X126000000Y-76944974D02*
X125819974Y-77125000D01*
X125819974Y-72875000D02*
X126000000Y-73055026D01*
%TO.N,/EN_PU*%
X103875000Y-70150000D02*
X103875000Y-60875000D01*
X103875000Y-60875000D02*
X105000000Y-59750000D01*
X105000000Y-71275000D02*
X103875000Y-70150000D01*
%TO.N,/RJ9_DB*%
X114500000Y-98500000D02*
X112250000Y-98500000D01*
%TO.N,Net-(D5-K)*%
X114000000Y-84500000D02*
X114000000Y-86500000D01*
X117500000Y-81000000D02*
X114000000Y-84500000D01*
%TO.N,Net-(J1-SHIELD)*%
X126400000Y-77880000D02*
X124955000Y-79325000D01*
X124955000Y-70675000D02*
X126400000Y-72120000D01*
X126400000Y-72120000D02*
X126400000Y-77880000D01*
X124955000Y-70675000D02*
X128335000Y-70675000D01*
X124955000Y-79325000D02*
X128335000Y-79325000D01*
%TO.N,/STAT_LED*%
X118500000Y-66250000D02*
X116250000Y-64000000D01*
X126500000Y-66250000D02*
X118500000Y-66250000D01*
X130500000Y-108000000D02*
X130500000Y-70250000D01*
X130500000Y-70250000D02*
X126500000Y-66250000D01*
D20*
%TO.N,/USB_D+*%
X123975000Y-75425000D02*
X124475000Y-75425000D01*
X115500000Y-72449503D02*
X115500000Y-72750000D01*
X124475000Y-75425000D02*
X125325000Y-74575000D01*
X115500000Y-72750000D02*
X118175000Y-75425000D01*
X118175000Y-75425000D02*
X123975000Y-75425000D01*
%TO.N,/USB_D-*%
X116000000Y-72000000D02*
X115500000Y-71500000D01*
X121400000Y-72000000D02*
X116000000Y-72000000D01*
X123975000Y-74575000D02*
X121400000Y-72000000D01*
D19*
%TO.N,/SD_CS*%
X120025000Y-56975000D02*
X121725000Y-56975000D01*
X121725000Y-56975000D02*
X124250000Y-59500000D01*
X119600000Y-58000000D02*
X119600000Y-57400000D01*
X119600000Y-57400000D02*
X120025000Y-56975000D01*
%TO.N,/SD_MOSI*%
X122575000Y-56575000D02*
X123500000Y-57500000D01*
X118500000Y-57000000D02*
X118925000Y-56575000D01*
X118500000Y-58000000D02*
X118500000Y-57000000D01*
X118925000Y-56575000D02*
X122575000Y-56575000D01*
%TO.N,/SD_SCL*%
X116300000Y-59000000D02*
X118300000Y-61000000D01*
X118300000Y-61000000D02*
X124250000Y-61000000D01*
X116300000Y-58000000D02*
X116300000Y-59000000D01*
%TO.N,/SD_MISO*%
X114100000Y-58000000D02*
X114100000Y-57000000D01*
X117600000Y-53500000D02*
X124750000Y-53500000D01*
X114100000Y-57000000D02*
X117600000Y-53500000D01*
%TO.N,Net-(J2-SHIELD)*%
X124370000Y-63700000D02*
X125425000Y-62645000D01*
X125250000Y-52750000D02*
X125500000Y-53000000D01*
X110620000Y-63700000D02*
X110620000Y-55400000D01*
X125425000Y-62645000D02*
X125425000Y-56455000D01*
X125500000Y-53000000D02*
X125500000Y-54270000D01*
X110620000Y-55400000D02*
X113270000Y-52750000D01*
X125995494Y-63215494D02*
X125425000Y-62645000D01*
X125500000Y-54270000D02*
X124370000Y-55400000D01*
X125425000Y-56455000D02*
X124370000Y-55400000D01*
X113270000Y-52750000D02*
X125250000Y-52750000D01*
X127227332Y-63215494D02*
X125995494Y-63215494D01*
X110620000Y-63700000D02*
X110958047Y-64038047D01*
X124031953Y-64038047D02*
X124370000Y-63700000D01*
%TO.N,Net-(Q1-E)*%
X108000000Y-80000000D02*
X110750000Y-77250000D01*
X107250000Y-80000000D02*
X108000000Y-80000000D01*
%TO.N,Net-(U4-~{RESET})*%
X117050470Y-70548304D02*
X117626083Y-71123917D01*
X116247807Y-70548304D02*
X117050470Y-70548304D01*
%TD*%
%TA.AperFunction,Conductor*%
%TO.N,GND*%
G36*
X121312171Y-72270502D02*
G01*
X121333145Y-72287405D01*
X123443783Y-74398043D01*
X123477809Y-74460355D01*
X123479406Y-74505066D01*
X123470789Y-74565009D01*
X123469353Y-74575000D01*
X123489835Y-74717457D01*
X123509142Y-74759733D01*
X123549623Y-74848373D01*
X123609511Y-74917488D01*
X123639004Y-74982069D01*
X123628899Y-75052343D01*
X123609511Y-75082512D01*
X123567486Y-75131012D01*
X123507760Y-75169396D01*
X123472261Y-75174500D01*
X118330950Y-75174500D01*
X118262829Y-75154498D01*
X118241855Y-75137595D01*
X115994098Y-72889838D01*
X115960072Y-72827526D01*
X115965137Y-72756711D01*
X115977361Y-72734644D01*
X115976732Y-72734281D01*
X115980861Y-72727128D01*
X115994272Y-72694750D01*
X116036330Y-72593212D01*
X116055250Y-72449503D01*
X116047804Y-72392946D01*
X116058743Y-72322798D01*
X116105871Y-72269699D01*
X116172726Y-72250500D01*
X121244050Y-72250500D01*
X121312171Y-72270502D01*
G37*
%TD.AperFunction*%
%TA.AperFunction,Conductor*%
G36*
X131741621Y-52220502D02*
G01*
X131788114Y-52274158D01*
X131799500Y-52326500D01*
X131799500Y-111673500D01*
X131779498Y-111741621D01*
X131725842Y-111788114D01*
X131673500Y-111799500D01*
X102326500Y-111799500D01*
X102258379Y-111779498D01*
X102211886Y-111725842D01*
X102200500Y-111673500D01*
X102200500Y-109217911D01*
X111521780Y-109217911D01*
X111551468Y-109487742D01*
X111620132Y-109750386D01*
X111726304Y-110000227D01*
X111867716Y-110231940D01*
X111867721Y-110231946D01*
X112041366Y-110440602D01*
X112041370Y-110440606D01*
X112243535Y-110621748D01*
X112243539Y-110621750D01*
X112243546Y-110621757D01*
X112469947Y-110771542D01*
X112469949Y-110771543D01*
X112715740Y-110886766D01*
X112715742Y-110886766D01*
X112715743Y-110886767D01*
X112975697Y-110964975D01*
X112975700Y-110964975D01*
X112975702Y-110964976D01*
X113244264Y-111004500D01*
X113244268Y-111004500D01*
X113447783Y-111004500D01*
X113528964Y-110998558D01*
X113650740Y-110989645D01*
X113915709Y-110930621D01*
X114169261Y-110833646D01*
X114405991Y-110700786D01*
X114620853Y-110534875D01*
X114809269Y-110339447D01*
X114967223Y-110118668D01*
X115091348Y-109877244D01*
X115178998Y-109620320D01*
X115228306Y-109353371D01*
X115233256Y-109217911D01*
X119141780Y-109217911D01*
X119171468Y-109487742D01*
X119240132Y-109750386D01*
X119346304Y-110000227D01*
X119487716Y-110231940D01*
X119487721Y-110231946D01*
X119661366Y-110440602D01*
X119661370Y-110440606D01*
X119863535Y-110621748D01*
X119863539Y-110621750D01*
X119863546Y-110621757D01*
X120089947Y-110771542D01*
X120089949Y-110771543D01*
X120335740Y-110886766D01*
X120335742Y-110886766D01*
X120335743Y-110886767D01*
X120595697Y-110964975D01*
X120595700Y-110964975D01*
X120595702Y-110964976D01*
X120864264Y-111004500D01*
X120864268Y-111004500D01*
X121067783Y-111004500D01*
X121148964Y-110998558D01*
X121270740Y-110989645D01*
X121535709Y-110930621D01*
X121789261Y-110833646D01*
X122025991Y-110700786D01*
X122240853Y-110534875D01*
X122429269Y-110339447D01*
X122587223Y-110118668D01*
X122711348Y-109877244D01*
X122798998Y-109620320D01*
X122848306Y-109353371D01*
X122858220Y-109082089D01*
X122843315Y-108946629D01*
X122828531Y-108812257D01*
X122828530Y-108812253D01*
X122759868Y-108549616D01*
X122653697Y-108299776D01*
X122512281Y-108068056D01*
X122338632Y-107859396D01*
X122335166Y-107856290D01*
X122136464Y-107678251D01*
X122136459Y-107678247D01*
X122136454Y-107678243D01*
X121910053Y-107528458D01*
X121910050Y-107528456D01*
X121664259Y-107413233D01*
X121404297Y-107335023D01*
X121135735Y-107295500D01*
X121135732Y-107295500D01*
X120932219Y-107295500D01*
X120932217Y-107295500D01*
X120729262Y-107310354D01*
X120464287Y-107369380D01*
X120464285Y-107369381D01*
X120210738Y-107466354D01*
X119974008Y-107599214D01*
X119759145Y-107765126D01*
X119759144Y-107765127D01*
X119570732Y-107960551D01*
X119570727Y-107960557D01*
X119412779Y-108181328D01*
X119412775Y-108181333D01*
X119288652Y-108422753D01*
X119201000Y-108679686D01*
X119151693Y-108946632D01*
X119141780Y-109217911D01*
X115233256Y-109217911D01*
X115238220Y-109082089D01*
X115223315Y-108946629D01*
X115208531Y-108812257D01*
X115208530Y-108812253D01*
X115139868Y-108549616D01*
X115033697Y-108299776D01*
X114892281Y-108068056D01*
X114718632Y-107859396D01*
X114715166Y-107856290D01*
X114516464Y-107678251D01*
X114516459Y-107678247D01*
X114516454Y-107678243D01*
X114290053Y-107528458D01*
X114290050Y-107528456D01*
X114044259Y-107413233D01*
X113784297Y-107335023D01*
X113515735Y-107295500D01*
X113515732Y-107295500D01*
X113312219Y-107295500D01*
X113312217Y-107295500D01*
X113109262Y-107310354D01*
X112844287Y-107369380D01*
X112844285Y-107369381D01*
X112590738Y-107466354D01*
X112354008Y-107599214D01*
X112139145Y-107765126D01*
X112139144Y-107765127D01*
X111950732Y-107960551D01*
X111950727Y-107960557D01*
X111792779Y-108181328D01*
X111792775Y-108181333D01*
X111668652Y-108422753D01*
X111581000Y-108679686D01*
X111531693Y-108946632D01*
X111521780Y-109217911D01*
X102200500Y-109217911D01*
X102200500Y-102800000D01*
X114479435Y-102800000D01*
X114499632Y-102979255D01*
X114499633Y-102979257D01*
X114559211Y-103149522D01*
X114559212Y-103149525D01*
X114655182Y-103302260D01*
X114655183Y-103302262D01*
X114782737Y-103429816D01*
X114782739Y-103429817D01*
X114935474Y-103525787D01*
X114935475Y-103525787D01*
X114935478Y-103525789D01*
X115105745Y-103585368D01*
X115285000Y-103605565D01*
X115464255Y-103585368D01*
X115634522Y-103525789D01*
X115787262Y-103429816D01*
X115914816Y-103302262D01*
X116010789Y-103149522D01*
X116070368Y-102979255D01*
X116090565Y-102800004D01*
X116662039Y-102800004D01*
X116681840Y-103013688D01*
X116681840Y-103013692D01*
X116740570Y-103220109D01*
X116740571Y-103220111D01*
X116836232Y-103412221D01*
X116843690Y-103422097D01*
X116843691Y-103422097D01*
X117380155Y-102885632D01*
X117381327Y-102901265D01*
X117430887Y-103027541D01*
X117515465Y-103133599D01*
X117627547Y-103210016D01*
X117739623Y-103244586D01*
X117205674Y-103778534D01*
X117306623Y-103841039D01*
X117306630Y-103841042D01*
X117506736Y-103918564D01*
X117506735Y-103918564D01*
X117717697Y-103958000D01*
X117932303Y-103958000D01*
X118143264Y-103918564D01*
X118343370Y-103841042D01*
X118343379Y-103841037D01*
X118444325Y-103778534D01*
X117908316Y-103242525D01*
X117959138Y-103234865D01*
X118081357Y-103176007D01*
X118180798Y-103083740D01*
X118248625Y-102966260D01*
X118267550Y-102883339D01*
X118806308Y-103422097D01*
X118813769Y-103412219D01*
X118909429Y-103220107D01*
X118968159Y-103013692D01*
X118968159Y-103013688D01*
X118987961Y-102800004D01*
X118987961Y-102799995D01*
X118968159Y-102586311D01*
X118968159Y-102586307D01*
X118909429Y-102379890D01*
X118909428Y-102379888D01*
X118813768Y-102187779D01*
X118806308Y-102177901D01*
X118269844Y-102714364D01*
X118268673Y-102698735D01*
X118219113Y-102572459D01*
X118134535Y-102466401D01*
X118022453Y-102389984D01*
X117910376Y-102355413D01*
X118444324Y-101821464D01*
X118343376Y-101758960D01*
X118343369Y-101758957D01*
X118143263Y-101681435D01*
X118143264Y-101681435D01*
X117932303Y-101642000D01*
X117717697Y-101642000D01*
X117506735Y-101681435D01*
X117306630Y-101758957D01*
X117306618Y-101758963D01*
X117205673Y-101821464D01*
X117741683Y-102357474D01*
X117690862Y-102365135D01*
X117568643Y-102423993D01*
X117469202Y-102516260D01*
X117401375Y-102633740D01*
X117382449Y-102716659D01*
X116843690Y-102177901D01*
X116836232Y-102187777D01*
X116836232Y-102187778D01*
X116740571Y-102379888D01*
X116740570Y-102379890D01*
X116681840Y-102586307D01*
X116681840Y-102586311D01*
X116662039Y-102799995D01*
X116662039Y-102800004D01*
X116090565Y-102800004D01*
X116090565Y-102800000D01*
X116070368Y-102620745D01*
X116010789Y-102450478D01*
X116010787Y-102450475D01*
X116010787Y-102450474D01*
X115914817Y-102297739D01*
X115914816Y-102297737D01*
X115787262Y-102170183D01*
X115787260Y-102170182D01*
X115634525Y-102074212D01*
X115634522Y-102074211D01*
X115464255Y-102014632D01*
X115285000Y-101994435D01*
X115105745Y-102014632D01*
X115105742Y-102014632D01*
X115105742Y-102014633D01*
X114935477Y-102074211D01*
X114935474Y-102074212D01*
X114782739Y-102170182D01*
X114782737Y-102170183D01*
X114655183Y-102297737D01*
X114655182Y-102297739D01*
X114559212Y-102450474D01*
X114559211Y-102450477D01*
X114559211Y-102450478D01*
X114499632Y-102620745D01*
X114479435Y-102800000D01*
X102200500Y-102800000D01*
X102200500Y-100260000D01*
X115749435Y-100260000D01*
X115769632Y-100439255D01*
X115769633Y-100439257D01*
X115829211Y-100609522D01*
X115829212Y-100609525D01*
X115925182Y-100762260D01*
X115925183Y-100762262D01*
X116052737Y-100889816D01*
X116052739Y-100889817D01*
X116205474Y-100985787D01*
X116205475Y-100985787D01*
X116205478Y-100985789D01*
X116375745Y-101045368D01*
X116555000Y-101065565D01*
X116734255Y-101045368D01*
X116904522Y-100985789D01*
X117057262Y-100889816D01*
X117184816Y-100762262D01*
X117280789Y-100609522D01*
X117340368Y-100439255D01*
X117360565Y-100260000D01*
X118289435Y-100260000D01*
X118309632Y-100439255D01*
X118309633Y-100439257D01*
X118369211Y-100609522D01*
X118369212Y-100609525D01*
X118465182Y-100762260D01*
X118465183Y-100762262D01*
X118592737Y-100889816D01*
X118592739Y-100889817D01*
X118745474Y-100985787D01*
X118745475Y-100985787D01*
X118745478Y-100985789D01*
X118915745Y-101045368D01*
X119095000Y-101065565D01*
X119274255Y-101045368D01*
X119444522Y-100985789D01*
X119597262Y-100889816D01*
X119724816Y-100762262D01*
X119820789Y-100609522D01*
X119880368Y-100439255D01*
X119900565Y-100260000D01*
X119880368Y-100080745D01*
X119820789Y-99910478D01*
X119820787Y-99910475D01*
X119820787Y-99910474D01*
X119724817Y-99757739D01*
X119724816Y-99757737D01*
X119597262Y-99630183D01*
X119597260Y-99630182D01*
X119444525Y-99534212D01*
X119444522Y-99534211D01*
X119274255Y-99474632D01*
X119095000Y-99454435D01*
X118915745Y-99474632D01*
X118915742Y-99474632D01*
X118915742Y-99474633D01*
X118745477Y-99534211D01*
X118745474Y-99534212D01*
X118592739Y-99630182D01*
X118592737Y-99630183D01*
X118465183Y-99757737D01*
X118465182Y-99757739D01*
X118369212Y-99910474D01*
X118369211Y-99910477D01*
X118369211Y-99910478D01*
X118309632Y-100080745D01*
X118289435Y-100260000D01*
X117360565Y-100260000D01*
X117340368Y-100080745D01*
X117280789Y-99910478D01*
X117280787Y-99910475D01*
X117280787Y-99910474D01*
X117184817Y-99757739D01*
X117184816Y-99757737D01*
X117057262Y-99630183D01*
X117057260Y-99630182D01*
X116904525Y-99534212D01*
X116904522Y-99534211D01*
X116734255Y-99474632D01*
X116555000Y-99454435D01*
X116375745Y-99474632D01*
X116375742Y-99474632D01*
X116375742Y-99474633D01*
X116205477Y-99534211D01*
X116205474Y-99534212D01*
X116052739Y-99630182D01*
X116052737Y-99630183D01*
X115925183Y-99757737D01*
X115925182Y-99757739D01*
X115829212Y-99910474D01*
X115829211Y-99910477D01*
X115829211Y-99910478D01*
X115769632Y-100080745D01*
X115749435Y-100260000D01*
X102200500Y-100260000D01*
X102200500Y-98500000D01*
X111694750Y-98500000D01*
X111713670Y-98643709D01*
X111769137Y-98777624D01*
X111857378Y-98892621D01*
X111972375Y-98980862D01*
X112056821Y-99015839D01*
X112106291Y-99036330D01*
X112250000Y-99055250D01*
X112393709Y-99036330D01*
X112478155Y-99001351D01*
X112527624Y-98980862D01*
X112642618Y-98892623D01*
X112642617Y-98892623D01*
X112642621Y-98892621D01*
X112694666Y-98824793D01*
X112752002Y-98782929D01*
X112794627Y-98775500D01*
X113955373Y-98775500D01*
X114023494Y-98795502D01*
X114055331Y-98824792D01*
X114107379Y-98892621D01*
X114107381Y-98892623D01*
X114222375Y-98980862D01*
X114306821Y-99015839D01*
X114356291Y-99036330D01*
X114500000Y-99055250D01*
X114643709Y-99036330D01*
X114728155Y-99001351D01*
X114777624Y-98980862D01*
X114892621Y-98892621D01*
X114980862Y-98777624D01*
X115001351Y-98728155D01*
X115036330Y-98643709D01*
X115055250Y-98500000D01*
X115036330Y-98356291D01*
X115015839Y-98306821D01*
X114980862Y-98222375D01*
X114892621Y-98107378D01*
X114777624Y-98019137D01*
X114643709Y-97963670D01*
X114500000Y-97944750D01*
X114356290Y-97963670D01*
X114222375Y-98019137D01*
X114107381Y-98107376D01*
X114107379Y-98107379D01*
X114055333Y-98175206D01*
X113997998Y-98217071D01*
X113955373Y-98224500D01*
X112794627Y-98224500D01*
X112726506Y-98204498D01*
X112694668Y-98175207D01*
X112642621Y-98107379D01*
X112642619Y-98107377D01*
X112642618Y-98107376D01*
X112527624Y-98019137D01*
X112393709Y-97963670D01*
X112250000Y-97944750D01*
X112106290Y-97963670D01*
X111972375Y-98019137D01*
X111857378Y-98107378D01*
X111769137Y-98222375D01*
X111713670Y-98356290D01*
X111694750Y-98499999D01*
X111694750Y-98500000D01*
X102200500Y-98500000D01*
X102200500Y-86500000D01*
X113444750Y-86500000D01*
X113463670Y-86643709D01*
X113519137Y-86777624D01*
X113607378Y-86892621D01*
X113722375Y-86980862D01*
X113806821Y-87015839D01*
X113856291Y-87036330D01*
X114000000Y-87055250D01*
X114143709Y-87036330D01*
X114228155Y-87001351D01*
X114277624Y-86980862D01*
X114392621Y-86892621D01*
X114480862Y-86777624D01*
X114501351Y-86728155D01*
X114536330Y-86643709D01*
X114555250Y-86500000D01*
X114536330Y-86356291D01*
X114515839Y-86306821D01*
X114480862Y-86222375D01*
X114392621Y-86107378D01*
X114324796Y-86055334D01*
X114282929Y-85997996D01*
X114275500Y-85955372D01*
X114275500Y-84666305D01*
X114295502Y-84598184D01*
X114312400Y-84577215D01*
X117309699Y-81579915D01*
X117372009Y-81545891D01*
X117415234Y-81544090D01*
X117500000Y-81555250D01*
X117643709Y-81536330D01*
X117728155Y-81501351D01*
X117777624Y-81480862D01*
X117892621Y-81392621D01*
X117980862Y-81277624D01*
X118017031Y-81190301D01*
X118036330Y-81143709D01*
X118055250Y-81000000D01*
X118036330Y-80856291D01*
X118015839Y-80806821D01*
X117980862Y-80722375D01*
X117892621Y-80607378D01*
X117777624Y-80519137D01*
X117643709Y-80463670D01*
X117500000Y-80444750D01*
X117356290Y-80463670D01*
X117222375Y-80519137D01*
X117107378Y-80607378D01*
X117019137Y-80722375D01*
X116963670Y-80856290D01*
X116944750Y-80999999D01*
X116944750Y-81000002D01*
X116955908Y-81084761D01*
X116944968Y-81154909D01*
X116920081Y-81190301D01*
X113833152Y-84277230D01*
X113814065Y-84292896D01*
X113801375Y-84301375D01*
X113740485Y-84392503D01*
X113738674Y-84398472D01*
X113738064Y-84404676D01*
X113719103Y-84499999D01*
X113722079Y-84514960D01*
X113724500Y-84539542D01*
X113724500Y-85955372D01*
X113704498Y-86023493D01*
X113675204Y-86055334D01*
X113607378Y-86107378D01*
X113519137Y-86222375D01*
X113463670Y-86356290D01*
X113444750Y-86499999D01*
X113444750Y-86500000D01*
X102200500Y-86500000D01*
X102200500Y-80000000D01*
X106694750Y-80000000D01*
X106713670Y-80143709D01*
X106769137Y-80277624D01*
X106857378Y-80392621D01*
X106972375Y-80480862D01*
X107056821Y-80515839D01*
X107106291Y-80536330D01*
X107250000Y-80555250D01*
X107393709Y-80536330D01*
X107478155Y-80501351D01*
X107527624Y-80480862D01*
X107642618Y-80392623D01*
X107642617Y-80392623D01*
X107642621Y-80392621D01*
X107694666Y-80324793D01*
X107752002Y-80282929D01*
X107794627Y-80275500D01*
X107960457Y-80275500D01*
X107985038Y-80277921D01*
X107988587Y-80278626D01*
X108000000Y-80280897D01*
X108027132Y-80275500D01*
X108027133Y-80275500D01*
X108107495Y-80259515D01*
X108149465Y-80231471D01*
X108175622Y-80213994D01*
X108175622Y-80213993D01*
X108189266Y-80204877D01*
X108189268Y-80204874D01*
X108198624Y-80198624D01*
X108207100Y-80185938D01*
X108222765Y-80166849D01*
X110414614Y-77975000D01*
X123112274Y-77975000D01*
X123131128Y-78154376D01*
X123186858Y-78325896D01*
X123186860Y-78325901D01*
X123215420Y-78375369D01*
X123570140Y-78020649D01*
X123775000Y-78020649D01*
X123814613Y-78102905D01*
X123885992Y-78159827D01*
X123952468Y-78175000D01*
X123997532Y-78175000D01*
X124064008Y-78159827D01*
X124135387Y-78102905D01*
X124175000Y-78020649D01*
X124175000Y-77929351D01*
X124135387Y-77847095D01*
X124064008Y-77790173D01*
X123997532Y-77775000D01*
X123952468Y-77775000D01*
X123885992Y-77790173D01*
X123814613Y-77847095D01*
X123775000Y-77929351D01*
X123775000Y-78020649D01*
X123570140Y-78020649D01*
X123615790Y-77974999D01*
X123215420Y-77574629D01*
X123215419Y-77574630D01*
X123186864Y-77624091D01*
X123186858Y-77624102D01*
X123131128Y-77795623D01*
X123112274Y-77975000D01*
X110414614Y-77975000D01*
X110559699Y-77829915D01*
X110622009Y-77795891D01*
X110665234Y-77794090D01*
X110750000Y-77805250D01*
X110893709Y-77786330D01*
X110978155Y-77751351D01*
X111027624Y-77730862D01*
X111142621Y-77642621D01*
X111230862Y-77527624D01*
X111267031Y-77440301D01*
X111286330Y-77393709D01*
X111305250Y-77250000D01*
X111286330Y-77106291D01*
X111265839Y-77056821D01*
X111230862Y-76972375D01*
X111142621Y-76857378D01*
X111027624Y-76769137D01*
X110893709Y-76713670D01*
X110750000Y-76694750D01*
X110606290Y-76713670D01*
X110472375Y-76769137D01*
X110357378Y-76857378D01*
X110269137Y-76972375D01*
X110213670Y-77106290D01*
X110194750Y-77249999D01*
X110194750Y-77250002D01*
X110205908Y-77334761D01*
X110194968Y-77404909D01*
X110170081Y-77440301D01*
X107922789Y-79687595D01*
X107860477Y-79721620D01*
X107833694Y-79724500D01*
X107794627Y-79724500D01*
X107726506Y-79704498D01*
X107694668Y-79675207D01*
X107642621Y-79607379D01*
X107642619Y-79607377D01*
X107642618Y-79607376D01*
X107527624Y-79519137D01*
X107393709Y-79463670D01*
X107250000Y-79444750D01*
X107106290Y-79463670D01*
X106972375Y-79519137D01*
X106857378Y-79607378D01*
X106769137Y-79722375D01*
X106713670Y-79856290D01*
X106694750Y-79999999D01*
X106694750Y-80000000D01*
X102200500Y-80000000D01*
X102200500Y-73250000D01*
X106194750Y-73250000D01*
X106213670Y-73393709D01*
X106269137Y-73527624D01*
X106357378Y-73642621D01*
X106472375Y-73730862D01*
X106541159Y-73759352D01*
X106606291Y-73786330D01*
X106750000Y-73805250D01*
X106834762Y-73794090D01*
X106904907Y-73805029D01*
X106940301Y-73829917D01*
X107517441Y-74407057D01*
X107533109Y-74426147D01*
X107541588Y-74438836D01*
X107541589Y-74438837D01*
X107561683Y-74452263D01*
X107561699Y-74452275D01*
X107632719Y-74499729D01*
X107740212Y-74521110D01*
X107740212Y-74521109D01*
X107740213Y-74521110D01*
X107755176Y-74518133D01*
X107779755Y-74515713D01*
X109215160Y-74515713D01*
X109283281Y-74535715D01*
X109315118Y-74565005D01*
X109367166Y-74632834D01*
X109367168Y-74632836D01*
X109482162Y-74721075D01*
X109556714Y-74751954D01*
X109616078Y-74776543D01*
X109759787Y-74795463D01*
X109903496Y-74776543D01*
X109987942Y-74741564D01*
X110037411Y-74721075D01*
X110064167Y-74700544D01*
X110152408Y-74632834D01*
X110205368Y-74563814D01*
X110262705Y-74521948D01*
X110280616Y-74516966D01*
X110280716Y-74516946D01*
X110280850Y-74516933D01*
X110280848Y-74516921D01*
X110302849Y-74512544D01*
X110367282Y-74499728D01*
X110409252Y-74471684D01*
X110435409Y-74454207D01*
X110435409Y-74454206D01*
X110449053Y-74445090D01*
X110449055Y-74445087D01*
X110458411Y-74438837D01*
X110466890Y-74426147D01*
X110482552Y-74407062D01*
X113912088Y-70977527D01*
X113974398Y-70943503D01*
X114045214Y-70948568D01*
X114071179Y-70961856D01*
X114077355Y-70965983D01*
X114142503Y-71009514D01*
X114142505Y-71009515D01*
X114222867Y-71025500D01*
X114222869Y-71025500D01*
X114225161Y-71025956D01*
X114225169Y-71025957D01*
X114229220Y-71026762D01*
X114229448Y-71026809D01*
X114292248Y-71059926D01*
X114304417Y-71073601D01*
X114357378Y-71142621D01*
X114472375Y-71230862D01*
X114542830Y-71260044D01*
X114606291Y-71286330D01*
X114750000Y-71305250D01*
X114811475Y-71297156D01*
X114881622Y-71308095D01*
X114934721Y-71355222D01*
X114953912Y-71423576D01*
X114952843Y-71438524D01*
X114944750Y-71499998D01*
X114944750Y-71500000D01*
X114963670Y-71643709D01*
X115019137Y-71777624D01*
X115111542Y-71898047D01*
X115137143Y-71964267D01*
X115122878Y-72033816D01*
X115111543Y-72051455D01*
X115019136Y-72171881D01*
X114963670Y-72305793D01*
X114944750Y-72449502D01*
X114944750Y-72449503D01*
X114963670Y-72593212D01*
X115019137Y-72727127D01*
X115107378Y-72842124D01*
X115222375Y-72930365D01*
X115323800Y-72972375D01*
X115356291Y-72985833D01*
X115356294Y-72985833D01*
X115358214Y-72986348D01*
X115359939Y-72987344D01*
X115363920Y-72988993D01*
X115363702Y-72989517D01*
X115414700Y-73018960D01*
X117971643Y-75575903D01*
X117987309Y-75594991D01*
X117994399Y-75605601D01*
X118047463Y-75641057D01*
X118077259Y-75660966D01*
X118175000Y-75680408D01*
X118175001Y-75680408D01*
X118187504Y-75677921D01*
X118212085Y-75675500D01*
X123472261Y-75675500D01*
X123540382Y-75695502D01*
X123567486Y-75718988D01*
X123609511Y-75767488D01*
X123639004Y-75832069D01*
X123628899Y-75902343D01*
X123609511Y-75932512D01*
X123549623Y-76001626D01*
X123489835Y-76132543D01*
X123469353Y-76275000D01*
X123489835Y-76417456D01*
X123549623Y-76548373D01*
X123609511Y-76617488D01*
X123639004Y-76682069D01*
X123628899Y-76752343D01*
X123609511Y-76782512D01*
X123549623Y-76851626D01*
X123546996Y-76857379D01*
X123489835Y-76982543D01*
X123469353Y-77125000D01*
X123489835Y-77267457D01*
X123543294Y-77384515D01*
X123549623Y-77398373D01*
X123643873Y-77507144D01*
X123704409Y-77546048D01*
X123764947Y-77584953D01*
X123903039Y-77625500D01*
X124046961Y-77625500D01*
X124185053Y-77584953D01*
X124306128Y-77507143D01*
X124400377Y-77398373D01*
X124460165Y-77267457D01*
X124480647Y-77125000D01*
X124460165Y-76982543D01*
X124400377Y-76851627D01*
X124340488Y-76782510D01*
X124310996Y-76717932D01*
X124321099Y-76647658D01*
X124340486Y-76617490D01*
X124400377Y-76548373D01*
X124460165Y-76417457D01*
X124480647Y-76275000D01*
X124460165Y-76132543D01*
X124400377Y-76001627D01*
X124340488Y-75932510D01*
X124310996Y-75867932D01*
X124321099Y-75797658D01*
X124340486Y-75767490D01*
X124378262Y-75723894D01*
X124437988Y-75685512D01*
X124473486Y-75680408D01*
X124475000Y-75680408D01*
X124572741Y-75660966D01*
X124602536Y-75641057D01*
X124655601Y-75605601D01*
X124655603Y-75605597D01*
X124664375Y-75596826D01*
X124667227Y-75599678D01*
X124704327Y-75568666D01*
X124774769Y-75559810D01*
X124838816Y-75590444D01*
X124869241Y-75631846D01*
X124882539Y-75660965D01*
X124899623Y-75698373D01*
X124959511Y-75767488D01*
X124989004Y-75832069D01*
X124978899Y-75902343D01*
X124959511Y-75932512D01*
X124899623Y-76001626D01*
X124839835Y-76132543D01*
X124819353Y-76275000D01*
X124839835Y-76417456D01*
X124899623Y-76548373D01*
X124959511Y-76617488D01*
X124989004Y-76682069D01*
X124978899Y-76752343D01*
X124959511Y-76782512D01*
X124899623Y-76851626D01*
X124896996Y-76857379D01*
X124839835Y-76982543D01*
X124819353Y-77125000D01*
X124839835Y-77267457D01*
X124893294Y-77384515D01*
X124899623Y-77398373D01*
X124993873Y-77507144D01*
X125054409Y-77546048D01*
X125114947Y-77584953D01*
X125253039Y-77625500D01*
X125282520Y-77625500D01*
X125350641Y-77645502D01*
X125371615Y-77662405D01*
X125595115Y-77885905D01*
X125629141Y-77948217D01*
X125624076Y-78019032D01*
X125595115Y-78064096D01*
X125414095Y-78245115D01*
X125351783Y-78279140D01*
X125280967Y-78274075D01*
X125235905Y-78245114D01*
X125011440Y-78020649D01*
X125125000Y-78020649D01*
X125164613Y-78102905D01*
X125235992Y-78159827D01*
X125302468Y-78175000D01*
X125347532Y-78175000D01*
X125414008Y-78159827D01*
X125485387Y-78102905D01*
X125525000Y-78020649D01*
X125525000Y-77929351D01*
X125485387Y-77847095D01*
X125414008Y-77790173D01*
X125347532Y-77775000D01*
X125302468Y-77775000D01*
X125235992Y-77790173D01*
X125164613Y-77847095D01*
X125125000Y-77929351D01*
X125125000Y-78020649D01*
X125011440Y-78020649D01*
X124650001Y-77659210D01*
X124649999Y-77659210D01*
X123975000Y-78334210D01*
X123573687Y-78735522D01*
X123671198Y-78778936D01*
X123725294Y-78824916D01*
X123745944Y-78892843D01*
X123726592Y-78961151D01*
X123719914Y-78970745D01*
X123680467Y-79022153D01*
X123680463Y-79022160D01*
X123619955Y-79168239D01*
X123599318Y-79324999D01*
X123599318Y-79325000D01*
X123619955Y-79481760D01*
X123619956Y-79481762D01*
X123680464Y-79627841D01*
X123776718Y-79753282D01*
X123902159Y-79849536D01*
X124048238Y-79910044D01*
X124165639Y-79925500D01*
X124165646Y-79925500D01*
X125744354Y-79925500D01*
X125744361Y-79925500D01*
X125861762Y-79910044D01*
X126007841Y-79849536D01*
X126133282Y-79753282D01*
X126212689Y-79649795D01*
X126270027Y-79607929D01*
X126312652Y-79600500D01*
X127327348Y-79600500D01*
X127395469Y-79620502D01*
X127427309Y-79649794D01*
X127506718Y-79753282D01*
X127632159Y-79849536D01*
X127778238Y-79910044D01*
X127895639Y-79925500D01*
X127895646Y-79925500D01*
X128774354Y-79925500D01*
X128774361Y-79925500D01*
X128891762Y-79910044D01*
X129037841Y-79849536D01*
X129163282Y-79753282D01*
X129259536Y-79627841D01*
X129320044Y-79481762D01*
X129340682Y-79325000D01*
X129320044Y-79168238D01*
X129259536Y-79022159D01*
X129163282Y-78896718D01*
X129037841Y-78800464D01*
X128965198Y-78770374D01*
X128891760Y-78739955D01*
X128774363Y-78724500D01*
X128774361Y-78724500D01*
X127895639Y-78724500D01*
X127895636Y-78724500D01*
X127778239Y-78739955D01*
X127632160Y-78800463D01*
X127632157Y-78800465D01*
X127511768Y-78892843D01*
X127506718Y-78896718D01*
X127449916Y-78970745D01*
X127427311Y-79000204D01*
X127369973Y-79042071D01*
X127327348Y-79049500D01*
X126312652Y-79049500D01*
X126244531Y-79029498D01*
X126212689Y-79000204D01*
X126133282Y-78896718D01*
X126043350Y-78827711D01*
X126001484Y-78770374D01*
X125997262Y-78699503D01*
X126030958Y-78638656D01*
X126566849Y-78102765D01*
X126585938Y-78087100D01*
X126598624Y-78078624D01*
X126658444Y-77989097D01*
X126660714Y-77985922D01*
X126669707Y-77974135D01*
X126666295Y-77957748D01*
X126668307Y-77943295D01*
X126680897Y-77880000D01*
X126677921Y-77865037D01*
X126675500Y-77840457D01*
X126675500Y-72159542D01*
X126677921Y-72134960D01*
X126680897Y-72120000D01*
X126659516Y-72012506D01*
X126649968Y-71998217D01*
X126612062Y-71941486D01*
X126612050Y-71941470D01*
X126598623Y-71921375D01*
X126585934Y-71912896D01*
X126566844Y-71897228D01*
X126030961Y-71361345D01*
X125996935Y-71299033D01*
X126002000Y-71228218D01*
X126043351Y-71172288D01*
X126133282Y-71103282D01*
X126212689Y-70999795D01*
X126270027Y-70957929D01*
X126312652Y-70950500D01*
X127327348Y-70950500D01*
X127395469Y-70970502D01*
X127427309Y-70999794D01*
X127506718Y-71103282D01*
X127632159Y-71199536D01*
X127778238Y-71260044D01*
X127895639Y-71275500D01*
X127895646Y-71275500D01*
X128774354Y-71275500D01*
X128774361Y-71275500D01*
X128891762Y-71260044D01*
X129037841Y-71199536D01*
X129163282Y-71103282D01*
X129259536Y-70977841D01*
X129320044Y-70831762D01*
X129340682Y-70675000D01*
X129334390Y-70627211D01*
X129320044Y-70518239D01*
X129301047Y-70472375D01*
X129259536Y-70372159D01*
X129163282Y-70246718D01*
X129037841Y-70150464D01*
X129036719Y-70149999D01*
X128891760Y-70089955D01*
X128774363Y-70074500D01*
X128774361Y-70074500D01*
X127895639Y-70074500D01*
X127895636Y-70074500D01*
X127778239Y-70089955D01*
X127632160Y-70150463D01*
X127632157Y-70150465D01*
X127549787Y-70213670D01*
X127506718Y-70246718D01*
X127439507Y-70334310D01*
X127427311Y-70350204D01*
X127369973Y-70392071D01*
X127327348Y-70399500D01*
X126312652Y-70399500D01*
X126244531Y-70379498D01*
X126212689Y-70350204D01*
X126200494Y-70334311D01*
X126133282Y-70246718D01*
X126007841Y-70150464D01*
X126006719Y-70149999D01*
X125861760Y-70089955D01*
X125744363Y-70074500D01*
X125744361Y-70074500D01*
X124165639Y-70074500D01*
X124165636Y-70074500D01*
X124048239Y-70089955D01*
X123902160Y-70150463D01*
X123902157Y-70150465D01*
X123776718Y-70246718D01*
X123680465Y-70372157D01*
X123680463Y-70372160D01*
X123619955Y-70518239D01*
X123599318Y-70674999D01*
X123599318Y-70675000D01*
X123619955Y-70831760D01*
X123680463Y-70977839D01*
X123680468Y-70977847D01*
X123719912Y-71029251D01*
X123745513Y-71095471D01*
X123731248Y-71165020D01*
X123681647Y-71215816D01*
X123671199Y-71221062D01*
X123573687Y-71264477D01*
X124649999Y-72340789D01*
X124920139Y-72070649D01*
X125125000Y-72070649D01*
X125164613Y-72152905D01*
X125235992Y-72209827D01*
X125302468Y-72225000D01*
X125347532Y-72225000D01*
X125414008Y-72209827D01*
X125485387Y-72152905D01*
X125525000Y-72070649D01*
X125525000Y-71979351D01*
X125485387Y-71897095D01*
X125414008Y-71840173D01*
X125347532Y-71825000D01*
X125302468Y-71825000D01*
X125235992Y-71840173D01*
X125164613Y-71897095D01*
X125125000Y-71979351D01*
X125125000Y-72070649D01*
X124920139Y-72070649D01*
X125235904Y-71754885D01*
X125298217Y-71720860D01*
X125369032Y-71725924D01*
X125414095Y-71754885D01*
X125595115Y-71935905D01*
X125629141Y-71998217D01*
X125624076Y-72069032D01*
X125595115Y-72114095D01*
X125371615Y-72337595D01*
X125309303Y-72371621D01*
X125282520Y-72374500D01*
X125253039Y-72374500D01*
X125114946Y-72415047D01*
X124993873Y-72492855D01*
X124899623Y-72601626D01*
X124899623Y-72601627D01*
X124839835Y-72732543D01*
X124819353Y-72875000D01*
X124839835Y-73017457D01*
X124880404Y-73106290D01*
X124899623Y-73148373D01*
X124959511Y-73217488D01*
X124989004Y-73282069D01*
X124978899Y-73352343D01*
X124959511Y-73382512D01*
X124899623Y-73451626D01*
X124899623Y-73451627D01*
X124839835Y-73582543D01*
X124819353Y-73725000D01*
X124836978Y-73847589D01*
X124839835Y-73867456D01*
X124899623Y-73998373D01*
X124959511Y-74067488D01*
X124989004Y-74132069D01*
X124978899Y-74202343D01*
X124959511Y-74232512D01*
X124899623Y-74301626D01*
X124899623Y-74301627D01*
X124839835Y-74432543D01*
X124820790Y-74565009D01*
X124819353Y-74575001D01*
X124829406Y-74644930D01*
X124819301Y-74715204D01*
X124793783Y-74751954D01*
X124644565Y-74901172D01*
X124582253Y-74935198D01*
X124511438Y-74930133D01*
X124454602Y-74887586D01*
X124429791Y-74821066D01*
X124440856Y-74759736D01*
X124460165Y-74717457D01*
X124480647Y-74575000D01*
X124460165Y-74432543D01*
X124400377Y-74301627D01*
X124340488Y-74232510D01*
X124310996Y-74167932D01*
X124321099Y-74097658D01*
X124340486Y-74067490D01*
X124400377Y-73998373D01*
X124460165Y-73867457D01*
X124480647Y-73725000D01*
X124460165Y-73582543D01*
X124400377Y-73451627D01*
X124340488Y-73382510D01*
X124310996Y-73317932D01*
X124321099Y-73247658D01*
X124340486Y-73217490D01*
X124400377Y-73148373D01*
X124460165Y-73017457D01*
X124480647Y-72875000D01*
X124460165Y-72732543D01*
X124400377Y-72601627D01*
X124306128Y-72492857D01*
X124306127Y-72492856D01*
X124306126Y-72492855D01*
X124185053Y-72415047D01*
X124046961Y-72374500D01*
X123903039Y-72374500D01*
X123764946Y-72415047D01*
X123643873Y-72492855D01*
X123549623Y-72601626D01*
X123549623Y-72601627D01*
X123489835Y-72732543D01*
X123469353Y-72875000D01*
X123489835Y-73017457D01*
X123530404Y-73106290D01*
X123549623Y-73148373D01*
X123609511Y-73217488D01*
X123639004Y-73282069D01*
X123628899Y-73352343D01*
X123609511Y-73382512D01*
X123549623Y-73451626D01*
X123549621Y-73451629D01*
X123517244Y-73522524D01*
X123470751Y-73576180D01*
X123402630Y-73596181D01*
X123334509Y-73576178D01*
X123313536Y-73559276D01*
X121779260Y-72025000D01*
X123112274Y-72025000D01*
X123131128Y-72204376D01*
X123186858Y-72375896D01*
X123186860Y-72375901D01*
X123215420Y-72425369D01*
X123570140Y-72070649D01*
X123775000Y-72070649D01*
X123814613Y-72152905D01*
X123885992Y-72209827D01*
X123952468Y-72225000D01*
X123997532Y-72225000D01*
X124064008Y-72209827D01*
X124135387Y-72152905D01*
X124175000Y-72070649D01*
X124175000Y-71979351D01*
X124135387Y-71897095D01*
X124064008Y-71840173D01*
X123997532Y-71825000D01*
X123952468Y-71825000D01*
X123885992Y-71840173D01*
X123814613Y-71897095D01*
X123775000Y-71979351D01*
X123775000Y-72070649D01*
X123570140Y-72070649D01*
X123615790Y-72024999D01*
X123215420Y-71624629D01*
X123215419Y-71624630D01*
X123186864Y-71674091D01*
X123186858Y-71674102D01*
X123131128Y-71845623D01*
X123112274Y-72025000D01*
X121779260Y-72025000D01*
X121603357Y-71849097D01*
X121587686Y-71830003D01*
X121580600Y-71819398D01*
X121518082Y-71777625D01*
X121497742Y-71764035D01*
X121497743Y-71764035D01*
X121497741Y-71764034D01*
X121497738Y-71764033D01*
X121497737Y-71764033D01*
X121400000Y-71744592D01*
X121399999Y-71744592D01*
X121387496Y-71747079D01*
X121362915Y-71749500D01*
X118086286Y-71749500D01*
X118018165Y-71729498D01*
X117971672Y-71675842D01*
X117961568Y-71605568D01*
X117991062Y-71540988D01*
X118009578Y-71523540D01*
X118018704Y-71516538D01*
X118106944Y-71401542D01*
X118106943Y-71401542D01*
X118106945Y-71401541D01*
X118145650Y-71308095D01*
X118162413Y-71267626D01*
X118181333Y-71123917D01*
X118162413Y-70980208D01*
X118141922Y-70930738D01*
X118106945Y-70846292D01*
X118018704Y-70731295D01*
X117903707Y-70643054D01*
X117769792Y-70587587D01*
X117626083Y-70568667D01*
X117541323Y-70579826D01*
X117471174Y-70568887D01*
X117435781Y-70543999D01*
X117273239Y-70381457D01*
X117257568Y-70362362D01*
X117249094Y-70349680D01*
X117226094Y-70334311D01*
X117199431Y-70316496D01*
X117157966Y-70288789D01*
X117071467Y-70271583D01*
X117071463Y-70271582D01*
X117050472Y-70267407D01*
X117050470Y-70267407D01*
X117035508Y-70270383D01*
X117010927Y-70272804D01*
X116792434Y-70272804D01*
X116724313Y-70252802D01*
X116692475Y-70223511D01*
X116640428Y-70155683D01*
X116640426Y-70155682D01*
X116635400Y-70149131D01*
X116636457Y-70148319D01*
X116606511Y-70093479D01*
X116611576Y-70022664D01*
X116637642Y-69982106D01*
X116637593Y-69982069D01*
X116638045Y-69981478D01*
X116640542Y-69977595D01*
X116642616Y-69975520D01*
X116642621Y-69975517D01*
X116694666Y-69907689D01*
X116752002Y-69865825D01*
X116794627Y-69858396D01*
X120473555Y-69858396D01*
X120541676Y-69878398D01*
X120573517Y-69907692D01*
X120606903Y-69951202D01*
X120721900Y-70039443D01*
X120799262Y-70071486D01*
X120855816Y-70094911D01*
X120999525Y-70113831D01*
X121143234Y-70094911D01*
X121227680Y-70059932D01*
X121277149Y-70039443D01*
X121392146Y-69951202D01*
X121480387Y-69836205D01*
X121500876Y-69786736D01*
X121535855Y-69702290D01*
X121554775Y-69558581D01*
X121535855Y-69414872D01*
X121497959Y-69323381D01*
X121480387Y-69280956D01*
X121392146Y-69165959D01*
X121277150Y-69077719D01*
X121185746Y-69039859D01*
X121163963Y-69028216D01*
X121107493Y-68990484D01*
X121000000Y-68969103D01*
X120892506Y-68990484D01*
X120837582Y-69027182D01*
X120815803Y-69038823D01*
X120721903Y-69077718D01*
X120721893Y-69077724D01*
X120606906Y-69165957D01*
X120606904Y-69165960D01*
X120536200Y-69258101D01*
X120478865Y-69299967D01*
X120436240Y-69307396D01*
X116794627Y-69307396D01*
X116726506Y-69287394D01*
X116694668Y-69258103D01*
X116642621Y-69190275D01*
X116642619Y-69190273D01*
X116642618Y-69190272D01*
X116527624Y-69102033D01*
X116393709Y-69046566D01*
X116250000Y-69027646D01*
X116165240Y-69038805D01*
X116095091Y-69027866D01*
X116059698Y-69002978D01*
X115887405Y-68830685D01*
X115853379Y-68768373D01*
X115850500Y-68741590D01*
X115850500Y-64618950D01*
X115870502Y-64550829D01*
X115924158Y-64504336D01*
X115994432Y-64494232D01*
X116024711Y-64502539D01*
X116106291Y-64536330D01*
X116250000Y-64555250D01*
X116334762Y-64544090D01*
X116404907Y-64555029D01*
X116440301Y-64579917D01*
X118277228Y-66416844D01*
X118292896Y-66435933D01*
X118301376Y-66448624D01*
X118321470Y-66462050D01*
X118321486Y-66462062D01*
X118392506Y-66509516D01*
X118499999Y-66530897D01*
X118499999Y-66530896D01*
X118500000Y-66530897D01*
X118514963Y-66527920D01*
X118539542Y-66525500D01*
X126333694Y-66525500D01*
X126401815Y-66545502D01*
X126422789Y-66562405D01*
X130187595Y-70327211D01*
X130221621Y-70389523D01*
X130224500Y-70416306D01*
X130224500Y-107455372D01*
X130204498Y-107523493D01*
X130175204Y-107555334D01*
X130107378Y-107607378D01*
X130019137Y-107722375D01*
X129963670Y-107856290D01*
X129944750Y-107999999D01*
X129944750Y-108000000D01*
X129963670Y-108143709D01*
X130019137Y-108277624D01*
X130107378Y-108392621D01*
X130222375Y-108480862D01*
X130306821Y-108515839D01*
X130356291Y-108536330D01*
X130500000Y-108555250D01*
X130643709Y-108536330D01*
X130728155Y-108501351D01*
X130777624Y-108480862D01*
X130892621Y-108392621D01*
X130980862Y-108277624D01*
X131001351Y-108228155D01*
X131036330Y-108143709D01*
X131055250Y-108000000D01*
X131036330Y-107856291D01*
X131015839Y-107806821D01*
X130980862Y-107722375D01*
X130892621Y-107607378D01*
X130824796Y-107555334D01*
X130782929Y-107497996D01*
X130775500Y-107455372D01*
X130775500Y-70289542D01*
X130777921Y-70264960D01*
X130780897Y-70250000D01*
X130759515Y-70142505D01*
X130713994Y-70074378D01*
X130712062Y-70071486D01*
X130712050Y-70071470D01*
X130698624Y-70051376D01*
X130698623Y-70051375D01*
X130685934Y-70042896D01*
X130666844Y-70027228D01*
X126722769Y-66083153D01*
X126707098Y-66064058D01*
X126698624Y-66051375D01*
X126680772Y-66039447D01*
X126680771Y-66039446D01*
X126649466Y-66018529D01*
X126607494Y-65990484D01*
X126520997Y-65973279D01*
X126520993Y-65973278D01*
X126500002Y-65969103D01*
X126500000Y-65969103D01*
X126485038Y-65972079D01*
X126460457Y-65974500D01*
X118666306Y-65974500D01*
X118598185Y-65954498D01*
X118577211Y-65937595D01*
X116829917Y-64190301D01*
X116795891Y-64127989D01*
X116794090Y-64084764D01*
X116805250Y-64000000D01*
X116786330Y-63856291D01*
X116750896Y-63770744D01*
X116730862Y-63722375D01*
X116642621Y-63607378D01*
X116527624Y-63519137D01*
X116393709Y-63463670D01*
X116250000Y-63444750D01*
X116106290Y-63463670D01*
X116024717Y-63497458D01*
X115954127Y-63505047D01*
X115890640Y-63473267D01*
X115854414Y-63412208D01*
X115850500Y-63381049D01*
X115850500Y-62363810D01*
X115870502Y-62295689D01*
X115899791Y-62263852D01*
X115992621Y-62192621D01*
X116080861Y-62077625D01*
X116080860Y-62077625D01*
X116080862Y-62077624D01*
X116101351Y-62028155D01*
X116136330Y-61943709D01*
X116155250Y-61800000D01*
X116136330Y-61656291D01*
X116115839Y-61606821D01*
X116080862Y-61522375D01*
X115992621Y-61407378D01*
X115877624Y-61319137D01*
X115743709Y-61263670D01*
X115600000Y-61244750D01*
X115456290Y-61263670D01*
X115322375Y-61319137D01*
X115207378Y-61407378D01*
X115119137Y-61522375D01*
X115063670Y-61656290D01*
X115044750Y-61799999D01*
X115044750Y-61800000D01*
X115063670Y-61943709D01*
X115119137Y-62077624D01*
X115207376Y-62192618D01*
X115207377Y-62192619D01*
X115207379Y-62192621D01*
X115250205Y-62225482D01*
X115292071Y-62282819D01*
X115299500Y-62325444D01*
X115299500Y-68868353D01*
X115297079Y-68892933D01*
X115294103Y-68907895D01*
X115294103Y-68907898D01*
X115298278Y-68928889D01*
X115298279Y-68928893D01*
X115315485Y-69015392D01*
X115379632Y-69111393D01*
X115400848Y-69179146D01*
X115382066Y-69247613D01*
X115329249Y-69295057D01*
X115274868Y-69307396D01*
X114956647Y-69307396D01*
X114932066Y-69304975D01*
X114917104Y-69301999D01*
X114917101Y-69301999D01*
X114897566Y-69305884D01*
X114897545Y-69305889D01*
X114809611Y-69323380D01*
X114809608Y-69323381D01*
X114792746Y-69334649D01*
X114743175Y-69367770D01*
X114743169Y-69367774D01*
X114718479Y-69384272D01*
X114710002Y-69396958D01*
X114694337Y-69416045D01*
X113833153Y-70277230D01*
X113814065Y-70292896D01*
X113801375Y-70301375D01*
X113792896Y-70314065D01*
X113777230Y-70333152D01*
X110293000Y-73817382D01*
X110230688Y-73851408D01*
X110159873Y-73846343D01*
X110127201Y-73828250D01*
X110037408Y-73759349D01*
X109903496Y-73703883D01*
X109759787Y-73684963D01*
X109616077Y-73703883D01*
X109482162Y-73759350D01*
X109367168Y-73847589D01*
X109367166Y-73847592D01*
X109315120Y-73915419D01*
X109257785Y-73957284D01*
X109215160Y-73964713D01*
X107906519Y-73964713D01*
X107838398Y-73944711D01*
X107817424Y-73927808D01*
X107329917Y-73440301D01*
X107295891Y-73377989D01*
X107294090Y-73334764D01*
X107305250Y-73250000D01*
X107286330Y-73106291D01*
X107250157Y-73018960D01*
X107230862Y-72972375D01*
X107142621Y-72857378D01*
X107027624Y-72769137D01*
X106893709Y-72713670D01*
X106750000Y-72694750D01*
X106606290Y-72713670D01*
X106472375Y-72769137D01*
X106357378Y-72857378D01*
X106269137Y-72972375D01*
X106213670Y-73106290D01*
X106194750Y-73249999D01*
X106194750Y-73250000D01*
X102200500Y-73250000D01*
X102200500Y-70150002D01*
X103594103Y-70150002D01*
X103598278Y-70170993D01*
X103598279Y-70170997D01*
X103615484Y-70257492D01*
X103615485Y-70257495D01*
X103632683Y-70283233D01*
X103654908Y-70316496D01*
X103662068Y-70327211D01*
X103676375Y-70348623D01*
X103676375Y-70348624D01*
X103689058Y-70357098D01*
X103708153Y-70372769D01*
X103962595Y-70627211D01*
X103996621Y-70689523D01*
X103999500Y-70716306D01*
X103999500Y-72139820D01*
X104008232Y-72183721D01*
X104008234Y-72183725D01*
X104041495Y-72233504D01*
X104091274Y-72266765D01*
X104091278Y-72266767D01*
X104135180Y-72275500D01*
X104135185Y-72275500D01*
X105864815Y-72275500D01*
X105864820Y-72275500D01*
X105908722Y-72266767D01*
X105958504Y-72233504D01*
X105991767Y-72183722D01*
X106000500Y-72139820D01*
X106000500Y-70410180D01*
X105991767Y-70366278D01*
X105991765Y-70366274D01*
X105958504Y-70316495D01*
X105908725Y-70283234D01*
X105908721Y-70283232D01*
X105864820Y-70274500D01*
X104441306Y-70274500D01*
X104373185Y-70254498D01*
X104352211Y-70237595D01*
X104187405Y-70072789D01*
X104153379Y-70010477D01*
X104150500Y-69983694D01*
X104150500Y-69598527D01*
X104170502Y-69530406D01*
X104224158Y-69483913D01*
X104294432Y-69473809D01*
X104356431Y-69501126D01*
X104441462Y-69570910D01*
X104615273Y-69663814D01*
X104803868Y-69721024D01*
X104803872Y-69721024D01*
X104803874Y-69721025D01*
X104999997Y-69740341D01*
X105000000Y-69740341D01*
X105000003Y-69740341D01*
X105196124Y-69721025D01*
X105196126Y-69721025D01*
X105196127Y-69721024D01*
X105196132Y-69721024D01*
X105384727Y-69663814D01*
X105558538Y-69570910D01*
X105710883Y-69445883D01*
X105835910Y-69293538D01*
X105928814Y-69119727D01*
X105986024Y-68931132D01*
X105986245Y-68928889D01*
X106005341Y-68735003D01*
X106005341Y-68734996D01*
X105986025Y-68538875D01*
X105986025Y-68538873D01*
X105986024Y-68538870D01*
X105986024Y-68538868D01*
X105928814Y-68350273D01*
X105835910Y-68176462D01*
X105710883Y-68024117D01*
X105558538Y-67899090D01*
X105384728Y-67806186D01*
X105196125Y-67748974D01*
X105000003Y-67729659D01*
X104999997Y-67729659D01*
X104803875Y-67748974D01*
X104803873Y-67748974D01*
X104615271Y-67806186D01*
X104441461Y-67899090D01*
X104356434Y-67968871D01*
X104291087Y-67996625D01*
X104221108Y-67984643D01*
X104168716Y-67936731D01*
X104150500Y-67871472D01*
X104150500Y-64386556D01*
X109744500Y-64386556D01*
X109744502Y-64386580D01*
X109751067Y-64447661D01*
X109751068Y-64447666D01*
X109751069Y-64447667D01*
X109802621Y-64585883D01*
X109802622Y-64585884D01*
X109802623Y-64585887D01*
X109891023Y-64703976D01*
X110009112Y-64792376D01*
X110009113Y-64792376D01*
X110009117Y-64792379D01*
X110147333Y-64843931D01*
X110147336Y-64843931D01*
X110147338Y-64843932D01*
X110174703Y-64846873D01*
X110208435Y-64850500D01*
X111031564Y-64850499D01*
X111058519Y-64847601D01*
X111092661Y-64843932D01*
X111092662Y-64843931D01*
X111092667Y-64843931D01*
X111230883Y-64792379D01*
X111348976Y-64703976D01*
X111437379Y-64585883D01*
X111488931Y-64447667D01*
X111495499Y-64386580D01*
X111495499Y-64386576D01*
X111495499Y-64386574D01*
X111495500Y-64386565D01*
X111495499Y-63013436D01*
X111488931Y-62952333D01*
X111437379Y-62814117D01*
X111437376Y-62814113D01*
X111437376Y-62814112D01*
X111348976Y-62696023D01*
X111230887Y-62607623D01*
X111230884Y-62607622D01*
X111230883Y-62607621D01*
X111092667Y-62556069D01*
X111092666Y-62556068D01*
X111092661Y-62556067D01*
X111031576Y-62549500D01*
X111031565Y-62549500D01*
X111021500Y-62549500D01*
X110953379Y-62529498D01*
X110906886Y-62475842D01*
X110895500Y-62423500D01*
X110895500Y-56676499D01*
X110915502Y-56608378D01*
X110969158Y-56561885D01*
X111021500Y-56550499D01*
X111031557Y-56550499D01*
X111031564Y-56550499D01*
X111058519Y-56547601D01*
X111092661Y-56543932D01*
X111092662Y-56543931D01*
X111092667Y-56543931D01*
X111230883Y-56492379D01*
X111348976Y-56403976D01*
X111437379Y-56285883D01*
X111488931Y-56147667D01*
X111495499Y-56086580D01*
X111495499Y-56086576D01*
X111495499Y-56086574D01*
X111495500Y-56086565D01*
X111495499Y-54966304D01*
X111515501Y-54898184D01*
X111532395Y-54877219D01*
X113347213Y-53062402D01*
X113409523Y-53028379D01*
X113436306Y-53025500D01*
X117398887Y-53025500D01*
X117467008Y-53045502D01*
X117513501Y-53099158D01*
X117523605Y-53169432D01*
X117494111Y-53234012D01*
X117468890Y-53256263D01*
X117449718Y-53269074D01*
X117426071Y-53284874D01*
X117426065Y-53284878D01*
X117401375Y-53301376D01*
X117392896Y-53314065D01*
X117377230Y-53333152D01*
X113933152Y-56777230D01*
X113914065Y-56792896D01*
X113901376Y-56801375D01*
X113884667Y-56826379D01*
X113884655Y-56826399D01*
X113868552Y-56850500D01*
X113868338Y-56850821D01*
X113840485Y-56892503D01*
X113824500Y-56972866D01*
X113819485Y-56998080D01*
X113786579Y-57060990D01*
X113724884Y-57096122D01*
X113695906Y-57099500D01*
X113685179Y-57099500D01*
X113641278Y-57108232D01*
X113641276Y-57108233D01*
X113619999Y-57122450D01*
X113552246Y-57143663D01*
X113483779Y-57124878D01*
X113480001Y-57122450D01*
X113458723Y-57108233D01*
X113458721Y-57108232D01*
X113414820Y-57099500D01*
X112585180Y-57099500D01*
X112585179Y-57099500D01*
X112541278Y-57108232D01*
X112541274Y-57108234D01*
X112491495Y-57141495D01*
X112458234Y-57191274D01*
X112458232Y-57191278D01*
X112449500Y-57235179D01*
X112449500Y-58764820D01*
X112458232Y-58808721D01*
X112458234Y-58808725D01*
X112491495Y-58858504D01*
X112541274Y-58891765D01*
X112541278Y-58891767D01*
X112585180Y-58900500D01*
X112585185Y-58900500D01*
X113414815Y-58900500D01*
X113414820Y-58900500D01*
X113458722Y-58891767D01*
X113479998Y-58877551D01*
X113547751Y-58856336D01*
X113616218Y-58875119D01*
X113620002Y-58877551D01*
X113641278Y-58891767D01*
X113685180Y-58900500D01*
X113685185Y-58900500D01*
X114226465Y-58900500D01*
X114294586Y-58920502D01*
X114341079Y-58974158D01*
X114344521Y-58982470D01*
X114349552Y-58995960D01*
X114349553Y-58995961D01*
X114437095Y-59112904D01*
X114554034Y-59200444D01*
X114690906Y-59251494D01*
X114751402Y-59257999D01*
X114751415Y-59258000D01*
X114946000Y-59258000D01*
X115454000Y-59258000D01*
X115648585Y-59258000D01*
X115648597Y-59257999D01*
X115709093Y-59251494D01*
X115845963Y-59200444D01*
X115910605Y-59152053D01*
X115977125Y-59127241D01*
X116046499Y-59142331D01*
X116090880Y-59182916D01*
X116101376Y-59198624D01*
X116114058Y-59207098D01*
X116133153Y-59222769D01*
X118077228Y-61166844D01*
X118092896Y-61185934D01*
X118101375Y-61198623D01*
X118121470Y-61212050D01*
X118121486Y-61212062D01*
X118150534Y-61231471D01*
X118192505Y-61259515D01*
X118261781Y-61273294D01*
X118278934Y-61276707D01*
X118278937Y-61276707D01*
X118300000Y-61280897D01*
X118312126Y-61278484D01*
X118314962Y-61277921D01*
X118339543Y-61275500D01*
X123705373Y-61275500D01*
X123773494Y-61295502D01*
X123805331Y-61324792D01*
X123857379Y-61392621D01*
X123857381Y-61392623D01*
X123972375Y-61480862D01*
X124056821Y-61515839D01*
X124106291Y-61536330D01*
X124250000Y-61555250D01*
X124393709Y-61536330D01*
X124478155Y-61501351D01*
X124527624Y-61480862D01*
X124642621Y-61392621D01*
X124730862Y-61277624D01*
X124757218Y-61213992D01*
X124786330Y-61143709D01*
X124805250Y-61000000D01*
X124786330Y-60856291D01*
X124765839Y-60806821D01*
X124730862Y-60722375D01*
X124642621Y-60607378D01*
X124527624Y-60519137D01*
X124393709Y-60463670D01*
X124250000Y-60444750D01*
X124106290Y-60463670D01*
X123972375Y-60519137D01*
X123857381Y-60607376D01*
X123857379Y-60607379D01*
X123805333Y-60675206D01*
X123747998Y-60717071D01*
X123705373Y-60724500D01*
X118466306Y-60724500D01*
X118398185Y-60704498D01*
X118377211Y-60687595D01*
X116761272Y-59071656D01*
X116727246Y-59009344D01*
X116732311Y-58938529D01*
X116774858Y-58881693D01*
X116841378Y-58856882D01*
X116910752Y-58871973D01*
X116920366Y-58877794D01*
X116941278Y-58891767D01*
X116985180Y-58900500D01*
X116985185Y-58900500D01*
X117814815Y-58900500D01*
X117814820Y-58900500D01*
X117858722Y-58891767D01*
X117879998Y-58877551D01*
X117947751Y-58856336D01*
X118016218Y-58875119D01*
X118020002Y-58877551D01*
X118041278Y-58891767D01*
X118085180Y-58900500D01*
X118085185Y-58900500D01*
X118914815Y-58900500D01*
X118914820Y-58900500D01*
X118958722Y-58891767D01*
X118979998Y-58877551D01*
X119047751Y-58856336D01*
X119116218Y-58875119D01*
X119120002Y-58877551D01*
X119141278Y-58891767D01*
X119185180Y-58900500D01*
X119185185Y-58900500D01*
X120014815Y-58900500D01*
X120014820Y-58900500D01*
X120058722Y-58891767D01*
X120079998Y-58877551D01*
X120147751Y-58856336D01*
X120216218Y-58875119D01*
X120220002Y-58877551D01*
X120241278Y-58891767D01*
X120285180Y-58900500D01*
X120285185Y-58900500D01*
X121114815Y-58900500D01*
X121114820Y-58900500D01*
X121158722Y-58891767D01*
X121208504Y-58858504D01*
X121241767Y-58808722D01*
X121250500Y-58764820D01*
X121250500Y-57376500D01*
X121270502Y-57308379D01*
X121324158Y-57261886D01*
X121376500Y-57250500D01*
X121558694Y-57250500D01*
X121626815Y-57270502D01*
X121647789Y-57287405D01*
X123670082Y-59309698D01*
X123704108Y-59372010D01*
X123705909Y-59415240D01*
X123694750Y-59499999D01*
X123694750Y-59500000D01*
X123713670Y-59643709D01*
X123769137Y-59777624D01*
X123857378Y-59892621D01*
X123972375Y-59980862D01*
X124056821Y-60015839D01*
X124106291Y-60036330D01*
X124250000Y-60055250D01*
X124393709Y-60036330D01*
X124478155Y-60001351D01*
X124527624Y-59980862D01*
X124642621Y-59892621D01*
X124730862Y-59777624D01*
X124751351Y-59728155D01*
X124786330Y-59643709D01*
X124805250Y-59500000D01*
X124786330Y-59356291D01*
X124750231Y-59269139D01*
X124730862Y-59222375D01*
X124642621Y-59107378D01*
X124527624Y-59019137D01*
X124393709Y-58963670D01*
X124250000Y-58944750D01*
X124165240Y-58955909D01*
X124095091Y-58944970D01*
X124059698Y-58920082D01*
X123409961Y-58270345D01*
X123375935Y-58208033D01*
X123381000Y-58137218D01*
X123423547Y-58080382D01*
X123490067Y-58055571D01*
X123499056Y-58055250D01*
X123500000Y-58055250D01*
X123643709Y-58036330D01*
X123728155Y-58001351D01*
X123777624Y-57980862D01*
X123892621Y-57892621D01*
X123980862Y-57777624D01*
X124001351Y-57728155D01*
X124036330Y-57643709D01*
X124055250Y-57500000D01*
X124036330Y-57356291D01*
X123992511Y-57250500D01*
X123980862Y-57222375D01*
X123892621Y-57107378D01*
X123777624Y-57019137D01*
X123643709Y-56963670D01*
X123500000Y-56944750D01*
X123415240Y-56955909D01*
X123345091Y-56944970D01*
X123309698Y-56920082D01*
X122797769Y-56408153D01*
X122782098Y-56389058D01*
X122773624Y-56376376D01*
X122750622Y-56361006D01*
X122730416Y-56347505D01*
X122719910Y-56340485D01*
X122701202Y-56327985D01*
X122682496Y-56315485D01*
X122595997Y-56298279D01*
X122595993Y-56298278D01*
X122575002Y-56294103D01*
X122575000Y-56294103D01*
X122560038Y-56297079D01*
X122535457Y-56299500D01*
X118964542Y-56299500D01*
X118939962Y-56297079D01*
X118925000Y-56294103D01*
X118924999Y-56294103D01*
X118924997Y-56294103D01*
X118905462Y-56297988D01*
X118905441Y-56297993D01*
X118817503Y-56315485D01*
X118780090Y-56340485D01*
X118751071Y-56359874D01*
X118751065Y-56359878D01*
X118726375Y-56376376D01*
X118717896Y-56389065D01*
X118702230Y-56408152D01*
X118333152Y-56777230D01*
X118314065Y-56792896D01*
X118301376Y-56801375D01*
X118284667Y-56826379D01*
X118284655Y-56826399D01*
X118268552Y-56850500D01*
X118268338Y-56850821D01*
X118240485Y-56892503D01*
X118224500Y-56972866D01*
X118219485Y-56998080D01*
X118186579Y-57060990D01*
X118124884Y-57096122D01*
X118095906Y-57099500D01*
X118085179Y-57099500D01*
X118041278Y-57108232D01*
X118041276Y-57108233D01*
X118019999Y-57122450D01*
X117952246Y-57143663D01*
X117883779Y-57124878D01*
X117880001Y-57122450D01*
X117858723Y-57108233D01*
X117858721Y-57108232D01*
X117814815Y-57099499D01*
X117809831Y-57099008D01*
X117744002Y-57072418D01*
X117702998Y-57014459D01*
X117699839Y-56943533D01*
X117735526Y-56882158D01*
X117745482Y-56873661D01*
X117794124Y-56836337D01*
X117866512Y-56742000D01*
X117882365Y-56721340D01*
X117903800Y-56669590D01*
X117937833Y-56587425D01*
X117956753Y-56443716D01*
X117937833Y-56300007D01*
X117913395Y-56241007D01*
X117882365Y-56166091D01*
X117794124Y-56051094D01*
X117679127Y-55962853D01*
X117545212Y-55907386D01*
X117401503Y-55888466D01*
X117257793Y-55907386D01*
X117123878Y-55962853D01*
X117008881Y-56051094D01*
X116920640Y-56166091D01*
X116865173Y-56300006D01*
X116846253Y-56443715D01*
X116846253Y-56443716D01*
X116865173Y-56587425D01*
X116920640Y-56721340D01*
X117008881Y-56836337D01*
X117057362Y-56873538D01*
X117099230Y-56930876D01*
X117103451Y-57001747D01*
X117068686Y-57063650D01*
X117005974Y-57096931D01*
X116991298Y-57098420D01*
X116991345Y-57098893D01*
X116985179Y-57099500D01*
X116941278Y-57108232D01*
X116941276Y-57108233D01*
X116919999Y-57122450D01*
X116852246Y-57143663D01*
X116783779Y-57124878D01*
X116780001Y-57122450D01*
X116758723Y-57108233D01*
X116758721Y-57108232D01*
X116714820Y-57099500D01*
X116173535Y-57099500D01*
X116105414Y-57079498D01*
X116058921Y-57025842D01*
X116055479Y-57017530D01*
X116050447Y-57004039D01*
X116050446Y-57004038D01*
X115962904Y-56887095D01*
X115845965Y-56799555D01*
X115709093Y-56748505D01*
X115648597Y-56742000D01*
X115454000Y-56742000D01*
X115454000Y-59258000D01*
X114946000Y-59258000D01*
X114946000Y-56741999D01*
X114935903Y-56731902D01*
X114901877Y-56669590D01*
X114906942Y-56598775D01*
X114935901Y-56553714D01*
X117677211Y-53812405D01*
X117739523Y-53778379D01*
X117766306Y-53775500D01*
X124205373Y-53775500D01*
X124273494Y-53795502D01*
X124305331Y-53824792D01*
X124357379Y-53892621D01*
X124357381Y-53892623D01*
X124472375Y-53980862D01*
X124535700Y-54007091D01*
X124590981Y-54051638D01*
X124613403Y-54119001D01*
X124595846Y-54187793D01*
X124543884Y-54236172D01*
X124487483Y-54249500D01*
X123958443Y-54249500D01*
X123958419Y-54249502D01*
X123897338Y-54256067D01*
X123845714Y-54275322D01*
X123787237Y-54297133D01*
X123759112Y-54307623D01*
X123641023Y-54396023D01*
X123552623Y-54514112D01*
X123501067Y-54652338D01*
X123494500Y-54713423D01*
X123494500Y-56086556D01*
X123494502Y-56086580D01*
X123501067Y-56147661D01*
X123501068Y-56147666D01*
X123501069Y-56147667D01*
X123552621Y-56285883D01*
X123552622Y-56285884D01*
X123552623Y-56285887D01*
X123641023Y-56403976D01*
X123759112Y-56492376D01*
X123759113Y-56492376D01*
X123759117Y-56492379D01*
X123897333Y-56543931D01*
X123897336Y-56543931D01*
X123897338Y-56543932D01*
X123924703Y-56546873D01*
X123958435Y-56550500D01*
X124781564Y-56550499D01*
X124808519Y-56547601D01*
X124842661Y-56543932D01*
X124842662Y-56543931D01*
X124842667Y-56543931D01*
X124971936Y-56495715D01*
X125042749Y-56490651D01*
X125105058Y-56524674D01*
X125105061Y-56524677D01*
X125112595Y-56532211D01*
X125146621Y-56594523D01*
X125149500Y-56621306D01*
X125149500Y-62478692D01*
X125129498Y-62546813D01*
X125112595Y-62567787D01*
X125105060Y-62575322D01*
X125042748Y-62609348D01*
X124971933Y-62604283D01*
X124842662Y-62556067D01*
X124781568Y-62549500D01*
X123958443Y-62549500D01*
X123958419Y-62549502D01*
X123897338Y-62556067D01*
X123759112Y-62607623D01*
X123641023Y-62696023D01*
X123552623Y-62814112D01*
X123501067Y-62952338D01*
X123494500Y-63013423D01*
X123494500Y-64386556D01*
X123494502Y-64386580D01*
X123501067Y-64447661D01*
X123501068Y-64447666D01*
X123501069Y-64447667D01*
X123552621Y-64585883D01*
X123552622Y-64585884D01*
X123552623Y-64585887D01*
X123641023Y-64703976D01*
X123759112Y-64792376D01*
X123759113Y-64792376D01*
X123759117Y-64792379D01*
X123897333Y-64843931D01*
X123897336Y-64843931D01*
X123897338Y-64843932D01*
X123924703Y-64846873D01*
X123958435Y-64850500D01*
X124781564Y-64850499D01*
X124808519Y-64847601D01*
X124842661Y-64843932D01*
X124842662Y-64843931D01*
X124842667Y-64843931D01*
X124980883Y-64792379D01*
X125098976Y-64703976D01*
X125187379Y-64585883D01*
X125238931Y-64447667D01*
X125245499Y-64386580D01*
X125245499Y-64386576D01*
X125245499Y-64386574D01*
X125245500Y-64386565D01*
X125245499Y-63266306D01*
X125265501Y-63198186D01*
X125282404Y-63177212D01*
X125335905Y-63123711D01*
X125398217Y-63089685D01*
X125469032Y-63094750D01*
X125514095Y-63123711D01*
X125772722Y-63382338D01*
X125788390Y-63401428D01*
X125796869Y-63414117D01*
X125816964Y-63427544D01*
X125816980Y-63427556D01*
X125887998Y-63475008D01*
X125887999Y-63475009D01*
X125995494Y-63496391D01*
X126010456Y-63493415D01*
X126035037Y-63490994D01*
X126682705Y-63490994D01*
X126750826Y-63510996D01*
X126782663Y-63540286D01*
X126834711Y-63608115D01*
X126834713Y-63608117D01*
X126949707Y-63696356D01*
X127034153Y-63731333D01*
X127083623Y-63751824D01*
X127227332Y-63770744D01*
X127371041Y-63751824D01*
X127455487Y-63716845D01*
X127504956Y-63696356D01*
X127619953Y-63608115D01*
X127708194Y-63493118D01*
X127734550Y-63429486D01*
X127763662Y-63359203D01*
X127782582Y-63215494D01*
X127763662Y-63071785D01*
X127739496Y-63013443D01*
X127708194Y-62937869D01*
X127619953Y-62822872D01*
X127504956Y-62734631D01*
X127371041Y-62679164D01*
X127227332Y-62660244D01*
X127083622Y-62679164D01*
X126949707Y-62734631D01*
X126834713Y-62822870D01*
X126834711Y-62822873D01*
X126782665Y-62890700D01*
X126725330Y-62932565D01*
X126682705Y-62939994D01*
X126161800Y-62939994D01*
X126093679Y-62919992D01*
X126072705Y-62903089D01*
X125737405Y-62567789D01*
X125703379Y-62505477D01*
X125700500Y-62478694D01*
X125700500Y-56494542D01*
X125702921Y-56469960D01*
X125705897Y-56455000D01*
X125684515Y-56347505D01*
X125651429Y-56297988D01*
X125637062Y-56276486D01*
X125637050Y-56276470D01*
X125623623Y-56256375D01*
X125610934Y-56247896D01*
X125591844Y-56232228D01*
X125282404Y-55922788D01*
X125248378Y-55860476D01*
X125245499Y-55833693D01*
X125245499Y-54966306D01*
X125265501Y-54898185D01*
X125282398Y-54877216D01*
X125666854Y-54492760D01*
X125685938Y-54477100D01*
X125698624Y-54468624D01*
X125759515Y-54377495D01*
X125775500Y-54297133D01*
X125775500Y-54297132D01*
X125780897Y-54270000D01*
X125777921Y-54255037D01*
X125775500Y-54230457D01*
X125775500Y-53039537D01*
X125777921Y-53014955D01*
X125780896Y-53000000D01*
X125775500Y-52972871D01*
X125775500Y-52972867D01*
X125759515Y-52892505D01*
X125698624Y-52801376D01*
X125698537Y-52801318D01*
X125685934Y-52792896D01*
X125666844Y-52777228D01*
X125472769Y-52583153D01*
X125457098Y-52564058D01*
X125448624Y-52551375D01*
X125430772Y-52539447D01*
X125430771Y-52539446D01*
X125399466Y-52518529D01*
X125357494Y-52490484D01*
X125270997Y-52473279D01*
X125270993Y-52473278D01*
X125250002Y-52469103D01*
X125250000Y-52469103D01*
X125235038Y-52472079D01*
X125210457Y-52474500D01*
X113309543Y-52474500D01*
X113284962Y-52472079D01*
X113270000Y-52469103D01*
X113269997Y-52469103D01*
X113250462Y-52472988D01*
X113250441Y-52472993D01*
X113162504Y-52490485D01*
X113120534Y-52518528D01*
X113097611Y-52533845D01*
X113097606Y-52533848D01*
X113094378Y-52536006D01*
X113094376Y-52536007D01*
X113089228Y-52539447D01*
X113071375Y-52551376D01*
X113062896Y-52564065D01*
X113047230Y-52583152D01*
X111355060Y-54275322D01*
X111292748Y-54309348D01*
X111221933Y-54304283D01*
X111202763Y-54297133D01*
X111144286Y-54275322D01*
X111092662Y-54256067D01*
X111031568Y-54249500D01*
X110208443Y-54249500D01*
X110208419Y-54249502D01*
X110147338Y-54256067D01*
X110095714Y-54275322D01*
X110037237Y-54297133D01*
X110009112Y-54307623D01*
X109891023Y-54396023D01*
X109802623Y-54514112D01*
X109751067Y-54652338D01*
X109744500Y-54713423D01*
X109744500Y-56086556D01*
X109744502Y-56086580D01*
X109751067Y-56147661D01*
X109751068Y-56147666D01*
X109751069Y-56147667D01*
X109802621Y-56285883D01*
X109802622Y-56285884D01*
X109802623Y-56285887D01*
X109891023Y-56403976D01*
X110009112Y-56492376D01*
X110009113Y-56492376D01*
X110009117Y-56492379D01*
X110147333Y-56543931D01*
X110147336Y-56543931D01*
X110147338Y-56543932D01*
X110181900Y-56547647D01*
X110208435Y-56550500D01*
X110218494Y-56550499D01*
X110286613Y-56570496D01*
X110333110Y-56624148D01*
X110344500Y-56676499D01*
X110344500Y-62423500D01*
X110324498Y-62491621D01*
X110270842Y-62538114D01*
X110218509Y-62549500D01*
X110208433Y-62549500D01*
X110147338Y-62556067D01*
X110009112Y-62607623D01*
X109891023Y-62696023D01*
X109802623Y-62814112D01*
X109751067Y-62952338D01*
X109744500Y-63013423D01*
X109744500Y-64386556D01*
X104150500Y-64386556D01*
X104150500Y-61041306D01*
X104170502Y-60973185D01*
X104187405Y-60952211D01*
X104809698Y-60329918D01*
X104872010Y-60295892D01*
X104915240Y-60294091D01*
X104999999Y-60305250D01*
X104999999Y-60305249D01*
X105000000Y-60305250D01*
X105143709Y-60286330D01*
X105228155Y-60251351D01*
X105277624Y-60230862D01*
X105392621Y-60142621D01*
X105480862Y-60027624D01*
X105517031Y-59940301D01*
X105536330Y-59893709D01*
X105555250Y-59750000D01*
X105536330Y-59606291D01*
X105515839Y-59556821D01*
X105480862Y-59472375D01*
X105392621Y-59357378D01*
X105277624Y-59269137D01*
X105143709Y-59213670D01*
X105000000Y-59194750D01*
X104856290Y-59213670D01*
X104722375Y-59269137D01*
X104607378Y-59357378D01*
X104519137Y-59472375D01*
X104463670Y-59606290D01*
X104444750Y-59749999D01*
X104444750Y-59750002D01*
X104455908Y-59834761D01*
X104444968Y-59904909D01*
X104420081Y-59940301D01*
X103708152Y-60652230D01*
X103689065Y-60667896D01*
X103676375Y-60676375D01*
X103615485Y-60767503D01*
X103613674Y-60773472D01*
X103613064Y-60779676D01*
X103594103Y-60874999D01*
X103597079Y-60889960D01*
X103599500Y-60914542D01*
X103599500Y-70110457D01*
X103597079Y-70135037D01*
X103594103Y-70149999D01*
X103594103Y-70150002D01*
X102200500Y-70150002D01*
X102200500Y-52326500D01*
X102220502Y-52258379D01*
X102274158Y-52211886D01*
X102326500Y-52200500D01*
X131673500Y-52200500D01*
X131741621Y-52220502D01*
G37*
%TD.AperFunction*%
%TD*%
M02*
