%TF.GenerationSoftware,KiCad,Pcbnew,(6.0.8)*%
%TF.CreationDate,2022-10-28T22:44:31-04:00*%
%TF.ProjectId,Vex_Debug,5665785f-4465-4627-9567-2e6b69636164,rev?*%
%TF.SameCoordinates,Original*%
%TF.FileFunction,Paste,Top*%
%TF.FilePolarity,Positive*%
%FSLAX46Y46*%
G04 Gerber Fmt 4.6, Leading zero omitted, Abs format (unit mm)*
G04 Created by KiCad (PCBNEW (6.0.8)) date 2022-10-28 22:44:31*
%MOMM*%
%LPD*%
G01*
G04 APERTURE LIST*
G04 Aperture macros list*
%AMRoundRect*
0 Rectangle with rounded corners*
0 $1 Rounding radius*
0 $2 $3 $4 $5 $6 $7 $8 $9 X,Y pos of 4 corners*
0 Add a 4 corners polygon primitive as box body*
4,1,4,$2,$3,$4,$5,$6,$7,$8,$9,$2,$3,0*
0 Add four circle primitives for the rounded corners*
1,1,$1+$1,$2,$3*
1,1,$1+$1,$4,$5*
1,1,$1+$1,$6,$7*
1,1,$1+$1,$8,$9*
0 Add four rect primitives between the rounded corners*
20,1,$1+$1,$2,$3,$4,$5,0*
20,1,$1+$1,$4,$5,$6,$7,0*
20,1,$1+$1,$6,$7,$8,$9,0*
20,1,$1+$1,$8,$9,$2,$3,0*%
G04 Aperture macros list end*
%ADD10C,0.010000*%
%ADD11RoundRect,0.250000X-0.337500X-0.475000X0.337500X-0.475000X0.337500X0.475000X-0.337500X0.475000X0*%
%ADD12R,1.000000X1.000000*%
%ADD13RoundRect,0.250000X-0.350000X-0.450000X0.350000X-0.450000X0.350000X0.450000X-0.350000X0.450000X0*%
%ADD14RoundRect,0.250000X0.337500X0.475000X-0.337500X0.475000X-0.337500X-0.475000X0.337500X-0.475000X0*%
%ADD15R,0.800000X0.400000*%
%ADD16R,0.400000X0.800000*%
%ADD17R,1.450000X1.450000*%
%ADD18R,0.700000X0.700000*%
%ADD19RoundRect,0.250000X0.350000X0.450000X-0.350000X0.450000X-0.350000X-0.450000X0.350000X-0.450000X0*%
%ADD20RoundRect,0.250000X0.475000X-0.337500X0.475000X0.337500X-0.475000X0.337500X-0.475000X-0.337500X0*%
%ADD21R,1.800000X3.500000*%
%ADD22R,2.000000X1.500000*%
%ADD23R,2.000000X3.800000*%
%ADD24RoundRect,0.250000X-0.325000X-0.450000X0.325000X-0.450000X0.325000X0.450000X-0.325000X0.450000X0*%
%ADD25RoundRect,0.250000X0.325000X0.450000X-0.325000X0.450000X-0.325000X-0.450000X0.325000X-0.450000X0*%
%ADD26RoundRect,0.042000X-0.258000X0.943000X-0.258000X-0.943000X0.258000X-0.943000X0.258000X0.943000X0*%
%ADD27RoundRect,0.250000X0.450000X-0.350000X0.450000X0.350000X-0.450000X0.350000X-0.450000X-0.350000X0*%
G04 APERTURE END LIST*
%TO.C,U1*%
G36*
X130248915Y-66450000D02*
G01*
X128798915Y-66450000D01*
X128798915Y-65600000D01*
X129398915Y-65000000D01*
X130248915Y-65000000D01*
X130248915Y-66450000D01*
G37*
D10*
X130248915Y-66450000D02*
X128798915Y-66450000D01*
X128798915Y-65600000D01*
X129398915Y-65000000D01*
X130248915Y-65000000D01*
X130248915Y-66450000D01*
%TD*%
D11*
%TO.C,C5*%
X138862500Y-76500000D03*
X140937500Y-76500000D03*
%TD*%
D12*
%TO.C,D6*%
X134450000Y-76500000D03*
X136950000Y-76500000D03*
%TD*%
D13*
%TO.C,R4*%
X138900000Y-78600000D03*
X140900000Y-78600000D03*
%TD*%
D12*
%TO.C,D5*%
X121000000Y-91750000D03*
X121000000Y-94250000D03*
%TD*%
D11*
%TO.C,C1*%
X126962500Y-75200000D03*
X129037500Y-75200000D03*
%TD*%
D14*
%TO.C,C2*%
X123037500Y-68000000D03*
X120962500Y-68000000D03*
%TD*%
D15*
%TO.C,U1*%
X125598915Y-63700000D03*
X125598915Y-64500000D03*
X125598915Y-65300000D03*
X125598915Y-66100000D03*
X125598915Y-66900000D03*
X125598915Y-67700000D03*
X125598915Y-68500000D03*
X125598915Y-69300000D03*
X125598915Y-70100000D03*
X125598915Y-70900000D03*
X125598915Y-71700000D03*
D16*
X126698915Y-72600000D03*
X127498915Y-72600000D03*
X128298915Y-72600000D03*
X129098915Y-72600000D03*
X129898915Y-72600000D03*
X130698915Y-72600000D03*
X131498915Y-72600000D03*
X132298915Y-72600000D03*
X133098915Y-72600000D03*
X133898915Y-72600000D03*
X134698915Y-72600000D03*
X135498915Y-72600000D03*
X136298915Y-72600000D03*
D15*
X137398915Y-71700000D03*
X137398915Y-70900000D03*
X137398915Y-70100000D03*
X137398915Y-69300000D03*
X137398915Y-68500000D03*
X137398915Y-67700000D03*
X137398915Y-66900000D03*
X137398915Y-66100000D03*
X137398915Y-65300000D03*
X137398915Y-64500000D03*
X137398915Y-63700000D03*
D16*
X136298915Y-62800000D03*
X135498915Y-62800000D03*
X134698915Y-62800000D03*
X133898915Y-62800000D03*
X133098915Y-62800000D03*
X132298915Y-62800000D03*
X131498915Y-62800000D03*
X130698915Y-62800000D03*
X129898915Y-62800000D03*
X129098915Y-62800000D03*
X128298915Y-62800000D03*
X127498915Y-62800000D03*
X126698915Y-62800000D03*
D17*
X131498915Y-65725000D03*
X133473915Y-65725000D03*
X133473915Y-67700000D03*
X133473915Y-69675000D03*
X131498915Y-69675000D03*
X129523915Y-69675000D03*
X129523915Y-67700000D03*
X131498915Y-67700000D03*
D18*
X137448915Y-62750000D03*
X137448915Y-72650000D03*
X125548915Y-72650000D03*
X125548915Y-62750000D03*
%TD*%
D19*
%TO.C,R1*%
X131000000Y-96000000D03*
X129000000Y-96000000D03*
%TD*%
D13*
%TO.C,R7*%
X121000000Y-72000000D03*
X123000000Y-72000000D03*
%TD*%
D14*
%TO.C,C6*%
X123037500Y-74000000D03*
X120962500Y-74000000D03*
%TD*%
D20*
%TO.C,C3*%
X125000000Y-89037500D03*
X125000000Y-86962500D03*
%TD*%
D19*
%TO.C,R2*%
X142000000Y-94000000D03*
X140000000Y-94000000D03*
%TD*%
D13*
%TO.C,R5*%
X121000000Y-108958108D03*
X123000000Y-108958108D03*
%TD*%
D21*
%TO.C,D1*%
X141000000Y-103500000D03*
X141000000Y-98500000D03*
%TD*%
D22*
%TO.C,U2*%
X131150000Y-82300000D03*
D23*
X124850000Y-80000000D03*
D22*
X131150000Y-80000000D03*
X131150000Y-77700000D03*
%TD*%
D19*
%TO.C,R6*%
X142003127Y-108946353D03*
X140003127Y-108946353D03*
%TD*%
D24*
%TO.C,D3*%
X120975000Y-111000000D03*
X123025000Y-111000000D03*
%TD*%
D21*
%TO.C,D2*%
X122000000Y-98500000D03*
X122000000Y-103500000D03*
%TD*%
D25*
%TO.C,D4*%
X142025000Y-111000000D03*
X139975000Y-111000000D03*
%TD*%
D20*
%TO.C,C4*%
X124000000Y-94037500D03*
X124000000Y-91962500D03*
%TD*%
D26*
%TO.C,U3*%
X131905000Y-87525000D03*
X130635000Y-87525000D03*
X129365000Y-87525000D03*
X128095000Y-87525000D03*
X128095000Y-92475000D03*
X129365000Y-92475000D03*
X130635000Y-92475000D03*
X131905000Y-92475000D03*
%TD*%
D13*
%TO.C,R8*%
X121000000Y-70000000D03*
X123000000Y-70000000D03*
%TD*%
D27*
%TO.C,R3*%
X135000000Y-88000000D03*
X135000000Y-86000000D03*
%TD*%
M02*
