%TF.GenerationSoftware,KiCad,Pcbnew,(6.0.8)*%
%TF.CreationDate,2022-10-28T22:44:31-04:00*%
%TF.ProjectId,Vex_Debug,5665785f-4465-4627-9567-2e6b69636164,rev?*%
%TF.SameCoordinates,Original*%
%TF.FileFunction,Copper,L1,Top*%
%TF.FilePolarity,Positive*%
%FSLAX46Y46*%
G04 Gerber Fmt 4.6, Leading zero omitted, Abs format (unit mm)*
G04 Created by KiCad (PCBNEW (6.0.8)) date 2022-10-28 22:44:31*
%MOMM*%
%LPD*%
G01*
G04 APERTURE LIST*
G04 Aperture macros list*
%AMRoundRect*
0 Rectangle with rounded corners*
0 $1 Rounding radius*
0 $2 $3 $4 $5 $6 $7 $8 $9 X,Y pos of 4 corners*
0 Add a 4 corners polygon primitive as box body*
4,1,4,$2,$3,$4,$5,$6,$7,$8,$9,$2,$3,0*
0 Add four circle primitives for the rounded corners*
1,1,$1+$1,$2,$3*
1,1,$1+$1,$4,$5*
1,1,$1+$1,$6,$7*
1,1,$1+$1,$8,$9*
0 Add four rect primitives between the rounded corners*
20,1,$1+$1,$2,$3,$4,$5,0*
20,1,$1+$1,$4,$5,$6,$7,0*
20,1,$1+$1,$6,$7,$8,$9,0*
20,1,$1+$1,$8,$9,$2,$3,0*%
%AMFreePoly0*
4,1,22,0.500000,-0.750000,0.000000,-0.750000,0.000000,-0.745033,-0.079941,-0.743568,-0.215256,-0.701293,-0.333266,-0.622738,-0.424486,-0.514219,-0.481581,-0.384460,-0.499164,-0.250000,-0.500000,-0.250000,-0.500000,0.250000,-0.499164,0.250000,-0.499963,0.256109,-0.478152,0.396186,-0.417904,0.524511,-0.324060,0.630769,-0.204165,0.706417,-0.067858,0.745374,0.000000,0.744959,0.000000,0.750000,
0.500000,0.750000,0.500000,-0.750000,0.500000,-0.750000,$1*%
%AMFreePoly1*
4,1,20,0.000000,0.744959,0.073905,0.744508,0.209726,0.703889,0.328688,0.626782,0.421226,0.519385,0.479903,0.390333,0.500000,0.250000,0.500000,-0.250000,0.499851,-0.262216,0.476331,-0.402017,0.414519,-0.529596,0.319384,-0.634700,0.198574,-0.708877,0.061801,-0.746166,0.000000,-0.745033,0.000000,-0.750000,-0.500000,-0.750000,-0.500000,0.750000,0.000000,0.750000,0.000000,0.744959,
0.000000,0.744959,$1*%
%AMFreePoly2*
4,1,15,-0.124998,0.730000,0.725000,0.730000,0.728536,0.728536,0.730000,0.725000,0.730000,-0.725000,0.728536,-0.728536,0.725000,-0.730000,-0.725000,-0.730000,-0.728536,-0.728536,-0.730000,-0.725000,-0.730001,0.125000,-0.728536,0.128536,-0.128536,0.728536,-0.125000,0.730001,-0.124998,0.730000,-0.124998,0.730000,$1*%
G04 Aperture macros list end*
%TA.AperFunction,SMDPad,CuDef*%
%ADD10RoundRect,0.250000X-0.337500X-0.475000X0.337500X-0.475000X0.337500X0.475000X-0.337500X0.475000X0*%
%TD*%
%TA.AperFunction,SMDPad,CuDef*%
%ADD11R,1.000000X1.000000*%
%TD*%
%TA.AperFunction,SMDPad,CuDef*%
%ADD12RoundRect,0.250000X-0.350000X-0.450000X0.350000X-0.450000X0.350000X0.450000X-0.350000X0.450000X0*%
%TD*%
%TA.AperFunction,SMDPad,CuDef*%
%ADD13FreePoly0,270.000000*%
%TD*%
%TA.AperFunction,SMDPad,CuDef*%
%ADD14FreePoly1,270.000000*%
%TD*%
%TA.AperFunction,SMDPad,CuDef*%
%ADD15RoundRect,0.250000X0.337500X0.475000X-0.337500X0.475000X-0.337500X-0.475000X0.337500X-0.475000X0*%
%TD*%
%TA.AperFunction,SMDPad,CuDef*%
%ADD16R,0.800000X0.400000*%
%TD*%
%TA.AperFunction,SMDPad,CuDef*%
%ADD17R,0.400000X0.800000*%
%TD*%
%TA.AperFunction,SMDPad,CuDef*%
%ADD18FreePoly2,0.000000*%
%TD*%
%TA.AperFunction,SMDPad,CuDef*%
%ADD19R,1.450000X1.450000*%
%TD*%
%TA.AperFunction,SMDPad,CuDef*%
%ADD20R,0.700000X0.700000*%
%TD*%
%TA.AperFunction,SMDPad,CuDef*%
%ADD21C,1.500000*%
%TD*%
%TA.AperFunction,SMDPad,CuDef*%
%ADD22RoundRect,0.250000X0.350000X0.450000X-0.350000X0.450000X-0.350000X-0.450000X0.350000X-0.450000X0*%
%TD*%
%TA.AperFunction,SMDPad,CuDef*%
%ADD23FreePoly0,90.000000*%
%TD*%
%TA.AperFunction,SMDPad,CuDef*%
%ADD24FreePoly1,90.000000*%
%TD*%
%TA.AperFunction,SMDPad,CuDef*%
%ADD25RoundRect,0.250000X0.475000X-0.337500X0.475000X0.337500X-0.475000X0.337500X-0.475000X-0.337500X0*%
%TD*%
%TA.AperFunction,SMDPad,CuDef*%
%ADD26R,1.800000X3.500000*%
%TD*%
%TA.AperFunction,SMDPad,CuDef*%
%ADD27R,2.000000X1.500000*%
%TD*%
%TA.AperFunction,SMDPad,CuDef*%
%ADD28R,2.000000X3.800000*%
%TD*%
%TA.AperFunction,ComponentPad*%
%ADD29C,1.300000*%
%TD*%
%TA.AperFunction,SMDPad,CuDef*%
%ADD30RoundRect,0.250000X-0.325000X-0.450000X0.325000X-0.450000X0.325000X0.450000X-0.325000X0.450000X0*%
%TD*%
%TA.AperFunction,SMDPad,CuDef*%
%ADD31RoundRect,0.250000X0.325000X0.450000X-0.325000X0.450000X-0.325000X-0.450000X0.325000X-0.450000X0*%
%TD*%
%TA.AperFunction,ComponentPad*%
%ADD32C,0.700000*%
%TD*%
%TA.AperFunction,ComponentPad*%
%ADD33O,2.400000X0.900000*%
%TD*%
%TA.AperFunction,ComponentPad*%
%ADD34O,1.700000X0.900000*%
%TD*%
%TA.AperFunction,SMDPad,CuDef*%
%ADD35RoundRect,0.042000X-0.258000X0.943000X-0.258000X-0.943000X0.258000X-0.943000X0.258000X0.943000X0*%
%TD*%
%TA.AperFunction,SMDPad,CuDef*%
%ADD36RoundRect,0.250000X0.450000X-0.350000X0.450000X0.350000X-0.450000X0.350000X-0.450000X-0.350000X0*%
%TD*%
%TA.AperFunction,ViaPad*%
%ADD37C,0.800000*%
%TD*%
%TA.AperFunction,Conductor*%
%ADD38C,0.250000*%
%TD*%
%TA.AperFunction,Conductor*%
%ADD39C,0.200000*%
%TD*%
G04 APERTURE END LIST*
D10*
%TO.P,C5,1*%
%TO.N,Net-(C5-Pad1)*%
X138862500Y-76500000D03*
%TO.P,C5,2*%
%TO.N,GND*%
X140937500Y-76500000D03*
%TD*%
D11*
%TO.P,D6,1,K*%
%TO.N,Net-(D5-Pad1)*%
X134450000Y-76500000D03*
%TO.P,D6,2,A*%
%TO.N,Net-(C5-Pad1)*%
X136950000Y-76500000D03*
%TD*%
D12*
%TO.P,R4,1*%
%TO.N,Net-(J1-PadB5)*%
X138900000Y-78600000D03*
%TO.P,R4,2*%
%TO.N,GND*%
X140900000Y-78600000D03*
%TD*%
D11*
%TO.P,D5,1,K*%
%TO.N,Net-(D5-Pad1)*%
X121000000Y-91750000D03*
%TO.P,D5,2,A*%
%TO.N,Net-(C4-Pad1)*%
X121000000Y-94250000D03*
%TD*%
D10*
%TO.P,C1,1*%
%TO.N,+3.3V*%
X126962500Y-75200000D03*
%TO.P,C1,2*%
%TO.N,GND*%
X129037500Y-75200000D03*
%TD*%
D13*
%TO.P,JP1,1,A*%
%TO.N,GND*%
X122000000Y-63350000D03*
D14*
%TO.P,JP1,2,B*%
%TO.N,Net-(C6-Pad1)*%
X122000000Y-64650000D03*
%TD*%
D15*
%TO.P,C2,1*%
%TO.N,+3.3V*%
X123037500Y-68000000D03*
%TO.P,C2,2*%
%TO.N,GND*%
X120962500Y-68000000D03*
%TD*%
D16*
%TO.P,U1,1,GND*%
%TO.N,GND*%
X125598915Y-63700000D03*
%TO.P,U1,2,GND*%
X125598915Y-64500000D03*
%TO.P,U1,3,3V3*%
%TO.N,+3.3V*%
X125598915Y-65300000D03*
%TO.P,U1,4,NC*%
%TO.N,unconnected-(U1-Pad4)*%
X125598915Y-66100000D03*
%TO.P,U1,5,IO2*%
%TO.N,Net-(R8-Pad2)*%
X125598915Y-66900000D03*
%TO.P,U1,6,IO3*%
%TO.N,unconnected-(U1-Pad6)*%
X125598915Y-67700000D03*
%TO.P,U1,7,NC*%
%TO.N,unconnected-(U1-Pad7)*%
X125598915Y-68500000D03*
%TO.P,U1,8,EN*%
%TO.N,Net-(C6-Pad1)*%
X125598915Y-69300000D03*
%TO.P,U1,9,NC*%
%TO.N,unconnected-(U1-Pad9)*%
X125598915Y-70100000D03*
%TO.P,U1,10,NC*%
%TO.N,unconnected-(U1-Pad10)*%
X125598915Y-70900000D03*
%TO.P,U1,11,GND*%
%TO.N,GND*%
X125598915Y-71700000D03*
D17*
%TO.P,U1,12,IO0*%
%TO.N,unconnected-(U1-Pad12)*%
X126698915Y-72600000D03*
%TO.P,U1,13,IO1*%
%TO.N,unconnected-(U1-Pad13)*%
X127498915Y-72600000D03*
%TO.P,U1,14,GND*%
%TO.N,GND*%
X128298915Y-72600000D03*
%TO.P,U1,15,NC*%
%TO.N,unconnected-(U1-Pad15)*%
X129098915Y-72600000D03*
%TO.P,U1,16,IO10*%
%TO.N,/RS485_MODE*%
X129898915Y-72600000D03*
%TO.P,U1,17,NC*%
%TO.N,unconnected-(U1-Pad17)*%
X130698915Y-72600000D03*
%TO.P,U1,18,IO4*%
%TO.N,/STAT_LED*%
X131498915Y-72600000D03*
%TO.P,U1,19,IO5*%
%TO.N,unconnected-(U1-Pad19)*%
X132298915Y-72600000D03*
%TO.P,U1,20,IO6*%
%TO.N,/RS485_TX*%
X133098915Y-72600000D03*
%TO.P,U1,21,IO7*%
%TO.N,/RS485_RX*%
X133898915Y-72600000D03*
%TO.P,U1,22,IO8*%
%TO.N,unconnected-(U1-Pad22)*%
X134698915Y-72600000D03*
%TO.P,U1,23,IO9*%
%TO.N,Net-(JP2-Pad1)*%
X135498915Y-72600000D03*
%TO.P,U1,24,NC*%
%TO.N,unconnected-(U1-Pad24)*%
X136298915Y-72600000D03*
D16*
%TO.P,U1,25,NC*%
%TO.N,unconnected-(U1-Pad25)*%
X137398915Y-71700000D03*
%TO.P,U1,26,IO18*%
%TO.N,/USB_D-*%
X137398915Y-70900000D03*
%TO.P,U1,27,IO19*%
%TO.N,/USB_D+*%
X137398915Y-70100000D03*
%TO.P,U1,28,NC*%
%TO.N,unconnected-(U1-Pad28)*%
X137398915Y-69300000D03*
%TO.P,U1,29,NC*%
%TO.N,unconnected-(U1-Pad29)*%
X137398915Y-68500000D03*
%TO.P,U1,30,RXD0*%
%TO.N,unconnected-(U1-Pad30)*%
X137398915Y-67700000D03*
%TO.P,U1,31,TXD0*%
%TO.N,unconnected-(U1-Pad31)*%
X137398915Y-66900000D03*
%TO.P,U1,32,NC*%
%TO.N,unconnected-(U1-Pad32)*%
X137398915Y-66100000D03*
%TO.P,U1,33,NC*%
%TO.N,unconnected-(U1-Pad33)*%
X137398915Y-65300000D03*
%TO.P,U1,34,NC*%
%TO.N,unconnected-(U1-Pad34)*%
X137398915Y-64500000D03*
%TO.P,U1,35,NC*%
%TO.N,unconnected-(U1-Pad35)*%
X137398915Y-63700000D03*
D17*
%TO.P,U1,36,GND*%
%TO.N,GND*%
X136298915Y-62800000D03*
%TO.P,U1,37,GND*%
X135498915Y-62800000D03*
%TO.P,U1,38,GND*%
X134698915Y-62800000D03*
%TO.P,U1,39,GND*%
X133898915Y-62800000D03*
%TO.P,U1,40,GND*%
X133098915Y-62800000D03*
%TO.P,U1,41,GND*%
X132298915Y-62800000D03*
%TO.P,U1,42,GND*%
X131498915Y-62800000D03*
%TO.P,U1,43,GND*%
X130698915Y-62800000D03*
%TO.P,U1,44,GND*%
X129898915Y-62800000D03*
%TO.P,U1,45,GND*%
X129098915Y-62800000D03*
%TO.P,U1,46,GND*%
X128298915Y-62800000D03*
%TO.P,U1,47,GND*%
X127498915Y-62800000D03*
%TO.P,U1,48,GND*%
X126698915Y-62800000D03*
D18*
%TO.P,U1,49_1,GND*%
X129523915Y-65725000D03*
D19*
%TO.P,U1,49_2,GND*%
X131498915Y-65725000D03*
%TO.P,U1,49_3,GND*%
X133473915Y-65725000D03*
%TO.P,U1,49_4,GND*%
X133473915Y-67700000D03*
%TO.P,U1,49_5,GND*%
X133473915Y-69675000D03*
%TO.P,U1,49_6,GND*%
X131498915Y-69675000D03*
%TO.P,U1,49_7,GND*%
X129523915Y-69675000D03*
%TO.P,U1,49_8,GND*%
X129523915Y-67700000D03*
%TO.P,U1,49_9,GND*%
X131498915Y-67700000D03*
D20*
%TO.P,U1,50,GND*%
X137448915Y-62750000D03*
%TO.P,U1,51,GND*%
X137448915Y-72650000D03*
%TO.P,U1,52,GND*%
X125548915Y-72650000D03*
%TO.P,U1,53,GND*%
X125548915Y-62750000D03*
%TD*%
D21*
%TO.P,TP3,1,1*%
%TO.N,+3.3V*%
X122000000Y-87000000D03*
%TD*%
%TO.P,TP2,1,1*%
%TO.N,GND*%
X122000000Y-83000000D03*
%TD*%
D22*
%TO.P,R1,1*%
%TO.N,/RJ9_DB*%
X131000000Y-96000000D03*
%TO.P,R1,2*%
%TO.N,/RJ9_DA*%
X129000000Y-96000000D03*
%TD*%
D23*
%TO.P,JP2,1,A*%
%TO.N,Net-(JP2-Pad1)*%
X141528986Y-64650000D03*
D24*
%TO.P,JP2,2,B*%
%TO.N,GND*%
X141528986Y-63350000D03*
%TD*%
D12*
%TO.P,R7,1*%
%TO.N,+3.3V*%
X121000000Y-72000000D03*
%TO.P,R7,2*%
%TO.N,Net-(C6-Pad1)*%
X123000000Y-72000000D03*
%TD*%
D15*
%TO.P,C6,1*%
%TO.N,Net-(C6-Pad1)*%
X123037500Y-74000000D03*
%TO.P,C6,2*%
%TO.N,GND*%
X120962500Y-74000000D03*
%TD*%
D25*
%TO.P,C3,1*%
%TO.N,+3.3V*%
X125000000Y-89037500D03*
%TO.P,C3,2*%
%TO.N,GND*%
X125000000Y-86962500D03*
%TD*%
D22*
%TO.P,R2,1*%
%TO.N,Net-(J1-PadS1)*%
X142000000Y-94000000D03*
%TO.P,R2,2*%
%TO.N,GND*%
X140000000Y-94000000D03*
%TD*%
D12*
%TO.P,R5,1*%
%TO.N,Net-(D3-Pad1)*%
X121000000Y-108958108D03*
%TO.P,R5,2*%
%TO.N,GND*%
X123000000Y-108958108D03*
%TD*%
D26*
%TO.P,D1,1,A1*%
%TO.N,/RJ9_DB*%
X141000000Y-103500000D03*
%TO.P,D1,2,A2*%
%TO.N,GND*%
X141000000Y-98500000D03*
%TD*%
D27*
%TO.P,U2,1,GND*%
%TO.N,GND*%
X131150000Y-82300000D03*
D28*
%TO.P,U2,2,VO*%
%TO.N,+3.3V*%
X124850000Y-80000000D03*
D27*
X131150000Y-80000000D03*
%TO.P,U2,3,VI*%
%TO.N,Net-(D5-Pad1)*%
X131150000Y-77700000D03*
%TD*%
D21*
%TO.P,TP1,1,1*%
%TO.N,Net-(D5-Pad1)*%
X122000000Y-79000000D03*
%TD*%
D29*
%TO.P,CONN1,1,+12V*%
%TO.N,Net-(C4-Pad1)*%
X129595000Y-102800000D03*
%TO.P,CONN1,2,GND*%
%TO.N,GND*%
X130865000Y-100260000D03*
%TO.P,CONN1,3,DB*%
%TO.N,/RJ9_DB*%
X132135000Y-102800000D03*
%TO.P,CONN1,4,DA*%
%TO.N,/RJ9_DA*%
X133405000Y-100260000D03*
%TD*%
D22*
%TO.P,R6,1*%
%TO.N,Net-(D4-Pad1)*%
X142003127Y-108946353D03*
%TO.P,R6,2*%
%TO.N,GND*%
X140003127Y-108946353D03*
%TD*%
D30*
%TO.P,D3,1,K*%
%TO.N,Net-(D3-Pad1)*%
X120975000Y-111000000D03*
%TO.P,D3,2,A*%
%TO.N,+3.3V*%
X123025000Y-111000000D03*
%TD*%
D26*
%TO.P,D2,1,A1*%
%TO.N,/RJ9_DA*%
X122000000Y-98500000D03*
%TO.P,D2,2,A2*%
%TO.N,GND*%
X122000000Y-103500000D03*
%TD*%
D31*
%TO.P,D4,1,K*%
%TO.N,Net-(D4-Pad1)*%
X142025000Y-111000000D03*
%TO.P,D4,2,A*%
%TO.N,/STAT_LED*%
X139975000Y-111000000D03*
%TD*%
D32*
%TO.P,J1,A1,GND*%
%TO.N,GND*%
X138387870Y-88975000D03*
%TO.P,J1,A4,VBUS*%
%TO.N,Net-(C5-Pad1)*%
X138387870Y-88125000D03*
%TO.P,J1,A5,CC1*%
%TO.N,Net-(J1-PadA5)*%
X138387870Y-87275000D03*
%TO.P,J1,A6,D+*%
%TO.N,/USB_D+*%
X138387870Y-86425000D03*
%TO.P,J1,A7,D-*%
%TO.N,/USB_D-*%
X138387870Y-85575000D03*
%TO.P,J1,A8,SBU1*%
%TO.N,unconnected-(J1-PadA8)*%
X138387870Y-84725000D03*
%TO.P,J1,A9,VBUS*%
%TO.N,Net-(C5-Pad1)*%
X138387870Y-83875000D03*
%TO.P,J1,A12,GND*%
%TO.N,GND*%
X138387870Y-83025000D03*
%TO.P,J1,B1,GND*%
X139737870Y-83025000D03*
%TO.P,J1,B4,VBUS*%
%TO.N,Net-(C5-Pad1)*%
X139737870Y-83875000D03*
%TO.P,J1,B5,CC2*%
%TO.N,Net-(J1-PadB5)*%
X139737870Y-84725000D03*
%TO.P,J1,B6,D+*%
%TO.N,/USB_D+*%
X139737870Y-85575000D03*
%TO.P,J1,B7,D-*%
%TO.N,/USB_D-*%
X139737870Y-86425000D03*
%TO.P,J1,B8,SBU2*%
%TO.N,unconnected-(J1-PadB8)*%
X139737870Y-87275000D03*
%TO.P,J1,B9,VBUS*%
%TO.N,Net-(C5-Pad1)*%
X139737870Y-88125000D03*
%TO.P,J1,B12,GND*%
%TO.N,GND*%
X139737870Y-88975000D03*
D33*
%TO.P,J1,S1,SHIELD*%
%TO.N,Net-(J1-PadS1)*%
X139367870Y-90325000D03*
X139367870Y-81675000D03*
D34*
X142747870Y-90325000D03*
X142747870Y-81675000D03*
%TD*%
D25*
%TO.P,C4,1*%
%TO.N,Net-(C4-Pad1)*%
X124000000Y-94037500D03*
%TO.P,C4,2*%
%TO.N,GND*%
X124000000Y-91962500D03*
%TD*%
D35*
%TO.P,U3,1,RO*%
%TO.N,/RS485_RX*%
X131905000Y-87525000D03*
%TO.P,U3,2,RE\u002A*%
%TO.N,/RS485_MODE*%
X130635000Y-87525000D03*
%TO.P,U3,3,DE*%
X129365000Y-87525000D03*
%TO.P,U3,4,DI*%
%TO.N,/RS485_TX*%
X128095000Y-87525000D03*
%TO.P,U3,5,GND*%
%TO.N,GND*%
X128095000Y-92475000D03*
%TO.P,U3,6,A*%
%TO.N,/RJ9_DA*%
X129365000Y-92475000D03*
%TO.P,U3,7,B*%
%TO.N,/RJ9_DB*%
X130635000Y-92475000D03*
%TO.P,U3,8,VCC*%
%TO.N,+3.3V*%
X131905000Y-92475000D03*
%TD*%
D12*
%TO.P,R8,1*%
%TO.N,+3.3V*%
X121000000Y-70000000D03*
%TO.P,R8,2*%
%TO.N,Net-(R8-Pad2)*%
X123000000Y-70000000D03*
%TD*%
D36*
%TO.P,R3,1*%
%TO.N,Net-(J1-PadA5)*%
X135000000Y-88000000D03*
%TO.P,R3,2*%
%TO.N,GND*%
X135000000Y-86000000D03*
%TD*%
D37*
%TO.N,GND*%
X139800000Y-63300000D03*
X135800000Y-90100000D03*
X140000000Y-92200000D03*
X137299500Y-80000000D03*
X122000000Y-81200000D03*
X130500000Y-68700000D03*
X142300500Y-77600000D03*
X124400000Y-109000000D03*
X130400000Y-66700000D03*
X124500000Y-103500000D03*
X126200000Y-92000000D03*
X132500000Y-68700000D03*
X130400000Y-74700000D03*
X137500000Y-73900000D03*
X138600000Y-108900000D03*
X138400000Y-98500000D03*
X121000000Y-75500000D03*
X120300000Y-64500000D03*
X132500000Y-66700000D03*
X135000000Y-84600000D03*
X125000000Y-85400000D03*
X130200000Y-84000000D03*
%TO.N,/STAT_LED*%
X133300000Y-74700000D03*
X143500000Y-93800000D03*
%TO.N,/USB_D+*%
X141599500Y-85657731D03*
%TO.N,Net-(J1-PadB5)*%
X139100000Y-80100000D03*
%TO.N,Net-(JP2-Pad1)*%
X135500000Y-71200000D03*
X139500000Y-65200000D03*
%TO.N,/RS485_MODE*%
X131400000Y-74700000D03*
X133100000Y-84200000D03*
%TD*%
D38*
%TO.N,+3.3V*%
X125598915Y-65300000D02*
X124300000Y-65300000D01*
%TO.N,GND*%
X129523915Y-69675000D02*
X129525000Y-69675000D01*
X138387870Y-88975000D02*
X136925000Y-88975000D01*
X125598915Y-71700000D02*
X126498915Y-71700000D01*
X129523915Y-65823915D02*
X130400000Y-66700000D01*
X125548915Y-64450000D02*
X125598915Y-64500000D01*
X120300000Y-64500000D02*
X121450000Y-63350000D01*
X124358108Y-108958108D02*
X124400000Y-109000000D01*
X139850000Y-63350000D02*
X139800000Y-63300000D01*
X126162500Y-91962500D02*
X124000000Y-91962500D01*
X138387870Y-83025000D02*
X139737870Y-83025000D01*
X133473915Y-69675000D02*
X133473915Y-69673915D01*
X138387870Y-88975000D02*
X139737870Y-88975000D01*
X142300500Y-77600000D02*
X142037500Y-77600000D01*
X138646353Y-108946353D02*
X140003127Y-108946353D01*
X137299500Y-80000000D02*
X137299500Y-81936630D01*
X137448915Y-73848915D02*
X137500000Y-73900000D01*
X137299500Y-81936630D02*
X138387870Y-83025000D01*
X133473915Y-69673915D02*
X132500000Y-68700000D01*
X138600000Y-108900000D02*
X138646353Y-108946353D01*
X129525000Y-69675000D02*
X130500000Y-68700000D01*
X137448915Y-72650000D02*
X137448915Y-73848915D01*
X120962500Y-74000000D02*
X120962500Y-75462500D01*
X136925000Y-88975000D02*
X135800000Y-90100000D01*
X125548915Y-62750000D02*
X126548915Y-62750000D01*
X141528986Y-63350000D02*
X139850000Y-63350000D01*
X128298915Y-72600000D02*
X128298915Y-74461415D01*
X130225000Y-69675000D02*
X131498915Y-69675000D01*
X125548915Y-62750000D02*
X125548915Y-64450000D01*
X123000000Y-108958108D02*
X124358108Y-108958108D01*
X120962500Y-75462500D02*
X121000000Y-75500000D01*
X129900000Y-75200000D02*
X129037500Y-75200000D01*
X128298915Y-74461415D02*
X129037500Y-75200000D01*
X133473915Y-65726085D02*
X132500000Y-66700000D01*
X136448915Y-62750000D02*
X133473915Y-65725000D01*
X141000000Y-98500000D02*
X138400000Y-98500000D01*
X129523915Y-65725000D02*
X129523915Y-65823915D01*
X131150000Y-82300000D02*
X131150000Y-82850000D01*
X128095000Y-92000000D02*
X128095000Y-92475000D01*
X120300000Y-64500000D02*
X120300000Y-67337500D01*
X128298915Y-72600000D02*
X128298915Y-70900001D01*
X141900000Y-77600000D02*
X140900000Y-78600000D01*
X142037500Y-77600000D02*
X140937500Y-76500000D01*
X137448915Y-62750000D02*
X136448915Y-62750000D01*
X126548915Y-62750000D02*
X129523915Y-65725000D01*
X140000000Y-94000000D02*
X140000000Y-92200000D01*
X126498915Y-71700000D02*
X125548915Y-72650000D01*
X126200000Y-92000000D02*
X128095000Y-92000000D01*
X121450000Y-63350000D02*
X122000000Y-63350000D01*
X131150000Y-83050000D02*
X130200000Y-84000000D01*
X128749458Y-70449458D02*
X129523915Y-69675000D01*
X135000000Y-86000000D02*
X135000000Y-84600000D01*
X133473915Y-65725000D02*
X133473915Y-65726085D01*
X126200000Y-92000000D02*
X126162500Y-91962500D01*
X122000000Y-103500000D02*
X124500000Y-103500000D01*
X122000000Y-83000000D02*
X122000000Y-81200000D01*
X125548915Y-62750000D02*
X137448915Y-62750000D01*
X142300500Y-77600000D02*
X141900000Y-77600000D01*
X126498915Y-71700000D02*
X127498915Y-71700000D01*
X128298915Y-70900001D02*
X128749458Y-70449458D01*
X131150000Y-82300000D02*
X131150000Y-83050000D01*
X127498915Y-71700000D02*
X128749458Y-70449458D01*
X130400000Y-74700000D02*
X129900000Y-75200000D01*
X120300000Y-67337500D02*
X120962500Y-68000000D01*
X125000000Y-86962500D02*
X125000000Y-85400000D01*
%TO.N,Net-(C4-Pad1)*%
X127795000Y-101000000D02*
X120900000Y-101000000D01*
X121000000Y-95500000D02*
X121000000Y-94250000D01*
X123787500Y-94250000D02*
X124000000Y-94037500D01*
X120900000Y-101000000D02*
X119800000Y-99900000D01*
X129595000Y-102800000D02*
X127795000Y-101000000D01*
X119800000Y-96700000D02*
X121000000Y-95500000D01*
X119800000Y-99900000D02*
X119800000Y-96700000D01*
X121000000Y-94250000D02*
X123787500Y-94250000D01*
%TO.N,Net-(C5-Pad1)*%
X137075000Y-83875000D02*
X138387870Y-83875000D01*
X139737870Y-83875000D02*
X138387870Y-83875000D01*
X138387870Y-88125000D02*
X139737870Y-88125000D01*
X136575000Y-83375000D02*
X137075000Y-83875000D01*
X136575000Y-78787500D02*
X136575000Y-83375000D01*
X138862500Y-76500000D02*
X136950000Y-76500000D01*
X138862500Y-76500000D02*
X136575000Y-78787500D01*
%TO.N,Net-(C6-Pad1)*%
X122075000Y-64725000D02*
X122000000Y-64650000D01*
X123000000Y-71600000D02*
X123575000Y-71025000D01*
X123000000Y-72000000D02*
X123000000Y-71600000D01*
X123000000Y-72000000D02*
X122075000Y-71075000D01*
X123925000Y-70675000D02*
X125300000Y-69300000D01*
X122075000Y-71075000D02*
X122075000Y-64725000D01*
X123925000Y-70688173D02*
X123925000Y-70675000D01*
X123000000Y-72000000D02*
X123000000Y-73962500D01*
X125300000Y-69300000D02*
X125598915Y-69300000D01*
X123000000Y-73962500D02*
X123037500Y-74000000D01*
X123588173Y-71025000D02*
X123925000Y-70688173D01*
X123575000Y-71025000D02*
X123588173Y-71025000D01*
%TO.N,/RJ9_DB*%
X134380000Y-99380000D02*
X133750000Y-98750000D01*
X133750000Y-98750000D02*
X131000000Y-96000000D01*
X131000000Y-96000000D02*
X130700000Y-95700000D01*
X133054238Y-102800000D02*
X134380000Y-101474238D01*
X132135000Y-102800000D02*
X133054238Y-102800000D01*
X138500000Y-103500000D02*
X133750000Y-98750000D01*
X130700000Y-92540000D02*
X130635000Y-92475000D01*
X130700000Y-95700000D02*
X130700000Y-92540000D01*
X141000000Y-103500000D02*
X138500000Y-103500000D01*
X134380000Y-101474238D02*
X134380000Y-99380000D01*
%TO.N,/RJ9_DA*%
X126500000Y-98500000D02*
X129000000Y-96000000D01*
X129400000Y-95600000D02*
X129400000Y-92510000D01*
X129000000Y-96000000D02*
X129400000Y-95600000D01*
X129400000Y-92510000D02*
X129365000Y-92475000D01*
X122000000Y-98500000D02*
X126500000Y-98500000D01*
X129145000Y-96000000D02*
X129000000Y-96000000D01*
X133405000Y-100260000D02*
X129145000Y-96000000D01*
%TO.N,Net-(D3-Pad1)*%
X121000000Y-110975000D02*
X120975000Y-111000000D01*
X121000000Y-108958108D02*
X121000000Y-110975000D01*
%TO.N,Net-(D4-Pad1)*%
X142003127Y-110978127D02*
X142025000Y-111000000D01*
X142003127Y-108946353D02*
X142003127Y-110978127D01*
%TO.N,/STAT_LED*%
X143500000Y-93800000D02*
X143500000Y-105836307D01*
X131498915Y-72898915D02*
X133300000Y-74700000D01*
X140928127Y-108408180D02*
X140928127Y-110046873D01*
X131498915Y-72600000D02*
X131498915Y-72898915D01*
X140928127Y-110046873D02*
X139975000Y-111000000D01*
X143500000Y-105836307D02*
X140928127Y-108408180D01*
%TO.N,Net-(D5-Pad1)*%
X131150000Y-77700000D02*
X123300000Y-77700000D01*
X123300000Y-77700000D02*
X122000000Y-79000000D01*
X120500000Y-80500000D02*
X120500000Y-91250000D01*
X122000000Y-79000000D02*
X120500000Y-80500000D01*
X132350000Y-76500000D02*
X131150000Y-77700000D01*
X134450000Y-76500000D02*
X132350000Y-76500000D01*
X120500000Y-91250000D02*
X121000000Y-91750000D01*
%TO.N,Net-(J1-PadA5)*%
X137325000Y-87275000D02*
X138387870Y-87275000D01*
X136600000Y-88000000D02*
X137325000Y-87275000D01*
X135000000Y-88000000D02*
X136600000Y-88000000D01*
D39*
%TO.N,/USB_D+*%
X143400000Y-75800000D02*
X137700000Y-70100000D01*
X137700000Y-70100000D02*
X137398915Y-70100000D01*
X141599500Y-85657731D02*
X141300000Y-85358231D01*
X143400000Y-79500000D02*
X143400000Y-75800000D01*
X141300000Y-85358231D02*
X141300000Y-81600000D01*
X141300000Y-81600000D02*
X143400000Y-79500000D01*
%TO.N,/USB_D-*%
X139525000Y-86425000D02*
X138700000Y-85600000D01*
X140232844Y-86425000D02*
X140900000Y-85757844D01*
X139737870Y-86425000D02*
X140232844Y-86425000D01*
X140900000Y-85757844D02*
X140900000Y-81434314D01*
X139737870Y-86425000D02*
X139525000Y-86425000D01*
X137700000Y-70900000D02*
X137398915Y-70900000D01*
X140900000Y-81434314D02*
X143000000Y-79334314D01*
X143000000Y-76200000D02*
X137700000Y-70900000D01*
X143000000Y-79334314D02*
X143000000Y-76200000D01*
D38*
%TO.N,Net-(J1-PadB5)*%
X139100000Y-80100000D02*
X139100000Y-78800000D01*
X139100000Y-78800000D02*
X138900000Y-78600000D01*
%TO.N,Net-(J1-PadS1)*%
X142747870Y-93252130D02*
X142000000Y-94000000D01*
X142747870Y-90325000D02*
X142747870Y-93252130D01*
X142747870Y-81675000D02*
X142747870Y-90325000D01*
X142747870Y-90325000D02*
X139367870Y-90325000D01*
%TO.N,Net-(JP2-Pad1)*%
X140050000Y-64650000D02*
X139500000Y-65200000D01*
X141528986Y-64650000D02*
X140050000Y-64650000D01*
X135500000Y-72598915D02*
X135498915Y-72600000D01*
X135500000Y-71200000D02*
X135500000Y-72598915D01*
%TO.N,Net-(R8-Pad2)*%
X124000000Y-69000000D02*
X123000000Y-70000000D01*
X125300000Y-66900000D02*
X124000000Y-68200000D01*
X125598915Y-66900000D02*
X125300000Y-66900000D01*
X124000000Y-68200000D02*
X124000000Y-69000000D01*
%TO.N,/RS485_MODE*%
X131400000Y-74700000D02*
X131400000Y-74551085D01*
X129898915Y-73050000D02*
X129898915Y-72600000D01*
X133100000Y-84200000D02*
X130635000Y-86665000D01*
X129365000Y-87525000D02*
X130635000Y-87525000D01*
X131400000Y-74551085D02*
X129898915Y-73050000D01*
X130635000Y-86665000D02*
X130635000Y-87525000D01*
%TO.N,/RS485_TX*%
X128685000Y-86215000D02*
X128095000Y-86805000D01*
X130035000Y-86215000D02*
X128685000Y-86215000D01*
X133525000Y-81138604D02*
X133525000Y-82725000D01*
X133098915Y-72600000D02*
X133098915Y-72898915D01*
X135500000Y-79163604D02*
X133525000Y-81138604D01*
X133525000Y-82725000D02*
X130035000Y-86215000D01*
X128095000Y-86805000D02*
X128095000Y-87525000D01*
X135500000Y-75300000D02*
X135500000Y-79163604D01*
X133098915Y-72898915D02*
X135500000Y-75300000D01*
%TO.N,/RS485_RX*%
X133898915Y-72898915D02*
X135950000Y-74950000D01*
X133975000Y-84725000D02*
X131905000Y-86795000D01*
X133898915Y-72600000D02*
X133898915Y-72898915D01*
X135950000Y-74950000D02*
X135950000Y-79350000D01*
X133975000Y-81325000D02*
X133975000Y-84725000D01*
X131905000Y-86795000D02*
X131905000Y-87525000D01*
X135950000Y-79350000D02*
X133975000Y-81325000D01*
%TD*%
%TA.AperFunction,Conductor*%
%TO.N,+3.3V*%
G36*
X124841036Y-60528502D02*
G01*
X124887529Y-60582158D01*
X124898915Y-60634500D01*
X124898915Y-61926300D01*
X124878913Y-61994421D01*
X124848479Y-62027127D01*
X124842837Y-62031355D01*
X124842835Y-62031357D01*
X124835654Y-62036739D01*
X124830273Y-62043919D01*
X124830270Y-62043922D01*
X124782623Y-62107498D01*
X124748300Y-62153295D01*
X124697170Y-62289684D01*
X124690415Y-62351866D01*
X124690415Y-63148134D01*
X124697170Y-63210316D01*
X124699942Y-63217709D01*
X124699942Y-63217711D01*
X124714210Y-63255771D01*
X124719393Y-63326578D01*
X124714210Y-63344229D01*
X124707730Y-63361515D01*
X124697170Y-63389684D01*
X124690415Y-63451866D01*
X124690415Y-63948134D01*
X124690784Y-63951531D01*
X124693754Y-63978866D01*
X124697170Y-64010316D01*
X124699942Y-64017709D01*
X124699942Y-64017711D01*
X124714210Y-64055771D01*
X124719393Y-64126578D01*
X124714210Y-64144229D01*
X124705001Y-64168794D01*
X124697170Y-64189684D01*
X124696317Y-64197532D01*
X124696317Y-64197534D01*
X124693533Y-64223167D01*
X124690415Y-64251866D01*
X124690415Y-64748134D01*
X124697170Y-64810316D01*
X124703966Y-64828444D01*
X124714477Y-64856482D01*
X124719660Y-64927289D01*
X124714477Y-64944942D01*
X124700437Y-64982394D01*
X124696810Y-64997649D01*
X124691284Y-65048514D01*
X124690915Y-65055328D01*
X124690915Y-65081885D01*
X124695390Y-65097124D01*
X124696780Y-65098329D01*
X124704463Y-65100000D01*
X124842699Y-65100000D01*
X124910820Y-65120002D01*
X124918264Y-65125174D01*
X124944801Y-65145062D01*
X124952210Y-65150615D01*
X124960618Y-65153767D01*
X125035977Y-65182018D01*
X125092741Y-65224660D01*
X125117441Y-65291221D01*
X125102234Y-65360570D01*
X125051948Y-65410688D01*
X125035977Y-65417982D01*
X124952210Y-65449385D01*
X124945025Y-65454770D01*
X124945023Y-65454771D01*
X124918264Y-65474826D01*
X124851757Y-65499674D01*
X124842699Y-65500000D01*
X124709031Y-65500000D01*
X124693792Y-65504475D01*
X124692587Y-65505865D01*
X124690916Y-65513548D01*
X124690916Y-65544669D01*
X124691286Y-65551490D01*
X124696810Y-65602352D01*
X124700436Y-65617604D01*
X124714477Y-65655058D01*
X124719660Y-65725865D01*
X124714477Y-65743516D01*
X124697170Y-65789684D01*
X124690415Y-65851866D01*
X124690415Y-66348134D01*
X124697170Y-66410316D01*
X124699942Y-66417709D01*
X124699942Y-66417711D01*
X124714210Y-66455771D01*
X124719393Y-66526578D01*
X124714210Y-66544229D01*
X124705405Y-66567718D01*
X124697170Y-66589684D01*
X124694450Y-66588664D01*
X124667889Y-66636207D01*
X124192646Y-67111449D01*
X124130334Y-67145474D01*
X124059518Y-67140409D01*
X124002683Y-67097862D01*
X123996407Y-67088656D01*
X123976937Y-67057193D01*
X123967901Y-67045792D01*
X123853171Y-66931261D01*
X123841760Y-66922249D01*
X123703757Y-66837184D01*
X123690576Y-66831037D01*
X123536290Y-66779862D01*
X123522914Y-66776995D01*
X123428562Y-66767328D01*
X123422145Y-66767000D01*
X123309615Y-66767000D01*
X123294376Y-66771475D01*
X123293171Y-66772865D01*
X123291500Y-66780548D01*
X123291500Y-68128000D01*
X123271498Y-68196121D01*
X123217842Y-68242614D01*
X123165500Y-68254000D01*
X122909500Y-68254000D01*
X122841379Y-68233998D01*
X122794886Y-68180342D01*
X122783500Y-68128000D01*
X122783500Y-66785116D01*
X122779025Y-66769877D01*
X122753330Y-66747612D01*
X122754562Y-66746190D01*
X122745400Y-66741186D01*
X122711378Y-66678872D01*
X122708500Y-66652095D01*
X122708500Y-65629012D01*
X122728502Y-65560891D01*
X122766614Y-65522864D01*
X122857497Y-65464742D01*
X122965998Y-65371252D01*
X123061750Y-65261489D01*
X123066958Y-65253455D01*
X123113129Y-65182221D01*
X123139650Y-65141304D01*
X123164995Y-65086452D01*
X123198868Y-65013145D01*
X123198869Y-65013143D01*
X123200748Y-65009076D01*
X123241784Y-64871858D01*
X123242769Y-64865271D01*
X123262650Y-64732235D01*
X123262650Y-64732232D01*
X123263312Y-64727804D01*
X123264084Y-64601461D01*
X123264160Y-64589055D01*
X123264160Y-64589050D01*
X123264187Y-64584583D01*
X123263852Y-64582139D01*
X123263729Y-64578344D01*
X123263729Y-64150000D01*
X123258500Y-64076889D01*
X123247833Y-64040560D01*
X123244012Y-63987131D01*
X123244642Y-63982749D01*
X123263729Y-63850000D01*
X123263729Y-63359992D01*
X123263731Y-63359222D01*
X123264160Y-63289069D01*
X123264160Y-63289063D01*
X123264187Y-63284583D01*
X123244420Y-63140273D01*
X123205063Y-63002564D01*
X123145586Y-62869602D01*
X123143200Y-62865820D01*
X123143196Y-62865813D01*
X123081968Y-62768774D01*
X123069160Y-62748474D01*
X122974754Y-62637548D01*
X122867403Y-62542740D01*
X122852337Y-62532843D01*
X122749414Y-62465236D01*
X122745666Y-62462774D01*
X122741609Y-62460869D01*
X122741605Y-62460867D01*
X122625693Y-62406446D01*
X122616021Y-62401905D01*
X122611738Y-62400596D01*
X122611734Y-62400594D01*
X122487467Y-62362602D01*
X122476723Y-62359317D01*
X122472300Y-62358628D01*
X122472294Y-62358627D01*
X122407049Y-62348469D01*
X122335205Y-62337283D01*
X122330738Y-62337228D01*
X122330733Y-62337228D01*
X122256165Y-62336317D01*
X122189562Y-62335503D01*
X122185277Y-62336063D01*
X122178240Y-62336271D01*
X121788953Y-62336271D01*
X121788953Y-62336273D01*
X121785986Y-62336682D01*
X121689562Y-62335504D01*
X121685120Y-62336085D01*
X121685117Y-62336085D01*
X121551998Y-62353492D01*
X121551996Y-62353492D01*
X121547548Y-62354074D01*
X121407252Y-62393245D01*
X121276159Y-62450928D01*
X121201045Y-62497683D01*
X121156306Y-62525530D01*
X121156302Y-62525533D01*
X121152504Y-62527897D01*
X121042869Y-62620054D01*
X120945782Y-62728639D01*
X120943297Y-62732372D01*
X120943294Y-62732376D01*
X120868901Y-62844135D01*
X120866419Y-62847864D01*
X120803711Y-62979333D01*
X120802374Y-62983612D01*
X120802373Y-62983615D01*
X120764827Y-63103794D01*
X120761001Y-63116039D01*
X120760849Y-63116978D01*
X120727758Y-63176338D01*
X120349499Y-63554596D01*
X120287187Y-63588621D01*
X120260404Y-63591500D01*
X120204513Y-63591500D01*
X120198061Y-63592872D01*
X120198056Y-63592872D01*
X120111112Y-63611353D01*
X120017712Y-63631206D01*
X120011682Y-63633891D01*
X120011681Y-63633891D01*
X119849278Y-63706197D01*
X119849276Y-63706198D01*
X119843248Y-63708882D01*
X119688747Y-63821134D01*
X119560960Y-63963056D01*
X119465473Y-64128444D01*
X119406458Y-64310072D01*
X119405768Y-64316633D01*
X119405768Y-64316635D01*
X119396355Y-64406197D01*
X119386496Y-64500000D01*
X119387186Y-64506565D01*
X119404235Y-64668774D01*
X119406458Y-64689928D01*
X119465473Y-64871556D01*
X119468776Y-64877278D01*
X119468777Y-64877279D01*
X119481895Y-64900000D01*
X119560960Y-65036944D01*
X119634137Y-65118215D01*
X119664853Y-65182221D01*
X119666500Y-65202524D01*
X119666500Y-67258733D01*
X119665973Y-67269916D01*
X119664298Y-67277409D01*
X119664547Y-67285335D01*
X119664547Y-67285336D01*
X119666438Y-67345486D01*
X119666500Y-67349445D01*
X119666500Y-67377356D01*
X119666997Y-67381290D01*
X119666997Y-67381291D01*
X119667005Y-67381356D01*
X119667938Y-67393193D01*
X119669327Y-67437389D01*
X119673533Y-67451866D01*
X119674978Y-67456839D01*
X119678987Y-67476200D01*
X119681526Y-67496297D01*
X119684445Y-67503668D01*
X119684445Y-67503670D01*
X119697804Y-67537412D01*
X119701649Y-67548642D01*
X119713982Y-67591093D01*
X119718015Y-67597912D01*
X119718017Y-67597917D01*
X119724293Y-67608528D01*
X119732988Y-67626276D01*
X119740448Y-67645117D01*
X119745110Y-67651533D01*
X119745110Y-67651534D01*
X119766436Y-67680887D01*
X119772952Y-67690807D01*
X119795458Y-67728862D01*
X119809779Y-67743183D01*
X119822619Y-67758216D01*
X119833636Y-67773380D01*
X119833637Y-67773381D01*
X119834528Y-67774607D01*
X119834330Y-67774751D01*
X119864401Y-67834185D01*
X119866500Y-67857089D01*
X119866500Y-68525400D01*
X119877474Y-68631166D01*
X119879655Y-68637702D01*
X119879655Y-68637704D01*
X119912982Y-68737596D01*
X119933450Y-68798946D01*
X119958660Y-68839684D01*
X120022668Y-68943121D01*
X120022671Y-68943124D01*
X120026522Y-68949348D01*
X120030493Y-68953312D01*
X120056866Y-69018471D01*
X120043695Y-69088235D01*
X120038743Y-69097040D01*
X119962184Y-69221243D01*
X119956037Y-69234424D01*
X119904862Y-69388710D01*
X119901995Y-69402086D01*
X119892328Y-69496438D01*
X119892000Y-69502855D01*
X119892000Y-69727885D01*
X119896475Y-69743124D01*
X119897865Y-69744329D01*
X119905548Y-69746000D01*
X121128000Y-69746000D01*
X121196121Y-69766002D01*
X121242614Y-69819658D01*
X121254000Y-69872000D01*
X121254000Y-72128000D01*
X121233998Y-72196121D01*
X121180342Y-72242614D01*
X121128000Y-72254000D01*
X119910116Y-72254000D01*
X119894877Y-72258475D01*
X119893672Y-72259865D01*
X119892001Y-72267548D01*
X119892001Y-72497095D01*
X119892338Y-72503614D01*
X119902257Y-72599206D01*
X119905149Y-72612600D01*
X119956588Y-72766784D01*
X119962761Y-72779962D01*
X120038696Y-72902670D01*
X120057534Y-72971122D01*
X120036373Y-73038891D01*
X120030742Y-73046641D01*
X120025695Y-73051697D01*
X119932885Y-73202262D01*
X119877203Y-73370139D01*
X119866500Y-73474600D01*
X119866500Y-74525400D01*
X119866837Y-74528646D01*
X119866837Y-74528650D01*
X119874928Y-74606625D01*
X119877474Y-74631166D01*
X119879655Y-74637702D01*
X119879655Y-74637704D01*
X119898371Y-74693803D01*
X119933450Y-74798946D01*
X120026522Y-74949348D01*
X120031704Y-74954521D01*
X120120683Y-75043345D01*
X120154762Y-75105627D01*
X120151498Y-75171454D01*
X120106458Y-75310072D01*
X120105768Y-75316633D01*
X120105768Y-75316635D01*
X120098819Y-75382749D01*
X120086496Y-75500000D01*
X120087186Y-75506565D01*
X120105752Y-75683207D01*
X120106458Y-75689928D01*
X120165473Y-75871556D01*
X120168776Y-75877278D01*
X120168777Y-75877279D01*
X120169763Y-75878986D01*
X120260960Y-76036944D01*
X120265378Y-76041851D01*
X120265379Y-76041852D01*
X120357568Y-76144238D01*
X120388747Y-76178866D01*
X120487843Y-76250864D01*
X120525394Y-76278146D01*
X120543248Y-76291118D01*
X120549276Y-76293802D01*
X120549278Y-76293803D01*
X120702989Y-76362239D01*
X120717712Y-76368794D01*
X120811113Y-76388647D01*
X120898056Y-76407128D01*
X120898061Y-76407128D01*
X120904513Y-76408500D01*
X121095487Y-76408500D01*
X121101939Y-76407128D01*
X121101944Y-76407128D01*
X121188887Y-76388647D01*
X121282288Y-76368794D01*
X121297011Y-76362239D01*
X121450722Y-76293803D01*
X121450724Y-76293802D01*
X121456752Y-76291118D01*
X121474607Y-76278146D01*
X121512157Y-76250864D01*
X121611253Y-76178866D01*
X121642432Y-76144238D01*
X121734621Y-76041852D01*
X121734622Y-76041851D01*
X121739040Y-76036944D01*
X121830237Y-75878986D01*
X121831223Y-75877279D01*
X121831224Y-75877278D01*
X121834527Y-75871556D01*
X121883090Y-75722095D01*
X125867001Y-75722095D01*
X125867338Y-75728614D01*
X125877257Y-75824206D01*
X125880149Y-75837600D01*
X125931588Y-75991784D01*
X125937761Y-76004962D01*
X126023063Y-76142807D01*
X126032099Y-76154208D01*
X126146829Y-76268739D01*
X126158240Y-76277751D01*
X126296243Y-76362816D01*
X126309424Y-76368963D01*
X126463710Y-76420138D01*
X126477086Y-76423005D01*
X126571438Y-76432672D01*
X126577854Y-76433000D01*
X126690385Y-76433000D01*
X126705624Y-76428525D01*
X126706829Y-76427135D01*
X126708500Y-76419452D01*
X126708500Y-75472115D01*
X126704025Y-75456876D01*
X126702635Y-75455671D01*
X126694952Y-75454000D01*
X125885116Y-75454000D01*
X125869877Y-75458475D01*
X125868672Y-75459865D01*
X125867001Y-75467548D01*
X125867001Y-75722095D01*
X121883090Y-75722095D01*
X121893542Y-75689928D01*
X121894249Y-75683207D01*
X121912814Y-75506565D01*
X121913504Y-75500000D01*
X121901181Y-75382749D01*
X121894232Y-75316635D01*
X121894232Y-75316633D01*
X121893542Y-75310072D01*
X121847092Y-75167115D01*
X121836568Y-75134725D01*
X121836567Y-75134724D01*
X121834527Y-75128444D01*
X121833484Y-75126638D01*
X121824274Y-75057932D01*
X121854382Y-74993636D01*
X121859642Y-74988035D01*
X121894134Y-74953483D01*
X121899305Y-74948303D01*
X121901906Y-74944084D01*
X121959030Y-74903583D01*
X122029953Y-74900351D01*
X122091365Y-74935976D01*
X122097922Y-74943530D01*
X122101522Y-74949348D01*
X122226697Y-75074305D01*
X122232927Y-75078145D01*
X122232928Y-75078146D01*
X122370090Y-75162694D01*
X122377262Y-75167115D01*
X122390344Y-75171454D01*
X122538611Y-75220632D01*
X122538613Y-75220632D01*
X122545139Y-75222797D01*
X122551975Y-75223497D01*
X122551978Y-75223498D01*
X122595031Y-75227909D01*
X122649600Y-75233500D01*
X123425400Y-75233500D01*
X123428646Y-75233163D01*
X123428650Y-75233163D01*
X123524308Y-75223238D01*
X123524312Y-75223237D01*
X123531166Y-75222526D01*
X123537702Y-75220345D01*
X123537704Y-75220345D01*
X123684247Y-75171454D01*
X123698946Y-75166550D01*
X123849348Y-75073478D01*
X123974305Y-74948303D01*
X123986891Y-74927885D01*
X125867000Y-74927885D01*
X125871475Y-74943124D01*
X125872865Y-74944329D01*
X125880548Y-74946000D01*
X126690385Y-74946000D01*
X126705624Y-74941525D01*
X126706829Y-74940135D01*
X126708500Y-74932452D01*
X126708500Y-73985116D01*
X126704025Y-73969877D01*
X126702635Y-73968672D01*
X126694952Y-73967001D01*
X126577905Y-73967001D01*
X126571386Y-73967338D01*
X126475794Y-73977257D01*
X126462400Y-73980149D01*
X126308216Y-74031588D01*
X126295038Y-74037761D01*
X126157193Y-74123063D01*
X126145792Y-74132099D01*
X126031261Y-74246829D01*
X126022249Y-74258240D01*
X125937184Y-74396243D01*
X125931037Y-74409424D01*
X125879862Y-74563710D01*
X125876995Y-74577086D01*
X125867328Y-74671438D01*
X125867000Y-74677855D01*
X125867000Y-74927885D01*
X123986891Y-74927885D01*
X124004991Y-74898522D01*
X124063275Y-74803968D01*
X124063276Y-74803966D01*
X124067115Y-74797738D01*
X124110530Y-74666846D01*
X124120632Y-74636389D01*
X124120632Y-74636387D01*
X124122797Y-74629861D01*
X124133500Y-74525400D01*
X124133500Y-73474600D01*
X124132828Y-73468124D01*
X124123238Y-73375692D01*
X124123237Y-73375688D01*
X124122526Y-73368834D01*
X124101839Y-73306826D01*
X124068868Y-73208002D01*
X124066550Y-73201054D01*
X123973478Y-73050652D01*
X123969777Y-73046958D01*
X123943465Y-72981944D01*
X123956637Y-72912180D01*
X123961588Y-72903377D01*
X124038275Y-72778968D01*
X124038276Y-72778966D01*
X124042115Y-72772738D01*
X124097797Y-72604861D01*
X124108500Y-72500400D01*
X124108500Y-71499600D01*
X124105383Y-71469561D01*
X124118247Y-71399740D01*
X124141615Y-71367462D01*
X124317247Y-71191830D01*
X124325537Y-71184286D01*
X124332018Y-71180173D01*
X124378659Y-71130505D01*
X124381413Y-71127664D01*
X124401134Y-71107943D01*
X124403612Y-71104748D01*
X124411318Y-71095726D01*
X124436162Y-71069270D01*
X124441586Y-71063494D01*
X124445403Y-71056551D01*
X124450066Y-71050133D01*
X124450462Y-71050421D01*
X124465473Y-71030431D01*
X124475320Y-71020584D01*
X124537632Y-70986558D01*
X124608447Y-70991623D01*
X124665283Y-71034170D01*
X124690094Y-71100690D01*
X124690415Y-71109679D01*
X124690415Y-71148134D01*
X124697170Y-71210316D01*
X124699942Y-71217709D01*
X124699942Y-71217711D01*
X124714210Y-71255771D01*
X124719393Y-71326578D01*
X124714210Y-71344229D01*
X124699942Y-71382289D01*
X124697170Y-71389684D01*
X124696317Y-71397532D01*
X124696317Y-71397534D01*
X124695823Y-71402086D01*
X124690415Y-71451866D01*
X124690415Y-71948134D01*
X124697170Y-72010316D01*
X124699942Y-72017709D01*
X124699942Y-72017711D01*
X124714210Y-72055771D01*
X124719393Y-72126578D01*
X124714210Y-72144229D01*
X124697170Y-72189684D01*
X124690415Y-72251866D01*
X124690415Y-73048134D01*
X124697170Y-73110316D01*
X124748300Y-73246705D01*
X124835654Y-73363261D01*
X124952210Y-73450615D01*
X125088599Y-73501745D01*
X125150781Y-73508500D01*
X125947049Y-73508500D01*
X126009231Y-73501745D01*
X126073059Y-73477817D01*
X126137216Y-73453766D01*
X126137219Y-73453764D01*
X126145620Y-73450615D01*
X126145939Y-73451466D01*
X126207764Y-73437945D01*
X126252081Y-73450958D01*
X126252210Y-73450615D01*
X126256896Y-73452372D01*
X126256900Y-73452373D01*
X126260611Y-73453764D01*
X126260614Y-73453766D01*
X126324771Y-73477817D01*
X126388599Y-73501745D01*
X126450781Y-73508500D01*
X126947049Y-73508500D01*
X126950446Y-73508131D01*
X127001381Y-73502598D01*
X127001383Y-73502598D01*
X127009231Y-73501745D01*
X127016624Y-73498973D01*
X127016626Y-73498973D01*
X127054686Y-73484705D01*
X127125493Y-73479522D01*
X127143144Y-73484705D01*
X127181204Y-73498973D01*
X127181206Y-73498973D01*
X127188599Y-73501745D01*
X127196447Y-73502598D01*
X127196449Y-73502598D01*
X127247384Y-73508131D01*
X127250781Y-73508500D01*
X127539415Y-73508500D01*
X127607536Y-73528502D01*
X127654029Y-73582158D01*
X127665415Y-73634500D01*
X127665415Y-73873025D01*
X127645413Y-73941146D01*
X127591757Y-73987639D01*
X127521483Y-73997743D01*
X127499747Y-73992618D01*
X127461290Y-73979862D01*
X127447914Y-73976995D01*
X127353562Y-73967328D01*
X127347145Y-73967000D01*
X127234615Y-73967000D01*
X127219376Y-73971475D01*
X127218171Y-73972865D01*
X127216500Y-73980548D01*
X127216500Y-76414884D01*
X127220975Y-76430123D01*
X127222365Y-76431328D01*
X127230048Y-76432999D01*
X127347095Y-76432999D01*
X127353614Y-76432662D01*
X127449206Y-76422743D01*
X127462600Y-76419851D01*
X127616784Y-76368412D01*
X127629962Y-76362239D01*
X127767807Y-76276937D01*
X127779208Y-76267901D01*
X127893738Y-76153172D01*
X127900794Y-76144238D01*
X127958712Y-76103177D01*
X128029635Y-76099947D01*
X128091046Y-76135574D01*
X128097846Y-76143407D01*
X128101522Y-76149348D01*
X128226697Y-76274305D01*
X128232927Y-76278145D01*
X128232928Y-76278146D01*
X128370288Y-76362816D01*
X128377262Y-76367115D01*
X128457005Y-76393564D01*
X128538611Y-76420632D01*
X128538613Y-76420632D01*
X128545139Y-76422797D01*
X128551975Y-76423497D01*
X128551978Y-76423498D01*
X128595031Y-76427909D01*
X128649600Y-76433500D01*
X129425400Y-76433500D01*
X129428646Y-76433163D01*
X129428650Y-76433163D01*
X129524308Y-76423238D01*
X129524312Y-76423237D01*
X129531166Y-76422526D01*
X129537702Y-76420345D01*
X129537704Y-76420345D01*
X129657214Y-76380473D01*
X129728163Y-76377889D01*
X129789247Y-76414072D01*
X129821072Y-76477537D01*
X129813533Y-76548132D01*
X129788775Y-76585213D01*
X129786739Y-76586739D01*
X129699385Y-76703295D01*
X129648255Y-76839684D01*
X129641500Y-76901866D01*
X129641500Y-76940500D01*
X129621498Y-77008621D01*
X129567842Y-77055114D01*
X129515500Y-77066500D01*
X123378768Y-77066500D01*
X123367585Y-77065973D01*
X123360092Y-77064298D01*
X123352166Y-77064547D01*
X123352165Y-77064547D01*
X123292002Y-77066438D01*
X123288044Y-77066500D01*
X123260144Y-77066500D01*
X123256154Y-77067004D01*
X123244320Y-77067936D01*
X123200111Y-77069326D01*
X123192495Y-77071539D01*
X123192493Y-77071539D01*
X123180652Y-77074979D01*
X123161293Y-77078988D01*
X123159983Y-77079154D01*
X123141203Y-77081526D01*
X123133837Y-77084442D01*
X123133831Y-77084444D01*
X123100098Y-77097800D01*
X123088868Y-77101645D01*
X123054017Y-77111770D01*
X123046407Y-77113981D01*
X123039584Y-77118016D01*
X123028966Y-77124295D01*
X123011213Y-77132992D01*
X123003568Y-77136019D01*
X122992383Y-77140448D01*
X122985968Y-77145109D01*
X122956612Y-77166437D01*
X122946695Y-77172951D01*
X122908638Y-77195458D01*
X122894317Y-77209779D01*
X122879284Y-77222619D01*
X122862893Y-77234528D01*
X122857843Y-77240632D01*
X122857838Y-77240637D01*
X122834707Y-77268598D01*
X122826717Y-77277379D01*
X122372422Y-77731673D01*
X122310110Y-77765698D01*
X122250716Y-77764284D01*
X122219371Y-77755885D01*
X122000000Y-77736693D01*
X121780629Y-77755885D01*
X121567924Y-77812880D01*
X121474562Y-77856415D01*
X121373334Y-77903618D01*
X121373329Y-77903621D01*
X121368347Y-77905944D01*
X121363840Y-77909100D01*
X121363838Y-77909101D01*
X121192473Y-78029092D01*
X121192470Y-78029094D01*
X121187962Y-78032251D01*
X121032251Y-78187962D01*
X121029094Y-78192470D01*
X121029092Y-78192473D01*
X120909101Y-78363838D01*
X120905944Y-78368347D01*
X120903621Y-78373329D01*
X120903618Y-78373334D01*
X120895204Y-78391379D01*
X120812880Y-78567924D01*
X120755885Y-78780629D01*
X120736693Y-79000000D01*
X120755885Y-79219371D01*
X120757309Y-79224685D01*
X120764284Y-79250717D01*
X120762594Y-79321694D01*
X120731672Y-79372423D01*
X120107747Y-79996348D01*
X120099461Y-80003888D01*
X120092982Y-80008000D01*
X120087557Y-80013777D01*
X120046357Y-80057651D01*
X120043602Y-80060493D01*
X120023865Y-80080230D01*
X120021385Y-80083427D01*
X120013682Y-80092447D01*
X119983414Y-80124679D01*
X119979595Y-80131625D01*
X119979593Y-80131628D01*
X119973652Y-80142434D01*
X119962801Y-80158953D01*
X119950386Y-80174959D01*
X119947241Y-80182228D01*
X119947238Y-80182232D01*
X119932826Y-80215537D01*
X119927609Y-80226187D01*
X119906305Y-80264940D01*
X119904334Y-80272615D01*
X119904334Y-80272616D01*
X119901267Y-80284562D01*
X119894863Y-80303266D01*
X119886819Y-80321855D01*
X119885580Y-80329678D01*
X119885577Y-80329688D01*
X119879901Y-80365524D01*
X119877495Y-80377144D01*
X119866500Y-80419970D01*
X119866500Y-80440224D01*
X119864949Y-80459934D01*
X119861780Y-80479943D01*
X119862526Y-80487835D01*
X119865941Y-80523961D01*
X119866500Y-80535819D01*
X119866500Y-91171233D01*
X119865973Y-91182416D01*
X119864298Y-91189909D01*
X119864547Y-91197835D01*
X119864547Y-91197836D01*
X119866438Y-91257986D01*
X119866500Y-91261945D01*
X119866500Y-91289856D01*
X119866997Y-91293790D01*
X119866997Y-91293791D01*
X119867005Y-91293856D01*
X119867938Y-91305693D01*
X119869327Y-91349889D01*
X119874153Y-91366500D01*
X119874978Y-91369339D01*
X119878987Y-91388700D01*
X119880346Y-91399453D01*
X119881526Y-91408797D01*
X119884445Y-91416168D01*
X119884445Y-91416170D01*
X119897804Y-91449912D01*
X119901649Y-91461142D01*
X119913982Y-91503593D01*
X119918015Y-91510412D01*
X119918017Y-91510417D01*
X119924293Y-91521028D01*
X119932988Y-91538776D01*
X119940448Y-91557617D01*
X119945110Y-91564033D01*
X119945110Y-91564034D01*
X119966436Y-91593387D01*
X119972939Y-91603285D01*
X119973945Y-91604985D01*
X119991500Y-91669139D01*
X119991500Y-92298134D01*
X119998255Y-92360316D01*
X120049385Y-92496705D01*
X120136739Y-92613261D01*
X120253295Y-92700615D01*
X120389684Y-92751745D01*
X120451866Y-92758500D01*
X121548134Y-92758500D01*
X121610316Y-92751745D01*
X121746705Y-92700615D01*
X121863261Y-92613261D01*
X121950615Y-92496705D01*
X122001745Y-92360316D01*
X122008500Y-92298134D01*
X122008500Y-91201866D01*
X122001745Y-91139684D01*
X121950615Y-91003295D01*
X121863261Y-90886739D01*
X121746705Y-90799385D01*
X121610316Y-90748255D01*
X121548134Y-90741500D01*
X121259500Y-90741500D01*
X121191379Y-90721498D01*
X121144886Y-90667842D01*
X121133500Y-90615500D01*
X121133500Y-89422095D01*
X123767001Y-89422095D01*
X123767338Y-89428614D01*
X123777257Y-89524206D01*
X123780149Y-89537600D01*
X123831588Y-89691784D01*
X123837761Y-89704962D01*
X123923063Y-89842807D01*
X123932099Y-89854208D01*
X124046829Y-89968739D01*
X124058240Y-89977751D01*
X124196243Y-90062816D01*
X124209424Y-90068963D01*
X124363710Y-90120138D01*
X124377086Y-90123005D01*
X124471438Y-90132672D01*
X124477854Y-90133000D01*
X124727885Y-90133000D01*
X124743124Y-90128525D01*
X124744329Y-90127135D01*
X124746000Y-90119452D01*
X124746000Y-90114884D01*
X125254000Y-90114884D01*
X125258475Y-90130123D01*
X125259865Y-90131328D01*
X125267548Y-90132999D01*
X125522095Y-90132999D01*
X125528614Y-90132662D01*
X125624206Y-90122743D01*
X125637600Y-90119851D01*
X125791784Y-90068412D01*
X125804962Y-90062239D01*
X125942807Y-89976937D01*
X125954208Y-89967901D01*
X126068739Y-89853171D01*
X126077751Y-89841760D01*
X126162816Y-89703757D01*
X126168963Y-89690576D01*
X126220138Y-89536290D01*
X126223005Y-89522914D01*
X126232672Y-89428562D01*
X126233000Y-89422146D01*
X126233000Y-89309615D01*
X126228525Y-89294376D01*
X126227135Y-89293171D01*
X126219452Y-89291500D01*
X125272115Y-89291500D01*
X125256876Y-89295975D01*
X125255671Y-89297365D01*
X125254000Y-89305048D01*
X125254000Y-90114884D01*
X124746000Y-90114884D01*
X124746000Y-89309615D01*
X124741525Y-89294376D01*
X124740135Y-89293171D01*
X124732452Y-89291500D01*
X123785116Y-89291500D01*
X123769877Y-89295975D01*
X123768672Y-89297365D01*
X123767001Y-89305048D01*
X123767001Y-89422095D01*
X121133500Y-89422095D01*
X121133500Y-88171048D01*
X121153502Y-88102927D01*
X121207158Y-88056434D01*
X121277432Y-88046330D01*
X121331771Y-88067835D01*
X121364089Y-88090464D01*
X121373584Y-88095947D01*
X121563113Y-88184326D01*
X121573405Y-88188072D01*
X121775401Y-88242196D01*
X121786196Y-88244099D01*
X121994525Y-88262326D01*
X122005475Y-88262326D01*
X122213804Y-88244099D01*
X122224599Y-88242196D01*
X122426595Y-88188072D01*
X122436887Y-88184326D01*
X122626416Y-88095947D01*
X122635912Y-88090464D01*
X122677148Y-88061590D01*
X122685523Y-88051113D01*
X122678455Y-88037667D01*
X121729884Y-87089095D01*
X121695859Y-87026783D01*
X121697694Y-87001132D01*
X122364408Y-87001132D01*
X122364539Y-87002966D01*
X122368790Y-87009580D01*
X123038391Y-87679180D01*
X123050161Y-87685607D01*
X123062176Y-87676311D01*
X123090466Y-87635907D01*
X123095946Y-87626417D01*
X123184326Y-87436887D01*
X123188072Y-87426595D01*
X123208488Y-87350400D01*
X123766500Y-87350400D01*
X123766837Y-87353646D01*
X123766837Y-87353650D01*
X123775474Y-87436887D01*
X123777474Y-87456166D01*
X123779655Y-87462702D01*
X123779655Y-87462704D01*
X123790476Y-87495139D01*
X123833450Y-87623946D01*
X123926522Y-87774348D01*
X124051697Y-87899305D01*
X124056235Y-87902102D01*
X124096824Y-87959353D01*
X124100054Y-88030276D01*
X124064428Y-88091687D01*
X124055932Y-88099062D01*
X124045793Y-88107098D01*
X123931261Y-88221829D01*
X123922249Y-88233240D01*
X123837184Y-88371243D01*
X123831037Y-88384424D01*
X123779862Y-88538710D01*
X123776995Y-88552086D01*
X123767328Y-88646438D01*
X123767000Y-88652855D01*
X123767000Y-88765385D01*
X123771475Y-88780624D01*
X123772865Y-88781829D01*
X123780548Y-88783500D01*
X126214884Y-88783500D01*
X126230123Y-88779025D01*
X126231328Y-88777635D01*
X126232999Y-88769952D01*
X126232999Y-88652905D01*
X126232662Y-88646386D01*
X126222743Y-88550794D01*
X126219851Y-88537400D01*
X126168412Y-88383216D01*
X126162239Y-88370038D01*
X126076937Y-88232193D01*
X126067901Y-88220792D01*
X125953172Y-88106262D01*
X125944238Y-88099206D01*
X125903177Y-88041288D01*
X125899947Y-87970365D01*
X125935574Y-87908954D01*
X125943407Y-87902154D01*
X125949348Y-87898478D01*
X126074305Y-87773303D01*
X126158323Y-87637001D01*
X126163275Y-87628968D01*
X126163276Y-87628966D01*
X126167115Y-87622738D01*
X126207169Y-87501978D01*
X126220632Y-87461389D01*
X126220632Y-87461387D01*
X126222797Y-87454861D01*
X126233500Y-87350400D01*
X126233500Y-86574600D01*
X126232632Y-86566231D01*
X126223238Y-86475692D01*
X126223237Y-86475688D01*
X126222526Y-86468834D01*
X126215859Y-86448849D01*
X126168868Y-86308002D01*
X126166550Y-86301054D01*
X126073478Y-86150652D01*
X125948303Y-86025695D01*
X125860389Y-85971504D01*
X125812896Y-85918731D01*
X125801474Y-85848660D01*
X125817386Y-85801245D01*
X125822505Y-85792378D01*
X125834527Y-85771556D01*
X125893542Y-85589928D01*
X125894297Y-85582751D01*
X125912814Y-85406565D01*
X125913504Y-85400000D01*
X125894995Y-85223893D01*
X125894232Y-85216635D01*
X125894232Y-85216633D01*
X125893542Y-85210072D01*
X125834527Y-85028444D01*
X125739040Y-84863056D01*
X125676685Y-84793803D01*
X125615675Y-84726045D01*
X125615674Y-84726044D01*
X125611253Y-84721134D01*
X125456752Y-84608882D01*
X125450724Y-84606198D01*
X125450722Y-84606197D01*
X125288319Y-84533891D01*
X125288318Y-84533891D01*
X125282288Y-84531206D01*
X125178095Y-84509059D01*
X125101944Y-84492872D01*
X125101939Y-84492872D01*
X125095487Y-84491500D01*
X124904513Y-84491500D01*
X124898061Y-84492872D01*
X124898056Y-84492872D01*
X124821905Y-84509059D01*
X124717712Y-84531206D01*
X124711682Y-84533891D01*
X124711681Y-84533891D01*
X124549278Y-84606197D01*
X124549276Y-84606198D01*
X124543248Y-84608882D01*
X124388747Y-84721134D01*
X124384326Y-84726044D01*
X124384325Y-84726045D01*
X124323316Y-84793803D01*
X124260960Y-84863056D01*
X124165473Y-85028444D01*
X124106458Y-85210072D01*
X124105768Y-85216633D01*
X124105768Y-85216635D01*
X124105005Y-85223893D01*
X124086496Y-85400000D01*
X124087186Y-85406565D01*
X124105704Y-85582751D01*
X124106458Y-85589928D01*
X124165473Y-85771556D01*
X124168776Y-85777278D01*
X124168777Y-85777279D01*
X124182600Y-85801221D01*
X124199338Y-85870217D01*
X124176117Y-85937308D01*
X124139784Y-85971365D01*
X124102245Y-85994595D01*
X124050652Y-86026522D01*
X123925695Y-86151697D01*
X123832885Y-86302262D01*
X123827929Y-86317204D01*
X123784265Y-86448849D01*
X123777203Y-86470139D01*
X123776503Y-86476975D01*
X123776502Y-86476978D01*
X123772842Y-86512704D01*
X123766500Y-86574600D01*
X123766500Y-87350400D01*
X123208488Y-87350400D01*
X123242196Y-87224599D01*
X123244099Y-87213804D01*
X123262326Y-87005475D01*
X123262326Y-86994525D01*
X123244099Y-86786196D01*
X123242196Y-86775401D01*
X123188072Y-86573405D01*
X123184326Y-86563113D01*
X123095946Y-86373583D01*
X123090466Y-86364093D01*
X123061589Y-86322851D01*
X123051113Y-86314477D01*
X123037666Y-86321545D01*
X122372021Y-86987189D01*
X122364408Y-87001132D01*
X121697694Y-87001132D01*
X121700924Y-86955967D01*
X121729885Y-86910905D01*
X122000000Y-86640790D01*
X122679176Y-85961613D01*
X122685606Y-85949838D01*
X122676310Y-85937824D01*
X122635912Y-85909536D01*
X122626416Y-85904053D01*
X122436887Y-85815674D01*
X122426595Y-85811928D01*
X122224599Y-85757804D01*
X122213804Y-85755901D01*
X122005475Y-85737674D01*
X121994525Y-85737674D01*
X121786196Y-85755901D01*
X121775401Y-85757804D01*
X121573405Y-85811928D01*
X121563113Y-85815674D01*
X121373579Y-85904056D01*
X121364093Y-85909534D01*
X121331770Y-85932166D01*
X121264496Y-85954854D01*
X121195636Y-85937569D01*
X121147052Y-85885799D01*
X121133500Y-85828953D01*
X121133500Y-84171659D01*
X121153502Y-84103538D01*
X121207158Y-84057045D01*
X121277432Y-84046941D01*
X121331770Y-84068446D01*
X121363832Y-84090896D01*
X121363837Y-84090899D01*
X121368346Y-84094056D01*
X121567924Y-84187120D01*
X121780629Y-84244115D01*
X122000000Y-84263307D01*
X122219371Y-84244115D01*
X122432076Y-84187120D01*
X122631654Y-84094056D01*
X122812038Y-83967749D01*
X122967749Y-83812038D01*
X122990302Y-83779830D01*
X123090899Y-83636162D01*
X123090900Y-83636160D01*
X123094056Y-83631653D01*
X123096379Y-83626671D01*
X123096382Y-83626666D01*
X123170007Y-83468774D01*
X123187120Y-83432076D01*
X123244115Y-83219371D01*
X123263307Y-83000000D01*
X123244115Y-82780629D01*
X123187120Y-82567924D01*
X123118481Y-82420726D01*
X123096382Y-82373334D01*
X123096379Y-82373329D01*
X123094056Y-82368347D01*
X123090899Y-82363838D01*
X122970908Y-82192473D01*
X122970906Y-82192470D01*
X122967749Y-82187962D01*
X122812038Y-82032251D01*
X122807530Y-82029094D01*
X122807527Y-82029092D01*
X122720848Y-81968399D01*
X122701880Y-81944669D01*
X123342001Y-81944669D01*
X123342371Y-81951490D01*
X123347895Y-82002352D01*
X123351521Y-82017604D01*
X123396676Y-82138054D01*
X123405214Y-82153649D01*
X123481715Y-82255724D01*
X123494276Y-82268285D01*
X123596351Y-82344786D01*
X123611946Y-82353324D01*
X123732394Y-82398478D01*
X123747649Y-82402105D01*
X123798514Y-82407631D01*
X123805328Y-82408000D01*
X124577885Y-82408000D01*
X124593124Y-82403525D01*
X124594329Y-82402135D01*
X124596000Y-82394452D01*
X124596000Y-82389884D01*
X125104000Y-82389884D01*
X125108475Y-82405123D01*
X125109865Y-82406328D01*
X125117548Y-82407999D01*
X125894669Y-82407999D01*
X125901490Y-82407629D01*
X125952352Y-82402105D01*
X125967604Y-82398479D01*
X126088054Y-82353324D01*
X126103649Y-82344786D01*
X126205724Y-82268285D01*
X126218285Y-82255724D01*
X126294786Y-82153649D01*
X126303324Y-82138054D01*
X126348478Y-82017606D01*
X126352105Y-82002351D01*
X126357631Y-81951486D01*
X126358000Y-81944672D01*
X126358000Y-80272115D01*
X126353525Y-80256876D01*
X126352135Y-80255671D01*
X126344452Y-80254000D01*
X125122115Y-80254000D01*
X125106876Y-80258475D01*
X125105671Y-80259865D01*
X125104000Y-80267548D01*
X125104000Y-82389884D01*
X124596000Y-82389884D01*
X124596000Y-80272115D01*
X124591525Y-80256876D01*
X124590135Y-80255671D01*
X124582452Y-80254000D01*
X123360116Y-80254000D01*
X123344877Y-80258475D01*
X123343672Y-80259865D01*
X123342001Y-80267548D01*
X123342001Y-81944669D01*
X122701880Y-81944669D01*
X122676520Y-81912942D01*
X122669211Y-81842323D01*
X122699481Y-81780878D01*
X122739040Y-81736944D01*
X122834527Y-81571556D01*
X122893542Y-81389928D01*
X122901764Y-81311705D01*
X122912814Y-81206565D01*
X122913504Y-81200000D01*
X122910191Y-81168479D01*
X122894232Y-81016635D01*
X122894232Y-81016633D01*
X122893542Y-81010072D01*
X122834527Y-80828444D01*
X122825936Y-80813563D01*
X122793570Y-80757504D01*
X122739040Y-80663056D01*
X122720929Y-80642941D01*
X122615675Y-80526045D01*
X122615674Y-80526044D01*
X122611253Y-80521134D01*
X122456752Y-80408882D01*
X122450722Y-80406197D01*
X122444999Y-80402893D01*
X122446026Y-80401114D01*
X122399324Y-80361412D01*
X122378679Y-80293484D01*
X122398036Y-80225177D01*
X122451424Y-80178098D01*
X122626663Y-80096384D01*
X122626669Y-80096380D01*
X122631654Y-80094056D01*
X122812038Y-79967749D01*
X122967749Y-79812038D01*
X122971364Y-79806876D01*
X123090899Y-79636162D01*
X123090900Y-79636160D01*
X123094056Y-79631653D01*
X123096381Y-79626668D01*
X123096384Y-79626662D01*
X123101805Y-79615036D01*
X123148722Y-79561750D01*
X123216999Y-79542289D01*
X123284959Y-79562830D01*
X123331025Y-79616853D01*
X123342000Y-79668285D01*
X123342000Y-79727885D01*
X123346475Y-79743124D01*
X123347865Y-79744329D01*
X123355548Y-79746000D01*
X126339884Y-79746000D01*
X126355123Y-79741525D01*
X126356328Y-79740135D01*
X126357999Y-79732452D01*
X126357999Y-78459500D01*
X126378001Y-78391379D01*
X126431657Y-78344886D01*
X126483999Y-78333500D01*
X129515500Y-78333500D01*
X129583621Y-78353502D01*
X129630114Y-78407158D01*
X129641500Y-78459500D01*
X129641500Y-78498134D01*
X129648255Y-78560316D01*
X129699385Y-78696705D01*
X129704771Y-78703891D01*
X129757953Y-78774852D01*
X129782801Y-78841358D01*
X129767748Y-78910741D01*
X129757953Y-78925982D01*
X129705214Y-78996352D01*
X129696676Y-79011946D01*
X129651522Y-79132394D01*
X129647895Y-79147649D01*
X129642369Y-79198514D01*
X129642000Y-79205328D01*
X129642000Y-79727885D01*
X129646475Y-79743124D01*
X129647865Y-79744329D01*
X129655548Y-79746000D01*
X132639884Y-79746000D01*
X132655123Y-79741525D01*
X132656328Y-79740135D01*
X132657999Y-79732452D01*
X132657999Y-79205331D01*
X132657629Y-79198510D01*
X132652105Y-79147648D01*
X132648479Y-79132396D01*
X132603324Y-79011946D01*
X132594786Y-78996352D01*
X132542047Y-78925982D01*
X132517199Y-78859476D01*
X132532252Y-78790093D01*
X132542047Y-78774852D01*
X132595229Y-78703891D01*
X132600615Y-78696705D01*
X132651745Y-78560316D01*
X132658500Y-78498134D01*
X132658500Y-77259500D01*
X132678502Y-77191379D01*
X132732158Y-77144886D01*
X132784500Y-77133500D01*
X133369618Y-77133500D01*
X133437739Y-77153502D01*
X133484232Y-77207158D01*
X133487599Y-77215269D01*
X133496231Y-77238293D01*
X133499385Y-77246705D01*
X133586739Y-77363261D01*
X133703295Y-77450615D01*
X133839684Y-77501745D01*
X133901866Y-77508500D01*
X134740500Y-77508500D01*
X134808621Y-77528502D01*
X134855114Y-77582158D01*
X134866500Y-77634500D01*
X134866500Y-78849010D01*
X134846498Y-78917131D01*
X134829595Y-78938105D01*
X133972067Y-79795632D01*
X133132747Y-80634952D01*
X133124461Y-80642492D01*
X133117982Y-80646604D01*
X133112557Y-80652381D01*
X133071357Y-80696255D01*
X133068602Y-80699097D01*
X133048865Y-80718834D01*
X133046385Y-80722031D01*
X133038682Y-80731051D01*
X133008414Y-80763283D01*
X133004595Y-80770229D01*
X133004593Y-80770232D01*
X132998652Y-80781038D01*
X132987801Y-80797557D01*
X132975386Y-80813563D01*
X132972241Y-80820832D01*
X132972238Y-80820836D01*
X132957826Y-80854141D01*
X132952609Y-80864791D01*
X132931305Y-80903544D01*
X132929334Y-80911219D01*
X132929334Y-80911220D01*
X132926267Y-80923166D01*
X132919863Y-80941870D01*
X132911819Y-80960459D01*
X132910580Y-80968282D01*
X132910577Y-80968292D01*
X132904901Y-81004128D01*
X132902495Y-81015748D01*
X132895884Y-81041500D01*
X132891500Y-81058574D01*
X132891500Y-81078828D01*
X132889949Y-81098538D01*
X132886780Y-81118547D01*
X132887526Y-81126439D01*
X132890941Y-81162565D01*
X132891500Y-81174423D01*
X132891500Y-81384179D01*
X132871498Y-81452300D01*
X132817842Y-81498793D01*
X132747568Y-81508897D01*
X132682988Y-81479403D01*
X132647518Y-81428408D01*
X132603768Y-81311705D01*
X132603767Y-81311703D01*
X132600615Y-81303295D01*
X132542047Y-81225148D01*
X132517199Y-81158642D01*
X132532252Y-81089259D01*
X132542047Y-81074018D01*
X132594786Y-81003648D01*
X132603324Y-80988054D01*
X132648478Y-80867606D01*
X132652105Y-80852351D01*
X132657631Y-80801486D01*
X132658000Y-80794672D01*
X132658000Y-80272115D01*
X132653525Y-80256876D01*
X132652135Y-80255671D01*
X132644452Y-80254000D01*
X129660116Y-80254000D01*
X129644877Y-80258475D01*
X129643672Y-80259865D01*
X129642001Y-80267548D01*
X129642001Y-80794669D01*
X129642371Y-80801490D01*
X129647895Y-80852352D01*
X129651521Y-80867604D01*
X129696676Y-80988054D01*
X129705214Y-81003648D01*
X129757953Y-81074018D01*
X129782801Y-81140524D01*
X129767748Y-81209907D01*
X129757953Y-81225148D01*
X129699385Y-81303295D01*
X129648255Y-81439684D01*
X129641500Y-81501866D01*
X129641500Y-83098134D01*
X129648255Y-83160316D01*
X129651029Y-83167716D01*
X129652856Y-83175400D01*
X129650197Y-83176032D01*
X129654415Y-83233752D01*
X129620488Y-83296117D01*
X129605315Y-83309096D01*
X129597315Y-83314909D01*
X129588747Y-83321134D01*
X129584326Y-83326044D01*
X129584325Y-83326045D01*
X129493637Y-83426765D01*
X129460960Y-83463056D01*
X129457659Y-83468774D01*
X129369781Y-83620983D01*
X129365473Y-83628444D01*
X129306458Y-83810072D01*
X129286496Y-84000000D01*
X129287186Y-84006565D01*
X129296382Y-84094056D01*
X129306458Y-84189928D01*
X129365473Y-84371556D01*
X129460960Y-84536944D01*
X129465378Y-84541851D01*
X129465379Y-84541852D01*
X129523647Y-84606565D01*
X129588747Y-84678866D01*
X129743248Y-84791118D01*
X129749276Y-84793802D01*
X129749278Y-84793803D01*
X129904824Y-84863056D01*
X129917712Y-84868794D01*
X130011112Y-84888647D01*
X130098056Y-84907128D01*
X130098061Y-84907128D01*
X130104513Y-84908500D01*
X130141405Y-84908500D01*
X130209526Y-84928502D01*
X130256019Y-84982158D01*
X130266123Y-85052432D01*
X130236629Y-85117012D01*
X130230500Y-85123595D01*
X129809500Y-85544595D01*
X129747188Y-85578621D01*
X129720405Y-85581500D01*
X128763767Y-85581500D01*
X128752584Y-85580973D01*
X128745091Y-85579298D01*
X128737165Y-85579547D01*
X128737164Y-85579547D01*
X128677014Y-85581438D01*
X128673055Y-85581500D01*
X128645144Y-85581500D01*
X128641210Y-85581997D01*
X128641209Y-85581997D01*
X128641144Y-85582005D01*
X128629307Y-85582938D01*
X128597049Y-85583952D01*
X128593030Y-85584078D01*
X128585111Y-85584327D01*
X128565657Y-85589979D01*
X128546300Y-85593987D01*
X128534070Y-85595532D01*
X128534069Y-85595532D01*
X128526203Y-85596526D01*
X128518832Y-85599445D01*
X128518830Y-85599445D01*
X128485088Y-85612804D01*
X128473858Y-85616649D01*
X128439017Y-85626771D01*
X128439016Y-85626771D01*
X128431407Y-85628982D01*
X128424588Y-85633015D01*
X128424583Y-85633017D01*
X128413972Y-85639293D01*
X128396224Y-85647988D01*
X128377383Y-85655448D01*
X128370967Y-85660110D01*
X128370966Y-85660110D01*
X128341613Y-85681436D01*
X128331693Y-85687952D01*
X128300465Y-85706420D01*
X128300462Y-85706422D01*
X128293638Y-85710458D01*
X128279317Y-85724779D01*
X128264284Y-85737619D01*
X128247893Y-85749528D01*
X128242840Y-85755636D01*
X128219708Y-85783598D01*
X128211718Y-85792378D01*
X128009501Y-85994595D01*
X127947189Y-86028621D01*
X127920406Y-86031500D01*
X127794228Y-86031500D01*
X127704453Y-86042364D01*
X127696925Y-86045344D01*
X127696923Y-86045345D01*
X127639266Y-86068173D01*
X127564217Y-86097887D01*
X127444078Y-86189078D01*
X127352887Y-86309217D01*
X127349725Y-86317204D01*
X127307046Y-86425000D01*
X127297364Y-86449453D01*
X127286500Y-86539228D01*
X127286500Y-88510772D01*
X127297364Y-88600547D01*
X127300344Y-88608075D01*
X127300345Y-88608077D01*
X127310411Y-88633500D01*
X127352887Y-88740783D01*
X127444078Y-88860922D01*
X127564217Y-88952113D01*
X127605442Y-88968435D01*
X127696923Y-89004655D01*
X127696925Y-89004656D01*
X127704453Y-89007636D01*
X127794228Y-89018500D01*
X128395772Y-89018500D01*
X128485547Y-89007636D01*
X128493075Y-89004656D01*
X128493077Y-89004655D01*
X128551395Y-88981565D01*
X128625783Y-88952113D01*
X128653821Y-88930831D01*
X128720174Y-88905578D01*
X128789647Y-88920206D01*
X128806179Y-88930831D01*
X128834217Y-88952113D01*
X128908605Y-88981565D01*
X128966923Y-89004655D01*
X128966925Y-89004656D01*
X128974453Y-89007636D01*
X129064228Y-89018500D01*
X129665772Y-89018500D01*
X129755547Y-89007636D01*
X129763075Y-89004656D01*
X129763077Y-89004655D01*
X129821395Y-88981565D01*
X129895783Y-88952113D01*
X129923821Y-88930831D01*
X129990174Y-88905578D01*
X130059647Y-88920206D01*
X130076179Y-88930831D01*
X130104217Y-88952113D01*
X130178605Y-88981565D01*
X130236923Y-89004655D01*
X130236925Y-89004656D01*
X130244453Y-89007636D01*
X130334228Y-89018500D01*
X130935772Y-89018500D01*
X131025547Y-89007636D01*
X131033075Y-89004656D01*
X131033077Y-89004655D01*
X131091395Y-88981565D01*
X131165783Y-88952113D01*
X131193821Y-88930831D01*
X131260174Y-88905578D01*
X131329647Y-88920206D01*
X131346179Y-88930831D01*
X131374217Y-88952113D01*
X131448605Y-88981565D01*
X131506923Y-89004655D01*
X131506925Y-89004656D01*
X131514453Y-89007636D01*
X131604228Y-89018500D01*
X132205772Y-89018500D01*
X132295547Y-89007636D01*
X132303075Y-89004656D01*
X132303077Y-89004655D01*
X132394558Y-88968435D01*
X132435783Y-88952113D01*
X132555922Y-88860922D01*
X132647113Y-88740783D01*
X132689589Y-88633500D01*
X132699655Y-88608077D01*
X132699656Y-88608075D01*
X132702636Y-88600547D01*
X132713500Y-88510772D01*
X132713500Y-86934594D01*
X132733502Y-86866473D01*
X132750401Y-86845503D01*
X133576407Y-86019498D01*
X133638717Y-85985474D01*
X133709533Y-85990539D01*
X133766368Y-86033086D01*
X133791179Y-86099606D01*
X133791500Y-86108595D01*
X133791500Y-86400400D01*
X133791837Y-86403646D01*
X133791837Y-86403650D01*
X133799446Y-86476978D01*
X133802474Y-86506166D01*
X133804655Y-86512702D01*
X133804655Y-86512704D01*
X133839450Y-86616996D01*
X133858450Y-86673946D01*
X133951522Y-86824348D01*
X133993721Y-86866473D01*
X134038109Y-86910784D01*
X134072188Y-86973066D01*
X134067185Y-87043886D01*
X134038264Y-87088975D01*
X134025170Y-87102092D01*
X133950695Y-87176697D01*
X133946855Y-87182927D01*
X133946854Y-87182928D01*
X133894147Y-87268435D01*
X133857885Y-87327262D01*
X133831436Y-87407005D01*
X133815563Y-87454861D01*
X133802203Y-87495139D01*
X133791500Y-87599600D01*
X133791500Y-88400400D01*
X133791837Y-88403646D01*
X133791837Y-88403650D01*
X133799949Y-88481827D01*
X133802474Y-88506166D01*
X133804655Y-88512702D01*
X133804655Y-88512704D01*
X133815098Y-88544004D01*
X133858450Y-88673946D01*
X133951522Y-88824348D01*
X134076697Y-88949305D01*
X134082927Y-88953145D01*
X134082928Y-88953146D01*
X134188952Y-89018500D01*
X134227262Y-89042115D01*
X134307005Y-89068564D01*
X134388611Y-89095632D01*
X134388613Y-89095632D01*
X134395139Y-89097797D01*
X134401975Y-89098497D01*
X134401978Y-89098498D01*
X134445031Y-89102909D01*
X134499600Y-89108500D01*
X135231262Y-89108500D01*
X135299383Y-89128502D01*
X135345876Y-89182158D01*
X135355980Y-89252432D01*
X135326486Y-89317012D01*
X135305323Y-89336436D01*
X135188747Y-89421134D01*
X135184326Y-89426044D01*
X135184325Y-89426045D01*
X135083881Y-89537600D01*
X135060960Y-89563056D01*
X134965473Y-89728444D01*
X134906458Y-89910072D01*
X134886496Y-90100000D01*
X134906458Y-90289928D01*
X134965473Y-90471556D01*
X135060960Y-90636944D01*
X135065378Y-90641851D01*
X135065379Y-90641852D01*
X135155435Y-90741869D01*
X135188747Y-90778866D01*
X135287843Y-90850864D01*
X135329815Y-90881358D01*
X135343248Y-90891118D01*
X135349276Y-90893802D01*
X135349278Y-90893803D01*
X135511681Y-90966109D01*
X135517712Y-90968794D01*
X135611112Y-90988647D01*
X135698056Y-91007128D01*
X135698061Y-91007128D01*
X135704513Y-91008500D01*
X135895487Y-91008500D01*
X135901939Y-91007128D01*
X135901944Y-91007128D01*
X135988888Y-90988647D01*
X136082288Y-90968794D01*
X136088319Y-90966109D01*
X136250722Y-90893803D01*
X136250724Y-90893802D01*
X136256752Y-90891118D01*
X136270186Y-90881358D01*
X136312157Y-90850864D01*
X136411253Y-90778866D01*
X136444565Y-90741869D01*
X136534621Y-90641852D01*
X136534622Y-90641851D01*
X136539040Y-90636944D01*
X136634527Y-90471556D01*
X136693542Y-90289928D01*
X136710907Y-90124706D01*
X136737920Y-90059050D01*
X136747122Y-90048782D01*
X137150499Y-89645405D01*
X137212811Y-89611379D01*
X137239594Y-89608500D01*
X137703380Y-89608500D01*
X137771501Y-89628502D01*
X137817994Y-89682158D01*
X137828098Y-89752432D01*
X137806616Y-89803065D01*
X137808116Y-89804002D01*
X137804738Y-89809407D01*
X137800824Y-89814453D01*
X137798008Y-89820176D01*
X137798006Y-89820179D01*
X137750544Y-89916635D01*
X137714852Y-89989171D01*
X137713243Y-89995349D01*
X137713242Y-89995351D01*
X137677388Y-90132999D01*
X137665768Y-90177607D01*
X137665434Y-90183986D01*
X137659553Y-90296206D01*
X137655577Y-90372064D01*
X137684695Y-90564599D01*
X137686898Y-90570585D01*
X137686899Y-90570591D01*
X137749730Y-90741360D01*
X137749732Y-90741365D01*
X137751933Y-90747346D01*
X137773884Y-90782749D01*
X137842741Y-90893803D01*
X137854544Y-90912840D01*
X137858925Y-90917473D01*
X137858926Y-90917474D01*
X137933027Y-90995834D01*
X137988336Y-91054322D01*
X138147845Y-91166011D01*
X138180306Y-91180058D01*
X138320695Y-91240810D01*
X138320699Y-91240811D01*
X138326554Y-91243345D01*
X138332801Y-91244650D01*
X138332804Y-91244651D01*
X138512427Y-91282176D01*
X138512432Y-91282177D01*
X138517163Y-91283165D01*
X138523555Y-91283500D01*
X139328034Y-91283500D01*
X139396155Y-91303502D01*
X139442648Y-91357158D01*
X139452752Y-91427432D01*
X139423258Y-91492012D01*
X139402095Y-91511436D01*
X139388747Y-91521134D01*
X139384326Y-91526044D01*
X139384325Y-91526045D01*
X139314773Y-91603291D01*
X139260960Y-91663056D01*
X139165473Y-91828444D01*
X139106458Y-92010072D01*
X139086496Y-92200000D01*
X139106458Y-92389928D01*
X139165473Y-92571556D01*
X139260960Y-92736944D01*
X139263263Y-92739502D01*
X139286727Y-92805265D01*
X139270645Y-92874417D01*
X139227237Y-92919600D01*
X139175652Y-92951522D01*
X139050695Y-93076697D01*
X139046855Y-93082927D01*
X139046854Y-93082928D01*
X139035393Y-93101522D01*
X138957885Y-93227262D01*
X138933963Y-93299385D01*
X138906229Y-93383002D01*
X138902203Y-93395139D01*
X138891500Y-93499600D01*
X138891500Y-94500400D01*
X138902474Y-94606166D01*
X138958450Y-94773946D01*
X139051522Y-94924348D01*
X139176697Y-95049305D01*
X139182927Y-95053145D01*
X139182928Y-95053146D01*
X139320090Y-95137694D01*
X139327262Y-95142115D01*
X139407005Y-95168564D01*
X139488611Y-95195632D01*
X139488613Y-95195632D01*
X139495139Y-95197797D01*
X139501975Y-95198497D01*
X139501978Y-95198498D01*
X139545031Y-95202909D01*
X139599600Y-95208500D01*
X140400400Y-95208500D01*
X140403646Y-95208163D01*
X140403650Y-95208163D01*
X140499308Y-95198238D01*
X140499312Y-95198237D01*
X140506166Y-95197526D01*
X140512702Y-95195345D01*
X140512704Y-95195345D01*
X140644806Y-95151272D01*
X140673946Y-95141550D01*
X140824348Y-95048478D01*
X140910784Y-94961891D01*
X140973066Y-94927812D01*
X141043886Y-94932815D01*
X141088975Y-94961736D01*
X141124005Y-94996705D01*
X141176697Y-95049305D01*
X141182927Y-95053145D01*
X141182928Y-95053146D01*
X141320090Y-95137694D01*
X141327262Y-95142115D01*
X141407005Y-95168564D01*
X141488611Y-95195632D01*
X141488613Y-95195632D01*
X141495139Y-95197797D01*
X141501975Y-95198497D01*
X141501978Y-95198498D01*
X141545031Y-95202909D01*
X141599600Y-95208500D01*
X142400400Y-95208500D01*
X142403646Y-95208163D01*
X142403650Y-95208163D01*
X142499308Y-95198238D01*
X142499312Y-95198237D01*
X142506166Y-95197526D01*
X142512702Y-95195345D01*
X142512704Y-95195345D01*
X142644806Y-95151272D01*
X142673946Y-95141550D01*
X142680177Y-95137694D01*
X142686797Y-95134593D01*
X142688172Y-95137529D01*
X142742767Y-95122559D01*
X142810516Y-95143784D01*
X142856037Y-95198267D01*
X142866500Y-95248539D01*
X142866500Y-105521713D01*
X142846498Y-105589834D01*
X142829595Y-105610808D01*
X140701025Y-107739377D01*
X140638713Y-107773403D01*
X140572263Y-107769875D01*
X140514516Y-107750721D01*
X140514514Y-107750721D01*
X140507988Y-107748556D01*
X140501152Y-107747856D01*
X140501149Y-107747855D01*
X140458096Y-107743444D01*
X140403527Y-107737853D01*
X139602727Y-107737853D01*
X139599481Y-107738190D01*
X139599477Y-107738190D01*
X139503819Y-107748115D01*
X139503815Y-107748116D01*
X139496961Y-107748827D01*
X139490425Y-107751008D01*
X139490423Y-107751008D01*
X139423298Y-107773403D01*
X139329181Y-107804803D01*
X139178779Y-107897875D01*
X139173606Y-107903057D01*
X139056642Y-108020225D01*
X138994359Y-108054304D01*
X138923539Y-108049301D01*
X138916219Y-108046313D01*
X138888323Y-108033892D01*
X138888315Y-108033889D01*
X138882288Y-108031206D01*
X138788888Y-108011353D01*
X138701944Y-107992872D01*
X138701939Y-107992872D01*
X138695487Y-107991500D01*
X138504513Y-107991500D01*
X138498061Y-107992872D01*
X138498056Y-107992872D01*
X138411113Y-108011353D01*
X138317712Y-108031206D01*
X138311682Y-108033891D01*
X138311681Y-108033891D01*
X138149278Y-108106197D01*
X138149276Y-108106198D01*
X138143248Y-108108882D01*
X137988747Y-108221134D01*
X137860960Y-108363056D01*
X137765473Y-108528444D01*
X137706458Y-108710072D01*
X137705768Y-108716633D01*
X137705768Y-108716635D01*
X137695948Y-108810072D01*
X137686496Y-108900000D01*
X137687186Y-108906565D01*
X137696057Y-108990964D01*
X137706458Y-109089928D01*
X137765473Y-109271556D01*
X137860960Y-109436944D01*
X137865378Y-109441851D01*
X137865379Y-109441852D01*
X137975608Y-109564274D01*
X137988747Y-109578866D01*
X137997409Y-109585159D01*
X138126385Y-109678866D01*
X138143248Y-109691118D01*
X138149276Y-109693802D01*
X138149278Y-109693803D01*
X138232023Y-109730643D01*
X138317712Y-109768794D01*
X138404479Y-109787237D01*
X138498056Y-109807128D01*
X138498061Y-109807128D01*
X138504513Y-109808500D01*
X138695487Y-109808500D01*
X138701939Y-109807128D01*
X138701944Y-109807128D01*
X138875831Y-109770167D01*
X138875836Y-109770166D01*
X138882288Y-109768794D01*
X138882349Y-109769080D01*
X138949837Y-109767151D01*
X139010636Y-109803813D01*
X139024947Y-109822704D01*
X139054649Y-109870701D01*
X139059830Y-109875873D01*
X139059834Y-109875878D01*
X139066492Y-109882524D01*
X139100573Y-109944806D01*
X139095571Y-110015626D01*
X139066652Y-110060712D01*
X139050695Y-110076697D01*
X138957885Y-110227262D01*
X138955581Y-110234209D01*
X138909126Y-110374268D01*
X138902203Y-110395139D01*
X138891500Y-110499600D01*
X138891500Y-111500400D01*
X138891837Y-111503646D01*
X138891837Y-111503650D01*
X138901618Y-111597914D01*
X138902474Y-111606166D01*
X138958450Y-111773946D01*
X139051522Y-111924348D01*
X139176697Y-112049305D01*
X139182927Y-112053145D01*
X139182928Y-112053146D01*
X139320288Y-112137816D01*
X139327262Y-112142115D01*
X139407005Y-112168564D01*
X139488611Y-112195632D01*
X139488613Y-112195632D01*
X139495139Y-112197797D01*
X139501975Y-112198497D01*
X139501978Y-112198498D01*
X139545031Y-112202909D01*
X139599600Y-112208500D01*
X140350400Y-112208500D01*
X140353646Y-112208163D01*
X140353650Y-112208163D01*
X140449308Y-112198238D01*
X140449312Y-112198237D01*
X140456166Y-112197526D01*
X140462702Y-112195345D01*
X140462704Y-112195345D01*
X140594806Y-112151272D01*
X140623946Y-112141550D01*
X140774348Y-112048478D01*
X140899305Y-111923303D01*
X140901906Y-111919084D01*
X140959030Y-111878583D01*
X141029953Y-111875351D01*
X141091365Y-111910976D01*
X141097922Y-111918530D01*
X141101522Y-111924348D01*
X141226697Y-112049305D01*
X141232927Y-112053145D01*
X141232928Y-112053146D01*
X141370288Y-112137816D01*
X141377262Y-112142115D01*
X141457005Y-112168564D01*
X141538611Y-112195632D01*
X141538613Y-112195632D01*
X141545139Y-112197797D01*
X141551975Y-112198497D01*
X141551978Y-112198498D01*
X141595031Y-112202909D01*
X141649600Y-112208500D01*
X142400400Y-112208500D01*
X142403646Y-112208163D01*
X142403650Y-112208163D01*
X142499308Y-112198238D01*
X142499312Y-112198237D01*
X142506166Y-112197526D01*
X142512702Y-112195345D01*
X142512704Y-112195345D01*
X142644806Y-112151272D01*
X142673946Y-112141550D01*
X142824348Y-112048478D01*
X142949305Y-111923303D01*
X143042115Y-111772738D01*
X143097797Y-111604861D01*
X143108500Y-111500400D01*
X143108500Y-110499600D01*
X143098371Y-110401978D01*
X143098238Y-110400692D01*
X143098237Y-110400688D01*
X143097526Y-110393834D01*
X143041550Y-110226054D01*
X142948478Y-110075652D01*
X142943297Y-110070480D01*
X142943293Y-110070475D01*
X142936635Y-110063829D01*
X142902554Y-110001547D01*
X142907556Y-109930727D01*
X142936475Y-109885641D01*
X142952432Y-109869656D01*
X143014428Y-109769080D01*
X143041402Y-109725321D01*
X143041403Y-109725319D01*
X143045242Y-109719091D01*
X143089665Y-109585159D01*
X143098759Y-109557742D01*
X143098759Y-109557740D01*
X143100924Y-109551214D01*
X143111627Y-109446753D01*
X143111627Y-108445953D01*
X143110826Y-108438230D01*
X143101365Y-108347045D01*
X143101364Y-108347041D01*
X143100653Y-108340187D01*
X143094297Y-108321134D01*
X143046995Y-108179355D01*
X143044677Y-108172407D01*
X142951605Y-108022005D01*
X142826430Y-107897048D01*
X142675865Y-107804238D01*
X142669172Y-107802018D01*
X142615969Y-107755173D01*
X142596509Y-107686895D01*
X142617051Y-107618936D01*
X142633410Y-107598801D01*
X143776405Y-106455806D01*
X143838717Y-106421780D01*
X143909532Y-106426845D01*
X143966368Y-106469392D01*
X143991179Y-106535912D01*
X143991500Y-106544901D01*
X143991500Y-113365500D01*
X143971498Y-113433621D01*
X143917842Y-113480114D01*
X143865500Y-113491500D01*
X119134500Y-113491500D01*
X119066379Y-113471498D01*
X119019886Y-113417842D01*
X119008500Y-113365500D01*
X119008500Y-111500400D01*
X119891500Y-111500400D01*
X119891837Y-111503646D01*
X119891837Y-111503650D01*
X119901618Y-111597914D01*
X119902474Y-111606166D01*
X119958450Y-111773946D01*
X120051522Y-111924348D01*
X120176697Y-112049305D01*
X120182927Y-112053145D01*
X120182928Y-112053146D01*
X120320288Y-112137816D01*
X120327262Y-112142115D01*
X120407005Y-112168564D01*
X120488611Y-112195632D01*
X120488613Y-112195632D01*
X120495139Y-112197797D01*
X120501975Y-112198497D01*
X120501978Y-112198498D01*
X120545031Y-112202909D01*
X120599600Y-112208500D01*
X121350400Y-112208500D01*
X121353646Y-112208163D01*
X121353650Y-112208163D01*
X121449308Y-112198238D01*
X121449312Y-112198237D01*
X121456166Y-112197526D01*
X121462702Y-112195345D01*
X121462704Y-112195345D01*
X121594806Y-112151272D01*
X121623946Y-112141550D01*
X121774348Y-112048478D01*
X121899305Y-111923303D01*
X121902102Y-111918765D01*
X121959353Y-111878176D01*
X122030276Y-111874946D01*
X122091687Y-111910572D01*
X122099062Y-111919068D01*
X122107098Y-111929207D01*
X122221829Y-112043739D01*
X122233240Y-112052751D01*
X122371243Y-112137816D01*
X122384424Y-112143963D01*
X122538710Y-112195138D01*
X122552086Y-112198005D01*
X122646438Y-112207672D01*
X122652854Y-112208000D01*
X122752885Y-112208000D01*
X122768124Y-112203525D01*
X122769329Y-112202135D01*
X122771000Y-112194452D01*
X122771000Y-112189884D01*
X123279000Y-112189884D01*
X123283475Y-112205123D01*
X123284865Y-112206328D01*
X123292548Y-112207999D01*
X123397095Y-112207999D01*
X123403614Y-112207662D01*
X123499206Y-112197743D01*
X123512600Y-112194851D01*
X123666784Y-112143412D01*
X123679962Y-112137239D01*
X123817807Y-112051937D01*
X123829208Y-112042901D01*
X123943739Y-111928171D01*
X123952751Y-111916760D01*
X124037816Y-111778757D01*
X124043963Y-111765576D01*
X124095138Y-111611290D01*
X124098005Y-111597914D01*
X124107672Y-111503562D01*
X124108000Y-111497146D01*
X124108000Y-111272115D01*
X124103525Y-111256876D01*
X124102135Y-111255671D01*
X124094452Y-111254000D01*
X123297115Y-111254000D01*
X123281876Y-111258475D01*
X123280671Y-111259865D01*
X123279000Y-111267548D01*
X123279000Y-112189884D01*
X122771000Y-112189884D01*
X122771000Y-110872000D01*
X122791002Y-110803879D01*
X122844658Y-110757386D01*
X122897000Y-110746000D01*
X124089884Y-110746000D01*
X124105123Y-110741525D01*
X124106328Y-110740135D01*
X124107999Y-110732452D01*
X124107999Y-110502905D01*
X124107662Y-110496386D01*
X124097743Y-110400794D01*
X124094851Y-110387400D01*
X124043412Y-110233216D01*
X124037239Y-110220038D01*
X123951936Y-110082192D01*
X123942904Y-110070796D01*
X123940591Y-110068487D01*
X123939515Y-110066520D01*
X123938356Y-110065058D01*
X123938606Y-110064860D01*
X123906512Y-110006204D01*
X123911515Y-109935384D01*
X123940432Y-109890300D01*
X123948601Y-109882116D01*
X124010882Y-109848034D01*
X124081702Y-109853034D01*
X124089026Y-109856023D01*
X124105655Y-109863426D01*
X124117712Y-109868794D01*
X124206347Y-109887634D01*
X124298056Y-109907128D01*
X124298061Y-109907128D01*
X124304513Y-109908500D01*
X124495487Y-109908500D01*
X124501939Y-109907128D01*
X124501944Y-109907128D01*
X124593653Y-109887634D01*
X124682288Y-109868794D01*
X124694345Y-109863426D01*
X124850722Y-109793803D01*
X124850724Y-109793802D01*
X124856752Y-109791118D01*
X124885589Y-109770167D01*
X124990694Y-109693803D01*
X125011253Y-109678866D01*
X125115149Y-109563478D01*
X125134621Y-109541852D01*
X125134622Y-109541851D01*
X125139040Y-109536944D01*
X125234527Y-109371556D01*
X125263397Y-109282703D01*
X125580743Y-109282703D01*
X125618268Y-109567734D01*
X125694129Y-109845036D01*
X125695813Y-109848984D01*
X125792496Y-110075652D01*
X125806923Y-110109476D01*
X125954561Y-110356161D01*
X126134313Y-110580528D01*
X126151397Y-110596740D01*
X126320683Y-110757386D01*
X126342851Y-110778423D01*
X126576317Y-110946186D01*
X126580112Y-110948195D01*
X126580113Y-110948196D01*
X126601869Y-110959715D01*
X126830392Y-111080712D01*
X127100373Y-111179511D01*
X127381264Y-111240755D01*
X127409841Y-111243004D01*
X127604282Y-111258307D01*
X127604291Y-111258307D01*
X127606739Y-111258500D01*
X127762271Y-111258500D01*
X127764407Y-111258354D01*
X127764418Y-111258354D01*
X127972548Y-111244165D01*
X127972554Y-111244164D01*
X127976825Y-111243873D01*
X127981020Y-111243004D01*
X127981022Y-111243004D01*
X128117584Y-111214723D01*
X128258342Y-111185574D01*
X128529343Y-111089607D01*
X128784812Y-110957750D01*
X128788313Y-110955289D01*
X128788317Y-110955287D01*
X129003748Y-110803879D01*
X129020023Y-110792441D01*
X129230622Y-110596740D01*
X129412713Y-110374268D01*
X129562927Y-110129142D01*
X129586408Y-110075652D01*
X129676757Y-109869830D01*
X129678483Y-109865898D01*
X129682148Y-109853034D01*
X129727506Y-109693803D01*
X129757244Y-109589406D01*
X129797751Y-109304784D01*
X129797845Y-109286951D01*
X129797867Y-109282703D01*
X133200743Y-109282703D01*
X133238268Y-109567734D01*
X133314129Y-109845036D01*
X133315813Y-109848984D01*
X133412496Y-110075652D01*
X133426923Y-110109476D01*
X133574561Y-110356161D01*
X133754313Y-110580528D01*
X133771397Y-110596740D01*
X133940683Y-110757386D01*
X133962851Y-110778423D01*
X134196317Y-110946186D01*
X134200112Y-110948195D01*
X134200113Y-110948196D01*
X134221869Y-110959715D01*
X134450392Y-111080712D01*
X134720373Y-111179511D01*
X135001264Y-111240755D01*
X135029841Y-111243004D01*
X135224282Y-111258307D01*
X135224291Y-111258307D01*
X135226739Y-111258500D01*
X135382271Y-111258500D01*
X135384407Y-111258354D01*
X135384418Y-111258354D01*
X135592548Y-111244165D01*
X135592554Y-111244164D01*
X135596825Y-111243873D01*
X135601020Y-111243004D01*
X135601022Y-111243004D01*
X135737584Y-111214723D01*
X135878342Y-111185574D01*
X136149343Y-111089607D01*
X136404812Y-110957750D01*
X136408313Y-110955289D01*
X136408317Y-110955287D01*
X136623748Y-110803879D01*
X136640023Y-110792441D01*
X136850622Y-110596740D01*
X137032713Y-110374268D01*
X137182927Y-110129142D01*
X137206408Y-110075652D01*
X137296757Y-109869830D01*
X137298483Y-109865898D01*
X137302148Y-109853034D01*
X137347506Y-109693803D01*
X137377244Y-109589406D01*
X137417751Y-109304784D01*
X137417845Y-109286951D01*
X137419235Y-109021583D01*
X137419235Y-109021576D01*
X137419257Y-109017297D01*
X137381732Y-108732266D01*
X137375661Y-108710072D01*
X137309649Y-108468774D01*
X137305871Y-108454964D01*
X137256914Y-108340187D01*
X137194763Y-108194476D01*
X137194761Y-108194472D01*
X137193077Y-108190524D01*
X137108557Y-108049301D01*
X137047643Y-107947521D01*
X137047640Y-107947517D01*
X137045439Y-107943839D01*
X136865687Y-107719472D01*
X136657149Y-107521577D01*
X136423683Y-107353814D01*
X136401843Y-107342250D01*
X136378654Y-107329972D01*
X136169608Y-107219288D01*
X135899627Y-107120489D01*
X135618736Y-107059245D01*
X135587685Y-107056801D01*
X135395718Y-107041693D01*
X135395709Y-107041693D01*
X135393261Y-107041500D01*
X135237729Y-107041500D01*
X135235593Y-107041646D01*
X135235582Y-107041646D01*
X135027452Y-107055835D01*
X135027446Y-107055836D01*
X135023175Y-107056127D01*
X135018980Y-107056996D01*
X135018978Y-107056996D01*
X134882417Y-107085276D01*
X134741658Y-107114426D01*
X134470657Y-107210393D01*
X134215188Y-107342250D01*
X134211687Y-107344711D01*
X134211683Y-107344713D01*
X134201594Y-107351804D01*
X133979977Y-107507559D01*
X133964892Y-107521577D01*
X133786989Y-107686895D01*
X133769378Y-107703260D01*
X133587287Y-107925732D01*
X133437073Y-108170858D01*
X133321517Y-108434102D01*
X133242756Y-108710594D01*
X133202249Y-108995216D01*
X133202227Y-108999505D01*
X133202226Y-108999512D01*
X133201263Y-109183365D01*
X133200743Y-109282703D01*
X129797867Y-109282703D01*
X129799235Y-109021583D01*
X129799235Y-109021576D01*
X129799257Y-109017297D01*
X129761732Y-108732266D01*
X129755661Y-108710072D01*
X129689649Y-108468774D01*
X129685871Y-108454964D01*
X129636914Y-108340187D01*
X129574763Y-108194476D01*
X129574761Y-108194472D01*
X129573077Y-108190524D01*
X129488557Y-108049301D01*
X129427643Y-107947521D01*
X129427640Y-107947517D01*
X129425439Y-107943839D01*
X129245687Y-107719472D01*
X129037149Y-107521577D01*
X128803683Y-107353814D01*
X128781843Y-107342250D01*
X128758654Y-107329972D01*
X128549608Y-107219288D01*
X128279627Y-107120489D01*
X127998736Y-107059245D01*
X127967685Y-107056801D01*
X127775718Y-107041693D01*
X127775709Y-107041693D01*
X127773261Y-107041500D01*
X127617729Y-107041500D01*
X127615593Y-107041646D01*
X127615582Y-107041646D01*
X127407452Y-107055835D01*
X127407446Y-107055836D01*
X127403175Y-107056127D01*
X127398980Y-107056996D01*
X127398978Y-107056996D01*
X127262417Y-107085276D01*
X127121658Y-107114426D01*
X126850657Y-107210393D01*
X126595188Y-107342250D01*
X126591687Y-107344711D01*
X126591683Y-107344713D01*
X126581594Y-107351804D01*
X126359977Y-107507559D01*
X126344892Y-107521577D01*
X126166989Y-107686895D01*
X126149378Y-107703260D01*
X125967287Y-107925732D01*
X125817073Y-108170858D01*
X125701517Y-108434102D01*
X125622756Y-108710594D01*
X125582249Y-108995216D01*
X125582227Y-108999505D01*
X125582226Y-108999512D01*
X125581263Y-109183365D01*
X125580743Y-109282703D01*
X125263397Y-109282703D01*
X125293542Y-109189928D01*
X125303393Y-109096206D01*
X125312814Y-109006565D01*
X125313504Y-109000000D01*
X125293542Y-108810072D01*
X125234527Y-108628444D01*
X125139040Y-108463056D01*
X125123641Y-108445953D01*
X125015675Y-108326045D01*
X125015674Y-108326044D01*
X125011253Y-108321134D01*
X124880375Y-108226045D01*
X124862094Y-108212763D01*
X124862093Y-108212762D01*
X124856752Y-108208882D01*
X124850724Y-108206198D01*
X124850722Y-108206197D01*
X124688319Y-108133891D01*
X124688318Y-108133891D01*
X124682288Y-108131206D01*
X124588888Y-108111353D01*
X124501944Y-108092872D01*
X124501939Y-108092872D01*
X124495487Y-108091500D01*
X124304513Y-108091500D01*
X124298061Y-108092872D01*
X124298056Y-108092872D01*
X124184390Y-108117033D01*
X124117712Y-108131206D01*
X124117632Y-108130830D01*
X124050469Y-108132750D01*
X123989670Y-108096089D01*
X123975358Y-108077198D01*
X123948478Y-108033760D01*
X123936703Y-108022005D01*
X123828483Y-107913974D01*
X123823303Y-107908803D01*
X123817072Y-107904962D01*
X123678968Y-107819833D01*
X123678966Y-107819832D01*
X123672738Y-107815993D01*
X123592995Y-107789544D01*
X123511389Y-107762476D01*
X123511387Y-107762476D01*
X123504861Y-107760311D01*
X123498025Y-107759611D01*
X123498022Y-107759610D01*
X123454714Y-107755173D01*
X123400400Y-107749608D01*
X122599600Y-107749608D01*
X122596354Y-107749945D01*
X122596350Y-107749945D01*
X122500692Y-107759870D01*
X122500688Y-107759871D01*
X122493834Y-107760582D01*
X122487298Y-107762763D01*
X122487296Y-107762763D01*
X122392619Y-107794350D01*
X122326054Y-107816558D01*
X122175652Y-107909630D01*
X122170479Y-107914812D01*
X122089216Y-107996217D01*
X122026934Y-108030296D01*
X121956114Y-108025293D01*
X121911025Y-107996372D01*
X121828483Y-107913974D01*
X121823303Y-107908803D01*
X121817072Y-107904962D01*
X121678968Y-107819833D01*
X121678966Y-107819832D01*
X121672738Y-107815993D01*
X121592995Y-107789544D01*
X121511389Y-107762476D01*
X121511387Y-107762476D01*
X121504861Y-107760311D01*
X121498025Y-107759611D01*
X121498022Y-107759610D01*
X121454714Y-107755173D01*
X121400400Y-107749608D01*
X120599600Y-107749608D01*
X120596354Y-107749945D01*
X120596350Y-107749945D01*
X120500692Y-107759870D01*
X120500688Y-107759871D01*
X120493834Y-107760582D01*
X120487298Y-107762763D01*
X120487296Y-107762763D01*
X120392619Y-107794350D01*
X120326054Y-107816558D01*
X120175652Y-107909630D01*
X120050695Y-108034805D01*
X120046855Y-108041035D01*
X120046854Y-108041036D01*
X119965876Y-108172407D01*
X119957885Y-108185370D01*
X119902203Y-108353247D01*
X119891500Y-108457708D01*
X119891500Y-109458508D01*
X119891837Y-109461754D01*
X119891837Y-109461758D01*
X119900148Y-109541852D01*
X119902474Y-109564274D01*
X119904655Y-109570810D01*
X119904655Y-109570812D01*
X119943498Y-109687237D01*
X119958450Y-109732054D01*
X120051522Y-109882456D01*
X120056704Y-109887629D01*
X120056708Y-109887634D01*
X120059055Y-109889977D01*
X120060148Y-109891974D01*
X120061251Y-109893366D01*
X120061013Y-109893555D01*
X120093134Y-109952259D01*
X120088131Y-110023080D01*
X120059211Y-110068166D01*
X120050695Y-110076697D01*
X120046855Y-110082927D01*
X120046854Y-110082928D01*
X120030490Y-110109476D01*
X119957885Y-110227262D01*
X119955581Y-110234209D01*
X119909126Y-110374268D01*
X119902203Y-110395139D01*
X119891500Y-110499600D01*
X119891500Y-111500400D01*
X119008500Y-111500400D01*
X119008500Y-100274380D01*
X119028502Y-100206259D01*
X119082158Y-100159766D01*
X119152432Y-100149662D01*
X119217012Y-100179156D01*
X119240174Y-100207816D01*
X119240448Y-100207617D01*
X119244317Y-100212943D01*
X119244322Y-100212949D01*
X119256379Y-100229544D01*
X119266436Y-100243387D01*
X119272952Y-100253307D01*
X119285415Y-100274380D01*
X119295458Y-100291362D01*
X119309779Y-100305683D01*
X119322619Y-100320716D01*
X119334528Y-100337107D01*
X119365254Y-100362526D01*
X119368605Y-100365298D01*
X119377384Y-100373288D01*
X120396348Y-101392253D01*
X120403888Y-101400539D01*
X120408000Y-101407018D01*
X120413777Y-101412443D01*
X120457651Y-101453643D01*
X120460493Y-101456398D01*
X120480230Y-101476135D01*
X120483427Y-101478615D01*
X120492447Y-101486318D01*
X120524679Y-101516586D01*
X120531620Y-101520402D01*
X120531627Y-101520407D01*
X120533089Y-101521210D01*
X120534015Y-101522141D01*
X120538039Y-101525065D01*
X120537567Y-101525714D01*
X120583148Y-101571555D01*
X120597652Y-101645232D01*
X120592824Y-101689676D01*
X120591500Y-101701866D01*
X120591500Y-105298134D01*
X120598255Y-105360316D01*
X120649385Y-105496705D01*
X120736739Y-105613261D01*
X120853295Y-105700615D01*
X120989684Y-105751745D01*
X121051866Y-105758500D01*
X122948134Y-105758500D01*
X123010316Y-105751745D01*
X123146705Y-105700615D01*
X123263261Y-105613261D01*
X123350615Y-105496705D01*
X123401745Y-105360316D01*
X123408500Y-105298134D01*
X123408500Y-104259500D01*
X123428502Y-104191379D01*
X123482158Y-104144886D01*
X123534500Y-104133500D01*
X123791800Y-104133500D01*
X123859921Y-104153502D01*
X123879147Y-104169843D01*
X123879420Y-104169540D01*
X123884332Y-104173963D01*
X123888747Y-104178866D01*
X124043248Y-104291118D01*
X124049276Y-104293802D01*
X124049278Y-104293803D01*
X124211681Y-104366109D01*
X124217712Y-104368794D01*
X124311113Y-104388647D01*
X124398056Y-104407128D01*
X124398061Y-104407128D01*
X124404513Y-104408500D01*
X124595487Y-104408500D01*
X124601939Y-104407128D01*
X124601944Y-104407128D01*
X124688887Y-104388647D01*
X124782288Y-104368794D01*
X124788319Y-104366109D01*
X124950722Y-104293803D01*
X124950724Y-104293802D01*
X124956752Y-104291118D01*
X125111253Y-104178866D01*
X125147852Y-104138219D01*
X125234621Y-104041852D01*
X125234622Y-104041851D01*
X125239040Y-104036944D01*
X125314341Y-103906519D01*
X125331223Y-103877279D01*
X125331224Y-103877278D01*
X125334527Y-103871556D01*
X125393542Y-103689928D01*
X125413504Y-103500000D01*
X125410632Y-103472676D01*
X125394232Y-103316635D01*
X125394232Y-103316633D01*
X125393542Y-103310072D01*
X125334527Y-103128444D01*
X125239040Y-102963056D01*
X125204854Y-102925088D01*
X125115675Y-102826045D01*
X125115674Y-102826044D01*
X125111253Y-102821134D01*
X124956752Y-102708882D01*
X124950724Y-102706198D01*
X124950722Y-102706197D01*
X124788319Y-102633891D01*
X124788318Y-102633891D01*
X124782288Y-102631206D01*
X124688888Y-102611353D01*
X124601944Y-102592872D01*
X124601939Y-102592872D01*
X124595487Y-102591500D01*
X124404513Y-102591500D01*
X124398061Y-102592872D01*
X124398056Y-102592872D01*
X124311113Y-102611353D01*
X124217712Y-102631206D01*
X124211682Y-102633891D01*
X124211681Y-102633891D01*
X124049278Y-102706197D01*
X124049276Y-102706198D01*
X124043248Y-102708882D01*
X123888747Y-102821134D01*
X123884332Y-102826037D01*
X123879420Y-102830460D01*
X123878295Y-102829211D01*
X123824986Y-102862051D01*
X123791800Y-102866500D01*
X123534500Y-102866500D01*
X123466379Y-102846498D01*
X123419886Y-102792842D01*
X123408500Y-102740500D01*
X123408500Y-101759500D01*
X123428502Y-101691379D01*
X123482158Y-101644886D01*
X123534500Y-101633500D01*
X127480406Y-101633500D01*
X127548527Y-101653502D01*
X127569501Y-101670405D01*
X128413771Y-102514675D01*
X128447797Y-102576987D01*
X128449803Y-102618579D01*
X128431936Y-102769544D01*
X128445861Y-102982006D01*
X128447282Y-102987602D01*
X128447283Y-102987607D01*
X128483052Y-103128444D01*
X128498272Y-103188372D01*
X128500689Y-103193615D01*
X128563597Y-103330073D01*
X128587411Y-103381731D01*
X128710296Y-103555609D01*
X128862809Y-103704181D01*
X128867605Y-103707386D01*
X128867608Y-103707388D01*
X128939088Y-103755149D01*
X129039843Y-103822471D01*
X129045146Y-103824749D01*
X129045149Y-103824751D01*
X129222685Y-103901026D01*
X129235470Y-103906519D01*
X129261651Y-103912443D01*
X129437501Y-103952234D01*
X129437506Y-103952235D01*
X129443138Y-103953509D01*
X129448909Y-103953736D01*
X129448911Y-103953736D01*
X129510252Y-103956146D01*
X129655891Y-103961869D01*
X129661600Y-103961041D01*
X129661604Y-103961041D01*
X129860890Y-103932145D01*
X129860894Y-103932144D01*
X129866605Y-103931316D01*
X130068223Y-103862876D01*
X130253993Y-103758840D01*
X130417693Y-103622693D01*
X130553840Y-103458993D01*
X130657876Y-103273223D01*
X130726316Y-103071605D01*
X130738202Y-102989634D01*
X130767773Y-102925088D01*
X130827545Y-102886776D01*
X130898541Y-102886862D01*
X130958221Y-102925317D01*
X130984694Y-102982302D01*
X130985861Y-102982006D01*
X131038272Y-103188372D01*
X131040689Y-103193615D01*
X131103597Y-103330073D01*
X131127411Y-103381731D01*
X131250296Y-103555609D01*
X131402809Y-103704181D01*
X131407605Y-103707386D01*
X131407608Y-103707388D01*
X131479088Y-103755149D01*
X131579843Y-103822471D01*
X131585146Y-103824749D01*
X131585149Y-103824751D01*
X131762685Y-103901026D01*
X131775470Y-103906519D01*
X131801651Y-103912443D01*
X131977501Y-103952234D01*
X131977506Y-103952235D01*
X131983138Y-103953509D01*
X131988909Y-103953736D01*
X131988911Y-103953736D01*
X132050252Y-103956146D01*
X132195891Y-103961869D01*
X132201600Y-103961041D01*
X132201604Y-103961041D01*
X132400890Y-103932145D01*
X132400894Y-103932144D01*
X132406605Y-103931316D01*
X132608223Y-103862876D01*
X132793993Y-103758840D01*
X132957693Y-103622693D01*
X133082460Y-103472676D01*
X133141397Y-103433092D01*
X133151281Y-103430762D01*
X133154127Y-103430673D01*
X133173581Y-103425021D01*
X133192938Y-103421013D01*
X133205168Y-103419468D01*
X133205169Y-103419468D01*
X133213035Y-103418474D01*
X133220406Y-103415555D01*
X133220408Y-103415555D01*
X133254150Y-103402196D01*
X133265380Y-103398351D01*
X133300221Y-103388229D01*
X133300222Y-103388229D01*
X133307831Y-103386018D01*
X133314650Y-103381985D01*
X133314655Y-103381983D01*
X133325266Y-103375707D01*
X133343014Y-103367012D01*
X133361855Y-103359552D01*
X133397625Y-103333564D01*
X133407545Y-103327048D01*
X133438773Y-103308580D01*
X133438776Y-103308578D01*
X133445600Y-103304542D01*
X133459921Y-103290221D01*
X133474955Y-103277380D01*
X133491345Y-103265472D01*
X133519536Y-103231395D01*
X133527526Y-103222616D01*
X134772247Y-101977895D01*
X134780537Y-101970351D01*
X134787018Y-101966238D01*
X134833659Y-101916570D01*
X134836413Y-101913729D01*
X134856135Y-101894007D01*
X134858612Y-101890814D01*
X134866317Y-101881793D01*
X134884388Y-101862549D01*
X134896586Y-101849559D01*
X134900407Y-101842609D01*
X134906346Y-101831806D01*
X134917202Y-101815279D01*
X134924757Y-101805540D01*
X134924758Y-101805538D01*
X134929614Y-101799278D01*
X134947174Y-101758698D01*
X134952391Y-101748050D01*
X134969875Y-101716247D01*
X134969876Y-101716245D01*
X134973695Y-101709298D01*
X134976476Y-101698469D01*
X134978733Y-101689676D01*
X134985137Y-101670972D01*
X134990033Y-101659658D01*
X134990033Y-101659657D01*
X134993181Y-101652383D01*
X134994420Y-101644560D01*
X134994423Y-101644550D01*
X135000099Y-101608714D01*
X135002505Y-101597094D01*
X135011528Y-101561949D01*
X135011528Y-101561948D01*
X135013500Y-101554268D01*
X135013500Y-101534014D01*
X135015051Y-101514303D01*
X135016980Y-101502124D01*
X135018220Y-101494295D01*
X135016733Y-101478559D01*
X135014059Y-101450277D01*
X135013500Y-101438419D01*
X135013500Y-101213594D01*
X135033502Y-101145473D01*
X135087158Y-101098980D01*
X135157432Y-101088876D01*
X135222012Y-101118370D01*
X135228595Y-101124499D01*
X137996343Y-103892247D01*
X138003887Y-103900537D01*
X138008000Y-103907018D01*
X138013777Y-103912443D01*
X138057667Y-103953658D01*
X138060509Y-103956413D01*
X138080230Y-103976134D01*
X138083425Y-103978612D01*
X138092447Y-103986318D01*
X138124679Y-104016586D01*
X138131628Y-104020406D01*
X138142432Y-104026346D01*
X138158956Y-104037199D01*
X138174959Y-104049613D01*
X138215543Y-104067176D01*
X138226173Y-104072383D01*
X138264940Y-104093695D01*
X138272617Y-104095666D01*
X138272622Y-104095668D01*
X138284558Y-104098732D01*
X138303266Y-104105137D01*
X138321855Y-104113181D01*
X138329680Y-104114420D01*
X138329682Y-104114421D01*
X138365519Y-104120097D01*
X138377140Y-104122504D01*
X138412289Y-104131528D01*
X138419970Y-104133500D01*
X138440231Y-104133500D01*
X138459940Y-104135051D01*
X138479943Y-104138219D01*
X138487835Y-104137473D01*
X138493062Y-104136979D01*
X138523954Y-104134059D01*
X138535811Y-104133500D01*
X139465500Y-104133500D01*
X139533621Y-104153502D01*
X139580114Y-104207158D01*
X139591500Y-104259500D01*
X139591500Y-105298134D01*
X139598255Y-105360316D01*
X139649385Y-105496705D01*
X139736739Y-105613261D01*
X139853295Y-105700615D01*
X139989684Y-105751745D01*
X140051866Y-105758500D01*
X141948134Y-105758500D01*
X142010316Y-105751745D01*
X142146705Y-105700615D01*
X142263261Y-105613261D01*
X142350615Y-105496705D01*
X142401745Y-105360316D01*
X142408500Y-105298134D01*
X142408500Y-101701866D01*
X142401745Y-101639684D01*
X142350615Y-101503295D01*
X142263261Y-101386739D01*
X142146705Y-101299385D01*
X142010316Y-101248255D01*
X141948134Y-101241500D01*
X140051866Y-101241500D01*
X139989684Y-101248255D01*
X139853295Y-101299385D01*
X139736739Y-101386739D01*
X139649385Y-101503295D01*
X139598255Y-101639684D01*
X139591500Y-101701866D01*
X139591500Y-102740500D01*
X139571498Y-102808621D01*
X139517842Y-102855114D01*
X139465500Y-102866500D01*
X138814595Y-102866500D01*
X138746474Y-102846498D01*
X138725500Y-102829595D01*
X134870218Y-98974313D01*
X134857376Y-98959278D01*
X134845472Y-98942893D01*
X134811406Y-98914711D01*
X134802627Y-98906722D01*
X134395905Y-98500000D01*
X137486496Y-98500000D01*
X137506458Y-98689928D01*
X137565473Y-98871556D01*
X137660960Y-99036944D01*
X137665378Y-99041851D01*
X137665379Y-99041852D01*
X137747452Y-99133003D01*
X137788747Y-99178866D01*
X137943248Y-99291118D01*
X137949276Y-99293802D01*
X137949278Y-99293803D01*
X138046218Y-99336963D01*
X138117712Y-99368794D01*
X138211113Y-99388647D01*
X138298056Y-99407128D01*
X138298061Y-99407128D01*
X138304513Y-99408500D01*
X138495487Y-99408500D01*
X138501939Y-99407128D01*
X138501944Y-99407128D01*
X138588887Y-99388647D01*
X138682288Y-99368794D01*
X138753782Y-99336963D01*
X138850722Y-99293803D01*
X138850724Y-99293802D01*
X138856752Y-99291118D01*
X139011253Y-99178866D01*
X139015668Y-99173963D01*
X139020580Y-99169540D01*
X139021705Y-99170789D01*
X139075014Y-99137949D01*
X139108200Y-99133500D01*
X139465500Y-99133500D01*
X139533621Y-99153502D01*
X139580114Y-99207158D01*
X139591500Y-99259500D01*
X139591500Y-100298134D01*
X139598255Y-100360316D01*
X139649385Y-100496705D01*
X139736739Y-100613261D01*
X139853295Y-100700615D01*
X139989684Y-100751745D01*
X140051866Y-100758500D01*
X141948134Y-100758500D01*
X142010316Y-100751745D01*
X142146705Y-100700615D01*
X142263261Y-100613261D01*
X142350615Y-100496705D01*
X142401745Y-100360316D01*
X142408500Y-100298134D01*
X142408500Y-96701866D01*
X142401745Y-96639684D01*
X142350615Y-96503295D01*
X142263261Y-96386739D01*
X142146705Y-96299385D01*
X142010316Y-96248255D01*
X141948134Y-96241500D01*
X140051866Y-96241500D01*
X139989684Y-96248255D01*
X139853295Y-96299385D01*
X139736739Y-96386739D01*
X139649385Y-96503295D01*
X139598255Y-96639684D01*
X139591500Y-96701866D01*
X139591500Y-97740500D01*
X139571498Y-97808621D01*
X139517842Y-97855114D01*
X139465500Y-97866500D01*
X139108200Y-97866500D01*
X139040079Y-97846498D01*
X139020853Y-97830157D01*
X139020580Y-97830460D01*
X139015668Y-97826037D01*
X139011253Y-97821134D01*
X138856752Y-97708882D01*
X138850724Y-97706198D01*
X138850722Y-97706197D01*
X138688319Y-97633891D01*
X138688318Y-97633891D01*
X138682288Y-97631206D01*
X138588887Y-97611353D01*
X138501944Y-97592872D01*
X138501939Y-97592872D01*
X138495487Y-97591500D01*
X138304513Y-97591500D01*
X138298061Y-97592872D01*
X138298056Y-97592872D01*
X138211112Y-97611353D01*
X138117712Y-97631206D01*
X138111682Y-97633891D01*
X138111681Y-97633891D01*
X137949278Y-97706197D01*
X137949276Y-97706198D01*
X137943248Y-97708882D01*
X137788747Y-97821134D01*
X137784326Y-97826044D01*
X137784325Y-97826045D01*
X137750492Y-97863621D01*
X137660960Y-97963056D01*
X137565473Y-98128444D01*
X137506458Y-98310072D01*
X137486496Y-98500000D01*
X134395905Y-98500000D01*
X132145405Y-96249500D01*
X132111379Y-96187188D01*
X132108500Y-96160405D01*
X132108500Y-95499600D01*
X132108163Y-95496350D01*
X132098238Y-95400692D01*
X132098237Y-95400688D01*
X132097526Y-95393834D01*
X132041550Y-95226054D01*
X131948478Y-95075652D01*
X131823303Y-94950695D01*
X131817072Y-94946854D01*
X131678968Y-94861725D01*
X131678966Y-94861724D01*
X131672738Y-94857885D01*
X131512254Y-94804655D01*
X131511389Y-94804368D01*
X131511387Y-94804368D01*
X131504861Y-94802203D01*
X131498025Y-94801503D01*
X131498022Y-94801502D01*
X131446656Y-94796239D01*
X131380929Y-94769397D01*
X131340148Y-94711282D01*
X131333500Y-94670895D01*
X131333500Y-94070858D01*
X131353502Y-94002737D01*
X131407158Y-93956244D01*
X131477432Y-93946140D01*
X131505881Y-93953705D01*
X131507044Y-93954165D01*
X131522612Y-93958119D01*
X131600502Y-93967544D01*
X131608057Y-93968000D01*
X131632885Y-93968000D01*
X131648124Y-93963525D01*
X131649329Y-93962135D01*
X131651000Y-93954452D01*
X131651000Y-93949885D01*
X132159000Y-93949885D01*
X132163475Y-93965124D01*
X132164865Y-93966329D01*
X132172548Y-93968000D01*
X132201943Y-93968000D01*
X132209498Y-93967544D01*
X132287388Y-93958119D01*
X132302953Y-93954166D01*
X132427549Y-93904835D01*
X132442380Y-93896478D01*
X132548725Y-93815757D01*
X132560757Y-93803725D01*
X132641478Y-93697380D01*
X132649835Y-93682549D01*
X132699166Y-93557953D01*
X132703119Y-93542388D01*
X132712544Y-93464498D01*
X132713000Y-93456943D01*
X132713000Y-92747115D01*
X132708525Y-92731876D01*
X132707135Y-92730671D01*
X132699452Y-92729000D01*
X132177115Y-92729000D01*
X132161876Y-92733475D01*
X132160671Y-92734865D01*
X132159000Y-92742548D01*
X132159000Y-93949885D01*
X131651000Y-93949885D01*
X131651000Y-92202885D01*
X132159000Y-92202885D01*
X132163475Y-92218124D01*
X132164865Y-92219329D01*
X132172548Y-92221000D01*
X132694885Y-92221000D01*
X132710124Y-92216525D01*
X132711329Y-92215135D01*
X132713000Y-92207452D01*
X132713000Y-91493057D01*
X132712544Y-91485502D01*
X132703119Y-91407612D01*
X132699166Y-91392047D01*
X132649835Y-91267451D01*
X132641478Y-91252620D01*
X132560757Y-91146275D01*
X132548725Y-91134243D01*
X132442380Y-91053522D01*
X132427549Y-91045165D01*
X132302953Y-90995834D01*
X132287388Y-90991881D01*
X132209498Y-90982456D01*
X132201943Y-90982000D01*
X132177115Y-90982000D01*
X132161876Y-90986475D01*
X132160671Y-90987865D01*
X132159000Y-90995548D01*
X132159000Y-92202885D01*
X131651000Y-92202885D01*
X131651000Y-91000115D01*
X131646525Y-90984876D01*
X131645135Y-90983671D01*
X131637452Y-90982000D01*
X131608057Y-90982000D01*
X131600502Y-90982456D01*
X131522612Y-90991881D01*
X131507047Y-90995834D01*
X131382451Y-91045165D01*
X131367624Y-91053520D01*
X131346595Y-91069482D01*
X131280242Y-91094736D01*
X131210768Y-91080108D01*
X131194235Y-91069483D01*
X131172624Y-91053079D01*
X131172621Y-91053077D01*
X131165783Y-91047887D01*
X131053156Y-91003295D01*
X131033077Y-90995345D01*
X131033075Y-90995344D01*
X131025547Y-90992364D01*
X130935772Y-90981500D01*
X130334228Y-90981500D01*
X130244453Y-90992364D01*
X130236925Y-90995344D01*
X130236923Y-90995345D01*
X130216844Y-91003295D01*
X130104217Y-91047887D01*
X130076179Y-91069169D01*
X130009826Y-91094422D01*
X129940353Y-91079794D01*
X129923821Y-91069169D01*
X129895783Y-91047887D01*
X129783156Y-91003295D01*
X129763077Y-90995345D01*
X129763075Y-90995344D01*
X129755547Y-90992364D01*
X129665772Y-90981500D01*
X129064228Y-90981500D01*
X128974453Y-90992364D01*
X128966925Y-90995344D01*
X128966923Y-90995345D01*
X128946844Y-91003295D01*
X128834217Y-91047887D01*
X128806179Y-91069169D01*
X128739826Y-91094422D01*
X128670353Y-91079794D01*
X128653821Y-91069169D01*
X128625783Y-91047887D01*
X128513156Y-91003295D01*
X128493077Y-90995345D01*
X128493075Y-90995344D01*
X128485547Y-90992364D01*
X128395772Y-90981500D01*
X127794228Y-90981500D01*
X127704453Y-90992364D01*
X127696925Y-90995344D01*
X127696923Y-90995345D01*
X127655608Y-91011703D01*
X127564217Y-91047887D01*
X127444078Y-91139078D01*
X127352887Y-91259217D01*
X127349724Y-91267206D01*
X127341932Y-91286885D01*
X127298258Y-91342858D01*
X127224781Y-91366500D01*
X126908200Y-91366500D01*
X126840079Y-91346498D01*
X126820853Y-91330157D01*
X126820580Y-91330460D01*
X126815668Y-91326037D01*
X126811253Y-91321134D01*
X126781834Y-91299760D01*
X126662094Y-91212763D01*
X126662093Y-91212762D01*
X126656752Y-91208882D01*
X126650724Y-91206198D01*
X126650722Y-91206197D01*
X126488319Y-91133891D01*
X126488316Y-91133890D01*
X126482288Y-91131206D01*
X126388888Y-91111353D01*
X126301944Y-91092872D01*
X126301939Y-91092872D01*
X126295487Y-91091500D01*
X126104513Y-91091500D01*
X126098061Y-91092872D01*
X126098056Y-91092872D01*
X126011112Y-91111353D01*
X125917712Y-91131206D01*
X125911684Y-91133890D01*
X125911681Y-91133891D01*
X125749278Y-91206197D01*
X125749276Y-91206198D01*
X125743248Y-91208882D01*
X125737907Y-91212762D01*
X125737906Y-91212763D01*
X125706621Y-91235493D01*
X125613016Y-91303502D01*
X125611042Y-91304936D01*
X125544175Y-91328794D01*
X125536981Y-91329000D01*
X125254046Y-91329000D01*
X125185925Y-91308998D01*
X125146902Y-91269303D01*
X125077332Y-91156880D01*
X125073478Y-91150652D01*
X124948303Y-91025695D01*
X124942072Y-91021854D01*
X124803968Y-90936725D01*
X124803966Y-90936724D01*
X124797738Y-90932885D01*
X124717995Y-90906436D01*
X124636389Y-90879368D01*
X124636387Y-90879368D01*
X124629861Y-90877203D01*
X124623025Y-90876503D01*
X124623022Y-90876502D01*
X124579969Y-90872091D01*
X124525400Y-90866500D01*
X123474600Y-90866500D01*
X123471354Y-90866837D01*
X123471350Y-90866837D01*
X123375692Y-90876762D01*
X123375688Y-90876763D01*
X123368834Y-90877474D01*
X123362298Y-90879655D01*
X123362296Y-90879655D01*
X123248940Y-90917474D01*
X123201054Y-90933450D01*
X123050652Y-91026522D01*
X122925695Y-91151697D01*
X122921855Y-91157927D01*
X122921854Y-91157928D01*
X122838067Y-91293856D01*
X122832885Y-91302262D01*
X122811578Y-91366500D01*
X122792169Y-91425019D01*
X122777203Y-91470139D01*
X122766500Y-91574600D01*
X122766500Y-92350400D01*
X122766837Y-92353646D01*
X122766837Y-92353650D01*
X122771253Y-92396206D01*
X122777474Y-92456166D01*
X122833450Y-92623946D01*
X122926522Y-92774348D01*
X122931704Y-92779521D01*
X122946011Y-92793803D01*
X123051697Y-92899305D01*
X123055916Y-92901906D01*
X123096417Y-92959030D01*
X123099649Y-93029953D01*
X123064024Y-93091365D01*
X123056470Y-93097922D01*
X123050652Y-93101522D01*
X122925695Y-93226697D01*
X122921855Y-93232927D01*
X122921854Y-93232928D01*
X122921065Y-93234209D01*
X122832885Y-93377262D01*
X122793368Y-93496402D01*
X122782169Y-93530167D01*
X122741739Y-93588527D01*
X122676174Y-93615764D01*
X122662576Y-93616500D01*
X122080382Y-93616500D01*
X122012261Y-93596498D01*
X121965768Y-93542842D01*
X121962401Y-93534731D01*
X121953769Y-93511707D01*
X121953767Y-93511703D01*
X121950615Y-93503295D01*
X121863261Y-93386739D01*
X121746705Y-93299385D01*
X121610316Y-93248255D01*
X121548134Y-93241500D01*
X120451866Y-93241500D01*
X120389684Y-93248255D01*
X120253295Y-93299385D01*
X120136739Y-93386739D01*
X120049385Y-93503295D01*
X119998255Y-93639684D01*
X119991500Y-93701866D01*
X119991500Y-94798134D01*
X119998255Y-94860316D01*
X120049385Y-94996705D01*
X120136739Y-95113261D01*
X120143919Y-95118642D01*
X120222848Y-95177796D01*
X120265363Y-95234655D01*
X120270389Y-95305474D01*
X120236378Y-95367717D01*
X119407747Y-96196348D01*
X119399461Y-96203888D01*
X119392982Y-96208000D01*
X119387557Y-96213777D01*
X119346357Y-96257651D01*
X119343602Y-96260493D01*
X119323865Y-96280230D01*
X119321385Y-96283427D01*
X119313682Y-96292447D01*
X119283414Y-96324679D01*
X119279595Y-96331625D01*
X119279593Y-96331628D01*
X119273652Y-96342434D01*
X119262801Y-96358953D01*
X119250386Y-96374959D01*
X119247239Y-96382230D01*
X119243202Y-96389057D01*
X119240313Y-96387348D01*
X119204699Y-96430126D01*
X119136986Y-96451468D01*
X119068484Y-96432815D01*
X119020942Y-96380087D01*
X119008500Y-96325493D01*
X119008500Y-71727885D01*
X119892000Y-71727885D01*
X119896475Y-71743124D01*
X119897865Y-71744329D01*
X119905548Y-71746000D01*
X120727885Y-71746000D01*
X120743124Y-71741525D01*
X120744329Y-71740135D01*
X120746000Y-71732452D01*
X120746000Y-70272115D01*
X120741525Y-70256876D01*
X120740135Y-70255671D01*
X120732452Y-70254000D01*
X119910116Y-70254000D01*
X119894877Y-70258475D01*
X119893672Y-70259865D01*
X119892001Y-70267548D01*
X119892001Y-70497095D01*
X119892338Y-70503614D01*
X119902257Y-70599206D01*
X119905149Y-70612600D01*
X119956588Y-70766784D01*
X119962761Y-70779962D01*
X120048066Y-70917811D01*
X120051180Y-70921741D01*
X120077815Y-70987552D01*
X120064642Y-71057316D01*
X120051310Y-71078099D01*
X120047248Y-71083242D01*
X119962184Y-71221243D01*
X119956037Y-71234424D01*
X119904862Y-71388710D01*
X119901995Y-71402086D01*
X119892328Y-71496438D01*
X119892000Y-71502855D01*
X119892000Y-71727885D01*
X119008500Y-71727885D01*
X119008500Y-60634500D01*
X119028502Y-60566379D01*
X119082158Y-60519886D01*
X119134500Y-60508500D01*
X124772915Y-60508500D01*
X124841036Y-60528502D01*
G37*
%TD.AperFunction*%
%TD*%
%TA.AperFunction,Conductor*%
%TO.N,GND*%
G36*
X133670036Y-65491002D02*
G01*
X133716529Y-65544658D01*
X133727915Y-65597000D01*
X133727915Y-69803000D01*
X133707913Y-69871121D01*
X133654257Y-69917614D01*
X133601915Y-69929000D01*
X129395915Y-69929000D01*
X129327794Y-69908998D01*
X129281301Y-69855342D01*
X129269915Y-69803000D01*
X129269915Y-69402885D01*
X129777915Y-69402885D01*
X129782390Y-69418124D01*
X129783780Y-69419329D01*
X129791463Y-69421000D01*
X131226800Y-69421000D01*
X131242039Y-69416525D01*
X131243244Y-69415135D01*
X131244915Y-69407452D01*
X131244915Y-69402885D01*
X131752915Y-69402885D01*
X131757390Y-69418124D01*
X131758780Y-69419329D01*
X131766463Y-69421000D01*
X133201800Y-69421000D01*
X133217039Y-69416525D01*
X133218244Y-69415135D01*
X133219915Y-69407452D01*
X133219915Y-67972115D01*
X133215440Y-67956876D01*
X133214050Y-67955671D01*
X133206367Y-67954000D01*
X131771030Y-67954000D01*
X131755791Y-67958475D01*
X131754586Y-67959865D01*
X131752915Y-67967548D01*
X131752915Y-69402885D01*
X131244915Y-69402885D01*
X131244915Y-67972115D01*
X131240440Y-67956876D01*
X131239050Y-67955671D01*
X131231367Y-67954000D01*
X129796030Y-67954000D01*
X129780791Y-67958475D01*
X129779586Y-67959865D01*
X129777915Y-67967548D01*
X129777915Y-69402885D01*
X129269915Y-69402885D01*
X129269915Y-67572000D01*
X129289917Y-67503879D01*
X129343573Y-67457386D01*
X129395915Y-67446000D01*
X131226800Y-67446000D01*
X131242039Y-67441525D01*
X131243244Y-67440135D01*
X131244915Y-67432452D01*
X131244915Y-67427885D01*
X131752915Y-67427885D01*
X131757390Y-67443124D01*
X131758780Y-67444329D01*
X131766463Y-67446000D01*
X133201800Y-67446000D01*
X133217039Y-67441525D01*
X133218244Y-67440135D01*
X133219915Y-67432452D01*
X133219915Y-65997115D01*
X133215440Y-65981876D01*
X133214050Y-65980671D01*
X133206367Y-65979000D01*
X131771030Y-65979000D01*
X131755791Y-65983475D01*
X131754586Y-65984865D01*
X131752915Y-65992548D01*
X131752915Y-67427885D01*
X131244915Y-67427885D01*
X131244915Y-65597000D01*
X131264917Y-65528879D01*
X131318573Y-65482386D01*
X131370915Y-65471000D01*
X133601915Y-65471000D01*
X133670036Y-65491002D01*
G37*
%TD.AperFunction*%
%TD*%
M02*
