M48
; DRILL file {KiCad 7.0.9} date Mon 01 Jan 2024 10:27:44 PM EST
; FORMAT={-:-/ absolute / inch / decimal}
; #@! TF.CreationDate,2024-01-01T22:27:44-05:00
; #@! TF.GenerationSoftware,Kicad,Pcbnew,7.0.9
; #@! TF.FileFunction,Plated,1,2,PTH
FMAT,2
INCH
; #@! TA.AperFunction,Plated,PTH,ViaDrill
T1C0.0157
; #@! TA.AperFunction,Plated,PTH,ComponentDrill
T2C0.0157
; #@! TA.AperFunction,Plated,PTH,ComponentDrill
T3C0.0236
; #@! TA.AperFunction,Plated,PTH,ComponentDrill
T4C0.0354
; #@! TA.AperFunction,Plated,PTH,ComponentDrill
T5C0.0394
%
G90
G05
T1
X4.13Y-2.308
X4.1339Y-2.3524
X4.1732Y-2.5394
X4.2028Y-2.8839
X4.2224Y-3.1496
X4.2323Y-2.6772
X4.3012Y-4.065
X4.3012Y-4.1732
X4.3213Y-2.9228
X4.3234Y-2.7712
X4.3602Y-3.0413
X4.4193Y-3.878
X4.4882Y-3.4055
X4.4882Y-3.5925
X4.5079Y-3.878
X4.5177Y-2.7854
X4.5472Y-2.815
X4.5472Y-2.8523
X4.5512Y-2.4331
X4.5681Y-2.3661
X4.5767Y-2.7775
X4.5768Y-2.5197
X4.5768Y-2.7395
X4.6105Y-2.4946
X4.6221Y-2.2222
X4.626Y-3.189
X4.626Y-3.8189
X4.6309Y-2.8002
X4.6358Y-2.874
X4.6358Y-3.1102
X4.6457Y-3.6713
X4.6986Y-2.4946
X4.7387Y-2.3655
X4.7638Y-2.7385
X4.8622Y-2.2638
X4.8917Y-2.3425
X4.8917Y-2.4016
X4.9016Y-3.5433
X4.9114Y-2.1063
X5.0Y-3.4252
X5.009Y-2.4888
X5.0394Y-3.7205
X5.1083Y-4.1142
X5.1102Y-2.5748
X5.1378Y-4.252
T2
X4.8809Y-2.8356
X4.8809Y-2.8691
X4.8809Y-2.9026
X4.8809Y-2.936
X4.8809Y-2.9695
X4.8809Y-3.003
X4.8809Y-3.0364
X4.8809Y-3.0699
X4.9341Y-2.8356
X4.9341Y-2.8691
X4.9341Y-2.9026
X4.9341Y-2.936
X4.9341Y-2.9695
X4.9341Y-3.003
X4.9341Y-3.0364
X4.9341Y-3.0699
T4
X4.5388Y-4.0472
X4.5888Y-3.9472
X4.6388Y-4.0472
X4.6888Y-3.9472
T5
X4.1339Y-2.7061
X4.1339Y-2.8061
T3
G00X4.89Y-2.7825
M15
G01X4.949Y-2.7825
M16
G05
G00X4.89Y-3.123
M15
G01X4.949Y-3.123
M16
G05
G00X5.0368Y-2.7825
M15
G01X5.0683Y-2.7825
M16
G05
G00X5.0368Y-3.123
M15
G01X5.0683Y-3.123
M16
G05
T0
M30
