%TF.GenerationSoftware,KiCad,Pcbnew,7.0.9*%
%TF.CreationDate,2024-01-01T22:47:05-05:00*%
%TF.ProjectId,Vex_Debug,5665785f-4465-4627-9567-2e6b69636164,rev?*%
%TF.SameCoordinates,Original*%
%TF.FileFunction,Paste,Top*%
%TF.FilePolarity,Positive*%
%FSLAX46Y46*%
G04 Gerber Fmt 4.6, Leading zero omitted, Abs format (unit mm)*
G04 Created by KiCad (PCBNEW 7.0.9) date 2024-01-01 22:47:05*
%MOMM*%
%LPD*%
G01*
G04 APERTURE LIST*
G04 Aperture macros list*
%AMRoundRect*
0 Rectangle with rounded corners*
0 $1 Rounding radius*
0 $2 $3 $4 $5 $6 $7 $8 $9 X,Y pos of 4 corners*
0 Add a 4 corners polygon primitive as box body*
4,1,4,$2,$3,$4,$5,$6,$7,$8,$9,$2,$3,0*
0 Add four circle primitives for the rounded corners*
1,1,$1+$1,$2,$3*
1,1,$1+$1,$4,$5*
1,1,$1+$1,$6,$7*
1,1,$1+$1,$8,$9*
0 Add four rect primitives between the rounded corners*
20,1,$1+$1,$2,$3,$4,$5,0*
20,1,$1+$1,$4,$5,$6,$7,0*
20,1,$1+$1,$6,$7,$8,$9,0*
20,1,$1+$1,$8,$9,$2,$3,0*%
G04 Aperture macros list end*
%ADD10RoundRect,0.250000X0.255000X-0.255000X0.255000X0.255000X-0.255000X0.255000X-0.255000X-0.255000X0*%
%ADD11RoundRect,0.062500X0.062500X-0.350000X0.062500X0.350000X-0.062500X0.350000X-0.062500X-0.350000X0*%
%ADD12RoundRect,0.062500X0.350000X-0.062500X0.350000X0.062500X-0.350000X0.062500X-0.350000X-0.062500X0*%
%ADD13RoundRect,0.250000X-0.250000X-0.250000X0.250000X-0.250000X0.250000X0.250000X-0.250000X0.250000X0*%
%ADD14R,2.000000X1.500000*%
%ADD15R,2.000000X3.800000*%
%ADD16R,1.498600X0.889000*%
%ADD17R,0.711200X0.711200*%
%ADD18RoundRect,0.042000X-0.258000X0.943000X-0.258000X-0.943000X0.258000X-0.943000X0.258000X0.943000X0*%
%ADD19RoundRect,0.250000X-0.337500X-0.475000X0.337500X-0.475000X0.337500X0.475000X-0.337500X0.475000X0*%
%ADD20RoundRect,0.250000X0.350000X0.450000X-0.350000X0.450000X-0.350000X-0.450000X0.350000X-0.450000X0*%
%ADD21RoundRect,0.250000X-0.350000X-0.450000X0.350000X-0.450000X0.350000X0.450000X-0.350000X0.450000X0*%
%ADD22RoundRect,0.250000X0.450000X-0.350000X0.450000X0.350000X-0.450000X0.350000X-0.450000X-0.350000X0*%
%ADD23RoundRect,0.250000X0.325000X0.450000X-0.325000X0.450000X-0.325000X-0.450000X0.325000X-0.450000X0*%
%ADD24RoundRect,0.250000X-0.450000X0.350000X-0.450000X-0.350000X0.450000X-0.350000X0.450000X0.350000X0*%
%ADD25RoundRect,0.250000X-0.325000X-0.450000X0.325000X-0.450000X0.325000X0.450000X-0.325000X0.450000X0*%
%ADD26RoundRect,0.150000X-0.150000X0.587500X-0.150000X-0.587500X0.150000X-0.587500X0.150000X0.587500X0*%
%ADD27RoundRect,0.250000X0.337500X0.475000X-0.337500X0.475000X-0.337500X-0.475000X0.337500X-0.475000X0*%
%ADD28RoundRect,0.250000X-0.650000X1.500000X-0.650000X-1.500000X0.650000X-1.500000X0.650000X1.500000X0*%
%ADD29RoundRect,0.250000X-0.475000X0.337500X-0.475000X-0.337500X0.475000X-0.337500X0.475000X0.337500X0*%
%ADD30RoundRect,0.150000X0.150000X-0.587500X0.150000X0.587500X-0.150000X0.587500X-0.150000X-0.587500X0*%
%ADD31RoundRect,0.250000X0.650000X-1.500000X0.650000X1.500000X-0.650000X1.500000X-0.650000X-1.500000X0*%
G04 APERTURE END LIST*
D10*
%TO.C,U4*%
X110875000Y-72687500D03*
X112125000Y-72687500D03*
X110875000Y-71437500D03*
X112125000Y-71437500D03*
D11*
X110500000Y-74000000D03*
X111000000Y-74000000D03*
X111500000Y-74000000D03*
X112000000Y-74000000D03*
X112500000Y-74000000D03*
D12*
X113437500Y-73062500D03*
X113437500Y-72562500D03*
X113437500Y-72062500D03*
X113437500Y-71562500D03*
X113437500Y-71062500D03*
D11*
X112500000Y-70125000D03*
X112000000Y-70125000D03*
X111500000Y-70125000D03*
X111000000Y-70125000D03*
X110500000Y-70125000D03*
D12*
X109562500Y-71062500D03*
X109562500Y-71562500D03*
X109562500Y-72062500D03*
X109562500Y-72562500D03*
X109562500Y-73062500D03*
%TD*%
D13*
%TO.C,D6*%
X118750000Y-81000000D03*
X121250000Y-81000000D03*
%TD*%
D14*
%TO.C,U2*%
X112150000Y-91300000D03*
X112150000Y-89000000D03*
D15*
X105850000Y-89000000D03*
D14*
X112150000Y-86700000D03*
%TD*%
D16*
%TO.C,U1*%
X108500000Y-55000000D03*
X108500000Y-56500000D03*
X108500000Y-58000002D03*
X108500000Y-59500001D03*
X108500000Y-61000001D03*
X108500000Y-62500000D03*
X108500000Y-64000000D03*
X108500000Y-65500002D03*
X108500000Y-67000002D03*
X126000000Y-67000002D03*
X126000000Y-65500002D03*
X126000000Y-64000000D03*
X126000000Y-62500000D03*
X126000000Y-61000001D03*
X126000000Y-59500001D03*
X126000000Y-58000002D03*
X126000000Y-56500000D03*
X126000000Y-55000000D03*
D17*
X117105802Y-60099977D03*
X118205802Y-60099977D03*
X119305802Y-60099977D03*
X117105700Y-61199975D03*
X118205700Y-61199975D03*
X119305701Y-61199975D03*
X117105802Y-62299973D03*
X118205802Y-62299973D03*
X119305802Y-62299973D03*
%TD*%
D18*
%TO.C,U3*%
X120905000Y-86525000D03*
X119635000Y-86525000D03*
X118365000Y-86525000D03*
X117095000Y-86525000D03*
X117095000Y-91475000D03*
X118365000Y-91475000D03*
X119635000Y-91475000D03*
X120905000Y-91475000D03*
%TD*%
D19*
%TO.C,C1*%
X104000000Y-55000000D03*
X106075000Y-55000000D03*
%TD*%
D20*
%TO.C,R2*%
X121000000Y-73000000D03*
X119000000Y-73000000D03*
%TD*%
D21*
%TO.C,R8*%
X128290571Y-58000000D03*
X130290571Y-58000000D03*
%TD*%
D22*
%TO.C,R12*%
X105950000Y-81000000D03*
X105950000Y-79000000D03*
%TD*%
D23*
%TO.C,D7*%
X130315571Y-60000000D03*
X128265571Y-60000000D03*
%TD*%
D20*
%TO.C,R1*%
X115000000Y-97000000D03*
X113000000Y-97000000D03*
%TD*%
D24*
%TO.C,R11*%
X111950000Y-79000000D03*
X111950000Y-81000000D03*
%TD*%
D25*
%TO.C,D4*%
X126950000Y-108000000D03*
X129000000Y-108000000D03*
%TD*%
D26*
%TO.C,Q1*%
X109850000Y-81000000D03*
X107950000Y-81000000D03*
X108900000Y-82875000D03*
%TD*%
D25*
%TO.C,D3*%
X105975000Y-108000000D03*
X108025000Y-108000000D03*
%TD*%
D27*
%TO.C,C5*%
X121075000Y-79000000D03*
X119000000Y-79000000D03*
%TD*%
D28*
%TO.C,D1*%
X107000000Y-97500000D03*
X107000000Y-102500000D03*
%TD*%
D21*
%TO.C,R10*%
X119000000Y-71000000D03*
X121000000Y-71000000D03*
%TD*%
D20*
%TO.C,R3*%
X121000000Y-77000000D03*
X119000000Y-77000000D03*
%TD*%
D29*
%TO.C,C3*%
X123000000Y-87962500D03*
X123000000Y-90037500D03*
%TD*%
D13*
%TO.C,D5*%
X118607121Y-94848743D03*
X121107121Y-94848743D03*
%TD*%
D27*
%TO.C,C4*%
X121037500Y-97000000D03*
X118962500Y-97000000D03*
%TD*%
%TO.C,C6*%
X106037500Y-61000000D03*
X103962500Y-61000000D03*
%TD*%
D22*
%TO.C,R7*%
X105950000Y-77000000D03*
X105950000Y-75000000D03*
%TD*%
D20*
%TO.C,R4*%
X121000000Y-75000000D03*
X119000000Y-75000000D03*
%TD*%
D21*
%TO.C,R9*%
X128290571Y-62000000D03*
X130290571Y-62000000D03*
%TD*%
%TO.C,R13*%
X128290571Y-64000000D03*
X130290571Y-64000000D03*
%TD*%
D19*
%TO.C,C2*%
X103962500Y-57000000D03*
X106037500Y-57000000D03*
%TD*%
D30*
%TO.C,Q2*%
X108000000Y-78500000D03*
X109900000Y-78500000D03*
X108950000Y-76625000D03*
%TD*%
D19*
%TO.C,C7*%
X103962500Y-63000000D03*
X106037500Y-63000000D03*
%TD*%
D21*
%TO.C,R6*%
X126975000Y-106000000D03*
X128975000Y-106000000D03*
%TD*%
D31*
%TO.C,D2*%
X128000000Y-102500000D03*
X128000000Y-97500000D03*
%TD*%
D21*
%TO.C,R5*%
X106000000Y-106000000D03*
X108000000Y-106000000D03*
%TD*%
M02*
