%TF.GenerationSoftware,KiCad,Pcbnew,(6.0.9)*%
%TF.CreationDate,2022-11-27T14:47:39-05:00*%
%TF.ProjectId,Vex_Debug,5665785f-4465-4627-9567-2e6b69636164,rev?*%
%TF.SameCoordinates,Original*%
%TF.FileFunction,Copper,L2,Bot*%
%TF.FilePolarity,Positive*%
%FSLAX46Y46*%
G04 Gerber Fmt 4.6, Leading zero omitted, Abs format (unit mm)*
G04 Created by KiCad (PCBNEW (6.0.9)) date 2022-11-27 14:47:39*
%MOMM*%
%LPD*%
G01*
G04 APERTURE LIST*
%ADD10C,0.125000*%
%TA.AperFunction,NonConductor*%
%ADD11C,0.125000*%
%TD*%
%TA.AperFunction,ComponentPad*%
%ADD12C,0.700000*%
%TD*%
%TA.AperFunction,ComponentPad*%
%ADD13O,2.400000X0.900000*%
%TD*%
%TA.AperFunction,ComponentPad*%
%ADD14O,1.700000X0.900000*%
%TD*%
%TA.AperFunction,ComponentPad*%
%ADD15C,1.300000*%
%TD*%
%TA.AperFunction,ComponentPad*%
%ADD16C,2.000000*%
%TD*%
%TA.AperFunction,ViaPad*%
%ADD17C,0.800000*%
%TD*%
%TA.AperFunction,Conductor*%
%ADD18C,0.250000*%
%TD*%
%TA.AperFunction,Conductor*%
%ADD19C,0.200000*%
%TD*%
G04 APERTURE END LIST*
D10*
D11*
X81759523Y-118600000D02*
X81807142Y-118695238D01*
X81807142Y-118885714D01*
X81759523Y-118980952D01*
X81664285Y-119076190D01*
X81569047Y-119123809D01*
X81378571Y-119123809D01*
X81283333Y-119076190D01*
X81188095Y-118980952D01*
X81140476Y-118885714D01*
X81140476Y-118695238D01*
X81188095Y-118600000D01*
X82140476Y-118790476D02*
X82092857Y-119028571D01*
X81950000Y-119266666D01*
X81711904Y-119409523D01*
X81473809Y-119457142D01*
X81235714Y-119409523D01*
X80997619Y-119266666D01*
X80854761Y-119028571D01*
X80807142Y-118790476D01*
X80854761Y-118552380D01*
X80997619Y-118314285D01*
X81235714Y-118171428D01*
X81473809Y-118123809D01*
X81711904Y-118171428D01*
X81950000Y-118314285D01*
X82092857Y-118552380D01*
X82140476Y-118790476D01*
X80997619Y-116361904D02*
X81473809Y-116695238D01*
X80997619Y-116933333D02*
X81997619Y-116933333D01*
X81997619Y-116552380D01*
X81950000Y-116457142D01*
X81902380Y-116409523D01*
X81807142Y-116361904D01*
X81664285Y-116361904D01*
X81569047Y-116409523D01*
X81521428Y-116457142D01*
X81473809Y-116552380D01*
X81473809Y-116933333D01*
X81664285Y-116028571D02*
X80997619Y-115790476D01*
X81664285Y-115552380D02*
X80997619Y-115790476D01*
X80759523Y-115885714D01*
X80711904Y-115933333D01*
X80664285Y-116028571D01*
X80997619Y-114742857D02*
X81521428Y-114742857D01*
X81616666Y-114790476D01*
X81664285Y-114885714D01*
X81664285Y-115076190D01*
X81616666Y-115171428D01*
X81045238Y-114742857D02*
X80997619Y-114838095D01*
X80997619Y-115076190D01*
X81045238Y-115171428D01*
X81140476Y-115219047D01*
X81235714Y-115219047D01*
X81330952Y-115171428D01*
X81378571Y-115076190D01*
X81378571Y-114838095D01*
X81426190Y-114742857D01*
X81664285Y-114266666D02*
X80997619Y-114266666D01*
X81569047Y-114266666D02*
X81616666Y-114219047D01*
X81664285Y-114123809D01*
X81664285Y-113980952D01*
X81616666Y-113885714D01*
X81521428Y-113838095D01*
X80997619Y-113838095D01*
X80997619Y-112600000D02*
X81997619Y-112600000D01*
X81283333Y-112266666D01*
X81997619Y-111933333D01*
X80997619Y-111933333D01*
X81045238Y-111028571D02*
X80997619Y-111123809D01*
X80997619Y-111314285D01*
X81045238Y-111409523D01*
X81092857Y-111457142D01*
X81188095Y-111504761D01*
X81473809Y-111504761D01*
X81569047Y-111457142D01*
X81616666Y-111409523D01*
X81664285Y-111314285D01*
X81664285Y-111123809D01*
X81616666Y-111028571D01*
X81950000Y-110076190D02*
X81997619Y-110171428D01*
X81997619Y-110314285D01*
X81950000Y-110457142D01*
X81854761Y-110552380D01*
X81759523Y-110600000D01*
X81569047Y-110647619D01*
X81426190Y-110647619D01*
X81235714Y-110600000D01*
X81140476Y-110552380D01*
X81045238Y-110457142D01*
X80997619Y-110314285D01*
X80997619Y-110219047D01*
X81045238Y-110076190D01*
X81092857Y-110028571D01*
X81426190Y-110028571D01*
X81426190Y-110219047D01*
X81045238Y-109219047D02*
X80997619Y-109314285D01*
X80997619Y-109504761D01*
X81045238Y-109600000D01*
X81140476Y-109647619D01*
X81521428Y-109647619D01*
X81616666Y-109600000D01*
X81664285Y-109504761D01*
X81664285Y-109314285D01*
X81616666Y-109219047D01*
X81521428Y-109171428D01*
X81426190Y-109171428D01*
X81330952Y-109647619D01*
X81045238Y-108361904D02*
X80997619Y-108457142D01*
X80997619Y-108647619D01*
X81045238Y-108742857D01*
X81140476Y-108790476D01*
X81521428Y-108790476D01*
X81616666Y-108742857D01*
X81664285Y-108647619D01*
X81664285Y-108457142D01*
X81616666Y-108361904D01*
X81521428Y-108314285D01*
X81426190Y-108314285D01*
X81330952Y-108790476D01*
X81902380Y-107171428D02*
X81950000Y-107123809D01*
X81997619Y-107028571D01*
X81997619Y-106790476D01*
X81950000Y-106695238D01*
X81902380Y-106647619D01*
X81807142Y-106600000D01*
X81711904Y-106600000D01*
X81569047Y-106647619D01*
X80997619Y-107219047D01*
X80997619Y-106600000D01*
X81997619Y-105980952D02*
X81997619Y-105885714D01*
X81950000Y-105790476D01*
X81902380Y-105742857D01*
X81807142Y-105695238D01*
X81616666Y-105647619D01*
X81378571Y-105647619D01*
X81188095Y-105695238D01*
X81092857Y-105742857D01*
X81045238Y-105790476D01*
X80997619Y-105885714D01*
X80997619Y-105980952D01*
X81045238Y-106076190D01*
X81092857Y-106123809D01*
X81188095Y-106171428D01*
X81378571Y-106219047D01*
X81616666Y-106219047D01*
X81807142Y-106171428D01*
X81902380Y-106123809D01*
X81950000Y-106076190D01*
X81997619Y-105980952D01*
X81902380Y-105266666D02*
X81950000Y-105219047D01*
X81997619Y-105123809D01*
X81997619Y-104885714D01*
X81950000Y-104790476D01*
X81902380Y-104742857D01*
X81807142Y-104695238D01*
X81711904Y-104695238D01*
X81569047Y-104742857D01*
X80997619Y-105314285D01*
X80997619Y-104695238D01*
X81902380Y-104314285D02*
X81950000Y-104266666D01*
X81997619Y-104171428D01*
X81997619Y-103933333D01*
X81950000Y-103838095D01*
X81902380Y-103790476D01*
X81807142Y-103742857D01*
X81711904Y-103742857D01*
X81569047Y-103790476D01*
X80997619Y-104361904D01*
X80997619Y-103742857D01*
D12*
%TO.P,J1,A1,GND*%
%TO.N,GND*%
X103975000Y-85975000D03*
%TO.P,J1,A4,VBUS*%
%TO.N,Net-(C5-Pad1)*%
X103975000Y-85125000D03*
%TO.P,J1,A5,CC1*%
%TO.N,Net-(J1-PadA5)*%
X103975000Y-84275000D03*
%TO.P,J1,A6,D+*%
%TO.N,/USB_D+*%
X103975000Y-83425000D03*
%TO.P,J1,A7,D-*%
%TO.N,/USB_D-*%
X103975000Y-82575000D03*
%TO.P,J1,A8,SBU1*%
%TO.N,unconnected-(J1-PadA8)*%
X103975000Y-81725000D03*
%TO.P,J1,A9,VBUS*%
%TO.N,Net-(C5-Pad1)*%
X103975000Y-80875000D03*
%TO.P,J1,A12,GND*%
%TO.N,GND*%
X103975000Y-80025000D03*
%TO.P,J1,B1,GND*%
X105325000Y-80025000D03*
%TO.P,J1,B4,VBUS*%
%TO.N,Net-(C5-Pad1)*%
X105325000Y-80875000D03*
%TO.P,J1,B5,CC2*%
%TO.N,Net-(J1-PadB5)*%
X105325000Y-81725000D03*
%TO.P,J1,B6,D+*%
%TO.N,/USB_D+*%
X105325000Y-82575000D03*
%TO.P,J1,B7,D-*%
%TO.N,/USB_D-*%
X105325000Y-83425000D03*
%TO.P,J1,B8,SBU2*%
%TO.N,unconnected-(J1-PadB8)*%
X105325000Y-84275000D03*
%TO.P,J1,B9,VBUS*%
%TO.N,Net-(C5-Pad1)*%
X105325000Y-85125000D03*
%TO.P,J1,B12,GND*%
%TO.N,GND*%
X105325000Y-85975000D03*
D13*
%TO.P,J1,S1,SHIELD*%
%TO.N,Net-(J1-PadS1)*%
X104955000Y-78675000D03*
D14*
X108335000Y-87325000D03*
X108335000Y-78675000D03*
D13*
X104955000Y-87325000D03*
%TD*%
D15*
%TO.P,CONN1,1,+12V*%
%TO.N,Net-(C4-Pad1)*%
X93095000Y-109800000D03*
%TO.P,CONN1,2,GND*%
%TO.N,GND*%
X94365000Y-107260000D03*
%TO.P,CONN1,3,DB*%
%TO.N,/RJ9_DB*%
X95635000Y-109800000D03*
%TO.P,CONN1,4,DA*%
%TO.N,/RJ9_DA*%
X96905000Y-107260000D03*
%TD*%
D16*
%TO.P,SW1,1,1*%
%TO.N,GND*%
X86450000Y-78750000D03*
X86450000Y-85250000D03*
%TO.P,SW1,2,2*%
%TO.N,Net-(C6-Pad1)*%
X81950000Y-78750000D03*
X81950000Y-85250000D03*
%TD*%
%TO.P,SW2,1,1*%
%TO.N,GND*%
X94150000Y-85250000D03*
X94150000Y-78750000D03*
%TO.P,SW2,2,2*%
%TO.N,Net-(SW2-Pad2)*%
X89650000Y-85250000D03*
X89650000Y-78750000D03*
%TD*%
D17*
%TO.N,+3.3V*%
X98950000Y-76700000D03*
X101000000Y-82250000D03*
X100667699Y-77200000D03*
%TO.N,GND*%
X107550000Y-97150000D03*
X109000000Y-68600000D03*
X82300000Y-98300000D03*
X106900000Y-72800000D03*
X93985704Y-71252157D03*
X93900000Y-96600000D03*
X107700000Y-110900000D03*
X81500000Y-68500000D03*
X108400000Y-115000000D03*
X87400000Y-115000000D03*
X87100000Y-110600000D03*
X97902589Y-67356716D03*
X93985704Y-67320978D03*
X96900000Y-84500000D03*
X97945474Y-71273600D03*
X97200000Y-77550000D03*
X96900000Y-88500000D03*
X88000000Y-74500000D03*
X94600000Y-102200000D03*
X92900000Y-93800000D03*
%TO.N,Net-(C4-Pad1)*%
X87900000Y-101500000D03*
%TO.N,/RS485_MODE*%
X102500000Y-77050000D03*
X98350000Y-94950000D03*
%TO.N,/RS485_TX*%
X88300000Y-69000000D03*
X95800000Y-94500000D03*
%TO.N,/RS485_RX*%
X88200000Y-70600000D03*
X95525500Y-93350000D03*
%TO.N,Net-(C8-Pad1)*%
X101400000Y-84500000D03*
X99917099Y-82398566D03*
%TD*%
D18*
%TO.N,+3.3V*%
X101000000Y-82250000D02*
X101000000Y-77532301D01*
X101000000Y-77532301D02*
X100667699Y-77200000D01*
X100667699Y-77200000D02*
X99450000Y-77200000D01*
X99450000Y-77200000D02*
X98950000Y-76700000D01*
%TO.N,GND*%
X103975000Y-80025000D02*
X105325000Y-80025000D01*
X105325000Y-85975000D02*
X103975000Y-85975000D01*
%TO.N,Net-(C4-Pad1)*%
X93095000Y-106695000D02*
X87900000Y-101500000D01*
X93095000Y-109800000D02*
X93095000Y-106695000D01*
%TO.N,Net-(C5-Pad1)*%
X103975000Y-80875000D02*
X105325000Y-80875000D01*
X105875000Y-80875000D02*
X106200000Y-81200000D01*
X106200000Y-81200000D02*
X106200000Y-84800000D01*
X105325000Y-80875000D02*
X105875000Y-80875000D01*
X106200000Y-84800000D02*
X105875000Y-85125000D01*
X105875000Y-85125000D02*
X105325000Y-85125000D01*
X105325000Y-85125000D02*
X103975000Y-85125000D01*
D19*
%TO.N,/USB_D+*%
X103975000Y-83425000D02*
X104475000Y-83425000D01*
X104475000Y-83425000D02*
X105325000Y-82575000D01*
D18*
%TO.N,Net-(J1-PadS1)*%
X108335000Y-78675000D02*
X108335000Y-87325000D01*
X108335000Y-87325000D02*
X104955000Y-87325000D01*
X108335000Y-78675000D02*
X104955000Y-78675000D01*
%TO.N,/RS485_MODE*%
X102500000Y-77050000D02*
X102500000Y-90800000D01*
X102500000Y-90800000D02*
X98350000Y-94950000D01*
%TO.N,/RS485_TX*%
X96200000Y-94100000D02*
X95800000Y-94500000D01*
X96200000Y-76900000D02*
X96200000Y-94100000D01*
X88300000Y-69000000D02*
X96200000Y-76900000D01*
%TO.N,/RS485_RX*%
X95525500Y-77925500D02*
X95525500Y-93350000D01*
X88200000Y-70600000D02*
X95525500Y-77925500D01*
%TO.N,Net-(C8-Pad1)*%
X101400000Y-83881467D02*
X101400000Y-84500000D01*
X99917099Y-82398566D02*
X101400000Y-83881467D01*
%TD*%
%TA.AperFunction,Conductor*%
%TO.N,GND*%
G36*
X85942121Y-60220502D02*
G01*
X85988614Y-60274158D01*
X86000000Y-60326500D01*
X86000000Y-62000000D01*
X104000000Y-62000000D01*
X104000000Y-60326500D01*
X104020002Y-60258379D01*
X104073658Y-60211886D01*
X104126000Y-60200500D01*
X109673500Y-60200500D01*
X109741621Y-60220502D01*
X109788114Y-60274158D01*
X109799500Y-60326500D01*
X109799500Y-119673500D01*
X109779498Y-119741621D01*
X109725842Y-119788114D01*
X109673500Y-119799500D01*
X82625250Y-119799500D01*
X82557129Y-119779498D01*
X82510636Y-119725842D01*
X82499250Y-119673500D01*
X82499250Y-116192186D01*
X89331018Y-116192186D01*
X89356579Y-116460100D01*
X89420547Y-116721518D01*
X89521583Y-116970963D01*
X89657569Y-117203210D01*
X89825658Y-117413395D01*
X90022327Y-117597113D01*
X90243457Y-117750516D01*
X90484416Y-117870391D01*
X90488750Y-117871812D01*
X90488753Y-117871813D01*
X90735823Y-117952807D01*
X90735829Y-117952808D01*
X90740156Y-117954227D01*
X90744647Y-117955007D01*
X90744648Y-117955007D01*
X91001538Y-117999611D01*
X91001546Y-117999612D01*
X91005319Y-118000267D01*
X91009156Y-118000458D01*
X91088777Y-118004422D01*
X91088785Y-118004422D01*
X91090348Y-118004500D01*
X91258374Y-118004500D01*
X91260642Y-118004335D01*
X91260654Y-118004335D01*
X91391457Y-117994844D01*
X91458425Y-117989985D01*
X91462880Y-117989001D01*
X91462883Y-117989001D01*
X91716770Y-117932947D01*
X91716772Y-117932946D01*
X91721226Y-117931963D01*
X91972900Y-117836613D01*
X92208172Y-117705931D01*
X92354842Y-117593996D01*
X92418491Y-117545421D01*
X92418495Y-117545417D01*
X92422116Y-117542654D01*
X92610249Y-117350203D01*
X92717242Y-117203210D01*
X92765942Y-117136304D01*
X92765947Y-117136297D01*
X92768630Y-117132610D01*
X92893941Y-116894433D01*
X92983557Y-116640662D01*
X93008688Y-116513156D01*
X93034720Y-116381083D01*
X93034721Y-116381077D01*
X93035601Y-116376611D01*
X93044782Y-116192186D01*
X96951018Y-116192186D01*
X96976579Y-116460100D01*
X97040547Y-116721518D01*
X97141583Y-116970963D01*
X97277569Y-117203210D01*
X97445658Y-117413395D01*
X97642327Y-117597113D01*
X97863457Y-117750516D01*
X98104416Y-117870391D01*
X98108750Y-117871812D01*
X98108753Y-117871813D01*
X98355823Y-117952807D01*
X98355829Y-117952808D01*
X98360156Y-117954227D01*
X98364647Y-117955007D01*
X98364648Y-117955007D01*
X98621538Y-117999611D01*
X98621546Y-117999612D01*
X98625319Y-118000267D01*
X98629156Y-118000458D01*
X98708777Y-118004422D01*
X98708785Y-118004422D01*
X98710348Y-118004500D01*
X98878374Y-118004500D01*
X98880642Y-118004335D01*
X98880654Y-118004335D01*
X99011457Y-117994844D01*
X99078425Y-117989985D01*
X99082880Y-117989001D01*
X99082883Y-117989001D01*
X99336770Y-117932947D01*
X99336772Y-117932946D01*
X99341226Y-117931963D01*
X99592900Y-117836613D01*
X99828172Y-117705931D01*
X99974842Y-117593996D01*
X100038491Y-117545421D01*
X100038495Y-117545417D01*
X100042116Y-117542654D01*
X100230249Y-117350203D01*
X100337242Y-117203210D01*
X100385942Y-117136304D01*
X100385947Y-117136297D01*
X100388630Y-117132610D01*
X100513941Y-116894433D01*
X100603557Y-116640662D01*
X100628688Y-116513156D01*
X100654720Y-116381083D01*
X100654721Y-116381077D01*
X100655601Y-116376611D01*
X100664782Y-116192186D01*
X100668755Y-116112383D01*
X100668755Y-116112377D01*
X100668982Y-116107814D01*
X100643421Y-115839900D01*
X100579453Y-115578482D01*
X100478417Y-115329037D01*
X100342431Y-115096790D01*
X100174342Y-114886605D01*
X99977673Y-114702887D01*
X99756543Y-114549484D01*
X99515584Y-114429609D01*
X99511250Y-114428188D01*
X99511247Y-114428187D01*
X99264177Y-114347193D01*
X99264171Y-114347192D01*
X99259844Y-114345773D01*
X99255352Y-114344993D01*
X98998462Y-114300389D01*
X98998454Y-114300388D01*
X98994681Y-114299733D01*
X98984718Y-114299237D01*
X98911223Y-114295578D01*
X98911215Y-114295578D01*
X98909652Y-114295500D01*
X98741626Y-114295500D01*
X98739358Y-114295665D01*
X98739346Y-114295665D01*
X98608543Y-114305156D01*
X98541575Y-114310015D01*
X98537120Y-114310999D01*
X98537117Y-114310999D01*
X98283230Y-114367053D01*
X98283228Y-114367054D01*
X98278774Y-114368037D01*
X98027100Y-114463387D01*
X97791828Y-114594069D01*
X97788196Y-114596841D01*
X97581509Y-114754579D01*
X97581505Y-114754583D01*
X97577884Y-114757346D01*
X97389751Y-114949797D01*
X97387066Y-114953486D01*
X97234058Y-115163696D01*
X97234053Y-115163703D01*
X97231370Y-115167390D01*
X97106059Y-115405567D01*
X97016443Y-115659338D01*
X97015560Y-115663820D01*
X96980855Y-115839900D01*
X96964399Y-115923389D01*
X96964172Y-115927942D01*
X96964172Y-115927945D01*
X96954991Y-116112383D01*
X96951018Y-116192186D01*
X93044782Y-116192186D01*
X93048755Y-116112383D01*
X93048755Y-116112377D01*
X93048982Y-116107814D01*
X93023421Y-115839900D01*
X92959453Y-115578482D01*
X92858417Y-115329037D01*
X92722431Y-115096790D01*
X92554342Y-114886605D01*
X92357673Y-114702887D01*
X92136543Y-114549484D01*
X91895584Y-114429609D01*
X91891250Y-114428188D01*
X91891247Y-114428187D01*
X91644177Y-114347193D01*
X91644171Y-114347192D01*
X91639844Y-114345773D01*
X91635352Y-114344993D01*
X91378462Y-114300389D01*
X91378454Y-114300388D01*
X91374681Y-114299733D01*
X91364718Y-114299237D01*
X91291223Y-114295578D01*
X91291215Y-114295578D01*
X91289652Y-114295500D01*
X91121626Y-114295500D01*
X91119358Y-114295665D01*
X91119346Y-114295665D01*
X90988543Y-114305156D01*
X90921575Y-114310015D01*
X90917120Y-114310999D01*
X90917117Y-114310999D01*
X90663230Y-114367053D01*
X90663228Y-114367054D01*
X90658774Y-114368037D01*
X90407100Y-114463387D01*
X90171828Y-114594069D01*
X90168196Y-114596841D01*
X89961509Y-114754579D01*
X89961505Y-114754583D01*
X89957884Y-114757346D01*
X89769751Y-114949797D01*
X89767066Y-114953486D01*
X89614058Y-115163696D01*
X89614053Y-115163703D01*
X89611370Y-115167390D01*
X89486059Y-115405567D01*
X89396443Y-115659338D01*
X89395560Y-115663820D01*
X89360855Y-115839900D01*
X89344399Y-115923389D01*
X89344172Y-115927942D01*
X89344172Y-115927945D01*
X89334991Y-116112383D01*
X89331018Y-116192186D01*
X82499250Y-116192186D01*
X82499250Y-103339381D01*
X80400750Y-103339381D01*
X80400750Y-103344700D01*
X80377106Y-103351642D01*
X80361996Y-103361353D01*
X80291000Y-103361352D01*
X80231274Y-103322967D01*
X80201782Y-103258386D01*
X80200500Y-103240456D01*
X80200500Y-101500000D01*
X87344750Y-101500000D01*
X87363670Y-101643709D01*
X87419139Y-101777625D01*
X87507379Y-101892621D01*
X87622375Y-101980861D01*
X87756291Y-102036330D01*
X87900000Y-102055250D01*
X87908188Y-102054172D01*
X87908189Y-102054172D01*
X87984761Y-102044091D01*
X88054909Y-102055030D01*
X88090302Y-102079918D01*
X92782595Y-106772211D01*
X92816621Y-106834523D01*
X92819500Y-106861306D01*
X92819500Y-108960249D01*
X92799498Y-109028370D01*
X92751565Y-109070385D01*
X92752007Y-109071103D01*
X92746008Y-109074794D01*
X92746005Y-109074795D01*
X92652038Y-109132605D01*
X92599045Y-109165206D01*
X92594014Y-109170132D01*
X92594011Y-109170135D01*
X92586807Y-109177190D01*
X92470732Y-109290859D01*
X92466913Y-109296784D01*
X92466912Y-109296786D01*
X92377265Y-109435891D01*
X92373446Y-109441817D01*
X92312022Y-109610578D01*
X92289514Y-109788753D01*
X92290201Y-109795760D01*
X92290201Y-109795763D01*
X92291005Y-109803963D01*
X92307039Y-109967486D01*
X92309262Y-109974168D01*
X92309262Y-109974169D01*
X92317967Y-110000336D01*
X92363726Y-110137896D01*
X92456759Y-110291512D01*
X92581514Y-110420699D01*
X92731789Y-110519036D01*
X92900116Y-110581636D01*
X92907097Y-110582567D01*
X92907099Y-110582568D01*
X93071149Y-110604457D01*
X93071153Y-110604457D01*
X93078130Y-110605388D01*
X93085142Y-110604750D01*
X93085146Y-110604750D01*
X93249960Y-110589751D01*
X93249961Y-110589751D01*
X93256981Y-110589112D01*
X93427782Y-110533615D01*
X93458714Y-110515176D01*
X93575992Y-110445265D01*
X93575994Y-110445264D01*
X93582044Y-110441657D01*
X93712099Y-110317807D01*
X93729570Y-110291512D01*
X93807582Y-110174093D01*
X93811483Y-110168222D01*
X93826168Y-110129564D01*
X93872757Y-110006919D01*
X93872758Y-110006914D01*
X93875257Y-110000336D01*
X93900251Y-109822493D01*
X93900565Y-109800000D01*
X93899303Y-109788753D01*
X94829514Y-109788753D01*
X94830201Y-109795760D01*
X94830201Y-109795763D01*
X94831005Y-109803963D01*
X94847039Y-109967486D01*
X94849262Y-109974168D01*
X94849262Y-109974169D01*
X94857967Y-110000336D01*
X94903726Y-110137896D01*
X94996759Y-110291512D01*
X95121514Y-110420699D01*
X95271789Y-110519036D01*
X95440116Y-110581636D01*
X95447097Y-110582567D01*
X95447099Y-110582568D01*
X95611149Y-110604457D01*
X95611153Y-110604457D01*
X95618130Y-110605388D01*
X95625142Y-110604750D01*
X95625146Y-110604750D01*
X95789960Y-110589751D01*
X95789961Y-110589751D01*
X95796981Y-110589112D01*
X95967782Y-110533615D01*
X95998714Y-110515176D01*
X96115992Y-110445265D01*
X96115994Y-110445264D01*
X96122044Y-110441657D01*
X96252099Y-110317807D01*
X96269570Y-110291512D01*
X96347582Y-110174093D01*
X96351483Y-110168222D01*
X96366168Y-110129564D01*
X96412757Y-110006919D01*
X96412758Y-110006914D01*
X96415257Y-110000336D01*
X96440251Y-109822493D01*
X96440565Y-109800000D01*
X96420546Y-109621528D01*
X96414427Y-109603955D01*
X96363803Y-109458584D01*
X96361485Y-109451927D01*
X96266316Y-109299625D01*
X96202771Y-109235635D01*
X96144733Y-109177190D01*
X96144729Y-109177187D01*
X96139770Y-109172193D01*
X96128761Y-109165206D01*
X96081860Y-109135442D01*
X95988136Y-109075963D01*
X95910500Y-109048318D01*
X95825586Y-109018081D01*
X95825581Y-109018080D01*
X95818951Y-109015719D01*
X95811965Y-109014886D01*
X95811961Y-109014885D01*
X95684177Y-108999648D01*
X95640624Y-108994455D01*
X95633621Y-108995191D01*
X95633620Y-108995191D01*
X95469025Y-109012490D01*
X95469021Y-109012491D01*
X95462017Y-109013227D01*
X95455346Y-109015498D01*
X95298677Y-109068832D01*
X95298674Y-109068833D01*
X95292007Y-109071103D01*
X95286009Y-109074793D01*
X95286007Y-109074794D01*
X95215526Y-109118155D01*
X95139045Y-109165206D01*
X95134014Y-109170132D01*
X95134011Y-109170135D01*
X95126807Y-109177190D01*
X95010732Y-109290859D01*
X95006913Y-109296784D01*
X95006912Y-109296786D01*
X94917265Y-109435891D01*
X94913446Y-109441817D01*
X94852022Y-109610578D01*
X94829514Y-109788753D01*
X93899303Y-109788753D01*
X93880546Y-109621528D01*
X93874427Y-109603955D01*
X93823803Y-109458584D01*
X93821485Y-109451927D01*
X93726316Y-109299625D01*
X93662771Y-109235635D01*
X93604733Y-109177190D01*
X93604729Y-109177187D01*
X93599770Y-109172193D01*
X93588761Y-109165206D01*
X93523953Y-109124078D01*
X93448136Y-109075963D01*
X93441499Y-109073600D01*
X93441266Y-109073486D01*
X93388807Y-109025647D01*
X93370500Y-108960238D01*
X93370500Y-108237344D01*
X93752016Y-108237344D01*
X93761898Y-108249834D01*
X93805279Y-108278820D01*
X93815389Y-108284310D01*
X94000318Y-108363762D01*
X94011261Y-108367317D01*
X94207567Y-108411737D01*
X94218975Y-108413239D01*
X94420096Y-108421140D01*
X94431580Y-108420538D01*
X94630774Y-108391657D01*
X94641957Y-108388972D01*
X94832547Y-108324276D01*
X94843060Y-108319595D01*
X94969766Y-108248635D01*
X94979631Y-108238557D01*
X94976675Y-108230885D01*
X94377812Y-107632022D01*
X94363868Y-107624408D01*
X94362035Y-107624539D01*
X94355420Y-107628790D01*
X93758212Y-108225998D01*
X93752016Y-108237344D01*
X93370500Y-108237344D01*
X93370500Y-107947480D01*
X93390502Y-107879359D01*
X93407405Y-107858385D01*
X93992978Y-107272812D01*
X93999356Y-107261132D01*
X94729408Y-107261132D01*
X94729539Y-107262965D01*
X94733790Y-107269580D01*
X95331971Y-107867761D01*
X95344351Y-107874521D01*
X95350931Y-107869595D01*
X95424595Y-107738060D01*
X95429276Y-107727547D01*
X95493972Y-107536957D01*
X95496657Y-107525774D01*
X95525834Y-107324539D01*
X95526464Y-107317157D01*
X95527864Y-107263704D01*
X95527621Y-107256305D01*
X95526927Y-107248753D01*
X96099514Y-107248753D01*
X96100201Y-107255760D01*
X96100201Y-107255763D01*
X96100980Y-107263704D01*
X96117039Y-107427486D01*
X96119262Y-107434168D01*
X96119262Y-107434169D01*
X96153455Y-107536957D01*
X96173726Y-107597896D01*
X96177373Y-107603918D01*
X96189862Y-107624539D01*
X96266759Y-107751512D01*
X96391514Y-107880699D01*
X96541789Y-107979036D01*
X96710116Y-108041636D01*
X96717097Y-108042567D01*
X96717099Y-108042568D01*
X96881149Y-108064457D01*
X96881153Y-108064457D01*
X96888130Y-108065388D01*
X96895142Y-108064750D01*
X96895146Y-108064750D01*
X97059960Y-108049751D01*
X97059961Y-108049751D01*
X97066981Y-108049112D01*
X97237782Y-107993615D01*
X97315175Y-107947480D01*
X97385992Y-107905265D01*
X97385994Y-107905264D01*
X97392044Y-107901657D01*
X97522099Y-107777807D01*
X97539570Y-107751512D01*
X97617582Y-107634093D01*
X97621483Y-107628222D01*
X97636168Y-107589564D01*
X97682757Y-107466919D01*
X97682758Y-107466914D01*
X97685257Y-107460336D01*
X97704342Y-107324539D01*
X97709700Y-107286416D01*
X97709700Y-107286411D01*
X97710251Y-107282493D01*
X97710565Y-107260000D01*
X97690546Y-107081528D01*
X97684427Y-107063955D01*
X97633803Y-106918584D01*
X97631485Y-106911927D01*
X97599854Y-106861306D01*
X97540049Y-106765599D01*
X97536316Y-106759625D01*
X97429225Y-106651784D01*
X97414733Y-106637190D01*
X97414729Y-106637187D01*
X97409770Y-106632193D01*
X97398761Y-106625206D01*
X97339353Y-106587505D01*
X97258136Y-106535963D01*
X97211557Y-106519377D01*
X97095586Y-106478081D01*
X97095581Y-106478080D01*
X97088951Y-106475719D01*
X97081965Y-106474886D01*
X97081961Y-106474885D01*
X96954177Y-106459648D01*
X96910624Y-106454455D01*
X96903621Y-106455191D01*
X96903620Y-106455191D01*
X96739025Y-106472490D01*
X96739021Y-106472491D01*
X96732017Y-106473227D01*
X96725346Y-106475498D01*
X96568677Y-106528832D01*
X96568674Y-106528833D01*
X96562007Y-106531103D01*
X96556009Y-106534793D01*
X96556007Y-106534794D01*
X96522350Y-106555500D01*
X96409045Y-106625206D01*
X96404014Y-106630132D01*
X96404011Y-106630135D01*
X96365481Y-106667867D01*
X96280732Y-106750859D01*
X96276913Y-106756784D01*
X96276912Y-106756786D01*
X96192365Y-106887978D01*
X96183446Y-106901817D01*
X96122022Y-107070578D01*
X96099514Y-107248753D01*
X95526927Y-107248753D01*
X95509016Y-107053824D01*
X95506918Y-107042503D01*
X95452287Y-106848797D01*
X95448163Y-106838050D01*
X95359141Y-106657534D01*
X95355617Y-106651784D01*
X95345595Y-106644262D01*
X95333176Y-106651034D01*
X94737022Y-107247188D01*
X94729408Y-107261132D01*
X93999356Y-107261132D01*
X94000592Y-107258868D01*
X94000461Y-107257035D01*
X93996210Y-107250420D01*
X93383708Y-106637918D01*
X93387155Y-106634471D01*
X93361485Y-106608783D01*
X93356798Y-106598982D01*
X93354515Y-106587505D01*
X93333130Y-106555500D01*
X93308994Y-106519378D01*
X93308993Y-106519377D01*
X93293624Y-106496376D01*
X93280936Y-106487898D01*
X93261844Y-106472228D01*
X93071812Y-106282196D01*
X93751307Y-106282196D01*
X93754793Y-106290583D01*
X94352188Y-106887978D01*
X94366132Y-106895592D01*
X94367965Y-106895461D01*
X94374580Y-106891210D01*
X94971533Y-106294257D01*
X94978293Y-106281877D01*
X94972263Y-106273822D01*
X94897857Y-106226875D01*
X94887609Y-106221654D01*
X94700663Y-106147070D01*
X94689635Y-106143803D01*
X94492230Y-106104537D01*
X94480784Y-106103334D01*
X94279537Y-106100700D01*
X94268057Y-106101603D01*
X94069701Y-106135687D01*
X94058581Y-106138667D01*
X93869748Y-106208331D01*
X93859370Y-106213281D01*
X93760906Y-106271861D01*
X93751307Y-106282196D01*
X93071812Y-106282196D01*
X88479918Y-101690302D01*
X88445892Y-101627990D01*
X88444091Y-101584761D01*
X88454172Y-101508189D01*
X88454172Y-101508188D01*
X88455250Y-101500000D01*
X88436330Y-101356291D01*
X88380861Y-101222375D01*
X88292621Y-101107379D01*
X88177625Y-101019139D01*
X88043709Y-100963670D01*
X87900000Y-100944750D01*
X87756291Y-100963670D01*
X87622375Y-101019139D01*
X87507379Y-101107379D01*
X87419139Y-101222375D01*
X87363670Y-101356291D01*
X87344750Y-101500000D01*
X80200500Y-101500000D01*
X80200500Y-86482670D01*
X85582160Y-86482670D01*
X85587887Y-86490320D01*
X85759042Y-86595205D01*
X85767837Y-86599687D01*
X85977988Y-86686734D01*
X85987373Y-86689783D01*
X86208554Y-86742885D01*
X86218301Y-86744428D01*
X86445070Y-86762275D01*
X86454930Y-86762275D01*
X86681699Y-86744428D01*
X86691446Y-86742885D01*
X86912627Y-86689783D01*
X86922012Y-86686734D01*
X87132163Y-86599687D01*
X87140958Y-86595205D01*
X87308445Y-86492568D01*
X87317907Y-86482110D01*
X87314124Y-86473334D01*
X86462812Y-85622022D01*
X86448868Y-85614408D01*
X86447035Y-85614539D01*
X86440420Y-85618790D01*
X85588920Y-86470290D01*
X85582160Y-86482670D01*
X80200500Y-86482670D01*
X80200500Y-85219754D01*
X80794967Y-85219754D01*
X80808796Y-85430749D01*
X80810217Y-85436345D01*
X80810218Y-85436350D01*
X80832784Y-85525200D01*
X80860845Y-85635690D01*
X80949369Y-85827714D01*
X81071405Y-86000391D01*
X81135238Y-86062574D01*
X81191970Y-86117840D01*
X81222865Y-86147937D01*
X81227661Y-86151142D01*
X81227664Y-86151144D01*
X81370936Y-86246875D01*
X81398677Y-86265411D01*
X81403985Y-86267692D01*
X81403986Y-86267692D01*
X81587650Y-86346600D01*
X81587653Y-86346601D01*
X81592953Y-86348878D01*
X81598582Y-86350152D01*
X81598583Y-86350152D01*
X81793550Y-86394269D01*
X81793553Y-86394269D01*
X81799186Y-86395544D01*
X81804957Y-86395771D01*
X81804959Y-86395771D01*
X81866989Y-86398208D01*
X82010470Y-86403846D01*
X82016179Y-86403018D01*
X82016183Y-86403018D01*
X82214015Y-86374333D01*
X82214019Y-86374332D01*
X82219730Y-86373504D01*
X82298987Y-86346600D01*
X82414483Y-86307395D01*
X82414488Y-86307393D01*
X82419955Y-86305537D01*
X82424998Y-86302713D01*
X82599395Y-86205046D01*
X82599399Y-86205043D01*
X82604442Y-86202219D01*
X82767012Y-86067012D01*
X82902219Y-85904442D01*
X82905043Y-85899399D01*
X82905046Y-85899395D01*
X83002713Y-85724998D01*
X83002714Y-85724996D01*
X83005537Y-85719955D01*
X83007393Y-85714488D01*
X83007395Y-85714483D01*
X83071647Y-85525200D01*
X83073504Y-85519730D01*
X83076083Y-85501948D01*
X83103314Y-85314140D01*
X83103314Y-85314138D01*
X83103846Y-85310470D01*
X83105300Y-85254930D01*
X84937725Y-85254930D01*
X84955572Y-85481699D01*
X84957115Y-85491446D01*
X85010217Y-85712627D01*
X85013266Y-85722012D01*
X85100313Y-85932163D01*
X85104795Y-85940958D01*
X85207432Y-86108445D01*
X85217890Y-86117907D01*
X85226666Y-86114124D01*
X86077978Y-85262812D01*
X86084356Y-85251132D01*
X86814408Y-85251132D01*
X86814539Y-85252965D01*
X86818790Y-85259580D01*
X87670290Y-86111080D01*
X87682670Y-86117840D01*
X87690320Y-86112113D01*
X87795205Y-85940958D01*
X87799687Y-85932163D01*
X87886734Y-85722012D01*
X87889783Y-85712627D01*
X87942885Y-85491446D01*
X87944428Y-85481699D01*
X87962275Y-85254930D01*
X87962275Y-85245070D01*
X87960283Y-85219754D01*
X88494967Y-85219754D01*
X88508796Y-85430749D01*
X88510217Y-85436345D01*
X88510218Y-85436350D01*
X88532784Y-85525200D01*
X88560845Y-85635690D01*
X88649369Y-85827714D01*
X88771405Y-86000391D01*
X88835238Y-86062574D01*
X88891970Y-86117840D01*
X88922865Y-86147937D01*
X88927661Y-86151142D01*
X88927664Y-86151144D01*
X89070936Y-86246875D01*
X89098677Y-86265411D01*
X89103985Y-86267692D01*
X89103986Y-86267692D01*
X89287650Y-86346600D01*
X89287653Y-86346601D01*
X89292953Y-86348878D01*
X89298582Y-86350152D01*
X89298583Y-86350152D01*
X89493550Y-86394269D01*
X89493553Y-86394269D01*
X89499186Y-86395544D01*
X89504957Y-86395771D01*
X89504959Y-86395771D01*
X89566989Y-86398208D01*
X89710470Y-86403846D01*
X89716179Y-86403018D01*
X89716183Y-86403018D01*
X89914015Y-86374333D01*
X89914019Y-86374332D01*
X89919730Y-86373504D01*
X89998987Y-86346600D01*
X90114483Y-86307395D01*
X90114488Y-86307393D01*
X90119955Y-86305537D01*
X90124998Y-86302713D01*
X90299395Y-86205046D01*
X90299399Y-86205043D01*
X90304442Y-86202219D01*
X90467012Y-86067012D01*
X90602219Y-85904442D01*
X90605043Y-85899399D01*
X90605046Y-85899395D01*
X90702713Y-85724998D01*
X90702714Y-85724996D01*
X90705537Y-85719955D01*
X90707393Y-85714488D01*
X90707395Y-85714483D01*
X90771647Y-85525200D01*
X90773504Y-85519730D01*
X90776083Y-85501948D01*
X90803314Y-85314140D01*
X90803314Y-85314138D01*
X90803846Y-85310470D01*
X90805300Y-85254930D01*
X92637725Y-85254930D01*
X92655572Y-85481699D01*
X92657115Y-85491446D01*
X92710217Y-85712627D01*
X92713266Y-85722012D01*
X92800313Y-85932163D01*
X92804795Y-85940958D01*
X92907432Y-86108445D01*
X92917890Y-86117907D01*
X92926666Y-86114124D01*
X93777978Y-85262812D01*
X93785592Y-85248868D01*
X93785461Y-85247035D01*
X93781210Y-85240420D01*
X92929710Y-84388920D01*
X92917330Y-84382160D01*
X92909680Y-84387887D01*
X92804795Y-84559042D01*
X92800313Y-84567837D01*
X92713266Y-84777988D01*
X92710217Y-84787373D01*
X92657115Y-85008554D01*
X92655572Y-85018301D01*
X92637725Y-85245070D01*
X92637725Y-85254930D01*
X90805300Y-85254930D01*
X90805429Y-85250000D01*
X90786081Y-85039440D01*
X90784313Y-85033169D01*
X90748869Y-84907495D01*
X90728686Y-84835931D01*
X90724348Y-84827133D01*
X90637719Y-84651469D01*
X90635165Y-84646290D01*
X90557440Y-84542203D01*
X90512104Y-84481491D01*
X90512103Y-84481490D01*
X90508651Y-84476867D01*
X90378213Y-84356291D01*
X90357622Y-84337257D01*
X90357620Y-84337255D01*
X90353381Y-84333337D01*
X90174554Y-84220505D01*
X89978160Y-84142152D01*
X89972503Y-84141027D01*
X89972497Y-84141025D01*
X89776442Y-84102028D01*
X89776440Y-84102028D01*
X89770775Y-84100901D01*
X89765000Y-84100825D01*
X89764996Y-84100825D01*
X89658976Y-84099437D01*
X89559346Y-84098133D01*
X89553649Y-84099112D01*
X89553648Y-84099112D01*
X89356650Y-84132962D01*
X89356649Y-84132962D01*
X89350953Y-84133941D01*
X89152575Y-84207127D01*
X89147614Y-84210079D01*
X89147613Y-84210079D01*
X89025896Y-84282493D01*
X88970856Y-84315238D01*
X88811881Y-84454655D01*
X88680976Y-84620708D01*
X88678287Y-84625819D01*
X88678285Y-84625822D01*
X88639189Y-84700132D01*
X88582523Y-84807836D01*
X88519820Y-85009773D01*
X88494967Y-85219754D01*
X87960283Y-85219754D01*
X87944428Y-85018301D01*
X87942885Y-85008554D01*
X87889783Y-84787373D01*
X87886734Y-84777988D01*
X87799687Y-84567837D01*
X87795205Y-84559042D01*
X87692568Y-84391555D01*
X87682110Y-84382093D01*
X87673334Y-84385876D01*
X86822022Y-85237188D01*
X86814408Y-85251132D01*
X86084356Y-85251132D01*
X86085592Y-85248868D01*
X86085461Y-85247035D01*
X86081210Y-85240420D01*
X85229710Y-84388920D01*
X85217330Y-84382160D01*
X85209680Y-84387887D01*
X85104795Y-84559042D01*
X85100313Y-84567837D01*
X85013266Y-84777988D01*
X85010217Y-84787373D01*
X84957115Y-85008554D01*
X84955572Y-85018301D01*
X84937725Y-85245070D01*
X84937725Y-85254930D01*
X83105300Y-85254930D01*
X83105429Y-85250000D01*
X83086081Y-85039440D01*
X83084313Y-85033169D01*
X83048869Y-84907495D01*
X83028686Y-84835931D01*
X83024348Y-84827133D01*
X82937719Y-84651469D01*
X82935165Y-84646290D01*
X82857440Y-84542203D01*
X82812104Y-84481491D01*
X82812103Y-84481490D01*
X82808651Y-84476867D01*
X82678213Y-84356291D01*
X82657622Y-84337257D01*
X82657620Y-84337255D01*
X82653381Y-84333337D01*
X82474554Y-84220505D01*
X82278160Y-84142152D01*
X82272503Y-84141027D01*
X82272497Y-84141025D01*
X82076442Y-84102028D01*
X82076440Y-84102028D01*
X82070775Y-84100901D01*
X82065000Y-84100825D01*
X82064996Y-84100825D01*
X81958976Y-84099437D01*
X81859346Y-84098133D01*
X81853649Y-84099112D01*
X81853648Y-84099112D01*
X81656650Y-84132962D01*
X81656649Y-84132962D01*
X81650953Y-84133941D01*
X81452575Y-84207127D01*
X81447614Y-84210079D01*
X81447613Y-84210079D01*
X81325896Y-84282493D01*
X81270856Y-84315238D01*
X81111881Y-84454655D01*
X80980976Y-84620708D01*
X80978287Y-84625819D01*
X80978285Y-84625822D01*
X80939189Y-84700132D01*
X80882523Y-84807836D01*
X80819820Y-85009773D01*
X80794967Y-85219754D01*
X80200500Y-85219754D01*
X80200500Y-84017890D01*
X85582093Y-84017890D01*
X85585876Y-84026666D01*
X86437188Y-84877978D01*
X86451132Y-84885592D01*
X86452965Y-84885461D01*
X86459580Y-84881210D01*
X87311080Y-84029710D01*
X87317840Y-84017330D01*
X87312113Y-84009680D01*
X87140958Y-83904795D01*
X87132163Y-83900313D01*
X86922012Y-83813266D01*
X86912627Y-83810217D01*
X86691446Y-83757115D01*
X86681699Y-83755572D01*
X86454930Y-83737725D01*
X86445070Y-83737725D01*
X86218301Y-83755572D01*
X86208554Y-83757115D01*
X85987373Y-83810217D01*
X85977988Y-83813266D01*
X85767837Y-83900313D01*
X85759042Y-83904795D01*
X85591555Y-84007432D01*
X85582093Y-84017890D01*
X80200500Y-84017890D01*
X80200500Y-79982670D01*
X85582160Y-79982670D01*
X85587887Y-79990320D01*
X85759042Y-80095205D01*
X85767837Y-80099687D01*
X85977988Y-80186734D01*
X85987373Y-80189783D01*
X86208554Y-80242885D01*
X86218301Y-80244428D01*
X86445070Y-80262275D01*
X86454930Y-80262275D01*
X86681699Y-80244428D01*
X86691446Y-80242885D01*
X86912627Y-80189783D01*
X86922012Y-80186734D01*
X87132163Y-80099687D01*
X87140958Y-80095205D01*
X87308445Y-79992568D01*
X87317907Y-79982110D01*
X87314124Y-79973334D01*
X86462812Y-79122022D01*
X86448868Y-79114408D01*
X86447035Y-79114539D01*
X86440420Y-79118790D01*
X85588920Y-79970290D01*
X85582160Y-79982670D01*
X80200500Y-79982670D01*
X80200500Y-78719754D01*
X80794967Y-78719754D01*
X80808796Y-78930749D01*
X80810217Y-78936345D01*
X80810218Y-78936350D01*
X80832784Y-79025200D01*
X80860845Y-79135690D01*
X80949369Y-79327714D01*
X81071405Y-79500391D01*
X81075539Y-79504418D01*
X81212093Y-79637443D01*
X81222865Y-79647937D01*
X81227661Y-79651142D01*
X81227664Y-79651144D01*
X81370936Y-79746875D01*
X81398677Y-79765411D01*
X81403985Y-79767692D01*
X81403986Y-79767692D01*
X81587650Y-79846600D01*
X81587653Y-79846601D01*
X81592953Y-79848878D01*
X81598582Y-79850152D01*
X81598583Y-79850152D01*
X81793550Y-79894269D01*
X81793553Y-79894269D01*
X81799186Y-79895544D01*
X81804957Y-79895771D01*
X81804959Y-79895771D01*
X81866989Y-79898208D01*
X82010470Y-79903846D01*
X82016179Y-79903018D01*
X82016183Y-79903018D01*
X82214015Y-79874333D01*
X82214019Y-79874332D01*
X82219730Y-79873504D01*
X82320345Y-79839350D01*
X82414483Y-79807395D01*
X82414488Y-79807393D01*
X82419955Y-79805537D01*
X82424998Y-79802713D01*
X82599395Y-79705046D01*
X82599399Y-79705043D01*
X82604442Y-79702219D01*
X82767012Y-79567012D01*
X82902219Y-79404442D01*
X82905043Y-79399399D01*
X82905046Y-79399395D01*
X83002713Y-79224998D01*
X83002714Y-79224996D01*
X83005537Y-79219955D01*
X83007393Y-79214488D01*
X83007395Y-79214483D01*
X83071647Y-79025200D01*
X83073504Y-79019730D01*
X83076395Y-78999796D01*
X83103314Y-78814140D01*
X83103314Y-78814138D01*
X83103846Y-78810470D01*
X83105300Y-78754930D01*
X84937725Y-78754930D01*
X84955572Y-78981699D01*
X84957115Y-78991446D01*
X85010217Y-79212627D01*
X85013266Y-79222012D01*
X85100313Y-79432163D01*
X85104795Y-79440958D01*
X85207432Y-79608445D01*
X85217890Y-79617907D01*
X85226666Y-79614124D01*
X86077978Y-78762812D01*
X86084356Y-78751132D01*
X86814408Y-78751132D01*
X86814539Y-78752965D01*
X86818790Y-78759580D01*
X87670290Y-79611080D01*
X87682670Y-79617840D01*
X87690320Y-79612113D01*
X87795205Y-79440958D01*
X87799687Y-79432163D01*
X87886734Y-79222012D01*
X87889783Y-79212627D01*
X87942885Y-78991446D01*
X87944428Y-78981699D01*
X87962275Y-78754930D01*
X87962275Y-78745070D01*
X87960283Y-78719754D01*
X88494967Y-78719754D01*
X88508796Y-78930749D01*
X88510217Y-78936345D01*
X88510218Y-78936350D01*
X88532784Y-79025200D01*
X88560845Y-79135690D01*
X88649369Y-79327714D01*
X88771405Y-79500391D01*
X88775539Y-79504418D01*
X88912093Y-79637443D01*
X88922865Y-79647937D01*
X88927661Y-79651142D01*
X88927664Y-79651144D01*
X89070936Y-79746875D01*
X89098677Y-79765411D01*
X89103985Y-79767692D01*
X89103986Y-79767692D01*
X89287650Y-79846600D01*
X89287653Y-79846601D01*
X89292953Y-79848878D01*
X89298582Y-79850152D01*
X89298583Y-79850152D01*
X89493550Y-79894269D01*
X89493553Y-79894269D01*
X89499186Y-79895544D01*
X89504957Y-79895771D01*
X89504959Y-79895771D01*
X89566989Y-79898208D01*
X89710470Y-79903846D01*
X89716179Y-79903018D01*
X89716183Y-79903018D01*
X89914015Y-79874333D01*
X89914019Y-79874332D01*
X89919730Y-79873504D01*
X90020345Y-79839350D01*
X90114483Y-79807395D01*
X90114488Y-79807393D01*
X90119955Y-79805537D01*
X90124998Y-79802713D01*
X90299395Y-79705046D01*
X90299399Y-79705043D01*
X90304442Y-79702219D01*
X90467012Y-79567012D01*
X90602219Y-79404442D01*
X90605043Y-79399399D01*
X90605046Y-79399395D01*
X90702713Y-79224998D01*
X90702714Y-79224996D01*
X90705537Y-79219955D01*
X90707393Y-79214488D01*
X90707395Y-79214483D01*
X90771647Y-79025200D01*
X90773504Y-79019730D01*
X90776395Y-78999796D01*
X90803314Y-78814140D01*
X90803314Y-78814138D01*
X90803846Y-78810470D01*
X90805300Y-78754930D01*
X92637725Y-78754930D01*
X92655572Y-78981699D01*
X92657115Y-78991446D01*
X92710217Y-79212627D01*
X92713266Y-79222012D01*
X92800313Y-79432163D01*
X92804795Y-79440958D01*
X92907432Y-79608445D01*
X92917890Y-79617907D01*
X92926666Y-79614124D01*
X93777978Y-78762812D01*
X93785592Y-78748868D01*
X93785461Y-78747035D01*
X93781210Y-78740420D01*
X92929710Y-77888920D01*
X92917330Y-77882160D01*
X92909680Y-77887887D01*
X92804795Y-78059042D01*
X92800313Y-78067837D01*
X92713266Y-78277988D01*
X92710217Y-78287373D01*
X92657115Y-78508554D01*
X92655572Y-78518301D01*
X92637725Y-78745070D01*
X92637725Y-78754930D01*
X90805300Y-78754930D01*
X90805429Y-78750000D01*
X90786081Y-78539440D01*
X90780102Y-78518238D01*
X90744519Y-78392071D01*
X90728686Y-78335931D01*
X90717553Y-78313354D01*
X90637719Y-78151469D01*
X90635165Y-78146290D01*
X90508651Y-77976867D01*
X90353381Y-77833337D01*
X90207192Y-77741098D01*
X90179434Y-77723584D01*
X90179433Y-77723584D01*
X90174554Y-77720505D01*
X89978160Y-77642152D01*
X89972503Y-77641027D01*
X89972497Y-77641025D01*
X89776442Y-77602028D01*
X89776440Y-77602028D01*
X89770775Y-77600901D01*
X89765000Y-77600825D01*
X89764996Y-77600825D01*
X89658976Y-77599437D01*
X89559346Y-77598133D01*
X89553649Y-77599112D01*
X89553648Y-77599112D01*
X89356650Y-77632962D01*
X89356649Y-77632962D01*
X89350953Y-77633941D01*
X89152575Y-77707127D01*
X89147614Y-77710079D01*
X89147613Y-77710079D01*
X89084257Y-77747772D01*
X88970856Y-77815238D01*
X88811881Y-77954655D01*
X88680976Y-78120708D01*
X88678287Y-78125819D01*
X88678285Y-78125822D01*
X88628400Y-78220638D01*
X88582523Y-78307836D01*
X88519820Y-78509773D01*
X88494967Y-78719754D01*
X87960283Y-78719754D01*
X87944428Y-78518301D01*
X87942885Y-78508554D01*
X87889783Y-78287373D01*
X87886734Y-78277988D01*
X87799687Y-78067837D01*
X87795205Y-78059042D01*
X87692568Y-77891555D01*
X87682110Y-77882093D01*
X87673334Y-77885876D01*
X86822022Y-78737188D01*
X86814408Y-78751132D01*
X86084356Y-78751132D01*
X86085592Y-78748868D01*
X86085461Y-78747035D01*
X86081210Y-78740420D01*
X85229710Y-77888920D01*
X85217330Y-77882160D01*
X85209680Y-77887887D01*
X85104795Y-78059042D01*
X85100313Y-78067837D01*
X85013266Y-78277988D01*
X85010217Y-78287373D01*
X84957115Y-78508554D01*
X84955572Y-78518301D01*
X84937725Y-78745070D01*
X84937725Y-78754930D01*
X83105300Y-78754930D01*
X83105429Y-78750000D01*
X83086081Y-78539440D01*
X83080102Y-78518238D01*
X83044519Y-78392071D01*
X83028686Y-78335931D01*
X83017553Y-78313354D01*
X82937719Y-78151469D01*
X82935165Y-78146290D01*
X82808651Y-77976867D01*
X82653381Y-77833337D01*
X82507192Y-77741098D01*
X82479434Y-77723584D01*
X82479433Y-77723584D01*
X82474554Y-77720505D01*
X82278160Y-77642152D01*
X82272503Y-77641027D01*
X82272497Y-77641025D01*
X82076442Y-77602028D01*
X82076440Y-77602028D01*
X82070775Y-77600901D01*
X82065000Y-77600825D01*
X82064996Y-77600825D01*
X81958976Y-77599437D01*
X81859346Y-77598133D01*
X81853649Y-77599112D01*
X81853648Y-77599112D01*
X81656650Y-77632962D01*
X81656649Y-77632962D01*
X81650953Y-77633941D01*
X81452575Y-77707127D01*
X81447614Y-77710079D01*
X81447613Y-77710079D01*
X81384257Y-77747772D01*
X81270856Y-77815238D01*
X81111881Y-77954655D01*
X80980976Y-78120708D01*
X80978287Y-78125819D01*
X80978285Y-78125822D01*
X80928400Y-78220638D01*
X80882523Y-78307836D01*
X80819820Y-78509773D01*
X80794967Y-78719754D01*
X80200500Y-78719754D01*
X80200500Y-77517890D01*
X85582093Y-77517890D01*
X85585876Y-77526666D01*
X86437188Y-78377978D01*
X86451132Y-78385592D01*
X86452965Y-78385461D01*
X86459580Y-78381210D01*
X87311080Y-77529710D01*
X87317840Y-77517330D01*
X87312113Y-77509680D01*
X87140958Y-77404795D01*
X87132163Y-77400313D01*
X86922012Y-77313266D01*
X86912627Y-77310217D01*
X86691446Y-77257115D01*
X86681699Y-77255572D01*
X86454930Y-77237725D01*
X86445070Y-77237725D01*
X86218301Y-77255572D01*
X86208554Y-77257115D01*
X85987373Y-77310217D01*
X85977988Y-77313266D01*
X85767837Y-77400313D01*
X85759042Y-77404795D01*
X85591555Y-77507432D01*
X85582093Y-77517890D01*
X80200500Y-77517890D01*
X80200500Y-70600000D01*
X87644750Y-70600000D01*
X87663670Y-70743709D01*
X87719139Y-70877625D01*
X87807379Y-70992621D01*
X87922375Y-71080861D01*
X88056291Y-71136330D01*
X88200000Y-71155250D01*
X88208188Y-71154172D01*
X88208189Y-71154172D01*
X88284761Y-71144091D01*
X88354909Y-71155030D01*
X88390302Y-71179918D01*
X94233014Y-77022630D01*
X94267040Y-77084942D01*
X94261975Y-77155757D01*
X94219428Y-77212593D01*
X94152908Y-77237404D01*
X94146026Y-77237650D01*
X93918301Y-77255572D01*
X93908554Y-77257115D01*
X93687373Y-77310217D01*
X93677988Y-77313266D01*
X93467837Y-77400313D01*
X93459042Y-77404795D01*
X93291555Y-77507432D01*
X93282093Y-77517890D01*
X93285876Y-77526666D01*
X94420115Y-78660905D01*
X94454141Y-78723217D01*
X94449076Y-78794032D01*
X94420115Y-78839095D01*
X93288920Y-79970290D01*
X93282160Y-79982670D01*
X93287887Y-79990320D01*
X93459042Y-80095205D01*
X93467837Y-80099687D01*
X93677988Y-80186734D01*
X93687373Y-80189783D01*
X93908554Y-80242885D01*
X93918301Y-80244428D01*
X94145070Y-80262275D01*
X94154930Y-80262275D01*
X94381699Y-80244428D01*
X94391446Y-80242885D01*
X94612627Y-80189783D01*
X94622012Y-80186734D01*
X94832163Y-80099687D01*
X94840958Y-80095205D01*
X95034899Y-79976357D01*
X95046894Y-79967643D01*
X95047664Y-79968703D01*
X95106965Y-79942135D01*
X95177164Y-79952743D01*
X95230485Y-79999621D01*
X95250000Y-80066978D01*
X95250000Y-83933022D01*
X95229998Y-84001143D01*
X95176342Y-84047636D01*
X95106068Y-84057740D01*
X95047651Y-84031315D01*
X95046894Y-84032357D01*
X95034899Y-84023643D01*
X94840958Y-83904795D01*
X94832163Y-83900313D01*
X94622012Y-83813266D01*
X94612627Y-83810217D01*
X94391446Y-83757115D01*
X94381699Y-83755572D01*
X94154930Y-83737725D01*
X94145070Y-83737725D01*
X93918301Y-83755572D01*
X93908554Y-83757115D01*
X93687373Y-83810217D01*
X93677988Y-83813266D01*
X93467837Y-83900313D01*
X93459042Y-83904795D01*
X93291555Y-84007432D01*
X93282093Y-84017890D01*
X93285876Y-84026666D01*
X94420115Y-85160905D01*
X94454141Y-85223217D01*
X94449076Y-85294032D01*
X94420115Y-85339095D01*
X93288920Y-86470290D01*
X93282160Y-86482670D01*
X93287887Y-86490320D01*
X93459042Y-86595205D01*
X93467837Y-86599687D01*
X93677988Y-86686734D01*
X93687373Y-86689783D01*
X93908554Y-86742885D01*
X93918301Y-86744428D01*
X94145070Y-86762275D01*
X94154930Y-86762275D01*
X94381699Y-86744428D01*
X94391446Y-86742885D01*
X94612627Y-86689783D01*
X94622012Y-86686734D01*
X94832163Y-86599687D01*
X94840958Y-86595205D01*
X95034899Y-86476357D01*
X95046894Y-86467643D01*
X95047664Y-86468703D01*
X95106965Y-86442135D01*
X95177164Y-86452743D01*
X95230485Y-86499621D01*
X95250000Y-86566978D01*
X95250000Y-92805373D01*
X95229998Y-92873494D01*
X95200705Y-92905334D01*
X95132879Y-92957379D01*
X95044639Y-93072375D01*
X94989170Y-93206291D01*
X94970250Y-93350000D01*
X94989170Y-93493709D01*
X95044639Y-93627625D01*
X95132879Y-93742621D01*
X95247875Y-93830861D01*
X95255504Y-93834021D01*
X95381791Y-93886330D01*
X95380664Y-93889051D01*
X95429168Y-93918608D01*
X95460197Y-93982464D01*
X95451777Y-94052960D01*
X95418745Y-94095487D01*
X95419770Y-94096512D01*
X95413929Y-94102353D01*
X95407379Y-94107379D01*
X95319139Y-94222375D01*
X95263670Y-94356291D01*
X95244750Y-94500000D01*
X95263670Y-94643709D01*
X95319139Y-94777625D01*
X95407379Y-94892621D01*
X95522375Y-94980861D01*
X95656291Y-95036330D01*
X95800000Y-95055250D01*
X95943709Y-95036330D01*
X96077625Y-94980861D01*
X96117844Y-94950000D01*
X97794750Y-94950000D01*
X97813670Y-95093709D01*
X97869139Y-95227625D01*
X97957379Y-95342621D01*
X98072375Y-95430861D01*
X98206291Y-95486330D01*
X98350000Y-95505250D01*
X98493709Y-95486330D01*
X98627625Y-95430861D01*
X98742621Y-95342621D01*
X98830861Y-95227625D01*
X98886330Y-95093709D01*
X98905250Y-94950000D01*
X98904172Y-94941811D01*
X98894091Y-94865239D01*
X98905030Y-94795091D01*
X98929918Y-94759698D01*
X102666844Y-91022772D01*
X102685936Y-91007102D01*
X102688307Y-91005518D01*
X102688308Y-91005517D01*
X102698624Y-90998624D01*
X102759515Y-90907495D01*
X102775500Y-90827133D01*
X102780897Y-90800000D01*
X102777921Y-90785039D01*
X102775500Y-90760457D01*
X102775500Y-85981565D01*
X103112964Y-85981565D01*
X103130437Y-86147807D01*
X103133167Y-86160650D01*
X103184819Y-86319617D01*
X103190165Y-86331625D01*
X103206363Y-86359680D01*
X103216569Y-86369411D01*
X103224590Y-86366200D01*
X103602978Y-85987812D01*
X103610592Y-85973868D01*
X103610461Y-85972035D01*
X103606210Y-85965420D01*
X103228233Y-85587443D01*
X103215853Y-85580683D01*
X103208938Y-85585859D01*
X103190165Y-85618375D01*
X103184819Y-85630383D01*
X103133167Y-85789350D01*
X103130437Y-85802193D01*
X103112964Y-85968435D01*
X103112964Y-85981565D01*
X102775500Y-85981565D01*
X102775500Y-85118823D01*
X103469391Y-85118823D01*
X103487980Y-85260979D01*
X103545720Y-85392203D01*
X103551497Y-85399076D01*
X103551498Y-85399077D01*
X103578121Y-85430749D01*
X103637970Y-85501948D01*
X103757313Y-85581390D01*
X103894157Y-85624142D01*
X103903129Y-85624306D01*
X103903132Y-85624307D01*
X103934185Y-85624876D01*
X104001928Y-85646124D01*
X104020970Y-85661760D01*
X104245115Y-85885905D01*
X104279141Y-85948217D01*
X104274076Y-86019032D01*
X104245115Y-86064095D01*
X103586500Y-86722710D01*
X103579740Y-86735090D01*
X103583251Y-86739780D01*
X103671199Y-86778937D01*
X103725295Y-86824918D01*
X103745944Y-86892845D01*
X103726591Y-86961153D01*
X103719914Y-86970747D01*
X103680464Y-87022159D01*
X103619956Y-87168238D01*
X103599318Y-87325000D01*
X103619956Y-87481762D01*
X103680464Y-87627841D01*
X103776718Y-87753282D01*
X103902159Y-87849536D01*
X104048238Y-87910044D01*
X104165639Y-87925500D01*
X105744361Y-87925500D01*
X105861762Y-87910044D01*
X106007841Y-87849536D01*
X106133282Y-87753282D01*
X106212690Y-87649795D01*
X106270027Y-87607929D01*
X106312652Y-87600500D01*
X107327348Y-87600500D01*
X107395469Y-87620502D01*
X107427310Y-87649795D01*
X107506718Y-87753282D01*
X107632159Y-87849536D01*
X107778238Y-87910044D01*
X107895639Y-87925500D01*
X108774361Y-87925500D01*
X108891762Y-87910044D01*
X109037841Y-87849536D01*
X109163282Y-87753282D01*
X109259536Y-87627841D01*
X109320044Y-87481762D01*
X109340682Y-87325000D01*
X109320044Y-87168238D01*
X109259536Y-87022159D01*
X109163282Y-86896718D01*
X109037841Y-86800464D01*
X108891762Y-86739956D01*
X108854801Y-86735090D01*
X108778448Y-86725038D01*
X108778447Y-86725038D01*
X108774361Y-86724500D01*
X108736500Y-86724500D01*
X108668379Y-86704498D01*
X108621886Y-86650842D01*
X108610500Y-86598500D01*
X108610500Y-79401500D01*
X108630502Y-79333379D01*
X108684158Y-79286886D01*
X108736500Y-79275500D01*
X108774361Y-79275500D01*
X108783287Y-79274325D01*
X108883574Y-79261122D01*
X108891762Y-79260044D01*
X109037841Y-79199536D01*
X109128339Y-79130095D01*
X109156736Y-79108305D01*
X109163282Y-79103282D01*
X109259536Y-78977841D01*
X109320044Y-78831762D01*
X109340682Y-78675000D01*
X109320044Y-78518238D01*
X109259536Y-78372159D01*
X109163282Y-78246718D01*
X109037841Y-78150464D01*
X108891762Y-78089956D01*
X108774361Y-78074500D01*
X107895639Y-78074500D01*
X107778238Y-78089956D01*
X107632159Y-78150464D01*
X107506718Y-78246718D01*
X107433993Y-78341496D01*
X107427311Y-78350204D01*
X107369973Y-78392071D01*
X107327348Y-78399500D01*
X106312652Y-78399500D01*
X106244531Y-78379498D01*
X106212689Y-78350204D01*
X106206008Y-78341496D01*
X106133282Y-78246718D01*
X106007841Y-78150464D01*
X105861762Y-78089956D01*
X105744361Y-78074500D01*
X104165639Y-78074500D01*
X104048238Y-78089956D01*
X103902159Y-78150464D01*
X103776718Y-78246718D01*
X103680464Y-78372159D01*
X103619956Y-78518238D01*
X103599318Y-78675000D01*
X103619956Y-78831762D01*
X103680464Y-78977841D01*
X103716804Y-79025200D01*
X103719913Y-79029252D01*
X103745513Y-79095472D01*
X103731248Y-79165021D01*
X103681647Y-79215817D01*
X103671199Y-79221063D01*
X103590237Y-79257110D01*
X103579493Y-79266242D01*
X103581090Y-79271880D01*
X104245115Y-79935905D01*
X104279141Y-79998217D01*
X104274076Y-80069032D01*
X104245115Y-80114095D01*
X104021925Y-80337285D01*
X103959613Y-80371311D01*
X103932061Y-80374188D01*
X103906376Y-80374031D01*
X103768529Y-80413428D01*
X103647280Y-80489930D01*
X103552377Y-80597388D01*
X103491447Y-80727163D01*
X103469391Y-80868823D01*
X103487980Y-81010979D01*
X103545720Y-81142203D01*
X103569508Y-81170502D01*
X103610543Y-81219320D01*
X103639064Y-81284336D01*
X103627908Y-81354450D01*
X103608533Y-81383802D01*
X103558323Y-81440655D01*
X103552377Y-81447388D01*
X103491447Y-81577163D01*
X103469391Y-81718823D01*
X103470555Y-81727725D01*
X103470555Y-81727728D01*
X103476540Y-81773494D01*
X103487980Y-81860979D01*
X103545720Y-81992203D01*
X103564388Y-82014411D01*
X103610543Y-82069320D01*
X103639064Y-82134336D01*
X103627908Y-82204450D01*
X103608533Y-82233802D01*
X103558323Y-82290655D01*
X103552377Y-82297388D01*
X103491447Y-82427163D01*
X103490066Y-82436035D01*
X103473194Y-82544400D01*
X103469391Y-82568823D01*
X103470555Y-82577725D01*
X103470555Y-82577728D01*
X103471814Y-82587354D01*
X103487980Y-82710979D01*
X103545720Y-82842203D01*
X103572783Y-82874398D01*
X103610543Y-82919320D01*
X103639064Y-82984336D01*
X103627908Y-83054450D01*
X103608533Y-83083802D01*
X103558323Y-83140655D01*
X103552377Y-83147388D01*
X103491447Y-83277163D01*
X103469391Y-83418823D01*
X103470555Y-83427725D01*
X103470555Y-83427728D01*
X103471814Y-83437354D01*
X103487980Y-83560979D01*
X103491597Y-83569199D01*
X103541385Y-83682350D01*
X103545720Y-83692203D01*
X103583985Y-83737725D01*
X103610543Y-83769320D01*
X103639064Y-83834336D01*
X103627908Y-83904450D01*
X103608533Y-83933802D01*
X103577706Y-83968708D01*
X103552377Y-83997388D01*
X103491447Y-84127163D01*
X103488780Y-84144292D01*
X103476435Y-84223584D01*
X103469391Y-84268823D01*
X103470555Y-84277725D01*
X103470555Y-84277728D01*
X103471814Y-84287354D01*
X103487980Y-84410979D01*
X103545720Y-84542203D01*
X103559875Y-84559042D01*
X103610543Y-84619320D01*
X103639064Y-84684336D01*
X103627908Y-84754450D01*
X103608533Y-84783802D01*
X103567072Y-84830749D01*
X103552377Y-84847388D01*
X103491447Y-84977163D01*
X103469391Y-85118823D01*
X102775500Y-85118823D01*
X102775500Y-80031565D01*
X103112964Y-80031565D01*
X103130437Y-80197807D01*
X103133167Y-80210650D01*
X103184819Y-80369617D01*
X103190165Y-80381625D01*
X103206363Y-80409680D01*
X103216569Y-80419411D01*
X103224590Y-80416200D01*
X103602978Y-80037812D01*
X103610592Y-80023868D01*
X103610461Y-80022035D01*
X103606210Y-80015420D01*
X103228233Y-79637443D01*
X103215853Y-79630683D01*
X103208938Y-79635859D01*
X103190165Y-79668375D01*
X103184819Y-79680383D01*
X103133167Y-79839350D01*
X103130437Y-79852193D01*
X103112964Y-80018435D01*
X103112964Y-80031565D01*
X102775500Y-80031565D01*
X102775500Y-77594627D01*
X102795502Y-77526506D01*
X102824796Y-77494665D01*
X102886071Y-77447647D01*
X102892621Y-77442621D01*
X102980861Y-77327625D01*
X103036330Y-77193709D01*
X103055250Y-77050000D01*
X103036330Y-76906291D01*
X102980861Y-76772375D01*
X102892621Y-76657379D01*
X102777625Y-76569139D01*
X102643709Y-76513670D01*
X102500000Y-76494750D01*
X102356291Y-76513670D01*
X102222375Y-76569139D01*
X102107379Y-76657379D01*
X102019139Y-76772375D01*
X101963670Y-76906291D01*
X101944750Y-77050000D01*
X101963670Y-77193709D01*
X102019139Y-77327625D01*
X102107379Y-77442621D01*
X102113929Y-77447647D01*
X102175204Y-77494665D01*
X102217071Y-77552003D01*
X102224500Y-77594627D01*
X102224500Y-90633694D01*
X102204498Y-90701815D01*
X102187595Y-90722789D01*
X98540302Y-94370082D01*
X98477990Y-94404108D01*
X98434761Y-94405909D01*
X98358189Y-94395828D01*
X98358188Y-94395828D01*
X98350000Y-94394750D01*
X98206291Y-94413670D01*
X98072375Y-94469139D01*
X97957379Y-94557379D01*
X97869139Y-94672375D01*
X97813670Y-94806291D01*
X97794750Y-94950000D01*
X96117844Y-94950000D01*
X96192621Y-94892621D01*
X96280861Y-94777625D01*
X96336330Y-94643709D01*
X96355250Y-94500000D01*
X96344581Y-94418959D01*
X96355520Y-94348810D01*
X96380408Y-94313418D01*
X96388311Y-94305515D01*
X96398624Y-94298624D01*
X96449573Y-94222375D01*
X96459515Y-94207495D01*
X96470159Y-94153983D01*
X96475498Y-94127146D01*
X96475501Y-94127122D01*
X96478126Y-94113929D01*
X96480896Y-94100000D01*
X96477921Y-94085043D01*
X96475500Y-94060463D01*
X96475500Y-76939543D01*
X96477921Y-76914961D01*
X96478476Y-76912171D01*
X96480897Y-76900000D01*
X96469700Y-76843709D01*
X96459515Y-76792505D01*
X96398624Y-76701376D01*
X96396565Y-76700000D01*
X98394750Y-76700000D01*
X98413670Y-76843709D01*
X98469139Y-76977625D01*
X98557379Y-77092621D01*
X98672375Y-77180861D01*
X98806291Y-77236330D01*
X98950000Y-77255250D01*
X98958188Y-77254172D01*
X98958189Y-77254172D01*
X99034761Y-77244091D01*
X99104909Y-77255030D01*
X99140302Y-77279918D01*
X99227229Y-77366845D01*
X99242896Y-77385934D01*
X99251376Y-77398624D01*
X99261689Y-77405515D01*
X99274377Y-77413993D01*
X99274378Y-77413994D01*
X99290560Y-77424806D01*
X99290562Y-77424808D01*
X99332185Y-77452620D01*
X99332188Y-77452621D01*
X99342505Y-77459515D01*
X99422867Y-77475500D01*
X99437828Y-77478476D01*
X99437829Y-77478476D01*
X99450000Y-77480897D01*
X99462171Y-77478476D01*
X99462173Y-77478476D01*
X99464963Y-77477921D01*
X99489543Y-77475500D01*
X100123072Y-77475500D01*
X100191193Y-77495502D01*
X100223033Y-77524795D01*
X100275078Y-77592621D01*
X100390074Y-77680861D01*
X100523990Y-77736330D01*
X100560206Y-77741098D01*
X100614947Y-77748305D01*
X100679874Y-77777028D01*
X100718965Y-77836293D01*
X100724500Y-77873227D01*
X100724500Y-81705373D01*
X100704498Y-81773494D01*
X100675205Y-81805334D01*
X100607379Y-81857379D01*
X100519139Y-81972375D01*
X100515977Y-81980010D01*
X100512533Y-81985974D01*
X100461150Y-82034967D01*
X100391436Y-82048402D01*
X100325525Y-82022015D01*
X100314631Y-82012345D01*
X100309720Y-82005945D01*
X100194724Y-81917705D01*
X100060808Y-81862236D01*
X99917099Y-81843316D01*
X99773390Y-81862236D01*
X99639474Y-81917705D01*
X99524478Y-82005945D01*
X99436238Y-82120941D01*
X99380769Y-82254857D01*
X99361849Y-82398566D01*
X99380769Y-82542275D01*
X99436238Y-82676191D01*
X99524478Y-82791187D01*
X99639474Y-82879427D01*
X99773390Y-82934896D01*
X99917099Y-82953816D01*
X99925287Y-82952738D01*
X99925288Y-82952738D01*
X100001860Y-82942657D01*
X100072008Y-82953596D01*
X100107401Y-82978484D01*
X101035313Y-83906396D01*
X101069339Y-83968708D01*
X101064274Y-84039523D01*
X101022922Y-84095452D01*
X101007379Y-84107379D01*
X100919139Y-84222375D01*
X100863670Y-84356291D01*
X100844750Y-84500000D01*
X100863670Y-84643709D01*
X100919139Y-84777625D01*
X101007379Y-84892621D01*
X101122375Y-84980861D01*
X101256291Y-85036330D01*
X101400000Y-85055250D01*
X101543709Y-85036330D01*
X101677625Y-84980861D01*
X101792621Y-84892621D01*
X101880861Y-84777625D01*
X101936330Y-84643709D01*
X101955250Y-84500000D01*
X101936330Y-84356291D01*
X101880861Y-84222375D01*
X101792621Y-84107379D01*
X101724796Y-84055334D01*
X101682929Y-83997997D01*
X101675500Y-83955373D01*
X101675500Y-83921010D01*
X101677921Y-83896430D01*
X101678476Y-83893640D01*
X101678476Y-83893638D01*
X101680897Y-83881467D01*
X101659515Y-83773973D01*
X101659515Y-83773972D01*
X101618362Y-83712383D01*
X101613994Y-83705845D01*
X101616835Y-83703947D01*
X101616835Y-83703945D01*
X101613993Y-83705844D01*
X101605515Y-83693156D01*
X101598624Y-83682843D01*
X101585936Y-83674365D01*
X101566844Y-83658695D01*
X100927409Y-83019260D01*
X100893383Y-82956948D01*
X100898448Y-82886133D01*
X100940995Y-82829297D01*
X101000057Y-82805243D01*
X101109079Y-82790889D01*
X101143709Y-82786330D01*
X101277625Y-82730861D01*
X101392621Y-82642621D01*
X101480861Y-82527625D01*
X101536330Y-82393709D01*
X101555250Y-82250000D01*
X101536330Y-82106291D01*
X101480861Y-81972375D01*
X101392621Y-81857379D01*
X101324796Y-81805334D01*
X101282929Y-81747997D01*
X101275500Y-81705373D01*
X101275500Y-77571843D01*
X101277921Y-77547263D01*
X101278476Y-77544473D01*
X101280897Y-77532301D01*
X101259516Y-77424807D01*
X101252291Y-77413994D01*
X101230590Y-77381516D01*
X101209375Y-77313763D01*
X101210433Y-77295068D01*
X101221871Y-77208188D01*
X101222949Y-77200000D01*
X101204029Y-77056291D01*
X101148560Y-76922375D01*
X101060320Y-76807379D01*
X100945324Y-76719139D01*
X100811408Y-76663670D01*
X100667699Y-76644750D01*
X100523990Y-76663670D01*
X100390074Y-76719139D01*
X100275078Y-76807379D01*
X100241346Y-76851340D01*
X100223034Y-76875204D01*
X100165696Y-76917071D01*
X100123072Y-76924500D01*
X99619369Y-76924500D01*
X99551248Y-76904498D01*
X99504755Y-76850842D01*
X99494447Y-76782053D01*
X99504172Y-76708188D01*
X99505250Y-76700000D01*
X99486330Y-76556291D01*
X99430861Y-76422375D01*
X99342621Y-76307379D01*
X99227625Y-76219139D01*
X99093709Y-76163670D01*
X98950000Y-76144750D01*
X98806291Y-76163670D01*
X98672375Y-76219139D01*
X98557379Y-76307379D01*
X98469139Y-76422375D01*
X98413670Y-76556291D01*
X98394750Y-76700000D01*
X96396565Y-76700000D01*
X96385936Y-76692898D01*
X96366844Y-76677228D01*
X88879918Y-69190302D01*
X88845892Y-69127990D01*
X88844091Y-69084761D01*
X88854172Y-69008189D01*
X88854172Y-69008188D01*
X88855250Y-69000000D01*
X88836330Y-68856291D01*
X88780861Y-68722375D01*
X88692621Y-68607379D01*
X88577625Y-68519139D01*
X88443709Y-68463670D01*
X88300000Y-68444750D01*
X88156291Y-68463670D01*
X88022375Y-68519139D01*
X87907379Y-68607379D01*
X87819139Y-68722375D01*
X87763670Y-68856291D01*
X87744750Y-69000000D01*
X87763670Y-69143709D01*
X87819139Y-69277625D01*
X87907379Y-69392621D01*
X88022375Y-69480861D01*
X88156291Y-69536330D01*
X88300000Y-69555250D01*
X88308188Y-69554172D01*
X88308189Y-69554172D01*
X88384761Y-69544091D01*
X88454909Y-69555030D01*
X88490302Y-69579918D01*
X95887595Y-76977211D01*
X95921621Y-77039523D01*
X95924500Y-77066306D01*
X95924500Y-77626484D01*
X95904498Y-77694605D01*
X95850842Y-77741098D01*
X95780568Y-77751202D01*
X95724867Y-77725763D01*
X95724124Y-77726876D01*
X95714969Y-77720758D01*
X95714967Y-77720757D01*
X95711436Y-77718398D01*
X95692344Y-77702728D01*
X88779918Y-70790302D01*
X88745892Y-70727990D01*
X88744091Y-70684761D01*
X88754172Y-70608189D01*
X88754172Y-70608188D01*
X88755250Y-70600000D01*
X88736330Y-70456291D01*
X88680861Y-70322375D01*
X88592621Y-70207379D01*
X88477625Y-70119139D01*
X88343709Y-70063670D01*
X88200000Y-70044750D01*
X88056291Y-70063670D01*
X87922375Y-70119139D01*
X87807379Y-70207379D01*
X87719139Y-70322375D01*
X87663670Y-70456291D01*
X87644750Y-70600000D01*
X80200500Y-70600000D01*
X80200500Y-60326500D01*
X80220502Y-60258379D01*
X80274158Y-60211886D01*
X80326500Y-60200500D01*
X85874000Y-60200500D01*
X85942121Y-60220502D01*
G37*
%TD.AperFunction*%
%TA.AperFunction,Conductor*%
G36*
X107395469Y-78970502D02*
G01*
X107427310Y-78999795D01*
X107506718Y-79103282D01*
X107513264Y-79108305D01*
X107541661Y-79130095D01*
X107632159Y-79199536D01*
X107778238Y-79260044D01*
X107786426Y-79261122D01*
X107886714Y-79274325D01*
X107895639Y-79275500D01*
X107933500Y-79275500D01*
X108001621Y-79295502D01*
X108048114Y-79349158D01*
X108059500Y-79401500D01*
X108059500Y-86598500D01*
X108039498Y-86666621D01*
X107985842Y-86713114D01*
X107933500Y-86724500D01*
X107895639Y-86724500D01*
X107891553Y-86725038D01*
X107891552Y-86725038D01*
X107815199Y-86735090D01*
X107778238Y-86739956D01*
X107632159Y-86800464D01*
X107506718Y-86896718D01*
X107457276Y-86961153D01*
X107427311Y-87000204D01*
X107369973Y-87042071D01*
X107327348Y-87049500D01*
X106312652Y-87049500D01*
X106244531Y-87029498D01*
X106212689Y-87000204D01*
X106182725Y-86961153D01*
X106133282Y-86896718D01*
X106007841Y-86800464D01*
X105861762Y-86739956D01*
X105824801Y-86735090D01*
X105753287Y-86725675D01*
X105688360Y-86696953D01*
X105680638Y-86689848D01*
X105054885Y-86064095D01*
X105020859Y-86001783D01*
X105025924Y-85930968D01*
X105054885Y-85885905D01*
X105235905Y-85704885D01*
X105298217Y-85670859D01*
X105369032Y-85675924D01*
X105414095Y-85704885D01*
X106071767Y-86362557D01*
X106084147Y-86369317D01*
X106091062Y-86364141D01*
X106109835Y-86331625D01*
X106115181Y-86319617D01*
X106166833Y-86160650D01*
X106169563Y-86147807D01*
X106187036Y-85981565D01*
X106187036Y-85968435D01*
X106169563Y-85802193D01*
X106166833Y-85789350D01*
X106115181Y-85630383D01*
X106109836Y-85618378D01*
X106035783Y-85490112D01*
X106019046Y-85421117D01*
X106042267Y-85354025D01*
X106055808Y-85338018D01*
X106063311Y-85330515D01*
X106073624Y-85323624D01*
X106082102Y-85310936D01*
X106097772Y-85291844D01*
X106366844Y-85022772D01*
X106385936Y-85007102D01*
X106388307Y-85005518D01*
X106388308Y-85005517D01*
X106398624Y-84998624D01*
X106427241Y-84955797D01*
X106459515Y-84907495D01*
X106461981Y-84895099D01*
X106475500Y-84827133D01*
X106475500Y-84827129D01*
X106480896Y-84800000D01*
X106477921Y-84785043D01*
X106475500Y-84760463D01*
X106475500Y-81239537D01*
X106477921Y-81214957D01*
X106478475Y-81212172D01*
X106480896Y-81200000D01*
X106475500Y-81172871D01*
X106475500Y-81172867D01*
X106459515Y-81092505D01*
X106446899Y-81073624D01*
X106413994Y-81024378D01*
X106413993Y-81024377D01*
X106398624Y-81001376D01*
X106385936Y-80992898D01*
X106366844Y-80977228D01*
X106097772Y-80708156D01*
X106082102Y-80689064D01*
X106080515Y-80686689D01*
X106073624Y-80676376D01*
X106063311Y-80669485D01*
X106055808Y-80661982D01*
X106021782Y-80599670D01*
X106026847Y-80528855D01*
X106035783Y-80509888D01*
X106109836Y-80381622D01*
X106115181Y-80369617D01*
X106166833Y-80210650D01*
X106169563Y-80197807D01*
X106187036Y-80031565D01*
X106187036Y-80018435D01*
X106169563Y-79852193D01*
X106166833Y-79839350D01*
X106115181Y-79680383D01*
X106109835Y-79668375D01*
X106093637Y-79640320D01*
X106083431Y-79630589D01*
X106075410Y-79633800D01*
X105414095Y-80295115D01*
X105351783Y-80329141D01*
X105280968Y-80324076D01*
X105235905Y-80295115D01*
X105054885Y-80114095D01*
X105020859Y-80051783D01*
X105025924Y-79980968D01*
X105054885Y-79935905D01*
X105680638Y-79310152D01*
X105742950Y-79276126D01*
X105753287Y-79274325D01*
X105853574Y-79261122D01*
X105861762Y-79260044D01*
X106007841Y-79199536D01*
X106098339Y-79130095D01*
X106126736Y-79108305D01*
X106133282Y-79103282D01*
X106212690Y-78999795D01*
X106270027Y-78957929D01*
X106312652Y-78950500D01*
X107327348Y-78950500D01*
X107395469Y-78970502D01*
G37*
%TD.AperFunction*%
%TD*%
M02*
