%TF.GenerationSoftware,KiCad,Pcbnew,7.0.9*%
%TF.CreationDate,2024-01-01T22:47:05-05:00*%
%TF.ProjectId,Vex_Debug,5665785f-4465-4627-9567-2e6b69636164,rev?*%
%TF.SameCoordinates,Original*%
%TF.FileFunction,Legend,Top*%
%TF.FilePolarity,Positive*%
%FSLAX46Y46*%
G04 Gerber Fmt 4.6, Leading zero omitted, Abs format (unit mm)*
G04 Created by KiCad (PCBNEW 7.0.9) date 2024-01-01 22:47:05*
%MOMM*%
%LPD*%
G01*
G04 APERTURE LIST*
%ADD10C,0.150000*%
%ADD11C,0.300000*%
%ADD12C,0.120000*%
%ADD13C,0.127000*%
%ADD14C,0.200000*%
G04 APERTURE END LIST*
D10*
X103174306Y-58206854D02*
X104957608Y-58206854D01*
X105206782Y-59692125D02*
X106804425Y-59692125D01*
D11*
X105169764Y-111352464D02*
X105169764Y-109852464D01*
X105169764Y-109852464D02*
X105741193Y-109852464D01*
X105741193Y-109852464D02*
X105884050Y-109923893D01*
X105884050Y-109923893D02*
X105955479Y-109995321D01*
X105955479Y-109995321D02*
X106026907Y-110138178D01*
X106026907Y-110138178D02*
X106026907Y-110352464D01*
X106026907Y-110352464D02*
X105955479Y-110495321D01*
X105955479Y-110495321D02*
X105884050Y-110566750D01*
X105884050Y-110566750D02*
X105741193Y-110638178D01*
X105741193Y-110638178D02*
X105169764Y-110638178D01*
X106526907Y-109852464D02*
X106884050Y-111352464D01*
X106884050Y-111352464D02*
X107169764Y-110281036D01*
X107169764Y-110281036D02*
X107455479Y-111352464D01*
X107455479Y-111352464D02*
X107812622Y-109852464D01*
X109241193Y-111352464D02*
X108741193Y-110638178D01*
X108384050Y-111352464D02*
X108384050Y-109852464D01*
X108384050Y-109852464D02*
X108955479Y-109852464D01*
X108955479Y-109852464D02*
X109098336Y-109923893D01*
X109098336Y-109923893D02*
X109169765Y-109995321D01*
X109169765Y-109995321D02*
X109241193Y-110138178D01*
X109241193Y-110138178D02*
X109241193Y-110352464D01*
X109241193Y-110352464D02*
X109169765Y-110495321D01*
X109169765Y-110495321D02*
X109098336Y-110566750D01*
X109098336Y-110566750D02*
X108955479Y-110638178D01*
X108955479Y-110638178D02*
X108384050Y-110638178D01*
D10*
X103170112Y-68846009D02*
X103312969Y-68893628D01*
X103312969Y-68893628D02*
X103360588Y-68941247D01*
X103360588Y-68941247D02*
X103408207Y-69036485D01*
X103408207Y-69036485D02*
X103408207Y-69179342D01*
X103408207Y-69179342D02*
X103360588Y-69274580D01*
X103360588Y-69274580D02*
X103312969Y-69322200D01*
X103312969Y-69322200D02*
X103217731Y-69369819D01*
X103217731Y-69369819D02*
X102836779Y-69369819D01*
X102836779Y-69369819D02*
X102836779Y-68369819D01*
X102836779Y-68369819D02*
X103170112Y-68369819D01*
X103170112Y-68369819D02*
X103265350Y-68417438D01*
X103265350Y-68417438D02*
X103312969Y-68465057D01*
X103312969Y-68465057D02*
X103360588Y-68560295D01*
X103360588Y-68560295D02*
X103360588Y-68655533D01*
X103360588Y-68655533D02*
X103312969Y-68750771D01*
X103312969Y-68750771D02*
X103265350Y-68798390D01*
X103265350Y-68798390D02*
X103170112Y-68846009D01*
X103170112Y-68846009D02*
X102836779Y-68846009D01*
D11*
X125760512Y-111214237D02*
X125974798Y-111285665D01*
X125974798Y-111285665D02*
X126331940Y-111285665D01*
X126331940Y-111285665D02*
X126474798Y-111214237D01*
X126474798Y-111214237D02*
X126546226Y-111142808D01*
X126546226Y-111142808D02*
X126617655Y-110999951D01*
X126617655Y-110999951D02*
X126617655Y-110857094D01*
X126617655Y-110857094D02*
X126546226Y-110714237D01*
X126546226Y-110714237D02*
X126474798Y-110642808D01*
X126474798Y-110642808D02*
X126331940Y-110571379D01*
X126331940Y-110571379D02*
X126046226Y-110499951D01*
X126046226Y-110499951D02*
X125903369Y-110428522D01*
X125903369Y-110428522D02*
X125831940Y-110357094D01*
X125831940Y-110357094D02*
X125760512Y-110214237D01*
X125760512Y-110214237D02*
X125760512Y-110071379D01*
X125760512Y-110071379D02*
X125831940Y-109928522D01*
X125831940Y-109928522D02*
X125903369Y-109857094D01*
X125903369Y-109857094D02*
X126046226Y-109785665D01*
X126046226Y-109785665D02*
X126403369Y-109785665D01*
X126403369Y-109785665D02*
X126617655Y-109857094D01*
X127046226Y-109785665D02*
X127903369Y-109785665D01*
X127474797Y-111285665D02*
X127474797Y-109785665D01*
X128331940Y-110857094D02*
X129046226Y-110857094D01*
X128189083Y-111285665D02*
X128689083Y-109785665D01*
X128689083Y-109785665D02*
X129189083Y-111285665D01*
X129474797Y-109785665D02*
X130331940Y-109785665D01*
X129903368Y-111285665D02*
X129903368Y-109785665D01*
D10*
X103408207Y-71869819D02*
X103074874Y-71393628D01*
X102836779Y-71869819D02*
X102836779Y-70869819D01*
X102836779Y-70869819D02*
X103217731Y-70869819D01*
X103217731Y-70869819D02*
X103312969Y-70917438D01*
X103312969Y-70917438D02*
X103360588Y-70965057D01*
X103360588Y-70965057D02*
X103408207Y-71060295D01*
X103408207Y-71060295D02*
X103408207Y-71203152D01*
X103408207Y-71203152D02*
X103360588Y-71298390D01*
X103360588Y-71298390D02*
X103312969Y-71346009D01*
X103312969Y-71346009D02*
X103217731Y-71393628D01*
X103217731Y-71393628D02*
X102836779Y-71393628D01*
X109238095Y-68454819D02*
X109238095Y-69264342D01*
X109238095Y-69264342D02*
X109285714Y-69359580D01*
X109285714Y-69359580D02*
X109333333Y-69407200D01*
X109333333Y-69407200D02*
X109428571Y-69454819D01*
X109428571Y-69454819D02*
X109619047Y-69454819D01*
X109619047Y-69454819D02*
X109714285Y-69407200D01*
X109714285Y-69407200D02*
X109761904Y-69359580D01*
X109761904Y-69359580D02*
X109809523Y-69264342D01*
X109809523Y-69264342D02*
X109809523Y-68454819D01*
X110714285Y-68788152D02*
X110714285Y-69454819D01*
X110476190Y-68407200D02*
X110238095Y-69121485D01*
X110238095Y-69121485D02*
X110857142Y-69121485D01*
X116261905Y-81454819D02*
X116261905Y-80454819D01*
X116261905Y-80454819D02*
X116500000Y-80454819D01*
X116500000Y-80454819D02*
X116642857Y-80502438D01*
X116642857Y-80502438D02*
X116738095Y-80597676D01*
X116738095Y-80597676D02*
X116785714Y-80692914D01*
X116785714Y-80692914D02*
X116833333Y-80883390D01*
X116833333Y-80883390D02*
X116833333Y-81026247D01*
X116833333Y-81026247D02*
X116785714Y-81216723D01*
X116785714Y-81216723D02*
X116738095Y-81311961D01*
X116738095Y-81311961D02*
X116642857Y-81407200D01*
X116642857Y-81407200D02*
X116500000Y-81454819D01*
X116500000Y-81454819D02*
X116261905Y-81454819D01*
X117690476Y-80454819D02*
X117500000Y-80454819D01*
X117500000Y-80454819D02*
X117404762Y-80502438D01*
X117404762Y-80502438D02*
X117357143Y-80550057D01*
X117357143Y-80550057D02*
X117261905Y-80692914D01*
X117261905Y-80692914D02*
X117214286Y-80883390D01*
X117214286Y-80883390D02*
X117214286Y-81264342D01*
X117214286Y-81264342D02*
X117261905Y-81359580D01*
X117261905Y-81359580D02*
X117309524Y-81407200D01*
X117309524Y-81407200D02*
X117404762Y-81454819D01*
X117404762Y-81454819D02*
X117595238Y-81454819D01*
X117595238Y-81454819D02*
X117690476Y-81407200D01*
X117690476Y-81407200D02*
X117738095Y-81359580D01*
X117738095Y-81359580D02*
X117785714Y-81264342D01*
X117785714Y-81264342D02*
X117785714Y-81026247D01*
X117785714Y-81026247D02*
X117738095Y-80931009D01*
X117738095Y-80931009D02*
X117690476Y-80883390D01*
X117690476Y-80883390D02*
X117595238Y-80835771D01*
X117595238Y-80835771D02*
X117404762Y-80835771D01*
X117404762Y-80835771D02*
X117309524Y-80883390D01*
X117309524Y-80883390D02*
X117261905Y-80931009D01*
X117261905Y-80931009D02*
X117214286Y-81026247D01*
X108238095Y-92954819D02*
X108238095Y-93764342D01*
X108238095Y-93764342D02*
X108285714Y-93859580D01*
X108285714Y-93859580D02*
X108333333Y-93907200D01*
X108333333Y-93907200D02*
X108428571Y-93954819D01*
X108428571Y-93954819D02*
X108619047Y-93954819D01*
X108619047Y-93954819D02*
X108714285Y-93907200D01*
X108714285Y-93907200D02*
X108761904Y-93859580D01*
X108761904Y-93859580D02*
X108809523Y-93764342D01*
X108809523Y-93764342D02*
X108809523Y-92954819D01*
X109238095Y-93050057D02*
X109285714Y-93002438D01*
X109285714Y-93002438D02*
X109380952Y-92954819D01*
X109380952Y-92954819D02*
X109619047Y-92954819D01*
X109619047Y-92954819D02*
X109714285Y-93002438D01*
X109714285Y-93002438D02*
X109761904Y-93050057D01*
X109761904Y-93050057D02*
X109809523Y-93145295D01*
X109809523Y-93145295D02*
X109809523Y-93240533D01*
X109809523Y-93240533D02*
X109761904Y-93383390D01*
X109761904Y-93383390D02*
X109190476Y-93954819D01*
X109190476Y-93954819D02*
X109809523Y-93954819D01*
X113638095Y-59654819D02*
X113638095Y-60464342D01*
X113638095Y-60464342D02*
X113685714Y-60559580D01*
X113685714Y-60559580D02*
X113733333Y-60607200D01*
X113733333Y-60607200D02*
X113828571Y-60654819D01*
X113828571Y-60654819D02*
X114019047Y-60654819D01*
X114019047Y-60654819D02*
X114114285Y-60607200D01*
X114114285Y-60607200D02*
X114161904Y-60559580D01*
X114161904Y-60559580D02*
X114209523Y-60464342D01*
X114209523Y-60464342D02*
X114209523Y-59654819D01*
X115209523Y-60654819D02*
X114638095Y-60654819D01*
X114923809Y-60654819D02*
X114923809Y-59654819D01*
X114923809Y-59654819D02*
X114828571Y-59797676D01*
X114828571Y-59797676D02*
X114733333Y-59892914D01*
X114733333Y-59892914D02*
X114638095Y-59940533D01*
X114238095Y-87454819D02*
X114238095Y-88264342D01*
X114238095Y-88264342D02*
X114285714Y-88359580D01*
X114285714Y-88359580D02*
X114333333Y-88407200D01*
X114333333Y-88407200D02*
X114428571Y-88454819D01*
X114428571Y-88454819D02*
X114619047Y-88454819D01*
X114619047Y-88454819D02*
X114714285Y-88407200D01*
X114714285Y-88407200D02*
X114761904Y-88359580D01*
X114761904Y-88359580D02*
X114809523Y-88264342D01*
X114809523Y-88264342D02*
X114809523Y-87454819D01*
X115190476Y-87454819D02*
X115809523Y-87454819D01*
X115809523Y-87454819D02*
X115476190Y-87835771D01*
X115476190Y-87835771D02*
X115619047Y-87835771D01*
X115619047Y-87835771D02*
X115714285Y-87883390D01*
X115714285Y-87883390D02*
X115761904Y-87931009D01*
X115761904Y-87931009D02*
X115809523Y-88026247D01*
X115809523Y-88026247D02*
X115809523Y-88264342D01*
X115809523Y-88264342D02*
X115761904Y-88359580D01*
X115761904Y-88359580D02*
X115714285Y-88407200D01*
X115714285Y-88407200D02*
X115619047Y-88454819D01*
X115619047Y-88454819D02*
X115333333Y-88454819D01*
X115333333Y-88454819D02*
X115238095Y-88407200D01*
X115238095Y-88407200D02*
X115190476Y-88359580D01*
X104870833Y-53679580D02*
X104823214Y-53727200D01*
X104823214Y-53727200D02*
X104680357Y-53774819D01*
X104680357Y-53774819D02*
X104585119Y-53774819D01*
X104585119Y-53774819D02*
X104442262Y-53727200D01*
X104442262Y-53727200D02*
X104347024Y-53631961D01*
X104347024Y-53631961D02*
X104299405Y-53536723D01*
X104299405Y-53536723D02*
X104251786Y-53346247D01*
X104251786Y-53346247D02*
X104251786Y-53203390D01*
X104251786Y-53203390D02*
X104299405Y-53012914D01*
X104299405Y-53012914D02*
X104347024Y-52917676D01*
X104347024Y-52917676D02*
X104442262Y-52822438D01*
X104442262Y-52822438D02*
X104585119Y-52774819D01*
X104585119Y-52774819D02*
X104680357Y-52774819D01*
X104680357Y-52774819D02*
X104823214Y-52822438D01*
X104823214Y-52822438D02*
X104870833Y-52870057D01*
X105823214Y-53774819D02*
X105251786Y-53774819D01*
X105537500Y-53774819D02*
X105537500Y-52774819D01*
X105537500Y-52774819D02*
X105442262Y-52917676D01*
X105442262Y-52917676D02*
X105347024Y-53012914D01*
X105347024Y-53012914D02*
X105251786Y-53060533D01*
X116833333Y-73454819D02*
X116500000Y-72978628D01*
X116261905Y-73454819D02*
X116261905Y-72454819D01*
X116261905Y-72454819D02*
X116642857Y-72454819D01*
X116642857Y-72454819D02*
X116738095Y-72502438D01*
X116738095Y-72502438D02*
X116785714Y-72550057D01*
X116785714Y-72550057D02*
X116833333Y-72645295D01*
X116833333Y-72645295D02*
X116833333Y-72788152D01*
X116833333Y-72788152D02*
X116785714Y-72883390D01*
X116785714Y-72883390D02*
X116738095Y-72931009D01*
X116738095Y-72931009D02*
X116642857Y-72978628D01*
X116642857Y-72978628D02*
X116261905Y-72978628D01*
X117214286Y-72550057D02*
X117261905Y-72502438D01*
X117261905Y-72502438D02*
X117357143Y-72454819D01*
X117357143Y-72454819D02*
X117595238Y-72454819D01*
X117595238Y-72454819D02*
X117690476Y-72502438D01*
X117690476Y-72502438D02*
X117738095Y-72550057D01*
X117738095Y-72550057D02*
X117785714Y-72645295D01*
X117785714Y-72645295D02*
X117785714Y-72740533D01*
X117785714Y-72740533D02*
X117738095Y-72883390D01*
X117738095Y-72883390D02*
X117166667Y-73454819D01*
X117166667Y-73454819D02*
X117785714Y-73454819D01*
X129233333Y-53854819D02*
X128900000Y-53378628D01*
X128661905Y-53854819D02*
X128661905Y-52854819D01*
X128661905Y-52854819D02*
X129042857Y-52854819D01*
X129042857Y-52854819D02*
X129138095Y-52902438D01*
X129138095Y-52902438D02*
X129185714Y-52950057D01*
X129185714Y-52950057D02*
X129233333Y-53045295D01*
X129233333Y-53045295D02*
X129233333Y-53188152D01*
X129233333Y-53188152D02*
X129185714Y-53283390D01*
X129185714Y-53283390D02*
X129138095Y-53331009D01*
X129138095Y-53331009D02*
X129042857Y-53378628D01*
X129042857Y-53378628D02*
X128661905Y-53378628D01*
X129804762Y-53283390D02*
X129709524Y-53235771D01*
X129709524Y-53235771D02*
X129661905Y-53188152D01*
X129661905Y-53188152D02*
X129614286Y-53092914D01*
X129614286Y-53092914D02*
X129614286Y-53045295D01*
X129614286Y-53045295D02*
X129661905Y-52950057D01*
X129661905Y-52950057D02*
X129709524Y-52902438D01*
X129709524Y-52902438D02*
X129804762Y-52854819D01*
X129804762Y-52854819D02*
X129995238Y-52854819D01*
X129995238Y-52854819D02*
X130090476Y-52902438D01*
X130090476Y-52902438D02*
X130138095Y-52950057D01*
X130138095Y-52950057D02*
X130185714Y-53045295D01*
X130185714Y-53045295D02*
X130185714Y-53092914D01*
X130185714Y-53092914D02*
X130138095Y-53188152D01*
X130138095Y-53188152D02*
X130090476Y-53235771D01*
X130090476Y-53235771D02*
X129995238Y-53283390D01*
X129995238Y-53283390D02*
X129804762Y-53283390D01*
X129804762Y-53283390D02*
X129709524Y-53331009D01*
X129709524Y-53331009D02*
X129661905Y-53378628D01*
X129661905Y-53378628D02*
X129614286Y-53473866D01*
X129614286Y-53473866D02*
X129614286Y-53664342D01*
X129614286Y-53664342D02*
X129661905Y-53759580D01*
X129661905Y-53759580D02*
X129709524Y-53807200D01*
X129709524Y-53807200D02*
X129804762Y-53854819D01*
X129804762Y-53854819D02*
X129995238Y-53854819D01*
X129995238Y-53854819D02*
X130090476Y-53807200D01*
X130090476Y-53807200D02*
X130138095Y-53759580D01*
X130138095Y-53759580D02*
X130185714Y-53664342D01*
X130185714Y-53664342D02*
X130185714Y-53473866D01*
X130185714Y-53473866D02*
X130138095Y-53378628D01*
X130138095Y-53378628D02*
X130090476Y-53331009D01*
X130090476Y-53331009D02*
X129995238Y-53283390D01*
X104757142Y-83254819D02*
X104423809Y-82778628D01*
X104185714Y-83254819D02*
X104185714Y-82254819D01*
X104185714Y-82254819D02*
X104566666Y-82254819D01*
X104566666Y-82254819D02*
X104661904Y-82302438D01*
X104661904Y-82302438D02*
X104709523Y-82350057D01*
X104709523Y-82350057D02*
X104757142Y-82445295D01*
X104757142Y-82445295D02*
X104757142Y-82588152D01*
X104757142Y-82588152D02*
X104709523Y-82683390D01*
X104709523Y-82683390D02*
X104661904Y-82731009D01*
X104661904Y-82731009D02*
X104566666Y-82778628D01*
X104566666Y-82778628D02*
X104185714Y-82778628D01*
X105709523Y-83254819D02*
X105138095Y-83254819D01*
X105423809Y-83254819D02*
X105423809Y-82254819D01*
X105423809Y-82254819D02*
X105328571Y-82397676D01*
X105328571Y-82397676D02*
X105233333Y-82492914D01*
X105233333Y-82492914D02*
X105138095Y-82540533D01*
X106090476Y-82350057D02*
X106138095Y-82302438D01*
X106138095Y-82302438D02*
X106233333Y-82254819D01*
X106233333Y-82254819D02*
X106471428Y-82254819D01*
X106471428Y-82254819D02*
X106566666Y-82302438D01*
X106566666Y-82302438D02*
X106614285Y-82350057D01*
X106614285Y-82350057D02*
X106661904Y-82445295D01*
X106661904Y-82445295D02*
X106661904Y-82540533D01*
X106661904Y-82540533D02*
X106614285Y-82683390D01*
X106614285Y-82683390D02*
X106042857Y-83254819D01*
X106042857Y-83254819D02*
X106661904Y-83254819D01*
X128661905Y-55254819D02*
X128661905Y-54254819D01*
X128661905Y-54254819D02*
X128900000Y-54254819D01*
X128900000Y-54254819D02*
X129042857Y-54302438D01*
X129042857Y-54302438D02*
X129138095Y-54397676D01*
X129138095Y-54397676D02*
X129185714Y-54492914D01*
X129185714Y-54492914D02*
X129233333Y-54683390D01*
X129233333Y-54683390D02*
X129233333Y-54826247D01*
X129233333Y-54826247D02*
X129185714Y-55016723D01*
X129185714Y-55016723D02*
X129138095Y-55111961D01*
X129138095Y-55111961D02*
X129042857Y-55207200D01*
X129042857Y-55207200D02*
X128900000Y-55254819D01*
X128900000Y-55254819D02*
X128661905Y-55254819D01*
X129566667Y-54254819D02*
X130233333Y-54254819D01*
X130233333Y-54254819D02*
X129804762Y-55254819D01*
X110833333Y-97454819D02*
X110500000Y-96978628D01*
X110261905Y-97454819D02*
X110261905Y-96454819D01*
X110261905Y-96454819D02*
X110642857Y-96454819D01*
X110642857Y-96454819D02*
X110738095Y-96502438D01*
X110738095Y-96502438D02*
X110785714Y-96550057D01*
X110785714Y-96550057D02*
X110833333Y-96645295D01*
X110833333Y-96645295D02*
X110833333Y-96788152D01*
X110833333Y-96788152D02*
X110785714Y-96883390D01*
X110785714Y-96883390D02*
X110738095Y-96931009D01*
X110738095Y-96931009D02*
X110642857Y-96978628D01*
X110642857Y-96978628D02*
X110261905Y-96978628D01*
X111785714Y-97454819D02*
X111214286Y-97454819D01*
X111500000Y-97454819D02*
X111500000Y-96454819D01*
X111500000Y-96454819D02*
X111404762Y-96597676D01*
X111404762Y-96597676D02*
X111309524Y-96692914D01*
X111309524Y-96692914D02*
X111214286Y-96740533D01*
X124666666Y-80454819D02*
X124666666Y-81169104D01*
X124666666Y-81169104D02*
X124619047Y-81311961D01*
X124619047Y-81311961D02*
X124523809Y-81407200D01*
X124523809Y-81407200D02*
X124380952Y-81454819D01*
X124380952Y-81454819D02*
X124285714Y-81454819D01*
X125666666Y-81454819D02*
X125095238Y-81454819D01*
X125380952Y-81454819D02*
X125380952Y-80454819D01*
X125380952Y-80454819D02*
X125285714Y-80597676D01*
X125285714Y-80597676D02*
X125190476Y-80692914D01*
X125190476Y-80692914D02*
X125095238Y-80740533D01*
X130502438Y-87761904D02*
X130454819Y-87857142D01*
X130454819Y-87857142D02*
X130454819Y-87999999D01*
X130454819Y-87999999D02*
X130502438Y-88142856D01*
X130502438Y-88142856D02*
X130597676Y-88238094D01*
X130597676Y-88238094D02*
X130692914Y-88285713D01*
X130692914Y-88285713D02*
X130883390Y-88333332D01*
X130883390Y-88333332D02*
X131026247Y-88333332D01*
X131026247Y-88333332D02*
X131216723Y-88285713D01*
X131216723Y-88285713D02*
X131311961Y-88238094D01*
X131311961Y-88238094D02*
X131407200Y-88142856D01*
X131407200Y-88142856D02*
X131454819Y-87999999D01*
X131454819Y-87999999D02*
X131454819Y-87904761D01*
X131454819Y-87904761D02*
X131407200Y-87761904D01*
X131407200Y-87761904D02*
X131359580Y-87714285D01*
X131359580Y-87714285D02*
X131026247Y-87714285D01*
X131026247Y-87714285D02*
X131026247Y-87904761D01*
X131454819Y-87285713D02*
X130454819Y-87285713D01*
X130454819Y-87285713D02*
X131454819Y-86714285D01*
X131454819Y-86714285D02*
X130454819Y-86714285D01*
X131454819Y-86238094D02*
X130454819Y-86238094D01*
X130454819Y-86238094D02*
X130454819Y-85999999D01*
X130454819Y-85999999D02*
X130502438Y-85857142D01*
X130502438Y-85857142D02*
X130597676Y-85761904D01*
X130597676Y-85761904D02*
X130692914Y-85714285D01*
X130692914Y-85714285D02*
X130883390Y-85666666D01*
X130883390Y-85666666D02*
X131026247Y-85666666D01*
X131026247Y-85666666D02*
X131216723Y-85714285D01*
X131216723Y-85714285D02*
X131311961Y-85761904D01*
X131311961Y-85761904D02*
X131407200Y-85857142D01*
X131407200Y-85857142D02*
X131454819Y-85999999D01*
X131454819Y-85999999D02*
X131454819Y-86238094D01*
X113757142Y-80454819D02*
X113423809Y-79978628D01*
X113185714Y-80454819D02*
X113185714Y-79454819D01*
X113185714Y-79454819D02*
X113566666Y-79454819D01*
X113566666Y-79454819D02*
X113661904Y-79502438D01*
X113661904Y-79502438D02*
X113709523Y-79550057D01*
X113709523Y-79550057D02*
X113757142Y-79645295D01*
X113757142Y-79645295D02*
X113757142Y-79788152D01*
X113757142Y-79788152D02*
X113709523Y-79883390D01*
X113709523Y-79883390D02*
X113661904Y-79931009D01*
X113661904Y-79931009D02*
X113566666Y-79978628D01*
X113566666Y-79978628D02*
X113185714Y-79978628D01*
X114709523Y-80454819D02*
X114138095Y-80454819D01*
X114423809Y-80454819D02*
X114423809Y-79454819D01*
X114423809Y-79454819D02*
X114328571Y-79597676D01*
X114328571Y-79597676D02*
X114233333Y-79692914D01*
X114233333Y-79692914D02*
X114138095Y-79740533D01*
X115661904Y-80454819D02*
X115090476Y-80454819D01*
X115376190Y-80454819D02*
X115376190Y-79454819D01*
X115376190Y-79454819D02*
X115280952Y-79597676D01*
X115280952Y-79597676D02*
X115185714Y-79692914D01*
X115185714Y-79692914D02*
X115090476Y-79740533D01*
X130454819Y-84095237D02*
X131454819Y-83761904D01*
X131454819Y-83761904D02*
X130454819Y-83428571D01*
X131454819Y-83095237D02*
X130454819Y-83095237D01*
X131454819Y-82619047D02*
X130454819Y-82619047D01*
X130454819Y-82619047D02*
X131454819Y-82047619D01*
X131454819Y-82047619D02*
X130454819Y-82047619D01*
X124211905Y-108454819D02*
X124211905Y-107454819D01*
X124211905Y-107454819D02*
X124450000Y-107454819D01*
X124450000Y-107454819D02*
X124592857Y-107502438D01*
X124592857Y-107502438D02*
X124688095Y-107597676D01*
X124688095Y-107597676D02*
X124735714Y-107692914D01*
X124735714Y-107692914D02*
X124783333Y-107883390D01*
X124783333Y-107883390D02*
X124783333Y-108026247D01*
X124783333Y-108026247D02*
X124735714Y-108216723D01*
X124735714Y-108216723D02*
X124688095Y-108311961D01*
X124688095Y-108311961D02*
X124592857Y-108407200D01*
X124592857Y-108407200D02*
X124450000Y-108454819D01*
X124450000Y-108454819D02*
X124211905Y-108454819D01*
X125640476Y-107788152D02*
X125640476Y-108454819D01*
X125402381Y-107407200D02*
X125164286Y-108121485D01*
X125164286Y-108121485D02*
X125783333Y-108121485D01*
X111704761Y-83350057D02*
X111609523Y-83302438D01*
X111609523Y-83302438D02*
X111514285Y-83207200D01*
X111514285Y-83207200D02*
X111371428Y-83064342D01*
X111371428Y-83064342D02*
X111276190Y-83016723D01*
X111276190Y-83016723D02*
X111180952Y-83016723D01*
X111228571Y-83254819D02*
X111133333Y-83207200D01*
X111133333Y-83207200D02*
X111038095Y-83111961D01*
X111038095Y-83111961D02*
X110990476Y-82921485D01*
X110990476Y-82921485D02*
X110990476Y-82588152D01*
X110990476Y-82588152D02*
X111038095Y-82397676D01*
X111038095Y-82397676D02*
X111133333Y-82302438D01*
X111133333Y-82302438D02*
X111228571Y-82254819D01*
X111228571Y-82254819D02*
X111419047Y-82254819D01*
X111419047Y-82254819D02*
X111514285Y-82302438D01*
X111514285Y-82302438D02*
X111609523Y-82397676D01*
X111609523Y-82397676D02*
X111657142Y-82588152D01*
X111657142Y-82588152D02*
X111657142Y-82921485D01*
X111657142Y-82921485D02*
X111609523Y-83111961D01*
X111609523Y-83111961D02*
X111514285Y-83207200D01*
X111514285Y-83207200D02*
X111419047Y-83254819D01*
X111419047Y-83254819D02*
X111228571Y-83254819D01*
X112609523Y-83254819D02*
X112038095Y-83254819D01*
X112323809Y-83254819D02*
X112323809Y-82254819D01*
X112323809Y-82254819D02*
X112228571Y-82397676D01*
X112228571Y-82397676D02*
X112133333Y-82492914D01*
X112133333Y-82492914D02*
X112038095Y-82540533D01*
X109286905Y-108454819D02*
X109286905Y-107454819D01*
X109286905Y-107454819D02*
X109525000Y-107454819D01*
X109525000Y-107454819D02*
X109667857Y-107502438D01*
X109667857Y-107502438D02*
X109763095Y-107597676D01*
X109763095Y-107597676D02*
X109810714Y-107692914D01*
X109810714Y-107692914D02*
X109858333Y-107883390D01*
X109858333Y-107883390D02*
X109858333Y-108026247D01*
X109858333Y-108026247D02*
X109810714Y-108216723D01*
X109810714Y-108216723D02*
X109763095Y-108311961D01*
X109763095Y-108311961D02*
X109667857Y-108407200D01*
X109667857Y-108407200D02*
X109525000Y-108454819D01*
X109525000Y-108454819D02*
X109286905Y-108454819D01*
X110191667Y-107454819D02*
X110810714Y-107454819D01*
X110810714Y-107454819D02*
X110477381Y-107835771D01*
X110477381Y-107835771D02*
X110620238Y-107835771D01*
X110620238Y-107835771D02*
X110715476Y-107883390D01*
X110715476Y-107883390D02*
X110763095Y-107931009D01*
X110763095Y-107931009D02*
X110810714Y-108026247D01*
X110810714Y-108026247D02*
X110810714Y-108264342D01*
X110810714Y-108264342D02*
X110763095Y-108359580D01*
X110763095Y-108359580D02*
X110715476Y-108407200D01*
X110715476Y-108407200D02*
X110620238Y-108454819D01*
X110620238Y-108454819D02*
X110334524Y-108454819D01*
X110334524Y-108454819D02*
X110239286Y-108407200D01*
X110239286Y-108407200D02*
X110191667Y-108359580D01*
X130454819Y-92238094D02*
X130454819Y-91619047D01*
X130454819Y-91619047D02*
X130835771Y-91952380D01*
X130835771Y-91952380D02*
X130835771Y-91809523D01*
X130835771Y-91809523D02*
X130883390Y-91714285D01*
X130883390Y-91714285D02*
X130931009Y-91666666D01*
X130931009Y-91666666D02*
X131026247Y-91619047D01*
X131026247Y-91619047D02*
X131264342Y-91619047D01*
X131264342Y-91619047D02*
X131359580Y-91666666D01*
X131359580Y-91666666D02*
X131407200Y-91714285D01*
X131407200Y-91714285D02*
X131454819Y-91809523D01*
X131454819Y-91809523D02*
X131454819Y-92095237D01*
X131454819Y-92095237D02*
X131407200Y-92190475D01*
X131407200Y-92190475D02*
X131359580Y-92238094D01*
X130454819Y-91333332D02*
X131454819Y-90999999D01*
X131454819Y-90999999D02*
X130454819Y-90666666D01*
X130454819Y-90428570D02*
X130454819Y-89809523D01*
X130454819Y-89809523D02*
X130835771Y-90142856D01*
X130835771Y-90142856D02*
X130835771Y-89999999D01*
X130835771Y-89999999D02*
X130883390Y-89904761D01*
X130883390Y-89904761D02*
X130931009Y-89857142D01*
X130931009Y-89857142D02*
X131026247Y-89809523D01*
X131026247Y-89809523D02*
X131264342Y-89809523D01*
X131264342Y-89809523D02*
X131359580Y-89857142D01*
X131359580Y-89857142D02*
X131407200Y-89904761D01*
X131407200Y-89904761D02*
X131454819Y-89999999D01*
X131454819Y-89999999D02*
X131454819Y-90285713D01*
X131454819Y-90285713D02*
X131407200Y-90380951D01*
X131407200Y-90380951D02*
X131359580Y-90428570D01*
X116833333Y-79359580D02*
X116785714Y-79407200D01*
X116785714Y-79407200D02*
X116642857Y-79454819D01*
X116642857Y-79454819D02*
X116547619Y-79454819D01*
X116547619Y-79454819D02*
X116404762Y-79407200D01*
X116404762Y-79407200D02*
X116309524Y-79311961D01*
X116309524Y-79311961D02*
X116261905Y-79216723D01*
X116261905Y-79216723D02*
X116214286Y-79026247D01*
X116214286Y-79026247D02*
X116214286Y-78883390D01*
X116214286Y-78883390D02*
X116261905Y-78692914D01*
X116261905Y-78692914D02*
X116309524Y-78597676D01*
X116309524Y-78597676D02*
X116404762Y-78502438D01*
X116404762Y-78502438D02*
X116547619Y-78454819D01*
X116547619Y-78454819D02*
X116642857Y-78454819D01*
X116642857Y-78454819D02*
X116785714Y-78502438D01*
X116785714Y-78502438D02*
X116833333Y-78550057D01*
X117738095Y-78454819D02*
X117261905Y-78454819D01*
X117261905Y-78454819D02*
X117214286Y-78931009D01*
X117214286Y-78931009D02*
X117261905Y-78883390D01*
X117261905Y-78883390D02*
X117357143Y-78835771D01*
X117357143Y-78835771D02*
X117595238Y-78835771D01*
X117595238Y-78835771D02*
X117690476Y-78883390D01*
X117690476Y-78883390D02*
X117738095Y-78931009D01*
X117738095Y-78931009D02*
X117785714Y-79026247D01*
X117785714Y-79026247D02*
X117785714Y-79264342D01*
X117785714Y-79264342D02*
X117738095Y-79359580D01*
X117738095Y-79359580D02*
X117690476Y-79407200D01*
X117690476Y-79407200D02*
X117595238Y-79454819D01*
X117595238Y-79454819D02*
X117357143Y-79454819D01*
X117357143Y-79454819D02*
X117261905Y-79407200D01*
X117261905Y-79407200D02*
X117214286Y-79359580D01*
X109061905Y-100454819D02*
X109061905Y-99454819D01*
X109061905Y-99454819D02*
X109300000Y-99454819D01*
X109300000Y-99454819D02*
X109442857Y-99502438D01*
X109442857Y-99502438D02*
X109538095Y-99597676D01*
X109538095Y-99597676D02*
X109585714Y-99692914D01*
X109585714Y-99692914D02*
X109633333Y-99883390D01*
X109633333Y-99883390D02*
X109633333Y-100026247D01*
X109633333Y-100026247D02*
X109585714Y-100216723D01*
X109585714Y-100216723D02*
X109538095Y-100311961D01*
X109538095Y-100311961D02*
X109442857Y-100407200D01*
X109442857Y-100407200D02*
X109300000Y-100454819D01*
X109300000Y-100454819D02*
X109061905Y-100454819D01*
X110585714Y-100454819D02*
X110014286Y-100454819D01*
X110300000Y-100454819D02*
X110300000Y-99454819D01*
X110300000Y-99454819D02*
X110204762Y-99597676D01*
X110204762Y-99597676D02*
X110109524Y-99692914D01*
X110109524Y-99692914D02*
X110014286Y-99740533D01*
X115962371Y-71506280D02*
X115629038Y-71030089D01*
X115390943Y-71506280D02*
X115390943Y-70506280D01*
X115390943Y-70506280D02*
X115771895Y-70506280D01*
X115771895Y-70506280D02*
X115867133Y-70553899D01*
X115867133Y-70553899D02*
X115914752Y-70601518D01*
X115914752Y-70601518D02*
X115962371Y-70696756D01*
X115962371Y-70696756D02*
X115962371Y-70839613D01*
X115962371Y-70839613D02*
X115914752Y-70934851D01*
X115914752Y-70934851D02*
X115867133Y-70982470D01*
X115867133Y-70982470D02*
X115771895Y-71030089D01*
X115771895Y-71030089D02*
X115390943Y-71030089D01*
X116914752Y-71506280D02*
X116343324Y-71506280D01*
X116629038Y-71506280D02*
X116629038Y-70506280D01*
X116629038Y-70506280D02*
X116533800Y-70649137D01*
X116533800Y-70649137D02*
X116438562Y-70744375D01*
X116438562Y-70744375D02*
X116343324Y-70791994D01*
X117533800Y-70506280D02*
X117629038Y-70506280D01*
X117629038Y-70506280D02*
X117724276Y-70553899D01*
X117724276Y-70553899D02*
X117771895Y-70601518D01*
X117771895Y-70601518D02*
X117819514Y-70696756D01*
X117819514Y-70696756D02*
X117867133Y-70887232D01*
X117867133Y-70887232D02*
X117867133Y-71125327D01*
X117867133Y-71125327D02*
X117819514Y-71315803D01*
X117819514Y-71315803D02*
X117771895Y-71411041D01*
X117771895Y-71411041D02*
X117724276Y-71458661D01*
X117724276Y-71458661D02*
X117629038Y-71506280D01*
X117629038Y-71506280D02*
X117533800Y-71506280D01*
X117533800Y-71506280D02*
X117438562Y-71458661D01*
X117438562Y-71458661D02*
X117390943Y-71411041D01*
X117390943Y-71411041D02*
X117343324Y-71315803D01*
X117343324Y-71315803D02*
X117295705Y-71125327D01*
X117295705Y-71125327D02*
X117295705Y-70887232D01*
X117295705Y-70887232D02*
X117343324Y-70696756D01*
X117343324Y-70696756D02*
X117390943Y-70601518D01*
X117390943Y-70601518D02*
X117438562Y-70553899D01*
X117438562Y-70553899D02*
X117533800Y-70506280D01*
X116833333Y-77454819D02*
X116500000Y-76978628D01*
X116261905Y-77454819D02*
X116261905Y-76454819D01*
X116261905Y-76454819D02*
X116642857Y-76454819D01*
X116642857Y-76454819D02*
X116738095Y-76502438D01*
X116738095Y-76502438D02*
X116785714Y-76550057D01*
X116785714Y-76550057D02*
X116833333Y-76645295D01*
X116833333Y-76645295D02*
X116833333Y-76788152D01*
X116833333Y-76788152D02*
X116785714Y-76883390D01*
X116785714Y-76883390D02*
X116738095Y-76931009D01*
X116738095Y-76931009D02*
X116642857Y-76978628D01*
X116642857Y-76978628D02*
X116261905Y-76978628D01*
X117166667Y-76454819D02*
X117785714Y-76454819D01*
X117785714Y-76454819D02*
X117452381Y-76835771D01*
X117452381Y-76835771D02*
X117595238Y-76835771D01*
X117595238Y-76835771D02*
X117690476Y-76883390D01*
X117690476Y-76883390D02*
X117738095Y-76931009D01*
X117738095Y-76931009D02*
X117785714Y-77026247D01*
X117785714Y-77026247D02*
X117785714Y-77264342D01*
X117785714Y-77264342D02*
X117738095Y-77359580D01*
X117738095Y-77359580D02*
X117690476Y-77407200D01*
X117690476Y-77407200D02*
X117595238Y-77454819D01*
X117595238Y-77454819D02*
X117309524Y-77454819D01*
X117309524Y-77454819D02*
X117214286Y-77407200D01*
X117214286Y-77407200D02*
X117166667Y-77359580D01*
X124513333Y-89359580D02*
X124465714Y-89407200D01*
X124465714Y-89407200D02*
X124322857Y-89454819D01*
X124322857Y-89454819D02*
X124227619Y-89454819D01*
X124227619Y-89454819D02*
X124084762Y-89407200D01*
X124084762Y-89407200D02*
X123989524Y-89311961D01*
X123989524Y-89311961D02*
X123941905Y-89216723D01*
X123941905Y-89216723D02*
X123894286Y-89026247D01*
X123894286Y-89026247D02*
X123894286Y-88883390D01*
X123894286Y-88883390D02*
X123941905Y-88692914D01*
X123941905Y-88692914D02*
X123989524Y-88597676D01*
X123989524Y-88597676D02*
X124084762Y-88502438D01*
X124084762Y-88502438D02*
X124227619Y-88454819D01*
X124227619Y-88454819D02*
X124322857Y-88454819D01*
X124322857Y-88454819D02*
X124465714Y-88502438D01*
X124465714Y-88502438D02*
X124513333Y-88550057D01*
X124846667Y-88454819D02*
X125465714Y-88454819D01*
X125465714Y-88454819D02*
X125132381Y-88835771D01*
X125132381Y-88835771D02*
X125275238Y-88835771D01*
X125275238Y-88835771D02*
X125370476Y-88883390D01*
X125370476Y-88883390D02*
X125418095Y-88931009D01*
X125418095Y-88931009D02*
X125465714Y-89026247D01*
X125465714Y-89026247D02*
X125465714Y-89264342D01*
X125465714Y-89264342D02*
X125418095Y-89359580D01*
X125418095Y-89359580D02*
X125370476Y-89407200D01*
X125370476Y-89407200D02*
X125275238Y-89454819D01*
X125275238Y-89454819D02*
X124989524Y-89454819D01*
X124989524Y-89454819D02*
X124894286Y-89407200D01*
X124894286Y-89407200D02*
X124846667Y-89359580D01*
X122369026Y-95303562D02*
X122369026Y-94303562D01*
X122369026Y-94303562D02*
X122607121Y-94303562D01*
X122607121Y-94303562D02*
X122749978Y-94351181D01*
X122749978Y-94351181D02*
X122845216Y-94446419D01*
X122845216Y-94446419D02*
X122892835Y-94541657D01*
X122892835Y-94541657D02*
X122940454Y-94732133D01*
X122940454Y-94732133D02*
X122940454Y-94874990D01*
X122940454Y-94874990D02*
X122892835Y-95065466D01*
X122892835Y-95065466D02*
X122845216Y-95160704D01*
X122845216Y-95160704D02*
X122749978Y-95255943D01*
X122749978Y-95255943D02*
X122607121Y-95303562D01*
X122607121Y-95303562D02*
X122369026Y-95303562D01*
X123845216Y-94303562D02*
X123369026Y-94303562D01*
X123369026Y-94303562D02*
X123321407Y-94779752D01*
X123321407Y-94779752D02*
X123369026Y-94732133D01*
X123369026Y-94732133D02*
X123464264Y-94684514D01*
X123464264Y-94684514D02*
X123702359Y-94684514D01*
X123702359Y-94684514D02*
X123797597Y-94732133D01*
X123797597Y-94732133D02*
X123845216Y-94779752D01*
X123845216Y-94779752D02*
X123892835Y-94874990D01*
X123892835Y-94874990D02*
X123892835Y-95113085D01*
X123892835Y-95113085D02*
X123845216Y-95208323D01*
X123845216Y-95208323D02*
X123797597Y-95255943D01*
X123797597Y-95255943D02*
X123702359Y-95303562D01*
X123702359Y-95303562D02*
X123464264Y-95303562D01*
X123464264Y-95303562D02*
X123369026Y-95255943D01*
X123369026Y-95255943D02*
X123321407Y-95208323D01*
X122833333Y-97359580D02*
X122785714Y-97407200D01*
X122785714Y-97407200D02*
X122642857Y-97454819D01*
X122642857Y-97454819D02*
X122547619Y-97454819D01*
X122547619Y-97454819D02*
X122404762Y-97407200D01*
X122404762Y-97407200D02*
X122309524Y-97311961D01*
X122309524Y-97311961D02*
X122261905Y-97216723D01*
X122261905Y-97216723D02*
X122214286Y-97026247D01*
X122214286Y-97026247D02*
X122214286Y-96883390D01*
X122214286Y-96883390D02*
X122261905Y-96692914D01*
X122261905Y-96692914D02*
X122309524Y-96597676D01*
X122309524Y-96597676D02*
X122404762Y-96502438D01*
X122404762Y-96502438D02*
X122547619Y-96454819D01*
X122547619Y-96454819D02*
X122642857Y-96454819D01*
X122642857Y-96454819D02*
X122785714Y-96502438D01*
X122785714Y-96502438D02*
X122833333Y-96550057D01*
X123690476Y-96788152D02*
X123690476Y-97454819D01*
X123452381Y-96407200D02*
X123214286Y-97121485D01*
X123214286Y-97121485D02*
X123833333Y-97121485D01*
X105833333Y-59359580D02*
X105785714Y-59407200D01*
X105785714Y-59407200D02*
X105642857Y-59454819D01*
X105642857Y-59454819D02*
X105547619Y-59454819D01*
X105547619Y-59454819D02*
X105404762Y-59407200D01*
X105404762Y-59407200D02*
X105309524Y-59311961D01*
X105309524Y-59311961D02*
X105261905Y-59216723D01*
X105261905Y-59216723D02*
X105214286Y-59026247D01*
X105214286Y-59026247D02*
X105214286Y-58883390D01*
X105214286Y-58883390D02*
X105261905Y-58692914D01*
X105261905Y-58692914D02*
X105309524Y-58597676D01*
X105309524Y-58597676D02*
X105404762Y-58502438D01*
X105404762Y-58502438D02*
X105547619Y-58454819D01*
X105547619Y-58454819D02*
X105642857Y-58454819D01*
X105642857Y-58454819D02*
X105785714Y-58502438D01*
X105785714Y-58502438D02*
X105833333Y-58550057D01*
X106690476Y-58454819D02*
X106500000Y-58454819D01*
X106500000Y-58454819D02*
X106404762Y-58502438D01*
X106404762Y-58502438D02*
X106357143Y-58550057D01*
X106357143Y-58550057D02*
X106261905Y-58692914D01*
X106261905Y-58692914D02*
X106214286Y-58883390D01*
X106214286Y-58883390D02*
X106214286Y-59264342D01*
X106214286Y-59264342D02*
X106261905Y-59359580D01*
X106261905Y-59359580D02*
X106309524Y-59407200D01*
X106309524Y-59407200D02*
X106404762Y-59454819D01*
X106404762Y-59454819D02*
X106595238Y-59454819D01*
X106595238Y-59454819D02*
X106690476Y-59407200D01*
X106690476Y-59407200D02*
X106738095Y-59359580D01*
X106738095Y-59359580D02*
X106785714Y-59264342D01*
X106785714Y-59264342D02*
X106785714Y-59026247D01*
X106785714Y-59026247D02*
X106738095Y-58931009D01*
X106738095Y-58931009D02*
X106690476Y-58883390D01*
X106690476Y-58883390D02*
X106595238Y-58835771D01*
X106595238Y-58835771D02*
X106404762Y-58835771D01*
X106404762Y-58835771D02*
X106309524Y-58883390D01*
X106309524Y-58883390D02*
X106261905Y-58931009D01*
X106261905Y-58931009D02*
X106214286Y-59026247D01*
X103833333Y-76454819D02*
X103500000Y-75978628D01*
X103261905Y-76454819D02*
X103261905Y-75454819D01*
X103261905Y-75454819D02*
X103642857Y-75454819D01*
X103642857Y-75454819D02*
X103738095Y-75502438D01*
X103738095Y-75502438D02*
X103785714Y-75550057D01*
X103785714Y-75550057D02*
X103833333Y-75645295D01*
X103833333Y-75645295D02*
X103833333Y-75788152D01*
X103833333Y-75788152D02*
X103785714Y-75883390D01*
X103785714Y-75883390D02*
X103738095Y-75931009D01*
X103738095Y-75931009D02*
X103642857Y-75978628D01*
X103642857Y-75978628D02*
X103261905Y-75978628D01*
X104166667Y-75454819D02*
X104833333Y-75454819D01*
X104833333Y-75454819D02*
X104404762Y-76454819D01*
X116833333Y-75454819D02*
X116500000Y-74978628D01*
X116261905Y-75454819D02*
X116261905Y-74454819D01*
X116261905Y-74454819D02*
X116642857Y-74454819D01*
X116642857Y-74454819D02*
X116738095Y-74502438D01*
X116738095Y-74502438D02*
X116785714Y-74550057D01*
X116785714Y-74550057D02*
X116833333Y-74645295D01*
X116833333Y-74645295D02*
X116833333Y-74788152D01*
X116833333Y-74788152D02*
X116785714Y-74883390D01*
X116785714Y-74883390D02*
X116738095Y-74931009D01*
X116738095Y-74931009D02*
X116642857Y-74978628D01*
X116642857Y-74978628D02*
X116261905Y-74978628D01*
X117690476Y-74788152D02*
X117690476Y-75454819D01*
X117452381Y-74407200D02*
X117214286Y-75121485D01*
X117214286Y-75121485D02*
X117833333Y-75121485D01*
X129233333Y-56654819D02*
X128900000Y-56178628D01*
X128661905Y-56654819D02*
X128661905Y-55654819D01*
X128661905Y-55654819D02*
X129042857Y-55654819D01*
X129042857Y-55654819D02*
X129138095Y-55702438D01*
X129138095Y-55702438D02*
X129185714Y-55750057D01*
X129185714Y-55750057D02*
X129233333Y-55845295D01*
X129233333Y-55845295D02*
X129233333Y-55988152D01*
X129233333Y-55988152D02*
X129185714Y-56083390D01*
X129185714Y-56083390D02*
X129138095Y-56131009D01*
X129138095Y-56131009D02*
X129042857Y-56178628D01*
X129042857Y-56178628D02*
X128661905Y-56178628D01*
X129709524Y-56654819D02*
X129900000Y-56654819D01*
X129900000Y-56654819D02*
X129995238Y-56607200D01*
X129995238Y-56607200D02*
X130042857Y-56559580D01*
X130042857Y-56559580D02*
X130138095Y-56416723D01*
X130138095Y-56416723D02*
X130185714Y-56226247D01*
X130185714Y-56226247D02*
X130185714Y-55845295D01*
X130185714Y-55845295D02*
X130138095Y-55750057D01*
X130138095Y-55750057D02*
X130090476Y-55702438D01*
X130090476Y-55702438D02*
X129995238Y-55654819D01*
X129995238Y-55654819D02*
X129804762Y-55654819D01*
X129804762Y-55654819D02*
X129709524Y-55702438D01*
X129709524Y-55702438D02*
X129661905Y-55750057D01*
X129661905Y-55750057D02*
X129614286Y-55845295D01*
X129614286Y-55845295D02*
X129614286Y-56083390D01*
X129614286Y-56083390D02*
X129661905Y-56178628D01*
X129661905Y-56178628D02*
X129709524Y-56226247D01*
X129709524Y-56226247D02*
X129804762Y-56273866D01*
X129804762Y-56273866D02*
X129995238Y-56273866D01*
X129995238Y-56273866D02*
X130090476Y-56226247D01*
X130090476Y-56226247D02*
X130138095Y-56178628D01*
X130138095Y-56178628D02*
X130185714Y-56083390D01*
X128647713Y-66254819D02*
X128314380Y-65778628D01*
X128076285Y-66254819D02*
X128076285Y-65254819D01*
X128076285Y-65254819D02*
X128457237Y-65254819D01*
X128457237Y-65254819D02*
X128552475Y-65302438D01*
X128552475Y-65302438D02*
X128600094Y-65350057D01*
X128600094Y-65350057D02*
X128647713Y-65445295D01*
X128647713Y-65445295D02*
X128647713Y-65588152D01*
X128647713Y-65588152D02*
X128600094Y-65683390D01*
X128600094Y-65683390D02*
X128552475Y-65731009D01*
X128552475Y-65731009D02*
X128457237Y-65778628D01*
X128457237Y-65778628D02*
X128076285Y-65778628D01*
X129600094Y-66254819D02*
X129028666Y-66254819D01*
X129314380Y-66254819D02*
X129314380Y-65254819D01*
X129314380Y-65254819D02*
X129219142Y-65397676D01*
X129219142Y-65397676D02*
X129123904Y-65492914D01*
X129123904Y-65492914D02*
X129028666Y-65540533D01*
X129933428Y-65254819D02*
X130552475Y-65254819D01*
X130552475Y-65254819D02*
X130219142Y-65635771D01*
X130219142Y-65635771D02*
X130361999Y-65635771D01*
X130361999Y-65635771D02*
X130457237Y-65683390D01*
X130457237Y-65683390D02*
X130504856Y-65731009D01*
X130504856Y-65731009D02*
X130552475Y-65826247D01*
X130552475Y-65826247D02*
X130552475Y-66064342D01*
X130552475Y-66064342D02*
X130504856Y-66159580D01*
X130504856Y-66159580D02*
X130457237Y-66207200D01*
X130457237Y-66207200D02*
X130361999Y-66254819D01*
X130361999Y-66254819D02*
X130076285Y-66254819D01*
X130076285Y-66254819D02*
X129981047Y-66207200D01*
X129981047Y-66207200D02*
X129933428Y-66159580D01*
X103833333Y-59359580D02*
X103785714Y-59407200D01*
X103785714Y-59407200D02*
X103642857Y-59454819D01*
X103642857Y-59454819D02*
X103547619Y-59454819D01*
X103547619Y-59454819D02*
X103404762Y-59407200D01*
X103404762Y-59407200D02*
X103309524Y-59311961D01*
X103309524Y-59311961D02*
X103261905Y-59216723D01*
X103261905Y-59216723D02*
X103214286Y-59026247D01*
X103214286Y-59026247D02*
X103214286Y-58883390D01*
X103214286Y-58883390D02*
X103261905Y-58692914D01*
X103261905Y-58692914D02*
X103309524Y-58597676D01*
X103309524Y-58597676D02*
X103404762Y-58502438D01*
X103404762Y-58502438D02*
X103547619Y-58454819D01*
X103547619Y-58454819D02*
X103642857Y-58454819D01*
X103642857Y-58454819D02*
X103785714Y-58502438D01*
X103785714Y-58502438D02*
X103833333Y-58550057D01*
X104214286Y-58550057D02*
X104261905Y-58502438D01*
X104261905Y-58502438D02*
X104357143Y-58454819D01*
X104357143Y-58454819D02*
X104595238Y-58454819D01*
X104595238Y-58454819D02*
X104690476Y-58502438D01*
X104690476Y-58502438D02*
X104738095Y-58550057D01*
X104738095Y-58550057D02*
X104785714Y-58645295D01*
X104785714Y-58645295D02*
X104785714Y-58740533D01*
X104785714Y-58740533D02*
X104738095Y-58883390D01*
X104738095Y-58883390D02*
X104166667Y-59454819D01*
X104166667Y-59454819D02*
X104785714Y-59454819D01*
X112104761Y-77950057D02*
X112009523Y-77902438D01*
X112009523Y-77902438D02*
X111914285Y-77807200D01*
X111914285Y-77807200D02*
X111771428Y-77664342D01*
X111771428Y-77664342D02*
X111676190Y-77616723D01*
X111676190Y-77616723D02*
X111580952Y-77616723D01*
X111628571Y-77854819D02*
X111533333Y-77807200D01*
X111533333Y-77807200D02*
X111438095Y-77711961D01*
X111438095Y-77711961D02*
X111390476Y-77521485D01*
X111390476Y-77521485D02*
X111390476Y-77188152D01*
X111390476Y-77188152D02*
X111438095Y-76997676D01*
X111438095Y-76997676D02*
X111533333Y-76902438D01*
X111533333Y-76902438D02*
X111628571Y-76854819D01*
X111628571Y-76854819D02*
X111819047Y-76854819D01*
X111819047Y-76854819D02*
X111914285Y-76902438D01*
X111914285Y-76902438D02*
X112009523Y-76997676D01*
X112009523Y-76997676D02*
X112057142Y-77188152D01*
X112057142Y-77188152D02*
X112057142Y-77521485D01*
X112057142Y-77521485D02*
X112009523Y-77711961D01*
X112009523Y-77711961D02*
X111914285Y-77807200D01*
X111914285Y-77807200D02*
X111819047Y-77854819D01*
X111819047Y-77854819D02*
X111628571Y-77854819D01*
X112438095Y-76950057D02*
X112485714Y-76902438D01*
X112485714Y-76902438D02*
X112580952Y-76854819D01*
X112580952Y-76854819D02*
X112819047Y-76854819D01*
X112819047Y-76854819D02*
X112914285Y-76902438D01*
X112914285Y-76902438D02*
X112961904Y-76950057D01*
X112961904Y-76950057D02*
X113009523Y-77045295D01*
X113009523Y-77045295D02*
X113009523Y-77140533D01*
X113009523Y-77140533D02*
X112961904Y-77283390D01*
X112961904Y-77283390D02*
X112390476Y-77854819D01*
X112390476Y-77854819D02*
X113009523Y-77854819D01*
X104833333Y-65359580D02*
X104785714Y-65407200D01*
X104785714Y-65407200D02*
X104642857Y-65454819D01*
X104642857Y-65454819D02*
X104547619Y-65454819D01*
X104547619Y-65454819D02*
X104404762Y-65407200D01*
X104404762Y-65407200D02*
X104309524Y-65311961D01*
X104309524Y-65311961D02*
X104261905Y-65216723D01*
X104261905Y-65216723D02*
X104214286Y-65026247D01*
X104214286Y-65026247D02*
X104214286Y-64883390D01*
X104214286Y-64883390D02*
X104261905Y-64692914D01*
X104261905Y-64692914D02*
X104309524Y-64597676D01*
X104309524Y-64597676D02*
X104404762Y-64502438D01*
X104404762Y-64502438D02*
X104547619Y-64454819D01*
X104547619Y-64454819D02*
X104642857Y-64454819D01*
X104642857Y-64454819D02*
X104785714Y-64502438D01*
X104785714Y-64502438D02*
X104833333Y-64550057D01*
X105166667Y-64454819D02*
X105833333Y-64454819D01*
X105833333Y-64454819D02*
X105404762Y-65454819D01*
X124808333Y-106454819D02*
X124475000Y-105978628D01*
X124236905Y-106454819D02*
X124236905Y-105454819D01*
X124236905Y-105454819D02*
X124617857Y-105454819D01*
X124617857Y-105454819D02*
X124713095Y-105502438D01*
X124713095Y-105502438D02*
X124760714Y-105550057D01*
X124760714Y-105550057D02*
X124808333Y-105645295D01*
X124808333Y-105645295D02*
X124808333Y-105788152D01*
X124808333Y-105788152D02*
X124760714Y-105883390D01*
X124760714Y-105883390D02*
X124713095Y-105931009D01*
X124713095Y-105931009D02*
X124617857Y-105978628D01*
X124617857Y-105978628D02*
X124236905Y-105978628D01*
X125665476Y-105454819D02*
X125475000Y-105454819D01*
X125475000Y-105454819D02*
X125379762Y-105502438D01*
X125379762Y-105502438D02*
X125332143Y-105550057D01*
X125332143Y-105550057D02*
X125236905Y-105692914D01*
X125236905Y-105692914D02*
X125189286Y-105883390D01*
X125189286Y-105883390D02*
X125189286Y-106264342D01*
X125189286Y-106264342D02*
X125236905Y-106359580D01*
X125236905Y-106359580D02*
X125284524Y-106407200D01*
X125284524Y-106407200D02*
X125379762Y-106454819D01*
X125379762Y-106454819D02*
X125570238Y-106454819D01*
X125570238Y-106454819D02*
X125665476Y-106407200D01*
X125665476Y-106407200D02*
X125713095Y-106359580D01*
X125713095Y-106359580D02*
X125760714Y-106264342D01*
X125760714Y-106264342D02*
X125760714Y-106026247D01*
X125760714Y-106026247D02*
X125713095Y-105931009D01*
X125713095Y-105931009D02*
X125665476Y-105883390D01*
X125665476Y-105883390D02*
X125570238Y-105835771D01*
X125570238Y-105835771D02*
X125379762Y-105835771D01*
X125379762Y-105835771D02*
X125284524Y-105883390D01*
X125284524Y-105883390D02*
X125236905Y-105931009D01*
X125236905Y-105931009D02*
X125189286Y-106026247D01*
X124761905Y-100454819D02*
X124761905Y-99454819D01*
X124761905Y-99454819D02*
X125000000Y-99454819D01*
X125000000Y-99454819D02*
X125142857Y-99502438D01*
X125142857Y-99502438D02*
X125238095Y-99597676D01*
X125238095Y-99597676D02*
X125285714Y-99692914D01*
X125285714Y-99692914D02*
X125333333Y-99883390D01*
X125333333Y-99883390D02*
X125333333Y-100026247D01*
X125333333Y-100026247D02*
X125285714Y-100216723D01*
X125285714Y-100216723D02*
X125238095Y-100311961D01*
X125238095Y-100311961D02*
X125142857Y-100407200D01*
X125142857Y-100407200D02*
X125000000Y-100454819D01*
X125000000Y-100454819D02*
X124761905Y-100454819D01*
X125714286Y-99550057D02*
X125761905Y-99502438D01*
X125761905Y-99502438D02*
X125857143Y-99454819D01*
X125857143Y-99454819D02*
X126095238Y-99454819D01*
X126095238Y-99454819D02*
X126190476Y-99502438D01*
X126190476Y-99502438D02*
X126238095Y-99550057D01*
X126238095Y-99550057D02*
X126285714Y-99645295D01*
X126285714Y-99645295D02*
X126285714Y-99740533D01*
X126285714Y-99740533D02*
X126238095Y-99883390D01*
X126238095Y-99883390D02*
X125666667Y-100454819D01*
X125666667Y-100454819D02*
X126285714Y-100454819D01*
D12*
X116761905Y-109563855D02*
X116495238Y-109182902D01*
X116304762Y-109563855D02*
X116304762Y-108763855D01*
X116304762Y-108763855D02*
X116609524Y-108763855D01*
X116609524Y-108763855D02*
X116685714Y-108801950D01*
X116685714Y-108801950D02*
X116723809Y-108840045D01*
X116723809Y-108840045D02*
X116761905Y-108916236D01*
X116761905Y-108916236D02*
X116761905Y-109030521D01*
X116761905Y-109030521D02*
X116723809Y-109106712D01*
X116723809Y-109106712D02*
X116685714Y-109144807D01*
X116685714Y-109144807D02*
X116609524Y-109182902D01*
X116609524Y-109182902D02*
X116304762Y-109182902D01*
X117333333Y-108763855D02*
X117333333Y-109335283D01*
X117333333Y-109335283D02*
X117295238Y-109449569D01*
X117295238Y-109449569D02*
X117219047Y-109525760D01*
X117219047Y-109525760D02*
X117104762Y-109563855D01*
X117104762Y-109563855D02*
X117028571Y-109563855D01*
X117752381Y-109563855D02*
X117904762Y-109563855D01*
X117904762Y-109563855D02*
X117980952Y-109525760D01*
X117980952Y-109525760D02*
X118019048Y-109487664D01*
X118019048Y-109487664D02*
X118095238Y-109373379D01*
X118095238Y-109373379D02*
X118133333Y-109220998D01*
X118133333Y-109220998D02*
X118133333Y-108916236D01*
X118133333Y-108916236D02*
X118095238Y-108840045D01*
X118095238Y-108840045D02*
X118057143Y-108801950D01*
X118057143Y-108801950D02*
X117980952Y-108763855D01*
X117980952Y-108763855D02*
X117828571Y-108763855D01*
X117828571Y-108763855D02*
X117752381Y-108801950D01*
X117752381Y-108801950D02*
X117714286Y-108840045D01*
X117714286Y-108840045D02*
X117676190Y-108916236D01*
X117676190Y-108916236D02*
X117676190Y-109106712D01*
X117676190Y-109106712D02*
X117714286Y-109182902D01*
X117714286Y-109182902D02*
X117752381Y-109220998D01*
X117752381Y-109220998D02*
X117828571Y-109259093D01*
X117828571Y-109259093D02*
X117980952Y-109259093D01*
X117980952Y-109259093D02*
X118057143Y-109220998D01*
X118057143Y-109220998D02*
X118095238Y-109182902D01*
X118095238Y-109182902D02*
X118133333Y-109106712D01*
D10*
X109833333Y-106454819D02*
X109500000Y-105978628D01*
X109261905Y-106454819D02*
X109261905Y-105454819D01*
X109261905Y-105454819D02*
X109642857Y-105454819D01*
X109642857Y-105454819D02*
X109738095Y-105502438D01*
X109738095Y-105502438D02*
X109785714Y-105550057D01*
X109785714Y-105550057D02*
X109833333Y-105645295D01*
X109833333Y-105645295D02*
X109833333Y-105788152D01*
X109833333Y-105788152D02*
X109785714Y-105883390D01*
X109785714Y-105883390D02*
X109738095Y-105931009D01*
X109738095Y-105931009D02*
X109642857Y-105978628D01*
X109642857Y-105978628D02*
X109261905Y-105978628D01*
X110738095Y-105454819D02*
X110261905Y-105454819D01*
X110261905Y-105454819D02*
X110214286Y-105931009D01*
X110214286Y-105931009D02*
X110261905Y-105883390D01*
X110261905Y-105883390D02*
X110357143Y-105835771D01*
X110357143Y-105835771D02*
X110595238Y-105835771D01*
X110595238Y-105835771D02*
X110690476Y-105883390D01*
X110690476Y-105883390D02*
X110738095Y-105931009D01*
X110738095Y-105931009D02*
X110785714Y-106026247D01*
X110785714Y-106026247D02*
X110785714Y-106264342D01*
X110785714Y-106264342D02*
X110738095Y-106359580D01*
X110738095Y-106359580D02*
X110690476Y-106407200D01*
X110690476Y-106407200D02*
X110595238Y-106454819D01*
X110595238Y-106454819D02*
X110357143Y-106454819D01*
X110357143Y-106454819D02*
X110261905Y-106407200D01*
X110261905Y-106407200D02*
X110214286Y-106359580D01*
D12*
%TO.C,U4*%
X113610000Y-74172500D02*
X112885000Y-74172500D01*
X109390000Y-73447500D02*
X109390000Y-74172500D01*
X113610000Y-73447500D02*
X113610000Y-74172500D01*
X109390000Y-70677500D02*
X109390000Y-69952500D01*
X113610000Y-70677500D02*
X113610000Y-69952500D01*
X109390000Y-69952500D02*
X110115000Y-69952500D01*
X113610000Y-69952500D02*
X112885000Y-69952500D01*
%TO.C,D6*%
X117990000Y-80150000D02*
X117990000Y-81850000D01*
X117990000Y-80150000D02*
X121250000Y-80150000D01*
X117990000Y-81850000D02*
X121250000Y-81850000D01*
%TO.C,U2*%
X113100000Y-92410000D02*
X107090000Y-92410000D01*
X110850000Y-85590000D02*
X107090000Y-85590000D01*
X107090000Y-92410000D02*
X107090000Y-91150000D01*
X107090000Y-85590000D02*
X107090000Y-86850000D01*
%TO.C,U1*%
X108118700Y-68026987D02*
X126381300Y-68026987D01*
D13*
%TO.C,U3*%
X121525000Y-87000000D02*
X121525000Y-91000000D01*
X116475000Y-87000000D02*
X116475000Y-91000000D01*
D14*
X121605000Y-84555000D02*
G75*
G03*
X121605000Y-84555000I-100000J0D01*
G01*
D12*
%TO.C,C1*%
X104776248Y-54265000D02*
X105298752Y-54265000D01*
X104776248Y-55735000D02*
X105298752Y-55735000D01*
%TO.C,R2*%
X120227064Y-73735000D02*
X119772936Y-73735000D01*
X120227064Y-72265000D02*
X119772936Y-72265000D01*
%TO.C,R8*%
X129063507Y-57265000D02*
X129517635Y-57265000D01*
X129063507Y-58735000D02*
X129517635Y-58735000D01*
%TO.C,R12*%
X105215000Y-80227064D02*
X105215000Y-79772936D01*
X106685000Y-80227064D02*
X106685000Y-79772936D01*
%TO.C,D7*%
X131150571Y-60960000D02*
X131150571Y-59040000D01*
X131150571Y-59040000D02*
X128290571Y-59040000D01*
X128290571Y-60960000D02*
X131150571Y-60960000D01*
%TO.C,R1*%
X114227064Y-97735000D02*
X113772936Y-97735000D01*
X114227064Y-96265000D02*
X113772936Y-96265000D01*
%TO.C,J1*%
X126375000Y-79595000D02*
X127275000Y-79595000D01*
X123295000Y-79475000D02*
X123295000Y-70525000D01*
X126375000Y-70405000D02*
X127275000Y-70405000D01*
%TO.C,GND*%
X129950000Y-87000000D02*
G75*
G03*
X129950000Y-87000000I-950000J0D01*
G01*
%TO.C,R11*%
X112685000Y-79772936D02*
X112685000Y-80227064D01*
X111215000Y-79772936D02*
X111215000Y-80227064D01*
%TO.C,VIN*%
X129950000Y-83000000D02*
G75*
G03*
X129950000Y-83000000I-950000J0D01*
G01*
%TO.C,D4*%
X126115000Y-107040000D02*
X126115000Y-108960000D01*
X126115000Y-108960000D02*
X128975000Y-108960000D01*
X128975000Y-107040000D02*
X126115000Y-107040000D01*
%TO.C,Q1*%
X110460000Y-81937500D02*
X110460000Y-80262500D01*
X110460000Y-81937500D02*
X110460000Y-82587500D01*
X107340000Y-81937500D02*
X107340000Y-81287500D01*
X107340000Y-81937500D02*
X107340000Y-82587500D01*
%TO.C,D3*%
X105140000Y-107040000D02*
X105140000Y-108960000D01*
X105140000Y-108960000D02*
X108000000Y-108960000D01*
X108000000Y-107040000D02*
X105140000Y-107040000D01*
%TO.C,3V3*%
X129950000Y-91000000D02*
G75*
G03*
X129950000Y-91000000I-950000J0D01*
G01*
%TO.C,C5*%
X120298752Y-79735000D02*
X119776248Y-79735000D01*
X120298752Y-78265000D02*
X119776248Y-78265000D01*
%TO.C,D1*%
X108650000Y-95490000D02*
X105350000Y-95490000D01*
X108650000Y-95490000D02*
X108650000Y-102500000D01*
X105350000Y-95490000D02*
X105350000Y-102500000D01*
%TO.C,R10*%
X119772936Y-70265000D02*
X120227064Y-70265000D01*
X119772936Y-71735000D02*
X120227064Y-71735000D01*
%TO.C,R3*%
X120227064Y-77735000D02*
X119772936Y-77735000D01*
X120227064Y-76265000D02*
X119772936Y-76265000D01*
%TO.C,C3*%
X123735000Y-88738748D02*
X123735000Y-89261252D01*
X122265000Y-88738748D02*
X122265000Y-89261252D01*
%TO.C,J3*%
X106330000Y-72605000D02*
X105000000Y-72605000D01*
X106330000Y-71275000D02*
X106330000Y-72605000D01*
X106330000Y-70005000D02*
X106330000Y-67405000D01*
X106330000Y-70005000D02*
X103670000Y-70005000D01*
X106330000Y-67405000D02*
X103670000Y-67405000D01*
X103670000Y-70005000D02*
X103670000Y-67405000D01*
%TO.C,D5*%
X117847121Y-93998743D02*
X117847121Y-95698743D01*
X117847121Y-93998743D02*
X121107121Y-93998743D01*
X117847121Y-95698743D02*
X121107121Y-95698743D01*
%TO.C,C4*%
X120261252Y-97735000D02*
X119738748Y-97735000D01*
X120261252Y-96265000D02*
X119738748Y-96265000D01*
%TO.C,C6*%
X105261252Y-61735000D02*
X104738748Y-61735000D01*
X105261252Y-60265000D02*
X104738748Y-60265000D01*
%TO.C,R7*%
X105215000Y-76227064D02*
X105215000Y-75772936D01*
X106685000Y-76227064D02*
X106685000Y-75772936D01*
%TO.C,R4*%
X120227064Y-75735000D02*
X119772936Y-75735000D01*
X120227064Y-74265000D02*
X119772936Y-74265000D01*
%TO.C,R9*%
X129063507Y-61265000D02*
X129517635Y-61265000D01*
X129063507Y-62735000D02*
X129517635Y-62735000D01*
%TO.C,R13*%
X129063507Y-63265000D02*
X129517635Y-63265000D01*
X129063507Y-64735000D02*
X129517635Y-64735000D01*
%TO.C,C2*%
X104738748Y-56265000D02*
X105261252Y-56265000D01*
X104738748Y-57735000D02*
X105261252Y-57735000D01*
%TO.C,Q2*%
X107390000Y-77562500D02*
X107390000Y-79237500D01*
X107390000Y-77562500D02*
X107390000Y-76912500D01*
X110510000Y-77562500D02*
X110510000Y-78212500D01*
X110510000Y-77562500D02*
X110510000Y-76912500D01*
%TO.C,C7*%
X104738748Y-62265000D02*
X105261252Y-62265000D01*
X104738748Y-63735000D02*
X105261252Y-63735000D01*
%TO.C,R6*%
X127747936Y-105265000D02*
X128202064Y-105265000D01*
X127747936Y-106735000D02*
X128202064Y-106735000D01*
%TO.C,D2*%
X126350000Y-104510000D02*
X129650000Y-104510000D01*
X126350000Y-104510000D02*
X126350000Y-97500000D01*
X129650000Y-104510000D02*
X129650000Y-97500000D01*
%TO.C,R5*%
X106772936Y-105265000D02*
X107227064Y-105265000D01*
X106772936Y-106735000D02*
X107227064Y-106735000D01*
%TD*%
M02*
