M48
; DRILL file {KiCad (6.0.9)} date Sun 27 Nov 2022 02:47:36 PM EST
; FORMAT={-:-/ absolute / inch / decimal}
; #@! TF.CreationDate,2022-11-27T14:47:36-05:00
; #@! TF.GenerationSoftware,Kicad,Pcbnew,(6.0.9)
; #@! TF.FileFunction,Plated,1,2,PTH
FMAT,2
INCH
; #@! TA.AperFunction,Plated,PTH,ViaDrill
T1C0.0157
; #@! TA.AperFunction,Plated,PTH,ComponentDrill
T2C0.0157
; #@! TA.AperFunction,Plated,PTH,ComponentDrill
T3C0.0236
; #@! TA.AperFunction,Plated,PTH,ComponentDrill
T4C0.0354
; #@! TA.AperFunction,Plated,PTH,ComponentDrill
T5C0.0433
%
G90
G05
T1
X3.2087Y-2.6969
X3.2402Y-3.8701
X3.4291Y-4.3543
X3.4409Y-4.5276
X3.4606Y-3.9961
X3.4646Y-2.9331
X3.4724Y-2.7795
X3.4764Y-2.7165
X3.6575Y-3.6929
X3.6969Y-3.8031
X3.7002Y-2.6504
X3.7002Y-2.8052
X3.7244Y-4.0236
X3.7608Y-3.6752
X3.7717Y-3.7205
X3.815Y-3.3268
X3.815Y-3.4843
X3.8268Y-3.0531
X3.8544Y-2.6518
X3.8561Y-2.806
X3.872Y-3.7382
X3.8957Y-3.0197
X3.9337Y-3.244
X3.9633Y-3.0394
X3.9764Y-3.2382
X3.9921Y-3.3268
X4.0354Y-3.0335
X4.2087Y-2.8661
X4.2343Y-3.8248
X4.2402Y-4.3661
X4.2677Y-4.5276
X4.2913Y-2.7008
T2
X4.0935Y-3.1506
X4.0935Y-3.1841
X4.0935Y-3.2175
X4.0935Y-3.251
X4.0935Y-3.2844
X4.0935Y-3.3179
X4.0935Y-3.3514
X4.0935Y-3.3848
X4.1467Y-3.1506
X4.1467Y-3.1841
X4.1467Y-3.2175
X4.1467Y-3.251
X4.1467Y-3.2844
X4.1467Y-3.3179
X4.1467Y-3.3514
X4.1467Y-3.3848
T4
X3.6652Y-4.3228
X3.7152Y-4.2228
X3.7652Y-4.3228
X3.8152Y-4.2228
T5
X3.2264Y-3.1004
X3.2264Y-3.3563
X3.4035Y-3.1004
X3.4035Y-3.3563
X3.5295Y-3.1004
X3.5295Y-3.3563
X3.7067Y-3.1004
X3.7067Y-3.3563
T3
G00X4.1026Y-3.0974
M15
G01X4.1616Y-3.0974
M16
G05
G00X4.1026Y-3.438
M15
G01X4.1616Y-3.438
M16
G05
G00X4.2494Y-3.0974
M15
G01X4.2809Y-3.0974
M16
G05
G00X4.2494Y-3.438
M15
G01X4.2809Y-3.438
M16
G05
T0
M30
