%TF.GenerationSoftware,KiCad,Pcbnew,7.0.9*%
%TF.CreationDate,2024-01-01T22:47:05-05:00*%
%TF.ProjectId,Vex_Debug,5665785f-4465-4627-9567-2e6b69636164,rev?*%
%TF.SameCoordinates,Original*%
%TF.FileFunction,Legend,Bot*%
%TF.FilePolarity,Positive*%
%FSLAX46Y46*%
G04 Gerber Fmt 4.6, Leading zero omitted, Abs format (unit mm)*
G04 Created by KiCad (PCBNEW 7.0.9) date 2024-01-01 22:47:05*
%MOMM*%
%LPD*%
G01*
G04 APERTURE LIST*
%ADD10C,0.300000*%
%ADD11C,0.150000*%
%ADD12C,0.120000*%
G04 APERTURE END LIST*
D10*
X122259774Y-73270828D02*
X121759774Y-74770828D01*
X121759774Y-74770828D02*
X121259774Y-73270828D01*
X120045489Y-73270828D02*
X120759775Y-73270828D01*
X120759775Y-73270828D02*
X120831203Y-73985114D01*
X120831203Y-73985114D02*
X120759775Y-73913685D01*
X120759775Y-73913685D02*
X120616918Y-73842257D01*
X120616918Y-73842257D02*
X120259775Y-73842257D01*
X120259775Y-73842257D02*
X120116918Y-73913685D01*
X120116918Y-73913685D02*
X120045489Y-73985114D01*
X120045489Y-73985114D02*
X119974060Y-74127971D01*
X119974060Y-74127971D02*
X119974060Y-74485114D01*
X119974060Y-74485114D02*
X120045489Y-74627971D01*
X120045489Y-74627971D02*
X120116918Y-74699400D01*
X120116918Y-74699400D02*
X120259775Y-74770828D01*
X120259775Y-74770828D02*
X120616918Y-74770828D01*
X120616918Y-74770828D02*
X120759775Y-74699400D01*
X120759775Y-74699400D02*
X120831203Y-74627971D01*
X118188347Y-74770828D02*
X118188347Y-73270828D01*
X118188347Y-73270828D02*
X117831204Y-73270828D01*
X117831204Y-73270828D02*
X117616918Y-73342257D01*
X117616918Y-73342257D02*
X117474061Y-73485114D01*
X117474061Y-73485114D02*
X117402632Y-73627971D01*
X117402632Y-73627971D02*
X117331204Y-73913685D01*
X117331204Y-73913685D02*
X117331204Y-74127971D01*
X117331204Y-74127971D02*
X117402632Y-74413685D01*
X117402632Y-74413685D02*
X117474061Y-74556542D01*
X117474061Y-74556542D02*
X117616918Y-74699400D01*
X117616918Y-74699400D02*
X117831204Y-74770828D01*
X117831204Y-74770828D02*
X118188347Y-74770828D01*
X116116918Y-74699400D02*
X116259775Y-74770828D01*
X116259775Y-74770828D02*
X116545490Y-74770828D01*
X116545490Y-74770828D02*
X116688347Y-74699400D01*
X116688347Y-74699400D02*
X116759775Y-74556542D01*
X116759775Y-74556542D02*
X116759775Y-73985114D01*
X116759775Y-73985114D02*
X116688347Y-73842257D01*
X116688347Y-73842257D02*
X116545490Y-73770828D01*
X116545490Y-73770828D02*
X116259775Y-73770828D01*
X116259775Y-73770828D02*
X116116918Y-73842257D01*
X116116918Y-73842257D02*
X116045490Y-73985114D01*
X116045490Y-73985114D02*
X116045490Y-74127971D01*
X116045490Y-74127971D02*
X116759775Y-74270828D01*
X115402633Y-74770828D02*
X115402633Y-73270828D01*
X115402633Y-73842257D02*
X115259776Y-73770828D01*
X115259776Y-73770828D02*
X114974061Y-73770828D01*
X114974061Y-73770828D02*
X114831204Y-73842257D01*
X114831204Y-73842257D02*
X114759776Y-73913685D01*
X114759776Y-73913685D02*
X114688347Y-74056542D01*
X114688347Y-74056542D02*
X114688347Y-74485114D01*
X114688347Y-74485114D02*
X114759776Y-74627971D01*
X114759776Y-74627971D02*
X114831204Y-74699400D01*
X114831204Y-74699400D02*
X114974061Y-74770828D01*
X114974061Y-74770828D02*
X115259776Y-74770828D01*
X115259776Y-74770828D02*
X115402633Y-74699400D01*
X113402633Y-73770828D02*
X113402633Y-74770828D01*
X114045490Y-73770828D02*
X114045490Y-74556542D01*
X114045490Y-74556542D02*
X113974061Y-74699400D01*
X113974061Y-74699400D02*
X113831204Y-74770828D01*
X113831204Y-74770828D02*
X113616918Y-74770828D01*
X113616918Y-74770828D02*
X113474061Y-74699400D01*
X113474061Y-74699400D02*
X113402633Y-74627971D01*
X112045490Y-73770828D02*
X112045490Y-74985114D01*
X112045490Y-74985114D02*
X112116918Y-75127971D01*
X112116918Y-75127971D02*
X112188347Y-75199400D01*
X112188347Y-75199400D02*
X112331204Y-75270828D01*
X112331204Y-75270828D02*
X112545490Y-75270828D01*
X112545490Y-75270828D02*
X112688347Y-75199400D01*
X112045490Y-74699400D02*
X112188347Y-74770828D01*
X112188347Y-74770828D02*
X112474061Y-74770828D01*
X112474061Y-74770828D02*
X112616918Y-74699400D01*
X112616918Y-74699400D02*
X112688347Y-74627971D01*
X112688347Y-74627971D02*
X112759775Y-74485114D01*
X112759775Y-74485114D02*
X112759775Y-74056542D01*
X112759775Y-74056542D02*
X112688347Y-73913685D01*
X112688347Y-73913685D02*
X112616918Y-73842257D01*
X112616918Y-73842257D02*
X112474061Y-73770828D01*
X112474061Y-73770828D02*
X112188347Y-73770828D01*
X112188347Y-73770828D02*
X112045490Y-73842257D01*
X109688347Y-73985114D02*
X109474061Y-74056542D01*
X109474061Y-74056542D02*
X109402632Y-74127971D01*
X109402632Y-74127971D02*
X109331204Y-74270828D01*
X109331204Y-74270828D02*
X109331204Y-74485114D01*
X109331204Y-74485114D02*
X109402632Y-74627971D01*
X109402632Y-74627971D02*
X109474061Y-74699400D01*
X109474061Y-74699400D02*
X109616918Y-74770828D01*
X109616918Y-74770828D02*
X110188347Y-74770828D01*
X110188347Y-74770828D02*
X110188347Y-73270828D01*
X110188347Y-73270828D02*
X109688347Y-73270828D01*
X109688347Y-73270828D02*
X109545490Y-73342257D01*
X109545490Y-73342257D02*
X109474061Y-73413685D01*
X109474061Y-73413685D02*
X109402632Y-73556542D01*
X109402632Y-73556542D02*
X109402632Y-73699400D01*
X109402632Y-73699400D02*
X109474061Y-73842257D01*
X109474061Y-73842257D02*
X109545490Y-73913685D01*
X109545490Y-73913685D02*
X109688347Y-73985114D01*
X109688347Y-73985114D02*
X110188347Y-73985114D01*
X108474061Y-74770828D02*
X108616918Y-74699400D01*
X108616918Y-74699400D02*
X108688347Y-74627971D01*
X108688347Y-74627971D02*
X108759775Y-74485114D01*
X108759775Y-74485114D02*
X108759775Y-74056542D01*
X108759775Y-74056542D02*
X108688347Y-73913685D01*
X108688347Y-73913685D02*
X108616918Y-73842257D01*
X108616918Y-73842257D02*
X108474061Y-73770828D01*
X108474061Y-73770828D02*
X108259775Y-73770828D01*
X108259775Y-73770828D02*
X108116918Y-73842257D01*
X108116918Y-73842257D02*
X108045490Y-73913685D01*
X108045490Y-73913685D02*
X107974061Y-74056542D01*
X107974061Y-74056542D02*
X107974061Y-74485114D01*
X107974061Y-74485114D02*
X108045490Y-74627971D01*
X108045490Y-74627971D02*
X108116918Y-74699400D01*
X108116918Y-74699400D02*
X108259775Y-74770828D01*
X108259775Y-74770828D02*
X108474061Y-74770828D01*
X106688347Y-74770828D02*
X106688347Y-73985114D01*
X106688347Y-73985114D02*
X106759775Y-73842257D01*
X106759775Y-73842257D02*
X106902632Y-73770828D01*
X106902632Y-73770828D02*
X107188347Y-73770828D01*
X107188347Y-73770828D02*
X107331204Y-73842257D01*
X106688347Y-74699400D02*
X106831204Y-74770828D01*
X106831204Y-74770828D02*
X107188347Y-74770828D01*
X107188347Y-74770828D02*
X107331204Y-74699400D01*
X107331204Y-74699400D02*
X107402632Y-74556542D01*
X107402632Y-74556542D02*
X107402632Y-74413685D01*
X107402632Y-74413685D02*
X107331204Y-74270828D01*
X107331204Y-74270828D02*
X107188347Y-74199400D01*
X107188347Y-74199400D02*
X106831204Y-74199400D01*
X106831204Y-74199400D02*
X106688347Y-74127971D01*
X105974061Y-74770828D02*
X105974061Y-73770828D01*
X105974061Y-74056542D02*
X105902632Y-73913685D01*
X105902632Y-73913685D02*
X105831204Y-73842257D01*
X105831204Y-73842257D02*
X105688346Y-73770828D01*
X105688346Y-73770828D02*
X105545489Y-73770828D01*
X104402633Y-74770828D02*
X104402633Y-73270828D01*
X104402633Y-74699400D02*
X104545490Y-74770828D01*
X104545490Y-74770828D02*
X104831204Y-74770828D01*
X104831204Y-74770828D02*
X104974061Y-74699400D01*
X104974061Y-74699400D02*
X105045490Y-74627971D01*
X105045490Y-74627971D02*
X105116918Y-74485114D01*
X105116918Y-74485114D02*
X105116918Y-74056542D01*
X105116918Y-74056542D02*
X105045490Y-73913685D01*
X105045490Y-73913685D02*
X104974061Y-73842257D01*
X104974061Y-73842257D02*
X104831204Y-73770828D01*
X104831204Y-73770828D02*
X104545490Y-73770828D01*
X104545490Y-73770828D02*
X104402633Y-73842257D01*
X121188346Y-77185828D02*
X121688346Y-76471542D01*
X122045489Y-77185828D02*
X122045489Y-75685828D01*
X122045489Y-75685828D02*
X121474060Y-75685828D01*
X121474060Y-75685828D02*
X121331203Y-75757257D01*
X121331203Y-75757257D02*
X121259774Y-75828685D01*
X121259774Y-75828685D02*
X121188346Y-75971542D01*
X121188346Y-75971542D02*
X121188346Y-76185828D01*
X121188346Y-76185828D02*
X121259774Y-76328685D01*
X121259774Y-76328685D02*
X121331203Y-76400114D01*
X121331203Y-76400114D02*
X121474060Y-76471542D01*
X121474060Y-76471542D02*
X122045489Y-76471542D01*
X119974060Y-77114400D02*
X120116917Y-77185828D01*
X120116917Y-77185828D02*
X120402632Y-77185828D01*
X120402632Y-77185828D02*
X120545489Y-77114400D01*
X120545489Y-77114400D02*
X120616917Y-76971542D01*
X120616917Y-76971542D02*
X120616917Y-76400114D01*
X120616917Y-76400114D02*
X120545489Y-76257257D01*
X120545489Y-76257257D02*
X120402632Y-76185828D01*
X120402632Y-76185828D02*
X120116917Y-76185828D01*
X120116917Y-76185828D02*
X119974060Y-76257257D01*
X119974060Y-76257257D02*
X119902632Y-76400114D01*
X119902632Y-76400114D02*
X119902632Y-76542971D01*
X119902632Y-76542971D02*
X120616917Y-76685828D01*
X119402632Y-76185828D02*
X119045489Y-77185828D01*
X119045489Y-77185828D02*
X118688346Y-76185828D01*
X117116918Y-75685828D02*
X116188346Y-75685828D01*
X116188346Y-75685828D02*
X116688346Y-76257257D01*
X116688346Y-76257257D02*
X116474061Y-76257257D01*
X116474061Y-76257257D02*
X116331204Y-76328685D01*
X116331204Y-76328685D02*
X116259775Y-76400114D01*
X116259775Y-76400114D02*
X116188346Y-76542971D01*
X116188346Y-76542971D02*
X116188346Y-76900114D01*
X116188346Y-76900114D02*
X116259775Y-77042971D01*
X116259775Y-77042971D02*
X116331204Y-77114400D01*
X116331204Y-77114400D02*
X116474061Y-77185828D01*
X116474061Y-77185828D02*
X116902632Y-77185828D01*
X116902632Y-77185828D02*
X117045489Y-77114400D01*
X117045489Y-77114400D02*
X117116918Y-77042971D01*
X115545490Y-77042971D02*
X115474061Y-77114400D01*
X115474061Y-77114400D02*
X115545490Y-77185828D01*
X115545490Y-77185828D02*
X115616918Y-77114400D01*
X115616918Y-77114400D02*
X115545490Y-77042971D01*
X115545490Y-77042971D02*
X115545490Y-77185828D01*
X114545489Y-75685828D02*
X114402632Y-75685828D01*
X114402632Y-75685828D02*
X114259775Y-75757257D01*
X114259775Y-75757257D02*
X114188347Y-75828685D01*
X114188347Y-75828685D02*
X114116918Y-75971542D01*
X114116918Y-75971542D02*
X114045489Y-76257257D01*
X114045489Y-76257257D02*
X114045489Y-76614400D01*
X114045489Y-76614400D02*
X114116918Y-76900114D01*
X114116918Y-76900114D02*
X114188347Y-77042971D01*
X114188347Y-77042971D02*
X114259775Y-77114400D01*
X114259775Y-77114400D02*
X114402632Y-77185828D01*
X114402632Y-77185828D02*
X114545489Y-77185828D01*
X114545489Y-77185828D02*
X114688347Y-77114400D01*
X114688347Y-77114400D02*
X114759775Y-77042971D01*
X114759775Y-77042971D02*
X114831204Y-76900114D01*
X114831204Y-76900114D02*
X114902632Y-76614400D01*
X114902632Y-76614400D02*
X114902632Y-76257257D01*
X114902632Y-76257257D02*
X114831204Y-75971542D01*
X114831204Y-75971542D02*
X114759775Y-75828685D01*
X114759775Y-75828685D02*
X114688347Y-75757257D01*
X114688347Y-75757257D02*
X114545489Y-75685828D01*
X121259774Y-79600828D02*
X122116917Y-79600828D01*
X121688346Y-79600828D02*
X121688346Y-78100828D01*
X121688346Y-78100828D02*
X121831203Y-78315114D01*
X121831203Y-78315114D02*
X121974060Y-78457971D01*
X121974060Y-78457971D02*
X122116917Y-78529400D01*
X120688346Y-78243685D02*
X120616918Y-78172257D01*
X120616918Y-78172257D02*
X120474061Y-78100828D01*
X120474061Y-78100828D02*
X120116918Y-78100828D01*
X120116918Y-78100828D02*
X119974061Y-78172257D01*
X119974061Y-78172257D02*
X119902632Y-78243685D01*
X119902632Y-78243685D02*
X119831203Y-78386542D01*
X119831203Y-78386542D02*
X119831203Y-78529400D01*
X119831203Y-78529400D02*
X119902632Y-78743685D01*
X119902632Y-78743685D02*
X120759775Y-79600828D01*
X120759775Y-79600828D02*
X119831203Y-79600828D01*
X118116918Y-78029400D02*
X119402632Y-79957971D01*
X117759775Y-78100828D02*
X116831203Y-78100828D01*
X116831203Y-78100828D02*
X117331203Y-78672257D01*
X117331203Y-78672257D02*
X117116918Y-78672257D01*
X117116918Y-78672257D02*
X116974061Y-78743685D01*
X116974061Y-78743685D02*
X116902632Y-78815114D01*
X116902632Y-78815114D02*
X116831203Y-78957971D01*
X116831203Y-78957971D02*
X116831203Y-79315114D01*
X116831203Y-79315114D02*
X116902632Y-79457971D01*
X116902632Y-79457971D02*
X116974061Y-79529400D01*
X116974061Y-79529400D02*
X117116918Y-79600828D01*
X117116918Y-79600828D02*
X117545489Y-79600828D01*
X117545489Y-79600828D02*
X117688346Y-79529400D01*
X117688346Y-79529400D02*
X117759775Y-79457971D01*
X115902632Y-78100828D02*
X115759775Y-78100828D01*
X115759775Y-78100828D02*
X115616918Y-78172257D01*
X115616918Y-78172257D02*
X115545490Y-78243685D01*
X115545490Y-78243685D02*
X115474061Y-78386542D01*
X115474061Y-78386542D02*
X115402632Y-78672257D01*
X115402632Y-78672257D02*
X115402632Y-79029400D01*
X115402632Y-79029400D02*
X115474061Y-79315114D01*
X115474061Y-79315114D02*
X115545490Y-79457971D01*
X115545490Y-79457971D02*
X115616918Y-79529400D01*
X115616918Y-79529400D02*
X115759775Y-79600828D01*
X115759775Y-79600828D02*
X115902632Y-79600828D01*
X115902632Y-79600828D02*
X116045490Y-79529400D01*
X116045490Y-79529400D02*
X116116918Y-79457971D01*
X116116918Y-79457971D02*
X116188347Y-79315114D01*
X116188347Y-79315114D02*
X116259775Y-79029400D01*
X116259775Y-79029400D02*
X116259775Y-78672257D01*
X116259775Y-78672257D02*
X116188347Y-78386542D01*
X116188347Y-78386542D02*
X116116918Y-78243685D01*
X116116918Y-78243685D02*
X116045490Y-78172257D01*
X116045490Y-78172257D02*
X115902632Y-78100828D01*
X113688347Y-78029400D02*
X114974061Y-79957971D01*
X113259775Y-78243685D02*
X113188347Y-78172257D01*
X113188347Y-78172257D02*
X113045490Y-78100828D01*
X113045490Y-78100828D02*
X112688347Y-78100828D01*
X112688347Y-78100828D02*
X112545490Y-78172257D01*
X112545490Y-78172257D02*
X112474061Y-78243685D01*
X112474061Y-78243685D02*
X112402632Y-78386542D01*
X112402632Y-78386542D02*
X112402632Y-78529400D01*
X112402632Y-78529400D02*
X112474061Y-78743685D01*
X112474061Y-78743685D02*
X113331204Y-79600828D01*
X113331204Y-79600828D02*
X112402632Y-79600828D01*
X111474061Y-78100828D02*
X111331204Y-78100828D01*
X111331204Y-78100828D02*
X111188347Y-78172257D01*
X111188347Y-78172257D02*
X111116919Y-78243685D01*
X111116919Y-78243685D02*
X111045490Y-78386542D01*
X111045490Y-78386542D02*
X110974061Y-78672257D01*
X110974061Y-78672257D02*
X110974061Y-79029400D01*
X110974061Y-79029400D02*
X111045490Y-79315114D01*
X111045490Y-79315114D02*
X111116919Y-79457971D01*
X111116919Y-79457971D02*
X111188347Y-79529400D01*
X111188347Y-79529400D02*
X111331204Y-79600828D01*
X111331204Y-79600828D02*
X111474061Y-79600828D01*
X111474061Y-79600828D02*
X111616919Y-79529400D01*
X111616919Y-79529400D02*
X111688347Y-79457971D01*
X111688347Y-79457971D02*
X111759776Y-79315114D01*
X111759776Y-79315114D02*
X111831204Y-79029400D01*
X111831204Y-79029400D02*
X111831204Y-78672257D01*
X111831204Y-78672257D02*
X111759776Y-78386542D01*
X111759776Y-78386542D02*
X111688347Y-78243685D01*
X111688347Y-78243685D02*
X111616919Y-78172257D01*
X111616919Y-78172257D02*
X111474061Y-78100828D01*
X110402633Y-78243685D02*
X110331205Y-78172257D01*
X110331205Y-78172257D02*
X110188348Y-78100828D01*
X110188348Y-78100828D02*
X109831205Y-78100828D01*
X109831205Y-78100828D02*
X109688348Y-78172257D01*
X109688348Y-78172257D02*
X109616919Y-78243685D01*
X109616919Y-78243685D02*
X109545490Y-78386542D01*
X109545490Y-78386542D02*
X109545490Y-78529400D01*
X109545490Y-78529400D02*
X109616919Y-78743685D01*
X109616919Y-78743685D02*
X110474062Y-79600828D01*
X110474062Y-79600828D02*
X109545490Y-79600828D01*
X109045491Y-78100828D02*
X108116919Y-78100828D01*
X108116919Y-78100828D02*
X108616919Y-78672257D01*
X108616919Y-78672257D02*
X108402634Y-78672257D01*
X108402634Y-78672257D02*
X108259777Y-78743685D01*
X108259777Y-78743685D02*
X108188348Y-78815114D01*
X108188348Y-78815114D02*
X108116919Y-78957971D01*
X108116919Y-78957971D02*
X108116919Y-79315114D01*
X108116919Y-79315114D02*
X108188348Y-79457971D01*
X108188348Y-79457971D02*
X108259777Y-79529400D01*
X108259777Y-79529400D02*
X108402634Y-79600828D01*
X108402634Y-79600828D02*
X108831205Y-79600828D01*
X108831205Y-79600828D02*
X108974062Y-79529400D01*
X108974062Y-79529400D02*
X109045491Y-79457971D01*
D11*
X118733333Y-59654819D02*
X118733333Y-60369104D01*
X118733333Y-60369104D02*
X118780952Y-60511961D01*
X118780952Y-60511961D02*
X118876190Y-60607200D01*
X118876190Y-60607200D02*
X119019047Y-60654819D01*
X119019047Y-60654819D02*
X119114285Y-60654819D01*
X118304761Y-59750057D02*
X118257142Y-59702438D01*
X118257142Y-59702438D02*
X118161904Y-59654819D01*
X118161904Y-59654819D02*
X117923809Y-59654819D01*
X117923809Y-59654819D02*
X117828571Y-59702438D01*
X117828571Y-59702438D02*
X117780952Y-59750057D01*
X117780952Y-59750057D02*
X117733333Y-59845295D01*
X117733333Y-59845295D02*
X117733333Y-59940533D01*
X117733333Y-59940533D02*
X117780952Y-60083390D01*
X117780952Y-60083390D02*
X118352380Y-60654819D01*
X118352380Y-60654819D02*
X117733333Y-60654819D01*
D12*
%TO.C,J2*%
X124405000Y-67460000D02*
X110585000Y-67460000D01*
X124405000Y-64960000D02*
X124405000Y-67460000D01*
X124405000Y-62440000D02*
X124405000Y-56660000D01*
X124405000Y-52740000D02*
X124405000Y-54140000D01*
X124405000Y-52740000D02*
X110585000Y-52740000D01*
X110585000Y-64960000D02*
X110585000Y-67460000D01*
X110585000Y-56660000D02*
X110585000Y-62440000D01*
X110585000Y-52740000D02*
X110585000Y-54140000D01*
%TO.C,G\u002A\u002A\u002A*%
G36*
X119094954Y-88875133D02*
G01*
X117519644Y-88875133D01*
X117519644Y-81163615D01*
X119094954Y-81163615D01*
X119094954Y-88875133D01*
G37*
G36*
X111998557Y-91320614D02*
G01*
X111788516Y-91320614D01*
X111788516Y-89700295D01*
X111998557Y-89700295D01*
X111998557Y-91320614D01*
G37*
G36*
X114804109Y-89895334D02*
G01*
X114264003Y-89895334D01*
X114264003Y-91320614D01*
X114053962Y-91320614D01*
X114053962Y-89895334D01*
X113513855Y-89895334D01*
X113513855Y-89700295D01*
X114804109Y-89700295D01*
X114804109Y-89895334D01*
G37*
G36*
X116484440Y-82498878D02*
G01*
X114158982Y-82498878D01*
X114158982Y-88875133D01*
X112583672Y-88875133D01*
X112583672Y-82498878D01*
X110273217Y-82498878D01*
X110273217Y-81163615D01*
X116484440Y-81163615D01*
X116484440Y-82498878D01*
G37*
G36*
X123625503Y-90500617D02*
G01*
X123623657Y-90603655D01*
X123616163Y-90698106D01*
X123603017Y-90773605D01*
X123565075Y-90890534D01*
X123495980Y-91025904D01*
X123405711Y-91140661D01*
X123295306Y-91233780D01*
X123165799Y-91304240D01*
X123018226Y-91351018D01*
X122971482Y-91357844D01*
X122890343Y-91361337D01*
X122797841Y-91358838D01*
X122704194Y-91350990D01*
X122619622Y-91338437D01*
X122554346Y-91321822D01*
X122539480Y-91316403D01*
X122407659Y-91251397D01*
X122293715Y-91162993D01*
X122199069Y-91052812D01*
X122125145Y-90922476D01*
X122073364Y-90773605D01*
X122063900Y-90725416D01*
X122054556Y-90636029D01*
X122050861Y-90534661D01*
X122050930Y-90531034D01*
X122267604Y-90531034D01*
X122280964Y-90670798D01*
X122294229Y-90732694D01*
X122340188Y-90862321D01*
X122407066Y-90970477D01*
X122494929Y-91057255D01*
X122603844Y-91122747D01*
X122616511Y-91128403D01*
X122673922Y-91148796D01*
X122736154Y-91160444D01*
X122815686Y-91165890D01*
X122848056Y-91166377D01*
X122979417Y-91153239D01*
X123094231Y-91115098D01*
X123192818Y-91051761D01*
X123275496Y-90963036D01*
X123342585Y-90848732D01*
X123379387Y-90747702D01*
X123403837Y-90616633D01*
X123408152Y-90479629D01*
X123392716Y-90344057D01*
X123357908Y-90217288D01*
X123304113Y-90106691D01*
X123277355Y-90069622D01*
X123208719Y-89998770D01*
X123127904Y-89937785D01*
X123046125Y-89895834D01*
X123026607Y-89889192D01*
X122931557Y-89869809D01*
X122825468Y-89864455D01*
X122720860Y-89873130D01*
X122630256Y-89895834D01*
X122589023Y-89914334D01*
X122506336Y-89967161D01*
X122430345Y-90034336D01*
X122372268Y-90106691D01*
X122351649Y-90142419D01*
X122304107Y-90259674D01*
X122275705Y-90391603D01*
X122267604Y-90531034D01*
X122050930Y-90531034D01*
X122052810Y-90431676D01*
X122060398Y-90337437D01*
X122073618Y-90262307D01*
X122100165Y-90176317D01*
X122164736Y-90037368D01*
X122250090Y-89917790D01*
X122354518Y-89819380D01*
X122476314Y-89743938D01*
X122613770Y-89693262D01*
X122675383Y-89681407D01*
X122773034Y-89672659D01*
X122878240Y-89671719D01*
X122978824Y-89678586D01*
X123062612Y-89693262D01*
X123141753Y-89718612D01*
X123270610Y-89783440D01*
X123382848Y-89872022D01*
X123476757Y-89982559D01*
X123550631Y-90113254D01*
X123602763Y-90262307D01*
X123612275Y-90310230D01*
X123621708Y-90399354D01*
X123624716Y-90479629D01*
X123625503Y-90500617D01*
G37*
G36*
X117744345Y-90500617D02*
G01*
X117742499Y-90603655D01*
X117735005Y-90698106D01*
X117721859Y-90773605D01*
X117683917Y-90890534D01*
X117614822Y-91025904D01*
X117524554Y-91140661D01*
X117414148Y-91233780D01*
X117284641Y-91304240D01*
X117137068Y-91351018D01*
X117090324Y-91357844D01*
X117009185Y-91361337D01*
X116916683Y-91358838D01*
X116823036Y-91350990D01*
X116738465Y-91338437D01*
X116673188Y-91321822D01*
X116658322Y-91316403D01*
X116526501Y-91251397D01*
X116412557Y-91162993D01*
X116317912Y-91052812D01*
X116243987Y-90922476D01*
X116192207Y-90773605D01*
X116182742Y-90725416D01*
X116173398Y-90636029D01*
X116169704Y-90534661D01*
X116169773Y-90531034D01*
X116386446Y-90531034D01*
X116399807Y-90670798D01*
X116413071Y-90732694D01*
X116459030Y-90862321D01*
X116525908Y-90970477D01*
X116613772Y-91057255D01*
X116722687Y-91122747D01*
X116735353Y-91128403D01*
X116792765Y-91148796D01*
X116854996Y-91160444D01*
X116934529Y-91165890D01*
X116966898Y-91166377D01*
X117098259Y-91153239D01*
X117213074Y-91115098D01*
X117311660Y-91051761D01*
X117394339Y-90963036D01*
X117461427Y-90848732D01*
X117498229Y-90747702D01*
X117522679Y-90616633D01*
X117526995Y-90479629D01*
X117511558Y-90344057D01*
X117476751Y-90217288D01*
X117422955Y-90106691D01*
X117396198Y-90069622D01*
X117327562Y-89998770D01*
X117246747Y-89937785D01*
X117164968Y-89895834D01*
X117145450Y-89889192D01*
X117050399Y-89869809D01*
X116944310Y-89864455D01*
X116839703Y-89873130D01*
X116749098Y-89895834D01*
X116707865Y-89914334D01*
X116625178Y-89967161D01*
X116549188Y-90034336D01*
X116491111Y-90106691D01*
X116470491Y-90142419D01*
X116422949Y-90259674D01*
X116394547Y-90391603D01*
X116386446Y-90531034D01*
X116169773Y-90531034D01*
X116171653Y-90431676D01*
X116179240Y-90337437D01*
X116192461Y-90262307D01*
X116219007Y-90176317D01*
X116283579Y-90037368D01*
X116368932Y-89917790D01*
X116473360Y-89819380D01*
X116595156Y-89743938D01*
X116732612Y-89693262D01*
X116794225Y-89681407D01*
X116891877Y-89672659D01*
X116997082Y-89671719D01*
X117097667Y-89678586D01*
X117181454Y-89693262D01*
X117260595Y-89718612D01*
X117389453Y-89783440D01*
X117501690Y-89872022D01*
X117595599Y-89982559D01*
X117669473Y-90113254D01*
X117721605Y-90262307D01*
X117731118Y-90310230D01*
X117740550Y-90399354D01*
X117743558Y-90479629D01*
X117744345Y-90500617D01*
G37*
G36*
X109445569Y-89678458D02*
G01*
X109529974Y-89679545D01*
X109592347Y-89682667D01*
X109640257Y-89688769D01*
X109681276Y-89698795D01*
X109722972Y-89713691D01*
X109787924Y-89743506D01*
X109906401Y-89821620D01*
X110009157Y-89922228D01*
X110092717Y-90041599D01*
X110153607Y-90176004D01*
X110173426Y-90253297D01*
X110188234Y-90354475D01*
X110196365Y-90466159D01*
X110197435Y-90578634D01*
X110191063Y-90682185D01*
X110176866Y-90767099D01*
X110163791Y-90813971D01*
X110106647Y-90956260D01*
X110028880Y-91080422D01*
X109932474Y-91184191D01*
X109819411Y-91265301D01*
X109691674Y-91321486D01*
X109652334Y-91331412D01*
X109570121Y-91343175D01*
X109475012Y-91349127D01*
X109377327Y-91349079D01*
X109287387Y-91342842D01*
X109215509Y-91330226D01*
X109144952Y-91306850D01*
X109030112Y-91245588D01*
X108933087Y-91161517D01*
X108855492Y-91056567D01*
X108798944Y-90932671D01*
X108765058Y-90791760D01*
X108754512Y-90720496D01*
X108978885Y-90720496D01*
X108988126Y-90787917D01*
X108988697Y-90791929D01*
X109018679Y-90896453D01*
X109074148Y-90990832D01*
X109151096Y-91069772D01*
X109245515Y-91127978D01*
X109250765Y-91130293D01*
X109342925Y-91156404D01*
X109446664Y-91163738D01*
X109550986Y-91152440D01*
X109644894Y-91122658D01*
X109702230Y-91092472D01*
X109800842Y-91016311D01*
X109878176Y-90919418D01*
X109933898Y-90802404D01*
X109967675Y-90665880D01*
X109979174Y-90510455D01*
X109979162Y-90503509D01*
X109967185Y-90355862D01*
X109933696Y-90223261D01*
X109879983Y-90107888D01*
X109807338Y-90011923D01*
X109717049Y-89937548D01*
X109610407Y-89886942D01*
X109539768Y-89871652D01*
X109452251Y-89866039D01*
X109361413Y-89870515D01*
X109277962Y-89884528D01*
X109212603Y-89907523D01*
X109206541Y-89910731D01*
X109125559Y-89968078D01*
X109059791Y-90041546D01*
X109016633Y-90123005D01*
X108990923Y-90195393D01*
X108889424Y-90195393D01*
X108869666Y-90195357D01*
X108823945Y-90194080D01*
X108799508Y-90189209D01*
X108789714Y-90178377D01*
X108787925Y-90159220D01*
X108789054Y-90137935D01*
X108809337Y-90058483D01*
X108851538Y-89975038D01*
X108911081Y-89893254D01*
X108983389Y-89818785D01*
X109063886Y-89757284D01*
X109147996Y-89714404D01*
X109157695Y-89710806D01*
X109201590Y-89696307D01*
X109243940Y-89686790D01*
X109292630Y-89681286D01*
X109355540Y-89678825D01*
X109440553Y-89678439D01*
X109445569Y-89678458D01*
G37*
G36*
X126371386Y-91320614D02*
G01*
X126161345Y-91320614D01*
X126161345Y-90645481D01*
X125917547Y-90645839D01*
X125868512Y-90646176D01*
X125783616Y-90647983D01*
X125708570Y-90651071D01*
X125650091Y-90655129D01*
X125614898Y-90659846D01*
X125608490Y-90661383D01*
X125545028Y-90684193D01*
X125495236Y-90719704D01*
X125457233Y-90771316D01*
X125429136Y-90842429D01*
X125409061Y-90936444D01*
X125395127Y-91056761D01*
X125390429Y-91112052D01*
X125382894Y-91191927D01*
X125374531Y-91248291D01*
X125362804Y-91285235D01*
X125345177Y-91306849D01*
X125319114Y-91317223D01*
X125282078Y-91320448D01*
X125231533Y-91320614D01*
X125167171Y-91318533D01*
X125124185Y-91311603D01*
X125110031Y-91299953D01*
X125125132Y-91283731D01*
X125134394Y-91270258D01*
X125147566Y-91227544D01*
X125160947Y-91158882D01*
X125174106Y-91066603D01*
X125186607Y-90953042D01*
X125192991Y-90896865D01*
X125212889Y-90787747D01*
X125241091Y-90703539D01*
X125278800Y-90641202D01*
X125327219Y-90597696D01*
X125353237Y-90580011D01*
X125376364Y-90558600D01*
X125374879Y-90544149D01*
X125350200Y-90532646D01*
X125311656Y-90512854D01*
X125260572Y-90469791D01*
X125212840Y-90413774D01*
X125176421Y-90353033D01*
X125169710Y-90338011D01*
X125152568Y-90287340D01*
X125143807Y-90230827D01*
X125142270Y-90185446D01*
X125366032Y-90185446D01*
X125372487Y-90261769D01*
X125374406Y-90270602D01*
X125404092Y-90335892D01*
X125455942Y-90394104D01*
X125523099Y-90437245D01*
X125530354Y-90440413D01*
X125556590Y-90449452D01*
X125588713Y-90456009D01*
X125631547Y-90460469D01*
X125689914Y-90463218D01*
X125768637Y-90464638D01*
X125872538Y-90465116D01*
X126161345Y-90465446D01*
X126161345Y-89892711D01*
X125850034Y-89897920D01*
X125743082Y-89900099D01*
X125650560Y-89903540D01*
X125580009Y-89909046D01*
X125527225Y-89917615D01*
X125488003Y-89930247D01*
X125458139Y-89947941D01*
X125433428Y-89971693D01*
X125409667Y-90002504D01*
X125390532Y-90039459D01*
X125372578Y-90107642D01*
X125366032Y-90185446D01*
X125142270Y-90185446D01*
X125141291Y-90156531D01*
X125142672Y-90091504D01*
X125148996Y-90041034D01*
X125163003Y-89995605D01*
X125187429Y-89942529D01*
X125213644Y-89895305D01*
X125260937Y-89834724D01*
X125321858Y-89786121D01*
X125404522Y-89742003D01*
X125404622Y-89741957D01*
X125427096Y-89732155D01*
X125449691Y-89724374D01*
X125476144Y-89718331D01*
X125510189Y-89713747D01*
X125555563Y-89710340D01*
X125616001Y-89707830D01*
X125695237Y-89705936D01*
X125797008Y-89704377D01*
X125925048Y-89702872D01*
X126371386Y-89697948D01*
X126371386Y-89892711D01*
X126371386Y-91320614D01*
G37*
G36*
X120475226Y-90566584D02*
G01*
X120475226Y-91322236D01*
X120021386Y-91317674D01*
X119910830Y-91316488D01*
X119803478Y-91315000D01*
X119719411Y-91313195D01*
X119654975Y-91310820D01*
X119606512Y-91307620D01*
X119570366Y-91303344D01*
X119542881Y-91297738D01*
X119520402Y-91290548D01*
X119499271Y-91281522D01*
X119431459Y-91243413D01*
X119343545Y-91167736D01*
X119277915Y-91074416D01*
X119272312Y-91063579D01*
X119254310Y-91022960D01*
X119243828Y-90982740D01*
X119238941Y-90932801D01*
X119237728Y-90863024D01*
X119238444Y-90820421D01*
X119456469Y-90820421D01*
X119457038Y-90900544D01*
X119478535Y-90977122D01*
X119519878Y-91043256D01*
X119579982Y-91092045D01*
X119589203Y-91096615D01*
X119612483Y-91104564D01*
X119644624Y-91110611D01*
X119689854Y-91115110D01*
X119752402Y-91118420D01*
X119836499Y-91120895D01*
X119946371Y-91122892D01*
X120265184Y-91127710D01*
X120265184Y-90566584D01*
X119976377Y-90573872D01*
X119939488Y-90574865D01*
X119827991Y-90579129D01*
X119740832Y-90585421D01*
X119673608Y-90594794D01*
X119621913Y-90608305D01*
X119581344Y-90627010D01*
X119547497Y-90651963D01*
X119515968Y-90684220D01*
X119477910Y-90743656D01*
X119456469Y-90820421D01*
X119238444Y-90820421D01*
X119238815Y-90798301D01*
X119243656Y-90744754D01*
X119253833Y-90703648D01*
X119270911Y-90665686D01*
X119280392Y-90649349D01*
X119332396Y-90584434D01*
X119398029Y-90528755D01*
X119466277Y-90492097D01*
X119471758Y-90490058D01*
X119502458Y-90476230D01*
X119514921Y-90466183D01*
X119512240Y-90462239D01*
X119491044Y-90446009D01*
X119455661Y-90424172D01*
X119434054Y-90410627D01*
X119367873Y-90348881D01*
X119322725Y-90272320D01*
X119298406Y-90185923D01*
X119297007Y-90151365D01*
X119518216Y-90151365D01*
X119519282Y-90163868D01*
X119539055Y-90245995D01*
X119580752Y-90308773D01*
X119646017Y-90354825D01*
X119648564Y-90356071D01*
X119673553Y-90366035D01*
X119704483Y-90373506D01*
X119746169Y-90378952D01*
X119803421Y-90382844D01*
X119881054Y-90385653D01*
X119983879Y-90387849D01*
X120265184Y-90392769D01*
X120265184Y-89895334D01*
X119990809Y-89895334D01*
X119911105Y-89895472D01*
X119832628Y-89896319D01*
X119774966Y-89898391D01*
X119732977Y-89902194D01*
X119701517Y-89908240D01*
X119675443Y-89917035D01*
X119649612Y-89929090D01*
X119611597Y-89951158D01*
X119554562Y-90004234D01*
X119523924Y-90070143D01*
X119518216Y-90151365D01*
X119297007Y-90151365D01*
X119294712Y-90094666D01*
X119311439Y-90003525D01*
X119348381Y-89917477D01*
X119405334Y-89841500D01*
X119482095Y-89780571D01*
X119520394Y-89759777D01*
X119565838Y-89741013D01*
X119617827Y-89726499D01*
X119680265Y-89715740D01*
X119757059Y-89708237D01*
X119852114Y-89703493D01*
X119969337Y-89701012D01*
X120112633Y-89700295D01*
X120475226Y-89700295D01*
X120475226Y-90392769D01*
X120475226Y-90566584D01*
G37*
G36*
X106830743Y-89684423D02*
G01*
X106950022Y-89713538D01*
X107053580Y-89759887D01*
X107136172Y-89822158D01*
X107183608Y-89880550D01*
X107226203Y-89968144D01*
X107247509Y-90063610D01*
X107247664Y-90161009D01*
X107226808Y-90254403D01*
X107185076Y-90337854D01*
X107122609Y-90405425D01*
X107087217Y-90431407D01*
X107040722Y-90458987D01*
X106985766Y-90483854D01*
X106917087Y-90508050D01*
X106829425Y-90533617D01*
X106717517Y-90562595D01*
X106689763Y-90569580D01*
X106607718Y-90590939D01*
X106532935Y-90611384D01*
X106472720Y-90628883D01*
X106434375Y-90641401D01*
X106398833Y-90656901D01*
X106324519Y-90708626D01*
X106273519Y-90775197D01*
X106247498Y-90852568D01*
X106248122Y-90936695D01*
X106277057Y-91023530D01*
X106278641Y-91026605D01*
X106324837Y-91083925D01*
X106392662Y-91128416D01*
X106476607Y-91159500D01*
X106571164Y-91176598D01*
X106670824Y-91179135D01*
X106770079Y-91166531D01*
X106863419Y-91138210D01*
X106945337Y-91093594D01*
X106972412Y-91070721D01*
X107023848Y-91007431D01*
X107066505Y-90929208D01*
X107094332Y-90846104D01*
X107112369Y-90765505D01*
X107321815Y-90765505D01*
X107313356Y-90836932D01*
X107310009Y-90861360D01*
X107276256Y-90987836D01*
X107217461Y-91098323D01*
X107134599Y-91191672D01*
X107028649Y-91266734D01*
X106900588Y-91322360D01*
X106874914Y-91329517D01*
X106792718Y-91342731D01*
X106694248Y-91348760D01*
X106588644Y-91347860D01*
X106485043Y-91340285D01*
X106392583Y-91326292D01*
X106320404Y-91306136D01*
X106316573Y-91304611D01*
X106228085Y-91256748D01*
X106150013Y-91191505D01*
X106088860Y-91115425D01*
X106051126Y-91035053D01*
X106042553Y-91002647D01*
X106028189Y-90887930D01*
X106037770Y-90776910D01*
X106070318Y-90675493D01*
X106124854Y-90589590D01*
X106144785Y-90568142D01*
X106197624Y-90524732D01*
X106265110Y-90486117D01*
X106351068Y-90450604D01*
X106459320Y-90416502D01*
X106593689Y-90382117D01*
X106607564Y-90378831D01*
X106720997Y-90350626D01*
X106809393Y-90325472D01*
X106876881Y-90301727D01*
X106927588Y-90277752D01*
X106965642Y-90251905D01*
X106995170Y-90222546D01*
X107005570Y-90209338D01*
X107039556Y-90141287D01*
X107045641Y-90071330D01*
X107024914Y-90003581D01*
X106978466Y-89942154D01*
X106907387Y-89891164D01*
X106896303Y-89885450D01*
X106861626Y-89871394D01*
X106822098Y-89862980D01*
X106769350Y-89858896D01*
X106695013Y-89857826D01*
X106671579Y-89857899D01*
X106603907Y-89859705D01*
X106555556Y-89864912D01*
X106518210Y-89874813D01*
X106483551Y-89890699D01*
X106412813Y-89940156D01*
X106346749Y-90018329D01*
X106304271Y-90112943D01*
X106280303Y-90195393D01*
X106071819Y-90195393D01*
X106080930Y-90154135D01*
X106119874Y-90020118D01*
X106174085Y-89908922D01*
X106244883Y-89821283D01*
X106334141Y-89755412D01*
X106443732Y-89709520D01*
X106575530Y-89681818D01*
X106700986Y-89673854D01*
X106830743Y-89684423D01*
G37*
G36*
X126386389Y-88875133D02*
G01*
X124811079Y-88875133D01*
X124811079Y-85781373D01*
X124057181Y-85788510D01*
X123895577Y-85790162D01*
X123731163Y-85792289D01*
X123591134Y-85794843D01*
X123472454Y-85798057D01*
X123372087Y-85802166D01*
X123286999Y-85807404D01*
X123214155Y-85814004D01*
X123150518Y-85822200D01*
X123093054Y-85832228D01*
X123038727Y-85844320D01*
X122984503Y-85858712D01*
X122927345Y-85875636D01*
X122805647Y-85920236D01*
X122642438Y-86006147D01*
X122496153Y-86115738D01*
X122368747Y-86247201D01*
X122262172Y-86398731D01*
X122178382Y-86568518D01*
X122176309Y-86573690D01*
X122151299Y-86640306D01*
X122129812Y-86707483D01*
X122111256Y-86778899D01*
X122095042Y-86858232D01*
X122080578Y-86949160D01*
X122067274Y-87055359D01*
X122054540Y-87180508D01*
X122041784Y-87328283D01*
X122028417Y-87502363D01*
X122018831Y-87630538D01*
X122001627Y-87848463D01*
X121985148Y-88039249D01*
X121969109Y-88204749D01*
X121953223Y-88346818D01*
X121937207Y-88467310D01*
X121920773Y-88568078D01*
X121903638Y-88650976D01*
X121885515Y-88717859D01*
X121866120Y-88770579D01*
X121845166Y-88810991D01*
X121822369Y-88840949D01*
X121790255Y-88875133D01*
X120265184Y-88875133D01*
X120265184Y-88836034D01*
X120272570Y-88805088D01*
X120303189Y-88767040D01*
X120326029Y-88746039D01*
X120361938Y-88697836D01*
X120393942Y-88632865D01*
X120422361Y-88549474D01*
X120447515Y-88446014D01*
X120469725Y-88320832D01*
X120489311Y-88172278D01*
X120506594Y-87998702D01*
X120521894Y-87798451D01*
X120535531Y-87569876D01*
X120542983Y-87436218D01*
X120558320Y-87200206D01*
X120575304Y-86990095D01*
X120594351Y-86803196D01*
X120615877Y-86636819D01*
X120640297Y-86488274D01*
X120668027Y-86354870D01*
X120699483Y-86233917D01*
X120735079Y-86122726D01*
X120775233Y-86018606D01*
X120794051Y-85976055D01*
X120887458Y-85810028D01*
X121005546Y-85658427D01*
X121146041Y-85523222D01*
X121306667Y-85406384D01*
X121485149Y-85309884D01*
X121679213Y-85235693D01*
X121718283Y-85222442D01*
X121752363Y-85208112D01*
X121765480Y-85198564D01*
X121759055Y-85193378D01*
X121729596Y-85179836D01*
X121681705Y-85161374D01*
X121621419Y-85140426D01*
X121468404Y-85083882D01*
X121253660Y-84981430D01*
X121061756Y-84859524D01*
X120892724Y-84718203D01*
X120746595Y-84557502D01*
X120623400Y-84377457D01*
X120523171Y-84178104D01*
X120445938Y-83959479D01*
X120391733Y-83721618D01*
X120387789Y-83696941D01*
X120375124Y-83581919D01*
X120373376Y-83550755D01*
X121902643Y-83550755D01*
X121915302Y-83717140D01*
X121949120Y-83866129D01*
X122005519Y-84001603D01*
X122085920Y-84127443D01*
X122191742Y-84247529D01*
X122299082Y-84341309D01*
X122420931Y-84419561D01*
X122557218Y-84479794D01*
X122712243Y-84523892D01*
X122890307Y-84553742D01*
X122901116Y-84554841D01*
X122952163Y-84557914D01*
X123029844Y-84560702D01*
X123131641Y-84563165D01*
X123255037Y-84565267D01*
X123397515Y-84566967D01*
X123556556Y-84568230D01*
X123729644Y-84569015D01*
X123914259Y-84569285D01*
X124811079Y-84569285D01*
X124811079Y-82438866D01*
X123914653Y-82438980D01*
X123892802Y-82438984D01*
X123676198Y-82439237D01*
X123486894Y-82440032D01*
X123322420Y-82441598D01*
X123180304Y-82444166D01*
X123058076Y-82447964D01*
X122953263Y-82453221D01*
X122863396Y-82460168D01*
X122786001Y-82469032D01*
X122718609Y-82480045D01*
X122658747Y-82493434D01*
X122603945Y-82509429D01*
X122551732Y-82528261D01*
X122499635Y-82550157D01*
X122445185Y-82575347D01*
X122350043Y-82628482D01*
X122223842Y-82726761D01*
X122114253Y-82847234D01*
X122023979Y-82986770D01*
X121955725Y-83142238D01*
X121940776Y-83187344D01*
X121925050Y-83245174D01*
X121914708Y-83303492D01*
X121908147Y-83372135D01*
X121903762Y-83460941D01*
X121902643Y-83550755D01*
X120373376Y-83550755D01*
X120367681Y-83449212D01*
X120365475Y-83308263D01*
X120368521Y-83168518D01*
X120376836Y-83039419D01*
X120390434Y-82930410D01*
X120390734Y-82928648D01*
X120445968Y-82689114D01*
X120527025Y-82463801D01*
X120632873Y-82253552D01*
X120762477Y-82059215D01*
X120914806Y-81881634D01*
X121088826Y-81721655D01*
X121283505Y-81580122D01*
X121497810Y-81457882D01*
X121730708Y-81355779D01*
X121981166Y-81274659D01*
X122248151Y-81215368D01*
X122530630Y-81178750D01*
X122570629Y-81176616D01*
X122639210Y-81174594D01*
X122734671Y-81172707D01*
X122855444Y-81170967D01*
X122999962Y-81169386D01*
X123166656Y-81167975D01*
X123353961Y-81166747D01*
X123560308Y-81165712D01*
X123784131Y-81164882D01*
X124023861Y-81164270D01*
X124277932Y-81163886D01*
X124544777Y-81163743D01*
X126386389Y-81163615D01*
X126386389Y-82438866D01*
X126386389Y-88875133D01*
G37*
G36*
X109624416Y-84847829D02*
G01*
X109628242Y-86258097D01*
X108424179Y-86691695D01*
X108300121Y-86736387D01*
X108121417Y-86800824D01*
X107951341Y-86862220D01*
X107792072Y-86919785D01*
X107645789Y-86972728D01*
X107514670Y-87020259D01*
X107400895Y-87061589D01*
X107306641Y-87095927D01*
X107234088Y-87122484D01*
X107185415Y-87140468D01*
X107162798Y-87149092D01*
X107105481Y-87172889D01*
X108363035Y-87617650D01*
X109620589Y-88062410D01*
X109624610Y-88425471D01*
X109625277Y-88493574D01*
X109625743Y-88595741D01*
X109625140Y-88672400D01*
X109623347Y-88726446D01*
X109620242Y-88760773D01*
X109615702Y-88778275D01*
X109609607Y-88781845D01*
X109609543Y-88781823D01*
X109592632Y-88775857D01*
X109549177Y-88760521D01*
X109480891Y-88736420D01*
X109389486Y-88704158D01*
X109276674Y-88664340D01*
X109144167Y-88617569D01*
X108993676Y-88564449D01*
X108826914Y-88505586D01*
X108645592Y-88441584D01*
X108451423Y-88373045D01*
X108246118Y-88300576D01*
X108031390Y-88224780D01*
X107808950Y-88146262D01*
X106027316Y-87517365D01*
X106031100Y-87174772D01*
X106034883Y-86832178D01*
X107435535Y-86327105D01*
X108836186Y-85822032D01*
X107431784Y-85818204D01*
X106027381Y-85814376D01*
X106027381Y-85124394D01*
X106702514Y-85124394D01*
X107647700Y-85124394D01*
X107647700Y-83834140D01*
X108322833Y-83834140D01*
X108322833Y-85124394D01*
X108952957Y-85124394D01*
X108952957Y-84480367D01*
X108952960Y-84448631D01*
X108953081Y-84297242D01*
X108953454Y-84172753D01*
X108954177Y-84072549D01*
X108955348Y-83994015D01*
X108957066Y-83934537D01*
X108959427Y-83891501D01*
X108962531Y-83862292D01*
X108966475Y-83844297D01*
X108971356Y-83834901D01*
X108977274Y-83831490D01*
X108974239Y-83826248D01*
X108949837Y-83806230D01*
X108904339Y-83772814D01*
X108840101Y-83727632D01*
X108759483Y-83672315D01*
X108664840Y-83608493D01*
X108558532Y-83537797D01*
X108442914Y-83461859D01*
X107884237Y-83097078D01*
X107807227Y-83147453D01*
X107800657Y-83151751D01*
X107764124Y-83175664D01*
X107706651Y-83213292D01*
X107631413Y-83262555D01*
X107541589Y-83321373D01*
X107440355Y-83387665D01*
X107330888Y-83459351D01*
X107216366Y-83534351D01*
X106702514Y-83870874D01*
X106702514Y-85124394D01*
X106027381Y-85124394D01*
X106027381Y-83508276D01*
X106642503Y-83106315D01*
X106658129Y-83096100D01*
X106778970Y-83016913D01*
X106891508Y-82942822D01*
X106993336Y-82875436D01*
X107082046Y-82816364D01*
X107155230Y-82767214D01*
X107210482Y-82729595D01*
X107245394Y-82705116D01*
X107257557Y-82695384D01*
X107257350Y-82695018D01*
X107242129Y-82683294D01*
X107204484Y-82657002D01*
X107146821Y-82617753D01*
X107071545Y-82567156D01*
X106981063Y-82506824D01*
X106877780Y-82438366D01*
X106764103Y-82363394D01*
X106642436Y-82283519D01*
X106027381Y-81880623D01*
X106027381Y-81492113D01*
X106027634Y-81412071D01*
X106028824Y-81309543D01*
X106030885Y-81224237D01*
X106033705Y-81159348D01*
X106037171Y-81118072D01*
X106041169Y-81103603D01*
X106050999Y-81108833D01*
X106084254Y-81129167D01*
X106138930Y-81163612D01*
X106213001Y-81210862D01*
X106304440Y-81269609D01*
X106411221Y-81338549D01*
X106531315Y-81416373D01*
X106662696Y-81501777D01*
X106803337Y-81593453D01*
X106951210Y-81690096D01*
X107069603Y-81767522D01*
X107212227Y-81860667D01*
X107346134Y-81947976D01*
X107469277Y-82028123D01*
X107579609Y-82099780D01*
X107675083Y-82161620D01*
X107753652Y-82212315D01*
X107813269Y-82250539D01*
X107851887Y-82274963D01*
X107867460Y-82284262D01*
X107874177Y-82282018D01*
X107904084Y-82265811D01*
X107955671Y-82235190D01*
X108026852Y-82191471D01*
X108115545Y-82135969D01*
X108219666Y-82070000D01*
X108337130Y-81994881D01*
X108465854Y-81911926D01*
X108603754Y-81822452D01*
X108748747Y-81727775D01*
X108838893Y-81668760D01*
X108979341Y-81576948D01*
X109111142Y-81490949D01*
X109232242Y-81412096D01*
X109340587Y-81341720D01*
X109434121Y-81281154D01*
X109510790Y-81231728D01*
X109568540Y-81194775D01*
X109605316Y-81171627D01*
X109619064Y-81163615D01*
X109621375Y-81176802D01*
X109623553Y-81216216D01*
X109625404Y-81277967D01*
X109626837Y-81358138D01*
X109627762Y-81452810D01*
X109628090Y-81558068D01*
X109628090Y-81952522D01*
X109066082Y-82319468D01*
X108976422Y-82378194D01*
X108866415Y-82450784D01*
X108766576Y-82517267D01*
X108679408Y-82575943D01*
X108607417Y-82625114D01*
X108553104Y-82663079D01*
X108518974Y-82688140D01*
X108507531Y-82698596D01*
X108514292Y-82704508D01*
X108543543Y-82725632D01*
X108593564Y-82760183D01*
X108661800Y-82806442D01*
X108745696Y-82862688D01*
X108842696Y-82927205D01*
X108950246Y-82998272D01*
X109065789Y-83074170D01*
X109620589Y-83437562D01*
X109621658Y-83831490D01*
X109624416Y-84847829D01*
G37*
G36*
X126657185Y-92915309D02*
G01*
X126651296Y-92944585D01*
X126662045Y-92963245D01*
X126694129Y-92984060D01*
X126708563Y-92993866D01*
X126749957Y-93031709D01*
X126785923Y-93076224D01*
X126806807Y-93111510D01*
X126817703Y-93148685D01*
X126804684Y-93172350D01*
X126765956Y-93184838D01*
X126699728Y-93188482D01*
X126653398Y-93187264D01*
X126604081Y-93183144D01*
X126573008Y-93177117D01*
X126553972Y-93173701D01*
X126535731Y-93185644D01*
X126515939Y-93220579D01*
X126489794Y-93275404D01*
X126533931Y-93321961D01*
X126552544Y-93342849D01*
X126594267Y-93402809D01*
X126617772Y-93459178D01*
X126619870Y-93505160D01*
X126615493Y-93518498D01*
X126597657Y-93536447D01*
X126560876Y-93541051D01*
X126551442Y-93540842D01*
X126489563Y-93531664D01*
X126429463Y-93512069D01*
X126385233Y-93486439D01*
X126373478Y-93477885D01*
X126355205Y-93477812D01*
X126331203Y-93499816D01*
X126308295Y-93526744D01*
X126291529Y-93557745D01*
X126294910Y-93587338D01*
X126317197Y-93626793D01*
X126334862Y-93656709D01*
X126360012Y-93712285D01*
X126375309Y-93764273D01*
X126378866Y-93805309D01*
X126368793Y-93828028D01*
X126326646Y-93839732D01*
X126270509Y-93831730D01*
X126209395Y-93805170D01*
X126150676Y-93762274D01*
X126117504Y-93731956D01*
X126067149Y-93776168D01*
X126016795Y-93820379D01*
X126043923Y-93872654D01*
X126050662Y-93887180D01*
X126068936Y-93941175D01*
X126081037Y-93997778D01*
X126081081Y-93998102D01*
X126085245Y-94044963D01*
X126080226Y-94072444D01*
X126064274Y-94090187D01*
X126058612Y-94094003D01*
X126038076Y-94100321D01*
X126010202Y-94093984D01*
X125965889Y-94073444D01*
X125941203Y-94059647D01*
X125894915Y-94027481D01*
X125862578Y-93996877D01*
X125830905Y-93956611D01*
X125777840Y-93985128D01*
X125754280Y-93999111D01*
X125734040Y-94020077D01*
X125734131Y-94043650D01*
X125734436Y-94044639D01*
X125745271Y-94094471D01*
X125752292Y-94154199D01*
X125754457Y-94210792D01*
X125750724Y-94251223D01*
X125745417Y-94267435D01*
X125722199Y-94294091D01*
X125686448Y-94293574D01*
X125638028Y-94265903D01*
X125624357Y-94255316D01*
X125588791Y-94225045D01*
X125566197Y-94201858D01*
X125552647Y-94183913D01*
X125527503Y-94150523D01*
X125526801Y-94149593D01*
X125509889Y-94132843D01*
X125488660Y-94130795D01*
X125451557Y-94142181D01*
X125440050Y-94146413D01*
X125411062Y-94160905D01*
X125401946Y-94180934D01*
X125405733Y-94218041D01*
X125407903Y-94262972D01*
X125402217Y-94318058D01*
X125390264Y-94370859D01*
X125374179Y-94412134D01*
X125356101Y-94432643D01*
X125326696Y-94431228D01*
X125288535Y-94407641D01*
X125249384Y-94365839D01*
X125214888Y-94310697D01*
X125200533Y-94282188D01*
X125183629Y-94248670D01*
X125175912Y-94233448D01*
X125173907Y-94232549D01*
X125151884Y-94233082D01*
X125114147Y-94238180D01*
X125113278Y-94238327D01*
X125079608Y-94245359D01*
X125061400Y-94257307D01*
X125052501Y-94282484D01*
X125046756Y-94329204D01*
X125034719Y-94393817D01*
X125013670Y-94449413D01*
X124987033Y-94487263D01*
X124957968Y-94501240D01*
X124938384Y-94493680D01*
X124907527Y-94465068D01*
X124876094Y-94422669D01*
X124849857Y-94374550D01*
X124834587Y-94328779D01*
X124831093Y-94311509D01*
X124821228Y-94287365D01*
X124800684Y-94277857D01*
X124759806Y-94276196D01*
X124735806Y-94276442D01*
X124706726Y-94281102D01*
X124693233Y-94297358D01*
X124685795Y-94332457D01*
X124680114Y-94357871D01*
X124658739Y-94411536D01*
X124629168Y-94457625D01*
X124596575Y-94488966D01*
X124566133Y-94498383D01*
X124537866Y-94482966D01*
X124509830Y-94443506D01*
X124488685Y-94387266D01*
X124477895Y-94321205D01*
X124475052Y-94294167D01*
X124461701Y-94257878D01*
X124432428Y-94239438D01*
X124380446Y-94232683D01*
X124364588Y-94234688D01*
X124341738Y-94252983D01*
X124318634Y-94294950D01*
X124307540Y-94317105D01*
X124274572Y-94366850D01*
X124237411Y-94407101D01*
X124201960Y-94432093D01*
X124174124Y-94436060D01*
X124167718Y-94432956D01*
X124141843Y-94400665D01*
X124126196Y-94340781D01*
X124120943Y-94253878D01*
X124120943Y-94158499D01*
X124066320Y-94140472D01*
X124033898Y-94131220D01*
X124011647Y-94131794D01*
X123998504Y-94146018D01*
X123970437Y-94188140D01*
X123926277Y-94236592D01*
X123878912Y-94274167D01*
X123834713Y-94296010D01*
X123800050Y-94297265D01*
X123787699Y-94287262D01*
X123772657Y-94252082D01*
X123765729Y-94201448D01*
X123767762Y-94144021D01*
X123779606Y-94088463D01*
X123801794Y-94021067D01*
X123698576Y-93957275D01*
X123643457Y-94010982D01*
X123632459Y-94021327D01*
X123581140Y-94061301D01*
X123531542Y-94088398D01*
X123490055Y-94099732D01*
X123463072Y-94092418D01*
X123455461Y-94080726D01*
X123446764Y-94039976D01*
X123447777Y-93985919D01*
X123457874Y-93928593D01*
X123476429Y-93878039D01*
X123507048Y-93818606D01*
X123459901Y-93778732D01*
X123412753Y-93738859D01*
X123347451Y-93784888D01*
X123302853Y-93810911D01*
X123248451Y-93830119D01*
X123200298Y-93834952D01*
X123164816Y-93824934D01*
X123148424Y-93799592D01*
X123147566Y-93790057D01*
X123155197Y-93733832D01*
X123179342Y-93671773D01*
X123197354Y-93644067D01*
X124864699Y-93644067D01*
X124871544Y-93643090D01*
X124903109Y-93638628D01*
X124947213Y-93632419D01*
X124974906Y-93626228D01*
X125046492Y-93592961D01*
X125121705Y-93536966D01*
X125196302Y-93462266D01*
X125266041Y-93372879D01*
X125326681Y-93272825D01*
X125338699Y-93248585D01*
X125368241Y-93178802D01*
X125396023Y-93100761D01*
X125419283Y-93023312D01*
X125435263Y-92955303D01*
X125441203Y-92905584D01*
X125440873Y-92897227D01*
X125435594Y-92888225D01*
X125419891Y-92897138D01*
X125388693Y-92925930D01*
X125374220Y-92941200D01*
X125346850Y-92979625D01*
X125336182Y-93010827D01*
X125332305Y-93040370D01*
X125315887Y-93097052D01*
X125300254Y-93137266D01*
X125289864Y-93163991D01*
X125257790Y-93232304D01*
X125223221Y-93293109D01*
X125203627Y-93321334D01*
X125146020Y-93391096D01*
X125074739Y-93465257D01*
X124997775Y-93535788D01*
X124923121Y-93594658D01*
X124891246Y-93618220D01*
X124868207Y-93637450D01*
X124864699Y-93644067D01*
X123197354Y-93644067D01*
X123215531Y-93616108D01*
X123252727Y-93571904D01*
X123211965Y-93520819D01*
X123171204Y-93469735D01*
X123122614Y-93498404D01*
X123094102Y-93512498D01*
X123038875Y-93529733D01*
X122983261Y-93537572D01*
X122936507Y-93535035D01*
X122907859Y-93521144D01*
X122897957Y-93501838D01*
X122900696Y-93475405D01*
X122917375Y-93432567D01*
X122924292Y-93418181D01*
X122956330Y-93365870D01*
X122991656Y-93322903D01*
X123037069Y-93278500D01*
X123007954Y-93220994D01*
X122992491Y-93193448D01*
X122973335Y-93173904D01*
X122953524Y-93175229D01*
X122929993Y-93181411D01*
X122884674Y-93187944D01*
X122829707Y-93192599D01*
X122814177Y-93193402D01*
X122761751Y-93193617D01*
X122729878Y-93187564D01*
X122711173Y-93174090D01*
X122705094Y-93166062D01*
X122698933Y-93143482D01*
X122711357Y-93112176D01*
X122720751Y-93097016D01*
X122756330Y-93052984D01*
X122798365Y-93010457D01*
X123589566Y-93010457D01*
X123599640Y-93027223D01*
X123627432Y-93062959D01*
X123640184Y-93077989D01*
X123700555Y-93129088D01*
X123781803Y-93170836D01*
X123888320Y-93205634D01*
X123892175Y-93206605D01*
X123942246Y-93214536D01*
X124010961Y-93220244D01*
X124088630Y-93223476D01*
X124165565Y-93223980D01*
X124232077Y-93221503D01*
X124278474Y-93215793D01*
X124298650Y-93210874D01*
X124348854Y-93196378D01*
X124401510Y-93178947D01*
X124448802Y-93161403D01*
X124482910Y-93146568D01*
X124496017Y-93137266D01*
X124495250Y-93135132D01*
X124477102Y-93122893D01*
X124442387Y-93109543D01*
X124422504Y-93104262D01*
X124377920Y-93101798D01*
X124326114Y-93115239D01*
X124278240Y-93129305D01*
X124162391Y-93145883D01*
X124035736Y-93143811D01*
X123907065Y-93122929D01*
X123887528Y-93118082D01*
X123819542Y-93098920D01*
X123758360Y-93078556D01*
X123715266Y-93060652D01*
X123701767Y-93053876D01*
X123654389Y-93031431D01*
X123616450Y-93015228D01*
X123596184Y-93008202D01*
X123589566Y-93010457D01*
X122798365Y-93010457D01*
X122802471Y-93006303D01*
X122849336Y-92967304D01*
X122863812Y-92953444D01*
X122867810Y-92931682D01*
X122858528Y-92893664D01*
X122841572Y-92838893D01*
X122757365Y-92840805D01*
X122708254Y-92839241D01*
X122642823Y-92827536D01*
X122593923Y-92806496D01*
X122568079Y-92778278D01*
X122569073Y-92764858D01*
X122587069Y-92734564D01*
X122619214Y-92698212D01*
X122658927Y-92662186D01*
X122699630Y-92632866D01*
X122734741Y-92616635D01*
X122751413Y-92611293D01*
X122766530Y-92597566D01*
X122769085Y-92570662D01*
X122761301Y-92522726D01*
X122752061Y-92492084D01*
X122733848Y-92478634D01*
X122696330Y-92475842D01*
X122676877Y-92474277D01*
X122623938Y-92461708D01*
X122571248Y-92440662D01*
X122536299Y-92423560D01*
X122508027Y-92414148D01*
X122486727Y-92417207D01*
X122461541Y-92431867D01*
X122433630Y-92445477D01*
X122382621Y-92462645D01*
X122325199Y-92476387D01*
X122229077Y-92494524D01*
X122233575Y-92563405D01*
X122234951Y-92581859D01*
X122241061Y-92616126D01*
X122255156Y-92632954D01*
X122283081Y-92641571D01*
X122311908Y-92649300D01*
X122367046Y-92672186D01*
X122418990Y-92702388D01*
X122461515Y-92735444D01*
X122488393Y-92766893D01*
X122493399Y-92792274D01*
X122492593Y-92794181D01*
X122466784Y-92820964D01*
X122419072Y-92845778D01*
X122356988Y-92865513D01*
X122288066Y-92877057D01*
X122270366Y-92878822D01*
X122227445Y-92886009D01*
X122204688Y-92897547D01*
X122194503Y-92916650D01*
X122190197Y-92935008D01*
X122185435Y-92983535D01*
X122191887Y-93017903D01*
X122208664Y-93030951D01*
X122242615Y-93039704D01*
X122290681Y-93063056D01*
X122343570Y-93095977D01*
X122392269Y-93133438D01*
X122398526Y-93139032D01*
X122428341Y-93174250D01*
X122431707Y-93201733D01*
X122410125Y-93227157D01*
X122363211Y-93250162D01*
X122298196Y-93265452D01*
X122221237Y-93270998D01*
X122175266Y-93272289D01*
X122137530Y-93278339D01*
X122125385Y-93289752D01*
X122125341Y-93291493D01*
X122122454Y-93320486D01*
X122116492Y-93361249D01*
X122115698Y-93366124D01*
X122113466Y-93399603D01*
X122125848Y-93417944D01*
X122159953Y-93432865D01*
X122177699Y-93440653D01*
X122221131Y-93466859D01*
X122267191Y-93501478D01*
X122308824Y-93538489D01*
X122338976Y-93571871D01*
X122350595Y-93595602D01*
X122347149Y-93607780D01*
X122320760Y-93629977D01*
X122273323Y-93647003D01*
X122210787Y-93657089D01*
X122139099Y-93658467D01*
X122037131Y-93653573D01*
X122026638Y-93695342D01*
X122020654Y-93719161D01*
X122016005Y-93738613D01*
X122009251Y-93773138D01*
X122008602Y-93788517D01*
X122009113Y-93788900D01*
X122026312Y-93798641D01*
X122058037Y-93815192D01*
X122075023Y-93825373D01*
X122113154Y-93854396D01*
X122154476Y-93891198D01*
X122192264Y-93929237D01*
X122219794Y-93961968D01*
X122230341Y-93982848D01*
X122229715Y-93991107D01*
X122215189Y-94018728D01*
X122178664Y-94036537D01*
X122116402Y-94046624D01*
X122079208Y-94048542D01*
X122020052Y-94046757D01*
X121974299Y-94039799D01*
X121920567Y-94024961D01*
X121895382Y-94092915D01*
X121887093Y-94116054D01*
X121876534Y-94149263D01*
X121874099Y-94163417D01*
X121877656Y-94165615D01*
X121900220Y-94179295D01*
X121935697Y-94200686D01*
X121956487Y-94214897D01*
X122001009Y-94254960D01*
X122040860Y-94301822D01*
X122069537Y-94347293D01*
X122080542Y-94383182D01*
X122073211Y-94402662D01*
X122042487Y-94420202D01*
X122018396Y-94423428D01*
X121966308Y-94424030D01*
X121904893Y-94420467D01*
X121846126Y-94413544D01*
X121801980Y-94404062D01*
X121781292Y-94402204D01*
X121763482Y-94417004D01*
X121743630Y-94454780D01*
X121716292Y-94515404D01*
X121789645Y-94581746D01*
X121812643Y-94603481D01*
X121861860Y-94658285D01*
X121894917Y-94708163D01*
X121909246Y-94748694D01*
X121902276Y-94775459D01*
X121900811Y-94776774D01*
X121870651Y-94787622D01*
X121821720Y-94791729D01*
X121763545Y-94789426D01*
X121705652Y-94781046D01*
X121657567Y-94766922D01*
X121602166Y-94743537D01*
X121530318Y-94865197D01*
X121591917Y-94921977D01*
X121616460Y-94946553D01*
X121657687Y-94997162D01*
X121689955Y-95048408D01*
X121709053Y-95093132D01*
X121710774Y-95124174D01*
X121690901Y-95139541D01*
X121649914Y-95146249D01*
X121595768Y-95144061D01*
X121536212Y-95133307D01*
X121478997Y-95114317D01*
X121448855Y-95101995D01*
X121415042Y-95090241D01*
X121400094Y-95088062D01*
X121398561Y-95090166D01*
X121384442Y-95110280D01*
X121361954Y-95142711D01*
X121328217Y-95191564D01*
X121380966Y-95253190D01*
X121396698Y-95272546D01*
X121402548Y-95279743D01*
X121444123Y-95340725D01*
X121472190Y-95396766D01*
X121484293Y-95442330D01*
X121477976Y-95471880D01*
X121472807Y-95476818D01*
X121437218Y-95488382D01*
X121384450Y-95485748D01*
X121321449Y-95469861D01*
X121255162Y-95441661D01*
X121181345Y-95403363D01*
X121136393Y-95460119D01*
X121091441Y-95516876D01*
X121134814Y-95558430D01*
X121154657Y-95580432D01*
X121188853Y-95632267D01*
X121216213Y-95690331D01*
X121232536Y-95744929D01*
X121233620Y-95786366D01*
X121233355Y-95787412D01*
X121224087Y-95810110D01*
X121205866Y-95817057D01*
X121168676Y-95812242D01*
X121106963Y-95796750D01*
X121030908Y-95765708D01*
X120974133Y-95727485D01*
X120973048Y-95726488D01*
X120948819Y-95707117D01*
X120936626Y-95702743D01*
X120934245Y-95705926D01*
X120916967Y-95726195D01*
X120889574Y-95756953D01*
X120846333Y-95804778D01*
X120893518Y-95876014D01*
X120918629Y-95918259D01*
X120948210Y-95983675D01*
X120965337Y-96043562D01*
X120966911Y-96088932D01*
X120966769Y-96089579D01*
X120949318Y-96107266D01*
X120913110Y-96110537D01*
X120864453Y-96101180D01*
X120809658Y-96080984D01*
X120755033Y-96051737D01*
X120706888Y-96015228D01*
X120692473Y-96002599D01*
X120676297Y-95996329D01*
X120657776Y-96006807D01*
X120627716Y-96036504D01*
X120579433Y-96086319D01*
X120616483Y-96152699D01*
X120633730Y-96186517D01*
X120658740Y-96250229D01*
X120673657Y-96309614D01*
X120676912Y-96357412D01*
X120666937Y-96386366D01*
X120636337Y-96397145D01*
X120588889Y-96387873D01*
X120528979Y-96359749D01*
X120460747Y-96314220D01*
X120384089Y-96256199D01*
X120283957Y-96336097D01*
X120322169Y-96409750D01*
X120326495Y-96418393D01*
X120349100Y-96476328D01*
X120363565Y-96535934D01*
X120369053Y-96589864D01*
X120364724Y-96630770D01*
X120349740Y-96651306D01*
X120316480Y-96652134D01*
X120266938Y-96634545D01*
X120209817Y-96600800D01*
X120151635Y-96554096D01*
X120085120Y-96492785D01*
X120032727Y-96528466D01*
X120010453Y-96544418D01*
X119985947Y-96569769D01*
X119984369Y-96594703D01*
X120003153Y-96627850D01*
X120011489Y-96643552D01*
X120024953Y-96688661D01*
X120034016Y-96744651D01*
X120037779Y-96801571D01*
X120035341Y-96849473D01*
X120025804Y-96878404D01*
X120024819Y-96879577D01*
X120009499Y-96891427D01*
X119988464Y-96889341D01*
X119951730Y-96872527D01*
X119924138Y-96855371D01*
X119877126Y-96818125D01*
X119832725Y-96775300D01*
X119823785Y-96765622D01*
X119791679Y-96732649D01*
X119770237Y-96717783D01*
X119751718Y-96717551D01*
X119728379Y-96728477D01*
X119708971Y-96739028D01*
X119672762Y-96760672D01*
X119657377Y-96777815D01*
X119658778Y-96797656D01*
X119672929Y-96827398D01*
X119679742Y-96843356D01*
X119692129Y-96892486D01*
X119699250Y-96950561D01*
X119700669Y-97008052D01*
X119695950Y-97055428D01*
X119684654Y-97083160D01*
X119679871Y-97087353D01*
X119657553Y-97093205D01*
X119621269Y-97082250D01*
X119590931Y-97064046D01*
X119548690Y-97029430D01*
X119505964Y-96987758D01*
X119471054Y-96947197D01*
X119452257Y-96915914D01*
X119452036Y-96915268D01*
X119442688Y-96904749D01*
X119421621Y-96907237D01*
X119381578Y-96923510D01*
X119379465Y-96924466D01*
X119341556Y-96944357D01*
X119326319Y-96961821D01*
X119328053Y-96983222D01*
X119333668Y-97009368D01*
X119340270Y-97057209D01*
X119345670Y-97113536D01*
X119347464Y-97160105D01*
X119341723Y-97223113D01*
X119325535Y-97262915D01*
X119299666Y-97276787D01*
X119297137Y-97276604D01*
X119268313Y-97263156D01*
X119229558Y-97233143D01*
X119187947Y-97193270D01*
X119150553Y-97150240D01*
X119124450Y-97110754D01*
X119094969Y-97052966D01*
X119031199Y-97080690D01*
X119015098Y-97088290D01*
X118982232Y-97110153D01*
X118972698Y-97128837D01*
X118975295Y-97142979D01*
X118980379Y-97181992D01*
X118985528Y-97231778D01*
X118987404Y-97301122D01*
X118979542Y-97362444D01*
X118962816Y-97405388D01*
X118938562Y-97424463D01*
X118911677Y-97417709D01*
X118874176Y-97391193D01*
X118833253Y-97350755D01*
X118795022Y-97302478D01*
X118765600Y-97252444D01*
X118735488Y-97188384D01*
X118607358Y-97231972D01*
X118612530Y-97332577D01*
X118613380Y-97355583D01*
X118610593Y-97432901D01*
X118599250Y-97493375D01*
X118580481Y-97532767D01*
X118555414Y-97546840D01*
X118529863Y-97536514D01*
X118494248Y-97505828D01*
X118456293Y-97461583D01*
X118421854Y-97410676D01*
X118396787Y-97360005D01*
X118372997Y-97297711D01*
X118306391Y-97313164D01*
X118239785Y-97328618D01*
X118239785Y-97428395D01*
X118239782Y-97430359D01*
X118234505Y-97505141D01*
X118220544Y-97569588D01*
X118199895Y-97617182D01*
X118174554Y-97641407D01*
X118167940Y-97642273D01*
X118141283Y-97629229D01*
X118108626Y-97597735D01*
X118074807Y-97554468D01*
X118044661Y-97506105D01*
X118023027Y-97459323D01*
X118014741Y-97420798D01*
X118005838Y-97395229D01*
X117976781Y-97385128D01*
X117924173Y-97389402D01*
X117900165Y-97393784D01*
X117875457Y-97403513D01*
X117866145Y-97424100D01*
X117864712Y-97465118D01*
X117863734Y-97488442D01*
X117854303Y-97550126D01*
X117837353Y-97611331D01*
X117815967Y-97662230D01*
X117793227Y-97692998D01*
X117788120Y-97696733D01*
X117766164Y-97702510D01*
X117740364Y-97685497D01*
X117738461Y-97683722D01*
X117708721Y-97645610D01*
X117677334Y-97590668D01*
X117650102Y-97530216D01*
X117632822Y-97475576D01*
X117630103Y-97464365D01*
X117615247Y-97435094D01*
X117589716Y-97427021D01*
X117560689Y-97428140D01*
X117518972Y-97438230D01*
X117496352Y-97463222D01*
X117486029Y-97508456D01*
X117479822Y-97541375D01*
X117462434Y-97600204D01*
X117439513Y-97658366D01*
X117414101Y-97708050D01*
X117393123Y-97733916D01*
X117373682Y-97739083D01*
X117373631Y-97739073D01*
X117352307Y-97722645D01*
X117325978Y-97685562D01*
X117298598Y-97635777D01*
X117274123Y-97581245D01*
X117256507Y-97529920D01*
X117249707Y-97489757D01*
X117249591Y-97440175D01*
X117178327Y-97444748D01*
X117143541Y-97447497D01*
X117117178Y-97454865D01*
X117105279Y-97473080D01*
X117099012Y-97509332D01*
X117095762Y-97527621D01*
X117078866Y-97584880D01*
X117053996Y-97644581D01*
X117025948Y-97696140D01*
X116999517Y-97728971D01*
X116984480Y-97737936D01*
X116966532Y-97732570D01*
X116941536Y-97705289D01*
X116912189Y-97655658D01*
X116885968Y-97579942D01*
X116871135Y-97494329D01*
X116869858Y-97484545D01*
X116855405Y-97452798D01*
X116822462Y-97435157D01*
X116765745Y-97428312D01*
X116754359Y-97428242D01*
X116730495Y-97435804D01*
X116724341Y-97460573D01*
X116721116Y-97481195D01*
X116705433Y-97527802D01*
X116680855Y-97582988D01*
X116652028Y-97636691D01*
X116623595Y-97678847D01*
X116600177Y-97699930D01*
X116571256Y-97703945D01*
X116564294Y-97700060D01*
X116540107Y-97669831D01*
X116517579Y-97618953D01*
X116499426Y-97554628D01*
X116488362Y-97484059D01*
X116480451Y-97398774D01*
X116421422Y-97388801D01*
X116408677Y-97386785D01*
X116374250Y-97383010D01*
X116358566Y-97384068D01*
X116355132Y-97391422D01*
X116343515Y-97420457D01*
X116327450Y-97462877D01*
X116325743Y-97467363D01*
X116300247Y-97519603D01*
X116267376Y-97569272D01*
X116232280Y-97610281D01*
X116200110Y-97636538D01*
X116176017Y-97641952D01*
X116158672Y-97623431D01*
X116140437Y-97582065D01*
X116124658Y-97526205D01*
X116113560Y-97463826D01*
X116109366Y-97402907D01*
X116109366Y-97324433D01*
X116048343Y-97314123D01*
X116033818Y-97311837D01*
X115999089Y-97308045D01*
X115983258Y-97309054D01*
X115979033Y-97316682D01*
X115964797Y-97345239D01*
X115944922Y-97386593D01*
X115923146Y-97428920D01*
X115881224Y-97492345D01*
X115840055Y-97532695D01*
X115802422Y-97546840D01*
X115781082Y-97542326D01*
X115764273Y-97522355D01*
X115749412Y-97479743D01*
X115742995Y-97448937D01*
X115736785Y-97385733D01*
X115737135Y-97322659D01*
X115743644Y-97232673D01*
X115680575Y-97211183D01*
X115617507Y-97189694D01*
X115590683Y-97249178D01*
X115564263Y-97294759D01*
X115527218Y-97342379D01*
X115486311Y-97384775D01*
X115448081Y-97415177D01*
X115419070Y-97426816D01*
X115404410Y-97423932D01*
X115384535Y-97406230D01*
X115378109Y-97385668D01*
X115367651Y-97321160D01*
X115365292Y-97248209D01*
X115371863Y-97181541D01*
X115385902Y-97108800D01*
X115323833Y-97081010D01*
X115261763Y-97053221D01*
X115240799Y-97093740D01*
X115236665Y-97101487D01*
X115199915Y-97157110D01*
X115155976Y-97206922D01*
X115110516Y-97245950D01*
X115069208Y-97269223D01*
X115037721Y-97271770D01*
X115035621Y-97270770D01*
X115019688Y-97247181D01*
X115009372Y-97202932D01*
X115005305Y-97146063D01*
X115008120Y-97084619D01*
X115018449Y-97026640D01*
X115039163Y-96949027D01*
X114983110Y-96923751D01*
X114927058Y-96898475D01*
X114828743Y-96998744D01*
X114793267Y-97033948D01*
X114750621Y-97071448D01*
X114719624Y-97090486D01*
X114696005Y-97094131D01*
X114680996Y-97090555D01*
X114667793Y-97078368D01*
X114660844Y-97051063D01*
X114657028Y-97001197D01*
X114656543Y-96986410D01*
X114661187Y-96911019D01*
X114675738Y-96844873D01*
X114683329Y-96821827D01*
X114693089Y-96788423D01*
X114695294Y-96774286D01*
X114693557Y-96773136D01*
X114674711Y-96760263D01*
X114643007Y-96738429D01*
X114594427Y-96704887D01*
X114521120Y-96778193D01*
X114481556Y-96814830D01*
X114422017Y-96858333D01*
X114370718Y-96881269D01*
X114331786Y-96881388D01*
X114319969Y-96870408D01*
X114310273Y-96834607D01*
X114310685Y-96781903D01*
X114320939Y-96719083D01*
X114340766Y-96652934D01*
X114372521Y-96568062D01*
X114329514Y-96532887D01*
X114323396Y-96527985D01*
X114292588Y-96506273D01*
X114273020Y-96497173D01*
X114264846Y-96500503D01*
X114239409Y-96519982D01*
X114206555Y-96551182D01*
X114188664Y-96568179D01*
X114138083Y-96606126D01*
X114084605Y-96635474D01*
X114036426Y-96652180D01*
X114001743Y-96652200D01*
X113998432Y-96650797D01*
X113985755Y-96638450D01*
X113982338Y-96612803D01*
X113986800Y-96565859D01*
X113993905Y-96527498D01*
X114022213Y-96437617D01*
X114065242Y-96344222D01*
X114064539Y-96339698D01*
X114048388Y-96320255D01*
X114017626Y-96293970D01*
X113964699Y-96253601D01*
X113902561Y-96306789D01*
X113866950Y-96334069D01*
X113810548Y-96367177D01*
X113756528Y-96388806D01*
X113711806Y-96396412D01*
X113683299Y-96387451D01*
X113679337Y-96381574D01*
X113674923Y-96348144D01*
X113681553Y-96298776D01*
X113697150Y-96241643D01*
X113719639Y-96184920D01*
X113746944Y-96136782D01*
X113783849Y-96084492D01*
X113731722Y-96032366D01*
X113679596Y-95980240D01*
X113637984Y-96019181D01*
X113596907Y-96052265D01*
X113539008Y-96086099D01*
X113481946Y-96107861D01*
X113432946Y-96114962D01*
X113399231Y-96104812D01*
X113385859Y-96083367D01*
X113387512Y-96040403D01*
X113392408Y-96021839D01*
X113411884Y-95969657D01*
X113438122Y-95914609D01*
X113465831Y-95867181D01*
X113489719Y-95837857D01*
X113495677Y-95832419D01*
X113502251Y-95817707D01*
X113493356Y-95796514D01*
X113466634Y-95760980D01*
X113420336Y-95703368D01*
X113361568Y-95742259D01*
X113318853Y-95766450D01*
X113260897Y-95790480D01*
X113204437Y-95806285D01*
X113157676Y-95811672D01*
X113128815Y-95804451D01*
X113119164Y-95794335D01*
X113108787Y-95770904D01*
X113111697Y-95755828D01*
X113126806Y-95716435D01*
X113150617Y-95666591D01*
X113178374Y-95615397D01*
X113205317Y-95571955D01*
X113226689Y-95545367D01*
X113258813Y-95516783D01*
X113218726Y-95462851D01*
X113207100Y-95447179D01*
X113186045Y-95418592D01*
X113176917Y-95405872D01*
X113164413Y-95410237D01*
X113132175Y-95425071D01*
X113087361Y-95447130D01*
X113083982Y-95448818D01*
X113016045Y-95476109D01*
X112953629Y-95489698D01*
X112903346Y-95488802D01*
X112871805Y-95472638D01*
X112868618Y-95465865D01*
X112871081Y-95434066D01*
X112887194Y-95388852D01*
X112913343Y-95337668D01*
X112945912Y-95287959D01*
X112951591Y-95281411D01*
X115446667Y-95281411D01*
X115462112Y-95358981D01*
X115495209Y-95428152D01*
X115543873Y-95479721D01*
X115604798Y-95508426D01*
X115677027Y-95520063D01*
X115748514Y-95513725D01*
X115807928Y-95489012D01*
X115812891Y-95485564D01*
X115873978Y-95431444D01*
X115910088Y-95369590D01*
X115925935Y-95292136D01*
X116937925Y-95292136D01*
X116937953Y-95292480D01*
X116954354Y-95371086D01*
X116991653Y-95433609D01*
X117054400Y-95487684D01*
X117077105Y-95499940D01*
X117138504Y-95517122D01*
X117205968Y-95521222D01*
X117264594Y-95510616D01*
X117315063Y-95483705D01*
X117370173Y-95427309D01*
X117405101Y-95353103D01*
X117413219Y-95293127D01*
X118425174Y-95293127D01*
X118442188Y-95369678D01*
X118481789Y-95437900D01*
X118543458Y-95491516D01*
X118583430Y-95509549D01*
X118656845Y-95521849D01*
X118731955Y-95514456D01*
X118796427Y-95487563D01*
X118832099Y-95455991D01*
X118873692Y-95398339D01*
X118903507Y-95333182D01*
X118914918Y-95272546D01*
X118914766Y-95264280D01*
X118898453Y-95185537D01*
X118858895Y-95114802D01*
X118801308Y-95059080D01*
X118730910Y-95025380D01*
X118658989Y-95016783D01*
X118580878Y-95034405D01*
X118509516Y-95080930D01*
X118460982Y-95140137D01*
X118431266Y-95214522D01*
X118427292Y-95265794D01*
X118425174Y-95293127D01*
X117413219Y-95293127D01*
X117416918Y-95265794D01*
X117409627Y-95200713D01*
X117378168Y-95124435D01*
X117323349Y-95065894D01*
X117246774Y-95027336D01*
X117235198Y-95023931D01*
X117155985Y-95016339D01*
X117082949Y-95034543D01*
X117020357Y-95074883D01*
X116972477Y-95133701D01*
X116943577Y-95207339D01*
X116938800Y-95279012D01*
X116937925Y-95292136D01*
X115925935Y-95292136D01*
X115926743Y-95279012D01*
X115917934Y-95197132D01*
X115887591Y-95128758D01*
X115840444Y-95075350D01*
X115781220Y-95038371D01*
X115714648Y-95019281D01*
X115645457Y-95019543D01*
X115578375Y-95040617D01*
X115518129Y-95083965D01*
X115469449Y-95151048D01*
X115450958Y-95204645D01*
X115446667Y-95281411D01*
X112951591Y-95281411D01*
X112981286Y-95247171D01*
X113030312Y-95200524D01*
X112992092Y-95142770D01*
X112978989Y-95124150D01*
X112952243Y-95097458D01*
X112930054Y-95095213D01*
X112923075Y-95098161D01*
X112846327Y-95125446D01*
X112775146Y-95142178D01*
X112714931Y-95147810D01*
X112671084Y-95141797D01*
X112649006Y-95123593D01*
X112646230Y-95102577D01*
X112659904Y-95055913D01*
X112694774Y-94999122D01*
X112748571Y-94936463D01*
X112818561Y-94864607D01*
X112789251Y-94806698D01*
X112781481Y-94791467D01*
X112764475Y-94759100D01*
X112755717Y-94743932D01*
X112755430Y-94743702D01*
X112739363Y-94747170D01*
X112708841Y-94760737D01*
X112687838Y-94770224D01*
X112627870Y-94787962D01*
X112565686Y-94795958D01*
X112508930Y-94794195D01*
X112465245Y-94782657D01*
X112442274Y-94761326D01*
X112442206Y-94741981D01*
X112459400Y-94703231D01*
X112492581Y-94656195D01*
X112537042Y-94606542D01*
X112588078Y-94559939D01*
X112640980Y-94522055D01*
X112640790Y-94517687D01*
X112631557Y-94493625D01*
X112613668Y-94456212D01*
X112611058Y-94451135D01*
X112589675Y-94415362D01*
X112571258Y-94401467D01*
X112548859Y-94403833D01*
X112520901Y-94409798D01*
X112471894Y-94416544D01*
X112414726Y-94422012D01*
X112366436Y-94424020D01*
X112310444Y-94418421D01*
X112278657Y-94401218D01*
X112268610Y-94371559D01*
X112268866Y-94369591D01*
X112281935Y-94346797D01*
X112310365Y-94311519D01*
X112348025Y-94270226D01*
X112388783Y-94229382D01*
X112426508Y-94195456D01*
X112455068Y-94174914D01*
X112468071Y-94167191D01*
X112476273Y-94154713D01*
X112472769Y-94132329D01*
X112457859Y-94091054D01*
X112447629Y-94065184D01*
X112433100Y-94038164D01*
X112417539Y-94030644D01*
X112394199Y-94036885D01*
X112354211Y-94045555D01*
X112294734Y-94049223D01*
X112232099Y-94046751D01*
X112180012Y-94038063D01*
X112142952Y-94022408D01*
X112126269Y-93997680D01*
X112136139Y-93963184D01*
X112172412Y-93916541D01*
X112195865Y-93893153D01*
X112245777Y-93851332D01*
X112292111Y-93820800D01*
X112353119Y-93788600D01*
X112335611Y-93728088D01*
X113952016Y-93728088D01*
X113970013Y-93803564D01*
X114008736Y-93872685D01*
X114063557Y-93927832D01*
X114129850Y-93961385D01*
X114142477Y-93964746D01*
X114222194Y-93971740D01*
X114294303Y-93950582D01*
X114362322Y-93900347D01*
X114402128Y-93851599D01*
X114433156Y-93779939D01*
X114440802Y-93705310D01*
X114436882Y-93684699D01*
X115447551Y-93684699D01*
X115448138Y-93705310D01*
X115450005Y-93770818D01*
X115468726Y-93831759D01*
X115513636Y-93893559D01*
X115584569Y-93942380D01*
X115591765Y-93946008D01*
X115647572Y-93968472D01*
X115695915Y-93973197D01*
X115750592Y-93961798D01*
X115758650Y-93959231D01*
X115834507Y-93919600D01*
X115889102Y-93860238D01*
X115920291Y-93784401D01*
X115924201Y-93722711D01*
X116936868Y-93722711D01*
X116949900Y-93806133D01*
X116986265Y-93876675D01*
X117043526Y-93928950D01*
X117044675Y-93929657D01*
X117123903Y-93963985D01*
X117201566Y-93968488D01*
X117278718Y-93943230D01*
X117338908Y-93903765D01*
X117388455Y-93844702D01*
X117413854Y-93770818D01*
X117415043Y-93763342D01*
X117415212Y-93722606D01*
X118425700Y-93722606D01*
X118439197Y-93797140D01*
X118472922Y-93865219D01*
X118526197Y-93921121D01*
X118598344Y-93959122D01*
X118602237Y-93960395D01*
X118643276Y-93971144D01*
X118673359Y-93974847D01*
X118737965Y-93961252D01*
X118807237Y-93922445D01*
X118863440Y-93864562D01*
X118901144Y-93793443D01*
X118914918Y-93714932D01*
X118908770Y-93673965D01*
X119919922Y-93673965D01*
X119920127Y-93714932D01*
X119920320Y-93753478D01*
X119941471Y-93828728D01*
X119982023Y-93892825D01*
X120040623Y-93938879D01*
X120098346Y-93961196D01*
X120177534Y-93968859D01*
X120250815Y-93951720D01*
X120313785Y-93912789D01*
X120362044Y-93855075D01*
X120391187Y-93781590D01*
X120396815Y-93695342D01*
X120396786Y-93694998D01*
X120380386Y-93616391D01*
X120343086Y-93553868D01*
X120280340Y-93499793D01*
X120232132Y-93476742D01*
X120159353Y-93466175D01*
X120084635Y-93476870D01*
X120016985Y-93507229D01*
X119965411Y-93555653D01*
X119941629Y-93597078D01*
X119919922Y-93673965D01*
X118908770Y-93673965D01*
X118908079Y-93669361D01*
X118881983Y-93604185D01*
X118842557Y-93543694D01*
X118796427Y-93499914D01*
X118757539Y-93480649D01*
X118684906Y-93466067D01*
X118609435Y-93471107D01*
X118543458Y-93495961D01*
X118513358Y-93517497D01*
X118462102Y-93577062D01*
X118433109Y-93647339D01*
X118430132Y-93677583D01*
X118425700Y-93722606D01*
X117415212Y-93722606D01*
X117415398Y-93677583D01*
X117392656Y-93599393D01*
X117349566Y-93534939D01*
X117288877Y-93490391D01*
X117208935Y-93466704D01*
X117130314Y-93469581D01*
X117059034Y-93496727D01*
X116999962Y-93545298D01*
X116957969Y-93612451D01*
X116937925Y-93695342D01*
X116936868Y-93722711D01*
X115924201Y-93722711D01*
X115925935Y-93695342D01*
X115906341Y-93613529D01*
X115864627Y-93546131D01*
X115805765Y-93497276D01*
X115734624Y-93469804D01*
X115656074Y-93466562D01*
X115574982Y-93490391D01*
X115569181Y-93493264D01*
X115509887Y-93539753D01*
X115468428Y-93605621D01*
X115447551Y-93684699D01*
X114436882Y-93684699D01*
X114427014Y-93632813D01*
X114393741Y-93567548D01*
X114342931Y-93514615D01*
X114276531Y-93479115D01*
X114196490Y-93466149D01*
X114183728Y-93466441D01*
X114101770Y-93483897D01*
X114033911Y-93526156D01*
X113983705Y-93590178D01*
X113954704Y-93672926D01*
X113952016Y-93728088D01*
X112335611Y-93728088D01*
X112333585Y-93721087D01*
X112314052Y-93653573D01*
X112220840Y-93658807D01*
X112205861Y-93659496D01*
X112127753Y-93657388D01*
X112066990Y-93645737D01*
X112027587Y-93625712D01*
X112013560Y-93598482D01*
X112018290Y-93580118D01*
X112043524Y-93542722D01*
X112084687Y-93501643D01*
X112135131Y-93463159D01*
X112188210Y-93433549D01*
X112215401Y-93421125D01*
X112238630Y-93405315D01*
X112243993Y-93384874D01*
X112237381Y-93349761D01*
X112235193Y-93340202D01*
X112227323Y-93303028D01*
X112223959Y-93282250D01*
X112214006Y-93277154D01*
X112181349Y-93272709D01*
X112133887Y-93270998D01*
X112097192Y-93269623D01*
X112030548Y-93259942D01*
X111975246Y-93242878D01*
X111937505Y-93220661D01*
X111923542Y-93195523D01*
X111934928Y-93168839D01*
X111966062Y-93133693D01*
X112009716Y-93096916D01*
X112058646Y-93064585D01*
X112105608Y-93042776D01*
X112118777Y-93038092D01*
X112150784Y-93023499D01*
X112163589Y-93012197D01*
X112163589Y-92885260D01*
X112068175Y-92876350D01*
X112055984Y-92875106D01*
X111978040Y-92861395D01*
X111917220Y-92840416D01*
X111877805Y-92814099D01*
X111864077Y-92784374D01*
X111864492Y-92779738D01*
X111882528Y-92746263D01*
X111922902Y-92710645D01*
X111979708Y-92677215D01*
X112047038Y-92650300D01*
X112126259Y-92625382D01*
X112120995Y-92559191D01*
X112118580Y-92532850D01*
X112111040Y-92504328D01*
X112092122Y-92490904D01*
X112053393Y-92483082D01*
X112034916Y-92479513D01*
X111982833Y-92464764D01*
X111928995Y-92444513D01*
X111881060Y-92422179D01*
X111846684Y-92401177D01*
X111833524Y-92384928D01*
X111824773Y-92377832D01*
X111796452Y-92391661D01*
X111779769Y-92400310D01*
X111733399Y-92416073D01*
X111680179Y-92427270D01*
X111637462Y-92434177D01*
X111611694Y-92443621D01*
X111600659Y-92460901D01*
X111596477Y-92492123D01*
X111595454Y-92506094D01*
X111597813Y-92534345D01*
X111614158Y-92550284D01*
X111652062Y-92563659D01*
X111657537Y-92565375D01*
X111710046Y-92588760D01*
X111756927Y-92620378D01*
X111790609Y-92654201D01*
X111803519Y-92684203D01*
X111789942Y-92707888D01*
X111752226Y-92727631D01*
X111696227Y-92740986D01*
X111627810Y-92745895D01*
X111551751Y-92745895D01*
X111545473Y-92799675D01*
X111543726Y-92817473D01*
X111546394Y-92844407D01*
X111563461Y-92862880D01*
X111601616Y-92882796D01*
X111611837Y-92887808D01*
X111664047Y-92920153D01*
X111705758Y-92956621D01*
X111731427Y-92991561D01*
X111735513Y-93019323D01*
X111732650Y-93024772D01*
X111702109Y-93044790D01*
X111643248Y-93056894D01*
X111556612Y-93060957D01*
X111516123Y-93061660D01*
X111488291Y-93067226D01*
X111473442Y-93082801D01*
X111462353Y-93113529D01*
X111461506Y-93116299D01*
X111453302Y-93150136D01*
X111458604Y-93166298D01*
X111480314Y-93174658D01*
X111498261Y-93182230D01*
X111534142Y-93207366D01*
X111572214Y-93242261D01*
X111605908Y-93279999D01*
X111622147Y-93304033D01*
X111628656Y-93313667D01*
X111633890Y-93336349D01*
X111633529Y-93337233D01*
X111610349Y-93356902D01*
X111566628Y-93368910D01*
X111510677Y-93372673D01*
X111450807Y-93367605D01*
X111395327Y-93353123D01*
X111394031Y-93352695D01*
X111372661Y-93361525D01*
X111349665Y-93397023D01*
X111324906Y-93448944D01*
X111375777Y-93478959D01*
X111390543Y-93489008D01*
X111432091Y-93527042D01*
X111468160Y-93571702D01*
X111487681Y-93601912D01*
X111499668Y-93626524D01*
X111497059Y-93641443D01*
X111481194Y-93655254D01*
X111462223Y-93665141D01*
X111407803Y-93673024D01*
X111338477Y-93664181D01*
X111260676Y-93639084D01*
X111254469Y-93637134D01*
X111232906Y-93643785D01*
X111210989Y-93675909D01*
X111198405Y-93702323D01*
X111196221Y-93723244D01*
X111209204Y-93745250D01*
X111240259Y-93778527D01*
X111267289Y-93807801D01*
X111310088Y-93864949D01*
X111328487Y-93909547D01*
X111322505Y-93940341D01*
X111292163Y-93956074D01*
X111237480Y-93955489D01*
X111227131Y-93953861D01*
X111172172Y-93940263D01*
X111125224Y-93921992D01*
X111117043Y-93917788D01*
X111087673Y-93905913D01*
X111067801Y-93911492D01*
X111043358Y-93937125D01*
X111009144Y-93976901D01*
X111058324Y-94041331D01*
X111096450Y-94095425D01*
X111127273Y-94152271D01*
X111137787Y-94193917D01*
X111127029Y-94217888D01*
X111106084Y-94224941D01*
X111058680Y-94223017D01*
X110999988Y-94207224D01*
X110938267Y-94179254D01*
X110875674Y-94144588D01*
X110836414Y-94185567D01*
X110834922Y-94187126D01*
X110811454Y-94214438D01*
X110807692Y-94231166D01*
X110821338Y-94246616D01*
X110835750Y-94260854D01*
X110864290Y-94302162D01*
X110887868Y-94351880D01*
X110903545Y-94401676D01*
X110908383Y-94443217D01*
X110899446Y-94468170D01*
X110872100Y-94474174D01*
X110826670Y-94464688D01*
X110770347Y-94441402D01*
X110709773Y-94406475D01*
X110652651Y-94368673D01*
X110613785Y-94407539D01*
X110603766Y-94417617D01*
X110585252Y-94440375D01*
X110585750Y-94459046D01*
X110603581Y-94486657D01*
X110611175Y-94498654D01*
X110633200Y-94544891D01*
X110650902Y-94596673D01*
X110652076Y-94601095D01*
X110661385Y-94644180D01*
X110660035Y-94669782D01*
X110647674Y-94687828D01*
X110646245Y-94689201D01*
X110628636Y-94699900D01*
X110605347Y-94697154D01*
X110566337Y-94679997D01*
X110556551Y-94674954D01*
X110507211Y-94644339D01*
X110466286Y-94611876D01*
X110453733Y-94600423D01*
X110425700Y-94584062D01*
X110398243Y-94589364D01*
X110361214Y-94616804D01*
X110351323Y-94626412D01*
X110344832Y-94642462D01*
X110349260Y-94668036D01*
X110364965Y-94712202D01*
X110367630Y-94719394D01*
X110385101Y-94780585D01*
X110392310Y-94835001D01*
X110388894Y-94875643D01*
X110374487Y-94895510D01*
X110354413Y-94895994D01*
X110312925Y-94880470D01*
X110262902Y-94849157D01*
X110211235Y-94805842D01*
X110183447Y-94779995D01*
X110159968Y-94764330D01*
X110139362Y-94764371D01*
X110111336Y-94777165D01*
X110065918Y-94800652D01*
X110087051Y-94870873D01*
X110094198Y-94896627D01*
X110106492Y-94968211D01*
X110103654Y-95022961D01*
X110085716Y-95056320D01*
X110069258Y-95064696D01*
X110046384Y-95059084D01*
X110010779Y-95034948D01*
X110003863Y-95029517D01*
X109958044Y-94988086D01*
X109918148Y-94944595D01*
X109903024Y-94925979D01*
X109881664Y-94905867D01*
X109861428Y-94903985D01*
X109830939Y-94916696D01*
X109806665Y-94929145D01*
X109792324Y-94944032D01*
X109790832Y-94968337D01*
X109798827Y-95012038D01*
X109801727Y-95028734D01*
X109805073Y-95086588D01*
X109799623Y-95140536D01*
X109786771Y-95181998D01*
X109767910Y-95202392D01*
X109764070Y-95202847D01*
X109738634Y-95192039D01*
X109703805Y-95165510D01*
X109666661Y-95129894D01*
X109634280Y-95091822D01*
X109613742Y-95057929D01*
X109612244Y-95054337D01*
X109598198Y-95028395D01*
X109579538Y-95022033D01*
X109544475Y-95030602D01*
X109536036Y-95033215D01*
X109511286Y-95043185D01*
X109498492Y-95058411D01*
X109493676Y-95087144D01*
X109492859Y-95137632D01*
X109491168Y-95201083D01*
X109484336Y-95254904D01*
X109471125Y-95287624D01*
X109450327Y-95303970D01*
X109431365Y-95301963D01*
X109399772Y-95280508D01*
X109365078Y-95243976D01*
X109333218Y-95198822D01*
X109310130Y-95151503D01*
X109302926Y-95132757D01*
X109287948Y-95109905D01*
X109264673Y-95105320D01*
X109223069Y-95114769D01*
X109219582Y-95115778D01*
X109197592Y-95127153D01*
X109187223Y-95149782D01*
X109183791Y-95192999D01*
X109183485Y-95201607D01*
X109175473Y-95269392D01*
X109159352Y-95323354D01*
X109137335Y-95358111D01*
X109111640Y-95368280D01*
X109097848Y-95362681D01*
X109067017Y-95335481D01*
X109034871Y-95293884D01*
X109007754Y-95246673D01*
X108992007Y-95202628D01*
X108991611Y-95200690D01*
X108982428Y-95174931D01*
X108962924Y-95163782D01*
X108923327Y-95161370D01*
X108862940Y-95161370D01*
X108862916Y-95225133D01*
X108862916Y-95225555D01*
X108855588Y-95285832D01*
X108836464Y-95340072D01*
X108809438Y-95380286D01*
X108778406Y-95398483D01*
X108759754Y-95397079D01*
X108738393Y-95379245D01*
X108714947Y-95338111D01*
X108707110Y-95321089D01*
X108686646Y-95268853D01*
X108673830Y-95224773D01*
X108673619Y-95223721D01*
X108664031Y-95192244D01*
X108645673Y-95179048D01*
X108607990Y-95176373D01*
X108593323Y-95176490D01*
X108564273Y-95180802D01*
X108550867Y-95197756D01*
X108543836Y-95235963D01*
X108541117Y-95251765D01*
X108524220Y-95305272D01*
X108499062Y-95353368D01*
X108470488Y-95388076D01*
X108443343Y-95401417D01*
X108438415Y-95400818D01*
X108413019Y-95381922D01*
X108388508Y-95341720D01*
X108368394Y-95287297D01*
X108356192Y-95225735D01*
X108353220Y-95201555D01*
X108345430Y-95173695D01*
X108328002Y-95163068D01*
X108292752Y-95161370D01*
X108257980Y-95163548D01*
X108237715Y-95175125D01*
X108228044Y-95202628D01*
X108216119Y-95238259D01*
X108192216Y-95284169D01*
X108162938Y-95327151D01*
X108133988Y-95358975D01*
X108111069Y-95371412D01*
X108099230Y-95367452D01*
X108076847Y-95341093D01*
X108057143Y-95296531D01*
X108043119Y-95241459D01*
X108037777Y-95183571D01*
X108037777Y-95182593D01*
X108035613Y-95140799D01*
X108027090Y-95121221D01*
X108008998Y-95116361D01*
X107992329Y-95115270D01*
X107957240Y-95107543D01*
X107954085Y-95106571D01*
X107933207Y-95114464D01*
X107912880Y-95149892D01*
X107893023Y-95187026D01*
X107863324Y-95230060D01*
X107830506Y-95270191D01*
X107800793Y-95299833D01*
X107780407Y-95311400D01*
X107767260Y-95304381D01*
X107749648Y-95274511D01*
X107735316Y-95228710D01*
X107726635Y-95175212D01*
X107725976Y-95122256D01*
X107728742Y-95080782D01*
X107725674Y-95054000D01*
X107712021Y-95040024D01*
X107683629Y-95029781D01*
X107660024Y-95023429D01*
X107638283Y-95024704D01*
X107619296Y-95041702D01*
X107594000Y-95079445D01*
X107580967Y-95098603D01*
X107544051Y-95143728D01*
X107508815Y-95176854D01*
X107481732Y-95195040D01*
X107460838Y-95200065D01*
X107443077Y-95188221D01*
X107441835Y-95186882D01*
X107428305Y-95155108D01*
X107421159Y-95104590D01*
X107421106Y-95045317D01*
X107428853Y-94987276D01*
X107432530Y-94958302D01*
X107422113Y-94937746D01*
X107389865Y-94919135D01*
X107340995Y-94895990D01*
X107298855Y-94954162D01*
X107258951Y-95000069D01*
X107214835Y-95036574D01*
X107173840Y-95058533D01*
X107143143Y-95061023D01*
X107138802Y-95058071D01*
X107127764Y-95032086D01*
X107122867Y-94988739D01*
X107124053Y-94937335D01*
X107131265Y-94887178D01*
X107144447Y-94847573D01*
X107149332Y-94837989D01*
X107157738Y-94813644D01*
X107148208Y-94797400D01*
X107116334Y-94778413D01*
X107066370Y-94751505D01*
X107011730Y-94806146D01*
X106994197Y-94822727D01*
X106949306Y-94859457D01*
X106909655Y-94885316D01*
X106908537Y-94885893D01*
X106876347Y-94900617D01*
X106858469Y-94900140D01*
X106843532Y-94884287D01*
X106835525Y-94867179D01*
X106831838Y-94819180D01*
X106842771Y-94758185D01*
X106867321Y-94692292D01*
X106894021Y-94635795D01*
X106850101Y-94604521D01*
X109097513Y-94604521D01*
X109176417Y-94590052D01*
X109251622Y-94563568D01*
X109320051Y-94521531D01*
X109392434Y-94458635D01*
X109537587Y-94298618D01*
X109661619Y-94119726D01*
X109761982Y-93926419D01*
X109836594Y-93722707D01*
X109883376Y-93512597D01*
X109887652Y-93481609D01*
X109897961Y-93304033D01*
X109887190Y-93116134D01*
X109856190Y-92926342D01*
X109805810Y-92743089D01*
X109771956Y-92642763D01*
X109706370Y-92765513D01*
X109640783Y-92888263D01*
X109677680Y-92978361D01*
X109678383Y-92980080D01*
X109730361Y-93137661D01*
X109756524Y-93296015D01*
X109757858Y-93413526D01*
X109758438Y-93464578D01*
X109758342Y-93466320D01*
X109746967Y-93593152D01*
X109726228Y-93703302D01*
X109693011Y-93809288D01*
X109644200Y-93923627D01*
X109598604Y-94011757D01*
X109507629Y-94156745D01*
X109400454Y-94299047D01*
X109284052Y-94429687D01*
X109165399Y-94539691D01*
X109160890Y-94543417D01*
X109124256Y-94574951D01*
X109101545Y-94596833D01*
X109097513Y-94604521D01*
X106850101Y-94604521D01*
X106805397Y-94572689D01*
X106765208Y-94610267D01*
X106744781Y-94627908D01*
X106689867Y-94664597D01*
X106636040Y-94687956D01*
X106592727Y-94693438D01*
X106575545Y-94688805D01*
X106564543Y-94672470D01*
X106565034Y-94636267D01*
X106568081Y-94617655D01*
X106583082Y-94566196D01*
X106604923Y-94513987D01*
X106639763Y-94444218D01*
X106598445Y-94404632D01*
X106596717Y-94402980D01*
X106569319Y-94379458D01*
X106552534Y-94375616D01*
X106537145Y-94389124D01*
X106535523Y-94391010D01*
X106498519Y-94420598D01*
X106444588Y-94449652D01*
X106385360Y-94471834D01*
X106352323Y-94476233D01*
X106325990Y-94461985D01*
X106324391Y-94459856D01*
X106317185Y-94426318D01*
X106326150Y-94378851D01*
X106348711Y-94325961D01*
X106382290Y-94276152D01*
X106421337Y-94229748D01*
X106385641Y-94189209D01*
X106380904Y-94183811D01*
X106357897Y-94156990D01*
X106346984Y-94143210D01*
X106346620Y-94142867D01*
X106332461Y-94148927D01*
X106305552Y-94168010D01*
X106304697Y-94168676D01*
X106266121Y-94190826D01*
X106216904Y-94209315D01*
X106166462Y-94221798D01*
X106124210Y-94225926D01*
X106099564Y-94219353D01*
X106097949Y-94217522D01*
X106092505Y-94188717D01*
X106104252Y-94145232D01*
X106130518Y-94093938D01*
X106168632Y-94041708D01*
X106218978Y-93982889D01*
X106186520Y-93942182D01*
X106154061Y-93901476D01*
X106075558Y-93931305D01*
X106022710Y-93948568D01*
X105962946Y-93959588D01*
X105919820Y-93956701D01*
X105898183Y-93939680D01*
X105897343Y-93937069D01*
X105900385Y-93902696D01*
X105920222Y-93857126D01*
X105950763Y-93811104D01*
X106753274Y-93811104D01*
X106758545Y-93818942D01*
X106779286Y-93843428D01*
X106810858Y-93878770D01*
X106828981Y-93897426D01*
X106869873Y-93930437D01*
X106919692Y-93957681D01*
X106983679Y-93981274D01*
X107067071Y-94003336D01*
X107175107Y-94025982D01*
X107205175Y-94031537D01*
X107426204Y-94056022D01*
X107643422Y-94051676D01*
X107854777Y-94019087D01*
X108058218Y-93958842D01*
X108251693Y-93871528D01*
X108433151Y-93757733D01*
X108600539Y-93618043D01*
X108606227Y-93612584D01*
X108656350Y-93562492D01*
X108703329Y-93512523D01*
X108737664Y-93472741D01*
X108784622Y-93413526D01*
X108645548Y-93421028D01*
X108506475Y-93428529D01*
X108446399Y-93503544D01*
X108396385Y-93562766D01*
X108271746Y-93684162D01*
X108134616Y-93781605D01*
X107980583Y-93857935D01*
X107805231Y-93915992D01*
X107677115Y-93939951D01*
X107525696Y-93949872D01*
X107361969Y-93945105D01*
X107192698Y-93926143D01*
X107024645Y-93893478D01*
X106864577Y-93847601D01*
X106854560Y-93844201D01*
X106804510Y-93827400D01*
X106768328Y-93815575D01*
X106753274Y-93811104D01*
X105950763Y-93811104D01*
X105952271Y-93808832D01*
X105991950Y-93766285D01*
X106014812Y-93745792D01*
X106032247Y-93724741D01*
X106032078Y-93706219D01*
X106017330Y-93679927D01*
X106015709Y-93677334D01*
X105998105Y-93648914D01*
X105990118Y-93635523D01*
X105982493Y-93636343D01*
X105953106Y-93643500D01*
X105909436Y-93655736D01*
X105895457Y-93659598D01*
X105829723Y-93670980D01*
X105776311Y-93669240D01*
X105740439Y-93655132D01*
X105727322Y-93629411D01*
X105727504Y-93627189D01*
X105740098Y-93600278D01*
X105768610Y-93561652D01*
X105807539Y-93518890D01*
X105834407Y-93491789D01*
X105863572Y-93459689D01*
X105876745Y-93437293D01*
X105877350Y-93417603D01*
X105868811Y-93393618D01*
X105862328Y-93378732D01*
X105848791Y-93359165D01*
X105827908Y-93355598D01*
X105788895Y-93364040D01*
X105758222Y-93369713D01*
X105702305Y-93372219D01*
X105649017Y-93366864D01*
X105607380Y-93354838D01*
X105586417Y-93337331D01*
X105585412Y-93333091D01*
X105594131Y-93304146D01*
X105621727Y-93266884D01*
X105662728Y-93227625D01*
X105711662Y-93192690D01*
X105723993Y-93185267D01*
X105755094Y-93166334D01*
X105770076Y-93156876D01*
X105770593Y-93156030D01*
X105768485Y-93137268D01*
X105758928Y-93103220D01*
X105757313Y-93098333D01*
X105746933Y-93072572D01*
X105732334Y-93059814D01*
X105704936Y-93056309D01*
X105656163Y-93058308D01*
X105596591Y-93058207D01*
X105539418Y-93049582D01*
X105501200Y-93033198D01*
X105487275Y-93010563D01*
X105487414Y-93008685D01*
X105501074Y-92983587D01*
X105531519Y-92950418D01*
X105570836Y-92916146D01*
X105611110Y-92887742D01*
X105644428Y-92872174D01*
X105646534Y-92871625D01*
X105673244Y-92856846D01*
X105681390Y-92828233D01*
X105672857Y-92779651D01*
X105670970Y-92773342D01*
X105659540Y-92755752D01*
X105635442Y-92747774D01*
X105590064Y-92745895D01*
X105574770Y-92745556D01*
X105514574Y-92737980D01*
X105462578Y-92722503D01*
X105426051Y-92701868D01*
X105412260Y-92678817D01*
X105412880Y-92675100D01*
X105430116Y-92651945D01*
X105465099Y-92623079D01*
X105509862Y-92593826D01*
X105556441Y-92569510D01*
X105596869Y-92555452D01*
X105625888Y-92544248D01*
X105630626Y-92525085D01*
X105625654Y-92504901D01*
X105622302Y-92467113D01*
X105619121Y-92444380D01*
X105603228Y-92433191D01*
X105566041Y-92430503D01*
X105552815Y-92429789D01*
X105499029Y-92419590D01*
X105446017Y-92401231D01*
X105420810Y-92388525D01*
X105387523Y-92361561D01*
X105383487Y-92334353D01*
X105408870Y-92305697D01*
X105463842Y-92274391D01*
X105501071Y-92258146D01*
X105546371Y-92242031D01*
X105576364Y-92235794D01*
X105596846Y-92230716D01*
X105607299Y-92205788D01*
X105608014Y-92197715D01*
X105612457Y-92190643D01*
X105623913Y-92185281D01*
X105645667Y-92181393D01*
X105681005Y-92178742D01*
X105733210Y-92177092D01*
X105805567Y-92176207D01*
X105901361Y-92175849D01*
X106023876Y-92175782D01*
X106440454Y-92175782D01*
X106489761Y-92258218D01*
X106515218Y-92295397D01*
X106559405Y-92351288D01*
X106613037Y-92413323D01*
X106669551Y-92473641D01*
X106803524Y-92595933D01*
X106976650Y-92719121D01*
X107162078Y-92816597D01*
X107356784Y-92886544D01*
X107433693Y-92907026D01*
X107507791Y-92924349D01*
X107566003Y-92935247D01*
X107604060Y-92938933D01*
X107617695Y-92934620D01*
X107615233Y-92928242D01*
X107599753Y-92902587D01*
X107574759Y-92866399D01*
X107563333Y-92850003D01*
X107533812Y-92802471D01*
X107513212Y-92762198D01*
X107512648Y-92760845D01*
X107495986Y-92732392D01*
X107470210Y-92716855D01*
X107424872Y-92707804D01*
X107392347Y-92703019D01*
X107202386Y-92658904D01*
X107028229Y-92589466D01*
X106870363Y-92494988D01*
X106729275Y-92375753D01*
X106605451Y-92232044D01*
X106563926Y-92175782D01*
X107151193Y-92175782D01*
X107166277Y-92230412D01*
X107174138Y-92253787D01*
X107213895Y-92316975D01*
X107271648Y-92359641D01*
X107342083Y-92378825D01*
X107419883Y-92371568D01*
X107469491Y-92351235D01*
X107522431Y-92303761D01*
X107553658Y-92235794D01*
X107567081Y-92183284D01*
X108012470Y-92179310D01*
X108457860Y-92175336D01*
X108460237Y-92224319D01*
X108461268Y-92266056D01*
X108460414Y-92299557D01*
X108461571Y-92310043D01*
X108471534Y-92318339D01*
X108495779Y-92323112D01*
X108539544Y-92325292D01*
X108608066Y-92325812D01*
X108757919Y-92325812D01*
X108757919Y-92175782D01*
X109654757Y-92175782D01*
X109664393Y-92227147D01*
X109679200Y-92266024D01*
X109718402Y-92316167D01*
X109771592Y-92356622D01*
X109829816Y-92379159D01*
X109839107Y-92380563D01*
X109900479Y-92375575D01*
X109960806Y-92350417D01*
X110012855Y-92310418D01*
X110049390Y-92260911D01*
X110063176Y-92207224D01*
X110063374Y-92200915D01*
X110066307Y-92191767D01*
X110075869Y-92185161D01*
X110095957Y-92180685D01*
X110130466Y-92177924D01*
X110183293Y-92176467D01*
X110258334Y-92175900D01*
X110359484Y-92175809D01*
X110655793Y-92175836D01*
X110695445Y-92239572D01*
X110782556Y-92400878D01*
X110862375Y-92602054D01*
X110924689Y-92826666D01*
X110958273Y-92974951D01*
X110984329Y-92882088D01*
X110986630Y-92873841D01*
X110998853Y-92824181D01*
X111002828Y-92784876D01*
X110998710Y-92742815D01*
X110986654Y-92684885D01*
X110984006Y-92673511D01*
X110954443Y-92566768D01*
X110916127Y-92453965D01*
X110873413Y-92347020D01*
X110830655Y-92257852D01*
X110786204Y-92175782D01*
X111197342Y-92175782D01*
X111301803Y-92175827D01*
X111400681Y-92176130D01*
X111475648Y-92176934D01*
X111530011Y-92178480D01*
X111567076Y-92181010D01*
X111590150Y-92184764D01*
X111602537Y-92189984D01*
X111607545Y-92196912D01*
X111608480Y-92205788D01*
X111614793Y-92227046D01*
X111642237Y-92235941D01*
X111651162Y-92236685D01*
X111689250Y-92246633D01*
X111736111Y-92264794D01*
X111782401Y-92286851D01*
X111818773Y-92308488D01*
X111835883Y-92325387D01*
X111848998Y-92331469D01*
X111878892Y-92313751D01*
X111892217Y-92304624D01*
X111937046Y-92281390D01*
X111991503Y-92259117D01*
X112043661Y-92242389D01*
X112081597Y-92235794D01*
X112094431Y-92230111D01*
X112103578Y-92205788D01*
X112103638Y-92203028D01*
X112104994Y-92197272D01*
X112109842Y-92192389D01*
X112120392Y-92188309D01*
X112138853Y-92184958D01*
X112167433Y-92182265D01*
X112208344Y-92180159D01*
X112263794Y-92178566D01*
X112335993Y-92177416D01*
X112427151Y-92176636D01*
X112539476Y-92176155D01*
X112675179Y-92175900D01*
X112836468Y-92175800D01*
X113025554Y-92175782D01*
X113947530Y-92175782D01*
X113961910Y-92227862D01*
X113983639Y-92283758D01*
X114029872Y-92346813D01*
X114089175Y-92389240D01*
X114156510Y-92411154D01*
X114226835Y-92412670D01*
X114295112Y-92393901D01*
X114356300Y-92354964D01*
X114405359Y-92295972D01*
X114437250Y-92217041D01*
X114447291Y-92175782D01*
X115445401Y-92175782D01*
X115455066Y-92232044D01*
X115473664Y-92287153D01*
X115517406Y-92345018D01*
X115577801Y-92387763D01*
X115648285Y-92412246D01*
X115722294Y-92415327D01*
X115793262Y-92393864D01*
X115799425Y-92390525D01*
X115854848Y-92346748D01*
X115898925Y-92288787D01*
X115922902Y-92227851D01*
X115932670Y-92175782D01*
X116993043Y-92175782D01*
X116997542Y-92262049D01*
X117002042Y-92348316D01*
X117347110Y-92348316D01*
X117351609Y-92262049D01*
X117356109Y-92175782D01*
X118418664Y-92175782D01*
X118434853Y-92235901D01*
X118440404Y-92254004D01*
X118477829Y-92323834D01*
X118531500Y-92373919D01*
X118596074Y-92404093D01*
X118666208Y-92414186D01*
X118736557Y-92404031D01*
X118801778Y-92373460D01*
X118856527Y-92322304D01*
X118895461Y-92250395D01*
X118921961Y-92175782D01*
X119916281Y-92175782D01*
X119925946Y-92232044D01*
X119936412Y-92270123D01*
X119974502Y-92332812D01*
X120031334Y-92379617D01*
X120100991Y-92407602D01*
X120177557Y-92413829D01*
X120255114Y-92395365D01*
X120267049Y-92389813D01*
X120323847Y-92347866D01*
X120369064Y-92290288D01*
X120393782Y-92227851D01*
X120403550Y-92175782D01*
X121324562Y-92175782D01*
X121477246Y-92175805D01*
X121644303Y-92175930D01*
X121785299Y-92176223D01*
X121902432Y-92176745D01*
X121997901Y-92177562D01*
X122073905Y-92178735D01*
X122132641Y-92180328D01*
X122176309Y-92182404D01*
X122207108Y-92185026D01*
X122227235Y-92188257D01*
X122238889Y-92192161D01*
X122244269Y-92196800D01*
X122245574Y-92202238D01*
X122250203Y-92216307D01*
X122274352Y-92232436D01*
X122323558Y-92247218D01*
X122348094Y-92254054D01*
X122408534Y-92277090D01*
X122458971Y-92303747D01*
X122516400Y-92341752D01*
X122565738Y-92304121D01*
X122570847Y-92300381D01*
X122621469Y-92272351D01*
X122674123Y-92254281D01*
X122694994Y-92249207D01*
X122726202Y-92233677D01*
X122737964Y-92208928D01*
X122742758Y-92175782D01*
X123571016Y-92175782D01*
X123674957Y-92288586D01*
X123704945Y-92320554D01*
X123748920Y-92365347D01*
X123784255Y-92398841D01*
X123805267Y-92415501D01*
X123809859Y-92417872D01*
X123823334Y-92420790D01*
X123826234Y-92406438D01*
X123820519Y-92368822D01*
X123817975Y-92357141D01*
X123793115Y-92301052D01*
X123744506Y-92241907D01*
X123679610Y-92175782D01*
X124586035Y-92175782D01*
X124588601Y-92232044D01*
X124588832Y-92237094D01*
X124590954Y-92283096D01*
X124592610Y-92318311D01*
X124593093Y-92323780D01*
X124597985Y-92335157D01*
X124612213Y-92342682D01*
X124640942Y-92347397D01*
X124689342Y-92350342D01*
X124762578Y-92352559D01*
X124931103Y-92356801D01*
X124931103Y-92175782D01*
X125844845Y-92175782D01*
X125894824Y-92262049D01*
X125919381Y-92305932D01*
X125955213Y-92379949D01*
X125982023Y-92454171D01*
X126003121Y-92538528D01*
X126021817Y-92642947D01*
X126047183Y-92803555D01*
X126075374Y-92740968D01*
X126090306Y-92690365D01*
X126093897Y-92604804D01*
X126078674Y-92504308D01*
X126045375Y-92393127D01*
X125994735Y-92275513D01*
X125973504Y-92231823D01*
X125957445Y-92197208D01*
X125951304Y-92181744D01*
X125951631Y-92181508D01*
X125970125Y-92179983D01*
X126014266Y-92178615D01*
X126080258Y-92177456D01*
X126164307Y-92176562D01*
X126262614Y-92175986D01*
X126371386Y-92175782D01*
X126791469Y-92175782D01*
X126791469Y-92211372D01*
X126794005Y-92230629D01*
X126809946Y-92246624D01*
X126847730Y-92256058D01*
X126863490Y-92259235D01*
X126919020Y-92279446D01*
X126968108Y-92309451D01*
X127003143Y-92343792D01*
X127016513Y-92377016D01*
X127010478Y-92400889D01*
X126987876Y-92421487D01*
X126942468Y-92443988D01*
X126916085Y-92454134D01*
X126860660Y-92469707D01*
X126814943Y-92475842D01*
X126785672Y-92477332D01*
X126766035Y-92486756D01*
X126761258Y-92509598D01*
X126759858Y-92532540D01*
X126752878Y-92573780D01*
X126750941Y-92586756D01*
X126761065Y-92605999D01*
X126794851Y-92622339D01*
X126803136Y-92625667D01*
X126845071Y-92650246D01*
X126887240Y-92684752D01*
X126923268Y-92722659D01*
X126946779Y-92757440D01*
X126951396Y-92782569D01*
X126945646Y-92792869D01*
X126910448Y-92818212D01*
X126850867Y-92834919D01*
X126770473Y-92841823D01*
X126759265Y-92842030D01*
X126714283Y-92844128D01*
X126689001Y-92851227D01*
X126674730Y-92867928D01*
X126662780Y-92898829D01*
X126660487Y-92905584D01*
X126657185Y-92915309D01*
G37*
%TD*%
M02*
