%TF.GenerationSoftware,KiCad,Pcbnew,(6.0.8)*%
%TF.CreationDate,2022-10-28T22:44:31-04:00*%
%TF.ProjectId,Vex_Debug,5665785f-4465-4627-9567-2e6b69636164,rev?*%
%TF.SameCoordinates,Original*%
%TF.FileFunction,Legend,Top*%
%TF.FilePolarity,Positive*%
%FSLAX46Y46*%
G04 Gerber Fmt 4.6, Leading zero omitted, Abs format (unit mm)*
G04 Created by KiCad (PCBNEW (6.0.8)) date 2022-10-28 22:44:31*
%MOMM*%
%LPD*%
G01*
G04 APERTURE LIST*
%ADD10C,0.150000*%
%ADD11C,0.120000*%
%ADD12C,0.127000*%
%ADD13C,0.200000*%
G04 APERTURE END LIST*
D10*
%TO.C,C5*%
X139733333Y-75177142D02*
X139685714Y-75224761D01*
X139542857Y-75272380D01*
X139447619Y-75272380D01*
X139304761Y-75224761D01*
X139209523Y-75129523D01*
X139161904Y-75034285D01*
X139114285Y-74843809D01*
X139114285Y-74700952D01*
X139161904Y-74510476D01*
X139209523Y-74415238D01*
X139304761Y-74320000D01*
X139447619Y-74272380D01*
X139542857Y-74272380D01*
X139685714Y-74320000D01*
X139733333Y-74367619D01*
X140638095Y-74272380D02*
X140161904Y-74272380D01*
X140114285Y-74748571D01*
X140161904Y-74700952D01*
X140257142Y-74653333D01*
X140495238Y-74653333D01*
X140590476Y-74700952D01*
X140638095Y-74748571D01*
X140685714Y-74843809D01*
X140685714Y-75081904D01*
X140638095Y-75177142D01*
X140590476Y-75224761D01*
X140495238Y-75272380D01*
X140257142Y-75272380D01*
X140161904Y-75224761D01*
X140114285Y-75177142D01*
%TO.C,D6*%
X134961904Y-75102380D02*
X134961904Y-74102380D01*
X135200000Y-74102380D01*
X135342857Y-74150000D01*
X135438095Y-74245238D01*
X135485714Y-74340476D01*
X135533333Y-74530952D01*
X135533333Y-74673809D01*
X135485714Y-74864285D01*
X135438095Y-74959523D01*
X135342857Y-75054761D01*
X135200000Y-75102380D01*
X134961904Y-75102380D01*
X136390476Y-74102380D02*
X136200000Y-74102380D01*
X136104761Y-74150000D01*
X136057142Y-74197619D01*
X135961904Y-74340476D01*
X135914285Y-74530952D01*
X135914285Y-74911904D01*
X135961904Y-75007142D01*
X136009523Y-75054761D01*
X136104761Y-75102380D01*
X136295238Y-75102380D01*
X136390476Y-75054761D01*
X136438095Y-75007142D01*
X136485714Y-74911904D01*
X136485714Y-74673809D01*
X136438095Y-74578571D01*
X136390476Y-74530952D01*
X136295238Y-74483333D01*
X136104761Y-74483333D01*
X136009523Y-74530952D01*
X135961904Y-74578571D01*
X135914285Y-74673809D01*
%TO.C,R4*%
X143352380Y-78766666D02*
X142876190Y-79100000D01*
X143352380Y-79338095D02*
X142352380Y-79338095D01*
X142352380Y-78957142D01*
X142400000Y-78861904D01*
X142447619Y-78814285D01*
X142542857Y-78766666D01*
X142685714Y-78766666D01*
X142780952Y-78814285D01*
X142828571Y-78861904D01*
X142876190Y-78957142D01*
X142876190Y-79338095D01*
X142685714Y-77909523D02*
X143352380Y-77909523D01*
X142304761Y-78147619D02*
X143019047Y-78385714D01*
X143019047Y-77766666D01*
%TO.C,D5*%
X120361904Y-96252380D02*
X120361904Y-95252380D01*
X120600000Y-95252380D01*
X120742857Y-95300000D01*
X120838095Y-95395238D01*
X120885714Y-95490476D01*
X120933333Y-95680952D01*
X120933333Y-95823809D01*
X120885714Y-96014285D01*
X120838095Y-96109523D01*
X120742857Y-96204761D01*
X120600000Y-96252380D01*
X120361904Y-96252380D01*
X121838095Y-95252380D02*
X121361904Y-95252380D01*
X121314285Y-95728571D01*
X121361904Y-95680952D01*
X121457142Y-95633333D01*
X121695238Y-95633333D01*
X121790476Y-95680952D01*
X121838095Y-95728571D01*
X121885714Y-95823809D01*
X121885714Y-96061904D01*
X121838095Y-96157142D01*
X121790476Y-96204761D01*
X121695238Y-96252380D01*
X121457142Y-96252380D01*
X121361904Y-96204761D01*
X121314285Y-96157142D01*
%TO.C,C1*%
X124792037Y-75606086D02*
X124744418Y-75653705D01*
X124601561Y-75701324D01*
X124506323Y-75701324D01*
X124363465Y-75653705D01*
X124268227Y-75558467D01*
X124220608Y-75463229D01*
X124172989Y-75272753D01*
X124172989Y-75129896D01*
X124220608Y-74939420D01*
X124268227Y-74844182D01*
X124363465Y-74748944D01*
X124506323Y-74701324D01*
X124601561Y-74701324D01*
X124744418Y-74748944D01*
X124792037Y-74796563D01*
X125744418Y-75701324D02*
X125172989Y-75701324D01*
X125458704Y-75701324D02*
X125458704Y-74701324D01*
X125363465Y-74844182D01*
X125268227Y-74939420D01*
X125172989Y-74987039D01*
%TO.C,JP1*%
X123238095Y-61033246D02*
X123571428Y-61509436D01*
X123809523Y-61033246D02*
X123809523Y-62033246D01*
X123428571Y-62033246D01*
X123333333Y-61985627D01*
X123285714Y-61938007D01*
X123238095Y-61842769D01*
X123238095Y-61699912D01*
X123285714Y-61604674D01*
X123333333Y-61557055D01*
X123428571Y-61509436D01*
X123809523Y-61509436D01*
X122428571Y-61080865D02*
X122523809Y-61033246D01*
X122714285Y-61033246D01*
X122809523Y-61080865D01*
X122857142Y-61176103D01*
X122857142Y-61557055D01*
X122809523Y-61652293D01*
X122714285Y-61699912D01*
X122523809Y-61699912D01*
X122428571Y-61652293D01*
X122380952Y-61557055D01*
X122380952Y-61461817D01*
X122857142Y-61366579D01*
X122000000Y-61080865D02*
X121904761Y-61033246D01*
X121714285Y-61033246D01*
X121619047Y-61080865D01*
X121571428Y-61176103D01*
X121571428Y-61223722D01*
X121619047Y-61318960D01*
X121714285Y-61366579D01*
X121857142Y-61366579D01*
X121952380Y-61414198D01*
X122000000Y-61509436D01*
X122000000Y-61557055D01*
X121952380Y-61652293D01*
X121857142Y-61699912D01*
X121714285Y-61699912D01*
X121619047Y-61652293D01*
X120761904Y-61080865D02*
X120857142Y-61033246D01*
X121047619Y-61033246D01*
X121142857Y-61080865D01*
X121190476Y-61176103D01*
X121190476Y-61557055D01*
X121142857Y-61652293D01*
X121047619Y-61699912D01*
X120857142Y-61699912D01*
X120761904Y-61652293D01*
X120714285Y-61557055D01*
X120714285Y-61461817D01*
X121190476Y-61366579D01*
X120428571Y-61699912D02*
X120047619Y-61699912D01*
X120285714Y-62033246D02*
X120285714Y-61176103D01*
X120238095Y-61080865D01*
X120142857Y-61033246D01*
X120047619Y-61033246D01*
%TO.C,C2*%
X119743212Y-68264391D02*
X119790831Y-68312010D01*
X119838450Y-68454867D01*
X119838450Y-68550105D01*
X119790831Y-68692963D01*
X119695593Y-68788201D01*
X119600355Y-68835820D01*
X119409879Y-68883439D01*
X119267022Y-68883439D01*
X119076546Y-68835820D01*
X118981308Y-68788201D01*
X118886070Y-68692963D01*
X118838450Y-68550105D01*
X118838450Y-68454867D01*
X118886070Y-68312010D01*
X118933689Y-68264391D01*
X118933689Y-67883439D02*
X118886070Y-67835820D01*
X118838450Y-67740582D01*
X118838450Y-67502486D01*
X118886070Y-67407248D01*
X118933689Y-67359629D01*
X119028927Y-67312010D01*
X119124165Y-67312010D01*
X119267022Y-67359629D01*
X119838450Y-67931058D01*
X119838450Y-67312010D01*
%TO.C,U1*%
X139238095Y-66452380D02*
X139238095Y-67261904D01*
X139285714Y-67357142D01*
X139333333Y-67404761D01*
X139428571Y-67452380D01*
X139619047Y-67452380D01*
X139714285Y-67404761D01*
X139761904Y-67357142D01*
X139809523Y-67261904D01*
X139809523Y-66452380D01*
X140809523Y-67452380D02*
X140238095Y-67452380D01*
X140523809Y-67452380D02*
X140523809Y-66452380D01*
X140428571Y-66595238D01*
X140333333Y-66690476D01*
X140238095Y-66738095D01*
%TO.C,TP3*%
X119122420Y-88090965D02*
X119122420Y-87471917D01*
X119503373Y-87805250D01*
X119503373Y-87662393D01*
X119550992Y-87567155D01*
X119598611Y-87519536D01*
X119693849Y-87471917D01*
X119931944Y-87471917D01*
X120027182Y-87519536D01*
X120074801Y-87567155D01*
X120122420Y-87662393D01*
X120122420Y-87948108D01*
X120074801Y-88043346D01*
X120027182Y-88090965D01*
X119122420Y-87186203D02*
X120122420Y-86852870D01*
X119122420Y-86519536D01*
X119122420Y-86281441D02*
X119122420Y-85662393D01*
X119503373Y-85995727D01*
X119503373Y-85852870D01*
X119550992Y-85757631D01*
X119598611Y-85710012D01*
X119693849Y-85662393D01*
X119931944Y-85662393D01*
X120027182Y-85710012D01*
X120074801Y-85757631D01*
X120122420Y-85852870D01*
X120122420Y-86138584D01*
X120074801Y-86233822D01*
X120027182Y-86281441D01*
%TO.C,TP2*%
X119115419Y-83702757D02*
X119067799Y-83797995D01*
X119067799Y-83940853D01*
X119115419Y-84083710D01*
X119210657Y-84178948D01*
X119305895Y-84226567D01*
X119496371Y-84274186D01*
X119639228Y-84274186D01*
X119829704Y-84226567D01*
X119924942Y-84178948D01*
X120020180Y-84083710D01*
X120067799Y-83940853D01*
X120067799Y-83845614D01*
X120020180Y-83702757D01*
X119972561Y-83655138D01*
X119639228Y-83655138D01*
X119639228Y-83845614D01*
X120067799Y-83226567D02*
X119067799Y-83226567D01*
X120067799Y-82655138D01*
X119067799Y-82655138D01*
X120067799Y-82178948D02*
X119067799Y-82178948D01*
X119067799Y-81940853D01*
X119115419Y-81797995D01*
X119210657Y-81702757D01*
X119305895Y-81655138D01*
X119496371Y-81607519D01*
X119639228Y-81607519D01*
X119829704Y-81655138D01*
X119924942Y-81702757D01*
X120020180Y-81797995D01*
X120067799Y-81940853D01*
X120067799Y-82178948D01*
%TO.C,R1*%
X132833333Y-96452380D02*
X132500000Y-95976190D01*
X132261904Y-96452380D02*
X132261904Y-95452380D01*
X132642857Y-95452380D01*
X132738095Y-95500000D01*
X132785714Y-95547619D01*
X132833333Y-95642857D01*
X132833333Y-95785714D01*
X132785714Y-95880952D01*
X132738095Y-95928571D01*
X132642857Y-95976190D01*
X132261904Y-95976190D01*
X133785714Y-96452380D02*
X133214285Y-96452380D01*
X133500000Y-96452380D02*
X133500000Y-95452380D01*
X133404761Y-95595238D01*
X133309523Y-95690476D01*
X133214285Y-95738095D01*
%TO.C,JP2*%
X142671101Y-61510920D02*
X142528244Y-61463301D01*
X142480625Y-61415682D01*
X142433006Y-61320444D01*
X142433006Y-61177587D01*
X142480625Y-61082349D01*
X142528244Y-61034730D01*
X142623482Y-60987111D01*
X143004434Y-60987111D01*
X143004434Y-61987111D01*
X142671101Y-61987111D01*
X142575863Y-61939492D01*
X142528244Y-61891872D01*
X142480625Y-61796634D01*
X142480625Y-61701396D01*
X142528244Y-61606158D01*
X142575863Y-61558539D01*
X142671101Y-61510920D01*
X143004434Y-61510920D01*
X141861577Y-60987111D02*
X141956815Y-61034730D01*
X142004434Y-61082349D01*
X142052054Y-61177587D01*
X142052054Y-61463301D01*
X142004434Y-61558539D01*
X141956815Y-61606158D01*
X141861577Y-61653777D01*
X141718720Y-61653777D01*
X141623482Y-61606158D01*
X141575863Y-61558539D01*
X141528244Y-61463301D01*
X141528244Y-61177587D01*
X141575863Y-61082349D01*
X141623482Y-61034730D01*
X141718720Y-60987111D01*
X141861577Y-60987111D01*
X140956815Y-60987111D02*
X141052054Y-61034730D01*
X141099673Y-61082349D01*
X141147292Y-61177587D01*
X141147292Y-61463301D01*
X141099673Y-61558539D01*
X141052054Y-61606158D01*
X140956815Y-61653777D01*
X140813958Y-61653777D01*
X140718720Y-61606158D01*
X140671101Y-61558539D01*
X140623482Y-61463301D01*
X140623482Y-61177587D01*
X140671101Y-61082349D01*
X140718720Y-61034730D01*
X140813958Y-60987111D01*
X140956815Y-60987111D01*
X140337768Y-61653777D02*
X139956815Y-61653777D01*
X140194911Y-61987111D02*
X140194911Y-61129968D01*
X140147292Y-61034730D01*
X140052054Y-60987111D01*
X139956815Y-60987111D01*
%TO.C,R7*%
X119867109Y-72126072D02*
X119390919Y-72459406D01*
X119867109Y-72697501D02*
X118867109Y-72697501D01*
X118867109Y-72316548D01*
X118914729Y-72221310D01*
X118962348Y-72173691D01*
X119057586Y-72126072D01*
X119200443Y-72126072D01*
X119295681Y-72173691D01*
X119343300Y-72221310D01*
X119390919Y-72316548D01*
X119390919Y-72697501D01*
X118867109Y-71792739D02*
X118867109Y-71126072D01*
X119867109Y-71554644D01*
%TO.C,C6*%
X119762790Y-74129150D02*
X119810409Y-74176769D01*
X119858028Y-74319626D01*
X119858028Y-74414864D01*
X119810409Y-74557722D01*
X119715171Y-74652960D01*
X119619933Y-74700579D01*
X119429457Y-74748198D01*
X119286600Y-74748198D01*
X119096124Y-74700579D01*
X119000886Y-74652960D01*
X118905648Y-74557722D01*
X118858028Y-74414864D01*
X118858028Y-74319626D01*
X118905648Y-74176769D01*
X118953267Y-74129150D01*
X118858028Y-73272007D02*
X118858028Y-73462484D01*
X118905648Y-73557722D01*
X118953267Y-73605341D01*
X119096124Y-73700579D01*
X119286600Y-73748198D01*
X119667552Y-73748198D01*
X119762790Y-73700579D01*
X119810409Y-73652960D01*
X119858028Y-73557722D01*
X119858028Y-73367245D01*
X119810409Y-73272007D01*
X119762790Y-73224388D01*
X119667552Y-73176769D01*
X119429457Y-73176769D01*
X119334219Y-73224388D01*
X119286600Y-73272007D01*
X119238981Y-73367245D01*
X119238981Y-73557722D01*
X119286600Y-73652960D01*
X119334219Y-73700579D01*
X119429457Y-73748198D01*
%TO.C,C3*%
X122833333Y-89557142D02*
X122785714Y-89604761D01*
X122642857Y-89652380D01*
X122547619Y-89652380D01*
X122404761Y-89604761D01*
X122309523Y-89509523D01*
X122261904Y-89414285D01*
X122214285Y-89223809D01*
X122214285Y-89080952D01*
X122261904Y-88890476D01*
X122309523Y-88795238D01*
X122404761Y-88700000D01*
X122547619Y-88652380D01*
X122642857Y-88652380D01*
X122785714Y-88700000D01*
X122833333Y-88747619D01*
X123166666Y-88652380D02*
X123785714Y-88652380D01*
X123452380Y-89033333D01*
X123595238Y-89033333D01*
X123690476Y-89080952D01*
X123738095Y-89128571D01*
X123785714Y-89223809D01*
X123785714Y-89461904D01*
X123738095Y-89557142D01*
X123690476Y-89604761D01*
X123595238Y-89652380D01*
X123309523Y-89652380D01*
X123214285Y-89604761D01*
X123166666Y-89557142D01*
%TO.C,R2*%
X140833333Y-96102380D02*
X140500000Y-95626190D01*
X140261904Y-96102380D02*
X140261904Y-95102380D01*
X140642857Y-95102380D01*
X140738095Y-95150000D01*
X140785714Y-95197619D01*
X140833333Y-95292857D01*
X140833333Y-95435714D01*
X140785714Y-95530952D01*
X140738095Y-95578571D01*
X140642857Y-95626190D01*
X140261904Y-95626190D01*
X141214285Y-95197619D02*
X141261904Y-95150000D01*
X141357142Y-95102380D01*
X141595238Y-95102380D01*
X141690476Y-95150000D01*
X141738095Y-95197619D01*
X141785714Y-95292857D01*
X141785714Y-95388095D01*
X141738095Y-95530952D01*
X141166666Y-96102380D01*
X141785714Y-96102380D01*
%TO.C,R5*%
X121833333Y-107652380D02*
X121500000Y-107176190D01*
X121261904Y-107652380D02*
X121261904Y-106652380D01*
X121642857Y-106652380D01*
X121738095Y-106700000D01*
X121785714Y-106747619D01*
X121833333Y-106842857D01*
X121833333Y-106985714D01*
X121785714Y-107080952D01*
X121738095Y-107128571D01*
X121642857Y-107176190D01*
X121261904Y-107176190D01*
X122738095Y-106652380D02*
X122261904Y-106652380D01*
X122214285Y-107128571D01*
X122261904Y-107080952D01*
X122357142Y-107033333D01*
X122595238Y-107033333D01*
X122690476Y-107080952D01*
X122738095Y-107128571D01*
X122785714Y-107223809D01*
X122785714Y-107461904D01*
X122738095Y-107557142D01*
X122690476Y-107604761D01*
X122595238Y-107652380D01*
X122357142Y-107652380D01*
X122261904Y-107604761D01*
X122214285Y-107557142D01*
%TO.C,D1*%
X137461904Y-101452380D02*
X137461904Y-100452380D01*
X137700000Y-100452380D01*
X137842857Y-100500000D01*
X137938095Y-100595238D01*
X137985714Y-100690476D01*
X138033333Y-100880952D01*
X138033333Y-101023809D01*
X137985714Y-101214285D01*
X137938095Y-101309523D01*
X137842857Y-101404761D01*
X137700000Y-101452380D01*
X137461904Y-101452380D01*
X138985714Y-101452380D02*
X138414285Y-101452380D01*
X138700000Y-101452380D02*
X138700000Y-100452380D01*
X138604761Y-100595238D01*
X138509523Y-100690476D01*
X138414285Y-100738095D01*
%TO.C,U2*%
X127038095Y-83752380D02*
X127038095Y-84561904D01*
X127085714Y-84657142D01*
X127133333Y-84704761D01*
X127228571Y-84752380D01*
X127419047Y-84752380D01*
X127514285Y-84704761D01*
X127561904Y-84657142D01*
X127609523Y-84561904D01*
X127609523Y-83752380D01*
X128038095Y-83847619D02*
X128085714Y-83800000D01*
X128180952Y-83752380D01*
X128419047Y-83752380D01*
X128514285Y-83800000D01*
X128561904Y-83847619D01*
X128609523Y-83942857D01*
X128609523Y-84038095D01*
X128561904Y-84180952D01*
X127990476Y-84752380D01*
X128609523Y-84752380D01*
%TO.C,TP1*%
X119041557Y-80070724D02*
X120041557Y-79737390D01*
X119041557Y-79404057D01*
X120041557Y-79070724D02*
X119041557Y-79070724D01*
X120041557Y-78594533D02*
X119041557Y-78594533D01*
X120041557Y-78023105D01*
X119041557Y-78023105D01*
%TO.C,CONN1*%
X129761904Y-107357142D02*
X129714285Y-107404761D01*
X129571428Y-107452380D01*
X129476190Y-107452380D01*
X129333333Y-107404761D01*
X129238095Y-107309523D01*
X129190476Y-107214285D01*
X129142857Y-107023809D01*
X129142857Y-106880952D01*
X129190476Y-106690476D01*
X129238095Y-106595238D01*
X129333333Y-106500000D01*
X129476190Y-106452380D01*
X129571428Y-106452380D01*
X129714285Y-106500000D01*
X129761904Y-106547619D01*
X130380952Y-106452380D02*
X130571428Y-106452380D01*
X130666666Y-106500000D01*
X130761904Y-106595238D01*
X130809523Y-106785714D01*
X130809523Y-107119047D01*
X130761904Y-107309523D01*
X130666666Y-107404761D01*
X130571428Y-107452380D01*
X130380952Y-107452380D01*
X130285714Y-107404761D01*
X130190476Y-107309523D01*
X130142857Y-107119047D01*
X130142857Y-106785714D01*
X130190476Y-106595238D01*
X130285714Y-106500000D01*
X130380952Y-106452380D01*
X131238095Y-107452380D02*
X131238095Y-106452380D01*
X131809523Y-107452380D01*
X131809523Y-106452380D01*
X132285714Y-107452380D02*
X132285714Y-106452380D01*
X132857142Y-107452380D01*
X132857142Y-106452380D01*
X133857142Y-107452380D02*
X133285714Y-107452380D01*
X133571428Y-107452380D02*
X133571428Y-106452380D01*
X133476190Y-106595238D01*
X133380952Y-106690476D01*
X133285714Y-106738095D01*
D11*
X131061904Y-109361904D02*
X130795238Y-108980952D01*
X130604761Y-109361904D02*
X130604761Y-108561904D01*
X130909523Y-108561904D01*
X130985714Y-108600000D01*
X131023809Y-108638095D01*
X131061904Y-108714285D01*
X131061904Y-108828571D01*
X131023809Y-108904761D01*
X130985714Y-108942857D01*
X130909523Y-108980952D01*
X130604761Y-108980952D01*
X131633333Y-108561904D02*
X131633333Y-109133333D01*
X131595238Y-109247619D01*
X131519047Y-109323809D01*
X131404761Y-109361904D01*
X131328571Y-109361904D01*
X132052380Y-109361904D02*
X132204761Y-109361904D01*
X132280952Y-109323809D01*
X132319047Y-109285714D01*
X132395238Y-109171428D01*
X132433333Y-109019047D01*
X132433333Y-108714285D01*
X132395238Y-108638095D01*
X132357142Y-108600000D01*
X132280952Y-108561904D01*
X132128571Y-108561904D01*
X132052380Y-108600000D01*
X132014285Y-108638095D01*
X131976190Y-108714285D01*
X131976190Y-108904761D01*
X132014285Y-108980952D01*
X132052380Y-109019047D01*
X132128571Y-109057142D01*
X132280952Y-109057142D01*
X132357142Y-109019047D01*
X132395238Y-108980952D01*
X132433333Y-108904761D01*
D10*
%TO.C,R6*%
X140833333Y-107652380D02*
X140500000Y-107176190D01*
X140261904Y-107652380D02*
X140261904Y-106652380D01*
X140642857Y-106652380D01*
X140738095Y-106700000D01*
X140785714Y-106747619D01*
X140833333Y-106842857D01*
X140833333Y-106985714D01*
X140785714Y-107080952D01*
X140738095Y-107128571D01*
X140642857Y-107176190D01*
X140261904Y-107176190D01*
X141690476Y-106652380D02*
X141500000Y-106652380D01*
X141404761Y-106700000D01*
X141357142Y-106747619D01*
X141261904Y-106890476D01*
X141214285Y-107080952D01*
X141214285Y-107461904D01*
X141261904Y-107557142D01*
X141309523Y-107604761D01*
X141404761Y-107652380D01*
X141595238Y-107652380D01*
X141690476Y-107604761D01*
X141738095Y-107557142D01*
X141785714Y-107461904D01*
X141785714Y-107223809D01*
X141738095Y-107128571D01*
X141690476Y-107080952D01*
X141595238Y-107033333D01*
X141404761Y-107033333D01*
X141309523Y-107080952D01*
X141261904Y-107128571D01*
X141214285Y-107223809D01*
%TO.C,D3*%
X120666666Y-113452380D02*
X120666666Y-112452380D01*
X121047619Y-112452380D01*
X121142857Y-112500000D01*
X121190476Y-112547619D01*
X121238095Y-112642857D01*
X121238095Y-112785714D01*
X121190476Y-112880952D01*
X121142857Y-112928571D01*
X121047619Y-112976190D01*
X120666666Y-112976190D01*
X121571428Y-112452380D02*
X121809523Y-113452380D01*
X122000000Y-112738095D01*
X122190476Y-113452380D01*
X122428571Y-112452380D01*
X123380952Y-113452380D02*
X123047619Y-112976190D01*
X122809523Y-113452380D02*
X122809523Y-112452380D01*
X123190476Y-112452380D01*
X123285714Y-112500000D01*
X123333333Y-112547619D01*
X123380952Y-112642857D01*
X123380952Y-112785714D01*
X123333333Y-112880952D01*
X123285714Y-112928571D01*
X123190476Y-112976190D01*
X122809523Y-112976190D01*
%TO.C,D2*%
X123961904Y-101452380D02*
X123961904Y-100452380D01*
X124200000Y-100452380D01*
X124342857Y-100500000D01*
X124438095Y-100595238D01*
X124485714Y-100690476D01*
X124533333Y-100880952D01*
X124533333Y-101023809D01*
X124485714Y-101214285D01*
X124438095Y-101309523D01*
X124342857Y-101404761D01*
X124200000Y-101452380D01*
X123961904Y-101452380D01*
X124914285Y-100547619D02*
X124961904Y-100500000D01*
X125057142Y-100452380D01*
X125295238Y-100452380D01*
X125390476Y-100500000D01*
X125438095Y-100547619D01*
X125485714Y-100642857D01*
X125485714Y-100738095D01*
X125438095Y-100880952D01*
X124866666Y-101452380D01*
X125485714Y-101452380D01*
%TO.C,D4*%
X139523809Y-113404761D02*
X139666666Y-113452380D01*
X139904761Y-113452380D01*
X140000000Y-113404761D01*
X140047619Y-113357142D01*
X140095238Y-113261904D01*
X140095238Y-113166666D01*
X140047619Y-113071428D01*
X140000000Y-113023809D01*
X139904761Y-112976190D01*
X139714285Y-112928571D01*
X139619047Y-112880952D01*
X139571428Y-112833333D01*
X139523809Y-112738095D01*
X139523809Y-112642857D01*
X139571428Y-112547619D01*
X139619047Y-112500000D01*
X139714285Y-112452380D01*
X139952380Y-112452380D01*
X140095238Y-112500000D01*
X140380952Y-112452380D02*
X140952380Y-112452380D01*
X140666666Y-113452380D02*
X140666666Y-112452380D01*
X141238095Y-113166666D02*
X141714285Y-113166666D01*
X141142857Y-113452380D02*
X141476190Y-112452380D01*
X141809523Y-113452380D01*
X142000000Y-112452380D02*
X142571428Y-112452380D01*
X142285714Y-113452380D02*
X142285714Y-112452380D01*
%TO.C,C4*%
X125833333Y-93457142D02*
X125785714Y-93504761D01*
X125642857Y-93552380D01*
X125547619Y-93552380D01*
X125404761Y-93504761D01*
X125309523Y-93409523D01*
X125261904Y-93314285D01*
X125214285Y-93123809D01*
X125214285Y-92980952D01*
X125261904Y-92790476D01*
X125309523Y-92695238D01*
X125404761Y-92600000D01*
X125547619Y-92552380D01*
X125642857Y-92552380D01*
X125785714Y-92600000D01*
X125833333Y-92647619D01*
X126690476Y-92885714D02*
X126690476Y-93552380D01*
X126452380Y-92504761D02*
X126214285Y-93219047D01*
X126833333Y-93219047D01*
%TO.C,U3*%
X133238095Y-92452380D02*
X133238095Y-93261904D01*
X133285714Y-93357142D01*
X133333333Y-93404761D01*
X133428571Y-93452380D01*
X133619047Y-93452380D01*
X133714285Y-93404761D01*
X133761904Y-93357142D01*
X133809523Y-93261904D01*
X133809523Y-92452380D01*
X134190476Y-92452380D02*
X134809523Y-92452380D01*
X134476190Y-92833333D01*
X134619047Y-92833333D01*
X134714285Y-92880952D01*
X134761904Y-92928571D01*
X134809523Y-93023809D01*
X134809523Y-93261904D01*
X134761904Y-93357142D01*
X134714285Y-93404761D01*
X134619047Y-93452380D01*
X134333333Y-93452380D01*
X134238095Y-93404761D01*
X134190476Y-93357142D01*
%TO.C,R8*%
X119780781Y-70167471D02*
X119304591Y-70500805D01*
X119780781Y-70738900D02*
X118780781Y-70738900D01*
X118780781Y-70357947D01*
X118828401Y-70262709D01*
X118876020Y-70215090D01*
X118971258Y-70167471D01*
X119114115Y-70167471D01*
X119209353Y-70215090D01*
X119256972Y-70262709D01*
X119304591Y-70357947D01*
X119304591Y-70738900D01*
X119209353Y-69596043D02*
X119161734Y-69691281D01*
X119114115Y-69738900D01*
X119018877Y-69786519D01*
X118971258Y-69786519D01*
X118876020Y-69738900D01*
X118828401Y-69691281D01*
X118780781Y-69596043D01*
X118780781Y-69405566D01*
X118828401Y-69310328D01*
X118876020Y-69262709D01*
X118971258Y-69215090D01*
X119018877Y-69215090D01*
X119114115Y-69262709D01*
X119161734Y-69310328D01*
X119209353Y-69405566D01*
X119209353Y-69596043D01*
X119256972Y-69691281D01*
X119304591Y-69738900D01*
X119399829Y-69786519D01*
X119590305Y-69786519D01*
X119685543Y-69738900D01*
X119733162Y-69691281D01*
X119780781Y-69596043D01*
X119780781Y-69405566D01*
X119733162Y-69310328D01*
X119685543Y-69262709D01*
X119590305Y-69215090D01*
X119399829Y-69215090D01*
X119304591Y-69262709D01*
X119256972Y-69310328D01*
X119209353Y-69405566D01*
%TO.C,R3*%
X133933333Y-90152380D02*
X133600000Y-89676190D01*
X133361904Y-90152380D02*
X133361904Y-89152380D01*
X133742857Y-89152380D01*
X133838095Y-89200000D01*
X133885714Y-89247619D01*
X133933333Y-89342857D01*
X133933333Y-89485714D01*
X133885714Y-89580952D01*
X133838095Y-89628571D01*
X133742857Y-89676190D01*
X133361904Y-89676190D01*
X134266666Y-89152380D02*
X134885714Y-89152380D01*
X134552380Y-89533333D01*
X134695238Y-89533333D01*
X134790476Y-89580952D01*
X134838095Y-89628571D01*
X134885714Y-89723809D01*
X134885714Y-89961904D01*
X134838095Y-90057142D01*
X134790476Y-90104761D01*
X134695238Y-90152380D01*
X134409523Y-90152380D01*
X134314285Y-90104761D01*
X134266666Y-90057142D01*
D11*
%TO.C,C5*%
X139638748Y-77235000D02*
X140161252Y-77235000D01*
X139638748Y-75765000D02*
X140161252Y-75765000D01*
%TO.C,D6*%
X133800000Y-75650000D02*
X133800000Y-77350000D01*
X133800000Y-75650000D02*
X136950000Y-75650000D01*
X133800000Y-77350000D02*
X136950000Y-77350000D01*
%TO.C,R4*%
X139672936Y-79335000D02*
X140127064Y-79335000D01*
X139672936Y-77865000D02*
X140127064Y-77865000D01*
%TO.C,D5*%
X120150000Y-91100000D02*
X120150000Y-94250000D01*
X121850000Y-91100000D02*
X120150000Y-91100000D01*
X121850000Y-91100000D02*
X121850000Y-94250000D01*
%TO.C,C1*%
X127738748Y-74465000D02*
X128261252Y-74465000D01*
X127738748Y-75935000D02*
X128261252Y-75935000D01*
%TO.C,JP1*%
X122300000Y-65400000D02*
X121700000Y-65400000D01*
X123000000Y-63300000D02*
X123000000Y-64700000D01*
X121700000Y-62600000D02*
X122300000Y-62600000D01*
X121000000Y-64700000D02*
X121000000Y-63300000D01*
X121000000Y-64700000D02*
G75*
G03*
X121700000Y-65400000I700000J0D01*
G01*
X122300000Y-65400000D02*
G75*
G03*
X123000000Y-64700000I0J700000D01*
G01*
X121700000Y-62600000D02*
G75*
G03*
X121000000Y-63300000I-1J-699999D01*
G01*
X123000000Y-63300000D02*
G75*
G03*
X122300000Y-62600000I-699999J1D01*
G01*
%TO.C,C2*%
X122261252Y-68735000D02*
X121738748Y-68735000D01*
X122261252Y-67265000D02*
X121738748Y-67265000D01*
D12*
%TO.C,U1*%
X124898915Y-62080000D02*
X124898915Y-56700000D01*
X138098915Y-56700000D02*
X138098915Y-62080000D01*
X124898915Y-56700000D02*
X138098915Y-56700000D01*
D13*
X124348915Y-63700000D02*
G75*
G03*
X124348915Y-63700000I-100000J0D01*
G01*
D11*
%TO.C,TP3*%
X122950000Y-87000000D02*
G75*
G03*
X122950000Y-87000000I-950000J0D01*
G01*
%TO.C,TP2*%
X122950000Y-83000000D02*
G75*
G03*
X122950000Y-83000000I-950000J0D01*
G01*
%TO.C,R1*%
X130227064Y-96735000D02*
X129772936Y-96735000D01*
X130227064Y-95265000D02*
X129772936Y-95265000D01*
%TO.C,JP2*%
X141828986Y-65400000D02*
X141228986Y-65400000D01*
X140528986Y-64700000D02*
X140528986Y-63300000D01*
X142528986Y-63300000D02*
X142528986Y-64700000D01*
X141228986Y-62600000D02*
X141828986Y-62600000D01*
X142528986Y-63300000D02*
G75*
G03*
X141828986Y-62600000I-700000J0D01*
G01*
X141828986Y-65400000D02*
G75*
G03*
X142528986Y-64700000I1J699999D01*
G01*
X140528986Y-64700000D02*
G75*
G03*
X141228986Y-65400000I699999J-1D01*
G01*
X141228986Y-62600000D02*
G75*
G03*
X140528986Y-63300000I0J-700000D01*
G01*
%TO.C,R7*%
X121772936Y-72735000D02*
X122227064Y-72735000D01*
X121772936Y-71265000D02*
X122227064Y-71265000D01*
%TO.C,C6*%
X122261252Y-74735000D02*
X121738748Y-74735000D01*
X122261252Y-73265000D02*
X121738748Y-73265000D01*
%TO.C,C3*%
X125735000Y-88261252D02*
X125735000Y-87738748D01*
X124265000Y-88261252D02*
X124265000Y-87738748D01*
%TO.C,R2*%
X141227064Y-93265000D02*
X140772936Y-93265000D01*
X141227064Y-94735000D02*
X140772936Y-94735000D01*
%TO.C,R5*%
X121772936Y-108223108D02*
X122227064Y-108223108D01*
X121772936Y-109693108D02*
X122227064Y-109693108D01*
%TO.C,D1*%
X142650000Y-105400000D02*
X142650000Y-98500000D01*
X139350000Y-105400000D02*
X139350000Y-98500000D01*
X139350000Y-105400000D02*
X142650000Y-105400000D01*
%TO.C,U2*%
X132100000Y-83410000D02*
X126090000Y-83410000D01*
X129850000Y-76590000D02*
X126090000Y-76590000D01*
X126090000Y-76590000D02*
X126090000Y-77850000D01*
X126090000Y-83410000D02*
X126090000Y-82150000D01*
%TO.C,TP1*%
X122950000Y-79000000D02*
G75*
G03*
X122950000Y-79000000I-950000J0D01*
G01*
%TO.C,R6*%
X141230191Y-109681353D02*
X140776063Y-109681353D01*
X141230191Y-108211353D02*
X140776063Y-108211353D01*
%TO.C,D3*%
X120140000Y-110040000D02*
X120140000Y-111960000D01*
X120140000Y-111960000D02*
X123000000Y-111960000D01*
X123000000Y-110040000D02*
X120140000Y-110040000D01*
%TO.C,D2*%
X123650000Y-96600000D02*
X120350000Y-96600000D01*
X123650000Y-96600000D02*
X123650000Y-103500000D01*
X120350000Y-96600000D02*
X120350000Y-103500000D01*
%TO.C,D4*%
X142860000Y-110040000D02*
X140000000Y-110040000D01*
X140000000Y-111960000D02*
X142860000Y-111960000D01*
X142860000Y-111960000D02*
X142860000Y-110040000D01*
%TO.C,J1*%
X147117870Y-90595000D02*
X147117870Y-81405000D01*
X137707870Y-90475000D02*
X137707870Y-81525000D01*
X140787870Y-90595000D02*
X141687870Y-90595000D01*
X144387870Y-81405000D02*
X147117870Y-81405000D01*
X140787870Y-81405000D02*
X141687870Y-81405000D01*
X144387870Y-90595000D02*
X147117870Y-90595000D01*
%TO.C,C4*%
X123265000Y-93261252D02*
X123265000Y-92738748D01*
X124735000Y-93261252D02*
X124735000Y-92738748D01*
D12*
%TO.C,U3*%
X127475000Y-88000000D02*
X127475000Y-92000000D01*
X132525000Y-88000000D02*
X132525000Y-92000000D01*
D13*
X132605000Y-85555000D02*
G75*
G03*
X132605000Y-85555000I-100000J0D01*
G01*
D11*
%TO.C,R8*%
X121772936Y-70735000D02*
X122227064Y-70735000D01*
X121772936Y-69265000D02*
X122227064Y-69265000D01*
%TO.C,R3*%
X134265000Y-87227064D02*
X134265000Y-86772936D01*
X135735000Y-87227064D02*
X135735000Y-86772936D01*
%TD*%
M02*
