%TF.GenerationSoftware,KiCad,Pcbnew,(6.0.9)*%
%TF.CreationDate,2022-11-27T14:47:39-05:00*%
%TF.ProjectId,Vex_Debug,5665785f-4465-4627-9567-2e6b69636164,rev?*%
%TF.SameCoordinates,Original*%
%TF.FileFunction,Soldermask,Top*%
%TF.FilePolarity,Negative*%
%FSLAX46Y46*%
G04 Gerber Fmt 4.6, Leading zero omitted, Abs format (unit mm)*
G04 Created by KiCad (PCBNEW (6.0.9)) date 2022-11-27 14:47:39*
%MOMM*%
%LPD*%
G01*
G04 APERTURE LIST*
G04 Aperture macros list*
%AMRoundRect*
0 Rectangle with rounded corners*
0 $1 Rounding radius*
0 $2 $3 $4 $5 $6 $7 $8 $9 X,Y pos of 4 corners*
0 Add a 4 corners polygon primitive as box body*
4,1,4,$2,$3,$4,$5,$6,$7,$8,$9,$2,$3,0*
0 Add four circle primitives for the rounded corners*
1,1,$1+$1,$2,$3*
1,1,$1+$1,$4,$5*
1,1,$1+$1,$6,$7*
1,1,$1+$1,$8,$9*
0 Add four rect primitives between the rounded corners*
20,1,$1+$1,$2,$3,$4,$5,0*
20,1,$1+$1,$4,$5,$6,$7,0*
20,1,$1+$1,$6,$7,$8,$9,0*
20,1,$1+$1,$8,$9,$2,$3,0*%
G04 Aperture macros list end*
%ADD10RoundRect,0.250000X-0.325000X-0.450000X0.325000X-0.450000X0.325000X0.450000X-0.325000X0.450000X0*%
%ADD11RoundRect,0.250000X-0.350000X-0.450000X0.350000X-0.450000X0.350000X0.450000X-0.350000X0.450000X0*%
%ADD12C,0.700000*%
%ADD13O,2.400000X0.900000*%
%ADD14O,1.700000X0.900000*%
%ADD15RoundRect,0.250000X0.337500X0.475000X-0.337500X0.475000X-0.337500X-0.475000X0.337500X-0.475000X0*%
%ADD16C,3.200000*%
%ADD17C,1.300000*%
%ADD18RoundRect,0.250000X0.350000X0.450000X-0.350000X0.450000X-0.350000X-0.450000X0.350000X-0.450000X0*%
%ADD19RoundRect,0.250000X-0.337500X-0.475000X0.337500X-0.475000X0.337500X0.475000X-0.337500X0.475000X0*%
%ADD20R,1.800000X3.500000*%
%ADD21RoundRect,0.250000X0.475000X-0.337500X0.475000X0.337500X-0.475000X0.337500X-0.475000X-0.337500X0*%
%ADD22C,1.500000*%
%ADD23R,0.228600X0.812800*%
%ADD24R,2.540000X1.651000*%
%ADD25R,1.000000X1.000000*%
%ADD26C,2.000000*%
%ADD27RoundRect,0.042000X-0.258000X0.943000X-0.258000X-0.943000X0.258000X-0.943000X0.258000X0.943000X0*%
%ADD28R,1.498600X0.889000*%
%ADD29R,0.711200X0.711200*%
%ADD30R,2.000000X1.500000*%
%ADD31R,2.000000X3.800000*%
G04 APERTURE END LIST*
D10*
%TO.C,D3*%
X83975000Y-117000000D03*
X86025000Y-117000000D03*
%TD*%
D11*
%TO.C,R8*%
X106500000Y-65000000D03*
X108500000Y-65000000D03*
%TD*%
D12*
%TO.C,J1*%
X103975000Y-85975000D03*
X103975000Y-85125000D03*
X103975000Y-84275000D03*
X103975000Y-83425000D03*
X103975000Y-82575000D03*
X103975000Y-81725000D03*
X103975000Y-80875000D03*
X103975000Y-80025000D03*
X105325000Y-80025000D03*
X105325000Y-80875000D03*
X105325000Y-81725000D03*
X105325000Y-82575000D03*
X105325000Y-83425000D03*
X105325000Y-84275000D03*
X105325000Y-85125000D03*
X105325000Y-85975000D03*
D13*
X104955000Y-78675000D03*
D14*
X108335000Y-87325000D03*
X108335000Y-78675000D03*
D13*
X104955000Y-87325000D03*
%TD*%
D15*
%TO.C,C6*%
X84037500Y-67000000D03*
X81962500Y-67000000D03*
%TD*%
D16*
%TO.C,CONN1*%
X98810000Y-116150000D03*
X91190000Y-116150000D03*
D17*
X93095000Y-109800000D03*
X94365000Y-107260000D03*
X95635000Y-109800000D03*
X96905000Y-107260000D03*
%TD*%
D18*
%TO.C,R2*%
X108900000Y-76500000D03*
X106900000Y-76500000D03*
%TD*%
D19*
%TO.C,C3*%
X106462500Y-67000000D03*
X108537500Y-67000000D03*
%TD*%
D20*
%TO.C,D1*%
X106000000Y-104500000D03*
X106000000Y-109500000D03*
%TD*%
D11*
%TO.C,R6*%
X105000000Y-115000000D03*
X107000000Y-115000000D03*
%TD*%
D18*
%TO.C,R1*%
X98800000Y-104200000D03*
X96800000Y-104200000D03*
%TD*%
D21*
%TO.C,C2*%
X93900000Y-100137500D03*
X93900000Y-98062500D03*
%TD*%
%TO.C,C4*%
X85800000Y-99637500D03*
X85800000Y-97562500D03*
%TD*%
D22*
%TO.C,TP1*%
X107500000Y-95000000D03*
%TD*%
D15*
%TO.C,C8*%
X100237500Y-84500000D03*
X98162500Y-84500000D03*
%TD*%
D18*
%TO.C,R9*%
X100200000Y-86500000D03*
X98200000Y-86500000D03*
%TD*%
D23*
%TO.C,U4*%
X99093198Y-81197000D03*
X99543200Y-81197000D03*
X99993199Y-81197000D03*
X100443201Y-81197000D03*
X100893200Y-81197000D03*
X101343199Y-81197000D03*
X101343202Y-78403000D03*
X100893200Y-78403000D03*
X100443201Y-78403000D03*
X99993199Y-78403000D03*
X99543200Y-78403000D03*
X99093201Y-78403000D03*
D24*
X100218200Y-79800000D03*
%TD*%
D25*
%TO.C,D6*%
X97950000Y-92500000D03*
X100450000Y-92500000D03*
%TD*%
D26*
%TO.C,SW1*%
X86450000Y-78750000D03*
X86450000Y-85250000D03*
X81950000Y-78750000D03*
X81950000Y-85250000D03*
%TD*%
%TO.C,SW2*%
X94150000Y-85250000D03*
X94150000Y-78750000D03*
X89650000Y-85250000D03*
X89650000Y-78750000D03*
%TD*%
D25*
%TO.C,D5*%
X87900000Y-97350000D03*
X87900000Y-99850000D03*
%TD*%
D27*
%TO.C,U3*%
X99605000Y-96625000D03*
X98335000Y-96625000D03*
X97065000Y-96625000D03*
X95795000Y-96625000D03*
X95795000Y-101575000D03*
X97065000Y-101575000D03*
X98335000Y-101575000D03*
X99605000Y-101575000D03*
%TD*%
D18*
%TO.C,R4*%
X108900000Y-74500000D03*
X106900000Y-74500000D03*
%TD*%
D11*
%TO.C,R5*%
X84000000Y-115000000D03*
X86000000Y-115000000D03*
%TD*%
D18*
%TO.C,R7*%
X84000000Y-65000000D03*
X82000000Y-65000000D03*
%TD*%
D10*
%TO.C,D4*%
X104975000Y-117000000D03*
X107025000Y-117000000D03*
%TD*%
D28*
%TO.C,U1*%
X86250000Y-63094913D03*
X86250000Y-64594913D03*
X86250000Y-66094915D03*
X86250000Y-67594914D03*
X86250000Y-69094914D03*
X86250000Y-70594913D03*
X86250000Y-72094913D03*
X86250000Y-73594915D03*
X86250000Y-75094915D03*
X103750000Y-75094915D03*
X103750000Y-73594915D03*
X103750000Y-72094913D03*
X103750000Y-70594913D03*
X103750000Y-69094914D03*
X103750000Y-67594914D03*
X103750000Y-66094915D03*
X103750000Y-64594913D03*
X103750000Y-63094913D03*
D29*
X94855802Y-68194890D03*
X95955802Y-68194890D03*
X97055802Y-68194890D03*
X94855700Y-69294888D03*
X95955700Y-69294888D03*
X97055701Y-69294888D03*
X94855802Y-70394886D03*
X95955802Y-70394886D03*
X97055802Y-70394886D03*
%TD*%
D21*
%TO.C,C1*%
X83650000Y-99637500D03*
X83650000Y-97562500D03*
%TD*%
D18*
%TO.C,R3*%
X100200000Y-88500000D03*
X98200000Y-88500000D03*
%TD*%
D22*
%TO.C,TP2*%
X107500000Y-99000000D03*
%TD*%
D20*
%TO.C,D2*%
X85000000Y-104500000D03*
X85000000Y-109500000D03*
%TD*%
D22*
%TO.C,TP3*%
X107500000Y-91000000D03*
%TD*%
D21*
%TO.C,C7*%
X97200000Y-80937500D03*
X97200000Y-78862500D03*
%TD*%
D30*
%TO.C,U2*%
X91150000Y-93800000D03*
D31*
X84850000Y-91500000D03*
D30*
X91150000Y-91500000D03*
X91150000Y-89200000D03*
%TD*%
D15*
%TO.C,C5*%
X100200000Y-90500000D03*
X98125000Y-90500000D03*
%TD*%
M02*
