%TF.GenerationSoftware,KiCad,Pcbnew,(6.0.8)*%
%TF.CreationDate,2022-10-28T22:44:31-04:00*%
%TF.ProjectId,Vex_Debug,5665785f-4465-4627-9567-2e6b69636164,rev?*%
%TF.SameCoordinates,Original*%
%TF.FileFunction,Legend,Bot*%
%TF.FilePolarity,Positive*%
%FSLAX46Y46*%
G04 Gerber Fmt 4.6, Leading zero omitted, Abs format (unit mm)*
G04 Created by KiCad (PCBNEW (6.0.8)) date 2022-10-28 22:44:31*
%MOMM*%
%LPD*%
G01*
G04 APERTURE LIST*
%ADD10C,0.250000*%
G04 APERTURE END LIST*
D10*
X119676190Y-73257619D02*
X120009523Y-72257619D01*
X120342857Y-73257619D01*
X121152380Y-73257619D02*
X120676190Y-73257619D01*
X120628571Y-72781428D01*
X120676190Y-72829047D01*
X120771428Y-72876666D01*
X121009523Y-72876666D01*
X121104761Y-72829047D01*
X121152380Y-72781428D01*
X121200000Y-72686190D01*
X121200000Y-72448095D01*
X121152380Y-72352857D01*
X121104761Y-72305238D01*
X121009523Y-72257619D01*
X120771428Y-72257619D01*
X120676190Y-72305238D01*
X120628571Y-72352857D01*
X122390476Y-72257619D02*
X122390476Y-73257619D01*
X122628571Y-73257619D01*
X122771428Y-73210000D01*
X122866666Y-73114761D01*
X122914285Y-73019523D01*
X122961904Y-72829047D01*
X122961904Y-72686190D01*
X122914285Y-72495714D01*
X122866666Y-72400476D01*
X122771428Y-72305238D01*
X122628571Y-72257619D01*
X122390476Y-72257619D01*
X123771428Y-72305238D02*
X123676190Y-72257619D01*
X123485714Y-72257619D01*
X123390476Y-72305238D01*
X123342857Y-72400476D01*
X123342857Y-72781428D01*
X123390476Y-72876666D01*
X123485714Y-72924285D01*
X123676190Y-72924285D01*
X123771428Y-72876666D01*
X123819047Y-72781428D01*
X123819047Y-72686190D01*
X123342857Y-72590952D01*
X124247619Y-72257619D02*
X124247619Y-73257619D01*
X124247619Y-72876666D02*
X124342857Y-72924285D01*
X124533333Y-72924285D01*
X124628571Y-72876666D01*
X124676190Y-72829047D01*
X124723809Y-72733809D01*
X124723809Y-72448095D01*
X124676190Y-72352857D01*
X124628571Y-72305238D01*
X124533333Y-72257619D01*
X124342857Y-72257619D01*
X124247619Y-72305238D01*
X125580952Y-72924285D02*
X125580952Y-72257619D01*
X125152380Y-72924285D02*
X125152380Y-72400476D01*
X125199999Y-72305238D01*
X125295238Y-72257619D01*
X125438095Y-72257619D01*
X125533333Y-72305238D01*
X125580952Y-72352857D01*
X126485714Y-72924285D02*
X126485714Y-72114761D01*
X126438095Y-72019523D01*
X126390476Y-71971904D01*
X126295238Y-71924285D01*
X126152380Y-71924285D01*
X126057142Y-71971904D01*
X126485714Y-72305238D02*
X126390476Y-72257619D01*
X126199999Y-72257619D01*
X126104761Y-72305238D01*
X126057142Y-72352857D01*
X126009523Y-72448095D01*
X126009523Y-72733809D01*
X126057142Y-72829047D01*
X126104761Y-72876666D01*
X126199999Y-72924285D01*
X126390476Y-72924285D01*
X126485714Y-72876666D01*
X128057142Y-72781428D02*
X128199999Y-72733809D01*
X128247619Y-72686190D01*
X128295238Y-72590952D01*
X128295238Y-72448095D01*
X128247619Y-72352857D01*
X128199999Y-72305238D01*
X128104761Y-72257619D01*
X127723809Y-72257619D01*
X127723809Y-73257619D01*
X128057142Y-73257619D01*
X128152380Y-73210000D01*
X128199999Y-73162380D01*
X128247619Y-73067142D01*
X128247619Y-72971904D01*
X128199999Y-72876666D01*
X128152380Y-72829047D01*
X128057142Y-72781428D01*
X127723809Y-72781428D01*
X128866666Y-72257619D02*
X128771428Y-72305238D01*
X128723809Y-72352857D01*
X128676190Y-72448095D01*
X128676190Y-72733809D01*
X128723809Y-72829047D01*
X128771428Y-72876666D01*
X128866666Y-72924285D01*
X129009523Y-72924285D01*
X129104761Y-72876666D01*
X129152380Y-72829047D01*
X129199999Y-72733809D01*
X129199999Y-72448095D01*
X129152380Y-72352857D01*
X129104761Y-72305238D01*
X129009523Y-72257619D01*
X128866666Y-72257619D01*
X130057142Y-72257619D02*
X130057142Y-72781428D01*
X130009523Y-72876666D01*
X129914285Y-72924285D01*
X129723809Y-72924285D01*
X129628571Y-72876666D01*
X130057142Y-72305238D02*
X129961904Y-72257619D01*
X129723809Y-72257619D01*
X129628571Y-72305238D01*
X129580952Y-72400476D01*
X129580952Y-72495714D01*
X129628571Y-72590952D01*
X129723809Y-72638571D01*
X129961904Y-72638571D01*
X130057142Y-72686190D01*
X130533333Y-72257619D02*
X130533333Y-72924285D01*
X130533333Y-72733809D02*
X130580952Y-72829047D01*
X130628571Y-72876666D01*
X130723809Y-72924285D01*
X130819047Y-72924285D01*
X131580952Y-72257619D02*
X131580952Y-73257619D01*
X131580952Y-72305238D02*
X131485714Y-72257619D01*
X131295238Y-72257619D01*
X131199999Y-72305238D01*
X131152380Y-72352857D01*
X131104761Y-72448095D01*
X131104761Y-72733809D01*
X131152380Y-72829047D01*
X131199999Y-72876666D01*
X131295238Y-72924285D01*
X131485714Y-72924285D01*
X131580952Y-72876666D01*
X121604761Y-70647619D02*
X121033333Y-70647619D01*
X121319047Y-70647619D02*
X121319047Y-71647619D01*
X121223809Y-71504761D01*
X121128571Y-71409523D01*
X121033333Y-71361904D01*
X122223809Y-71647619D02*
X122319047Y-71647619D01*
X122414285Y-71600000D01*
X122461904Y-71552380D01*
X122509523Y-71457142D01*
X122557142Y-71266666D01*
X122557142Y-71028571D01*
X122509523Y-70838095D01*
X122461904Y-70742857D01*
X122414285Y-70695238D01*
X122319047Y-70647619D01*
X122223809Y-70647619D01*
X122128571Y-70695238D01*
X122080952Y-70742857D01*
X122033333Y-70838095D01*
X121985714Y-71028571D01*
X121985714Y-71266666D01*
X122033333Y-71457142D01*
X122080952Y-71552380D01*
X122128571Y-71600000D01*
X122223809Y-71647619D01*
X123700000Y-71695238D02*
X122842857Y-70409523D01*
X123985714Y-71552380D02*
X124033333Y-71600000D01*
X124128571Y-71647619D01*
X124366666Y-71647619D01*
X124461904Y-71600000D01*
X124509523Y-71552380D01*
X124557142Y-71457142D01*
X124557142Y-71361904D01*
X124509523Y-71219047D01*
X123938095Y-70647619D01*
X124557142Y-70647619D01*
X124890476Y-71647619D02*
X125509523Y-71647619D01*
X125176190Y-71266666D01*
X125319047Y-71266666D01*
X125414285Y-71219047D01*
X125461904Y-71171428D01*
X125509523Y-71076190D01*
X125509523Y-70838095D01*
X125461904Y-70742857D01*
X125414285Y-70695238D01*
X125319047Y-70647619D01*
X125033333Y-70647619D01*
X124938095Y-70695238D01*
X124890476Y-70742857D01*
X126652380Y-71695238D02*
X125795238Y-70409523D01*
X126938095Y-71552380D02*
X126985714Y-71600000D01*
X127080952Y-71647619D01*
X127319047Y-71647619D01*
X127414285Y-71600000D01*
X127461904Y-71552380D01*
X127509523Y-71457142D01*
X127509523Y-71361904D01*
X127461904Y-71219047D01*
X126890476Y-70647619D01*
X127509523Y-70647619D01*
X128128571Y-71647619D02*
X128223809Y-71647619D01*
X128319047Y-71600000D01*
X128366666Y-71552380D01*
X128414285Y-71457142D01*
X128461904Y-71266666D01*
X128461904Y-71028571D01*
X128414285Y-70838095D01*
X128366666Y-70742857D01*
X128319047Y-70695238D01*
X128223809Y-70647619D01*
X128128571Y-70647619D01*
X128033333Y-70695238D01*
X127985714Y-70742857D01*
X127938095Y-70838095D01*
X127890476Y-71028571D01*
X127890476Y-71266666D01*
X127938095Y-71457142D01*
X127985714Y-71552380D01*
X128033333Y-71600000D01*
X128128571Y-71647619D01*
X128842857Y-71552380D02*
X128890476Y-71600000D01*
X128985714Y-71647619D01*
X129223809Y-71647619D01*
X129319047Y-71600000D01*
X129366666Y-71552380D01*
X129414285Y-71457142D01*
X129414285Y-71361904D01*
X129366666Y-71219047D01*
X128795238Y-70647619D01*
X129414285Y-70647619D01*
X129795238Y-71552380D02*
X129842857Y-71600000D01*
X129938095Y-71647619D01*
X130176190Y-71647619D01*
X130271428Y-71600000D01*
X130319047Y-71552380D01*
X130366666Y-71457142D01*
X130366666Y-71361904D01*
X130319047Y-71219047D01*
X129747619Y-70647619D01*
X130366666Y-70647619D01*
X124342857Y-69037619D02*
X124009523Y-69513809D01*
X123771428Y-69037619D02*
X123771428Y-70037619D01*
X124152380Y-70037619D01*
X124247619Y-69990000D01*
X124295238Y-69942380D01*
X124342857Y-69847142D01*
X124342857Y-69704285D01*
X124295238Y-69609047D01*
X124247619Y-69561428D01*
X124152380Y-69513809D01*
X123771428Y-69513809D01*
X125152380Y-69085238D02*
X125057142Y-69037619D01*
X124866666Y-69037619D01*
X124771428Y-69085238D01*
X124723809Y-69180476D01*
X124723809Y-69561428D01*
X124771428Y-69656666D01*
X124866666Y-69704285D01*
X125057142Y-69704285D01*
X125152380Y-69656666D01*
X125200000Y-69561428D01*
X125200000Y-69466190D01*
X124723809Y-69370952D01*
X125533333Y-69704285D02*
X125771428Y-69037619D01*
X126009523Y-69704285D01*
X127676190Y-69037619D02*
X127104761Y-69037619D01*
X127390476Y-69037619D02*
X127390476Y-70037619D01*
X127295238Y-69894761D01*
X127200000Y-69799523D01*
X127104761Y-69751904D01*
%TO.C,G\u002A\u002A\u002A*%
G36*
X133715520Y-90175985D02*
G01*
X133692437Y-90150946D01*
X133677068Y-90128302D01*
X133673710Y-90112643D01*
X133679809Y-90105399D01*
X133702457Y-90095669D01*
X133735150Y-90090157D01*
X133771723Y-90089683D01*
X133806010Y-90095065D01*
X133814445Y-90097329D01*
X133836561Y-90102489D01*
X133846299Y-90103466D01*
X133846656Y-90102929D01*
X133853062Y-90091129D01*
X133864167Y-90069610D01*
X133880244Y-90037983D01*
X133846038Y-90017801D01*
X133844970Y-90017160D01*
X133821353Y-89998483D01*
X133797839Y-89973184D01*
X133778118Y-89946265D01*
X133765876Y-89922731D01*
X133764801Y-89907584D01*
X133773942Y-89899399D01*
X133800861Y-89891732D01*
X133838050Y-89891164D01*
X133880315Y-89897587D01*
X133922458Y-89910891D01*
X133927026Y-89912272D01*
X133941249Y-89907438D01*
X133955908Y-89885706D01*
X133959035Y-89879615D01*
X133966844Y-89860067D01*
X133963132Y-89846443D01*
X133946271Y-89829200D01*
X133939915Y-89822905D01*
X133916479Y-89795402D01*
X133894720Y-89764790D01*
X133894514Y-89764464D01*
X133879755Y-89738377D01*
X133876078Y-89721994D01*
X133882145Y-89709416D01*
X133883933Y-89707571D01*
X133905224Y-89699594D01*
X133937720Y-89699783D01*
X133975524Y-89707555D01*
X134012741Y-89722327D01*
X134018285Y-89725176D01*
X134037827Y-89733045D01*
X134051117Y-89729223D01*
X134067580Y-89711923D01*
X134090657Y-89685094D01*
X134061097Y-89648166D01*
X134054712Y-89639817D01*
X134032710Y-89606270D01*
X134016365Y-89574729D01*
X134007828Y-89551498D01*
X134007185Y-89536758D01*
X134015504Y-89526345D01*
X134023938Y-89521748D01*
X134052645Y-89520077D01*
X134091583Y-89530059D01*
X134137127Y-89550959D01*
X134178621Y-89573705D01*
X134228797Y-89523529D01*
X134199805Y-89483507D01*
X134178190Y-89448682D01*
X134162431Y-89411743D01*
X134156354Y-89380663D01*
X134161454Y-89360249D01*
X134171320Y-89354406D01*
X134197696Y-89355714D01*
X134235273Y-89369488D01*
X134281866Y-89395096D01*
X134328340Y-89423986D01*
X134353939Y-89398386D01*
X134360164Y-89392129D01*
X134372635Y-89376901D01*
X134372362Y-89364441D01*
X134360434Y-89345958D01*
X134349355Y-89327545D01*
X134335329Y-89294485D01*
X134325994Y-89260652D01*
X134322898Y-89232200D01*
X134327587Y-89215284D01*
X134341331Y-89208757D01*
X134368940Y-89211520D01*
X134402943Y-89226494D01*
X134439154Y-89252291D01*
X134440962Y-89253833D01*
X134466610Y-89273513D01*
X134484155Y-89280628D01*
X134498649Y-89277300D01*
X134502469Y-89275208D01*
X134527020Y-89256439D01*
X134533697Y-89235126D01*
X134524241Y-89206451D01*
X134516906Y-89189426D01*
X134506791Y-89153991D01*
X134502056Y-89119277D01*
X134503300Y-89091263D01*
X134511125Y-89075934D01*
X134524773Y-89073485D01*
X134551911Y-89082045D01*
X134585534Y-89102590D01*
X134621947Y-89133210D01*
X134640469Y-89150437D01*
X134656118Y-89160879D01*
X134669853Y-89160852D01*
X134688533Y-89152324D01*
X134718806Y-89136669D01*
X134704720Y-89089864D01*
X134699956Y-89072698D01*
X134691762Y-89024985D01*
X134693654Y-88988492D01*
X134705610Y-88966257D01*
X134716579Y-88960674D01*
X134731826Y-88964415D01*
X134755558Y-88980502D01*
X134760168Y-88984122D01*
X134790708Y-89011738D01*
X134817300Y-89040726D01*
X134828545Y-89054563D01*
X134842334Y-89067062D01*
X134856091Y-89067535D01*
X134877655Y-89058260D01*
X134883591Y-89055300D01*
X134902919Y-89041016D01*
X134904726Y-89026741D01*
X134897874Y-89004032D01*
X134893485Y-88968449D01*
X134894051Y-88931619D01*
X134899059Y-88898802D01*
X134907999Y-88875255D01*
X134920357Y-88866237D01*
X134921344Y-88866301D01*
X134937844Y-88874668D01*
X134960946Y-88893661D01*
X134985684Y-88918360D01*
X135007089Y-88943842D01*
X135020197Y-88965185D01*
X135021196Y-88967579D01*
X135030558Y-88984870D01*
X135042995Y-88989110D01*
X135066366Y-88983399D01*
X135083732Y-88977381D01*
X135095359Y-88968306D01*
X135099874Y-88951492D01*
X135100634Y-88920810D01*
X135101006Y-88896340D01*
X135105551Y-88845606D01*
X135115381Y-88813982D01*
X135130643Y-88801298D01*
X135151486Y-88807386D01*
X135178056Y-88832075D01*
X135186752Y-88842745D01*
X135208354Y-88874612D01*
X135222777Y-88903400D01*
X135228653Y-88917752D01*
X135239905Y-88931647D01*
X135255354Y-88931960D01*
X135268456Y-88929073D01*
X135291818Y-88926374D01*
X135292839Y-88926341D01*
X135302145Y-88921269D01*
X135306930Y-88904667D01*
X135308487Y-88872348D01*
X135308676Y-88864948D01*
X135313855Y-88824598D01*
X135324617Y-88789825D01*
X135339032Y-88765436D01*
X135355164Y-88756237D01*
X135366361Y-88759998D01*
X135386595Y-88779171D01*
X135407582Y-88811090D01*
X135426386Y-88851815D01*
X135432488Y-88867199D01*
X135443365Y-88886700D01*
X135457345Y-88894695D01*
X135480593Y-88896237D01*
X135517835Y-88896237D01*
X135523420Y-88842129D01*
X135528612Y-88810379D01*
X135541804Y-88771519D01*
X135559863Y-88745641D01*
X135580892Y-88736237D01*
X135586823Y-88737862D01*
X135603266Y-88753353D01*
X135620581Y-88781192D01*
X135635981Y-88816396D01*
X135646681Y-88853977D01*
X135646822Y-88854679D01*
X135653213Y-88875659D01*
X135665450Y-88884455D01*
X135690567Y-88886237D01*
X135700342Y-88886160D01*
X135719706Y-88883285D01*
X135728641Y-88871985D01*
X135733328Y-88846518D01*
X135735140Y-88835986D01*
X135746402Y-88800322D01*
X135763171Y-88768264D01*
X135782217Y-88745130D01*
X135800310Y-88736237D01*
X135803594Y-88736637D01*
X135820521Y-88749232D01*
X135836859Y-88776028D01*
X135850266Y-88812303D01*
X135858399Y-88853336D01*
X135860380Y-88869453D01*
X135865572Y-88888023D01*
X135877188Y-88895106D01*
X135900684Y-88896237D01*
X135923861Y-88894786D01*
X135937368Y-88887069D01*
X135943814Y-88868737D01*
X135951916Y-88844704D01*
X135967808Y-88814245D01*
X135987186Y-88785683D01*
X136006266Y-88764515D01*
X136021263Y-88756237D01*
X136032508Y-88760164D01*
X136048111Y-88781150D01*
X136060302Y-88818139D01*
X136068083Y-88868737D01*
X136071392Y-88893316D01*
X136077605Y-88917184D01*
X136084522Y-88926374D01*
X136095199Y-88927574D01*
X136117573Y-88932394D01*
X136128968Y-88933944D01*
X136141867Y-88926673D01*
X136153822Y-88904030D01*
X136167081Y-88879220D01*
X136186889Y-88850495D01*
X136208769Y-88823721D01*
X136228581Y-88803951D01*
X136242180Y-88796237D01*
X136251235Y-88801020D01*
X136263020Y-88821026D01*
X136272386Y-88851575D01*
X136277780Y-88887155D01*
X136277650Y-88922254D01*
X136275212Y-88950268D01*
X136277036Y-88967658D01*
X136286297Y-88976764D01*
X136305783Y-88983669D01*
X136322487Y-88988185D01*
X136337010Y-88987333D01*
X136349614Y-88975992D01*
X136366427Y-88950844D01*
X136375156Y-88938005D01*
X136399568Y-88908097D01*
X136422735Y-88886265D01*
X136438005Y-88875911D01*
X136453905Y-88870937D01*
X136467381Y-88877688D01*
X136472796Y-88883716D01*
X136478303Y-88899256D01*
X136480021Y-88925653D01*
X136478505Y-88967388D01*
X136474061Y-89044168D01*
X136505739Y-89059274D01*
X136510691Y-89061622D01*
X136530234Y-89068824D01*
X136542101Y-89064039D01*
X136554949Y-89044703D01*
X136570366Y-89024239D01*
X136595663Y-88999820D01*
X136623597Y-88978879D01*
X136648907Y-88965280D01*
X136666331Y-88962889D01*
X136669066Y-88964645D01*
X136676860Y-88981704D01*
X136680446Y-89010500D01*
X136679835Y-89044842D01*
X136675039Y-89078537D01*
X136666070Y-89105394D01*
X136662038Y-89113358D01*
X136657277Y-89128694D01*
X136664369Y-89139374D01*
X136686287Y-89152289D01*
X136721069Y-89171020D01*
X136743351Y-89144318D01*
X136754477Y-89132203D01*
X136782267Y-89108017D01*
X136812072Y-89087793D01*
X136838518Y-89074937D01*
X136856229Y-89072850D01*
X136865255Y-89083612D01*
X136870237Y-89108843D01*
X136869503Y-89142124D01*
X136863252Y-89177542D01*
X136851679Y-89209187D01*
X136832725Y-89246365D01*
X136861173Y-89266621D01*
X136889621Y-89286878D01*
X136935897Y-89251555D01*
X136975590Y-89224835D01*
X137014734Y-89208522D01*
X137044410Y-89209384D01*
X137048118Y-89212000D01*
X137053193Y-89229865D01*
X137050150Y-89259269D01*
X137039790Y-89295566D01*
X137022914Y-89334108D01*
X137002148Y-89373947D01*
X137029844Y-89400481D01*
X137031191Y-89401769D01*
X137049433Y-89417406D01*
X137060617Y-89419951D01*
X137070858Y-89410967D01*
X137071939Y-89409710D01*
X137096604Y-89389988D01*
X137132551Y-89370623D01*
X137172028Y-89355837D01*
X137192550Y-89352791D01*
X137210703Y-89361322D01*
X137212972Y-89364849D01*
X137216023Y-89388224D01*
X137209379Y-89420272D01*
X137194808Y-89454962D01*
X137174078Y-89486262D01*
X137148048Y-89517197D01*
X137171841Y-89544217D01*
X137174998Y-89547815D01*
X137190333Y-89565692D01*
X137197607Y-89574878D01*
X137197850Y-89575106D01*
X137207287Y-89571067D01*
X137225223Y-89558347D01*
X137225793Y-89557903D01*
X137251505Y-89543140D01*
X137284310Y-89530816D01*
X137317931Y-89522496D01*
X137346094Y-89519744D01*
X137362521Y-89524125D01*
X137363598Y-89525345D01*
X137367227Y-89544545D01*
X137359397Y-89573530D01*
X137341889Y-89607719D01*
X137316485Y-89642532D01*
X137282927Y-89681737D01*
X137304562Y-89708869D01*
X137326197Y-89736002D01*
X137378522Y-89716120D01*
X137412961Y-89704795D01*
X137453351Y-89697238D01*
X137482355Y-89699302D01*
X137496970Y-89711114D01*
X137496069Y-89727116D01*
X137485272Y-89753835D01*
X137467455Y-89784347D01*
X137446036Y-89812879D01*
X137424432Y-89833656D01*
X137419679Y-89837131D01*
X137405427Y-89849787D01*
X137404788Y-89861850D01*
X137416288Y-89882076D01*
X137418289Y-89885271D01*
X137430036Y-89904264D01*
X137435120Y-89912918D01*
X137440680Y-89912227D01*
X137460868Y-89907638D01*
X137490647Y-89900050D01*
X137512853Y-89895165D01*
X137549797Y-89890613D01*
X137578134Y-89891323D01*
X137592618Y-89895105D01*
X137608303Y-89907371D01*
X137607460Y-89926960D01*
X137589870Y-89954840D01*
X137555313Y-89991980D01*
X137499992Y-90045990D01*
X137515833Y-90076623D01*
X137524116Y-90090950D01*
X137536808Y-90101630D01*
X137553653Y-90099246D01*
X137562440Y-90097000D01*
X137589337Y-90093952D01*
X137623030Y-90092815D01*
X137656840Y-90093536D01*
X137684083Y-90096065D01*
X137698081Y-90100351D01*
X137698116Y-90100387D01*
X137700502Y-90115599D01*
X137690172Y-90138602D01*
X137670529Y-90165381D01*
X137644975Y-90191917D01*
X137616915Y-90214195D01*
X137589751Y-90228198D01*
X137585780Y-90230394D01*
X137582877Y-90242064D01*
X137589122Y-90266718D01*
X137600494Y-90301237D01*
X137658064Y-90298003D01*
X137697771Y-90298070D01*
X137735879Y-90303819D01*
X137761352Y-90314740D01*
X137770634Y-90329826D01*
X137770541Y-90331078D01*
X137761436Y-90347807D01*
X137741143Y-90369916D01*
X137714937Y-90392759D01*
X137688093Y-90411691D01*
X137665886Y-90422068D01*
X137664482Y-90422434D01*
X137646678Y-90432285D01*
X137641249Y-90451356D01*
X137646936Y-90483737D01*
X137648194Y-90487943D01*
X137655813Y-90499667D01*
X137671875Y-90504985D01*
X137702121Y-90506237D01*
X137712315Y-90506463D01*
X137752438Y-90511513D01*
X137787095Y-90521829D01*
X137811441Y-90535583D01*
X137820634Y-90550947D01*
X137820546Y-90552061D01*
X137810720Y-90566977D01*
X137788334Y-90585906D01*
X137758690Y-90605334D01*
X137727094Y-90621746D01*
X137698850Y-90631629D01*
X137697923Y-90631836D01*
X137677427Y-90640276D01*
X137674928Y-90653005D01*
X137678327Y-90666652D01*
X137680634Y-90692055D01*
X137682753Y-90707208D01*
X137693347Y-90714665D01*
X137718134Y-90716457D01*
X137740002Y-90718296D01*
X137775870Y-90727188D01*
X137808224Y-90741164D01*
X137831625Y-90757664D01*
X137840634Y-90774126D01*
X137839146Y-90779240D01*
X137824521Y-90795016D01*
X137798807Y-90812732D01*
X137767618Y-90829261D01*
X137736565Y-90841472D01*
X137711263Y-90846237D01*
X137697599Y-90849624D01*
X137690634Y-90866237D01*
X137690159Y-90871617D01*
X137687206Y-90876330D01*
X137679583Y-90879900D01*
X137665100Y-90882481D01*
X137641567Y-90884231D01*
X137606794Y-90885305D01*
X137558590Y-90885861D01*
X137494767Y-90886053D01*
X137413134Y-90886039D01*
X137135634Y-90885841D01*
X137105634Y-90834803D01*
X137092152Y-90814374D01*
X137059311Y-90772750D01*
X137017006Y-90725259D01*
X136969188Y-90675918D01*
X136919812Y-90628743D01*
X136872831Y-90587752D01*
X136832196Y-90556961D01*
X136736798Y-90499720D01*
X136629856Y-90449194D01*
X136524245Y-90412405D01*
X136473163Y-90398804D01*
X136423841Y-90387278D01*
X136385075Y-90380026D01*
X136359720Y-90377573D01*
X136350634Y-90380445D01*
X136352274Y-90384696D01*
X136362592Y-90401797D01*
X136379252Y-90425917D01*
X136386880Y-90436862D01*
X136406531Y-90468491D01*
X136420224Y-90495249D01*
X136421572Y-90498444D01*
X136429166Y-90512495D01*
X136440213Y-90522174D01*
X136458821Y-90529134D01*
X136489092Y-90535027D01*
X136535133Y-90541507D01*
X136610762Y-90557706D01*
X136703058Y-90592046D01*
X136794420Y-90640351D01*
X136880633Y-90700006D01*
X136957483Y-90768395D01*
X137020756Y-90842903D01*
X137051876Y-90886237D01*
X136661404Y-90886237D01*
X136650830Y-90846968D01*
X136635618Y-90811375D01*
X136605748Y-90778119D01*
X136567582Y-90757643D01*
X136525065Y-90749948D01*
X136482146Y-90755032D01*
X136442770Y-90772897D01*
X136410885Y-90803542D01*
X136390437Y-90846968D01*
X136379863Y-90886237D01*
X135790634Y-90886237D01*
X135790634Y-90786237D01*
X135590634Y-90786237D01*
X135590634Y-90886237D01*
X134992859Y-90886237D01*
X134986504Y-90852358D01*
X134985774Y-90848849D01*
X134967258Y-90809147D01*
X134933701Y-90776272D01*
X134889589Y-90754743D01*
X134874569Y-90751428D01*
X134831342Y-90752977D01*
X134789764Y-90768081D01*
X134754405Y-90793760D01*
X134729838Y-90827033D01*
X134720634Y-90864918D01*
X134720489Y-90869547D01*
X134718505Y-90875653D01*
X134712091Y-90880052D01*
X134698651Y-90883024D01*
X134675593Y-90884849D01*
X134640319Y-90885807D01*
X134590235Y-90886176D01*
X134522746Y-90886237D01*
X134324859Y-90886237D01*
X134293215Y-90833737D01*
X134260913Y-90774221D01*
X134222996Y-90689964D01*
X134188545Y-90598443D01*
X134160130Y-90506593D01*
X134140322Y-90421348D01*
X134127467Y-90351458D01*
X134108260Y-90406348D01*
X134107537Y-90408422D01*
X134096684Y-90446000D01*
X134094100Y-90478059D01*
X134098783Y-90516237D01*
X134112018Y-90577608D01*
X134146700Y-90688954D01*
X134194005Y-90799601D01*
X134236422Y-90886237D01*
X133963528Y-90886237D01*
X133895509Y-90886210D01*
X133829457Y-90886011D01*
X133779377Y-90885480D01*
X133743060Y-90884454D01*
X133718298Y-90882771D01*
X133702882Y-90880270D01*
X133694605Y-90876788D01*
X133691258Y-90872165D01*
X133690634Y-90866237D01*
X133686449Y-90852103D01*
X133668134Y-90846018D01*
X133642094Y-90841065D01*
X133607142Y-90827981D01*
X133573125Y-90810655D01*
X133548806Y-90792981D01*
X133538698Y-90784230D01*
X133526894Y-90783280D01*
X133509127Y-90795273D01*
X133500003Y-90801445D01*
X133470462Y-90816486D01*
X133434511Y-90830990D01*
X133400127Y-90841919D01*
X133375284Y-90846237D01*
X133366730Y-90850026D01*
X133360634Y-90866237D01*
X133360598Y-90867993D01*
X133359725Y-90871847D01*
X133356552Y-90875117D01*
X133349604Y-90877849D01*
X133337405Y-90880093D01*
X133318481Y-90881896D01*
X133291356Y-90883307D01*
X133254557Y-90884373D01*
X133206607Y-90885144D01*
X133146032Y-90885666D01*
X133071357Y-90885988D01*
X132981106Y-90886159D01*
X132873806Y-90886226D01*
X132747981Y-90886237D01*
X132135328Y-90886237D01*
X132117665Y-90836505D01*
X132099816Y-90797867D01*
X132066987Y-90760109D01*
X132022795Y-90738270D01*
X131965634Y-90731237D01*
X131922209Y-90735026D01*
X131874755Y-90752856D01*
X131839089Y-90786312D01*
X131813602Y-90836505D01*
X131795939Y-90886237D01*
X131133190Y-90886237D01*
X131126748Y-90848737D01*
X131114351Y-90812005D01*
X131085196Y-90773436D01*
X131044941Y-90744945D01*
X130997960Y-90728626D01*
X130948631Y-90726573D01*
X130901328Y-90740878D01*
X130897220Y-90743104D01*
X130860279Y-90772283D01*
X130830900Y-90810916D01*
X130814918Y-90851532D01*
X130808408Y-90886237D01*
X130101632Y-90886237D01*
X130095634Y-90771237D01*
X129978134Y-90769613D01*
X129860634Y-90767988D01*
X129860634Y-90886237D01*
X129155328Y-90886237D01*
X129137665Y-90836505D01*
X129119816Y-90797867D01*
X129086987Y-90760109D01*
X129042795Y-90738270D01*
X128985634Y-90731237D01*
X128942209Y-90735026D01*
X128894755Y-90752856D01*
X128859089Y-90786312D01*
X128833602Y-90836505D01*
X128815939Y-90886237D01*
X128153190Y-90886237D01*
X128146748Y-90848737D01*
X128134351Y-90812005D01*
X128105196Y-90773436D01*
X128064941Y-90744945D01*
X128017960Y-90728626D01*
X127968631Y-90726573D01*
X127921328Y-90740878D01*
X127917220Y-90743104D01*
X127880279Y-90772283D01*
X127850900Y-90810916D01*
X127834918Y-90851532D01*
X127828408Y-90886237D01*
X127211638Y-90886237D01*
X127085979Y-90886216D01*
X126978818Y-90886124D01*
X126888687Y-90885917D01*
X126814115Y-90885551D01*
X126753633Y-90884982D01*
X126705771Y-90884165D01*
X126669058Y-90883058D01*
X126642027Y-90881615D01*
X126623206Y-90879793D01*
X126611126Y-90877547D01*
X126604317Y-90874834D01*
X126601309Y-90871609D01*
X126600634Y-90867829D01*
X126596506Y-90856408D01*
X126580084Y-90846579D01*
X126547521Y-90837534D01*
X126529815Y-90832776D01*
X126489714Y-90817663D01*
X126456770Y-90800072D01*
X126449891Y-90795450D01*
X126428415Y-90783034D01*
X126414724Y-90781368D01*
X126402383Y-90789161D01*
X126397942Y-90792878D01*
X126364586Y-90814276D01*
X126327613Y-90830075D01*
X126296130Y-90836237D01*
X126290651Y-90836381D01*
X126274659Y-90842332D01*
X126270634Y-90861237D01*
X126270634Y-90886237D01*
X125718741Y-90886237D01*
X125648369Y-90810884D01*
X125627649Y-90789080D01*
X125598180Y-90759401D01*
X125574618Y-90737259D01*
X125560733Y-90726291D01*
X125557997Y-90724876D01*
X125549040Y-90722934D01*
X125547086Y-90732502D01*
X125550877Y-90757570D01*
X125552572Y-90765356D01*
X125569143Y-90802741D01*
X125601542Y-90842163D01*
X125644798Y-90886237D01*
X125040634Y-90886237D01*
X125039049Y-90843737D01*
X125038762Y-90834877D01*
X125038363Y-90804604D01*
X125038931Y-90783737D01*
X125039024Y-90781580D01*
X125036635Y-90774707D01*
X125027370Y-90770242D01*
X125007948Y-90767680D01*
X124975090Y-90766514D01*
X124925516Y-90766237D01*
X124810634Y-90766237D01*
X124810634Y-90886237D01*
X124201038Y-90886237D01*
X124170820Y-90833737D01*
X124147884Y-90790795D01*
X124120312Y-90725306D01*
X124099146Y-90652965D01*
X124082218Y-90567252D01*
X124064943Y-90462067D01*
X124047788Y-90506987D01*
X124042802Y-90520805D01*
X124034084Y-90549910D01*
X124030634Y-90569493D01*
X124030707Y-90573532D01*
X124035401Y-90612198D01*
X124046128Y-90661684D01*
X124061079Y-90715405D01*
X124078448Y-90766778D01*
X124096427Y-90809217D01*
X124100106Y-90816685D01*
X124115621Y-90848732D01*
X124126519Y-90872159D01*
X124130634Y-90882334D01*
X124130415Y-90882489D01*
X124118089Y-90883487D01*
X124088667Y-90884383D01*
X124044681Y-90885142D01*
X123988659Y-90885727D01*
X123923134Y-90886104D01*
X123850634Y-90886237D01*
X123570634Y-90886237D01*
X123570634Y-90862516D01*
X123568943Y-90849680D01*
X123558318Y-90839019D01*
X123533134Y-90832731D01*
X123522629Y-90830614D01*
X123485616Y-90817142D01*
X123452897Y-90797143D01*
X123429545Y-90774253D01*
X123420634Y-90752108D01*
X123424656Y-90736196D01*
X123439721Y-90722467D01*
X123469987Y-90707469D01*
X123487572Y-90700706D01*
X123524515Y-90690326D01*
X123554987Y-90686237D01*
X123574497Y-90685244D01*
X123587586Y-90678962D01*
X123590770Y-90663737D01*
X123591703Y-90648446D01*
X123596356Y-90620958D01*
X123597647Y-90612309D01*
X123590899Y-90599483D01*
X123568379Y-90588592D01*
X123562857Y-90586374D01*
X123534906Y-90569991D01*
X123506799Y-90546991D01*
X123482784Y-90521725D01*
X123467114Y-90498542D01*
X123464037Y-90481793D01*
X123467797Y-90475033D01*
X123491180Y-90458167D01*
X123530898Y-90447027D01*
X123584625Y-90442375D01*
X123592021Y-90442228D01*
X123622036Y-90440791D01*
X123638910Y-90436039D01*
X123648436Y-90424900D01*
X123649853Y-90421237D01*
X124468245Y-90421237D01*
X124503455Y-90387730D01*
X124505216Y-90386037D01*
X124532480Y-90351373D01*
X124544989Y-90312048D01*
X124550716Y-90284092D01*
X124564268Y-90247679D01*
X125095743Y-90247679D01*
X125104141Y-90253699D01*
X125129430Y-90261962D01*
X125154294Y-90268108D01*
X125182129Y-90268734D01*
X125214077Y-90259987D01*
X125244793Y-90251912D01*
X125286874Y-90244536D01*
X125330634Y-90239631D01*
X125396780Y-90240005D01*
X125479969Y-90251867D01*
X125563618Y-90274409D01*
X125640185Y-90306011D01*
X125670841Y-90321072D01*
X125694786Y-90332047D01*
X125706189Y-90336237D01*
X125706067Y-90333106D01*
X125697172Y-90318452D01*
X125680334Y-90295859D01*
X125646735Y-90261394D01*
X125596184Y-90229648D01*
X125530577Y-90206055D01*
X125527735Y-90205288D01*
X125442332Y-90189667D01*
X125351835Y-90185672D01*
X125261864Y-90192866D01*
X125178041Y-90210812D01*
X125105987Y-90239072D01*
X125101692Y-90241417D01*
X125095743Y-90247679D01*
X124564268Y-90247679D01*
X124576937Y-90213636D01*
X124619008Y-90140910D01*
X124674758Y-90068876D01*
X124742014Y-90000498D01*
X124818605Y-89938737D01*
X124837553Y-89924686D01*
X124852711Y-89911957D01*
X124854894Y-89907574D01*
X124850513Y-89908200D01*
X124829642Y-89911156D01*
X124800395Y-89915282D01*
X124785413Y-89917924D01*
X124752134Y-89928879D01*
X124719247Y-89948496D01*
X124682869Y-89979399D01*
X124639116Y-90024209D01*
X124583465Y-90095202D01*
X124533398Y-90183229D01*
X124496234Y-90277351D01*
X124474966Y-90371237D01*
X124468245Y-90421237D01*
X123649853Y-90421237D01*
X123656407Y-90404301D01*
X123660137Y-90393315D01*
X123664063Y-90373803D01*
X123656899Y-90361365D01*
X123635514Y-90347492D01*
X123625893Y-90340956D01*
X123598303Y-90315732D01*
X123574330Y-90286062D01*
X123560410Y-90262542D01*
X123553147Y-90237764D01*
X123561825Y-90221990D01*
X123587639Y-90213666D01*
X123631782Y-90211237D01*
X123662663Y-90212049D01*
X123695534Y-90214796D01*
X123716246Y-90218812D01*
X123728934Y-90221089D01*
X123741092Y-90213129D01*
X123754284Y-90189844D01*
X123771710Y-90153301D01*
X123741679Y-90122269D01*
X123718474Y-90093442D01*
X123697852Y-90056535D01*
X123686237Y-90021434D01*
X123686268Y-89994238D01*
X123688437Y-89988378D01*
X123696368Y-89979450D01*
X123712593Y-89977025D01*
X123742805Y-89979631D01*
X123757292Y-89981908D01*
X123795252Y-89991912D01*
X123825811Y-90005017D01*
X123835957Y-90010953D01*
X123853360Y-90018992D01*
X123864759Y-90016404D01*
X123878228Y-90002859D01*
X123892254Y-89986394D01*
X123903769Y-89965505D01*
X123901599Y-89945625D01*
X123886498Y-89919088D01*
X123878908Y-89906601D01*
X123862153Y-89870581D01*
X123851470Y-89834898D01*
X123848246Y-89805166D01*
X123853868Y-89787003D01*
X123861341Y-89781643D01*
X123888490Y-89777009D01*
X123923460Y-89784247D01*
X123961471Y-89801968D01*
X123997744Y-89828785D01*
X124019855Y-89848993D01*
X124053418Y-89819524D01*
X124086981Y-89790056D01*
X124068899Y-89755213D01*
X124064408Y-89745531D01*
X124052227Y-89709541D01*
X124044162Y-89671813D01*
X124044121Y-89671516D01*
X124041356Y-89640322D01*
X124044712Y-89622027D01*
X124055359Y-89610201D01*
X124055524Y-89610081D01*
X124069729Y-89603403D01*
X124086989Y-89605752D01*
X124114173Y-89618043D01*
X124121983Y-89622284D01*
X124155490Y-89644734D01*
X124183205Y-89668990D01*
X124211276Y-89699041D01*
X124246449Y-89680139D01*
X124262387Y-89670661D01*
X124275482Y-89656867D01*
X124275138Y-89641237D01*
X124271908Y-89626988D01*
X124267376Y-89596627D01*
X124263591Y-89560504D01*
X124263083Y-89554119D01*
X124261971Y-89519263D01*
X124265753Y-89497469D01*
X124275295Y-89483004D01*
X124287835Y-89472673D01*
X124302388Y-89466237D01*
X124304978Y-89467105D01*
X124320144Y-89478122D01*
X124343766Y-89499142D01*
X124371958Y-89526782D01*
X124373244Y-89528096D01*
X124401813Y-89556873D01*
X124420953Y-89573684D01*
X124435057Y-89580782D01*
X124448517Y-89580418D01*
X124465725Y-89574843D01*
X124471084Y-89572879D01*
X124490547Y-89563326D01*
X124496772Y-89549995D01*
X124494276Y-89525000D01*
X124492837Y-89494981D01*
X124496630Y-89458297D01*
X124504579Y-89423131D01*
X124515263Y-89395644D01*
X124527262Y-89381996D01*
X124541961Y-89381811D01*
X124563482Y-89391107D01*
X124577669Y-89403867D01*
X124598782Y-89428875D01*
X124619174Y-89457828D01*
X124634554Y-89484519D01*
X124640633Y-89502742D01*
X124640679Y-89503685D01*
X124650455Y-89513408D01*
X124674086Y-89515770D01*
X124706943Y-89510246D01*
X124718967Y-89504255D01*
X124727848Y-89488334D01*
X124732759Y-89457882D01*
X124734065Y-89446872D01*
X124743282Y-89405326D01*
X124757353Y-89369991D01*
X124774080Y-89345438D01*
X124791264Y-89336237D01*
X124793239Y-89336354D01*
X124813464Y-89346985D01*
X124835536Y-89371558D01*
X124855961Y-89405375D01*
X124871242Y-89443737D01*
X124876160Y-89459678D01*
X124885158Y-89477977D01*
X124899462Y-89485058D01*
X124925908Y-89486237D01*
X124937868Y-89486140D01*
X124958828Y-89483480D01*
X124968581Y-89473722D01*
X124973522Y-89452311D01*
X124979036Y-89429915D01*
X124993886Y-89395264D01*
X125013382Y-89365151D01*
X125034130Y-89344468D01*
X125052735Y-89338110D01*
X125072802Y-89349831D01*
X125091446Y-89376776D01*
X125105598Y-89413902D01*
X125112735Y-89456237D01*
X125114624Y-89474279D01*
X125123513Y-89498455D01*
X125143020Y-89510740D01*
X125177666Y-89515241D01*
X125188235Y-89513904D01*
X125203466Y-89501710D01*
X125218866Y-89473737D01*
X125226260Y-89458970D01*
X125248234Y-89425813D01*
X125273004Y-89398985D01*
X125296633Y-89382327D01*
X125315187Y-89379682D01*
X125319457Y-89381751D01*
X125336703Y-89403275D01*
X125347132Y-89443189D01*
X125350634Y-89501113D01*
X125350634Y-89564686D01*
X125386304Y-89576459D01*
X125392605Y-89578471D01*
X125414371Y-89584198D01*
X125424375Y-89584734D01*
X125450184Y-89549736D01*
X125485761Y-89509921D01*
X125518121Y-89483340D01*
X125545292Y-89471515D01*
X125565306Y-89475966D01*
X125576717Y-89490285D01*
X125585943Y-89526503D01*
X125583499Y-89578271D01*
X125569374Y-89645152D01*
X125569263Y-89648121D01*
X125578459Y-89662992D01*
X125598844Y-89678988D01*
X125632055Y-89698909D01*
X125668844Y-89663061D01*
X125676192Y-89656150D01*
X125710417Y-89629487D01*
X125743485Y-89611414D01*
X125771141Y-89603856D01*
X125789128Y-89608732D01*
X125792914Y-89613900D01*
X125799573Y-89639460D01*
X125799388Y-89674894D01*
X125792778Y-89713661D01*
X125780159Y-89749221D01*
X125759684Y-89791237D01*
X125791176Y-89817815D01*
X125822667Y-89844392D01*
X125866194Y-89813711D01*
X125895352Y-89797055D01*
X125930437Y-89784798D01*
X125962535Y-89780484D01*
X125986808Y-89784687D01*
X125998413Y-89797984D01*
X125998506Y-89820532D01*
X125989990Y-89856847D01*
X125974466Y-89894546D01*
X125954719Y-89925501D01*
X125929331Y-89955673D01*
X125956658Y-89989921D01*
X125983985Y-90024170D01*
X126022845Y-90003915D01*
X126027979Y-90001324D01*
X126068124Y-89986030D01*
X126107007Y-89978593D01*
X126139196Y-89979587D01*
X126159258Y-89989580D01*
X126163190Y-89998014D01*
X126161885Y-90023364D01*
X126150059Y-90055765D01*
X126129837Y-90090196D01*
X126103344Y-90121641D01*
X126073074Y-90151237D01*
X126092480Y-90189567D01*
X126102787Y-90207927D01*
X126115555Y-90220954D01*
X126128760Y-90220071D01*
X126144997Y-90215866D01*
X126175464Y-90211542D01*
X126212359Y-90208452D01*
X126247018Y-90207072D01*
X126269464Y-90208638D01*
X126282164Y-90214465D01*
X126290352Y-90225711D01*
X126294200Y-90239671D01*
X126286969Y-90266328D01*
X126262666Y-90299066D01*
X126220677Y-90338880D01*
X126201527Y-90355835D01*
X126188948Y-90371332D01*
X126186834Y-90386548D01*
X126192373Y-90408390D01*
X126193147Y-90410907D01*
X126200148Y-90430141D01*
X126209656Y-90439895D01*
X126227498Y-90443173D01*
X126259506Y-90442977D01*
X126261963Y-90442930D01*
X126308206Y-90445792D01*
X126345921Y-90454949D01*
X126371325Y-90469034D01*
X126380634Y-90486683D01*
X126373727Y-90508708D01*
X126353169Y-90536378D01*
X126323713Y-90562728D01*
X126290188Y-90582635D01*
X126276055Y-90589533D01*
X126256275Y-90606094D01*
X126250673Y-90628950D01*
X126256936Y-90663737D01*
X126260970Y-90674060D01*
X126273941Y-90683752D01*
X126300105Y-90686237D01*
X126312071Y-90687122D01*
X126347367Y-90695234D01*
X126382352Y-90709074D01*
X126427460Y-90731911D01*
X126476547Y-90709203D01*
X126495584Y-90701003D01*
X126525398Y-90690465D01*
X126545634Y-90686230D01*
X126573950Y-90684518D01*
X126597393Y-90676500D01*
X126607707Y-90658751D01*
X126608628Y-90627804D01*
X126607717Y-90615575D01*
X126603649Y-90592738D01*
X126594256Y-90581542D01*
X126575634Y-90575836D01*
X126564081Y-90573042D01*
X126526709Y-90559005D01*
X126491076Y-90539360D01*
X126461466Y-90517162D01*
X126442163Y-90495465D01*
X126437452Y-90477324D01*
X126450054Y-90459718D01*
X126479311Y-90442287D01*
X126520853Y-90428353D01*
X126570664Y-90419656D01*
X126572600Y-90419452D01*
X126608563Y-90413501D01*
X126629006Y-90402303D01*
X126638220Y-90381338D01*
X126640497Y-90346085D01*
X126640474Y-90343754D01*
X126636420Y-90327900D01*
X126622189Y-90315852D01*
X126593134Y-90303426D01*
X126558346Y-90287206D01*
X126524646Y-90265435D01*
X126497063Y-90241913D01*
X126479592Y-90220061D01*
X126476226Y-90203300D01*
X126478531Y-90198978D01*
X126498459Y-90182844D01*
X126531888Y-90169203D01*
X126573647Y-90159764D01*
X126618562Y-90156237D01*
X126676086Y-90156237D01*
X126686469Y-90111486D01*
X126696852Y-90066734D01*
X126646118Y-90041912D01*
X126620619Y-90027931D01*
X126584541Y-90002618D01*
X126556209Y-89976120D01*
X126539011Y-89951797D01*
X126536337Y-89933011D01*
X126552285Y-89916901D01*
X126583935Y-89904925D01*
X126627151Y-89898201D01*
X126677837Y-89897749D01*
X126739010Y-89901237D01*
X126743778Y-89885292D01*
X127833536Y-89885292D01*
X127850634Y-89941239D01*
X127852167Y-89944316D01*
X127882889Y-89984804D01*
X127923742Y-90011560D01*
X127970599Y-90024602D01*
X128019335Y-90023948D01*
X128065824Y-90009617D01*
X128105939Y-89981625D01*
X128135554Y-89939992D01*
X128143936Y-89919343D01*
X128151025Y-89879694D01*
X128824174Y-89879694D01*
X128843134Y-89936538D01*
X128850231Y-89949557D01*
X128885255Y-89992442D01*
X128929832Y-90017851D01*
X128984612Y-90026200D01*
X128993115Y-90026006D01*
X129048326Y-90014437D01*
X129093840Y-89986364D01*
X129127410Y-89943694D01*
X129146792Y-89888338D01*
X129148584Y-89851571D01*
X129144102Y-89832775D01*
X129818430Y-89832775D01*
X129818623Y-89885059D01*
X129835713Y-89939992D01*
X129837222Y-89943081D01*
X129867637Y-89983837D01*
X129908287Y-90010950D01*
X129955044Y-90024402D01*
X130003784Y-90024175D01*
X130050379Y-90010251D01*
X130090704Y-89982612D01*
X130120633Y-89941239D01*
X130133956Y-89904158D01*
X130139254Y-89849543D01*
X130135578Y-89830205D01*
X130813097Y-89830205D01*
X130813141Y-89885397D01*
X130830634Y-89941239D01*
X130832167Y-89944316D01*
X130862889Y-89984804D01*
X130903742Y-90011560D01*
X130950599Y-90024602D01*
X130999335Y-90023948D01*
X131045824Y-90009617D01*
X131085939Y-89981625D01*
X131115554Y-89939992D01*
X131123936Y-89919343D01*
X131130999Y-89879838D01*
X131804213Y-89879838D01*
X131823134Y-89936538D01*
X131830849Y-89950612D01*
X131865875Y-89993024D01*
X131910487Y-90018033D01*
X131965634Y-90026237D01*
X131981551Y-90025651D01*
X132033631Y-90013046D01*
X132075655Y-89983458D01*
X132108779Y-89936157D01*
X132119777Y-89909020D01*
X132127224Y-89855644D01*
X132118648Y-89802892D01*
X132095214Y-89755753D01*
X132058088Y-89719217D01*
X132057695Y-89718951D01*
X132007269Y-89695826D01*
X131954386Y-89690704D01*
X131903324Y-89703283D01*
X131858358Y-89733262D01*
X131825309Y-89773725D01*
X131805026Y-89825061D01*
X131804213Y-89879838D01*
X131130999Y-89879838D01*
X131133850Y-89863895D01*
X131127123Y-89810243D01*
X131105209Y-89762143D01*
X131069563Y-89723351D01*
X131021641Y-89697623D01*
X131008621Y-89693530D01*
X130972836Y-89687178D01*
X130939736Y-89691972D01*
X130900294Y-89708737D01*
X130860892Y-89736665D01*
X130829386Y-89779387D01*
X130813097Y-89830205D01*
X130135578Y-89830205D01*
X130129307Y-89797216D01*
X130105192Y-89751743D01*
X130067983Y-89717689D01*
X130038375Y-89702700D01*
X129987337Y-89691090D01*
X129938867Y-89695844D01*
X129895353Y-89714675D01*
X129859184Y-89745297D01*
X129832747Y-89785426D01*
X129818430Y-89832775D01*
X129144102Y-89832775D01*
X129136588Y-89801264D01*
X129110778Y-89755192D01*
X129074238Y-89718434D01*
X129030051Y-89696070D01*
X128974885Y-89688967D01*
X128923528Y-89700986D01*
X128877024Y-89732406D01*
X128843899Y-89773201D01*
X128824553Y-89824498D01*
X128824174Y-89879694D01*
X128151025Y-89879694D01*
X128153850Y-89863895D01*
X128147123Y-89810243D01*
X128125209Y-89762143D01*
X128089563Y-89723351D01*
X128041641Y-89697623D01*
X128030208Y-89693952D01*
X128000605Y-89687692D01*
X127973238Y-89689790D01*
X127938039Y-89700531D01*
X127930858Y-89703159D01*
X127895528Y-89720060D01*
X127871118Y-89742643D01*
X127849903Y-89777670D01*
X127833802Y-89827827D01*
X127833536Y-89885292D01*
X126743778Y-89885292D01*
X126749822Y-89865077D01*
X126757448Y-89837286D01*
X126758897Y-89817770D01*
X126750986Y-89806254D01*
X126732203Y-89796888D01*
X126713364Y-89785747D01*
X126685201Y-89763731D01*
X126656176Y-89736788D01*
X126652918Y-89733461D01*
X126627323Y-89704733D01*
X126615355Y-89684256D01*
X126614902Y-89668542D01*
X126615410Y-89667143D01*
X126631397Y-89651698D01*
X126661581Y-89641128D01*
X126700987Y-89636103D01*
X126744638Y-89637289D01*
X126787560Y-89645356D01*
X126802921Y-89649286D01*
X126815955Y-89648118D01*
X126824922Y-89635903D01*
X126834965Y-89608660D01*
X126840116Y-89593015D01*
X126846629Y-89570717D01*
X126848104Y-89561278D01*
X126845763Y-89559846D01*
X126830789Y-89550793D01*
X126807177Y-89536568D01*
X126793320Y-89527096D01*
X126763645Y-89500392D01*
X126737083Y-89469157D01*
X126717968Y-89438849D01*
X126710634Y-89414928D01*
X126715519Y-89401944D01*
X126735998Y-89390252D01*
X126752056Y-89388102D01*
X126786774Y-89387701D01*
X126827709Y-89390076D01*
X126866880Y-89394690D01*
X126896305Y-89401010D01*
X126910094Y-89402249D01*
X126921965Y-89392384D01*
X126935197Y-89367205D01*
X126953419Y-89326797D01*
X126904526Y-89282578D01*
X126889198Y-89268091D01*
X126856393Y-89231561D01*
X126834359Y-89198316D01*
X126824808Y-89171301D01*
X126829454Y-89153461D01*
X126830430Y-89152584D01*
X126850533Y-89145354D01*
X126883147Y-89142617D01*
X126921923Y-89144151D01*
X126960511Y-89149737D01*
X126992561Y-89159151D01*
X127029488Y-89174738D01*
X127053510Y-89134061D01*
X127077533Y-89093384D01*
X127039496Y-89059021D01*
X127016680Y-89035460D01*
X126991320Y-89002486D01*
X126970985Y-88969092D01*
X126958622Y-88940223D01*
X126957176Y-88920824D01*
X126970594Y-88910631D01*
X126997977Y-88906303D01*
X127034059Y-88907840D01*
X127073655Y-88915015D01*
X127111584Y-88927600D01*
X127131675Y-88935813D01*
X127154213Y-88943648D01*
X127164176Y-88945100D01*
X127165197Y-88943697D01*
X127174609Y-88930291D01*
X127189597Y-88908675D01*
X127212085Y-88876112D01*
X127187616Y-88847526D01*
X128823247Y-88847526D01*
X128840485Y-88900580D01*
X128846527Y-88911810D01*
X128880842Y-88952580D01*
X128925130Y-88979580D01*
X128975062Y-88991602D01*
X129026307Y-88987438D01*
X129074536Y-88965880D01*
X129085547Y-88957518D01*
X129118881Y-88919377D01*
X129141989Y-88872660D01*
X129150634Y-88825199D01*
X129148741Y-88810318D01*
X129817879Y-88810318D01*
X129821496Y-88862020D01*
X129839451Y-88910854D01*
X129872215Y-88952506D01*
X129905178Y-88976039D01*
X129952586Y-88992396D01*
X130000478Y-88992557D01*
X130045744Y-88978199D01*
X130085276Y-88950996D01*
X130115963Y-88912625D01*
X130134698Y-88864760D01*
X130137304Y-88825249D01*
X130815634Y-88825249D01*
X130816063Y-88851989D01*
X130819381Y-88882610D01*
X130827681Y-88905638D01*
X130842961Y-88928623D01*
X130873143Y-88957866D01*
X130916563Y-88982124D01*
X130918714Y-88982941D01*
X130950464Y-88992876D01*
X130976774Y-88994141D01*
X131009235Y-88987396D01*
X131058139Y-88967080D01*
X131098972Y-88931652D01*
X131124268Y-88884135D01*
X131132941Y-88825946D01*
X131132938Y-88824897D01*
X131124688Y-88768924D01*
X131102109Y-88720271D01*
X131067555Y-88684045D01*
X131026946Y-88664913D01*
X130978803Y-88657156D01*
X130931154Y-88661381D01*
X130891553Y-88677852D01*
X130859393Y-88702816D01*
X130832955Y-88735049D01*
X130819432Y-88773795D01*
X130815634Y-88825249D01*
X130137304Y-88825249D01*
X130138370Y-88809078D01*
X130138351Y-88808848D01*
X130127419Y-88756454D01*
X130102558Y-88714780D01*
X130060735Y-88678737D01*
X130045462Y-88670159D01*
X129999862Y-88657824D01*
X129949725Y-88658631D01*
X129902815Y-88672868D01*
X129888333Y-88681121D01*
X129851769Y-88715556D01*
X129828127Y-88760059D01*
X129817879Y-88810318D01*
X129148741Y-88810318D01*
X129147059Y-88797094D01*
X129130252Y-88751560D01*
X129103643Y-88709403D01*
X129071655Y-88678818D01*
X129068686Y-88676894D01*
X129031814Y-88661023D01*
X128985634Y-88656237D01*
X128970103Y-88656796D01*
X128917810Y-88669349D01*
X128875803Y-88698864D01*
X128843134Y-88745937D01*
X128825013Y-88795427D01*
X128823247Y-88847526D01*
X127187616Y-88847526D01*
X127176925Y-88835036D01*
X127162540Y-88817338D01*
X127134829Y-88776691D01*
X127116121Y-88739338D01*
X127108054Y-88708968D01*
X127112265Y-88689272D01*
X127115710Y-88685980D01*
X127139432Y-88678273D01*
X127174603Y-88680028D01*
X127216595Y-88690618D01*
X127260778Y-88709414D01*
X127309980Y-88734941D01*
X127368350Y-88661237D01*
X127334834Y-88622467D01*
X127322571Y-88607195D01*
X127298422Y-88569373D01*
X127281605Y-88531905D01*
X127274057Y-88499698D01*
X127277715Y-88477661D01*
X127291468Y-88467324D01*
X127319871Y-88464362D01*
X127356696Y-88471758D01*
X127397737Y-88488568D01*
X127438790Y-88513846D01*
X127446954Y-88519706D01*
X127465508Y-88531639D01*
X127473790Y-88534697D01*
X127475233Y-88532712D01*
X127486386Y-88519568D01*
X127504455Y-88499261D01*
X127533277Y-88467384D01*
X127501827Y-88419902D01*
X127485043Y-88391659D01*
X127465346Y-88348071D01*
X127453955Y-88308185D01*
X127452933Y-88277984D01*
X127453131Y-88277153D01*
X127465075Y-88266269D01*
X127489483Y-88264706D01*
X127522078Y-88271247D01*
X127558584Y-88284673D01*
X127594725Y-88303768D01*
X127626222Y-88327314D01*
X127636130Y-88335836D01*
X127646874Y-88339593D01*
X127659403Y-88332272D01*
X127679724Y-88312176D01*
X127712637Y-88278218D01*
X127687199Y-88234728D01*
X127676192Y-88214230D01*
X127658609Y-88171486D01*
X127648378Y-88131424D01*
X127646517Y-88098842D01*
X127654045Y-88078540D01*
X127658095Y-88074901D01*
X127669758Y-88070359D01*
X127687431Y-88073740D01*
X127716972Y-88085712D01*
X127731455Y-88092592D01*
X127770213Y-88114454D01*
X127803158Y-88137184D01*
X127840682Y-88167219D01*
X127875283Y-88140827D01*
X127909884Y-88114436D01*
X127884616Y-88066112D01*
X127880757Y-88058381D01*
X127865694Y-88019579D01*
X127855892Y-87979801D01*
X127851959Y-87943904D01*
X127854509Y-87916748D01*
X127864149Y-87903191D01*
X127879514Y-87901505D01*
X127911361Y-87910738D01*
X127950362Y-87932840D01*
X127993221Y-87966203D01*
X128040588Y-88007897D01*
X128076431Y-87985745D01*
X128092781Y-87975250D01*
X128103734Y-87964282D01*
X128106002Y-87950066D01*
X128100146Y-87927438D01*
X128086730Y-87891237D01*
X128081903Y-87876603D01*
X128074143Y-87838551D01*
X128071447Y-87800247D01*
X128074027Y-87768164D01*
X128082092Y-87748779D01*
X128088058Y-87745262D01*
X128109773Y-87747042D01*
X128139421Y-87761460D01*
X128173594Y-87786588D01*
X128208883Y-87820496D01*
X128214841Y-87826947D01*
X128236242Y-87848925D01*
X128250533Y-87858833D01*
X128262877Y-87858988D01*
X128278433Y-87851705D01*
X128289898Y-87845480D01*
X128314106Y-87830996D01*
X128324479Y-87818985D01*
X128323785Y-87804043D01*
X128314793Y-87780769D01*
X128312774Y-87775564D01*
X128304180Y-87741874D01*
X128299315Y-87702569D01*
X128298390Y-87663920D01*
X128301613Y-87632198D01*
X128309195Y-87613676D01*
X128322080Y-87609321D01*
X128346187Y-87615977D01*
X128375719Y-87633404D01*
X128406869Y-87658832D01*
X128435831Y-87689490D01*
X128458800Y-87722606D01*
X128462582Y-87728823D01*
X128470590Y-87734765D01*
X128484479Y-87732331D01*
X128510321Y-87721378D01*
X128510569Y-87721266D01*
X128536116Y-87707961D01*
X128546410Y-87696277D01*
X128545265Y-87681909D01*
X128541522Y-87664482D01*
X128537122Y-87632594D01*
X128533522Y-87595050D01*
X128532326Y-87564010D01*
X128536153Y-87522013D01*
X128546943Y-87495484D01*
X128564185Y-87486237D01*
X128565871Y-87486359D01*
X128585084Y-87495323D01*
X128610915Y-87515327D01*
X128638650Y-87541904D01*
X128663575Y-87570586D01*
X128680974Y-87596904D01*
X128700624Y-87635422D01*
X128743129Y-87616943D01*
X128754017Y-87611791D01*
X128775808Y-87597255D01*
X128782223Y-87584851D01*
X128777579Y-87559588D01*
X128773738Y-87514200D01*
X128773708Y-87468035D01*
X128777783Y-87431237D01*
X128781761Y-87416222D01*
X128794759Y-87393023D01*
X128813271Y-87388092D01*
X128838135Y-87401447D01*
X128870187Y-87433104D01*
X128889408Y-87456557D01*
X128911778Y-87488120D01*
X128925829Y-87513248D01*
X128939296Y-87545479D01*
X128982465Y-87530794D01*
X129025634Y-87516108D01*
X129022346Y-87452665D01*
X129021690Y-87430281D01*
X129024265Y-87380853D01*
X129032105Y-87341552D01*
X129044375Y-87315604D01*
X129060240Y-87306237D01*
X129077296Y-87313117D01*
X129101058Y-87333598D01*
X129126378Y-87363160D01*
X129149369Y-87397217D01*
X129166143Y-87431181D01*
X129182158Y-87473114D01*
X129270634Y-87452868D01*
X129270634Y-87391045D01*
X129271041Y-87371414D01*
X129277221Y-87316925D01*
X129290116Y-87274881D01*
X129308792Y-87248760D01*
X129316174Y-87243968D01*
X129329765Y-87244328D01*
X129348503Y-87258760D01*
X129362304Y-87274494D01*
X129382375Y-87304112D01*
X129401209Y-87337705D01*
X129415172Y-87368647D01*
X129420634Y-87390315D01*
X129426043Y-87406775D01*
X129445016Y-87414018D01*
X129479684Y-87411398D01*
X129518001Y-87404924D01*
X129523001Y-87342629D01*
X129528664Y-87303291D01*
X129540742Y-87259660D01*
X129556650Y-87224768D01*
X129574300Y-87204243D01*
X129586140Y-87203725D01*
X129604829Y-87217162D01*
X129625617Y-87242643D01*
X129645966Y-87276407D01*
X129663339Y-87314692D01*
X129675196Y-87353737D01*
X129677009Y-87361210D01*
X129686911Y-87380720D01*
X129703928Y-87386101D01*
X129724098Y-87385287D01*
X129751536Y-87378305D01*
X129766689Y-87360984D01*
X129774322Y-87329490D01*
X129778885Y-87305846D01*
X129790189Y-87267408D01*
X129804716Y-87230274D01*
X129819987Y-87200528D01*
X129833522Y-87184250D01*
X129838876Y-87181566D01*
X129855634Y-87179696D01*
X129862366Y-87184921D01*
X129876600Y-87205476D01*
X129892791Y-87236233D01*
X129908403Y-87271725D01*
X129920899Y-87306487D01*
X129927743Y-87335055D01*
X129933399Y-87377220D01*
X129979516Y-87374229D01*
X130000467Y-87372585D01*
X130018544Y-87367781D01*
X130026722Y-87355669D01*
X130031000Y-87331237D01*
X130033582Y-87317236D01*
X130044931Y-87279631D01*
X130061229Y-87240528D01*
X130079342Y-87206926D01*
X130096134Y-87185822D01*
X130108363Y-87179089D01*
X130124538Y-87185328D01*
X130131675Y-87193102D01*
X130147800Y-87220489D01*
X130163386Y-87257274D01*
X130175696Y-87296507D01*
X130181993Y-87331237D01*
X130183732Y-87346053D01*
X130192755Y-87369819D01*
X130212364Y-87381738D01*
X130247021Y-87385535D01*
X130247481Y-87385545D01*
X130268371Y-87383808D01*
X130278983Y-87373602D01*
X130285355Y-87349203D01*
X130290255Y-87328685D01*
X130304840Y-87289108D01*
X130324026Y-87252598D01*
X130345170Y-87223159D01*
X130365632Y-87204799D01*
X130382767Y-87201521D01*
X130385133Y-87202636D01*
X130401429Y-87220639D01*
X130416654Y-87253549D01*
X130429141Y-87296939D01*
X130437226Y-87346380D01*
X130443347Y-87404938D01*
X130482664Y-87411581D01*
X130491135Y-87412921D01*
X130514079Y-87415437D01*
X130524533Y-87414730D01*
X130526753Y-87409994D01*
X130534436Y-87390812D01*
X130545088Y-87362686D01*
X130550799Y-87348679D01*
X130571415Y-87310467D01*
X130595793Y-87277720D01*
X130620295Y-87254842D01*
X130641282Y-87246237D01*
X130654753Y-87254406D01*
X130668361Y-87278414D01*
X130679806Y-87313910D01*
X130687694Y-87356504D01*
X130690634Y-87401803D01*
X130691039Y-87427619D01*
X130694340Y-87446227D01*
X130703600Y-87455116D01*
X130721884Y-87459987D01*
X130747474Y-87464436D01*
X130768890Y-87463941D01*
X130781242Y-87453948D01*
X130790355Y-87432080D01*
X130793866Y-87423112D01*
X130810517Y-87393684D01*
X130833655Y-87362540D01*
X130859129Y-87334422D01*
X130882790Y-87314074D01*
X130900486Y-87306237D01*
X130913864Y-87314816D01*
X130925779Y-87339080D01*
X130934584Y-87374600D01*
X130939193Y-87416930D01*
X130938517Y-87461625D01*
X130934047Y-87515521D01*
X130976261Y-87529904D01*
X131018475Y-87544288D01*
X131036354Y-87504639D01*
X131053511Y-87474853D01*
X131078346Y-87442828D01*
X131105894Y-87414386D01*
X131131777Y-87394024D01*
X131151619Y-87386237D01*
X131165345Y-87391527D01*
X131177313Y-87413737D01*
X131182435Y-87445829D01*
X131184597Y-87490291D01*
X131183030Y-87534635D01*
X131177711Y-87569100D01*
X131175531Y-87577993D01*
X131175954Y-87592451D01*
X131187063Y-87603381D01*
X131212852Y-87616129D01*
X131255634Y-87635295D01*
X131272347Y-87602765D01*
X131279670Y-87590469D01*
X131301402Y-87562620D01*
X131328560Y-87534438D01*
X131356715Y-87509950D01*
X131381440Y-87493186D01*
X131398306Y-87488174D01*
X131412221Y-87500216D01*
X131421409Y-87527001D01*
X131425644Y-87563778D01*
X131424727Y-87605803D01*
X131418458Y-87648332D01*
X131406639Y-87686620D01*
X131405818Y-87694195D01*
X131416423Y-87707472D01*
X131444090Y-87723365D01*
X131488062Y-87744728D01*
X131501649Y-87719341D01*
X131508621Y-87708177D01*
X131531038Y-87681295D01*
X131559607Y-87653899D01*
X131589581Y-87629953D01*
X131616212Y-87613417D01*
X131634753Y-87608254D01*
X131643538Y-87610599D01*
X131651668Y-87619282D01*
X131656104Y-87638492D01*
X131658591Y-87672965D01*
X131658618Y-87673551D01*
X131656701Y-87728477D01*
X131646091Y-87771686D01*
X131645895Y-87772153D01*
X131634712Y-87800893D01*
X131633174Y-87818128D01*
X131643194Y-87830721D01*
X131666689Y-87845535D01*
X131702744Y-87866808D01*
X131750607Y-87818184D01*
X131774272Y-87795781D01*
X131814601Y-87765640D01*
X131849602Y-87750043D01*
X131876824Y-87750310D01*
X131881429Y-87752629D01*
X131888222Y-87762366D01*
X131890117Y-87782097D01*
X131887930Y-87816689D01*
X131884474Y-87841973D01*
X131874918Y-87883390D01*
X131862897Y-87916310D01*
X131843308Y-87955904D01*
X131876303Y-87981071D01*
X131883987Y-87986788D01*
X131904696Y-88000680D01*
X131916456Y-88006237D01*
X131921309Y-88003857D01*
X131937403Y-87990701D01*
X131958925Y-87969878D01*
X131968589Y-87960675D01*
X132003367Y-87933993D01*
X132038596Y-87913897D01*
X132048524Y-87909578D01*
X132072224Y-87901034D01*
X132086500Y-87901038D01*
X132097750Y-87909069D01*
X132102021Y-87913977D01*
X132107246Y-87927144D01*
X132106723Y-87948082D01*
X132100684Y-87982550D01*
X132094732Y-88007365D01*
X132082515Y-88045534D01*
X132069729Y-88074309D01*
X132066330Y-88080257D01*
X132055146Y-88100962D01*
X132050634Y-88111300D01*
X132052099Y-88113532D01*
X132064710Y-88125160D01*
X132086031Y-88142219D01*
X132121429Y-88169218D01*
X132148531Y-88143624D01*
X132168519Y-88127091D01*
X132207021Y-88102493D01*
X132247043Y-88083416D01*
X132280634Y-88074048D01*
X132295084Y-88073932D01*
X132304716Y-88082330D01*
X132308886Y-88105326D01*
X132307829Y-88131922D01*
X132297769Y-88175106D01*
X132280424Y-88219186D01*
X132258642Y-88255637D01*
X132239766Y-88280037D01*
X132274964Y-88315234D01*
X132310161Y-88350432D01*
X132337897Y-88324476D01*
X132365277Y-88302424D01*
X132403868Y-88279873D01*
X132441902Y-88265368D01*
X132474562Y-88260634D01*
X132497035Y-88267400D01*
X132505948Y-88281694D01*
X132504846Y-88310331D01*
X132501582Y-88322705D01*
X132488601Y-88357486D01*
X132471112Y-88394177D01*
X132452644Y-88425790D01*
X132436721Y-88445335D01*
X132432750Y-88448960D01*
X132428368Y-88458766D01*
X132434297Y-88472892D01*
X132452108Y-88496576D01*
X132482968Y-88534977D01*
X132522139Y-88509055D01*
X132550609Y-88492930D01*
X132589239Y-88476913D01*
X132626871Y-88466379D01*
X132658039Y-88462788D01*
X132677276Y-88467601D01*
X132683705Y-88474353D01*
X132690536Y-88489962D01*
X132690089Y-88494090D01*
X132682493Y-88517526D01*
X132667944Y-88549746D01*
X132649632Y-88584574D01*
X132630745Y-88615831D01*
X132614472Y-88637339D01*
X132589571Y-88663441D01*
X132617100Y-88697339D01*
X132624645Y-88706665D01*
X132639280Y-88725030D01*
X132645494Y-88733266D01*
X132651721Y-88731297D01*
X132671461Y-88722498D01*
X132699879Y-88708808D01*
X132735900Y-88694009D01*
X132776093Y-88683845D01*
X132811192Y-88681092D01*
X132836826Y-88686038D01*
X132848624Y-88698972D01*
X132848721Y-88709797D01*
X132840336Y-88738990D01*
X132823256Y-88774001D01*
X132800610Y-88808893D01*
X132775525Y-88837728D01*
X132742252Y-88869112D01*
X132768067Y-88908121D01*
X132777278Y-88921185D01*
X132795055Y-88938854D01*
X132809758Y-88940333D01*
X132814410Y-88938369D01*
X132865565Y-88920182D01*
X132913010Y-88909030D01*
X132953145Y-88905276D01*
X132982370Y-88909284D01*
X132997086Y-88921417D01*
X132998942Y-88935580D01*
X132989669Y-88966825D01*
X132966035Y-89004993D01*
X132929458Y-89047444D01*
X132881543Y-89096636D01*
X132902895Y-89133937D01*
X132908450Y-89143617D01*
X132920602Y-89164593D01*
X132926511Y-89174475D01*
X132927330Y-89174777D01*
X132939724Y-89170990D01*
X132961498Y-89160791D01*
X132976533Y-89154623D01*
X133010587Y-89146629D01*
X133048942Y-89142588D01*
X133085658Y-89142671D01*
X133114798Y-89147051D01*
X133130421Y-89155898D01*
X133132814Y-89169920D01*
X133124372Y-89196356D01*
X133105428Y-89228035D01*
X133078948Y-89260889D01*
X133047898Y-89290852D01*
X133015242Y-89313857D01*
X133010132Y-89317040D01*
X133004658Y-89325249D01*
X133007876Y-89339574D01*
X133020345Y-89365673D01*
X133022553Y-89369959D01*
X133036757Y-89393588D01*
X133048994Y-89402745D01*
X133063838Y-89401163D01*
X133082473Y-89397187D01*
X133115137Y-89392691D01*
X133153242Y-89389046D01*
X133185429Y-89387708D01*
X133222750Y-89391440D01*
X133243937Y-89402906D01*
X133250634Y-89422674D01*
X133250463Y-89423986D01*
X133241752Y-89439180D01*
X133222803Y-89462693D01*
X133197701Y-89490217D01*
X133170534Y-89517440D01*
X133145389Y-89540053D01*
X133126353Y-89553745D01*
X133117686Y-89558893D01*
X133112219Y-89567210D01*
X133114554Y-89582130D01*
X133124492Y-89609641D01*
X133131311Y-89626884D01*
X133140995Y-89644894D01*
X133151367Y-89649906D01*
X133166924Y-89645747D01*
X133175266Y-89642967D01*
X133212105Y-89636690D01*
X133252982Y-89636538D01*
X133291960Y-89641818D01*
X133323100Y-89651842D01*
X133340463Y-89665918D01*
X133342178Y-89677747D01*
X133332393Y-89701826D01*
X133310265Y-89729977D01*
X133278807Y-89758616D01*
X133241031Y-89784162D01*
X133193550Y-89811279D01*
X133219744Y-89901237D01*
X133282173Y-89897749D01*
X133295703Y-89897189D01*
X133345742Y-89898979D01*
X133385296Y-89906667D01*
X133411286Y-89919395D01*
X133420634Y-89936306D01*
X133419051Y-89944730D01*
X133404538Y-89969069D01*
X133378325Y-89996663D01*
X133344674Y-90023400D01*
X133307847Y-90045166D01*
X133284655Y-90056859D01*
X133270388Y-90067954D01*
X133267267Y-90081659D01*
X133271526Y-90104082D01*
X133272912Y-90110135D01*
X133278152Y-90134872D01*
X133280395Y-90148737D01*
X133287029Y-90152134D01*
X133308796Y-90155097D01*
X133340431Y-90156237D01*
X133366655Y-90157330D01*
X133410049Y-90163910D01*
X133446386Y-90175134D01*
X133471353Y-90189486D01*
X133480634Y-90205452D01*
X133475443Y-90221535D01*
X133454912Y-90246254D01*
X133422407Y-90272303D01*
X133381839Y-90296661D01*
X133337117Y-90316308D01*
X133316880Y-90327742D01*
X133314617Y-90342194D01*
X133318516Y-90359021D01*
X133320634Y-90385666D01*
X133321815Y-90401037D01*
X133328605Y-90410170D01*
X133345784Y-90415170D01*
X133378134Y-90418793D01*
X133396991Y-90420936D01*
X133445972Y-90430605D01*
X133485179Y-90444414D01*
X133511202Y-90460931D01*
X133520634Y-90478721D01*
X133517422Y-90492954D01*
X133503134Y-90512876D01*
X133501788Y-90513923D01*
X133473201Y-90532361D01*
X133435537Y-90552386D01*
X133397357Y-90569755D01*
X133367224Y-90580226D01*
X133366421Y-90580422D01*
X133346703Y-90589221D01*
X133344724Y-90602474D01*
X133348628Y-90619857D01*
X133350634Y-90646602D01*
X133352782Y-90665253D01*
X133363356Y-90675529D01*
X133388134Y-90681424D01*
X133423226Y-90688918D01*
X133468025Y-90703032D01*
X133506167Y-90719796D01*
X133531055Y-90736659D01*
X133538957Y-90744001D01*
X133552456Y-90748913D01*
X133569977Y-90739572D01*
X133581318Y-90733840D01*
X133610872Y-90724977D01*
X133645894Y-90719089D01*
X133700634Y-90713439D01*
X133700634Y-90676421D01*
X133700577Y-90669352D01*
X133697687Y-90648378D01*
X133686371Y-90636729D01*
X133661084Y-90627554D01*
X133653456Y-90625028D01*
X133620742Y-90609587D01*
X133590857Y-90589348D01*
X133569067Y-90568344D01*
X133560634Y-90550605D01*
X133560696Y-90549277D01*
X133571313Y-90533110D01*
X133596980Y-90519365D01*
X133633116Y-90509815D01*
X133675137Y-90506237D01*
X133693143Y-90506051D01*
X133717081Y-90503931D01*
X133728023Y-90498137D01*
X133730634Y-90487055D01*
X133731362Y-90475946D01*
X133736523Y-90452525D01*
X133737132Y-90445763D01*
X133726313Y-90432215D01*
X133698007Y-90416303D01*
X133686827Y-90410593D01*
X133652558Y-90388768D01*
X133625114Y-90365695D01*
X133618118Y-90358315D01*
X133604893Y-90341845D01*
X133603972Y-90330818D01*
X133613801Y-90318784D01*
X133628314Y-90309607D01*
X133658131Y-90302103D01*
X133704441Y-90297899D01*
X133732394Y-90296380D01*
X133759148Y-90293593D01*
X133774123Y-90288184D01*
X133782162Y-90278015D01*
X133788109Y-90260946D01*
X133793551Y-90237997D01*
X133788841Y-90225737D01*
X133770891Y-90216344D01*
X133767625Y-90214899D01*
X133754085Y-90206404D01*
X134832125Y-90206404D01*
X134849815Y-90350188D01*
X134887123Y-90493105D01*
X134914493Y-90575443D01*
X134958247Y-90493555D01*
X135002000Y-90411668D01*
X134976591Y-90346453D01*
X134976259Y-90345599D01*
X134947968Y-90263903D01*
X134930753Y-90189682D01*
X134923266Y-90114830D01*
X134923838Y-90061237D01*
X135572835Y-90061237D01*
X135665892Y-90056237D01*
X135667789Y-90056135D01*
X135711114Y-90053438D01*
X135739381Y-90050040D01*
X135757349Y-90044502D01*
X135769773Y-90035381D01*
X135781411Y-90021237D01*
X135806652Y-89989266D01*
X135893496Y-89900268D01*
X135993107Y-89826225D01*
X136104236Y-89767967D01*
X136225634Y-89726323D01*
X136232332Y-89724598D01*
X136275562Y-89715297D01*
X136320678Y-89709381D01*
X136373697Y-89706263D01*
X136440634Y-89705356D01*
X136454052Y-89705416D01*
X136567572Y-89711183D01*
X136679205Y-89727088D01*
X136794576Y-89754167D01*
X136919308Y-89793454D01*
X136919487Y-89793514D01*
X136921387Y-89789848D01*
X136911254Y-89775269D01*
X136891230Y-89752871D01*
X136862208Y-89726720D01*
X136826308Y-89704077D01*
X136781551Y-89685212D01*
X136724229Y-89668581D01*
X136650634Y-89652639D01*
X136600652Y-89644062D01*
X136455204Y-89631739D01*
X136311478Y-89638004D01*
X136171540Y-89662543D01*
X136037455Y-89705042D01*
X135911287Y-89765186D01*
X135862854Y-89794294D01*
X135764779Y-89863914D01*
X135676949Y-89940953D01*
X135604234Y-90021346D01*
X135572835Y-90061237D01*
X134923838Y-90061237D01*
X134924158Y-90031237D01*
X134930669Y-89954576D01*
X134946062Y-89870624D01*
X134971656Y-89789242D01*
X135009580Y-89702236D01*
X135037951Y-89648858D01*
X135095724Y-89558682D01*
X135164047Y-89469126D01*
X135238336Y-89386019D01*
X135314008Y-89315186D01*
X135320988Y-89309291D01*
X135345673Y-89287589D01*
X135361042Y-89272642D01*
X135364008Y-89267398D01*
X135357005Y-89268586D01*
X135325768Y-89275520D01*
X135276373Y-89287856D01*
X135269732Y-89289927D01*
X135234652Y-89308848D01*
X135192341Y-89341852D01*
X135145407Y-89386502D01*
X135096458Y-89440364D01*
X135048103Y-89501002D01*
X135029494Y-89526662D01*
X134952718Y-89652418D01*
X134894351Y-89784761D01*
X134854635Y-89922200D01*
X134833813Y-90063245D01*
X134832125Y-90206404D01*
X133754085Y-90206404D01*
X133742016Y-90198832D01*
X133715520Y-90175985D01*
G37*
G36*
X123990634Y-91456237D02*
G01*
X123990634Y-91906237D01*
X124153134Y-91905999D01*
X124185817Y-91905775D01*
X124242403Y-91904570D01*
X124292424Y-91902511D01*
X124331402Y-91899807D01*
X124354860Y-91896663D01*
X124359131Y-91895638D01*
X124401431Y-91880435D01*
X124434619Y-91856766D01*
X124459949Y-91822364D01*
X124478677Y-91774965D01*
X124492057Y-91712300D01*
X124501345Y-91632105D01*
X124504476Y-91595252D01*
X124509499Y-91542012D01*
X124515073Y-91504443D01*
X124522889Y-91479819D01*
X124534638Y-91465412D01*
X124552011Y-91458498D01*
X124576696Y-91456348D01*
X124610386Y-91456237D01*
X124653285Y-91457625D01*
X124681937Y-91462244D01*
X124691372Y-91470009D01*
X124681306Y-91480822D01*
X124675133Y-91489802D01*
X124666353Y-91518272D01*
X124657434Y-91564038D01*
X124648663Y-91625545D01*
X124640331Y-91701237D01*
X124636075Y-91738681D01*
X124622813Y-91811412D01*
X124604015Y-91867540D01*
X124578881Y-91909090D01*
X124546608Y-91938088D01*
X124529266Y-91949876D01*
X124513851Y-91964147D01*
X124514841Y-91973779D01*
X124531291Y-91981446D01*
X124556981Y-91994638D01*
X124591031Y-92023341D01*
X124622846Y-92060679D01*
X124647120Y-92101165D01*
X124651593Y-92111177D01*
X124663019Y-92144951D01*
X124668859Y-92182619D01*
X124670536Y-92232140D01*
X124669615Y-92275483D01*
X124665400Y-92309123D01*
X124656063Y-92339403D01*
X124639783Y-92374780D01*
X124622309Y-92406257D01*
X124590787Y-92446636D01*
X124550181Y-92479031D01*
X124495083Y-92508437D01*
X124495016Y-92508468D01*
X124480037Y-92515001D01*
X124464976Y-92520188D01*
X124447344Y-92524216D01*
X124424652Y-92527271D01*
X124394408Y-92529542D01*
X124354125Y-92531215D01*
X124301311Y-92532478D01*
X124233477Y-92533517D01*
X124148134Y-92534520D01*
X123850634Y-92537802D01*
X123850634Y-92407985D01*
X123990634Y-92407985D01*
X124198134Y-92404514D01*
X124269421Y-92403061D01*
X124331090Y-92400768D01*
X124378114Y-92397098D01*
X124413297Y-92391386D01*
X124439440Y-92382966D01*
X124459345Y-92371173D01*
X124475816Y-92355341D01*
X124491654Y-92334805D01*
X124504407Y-92310173D01*
X124516375Y-92264726D01*
X124520738Y-92212868D01*
X124516435Y-92161995D01*
X124515156Y-92156108D01*
X124495370Y-92112590D01*
X124460809Y-92073789D01*
X124416047Y-92045034D01*
X124411211Y-92042923D01*
X124393724Y-92036898D01*
X124372313Y-92032528D01*
X124343762Y-92029555D01*
X124304859Y-92027723D01*
X124252387Y-92026776D01*
X124183134Y-92026457D01*
X123990634Y-92026237D01*
X123990634Y-92407985D01*
X123850634Y-92407985D01*
X123850634Y-91456237D01*
X123990634Y-91456237D01*
G37*
G36*
X125682093Y-91934116D02*
G01*
X125687087Y-91871161D01*
X125695850Y-91820838D01*
X125721139Y-91742901D01*
X125767194Y-91652672D01*
X125827361Y-91576183D01*
X125900950Y-91514115D01*
X125987271Y-91467151D01*
X126085634Y-91435972D01*
X126116790Y-91431422D01*
X126170872Y-91429094D01*
X126232528Y-91430760D01*
X126294947Y-91435991D01*
X126351317Y-91444358D01*
X126394826Y-91455433D01*
X126404735Y-91459044D01*
X126492598Y-91502373D01*
X126568546Y-91561298D01*
X126631631Y-91634737D01*
X126680904Y-91721611D01*
X126715417Y-91820838D01*
X126721726Y-91852958D01*
X126727954Y-91912538D01*
X126730416Y-91980103D01*
X126729117Y-92048746D01*
X126724060Y-92111560D01*
X126715248Y-92161637D01*
X126697554Y-92218952D01*
X126654515Y-92311566D01*
X126597624Y-92391270D01*
X126528019Y-92456863D01*
X126446837Y-92507148D01*
X126355218Y-92540926D01*
X126314151Y-92548827D01*
X126249062Y-92554658D01*
X126178939Y-92555285D01*
X126111896Y-92550707D01*
X126056049Y-92540926D01*
X126003299Y-92524029D01*
X125917410Y-92480819D01*
X125842600Y-92421776D01*
X125780007Y-92348098D01*
X125730767Y-92260986D01*
X125696019Y-92161637D01*
X125689679Y-92129694D01*
X125683392Y-92070290D01*
X125681386Y-92016784D01*
X125825734Y-92016784D01*
X125836023Y-92107147D01*
X125859223Y-92191643D01*
X125895080Y-92265360D01*
X125912915Y-92290068D01*
X125958663Y-92337293D01*
X126012529Y-92377942D01*
X126067038Y-92405904D01*
X126080047Y-92410331D01*
X126143401Y-92423250D01*
X126214114Y-92426819D01*
X126283838Y-92421037D01*
X126344229Y-92405904D01*
X126371713Y-92393573D01*
X126426827Y-92358362D01*
X126477477Y-92313588D01*
X126516187Y-92265360D01*
X126529931Y-92241547D01*
X126561619Y-92163392D01*
X126580550Y-92075456D01*
X126585950Y-91982520D01*
X126577045Y-91889363D01*
X126568203Y-91848107D01*
X126537570Y-91761706D01*
X126492993Y-91689616D01*
X126434429Y-91631776D01*
X126361834Y-91588123D01*
X126353391Y-91584353D01*
X126315124Y-91570761D01*
X126273645Y-91562997D01*
X126220634Y-91559367D01*
X126199058Y-91559042D01*
X126111501Y-91567799D01*
X126034973Y-91593221D01*
X125969262Y-91635438D01*
X125914154Y-91694576D01*
X125869437Y-91770764D01*
X125844907Y-91838104D01*
X125828610Y-91925466D01*
X125825734Y-92016784D01*
X125681386Y-92016784D01*
X125680862Y-92002795D01*
X125682093Y-91934116D01*
G37*
G36*
X135177776Y-91437265D02*
G01*
X135237725Y-91441422D01*
X135285634Y-91449831D01*
X135332662Y-91465412D01*
X135409207Y-91506245D01*
X135473878Y-91562282D01*
X135525597Y-91632234D01*
X135563289Y-91714815D01*
X135585875Y-91808737D01*
X135592904Y-91856237D01*
X135443352Y-91856237D01*
X135437193Y-91811299D01*
X135436812Y-91808625D01*
X135416828Y-91738956D01*
X135379855Y-91676049D01*
X135328567Y-91623433D01*
X135265634Y-91584637D01*
X135262134Y-91583093D01*
X135200706Y-91565689D01*
X135131560Y-91560801D01*
X135062026Y-91568331D01*
X134999433Y-91588182D01*
X134961217Y-91608302D01*
X134895488Y-91659066D01*
X134843943Y-91723649D01*
X134806802Y-91801643D01*
X134784288Y-91892641D01*
X134776623Y-91996237D01*
X134776632Y-92000867D01*
X134784615Y-92099279D01*
X134806937Y-92187662D01*
X134842738Y-92264562D01*
X134891159Y-92328526D01*
X134951339Y-92378100D01*
X135022420Y-92411831D01*
X135069503Y-92422022D01*
X135127837Y-92425764D01*
X135188383Y-92422780D01*
X135244006Y-92413440D01*
X135287571Y-92398113D01*
X135291611Y-92395975D01*
X135345588Y-92357751D01*
X135389425Y-92308781D01*
X135418191Y-92254487D01*
X135435328Y-92206237D01*
X135502981Y-92206237D01*
X135516150Y-92206262D01*
X135546624Y-92207113D01*
X135562913Y-92210359D01*
X135569441Y-92217579D01*
X135570634Y-92230348D01*
X135569881Y-92244535D01*
X135556362Y-92297493D01*
X135528233Y-92353112D01*
X135488546Y-92407623D01*
X135440350Y-92457260D01*
X135386696Y-92498253D01*
X135330634Y-92526833D01*
X135324169Y-92529232D01*
X135294911Y-92538895D01*
X135266683Y-92545239D01*
X135234230Y-92548908D01*
X135192298Y-92550548D01*
X135135634Y-92550805D01*
X135132291Y-92550793D01*
X135076031Y-92550068D01*
X135034458Y-92547987D01*
X135002524Y-92543920D01*
X134975184Y-92537238D01*
X134947391Y-92527309D01*
X134904099Y-92507436D01*
X134825129Y-92455370D01*
X134756639Y-92388311D01*
X134700943Y-92308746D01*
X134660358Y-92219161D01*
X134647148Y-92167642D01*
X134637278Y-92100203D01*
X134631859Y-92025762D01*
X134631145Y-91950794D01*
X134635392Y-91881773D01*
X134644855Y-91825175D01*
X134653570Y-91793933D01*
X134691659Y-91699092D01*
X134743493Y-91616334D01*
X134807751Y-91547169D01*
X134883112Y-91493106D01*
X134968253Y-91455656D01*
X134994474Y-91449041D01*
X135049272Y-91441200D01*
X135112666Y-91437233D01*
X135177776Y-91437265D01*
G37*
G36*
X124890634Y-93086237D02*
G01*
X124890634Y-95148338D01*
X125393134Y-95143581D01*
X125500848Y-95142480D01*
X125610436Y-95141062D01*
X125703770Y-95139360D01*
X125782875Y-95137217D01*
X125849773Y-95134479D01*
X125906487Y-95130988D01*
X125955040Y-95126588D01*
X125997456Y-95121125D01*
X126035758Y-95114441D01*
X126071969Y-95106381D01*
X126108111Y-95096789D01*
X126146209Y-95085508D01*
X126227325Y-95055781D01*
X126336110Y-94998518D01*
X126433614Y-94925472D01*
X126518534Y-94837847D01*
X126589570Y-94736847D01*
X126645420Y-94623678D01*
X126646801Y-94620231D01*
X126663471Y-94575829D01*
X126677793Y-94531053D01*
X126690161Y-94483451D01*
X126700969Y-94430573D01*
X126710609Y-94369967D01*
X126719477Y-94299181D01*
X126727965Y-94215765D01*
X126736467Y-94117268D01*
X126745376Y-94001237D01*
X126751765Y-93915804D01*
X126763233Y-93770549D01*
X126774216Y-93643384D01*
X126784907Y-93533072D01*
X126795496Y-93438378D01*
X126806171Y-93358066D01*
X126817125Y-93290900D01*
X126828546Y-93235646D01*
X126840626Y-93191066D01*
X126853553Y-93155926D01*
X126867520Y-93128990D01*
X126882715Y-93109022D01*
X126904120Y-93086237D01*
X127920634Y-93086237D01*
X127920634Y-93112298D01*
X127915711Y-93132925D01*
X127895302Y-93158285D01*
X127880078Y-93172283D01*
X127856143Y-93204412D01*
X127834812Y-93247718D01*
X127815869Y-93303300D01*
X127799103Y-93372261D01*
X127784300Y-93455699D01*
X127771245Y-93554715D01*
X127759725Y-93670410D01*
X127749527Y-93803884D01*
X127740438Y-93956237D01*
X127735471Y-94045325D01*
X127725248Y-94202636D01*
X127713928Y-94342682D01*
X127701232Y-94467257D01*
X127686884Y-94578153D01*
X127670607Y-94677164D01*
X127652124Y-94766082D01*
X127631158Y-94846701D01*
X127607432Y-94920814D01*
X127580668Y-94990214D01*
X127568125Y-95018576D01*
X127505866Y-95129239D01*
X127427156Y-95230286D01*
X127333511Y-95320405D01*
X127226448Y-95398281D01*
X127107483Y-95462602D01*
X126978134Y-95512053D01*
X126952092Y-95520886D01*
X126929376Y-95530437D01*
X126920634Y-95536801D01*
X126924916Y-95540258D01*
X126944551Y-95549283D01*
X126976472Y-95561589D01*
X127016655Y-95575552D01*
X127118645Y-95613240D01*
X127261779Y-95681529D01*
X127389690Y-95762783D01*
X127502356Y-95856978D01*
X127599756Y-95964091D01*
X127681870Y-96084098D01*
X127748676Y-96216974D01*
X127800155Y-96362695D01*
X127836284Y-96521237D01*
X127838913Y-96537686D01*
X127847355Y-96614352D01*
X127852316Y-96702806D01*
X127853786Y-96796753D01*
X127851756Y-96889899D01*
X127846214Y-96975948D01*
X127837150Y-97048606D01*
X127836950Y-97049780D01*
X127800135Y-97209438D01*
X127746107Y-97359618D01*
X127675556Y-97499755D01*
X127589170Y-97629288D01*
X127487638Y-97747652D01*
X127371647Y-97854284D01*
X127241886Y-97948621D01*
X127099045Y-98030098D01*
X126943810Y-98098153D01*
X126776871Y-98152222D01*
X126598916Y-98191742D01*
X126410634Y-98216149D01*
X126383973Y-98217572D01*
X126338261Y-98218919D01*
X126274633Y-98220177D01*
X126194134Y-98221337D01*
X126097807Y-98222391D01*
X125986700Y-98223331D01*
X125861854Y-98224150D01*
X125724316Y-98224840D01*
X125575131Y-98225393D01*
X125415342Y-98225801D01*
X125245995Y-98226057D01*
X125068134Y-98226152D01*
X123840634Y-98226237D01*
X123840634Y-97376237D01*
X124890634Y-97376237D01*
X125488134Y-97376162D01*
X125502697Y-97376159D01*
X125647072Y-97375990D01*
X125773250Y-97375460D01*
X125882878Y-97374416D01*
X125977603Y-97372705D01*
X126059072Y-97370173D01*
X126128933Y-97366669D01*
X126188834Y-97362039D01*
X126240420Y-97356130D01*
X126285339Y-97348790D01*
X126325239Y-97339866D01*
X126361766Y-97329204D01*
X126396568Y-97316653D01*
X126431293Y-97302058D01*
X126467586Y-97285268D01*
X126531001Y-97249852D01*
X126615119Y-97184345D01*
X126688164Y-97104046D01*
X126748334Y-97011040D01*
X126793828Y-96907415D01*
X126803792Y-96877350D01*
X126814274Y-96838804D01*
X126821167Y-96799934D01*
X126825540Y-96754181D01*
X126828463Y-96694988D01*
X126829209Y-96635124D01*
X126820772Y-96524222D01*
X126798231Y-96424916D01*
X126760639Y-96334618D01*
X126707049Y-96250741D01*
X126636514Y-96170699D01*
X126564968Y-96108191D01*
X126483752Y-96056034D01*
X126392912Y-96015887D01*
X126289582Y-95986493D01*
X126170896Y-95966598D01*
X126163691Y-95965865D01*
X126129667Y-95963816D01*
X126077890Y-95961959D01*
X126010038Y-95960317D01*
X125927790Y-95958916D01*
X125832824Y-95957782D01*
X125726817Y-95956941D01*
X125611449Y-95956418D01*
X125488396Y-95956237D01*
X124890634Y-95956237D01*
X124890634Y-97376237D01*
X123840634Y-97376237D01*
X123840634Y-93086237D01*
X124890634Y-93086237D01*
G37*
G36*
X137036532Y-91438077D02*
G01*
X137105586Y-91443126D01*
X137167214Y-91452453D01*
X137215324Y-91465887D01*
X137217877Y-91466904D01*
X137276858Y-91498806D01*
X137328895Y-91542294D01*
X137369656Y-91593004D01*
X137394807Y-91646574D01*
X137400521Y-91668174D01*
X137410095Y-91744637D01*
X137403709Y-91818636D01*
X137382015Y-91886233D01*
X137345665Y-91943491D01*
X137332380Y-91957787D01*
X137297161Y-91986721D01*
X137252179Y-92012459D01*
X137194885Y-92036130D01*
X137122731Y-92058860D01*
X137033169Y-92081779D01*
X137023921Y-92083969D01*
X136948314Y-92102769D01*
X136889395Y-92119535D01*
X136844412Y-92135362D01*
X136810614Y-92151342D01*
X136785250Y-92168570D01*
X136765568Y-92188139D01*
X136758636Y-92196942D01*
X136735983Y-92242301D01*
X136731928Y-92288929D01*
X136745743Y-92334087D01*
X136776702Y-92375030D01*
X136824079Y-92409016D01*
X136831467Y-92412825D01*
X136854580Y-92422194D01*
X136880927Y-92427802D01*
X136916085Y-92430525D01*
X136965634Y-92431237D01*
X136981253Y-92431189D01*
X137026359Y-92429985D01*
X137058586Y-92426514D01*
X137083479Y-92419915D01*
X137106580Y-92409327D01*
X137153730Y-92376362D01*
X137197764Y-92324256D01*
X137226077Y-92261193D01*
X137242053Y-92206237D01*
X137381015Y-92206237D01*
X137374941Y-92233737D01*
X137348984Y-92323064D01*
X137312850Y-92397180D01*
X137265661Y-92455595D01*
X137206167Y-92499500D01*
X137133121Y-92530089D01*
X137045273Y-92548553D01*
X136961652Y-92553861D01*
X136875165Y-92546817D01*
X136795661Y-92527411D01*
X136726636Y-92496517D01*
X136671585Y-92455011D01*
X136639968Y-92416092D01*
X136611577Y-92357707D01*
X136597375Y-92294075D01*
X136597272Y-92229155D01*
X136611173Y-92166905D01*
X136638989Y-92111282D01*
X136680626Y-92066244D01*
X136704215Y-92048925D01*
X136735206Y-92030543D01*
X136771836Y-92013968D01*
X136817613Y-91997840D01*
X136876043Y-91980799D01*
X136950634Y-91961484D01*
X136969133Y-91956829D01*
X137023819Y-91942592D01*
X137073664Y-91928964D01*
X137113800Y-91917301D01*
X137139358Y-91908957D01*
X137163048Y-91898626D01*
X137212581Y-91864149D01*
X137246574Y-91819777D01*
X137263918Y-91768207D01*
X137263502Y-91712133D01*
X137244216Y-91654254D01*
X137243160Y-91652205D01*
X137212369Y-91613999D01*
X137167161Y-91584344D01*
X137111209Y-91563626D01*
X137048183Y-91552229D01*
X136981756Y-91550539D01*
X136915599Y-91558939D01*
X136853385Y-91577816D01*
X136798784Y-91607555D01*
X136780737Y-91622800D01*
X136746453Y-91664985D01*
X136718021Y-91717124D01*
X136699473Y-91772515D01*
X136687451Y-91826237D01*
X136547848Y-91826237D01*
X136553486Y-91778629D01*
X136555717Y-91762346D01*
X136578214Y-91678046D01*
X136617403Y-91604403D01*
X136672634Y-91542182D01*
X136743253Y-91492151D01*
X136828610Y-91455074D01*
X136845723Y-91450304D01*
X136900510Y-91441496D01*
X136966143Y-91437477D01*
X137036532Y-91438077D01*
G37*
G36*
X129750634Y-98226237D02*
G01*
X128700634Y-98226237D01*
X128700634Y-93086237D01*
X129750634Y-93086237D01*
X129750634Y-98226237D01*
G37*
G36*
X128083134Y-91458197D02*
G01*
X128156823Y-91458988D01*
X128228377Y-91459979D01*
X128284410Y-91461182D01*
X128327360Y-91462766D01*
X128359662Y-91464898D01*
X128383755Y-91467749D01*
X128402074Y-91471486D01*
X128417057Y-91476278D01*
X128431142Y-91482294D01*
X128476341Y-91507695D01*
X128534939Y-91558136D01*
X128578684Y-91620337D01*
X128582418Y-91627560D01*
X128594417Y-91654634D01*
X128601404Y-91681442D01*
X128604661Y-91714729D01*
X128605470Y-91761237D01*
X128604745Y-91804378D01*
X128601518Y-91840069D01*
X128594735Y-91867468D01*
X128583352Y-91892770D01*
X128577033Y-91903660D01*
X128542370Y-91946928D01*
X128498623Y-91984040D01*
X128453134Y-92008473D01*
X128449480Y-92009833D01*
X128429018Y-92019050D01*
X128420711Y-92025746D01*
X128422497Y-92028375D01*
X128436625Y-92039193D01*
X128460209Y-92053748D01*
X128474611Y-92062776D01*
X128518723Y-92103932D01*
X128548816Y-92154962D01*
X128565025Y-92212549D01*
X128567487Y-92273376D01*
X128556339Y-92334124D01*
X128531716Y-92391478D01*
X128493754Y-92442119D01*
X128442590Y-92482731D01*
X128417063Y-92496591D01*
X128386772Y-92509098D01*
X128352120Y-92518772D01*
X128310503Y-92525943D01*
X128259317Y-92530944D01*
X128195959Y-92534106D01*
X128117826Y-92535760D01*
X128022314Y-92536237D01*
X127780634Y-92536237D01*
X127780634Y-92406237D01*
X127920634Y-92406237D01*
X128103515Y-92406237D01*
X128156640Y-92406145D01*
X128208948Y-92405580D01*
X128247381Y-92404200D01*
X128275368Y-92401665D01*
X128296338Y-92397635D01*
X128313717Y-92391773D01*
X128330934Y-92383737D01*
X128356273Y-92369028D01*
X128394288Y-92333652D01*
X128414710Y-92289721D01*
X128418514Y-92235584D01*
X128417804Y-92227250D01*
X128404624Y-92172509D01*
X128376832Y-92130665D01*
X128333330Y-92099970D01*
X128331633Y-92099140D01*
X128314977Y-92092498D01*
X128294360Y-92087519D01*
X128266576Y-92083889D01*
X128228415Y-92081295D01*
X128176670Y-92079422D01*
X128108134Y-92077958D01*
X127920634Y-92074679D01*
X127920634Y-92406237D01*
X127780634Y-92406237D01*
X127780634Y-91958825D01*
X127920634Y-91958825D01*
X128113134Y-91953968D01*
X128137721Y-91953306D01*
X128212038Y-91950463D01*
X128270132Y-91946270D01*
X128314940Y-91940022D01*
X128349397Y-91931017D01*
X128376438Y-91918549D01*
X128398998Y-91901917D01*
X128420013Y-91880416D01*
X128445379Y-91840801D01*
X128459671Y-91789634D01*
X128459292Y-91736229D01*
X128444963Y-91685187D01*
X128417407Y-91641107D01*
X128377345Y-91608587D01*
X128371199Y-91605541D01*
X128355682Y-91600242D01*
X128334259Y-91596212D01*
X128304112Y-91593213D01*
X128262421Y-91591007D01*
X128206368Y-91589357D01*
X128133134Y-91588026D01*
X127920634Y-91584815D01*
X127920634Y-91958825D01*
X127780634Y-91958825D01*
X127780634Y-91455156D01*
X128083134Y-91458197D01*
G37*
G36*
X129602093Y-91934116D02*
G01*
X129607087Y-91871161D01*
X129615850Y-91820838D01*
X129641139Y-91742901D01*
X129687194Y-91652672D01*
X129747361Y-91576183D01*
X129820950Y-91514115D01*
X129907271Y-91467151D01*
X130005634Y-91435972D01*
X130036790Y-91431422D01*
X130090872Y-91429094D01*
X130152528Y-91430760D01*
X130214947Y-91435991D01*
X130271317Y-91444358D01*
X130314826Y-91455433D01*
X130324735Y-91459044D01*
X130412598Y-91502373D01*
X130488546Y-91561298D01*
X130551631Y-91634737D01*
X130600904Y-91721611D01*
X130635417Y-91820838D01*
X130641726Y-91852958D01*
X130647954Y-91912538D01*
X130650416Y-91980103D01*
X130649117Y-92048746D01*
X130644060Y-92111560D01*
X130635248Y-92161637D01*
X130617554Y-92218952D01*
X130574515Y-92311566D01*
X130517624Y-92391270D01*
X130448019Y-92456863D01*
X130366837Y-92507148D01*
X130275218Y-92540926D01*
X130234151Y-92548827D01*
X130169062Y-92554658D01*
X130098939Y-92555285D01*
X130031896Y-92550707D01*
X129976049Y-92540926D01*
X129923299Y-92524029D01*
X129837410Y-92480819D01*
X129762600Y-92421776D01*
X129700007Y-92348098D01*
X129650767Y-92260986D01*
X129616019Y-92161637D01*
X129609679Y-92129694D01*
X129603392Y-92070290D01*
X129601386Y-92016784D01*
X129745734Y-92016784D01*
X129756023Y-92107147D01*
X129779223Y-92191643D01*
X129815080Y-92265360D01*
X129832915Y-92290068D01*
X129878663Y-92337293D01*
X129932529Y-92377942D01*
X129987038Y-92405904D01*
X130000047Y-92410331D01*
X130063401Y-92423250D01*
X130134114Y-92426819D01*
X130203838Y-92421037D01*
X130264229Y-92405904D01*
X130291713Y-92393573D01*
X130346827Y-92358362D01*
X130397477Y-92313588D01*
X130436187Y-92265360D01*
X130449931Y-92241547D01*
X130481619Y-92163392D01*
X130500550Y-92075456D01*
X130505950Y-91982520D01*
X130497045Y-91889363D01*
X130488203Y-91848107D01*
X130457570Y-91761706D01*
X130412993Y-91689616D01*
X130354429Y-91631776D01*
X130281834Y-91588123D01*
X130273391Y-91584353D01*
X130235124Y-91570761D01*
X130193645Y-91562997D01*
X130140634Y-91559367D01*
X130119058Y-91559042D01*
X130031501Y-91567799D01*
X129954973Y-91593221D01*
X129889262Y-91635438D01*
X129834154Y-91694576D01*
X129789437Y-91770764D01*
X129764907Y-91838104D01*
X129748610Y-91925466D01*
X129745734Y-92016784D01*
X129601386Y-92016784D01*
X129600862Y-92002795D01*
X129602093Y-91934116D01*
G37*
G36*
X132060634Y-92406237D02*
G01*
X132420634Y-92406237D01*
X132420634Y-92536237D01*
X131560634Y-92536237D01*
X131560634Y-92406237D01*
X131920634Y-92406237D01*
X131920634Y-91456237D01*
X132060634Y-91456237D01*
X132060634Y-92406237D01*
G37*
G36*
X133570634Y-92536237D02*
G01*
X133430634Y-92536237D01*
X133430634Y-91456237D01*
X133570634Y-91456237D01*
X133570634Y-92536237D01*
G37*
G36*
X133040634Y-97336237D02*
G01*
X134580634Y-97336237D01*
X134580634Y-98226237D01*
X130440634Y-98226237D01*
X130440634Y-97336237D01*
X131990634Y-97336237D01*
X131990634Y-93086237D01*
X133040634Y-93086237D01*
X133040634Y-97336237D01*
G37*
G36*
X135813083Y-94541576D02*
G01*
X135895772Y-94511787D01*
X136014885Y-94468838D01*
X136128247Y-94427915D01*
X136234405Y-94389546D01*
X136331908Y-94354258D01*
X136419303Y-94322576D01*
X136495138Y-94295029D01*
X136557961Y-94272141D01*
X136606321Y-94254440D01*
X136638763Y-94242453D01*
X136653838Y-94236705D01*
X136692042Y-94220843D01*
X135853838Y-93924395D01*
X135015634Y-93627946D01*
X135012953Y-93385953D01*
X135012508Y-93340560D01*
X135012198Y-93272462D01*
X135012600Y-93221366D01*
X135013795Y-93185342D01*
X135015865Y-93162462D01*
X135018890Y-93150797D01*
X135022953Y-93148417D01*
X135022996Y-93148432D01*
X135034268Y-93152409D01*
X135063232Y-93162630D01*
X135108747Y-93178694D01*
X135169672Y-93200198D01*
X135244865Y-93226739D01*
X135333186Y-93257913D01*
X135433493Y-93293319D01*
X135544646Y-93332553D01*
X135665503Y-93375213D01*
X135794924Y-93420896D01*
X135931767Y-93469200D01*
X136074891Y-93519721D01*
X136223155Y-93572056D01*
X137410677Y-93991237D01*
X137408155Y-94219588D01*
X137405634Y-94447939D01*
X135538466Y-95121237D01*
X136474550Y-95123789D01*
X137410634Y-95126340D01*
X137410634Y-96663438D01*
X137000634Y-96931359D01*
X136990218Y-96938167D01*
X136909673Y-96990949D01*
X136834663Y-97040333D01*
X136766791Y-97085248D01*
X136707662Y-97124621D01*
X136658882Y-97157382D01*
X136622055Y-97182456D01*
X136598785Y-97198773D01*
X136590678Y-97205259D01*
X136590816Y-97205503D01*
X136600961Y-97213317D01*
X136626053Y-97230842D01*
X136664488Y-97257003D01*
X136714661Y-97290727D01*
X136774971Y-97330941D01*
X136843812Y-97376571D01*
X136919583Y-97426542D01*
X137000678Y-97479782D01*
X137410634Y-97748326D01*
X137410634Y-98007282D01*
X137410465Y-98060632D01*
X137409672Y-98128971D01*
X137408298Y-98185830D01*
X137406418Y-98229081D01*
X137404108Y-98256593D01*
X137401444Y-98266237D01*
X137394891Y-98262752D01*
X137372726Y-98249198D01*
X137336283Y-98226239D01*
X137286911Y-98194746D01*
X137225964Y-98155588D01*
X137154791Y-98109638D01*
X137074744Y-98057765D01*
X136987174Y-98000840D01*
X136893432Y-97939735D01*
X136794869Y-97875319D01*
X136715956Y-97823712D01*
X136620892Y-97761628D01*
X136531638Y-97703433D01*
X136449559Y-97650012D01*
X136376019Y-97602250D01*
X136312382Y-97561032D01*
X136260013Y-97527242D01*
X136220276Y-97501764D01*
X136194536Y-97485484D01*
X136184156Y-97479287D01*
X136179679Y-97480782D01*
X136159745Y-97491584D01*
X136125360Y-97511995D01*
X136077915Y-97541135D01*
X136018798Y-97578129D01*
X135949398Y-97622100D01*
X135871104Y-97672169D01*
X135785305Y-97727462D01*
X135693390Y-97787099D01*
X135596747Y-97850205D01*
X135536662Y-97889540D01*
X135443048Y-97950736D01*
X135355198Y-98008057D01*
X135274480Y-98060616D01*
X135202265Y-98107524D01*
X135139921Y-98147894D01*
X135088818Y-98180837D01*
X135050326Y-98205468D01*
X135025813Y-98220897D01*
X135016650Y-98226237D01*
X135015109Y-98217448D01*
X135013657Y-98191177D01*
X135012424Y-98150018D01*
X135011469Y-98096581D01*
X135010852Y-98033478D01*
X135010634Y-97963320D01*
X135010634Y-97700403D01*
X135385232Y-97455820D01*
X135444994Y-97416677D01*
X135518317Y-97368294D01*
X135584864Y-97323981D01*
X135642964Y-97284871D01*
X135690949Y-97252097D01*
X135727150Y-97226791D01*
X135749898Y-97210088D01*
X135757526Y-97203118D01*
X135753019Y-97199177D01*
X135733523Y-97185097D01*
X135700182Y-97162068D01*
X135654700Y-97131235D01*
X135598781Y-97093745D01*
X135534126Y-97050742D01*
X135462441Y-97003374D01*
X135385427Y-96952785D01*
X135015634Y-96710571D01*
X135014921Y-96448004D01*
X135444426Y-96448004D01*
X135446449Y-96451498D01*
X135462713Y-96464841D01*
X135493040Y-96487114D01*
X135535856Y-96517229D01*
X135589591Y-96554100D01*
X135652674Y-96596639D01*
X135723532Y-96643761D01*
X135800596Y-96694377D01*
X136172973Y-96937516D01*
X136224303Y-96903939D01*
X136228682Y-96901074D01*
X136253033Y-96885135D01*
X136291341Y-96860055D01*
X136341489Y-96827219D01*
X136401361Y-96788015D01*
X136468837Y-96743829D01*
X136541800Y-96696048D01*
X136618134Y-96646058D01*
X136960634Y-96421753D01*
X136960634Y-95586237D01*
X136330634Y-95586237D01*
X136330634Y-96446237D01*
X135880634Y-96446237D01*
X135880634Y-95586237D01*
X135460634Y-95586237D01*
X135460634Y-96015504D01*
X135460632Y-96036658D01*
X135460551Y-96137564D01*
X135460303Y-96220540D01*
X135459821Y-96287330D01*
X135459040Y-96339676D01*
X135457895Y-96379320D01*
X135456321Y-96408005D01*
X135454252Y-96427473D01*
X135451624Y-96439468D01*
X135448370Y-96445731D01*
X135444426Y-96448004D01*
X135014921Y-96448004D01*
X135010532Y-94830585D01*
X135813083Y-94541576D01*
G37*
%TD*%
M02*
